mtllib mesh.mtl

# obj1
v -2.8234923900 4.0823775600 0.5950000200
v -1.3034924300 4.0823775600 0.1500000000
v -2.8234923900 4.0823775600 0.1500000000
v -1.3034924300 4.0823775600 0.5950000200
usemtl Patch_1_Mat_CR2_concrete
f 1 2 3
usemtl Patch_2_Mat_CR2_concrete
f 2 1 4

# obj2
v 2.8035075600 4.1893776200 0.4500000000
v 1.2605076500 4.1893776200 2.5680000400
v 1.2605076500 4.1893776200 0.4500000000
v 2.8035075600 4.1893776200 2.5680000400
usemtl Patch_3_Mat_CR2_windows
f 5 6 7
usemtl Patch_4_Mat_CR2_windows
f 6 5 8

# obj3
v 0.7575075900 4.1893776200 2.5680000400
v -0.7694923700 4.1893776200 0.4500000000
v 0.7575075900 4.1893776200 0.4500000000
v -0.7694923700 4.1893776200 2.5680000400
usemtl Patch_5_Mat_CR2_windows
f 9 10 11
usemtl Patch_6_Mat_CR2_windows
f 10 9 12

# obj4
v -1.2974924100 4.1893776200 2.5680000400
v -2.8844923400 4.1893776200 0.4500000000
v -1.2974924100 4.1893776200 0.4500000000
v -2.8844923400 4.1893776200 2.5680000400
usemtl Patch_7_Mat_CR2_windows
f 13 14 15
usemtl Patch_8_Mat_CR2_windows
f 14 13 16

# obj5
v -1.6164924200 -2.8906222000 0.0000000000
v -1.6164924200 -4.2546220900 2.9879999800
v -1.6164924200 -4.2546220900 0.0000000000
v -1.6164924200 -2.8906222000 2.9879999800
usemtl Patch_9_Mat_CR2_concrete
f 17 18 19
usemtl Patch_10_Mat_CR2_concrete
f 18 17 20

# obj6
v -0.7634924000 4.0823775600 0.5950000200
v 0.7565076000 4.0823775600 0.1500000000
v -0.7634924000 4.0823775600 0.1500000000
v 0.7565076000 4.0823775600 0.5950000200
usemtl Patch_11_Mat_CR2_concrete
f 21 22 23
usemtl Patch_12_Mat_CR2_concrete
f 22 21 24

# obj7
v 1.2665075800 4.0823775600 0.5950000200
v 2.7865076300 4.0823775600 0.1500000000
v 1.2665075800 4.0823775600 0.1500000000
v 2.7865076300 4.0823775600 0.5950000200
usemtl Patch_13_Mat_CR2_concrete
f 25 26 27
usemtl Patch_14_Mat_CR2_concrete
f 26 25 28

# obj8
v 3.1550136200 4.1893776200 -0.0000000000
v 2.8035075600 4.1893776200 0.4500000000
v -2.8844923400 4.1893776200 0.0000000000
v 3.1550136200 4.1893776200 2.9879999800
v 1.2605076500 4.1893776200 0.4500000000
v -1.2974924100 4.1893776200 0.4500000000
v 2.8035075600 4.1893776200 2.5680000400
v 1.2605076500 4.1893776200 2.5680000400
v 0.7575075900 4.1893776200 2.5680000400
v -0.7694923700 4.1893776200 2.5680000400
v -1.2974924100 4.1893776200 2.5680000400
v -2.8844923400 4.1893776200 2.5680000400
v -2.8844923400 4.1893776200 2.9879999800
v -0.7694923700 4.1893776200 0.4500000000
v 0.7575075900 4.1893776200 0.4500000000
v -2.8844923400 4.1893776200 0.4500000000
usemtl Patch_15_Mat_CR2_concrete
f 29 30 31
usemtl Patch_16_Mat_CR2_concrete
f 30 29 32
usemtl Patch_17_Mat_CR2_concrete
f 31 30 33
usemtl Patch_18_Mat_CR2_concrete
f 31 33 34
usemtl Patch_19_Mat_CR2_concrete
f 30 32 35
usemtl Patch_20_Mat_CR2_concrete
f 35 32 36
usemtl Patch_21_Mat_CR2_concrete
f 36 32 37
usemtl Patch_22_Mat_CR2_concrete
f 37 32 38
usemtl Patch_23_Mat_CR2_concrete
f 38 32 39
usemtl Patch_24_Mat_CR2_concrete
f 39 32 40
usemtl Patch_25_Mat_CR2_concrete
f 40 32 41
usemtl Patch_26_Mat_CR2_concrete
f 34 42 39
usemtl Patch_27_Mat_CR2_concrete
f 39 42 38
usemtl Patch_28_Mat_CR2_concrete
f 36 43 33
usemtl Patch_29_Mat_CR2_concrete
f 43 36 37
usemtl Patch_30_Mat_CR2_concrete
f 44 31 34

# obj9
v 3.1215075300 -4.1978054000 0.0000000000
v -1.6164924200 -2.8906222000 0.0000000000
v -1.6164924200 -4.2546220900 0.0000000000
v -2.8844923400 4.1893776200 0.0000000000
v -2.8844923400 -2.8906222000 0.0000000000
v 3.1550136200 4.1893776200 -0.0000000000
usemtl Patch_31_Mat_CR2_floor
f 45 46 47
usemtl Patch_32_Mat_CR2_floor
f 46 48 49
usemtl Patch_33_Mat_CR2_floor
f 48 46 50
usemtl Patch_34_Mat_CR2_floor
f 50 46 45

# obj10
v -2.8844923400 4.1893776200 0.0000000000
v -2.8844923400 -2.8906222000 2.9879589000
v -2.8844923400 -2.8906222000 0.0000000000
v -2.8844923400 4.1893776200 2.9879999800
v -2.8844923400 -2.8906222000 2.9879999800
v -2.8844923400 4.1893776200 0.4500000000
v -2.8844923400 4.1893776200 2.5680000400
usemtl Patch_35_Mat_CR2_plaster
f 51 52 53
usemtl Patch_36_Mat_CR2_plaster
f 52 54 55
usemtl Patch_37_Mat_CR2_plaster
f 54 52 51

# obj11
v -2.8844923400 -2.8906222000 2.9879589000
v -1.6164924200 -2.8906222000 0.0000000000
v -2.8844923400 -2.8906222000 0.0000000000
v -1.6164924200 -2.8906222000 2.9879999800
usemtl Patch_38_Mat_CR2_plaster
f 58 59 60
usemtl Patch_39_Mat_CR2_plaster
f 59 58 61

# obj12
v -1.6164924200 -2.8906222000 2.9879999800
v -2.8844923400 -2.8906222000 2.9879589000
v -2.8844923400 -2.8906222000 2.9879999800
usemtl Patch_40_Mat_CR2_plaster
f 62 63 64

# obj13
v -1.6164924200 -4.2546220900 2.9879999800
v 3.1215075300 -4.1978054000 0.0000000000
v -1.6164924200 -4.2546220900 0.0000000000
v 3.1215075300 -4.1978054000 2.9879999800
usemtl Patch_41_Mat_CR2_plaster
f 65 66 67
usemtl Patch_42_Mat_CR2_plaster
f 66 65 68

# obj14
v -2.8844923400 4.1893776200 2.9879999800
v -1.6164924200 -2.8906222000 2.9879999800
v -2.8844923400 -2.8906222000 2.9879999800
v 3.1550136200 4.1893776200 2.9879999800
v -1.6164924200 -4.2546220900 2.9879999800
v 3.1215075300 -4.1978054000 2.9879999800
usemtl Patch_43_Mat_CR2_ceiling
f 69 70 71
usemtl Patch_44_Mat_CR2_ceiling
f 70 69 72
usemtl Patch_45_Mat_CR2_ceiling
f 70 72 73
usemtl Patch_46_Mat_CR2_ceiling
f 73 72 74

# obj15
v 3.1550136200 4.1893776200 2.9879999800
v 3.1215075300 -4.1978054000 0.0000000000
v 3.1215075300 -4.1978054000 2.9879999800
v 3.1550136200 4.1893776200 -0.0000000000
usemtl Patch_47_Mat_CR2_concrete
f 75 76 77
usemtl Patch_48_Mat_CR2_concrete
f 76 75 78

# obj16
usemtl Patch_49_Mat_CR2_concrete
f 1 3 2
usemtl Patch_50_Mat_CR2_concrete
f 2 4 1

# obj17
usemtl Patch_51_Mat_CR2_concrete
f 21 23 22
usemtl Patch_52_Mat_CR2_concrete
f 22 24 21

# obj18
usemtl Patch_53_Mat_CR2_concrete
f 25 27 26
usemtl Patch_54_Mat_CR2_concrete
f 26 28 25
