mtllib mesh.mtl

# obj1
v -2.823 4.082 0.595
v -1.303 4.082 0.15
v -2.823 4.082 0.15
v -1.303 4.082 0.595
usemtl Patch_1_Mat_CR2_concrete
f 1 2 3
usemtl Patch_2_Mat_CR2_concrete
f 2 1 4

# obj2
v 2.804 4.189 0.45
v 1.261 4.189 2.568
v 1.261 4.189 0.45
v 2.804 4.189 2.568
usemtl Patch_3_Mat_CR2_windows
f 5 6 7
usemtl Patch_4_Mat_CR2_windows
f 6 5 8

# obj3
v 3.094 -3.695 2.988
v 2.489 -3.695 0.0
v 3.094 -3.695 0.0
v 2.489 -3.695 2.988
usemtl Patch_5_Mat_CR2_concrete
f 9 10 11
usemtl Patch_6_Mat_CR2_concrete
f 10 9 12

# obj4
v 2.519 -1.695 2.988
v 2.489 -3.695 0.0
v 2.489 -3.695 2.988
v 2.519 -1.695 0.0
usemtl Patch_7_Mat_CR2_concrete
f 13 14 15
usemtl Patch_8_Mat_CR2_concrete
f 14 13 16

# obj5
v 2.519 -1.695 2.988
v 3.132 -1.695 0.0
v 2.519 -1.695 0.0
v 3.132 -1.695 2.988
usemtl Patch_9_Mat_CR2_concrete
f 17 18 19
usemtl Patch_10_Mat_CR2_concrete
f 18 17 20

# obj6
v -1.616 -4.255 2.988
v 3.094 -4.255 0.0
v -1.616 -4.255 0.0
v 3.094 -4.255 2.988
usemtl Patch_11_Mat_CR2_plaster
f 21 22 23
usemtl Patch_12_Mat_CR2_plaster
f 22 21 24

# obj7
v 0.758 4.189 2.568
v -0.769 4.189 0.45
v 0.758 4.189 0.45
v -0.769 4.189 2.568
usemtl Patch_13_Mat_CR2_windows
f 25 26 27
usemtl Patch_14_Mat_CR2_windows
f 26 25 28

# obj8
v -1.297 4.189 2.568
v -2.884 4.189 0.45
v -1.297 4.189 0.45
v -2.884 4.189 2.568
usemtl Patch_15_Mat_CR2_windows
f 29 30 31
usemtl Patch_16_Mat_CR2_windows
f 30 29 32

# obj9
v -1.616 -2.891 0.0
v -1.616 -4.255 2.988
v -1.616 -4.255 0.0
v -1.616 -2.891 2.988
usemtl Patch_17_Mat_CR2_concrete
f 33 34 35
usemtl Patch_18_Mat_CR2_concrete
f 34 33 36

# obj10
v -0.763 4.082 0.595
v 0.757 4.082 0.15
v -0.763 4.082 0.15
v 0.757 4.082 0.595
usemtl Patch_19_Mat_CR2_concrete
f 37 38 39
usemtl Patch_20_Mat_CR2_concrete
f 38 37 40

# obj11
v 1.267 4.082 0.595
v 2.787 4.082 0.15
v 1.267 4.082 0.15
v 2.787 4.082 0.595
usemtl Patch_21_Mat_CR2_concrete
f 41 42 43
usemtl Patch_22_Mat_CR2_concrete
f 42 41 44

# obj12
v 3.094 -3.695 2.988
v 3.094 -4.255 0.0
v 3.094 -4.255 2.988
v 3.094 -3.695 0.0
usemtl Patch_23_Mat_CR2_concrete
f 45 46 47
usemtl Patch_24_Mat_CR2_concrete
f 46 45 48

# obj13
v 3.155 4.189 -0.0
v 2.804 4.189 0.45
v -2.884 4.189 0.0
v 3.155 4.189 2.988
v 1.261 4.189 0.45
v -1.297 4.189 0.45
v 2.804 4.189 2.568
v 1.261 4.189 2.568
v 0.758 4.189 2.568
v -0.769 4.189 2.568
v -1.297 4.189 2.568
v -2.884 4.189 2.568
v -2.884 4.189 2.988
v -0.769 4.189 0.45
v 0.758 4.189 0.45
v -2.884 4.189 0.45
usemtl Patch_25_Mat_CR2_concrete
f 49 50 51
usemtl Patch_26_Mat_CR2_concrete
f 50 49 52
usemtl Patch_27_Mat_CR2_concrete
f 51 50 53
usemtl Patch_28_Mat_CR2_concrete
f 51 53 54
usemtl Patch_29_Mat_CR2_concrete
f 50 52 55
usemtl Patch_30_Mat_CR2_concrete
f 55 52 56
usemtl Patch_31_Mat_CR2_concrete
f 56 52 57
usemtl Patch_32_Mat_CR2_concrete
f 57 52 58
usemtl Patch_33_Mat_CR2_concrete
f 58 52 59
usemtl Patch_34_Mat_CR2_concrete
f 59 52 60
usemtl Patch_35_Mat_CR2_concrete
f 60 52 61
usemtl Patch_36_Mat_CR2_concrete
f 54 62 59
usemtl Patch_37_Mat_CR2_concrete
f 59 62 58
usemtl Patch_38_Mat_CR2_concrete
f 56 63 53
usemtl Patch_39_Mat_CR2_concrete
f 63 56 57
usemtl Patch_40_Mat_CR2_concrete
f 64 51 54

# obj14
v 3.094 -4.255 0.0
v -1.616 -2.891 0.0
v -1.616 -4.255 0.0
v 2.489 -3.695 0.0
v 3.094 -3.695 0.0
v -2.884 4.189 0.0
v -2.884 -2.891 0.0
v 3.155 4.189 -0.0
v 2.519 -1.695 0.0
v 3.132 -1.695 0.0
usemtl Patch_41_Mat_CR2_floor
f 65 66 67
usemtl Patch_42_Mat_CR2_floor
f 66 65 68
usemtl Patch_43_Mat_CR2_floor
f 68 65 69
usemtl Patch_44_Mat_CR2_floor
f 66 70 71
usemtl Patch_45_Mat_CR2_floor
f 70 66 72
usemtl Patch_46_Mat_CR2_floor
f 72 66 73
usemtl Patch_47_Mat_CR2_floor
f 73 66 68
usemtl Patch_48_Mat_CR2_floor
f 72 73 74

# obj15
v 3.155 4.189 2.988
v 3.132 -1.695 0.0
v 3.132 -1.695 2.988
v 3.155 4.189 -0.0
usemtl Patch_49_Mat_CR2_concrete
f 75 76 77
usemtl Patch_50_Mat_CR2_concrete
f 76 75 78

# obj16
v -2.884 4.189 0.0
v -2.884 -2.891 2.988
v -2.884 -2.891 0.0
v -2.884 4.189 2.988
v -2.884 -2.891 2.988
v -2.884 4.189 0.45
v -2.884 4.189 2.568
usemtl Patch_51_Mat_CR2_plaster
f 79 80 81
usemtl Patch_52_Mat_CR2_plaster
f 82 80 79

# obj17
v -2.884 -2.891 2.988
v -1.616 -2.891 0.0
v -2.884 -2.891 0.0
v -1.616 -2.891 2.988
usemtl Patch_53_Mat_CR2_plaster
f 86 87 88
usemtl Patch_54_Mat_CR2_plaster
f 87 86 89

# obj18
v -1.616 -2.891 2.988
v -2.884 -2.891 2.988
v -2.884 -2.891 2.988

# obj19
v -2.884 4.189 2.988
v -1.616 -2.891 2.988
v -2.884 -2.891 2.988
v 3.155 4.189 2.988
v -1.616 -4.255 2.988
v 2.519 -1.695 2.988
v 2.489 -3.695 2.988
v 3.132 -1.695 2.988
v 3.094 -4.255 2.988
v 3.094 -3.695 2.988
usemtl Patch_55_Mat_CR2_ceiling
f 93 94 95
usemtl Patch_56_Mat_CR2_ceiling
f 94 93 96
usemtl Patch_57_Mat_CR2_ceiling
f 94 96 97
usemtl Patch_58_Mat_CR2_ceiling
f 97 96 98
usemtl Patch_59_Mat_CR2_ceiling
f 97 98 99
usemtl Patch_60_Mat_CR2_ceiling
f 98 96 100
usemtl Patch_61_Mat_CR2_ceiling
f 99 101 97
usemtl Patch_62_Mat_CR2_ceiling
f 101 99 102

# obj20
usemtl Patch_63_Mat_CR2_concrete
f 1 3 2
usemtl Patch_64_Mat_CR2_concrete
f 2 4 1

# obj21
usemtl Patch_65_Mat_CR2_concrete
f 37 39 38
usemtl Patch_66_Mat_CR2_concrete
f 38 40 37

# obj22
usemtl Patch_67_Mat_CR2_concrete
f 41 43 42
usemtl Patch_68_Mat_CR2_concrete
f 42 44 41
