mtllib mesh.mtl

v 4.74902070556004 -6.15999997 2.73600005
v 6.101738019999999 -6.15999997 2.73600005
v 6.10173802 -3.90599995 2.73600005
v 6.10173802 -3.90599995 2.73600005
v 4.640249525613908 -3.90599995 2.73600005
v 4.74902070556004 -6.15999997 2.73600005
v 3.232347592541399 -6.159999969999999 2.73600005
v 1.8818519690804654 -3.90599995 2.73600005
v 1.9933226141760398 -6.15999997 2.73600005
v 1.8818519690804654 -3.90599995 2.73600005
v 3.232347592541399 -6.159999969999999 2.73600005
v 3.3791984934564643 -3.9059999500000004 2.73600005
v 4.74902070556004 -6.15999997 2.73600005
v 3.3791984934564643 -3.9059999500000004 2.73600005
v 3.232347592541399 -6.159999969999999 2.73600005
v 3.3791984934564643 -3.9059999500000004 2.73600005
v 4.74902070556004 -6.15999997 2.73600005
v 4.640249525613908 -3.90599995 2.73600005
v 1.8818519690804654 -3.90599995 2.73600005
v 0.5707378400000009 -3.90599995 2.73600005
v 0.5707378400000005 -6.15999997 2.73600005
v 0.5707378400000005 -6.15999997 2.73600005
v 1.9933226141760398 -6.15999997 2.73600005
v 1.8818519690804654 -3.90599995 2.73600005
v 6.101738020000001 0.93000002 2.73600005
v 0.57073784 0.93000002 2.73600005
v 0.57073784 0.93000002 2.27600003
v 0.57073784 0.93000002 2.27600003
v 6.101738020000001 0.93000002 2.27600003
v 6.101738020000001 0.93000002 2.73600005
v 0.5707378400000005 0.49900002000000004 2.27600003
v 6.10173802 0.93000002 2.27600003
v 0.5707378400000008 0.9300000200000001 2.27600003
v 6.10173802 0.93000002 2.27600003
v 0.5707378400000005 0.49900002000000004 2.27600003
v 6.10173802 0.49900001999999993 2.27600003
v 0.5707378399999999 0.49900002 2.73600005
v 6.10173802 0.49900002 2.73600005
v 6.10173802 0.49900002 2.27600003
v 6.10173802 0.49900002 2.27600003
v 0.5707378399999996 0.49900002 2.27600003
v 0.5707378399999999 0.49900002 2.73600005
v 3.2123191924473486 0.93000002 2.73600005
v 6.10173802 0.9300000199999999 2.73600005
v 6.10173802 1.90299993 2.73600005
v 6.10173802 1.90299993 2.73600005
v 3.272923289295225 2.1628151237138478 2.73600005
v 3.2123191924473486 0.93000002 2.73600005
v 3.272923289295225 2.1628151237138478 2.73600005
v 0.5707378399999992 2.41099993 2.73600005
v 0.5707378399999996 0.9300000199999999 2.73600005
v 0.5707378399999996 0.9300000199999999 2.73600005
v 3.2123191924473486 0.93000002 2.73600005
v 3.272923289295225 2.1628151237138478 2.73600005
v 6.101738020000001 -3.48300019 2.73600005
v 0.57073784 -3.48300019 2.73600005
v 0.57073784 -3.48300019 2.27600003
v 0.57073784 -3.48300019 2.27600003
v 6.101738020000001 -3.48300019 2.27600003
v 6.101738020000001 -3.48300019 2.73600005
v 6.10173802 -3.90599995 2.27600003
v 6.10173802 -3.48300019 2.27600003
v 0.5707378399999998 -3.48300019 2.27600003
v 0.5707378399999998 -3.48300019 2.27600003
v 0.5707378399999996 -3.90599995 2.27600003
v 6.10173802 -3.90599995 2.27600003
v 0.5707378399999999 -3.90599995 2.73600005
v 6.10173802 -3.90599995 2.73600005
v 6.10173802 -3.90599995 2.27600003
v 6.10173802 -3.90599995 2.27600003
v 0.5707378399999996 -3.90599995 2.27600003
v 0.5707378399999999 -3.90599995 2.73600005
v 4.284419301698848 -1.4811874083220018 2.73600005
v 6.10173802 -1.5307769649322147 2.73600005
v 6.10173802 0.49900002 2.73600005
v 6.10173802 0.49900002 2.73600005
v 4.319033629486918 0.49900002 2.73600005
v 4.284419301698848 -1.4811874083220018 2.73600005
v 2.469350851150752 -1.432995801812528 2.73600005
v 4.248090897416585 -1.5129411911543875 2.73600005
v 4.284419301698848 -1.4811874083220018 2.73600005
v 2.469350851150752 -1.432995801812528 2.73600005
v 4.319033629486918 0.49900002 2.73600005
v 2.438813210888294 0.4990000200000002 2.73600005
v 4.319033629486918 0.49900002 2.73600005
v 2.469350851150752 -1.432995801812528 2.73600005
v 4.284419301698848 -1.4811874083220018 2.73600005
v 4.284419301698848 -1.4811874083220018 2.73600005
v 4.248090897416585 -1.5129411911543875 2.73600005
v 4.211013732162498 -3.4830001900000003 2.73600005
v 4.284419301698848 -1.4811874083220018 2.73600005
v 6.101738020000001 -3.4830001900000003 2.73600005
v 6.10173802 -1.5307769649322147 2.73600005
v 6.101738020000001 -3.4830001900000003 2.73600005
v 4.284419301698848 -1.4811874083220018 2.73600005
v 4.211013732162498 -3.4830001900000003 2.73600005
v 2.3725575790204263 -1.521034590305133 2.73600005
v 2.469350851150752 -1.432995801812528 2.73600005
v 2.438813210888294 0.4990000200000002 2.73600005
v 2.3725575790204263 -1.521034590305133 2.73600005
v 0.5707378400000003 0.49900002 2.73600005
v 0.5707378400000003 -1.4818498228503603 2.73600005
v 0.5707378400000003 0.49900002 2.73600005
v 2.3725575790204263 -1.521034590305133 2.73600005
v 2.438813210888294 0.4990000200000002 2.73600005
v 2.3725575790204263 -1.521034590305133 2.73600005
v 0.5707378400000003 -1.4818498228503603 2.73600005
v 0.5707378400000005 -3.4830001900000003 2.73600005
v 0.5707378400000005 -3.4830001900000003 2.73600005
v 2.4044617546305576 -3.4830001900000003 2.73600005
v 2.3725575790204263 -1.521034590305133 2.73600005
v 4.248090897416585 -1.5129411911543875 2.73600005
v 2.469350851150752 -1.432995801812528 2.73600005
v 2.3725575790204263 -1.521034590305133 2.73600005
v 2.3725575790204263 -1.521034590305133 2.73600005
v 2.4044617546305576 -3.4830001900000003 2.73600005
v 4.211013732162498 -3.4830001900000003 2.73600005
v 4.211013732162498 -3.4830001900000003 2.73600005
v 4.248090897416585 -1.5129411911543875 2.73600005
v 2.3725575790204263 -1.521034590305133 2.73600005
v -4.08652086165016 -3.6479998099999995 1.8664842370714765
v -4.110648967123954 -3.647999809999999 2.7680000399999996
v -6.25126223 -3.6479998099999986 2.7680000399999996
v -6.25126223 -3.6479998099999986 2.7680000399999996
v -6.25126223 -3.6479998099999995 1.10000001
v -4.698120718146992 -3.64799981 1.10000001
v -4.698120718146992 -3.64799981 1.10000001
v -4.08652086165016 -3.6479998099999995 1.8664842370714765
v -6.25126223 -3.6479998099999986 2.7680000399999996
v -4.08652086165016 -3.6479998099999995 1.8664842370714765
v -4.698120718146992 -3.64799981 1.10000001
v -4.52168292 -3.64799981 1.10000001
v -2.853912087430858 -3.6479998100000004 1.10000001
v -4.52168292 -3.6479998100000004 0.0
v -2.8027147800000005 -3.647999810000001 -2.220446049250313e-16
v -2.8027147800000005 -3.647999810000001 -2.220446049250313e-16
v -2.80271478 -3.6479998100000004 1.0681635267337368
v -2.853912087430858 -3.6479998100000004 1.10000001
v -2.853912087430858 -3.6479998100000004 1.10000001
v -4.08652086165016 -3.6479998099999995 1.8664842370714765
v -4.52168292 -3.64799981 1.10000001
v -4.52168292 -3.6479998100000004 0.0
v -2.853912087430858 -3.6479998100000004 1.10000001
v -4.52168292 -3.64799981 1.10000001
v -2.8027147800000005 -3.6479998100000004 1.10000001
v -2.853912087430858 -3.6479998100000004 1.10000001
v -2.80271478 -3.6479998100000004 1.0681635267337368
v -2.8027147800000005 -3.6479998100000004 1.10000001
v -2.0147293470120022 -3.6479998100000004 1.10000001
v -1.9247435949281224 -3.6479998099999995 2.7680000399999996
v -1.9247435949281224 -3.6479998099999995 2.7680000399999996
v -4.110648967123954 -3.647999809999999 2.7680000399999996
v -4.08652086165016 -3.6479998099999995 1.8664842370714765
v -1.9247435949281224 -3.6479998099999995 2.7680000399999996
v -2.853912087430858 -3.6479998100000004 1.10000001
v -2.8027147800000005 -3.6479998100000004 1.10000001
v -2.853912087430858 -3.6479998100000004 1.10000001
v -1.9247435949281224 -3.6479998099999995 2.7680000399999996
v -4.08652086165016 -3.6479998099999995 1.8664842370714765
v -1.9247435949281224 -3.6479998099999995 2.7680000399999996
v -0.00026214000000068793 -3.647999810000001 1.10000001
v -0.00026214000000115756 -3.64799981 2.7680000399999996
v -0.00026214000000068793 -3.647999810000001 1.10000001
v -1.9247435949281224 -3.6479998099999995 2.7680000399999996
v -2.0147293470120022 -3.6479998100000004 1.10000001
v -2.2117937443779323 0.93000002 2.76800004
v -0.0002621400000000218 0.93000002 2.76800004
v -0.00026214 2.52300007 2.76800004
v -0.00026214 2.52300007 2.76800004
v -2.1294759798668537 2.717493870093636 2.76800004
v -2.2117937443779323 0.93000002 2.76800004
v -2.2117937443779323 0.93000002 2.76800004
v -4.197257495416191 2.906376112540321 2.76800004
v -4.298868532076347 0.93000002 2.76800004
v -4.197257495416191 2.906376112540321 2.76800004
v -2.2117937443779323 0.93000002 2.76800004
v -2.1294759798668537 2.717493870093636 2.76800004
v -4.197257495416191 2.906376112540321 2.76800004
v -6.251262229999999 3.09399991 2.76800004
v -6.25126223 0.9300000200000001 2.76800004
v -6.25126223 0.9300000200000001 2.76800004
v -4.298868532076347 0.93000002 2.76800004
v -4.197257495416191 2.906376112540321 2.76800004
v -6.25126223 0.8097371015713661 1.9683589621507758
v -6.25126223 0.8109450411508297 2.27600003
v -6.25126223 0.93000002 2.27600003
v -6.25126223 0.93000002 2.27600003
v -6.25126223 0.93000002 2.76800004
v -6.25126223 3.09399991 2.76800004
v -6.25126223 3.09399991 2.76800004
v -6.25126223 3.09399991 1.10000001
v -6.25126223 2.15584922 1.10000001
v -6.25126223 2.15584922 1.10000001
v -6.25126223 2.15584922 0.6556499172519955
v -6.25126223 0.8097371015713661 1.9683589621507758
v -6.25126223 2.15584922 1.10000001
v -6.25126223 0.93000002 2.27600003
v -6.25126223 3.09399991 2.76800004
v -6.25126223 0.93000002 2.27600003
v -6.25126223 2.15584922 1.10000001
v -6.25126223 0.8097371015713661 1.9683589621507758
v -6.25126223 0.49900002 2.27600003
v -6.25126223 -0.39108780621217276 0.6869313382881452
v -6.25126223 -1.5532794464011692 1.782376274919913
v -6.25126223 0.49900002 2.27600003
v -6.25126223 -1.5732878435372655 2.76800004
v -6.25126223 0.49900002 2.76800004
v -6.25126223 0.49900002 2.27600003
v -6.25126223 0.8109450411508297 2.27600003
v -6.25126223 0.8097371015713661 1.9683589621507758
v -6.25126223 -1.5732878435372655 2.76800004
v -6.25126223 0.49900002 2.27600003
v -6.25126223 -1.5532794464011692 1.782376274919913
v -6.25126223 -0.39108780621217276 0.6869313382881452
v -6.25126223 0.49900002 2.27600003
v -6.25126223 0.8097371015713661 1.9683589621507758
v -6.25126223 -0.39108780621217276 0.6869313382881452
v -6.25126223 0.8097371015713661 1.9683589621507758
v -6.25126223 2.15584922 0.6556499172519955
v -6.25126223 2.15584922 0.6556499172519955
v -6.25126223 2.15584922 0.0
v -6.25126223 -0.3699978866102609 0.0
v -6.25126223 -0.3699978866102609 0.0
v -6.25126223 -0.39108780621217276 0.6869313382881452
v -6.25126223 2.15584922 0.6556499172519955
v -6.25126223 -3.0531010499999995 0.5487913149746446
v -6.25126223 -0.39108780621217276 0.6869313382881452
v -6.25126223 -0.3699978866102609 0.0
v -6.25126223 -0.3699978866102609 0.0
v -6.25126223 -3.0531010499999995 0.0
v -6.25126223 -3.0531010499999995 0.5487913149746446
v -6.25126223 -0.39108780621217276 0.6869313382881452
v -6.25126223 -3.0531010499999995 0.5487913149746446
v -6.25126223 -1.5532794464011692 1.782376274919913
v -6.25126223 -1.5532794464011692 1.782376274919913
v -6.25126223 -3.0531010499999995 0.5487913149746446
v -6.25126223 -3.0531010499999995 1.10000001
v -6.25126223 -3.0531010499999995 1.10000001
v -6.25126223 -3.64799981 1.10000001
v -6.25126223 -3.64799981 2.76800004
v -6.25126223 -3.64799981 2.76800004
v -6.25126223 -1.5732878435372655 2.76800004
v -6.25126223 -1.5532794464011692 1.782376274919913
v -6.25126223 -1.5532794464011692 1.782376274919913
v -6.25126223 -3.0531010499999995 1.10000001
v -6.25126223 -3.64799981 2.76800004
v -6.251262229999999 0.49900002 2.76800004
v -0.00026214 0.49900002 2.76800004
v -0.0002621399999999871 0.49900002 2.27600003
v -0.0002621399999999871 0.49900002 2.27600003
v -6.25126223 0.49900002 2.27600003
v -6.251262229999999 0.49900002 2.76800004
v -6.251262229999999 0.49900002000000004 2.27600003
v -0.00026214 0.93000002 2.27600003
v -6.251262229999999 0.9300000200000003 2.27600003
v -0.00026214 0.93000002 2.27600003
v -6.251262229999999 0.49900002000000004 2.27600003
v -0.0002621399999999906 0.4990000199999999 2.27600003
v -6.25126223 0.93000002 2.76800004
v -6.25126223 0.93000002 2.27600003
v -0.00026214000000090304 0.93000002 2.27600003
v -0.00026214000000090304 0.93000002 2.27600003
v -0.00026214000000024504 0.93000002 2.76800004
v -6.25126223 0.93000002 2.76800004
v -0.00026214 0.49900002 2.76800004
v -1.5241842917430906 -1.6433538347698606 2.76800004
v -0.00026214000000024384 -1.4299133988781658 2.76800004
v -1.5241842917430906 -1.6433538347698606 2.76800004
v -0.00026214 0.49900002 2.76800004
v -2.054677519885918 0.4990000200000001 2.76800004
v -1.5241842917430906 -1.6433538347698606 2.76800004
v -2.054677519885918 0.4990000200000001 2.76800004
v -2.0825356702704467 -1.29066128414824 2.76800004
v -2.054677519885918 0.4990000200000001 2.76800004
v -3.1166381951721704 -1.674761139394089 2.76800004
v -2.0825356702704467 -1.29066128414824 2.76800004
v -3.1166381951721704 -1.674761139394089 2.76800004
v -2.054677519885918 0.4990000200000001 2.76800004
v -4.1574394384054045 0.49900002 2.76800004
v -3.1166381951721704 -1.674761139394089 2.76800004
v -4.1574394384054045 0.49900002 2.76800004
v -4.155576945301676 -1.2422127591869794 2.76800004
v -1.5241842917430906 -1.6433538347698606 2.76800004
v -1.5562514582889573 -3.647999810000001 2.76800004
v -0.00026214000000024384 -3.647999810000001 2.76800004
v -0.00026214000000024384 -3.647999810000001 2.76800004
v -0.00026214000000024384 -1.4299133988781658 2.76800004
v -1.5241842917430906 -1.6433538347698606 2.76800004
v -1.5241842917430906 -1.6433538347698606 2.76800004
v -2.0825356702704467 -1.29066128414824 2.76800004
v -3.1166381951721704 -1.674761139394089 2.76800004
v -3.1166381951721704 -1.674761139394089 2.76800004
v -3.170168027381693 -3.647999810000001 2.76800004
v -1.5562514582889573 -3.647999810000001 2.76800004
v -1.5562514582889573 -3.647999810000001 2.76800004
v -1.5241842917430906 -1.6433538347698606 2.76800004
v -3.1166381951721704 -1.674761139394089 2.76800004
v -3.1166381951721704 -1.674761139394089 2.76800004
v -4.155576945301676 -1.2422127591869794 2.76800004
v -4.772887959073387 -1.6249825378066145 2.76800004
v -3.1166381951721704 -1.674761139394089 2.76800004
v -4.673627897252918 -3.6479998100000004 2.76800004
v -3.170168027381693 -3.647999810000001 2.76800004
v -4.673627897252918 -3.6479998100000004 2.76800004
v -3.1166381951721704 -1.674761139394089 2.76800004
v -4.772887959073387 -1.6249825378066145 2.76800004
v -4.772887959073387 -1.6249825378066145 2.76800004
v -6.25126223 -1.41877051170345 2.76800004
v -6.25126223 -3.64799981 2.76800004
v -6.25126223 -3.64799981 2.76800004
v -4.673627897252918 -3.6479998100000004 2.76800004
v -4.772887959073387 -1.6249825378066145 2.76800004
v -4.772887959073387 -1.6249825378066145 2.76800004
v -4.155576945301676 -1.2422127591869794 2.76800004
v -4.1574394384054045 0.49900002 2.76800004
v -4.772887959073387 -1.6249825378066145 2.76800004
v -6.25126223 0.49900002000000043 2.76800004
v -6.25126223 -1.41877051170345 2.76800004
v -6.25126223 0.49900002000000043 2.76800004
v -4.772887959073387 -1.6249825378066145 2.76800004
v -4.1574394384054045 0.49900002 2.76800004
v -1.67695229 2.67615797 1.10000001
v -2.1323823821669796 2.7177593564517304 2.7680000400000004
v -0.00026214000000024384 2.5230000699999993 2.7680000400000004
v -0.00026214000000024384 2.5230000699999993 2.7680000400000004
v -0.00026213653199794185 2.5230001079658297 1.100000010000001
v -1.67695229 2.67615797 1.10000001
v -1.67695229 2.67615797 1.10000001
v -1.6769522891448496 2.6761579793617294 0.6886995232291908
v -2.213004328166336 2.725123825656498 1.5175771291755067
v -2.1323823821669796 2.7177593564517304 2.7680000400000004
v -1.67695229 2.67615797 1.10000001
v -2.213004328166336 2.725123825656498 1.5175771291755067
v -4.211595879691272 2.907685893918103 1.1761227001122718
v -2.213004328166336 2.725123825656498 1.5175771291755067
v -1.6769522891448496 2.6761579793617294 0.6886995232291908
v -1.6769522891448496 2.6761579793617294 0.6886995232291908
v -1.6769522877129481 2.676157995037418 3.3306690738754696e-16
v -4.416042841614031 2.9263612018050944 1.9984014443252818e-15
v -4.416042841614031 2.9263612018050944 1.9984014443252818e-15
v -4.416042843309307 2.926361183246121 0.8153744561840459
v -4.211595879691272 2.907685893918103 1.1761227001122718
v -4.211595879691272 2.907685893918103 1.1761227001122718
v -1.6769522891448496 2.6761579793617294 0.6886995232291908
v -4.416042841614031 2.9263612018050944 1.9984014443252818e-15
v -4.211595879691272 2.907685893918103 1.1761227001122718
v -4.416042843309307 2.926361183246121 0.8153744561840459
v -4.416042843901082 2.9263611767676765 1.1000000100000003
v -4.416042843901082 2.9263611767676765 1.1000000100000003
v -6.251262226531997 3.0939999479658304 1.1000000100000007
v -6.251262229999999 3.09399991 2.76800004
v -4.416042843901082 2.9263611767676765 1.1000000100000003
v -4.32459212293032 2.918007539654414 2.7680000400000004
v -4.211595879691272 2.907685893918103 1.1761227001122718
v -4.32459212293032 2.918007539654414 2.7680000400000004
v -4.416042843901082 2.9263611767676765 1.1000000100000003
v -6.251262229999999 3.09399991 2.76800004
v -2.213004328166336 2.725123825656498 1.5175771291755067
v -4.211595879691272 2.907685893918103 1.1761227001122718
v -4.32459212293032 2.918007539654414 2.7680000400000004
v -4.32459212293032 2.918007539654414 2.7680000400000004
v -2.1323823821669796 2.7177593564517304 2.7680000400000004
v -2.213004328166336 2.725123825656498 1.5175771291755067
v 6.10173802 -4.115613939963953 1.4171316107208465
v 6.10173802 -3.8282521113278154 2.27600003
v 6.10173802 -3.90599995 2.27600003
v 6.10173802 -3.90599995 2.27600003
v 6.10173802 -3.9059999500000004 2.7360000499999995
v 6.10173802 -6.159999970000001 2.73600005
v 6.10173802 -6.159999970000001 2.73600005
v 6.10173802 -6.159999970000001 1.3300780110845687
v 6.10173802 -4.115613939963953 1.4171316107208465
v 6.10173802 -4.115613939963953 1.4171316107208465
v 6.10173802 -3.90599995 2.27600003
v 6.10173802 -6.159999970000001 2.73600005
v 6.10173802 -2.33538285975591 2.7360000499999995
v 6.10173802 -0.09206968318075356 1.3948597966841545
v 6.10173802 0.43662851981343964 2.7360000499999995
v 6.10173802 -0.09206968318075356 1.3948597966841545
v 6.10173802 -2.33538285975591 2.7360000499999995
v 6.10173802 -1.833807216953511 1.3961398572099875
v 6.10173802 -4.115613939963953 1.4171316107208465
v 6.10173802 -6.159999970000001 1.3300780110845687
v 6.10173802 -6.159999970000001 0.050000000000000266
v 6.10173802 -6.159999970000001 0.050000000000000266
v 6.10173802 -3.661918639656256 0.04999999999999982
v 6.10173802 -4.115613939963953 1.4171316107208465
v 6.10173802 -4.115613939963953 1.4171316107208465
v 6.10173802 -3.661918639656256 0.04999999999999982
v 6.10173802 -2.297490172405681 0.04999999999999982
v 6.10173802 -3.48300019 2.27600003
v 6.10173802 -1.833807216953511 1.3961398572099875
v 6.10173802 -2.33538285975591 2.7360000499999995
v 6.10173802 -2.33538285975591 2.7360000499999995
v 6.10173802 -3.48300019 2.73600005
v 6.10173802 -3.48300019 2.27600003
v 6.10173802 -3.48300019 2.27600003
v 6.10173802 -3.8282521113278154 2.27600003
v 6.10173802 -4.115613939963953 1.4171316107208465
v 6.10173802 -1.833807216953511 1.3961398572099875
v 6.10173802 -4.115613939963953 1.4171316107208465
v 6.10173802 -2.297490172405681 0.04999999999999982
v 6.10173802 -1.833807216953511 1.3961398572099875
v 6.10173802 -3.48300019 2.27600003
v 6.10173802 -4.115613939963953 1.4171316107208465
v 6.10173802 0.3492778582998187 0.04999999999999982
v 6.10173802 -1.833807216953511 1.3961398572099875
v 6.10173802 -2.297490172405681 0.04999999999999982
v 6.10173802 -1.833807216953511 1.3961398572099875
v 6.10173802 0.3492778582998187 0.04999999999999982
v 6.10173802 -0.09206968318075356 1.3948597966841545
v 6.10173802 0.9300000200000007 2.2760000299999996
v 6.10173802 0.3492778582998187 0.04999999999999982
v 6.10173802 1.9029999300000018 0.04999999999999951
v 6.10173802 0.9300000200000007 2.2760000299999996
v 6.10173802 1.9029999300000022 2.7360000499999995
v 6.10173802 0.930000020000001 2.736000049999999
v 6.10173802 0.49900002000000176 2.2760000299999996
v 6.10173802 0.49900002000000176 2.7360000499999995
v 6.10173802 0.43662851981343964 2.7360000499999995
v 6.10173802 1.9029999300000022 2.7360000499999995
v 6.10173802 0.9300000200000007 2.2760000299999996
v 6.10173802 1.9029999300000018 0.04999999999999951
v 6.10173802 0.49900002000000176 2.2760000299999996
v 6.10173802 0.43662851981343964 2.7360000499999995
v 6.10173802 -0.09206968318075356 1.3948597966841545
v 6.10173802 0.3492778582998187 0.04999999999999982
v 6.10173802 0.9300000200000007 2.2760000299999996
v 6.10173802 -0.09206968318075356 1.3948597966841545
v 6.10173802 0.9300000200000007 2.2760000299999996
v 6.10173802 0.49900002000000176 2.2760000299999996
v 6.10173802 -0.09206968318075356 1.3948597966841545
v 2.2169537837550304 -6.15999997 2.7360000500000003
v 0.57073784 -6.15999997 2.73600005
v 0.5707378399999996 -6.15999997 0.04999999999999938
v 0.5707378399999996 -6.15999997 0.04999999999999938
v 2.2985895510009224 -6.15999997 0.0499999999999996
v 2.2169537837550304 -6.15999997 2.7360000500000003
v 4.187536880674598 -6.15999997 1.4434433758949394
v 6.101738019999999 -6.15999997 1.2739769401181058
v 6.101738019999999 -6.15999997 2.7360000500000003
v 6.101738019999999 -6.15999997 2.7360000500000003
v 3.776296986820353 -6.15999997 2.7360000500000003
v 4.187536880674598 -6.15999997 1.4434433758949394
v 4.187536880674598 -6.15999997 1.4434433758949394
v 3.6128934990528734 -6.15999997 0.04999999999999982
v 6.101738019999999 -6.15999997 0.049999999999999996
v 6.101738019999999 -6.15999997 0.049999999999999996
v 6.101738019999999 -6.15999997 1.2739769401181058
v 4.187536880674598 -6.15999997 1.4434433758949394
v 2.2985895510009224 -6.15999997 0.0499999999999996
v 3.6128934990528734 -6.15999997 0.04999999999999982
v 4.187536880674598 -6.15999997 1.4434433758949394
v 4.187536880674598 -6.15999997 1.4434433758949394
v 3.776296986820353 -6.15999997 2.7360000500000003
v 2.2169537837550304 -6.15999997 2.7360000500000003
v 2.2169537837550304 -6.15999997 2.7360000500000003
v 2.2985895510009224 -6.15999997 0.0499999999999996
v 4.187536880674598 -6.15999997 1.4434433758949394
v -4.41604285 2.92636111 1.10000001
v -4.51011812 1.98546776 1.10000001
v -6.251262230000001 2.15584922 1.10000001
v -6.251262230000001 2.15584922 1.10000001
v -6.25126223 3.09399991 1.10000001
v -4.41604285 2.92636111 1.10000001
v -4.51011812 1.9854677599999997 1.1000000100000003
v -4.41604285 2.92636111 0.0
v -4.5101181200000005 1.9854677599999997 -5.551115123125783e-17
v -4.41604285 2.92636111 0.0
v -4.51011812 1.9854677599999997 1.1000000100000003
v -4.416042849999999 2.92636111 1.1000000100000003
v -6.25126223 2.15584922 -1.494717555710127e-16
v -4.51011812 1.98546776 1.10000001
v -4.51011812 1.98546776 -3.3306690738754696e-16
v -4.51011812 1.98546776 1.10000001
v -6.25126223 2.15584922 -1.494717555710127e-16
v -6.251262230000001 2.15584922 1.1000000100000003
v -4.52168292 -3.05310105 1.10000001
v -6.25126223 -3.05310105 1.10000001
v -6.25126223 -3.05310105 -1.1102230246251565e-16
v -6.25126223 -3.05310105 -1.1102230246251565e-16
v -4.52168292 -3.05310105 -8.177322744583182e-17
v -4.52168292 -3.05310105 1.10000001
v -4.52168292 -3.0531010499999995 1.10000001
v -4.52168292 -3.64799981 1.10000001
v -6.251262230000001 -3.64799981 1.10000001
v -6.251262230000001 -3.64799981 1.10000001
v -6.25126223 -3.05310105 1.10000001
v -4.52168292 -3.0531010499999995 1.10000001
v -4.52168292 -3.05310105 1.1000000100000003
v -4.52168292 -3.05310105 0.0
v -4.52168292 -3.64799981 0.0
v -4.52168292 -3.64799981 0.0
v -4.52168292 -3.64799981 1.1000000100000003
v -4.52168292 -3.05310105 1.1000000100000003
v -0.00026213999999985527 2.52300007 1.10000001
v -0.00026214 1.59804907 1.10000001
v -1.7412999100000002 1.7145899199999999 1.10000001
v -1.7412999100000002 1.7145899199999999 1.10000001
v -1.6769522899999998 2.67615797 1.10000001
v -0.00026213999999985527 2.52300007 1.10000001
v -1.7412999100000004 1.71458992 1.10000001
v -0.00026214 1.59804907 1.10000001
v -0.0002621399999999663 1.59804907 -2.220446049250313e-16
v -0.0002621399999999663 1.59804907 -2.220446049250313e-16
v -1.7412999100000004 1.71458992 -2.0269728106123305e-16
v -1.7412999100000004 1.71458992 1.10000001
v -1.74129991 1.71458992 -4.567339452123481e-17
v -1.67695229 2.67615797 1.10000001
v -1.74129991 1.71458992 1.10000001
v -1.67695229 2.67615797 1.10000001
v -1.74129991 1.71458992 -4.567339452123481e-17
v -1.67695229 2.6761579700000007 -1.6653345369377348e-16
v -5.44190039 1.4788138000000002 1.00000001
v -5.44190039 1.4788138 0.0
v -5.44190039 -0.09118618000000017 -1.1102230246251565e-16
v -5.44190039 -0.09118618000000017 -1.1102230246251565e-16
v -5.44190039 -0.09118618000000006 1.0000000100000002
v -5.44190039 1.4788138000000002 1.00000001
v -3.50874164 2.56199827 1.00000001
v -2.50874144 2.56199827 1.00000001
v -2.50874144 2.56199827 0.0
v -2.50874144 2.56199827 0.0
v -3.50874164 2.56199827 -3.052092003884332e-17
v -3.50874164 2.56199827 1.00000001
v -2.39004694 2.52444417 0.0
v -2.39004694 2.52444417 1.00000001
v -1.7840585399999997 1.72897063 1.00000001
v -1.7840585399999997 1.72897063 1.00000001
v -1.78405854 1.72897063 -4.0262465447690384e-17
v -2.39004694 2.52444417 0.0
v -5.31825755 1.60703359 4.764726057733807e-17
v -4.38912512 1.97678031 1.00000001
v -4.38912512 1.9767803099999999 0.0
v -4.38912512 1.97678031 1.00000001
v -5.31825755 1.60703359 4.764726057733807e-17
v -5.31825755 1.6070335900000001 1.00000001
v -2.80271478 -3.64799981 -7.01321664137976e-18
v -2.80271478 -2.79835749 1.10000001
v -2.80271478 -3.64799981 1.10000001
v -2.80271478 -2.79835749 1.10000001
v -2.80271478 -3.64799981 -7.01321664137976e-18
v -2.80271478 -2.79835749 -1.6653345369377348e-16
v -0.9127148300000004 -2.79835749 4.070404603785277e-16
v -2.80271478 -2.79835749 1.10000001
v -2.8027147800000005 -2.79835749 0.0
v -2.80271478 -2.79835749 1.10000001
v -0.9127148300000004 -2.79835749 4.070404603785277e-16
v -0.9127148300000003 -2.79835749 1.1000000100000005
v -0.9127148299999999 -2.79835749 1.10000001
v -2.80271478 -3.64799981 1.10000001
v -2.80271478 -2.79835749 1.10000001
v -0.9127148299999999 -2.79835749 1.10000001
v -0.9127148299999999 -1.98335762 1.10000001
v -0.0002621399999999108 -1.9833576199999998 1.10000001
v -2.80271478 -3.64799981 1.10000001
v -0.9127148299999999 -2.79835749 1.10000001
v -0.00026214 -3.64799981 1.10000001
v -0.9127148299999999 -2.79835749 1.10000001
v -0.0002621399999999108 -1.9833576199999998 1.10000001
v -0.00026214 -3.64799981 1.10000001
v -0.91271483 -1.98335762 -2.220446049250313e-16
v -0.91271483 -1.98335762 1.10000001
v -0.91271483 -2.79835749 1.10000001
v -0.91271483 -2.79835749 1.10000001
v -0.91271483 -2.79835749 -2.4019741118320573e-16
v -0.91271483 -1.98335762 -2.220446049250313e-16
v -0.00026214000000016367 -1.98335762 6.652804067786237e-17
v -0.91271483 -1.98335762 1.10000001
v -0.9127148300000001 -1.98335762 -5.551115123125783e-17
v -0.91271483 -1.98335762 1.10000001
v -0.00026214000000016367 -1.98335762 6.652804067786237e-17
v -0.0002621399999999108 -1.98335762 1.1000000100000003
v -2.80271478 -2.79835749 0.0
v -2.2420994068882676 -2.339455618985791 0.0
v -2.0083428532046748 -2.79835749 0.0
v -4.52168292 -3.05310105 0.0
v -2.80271478 -3.64799981 0.0
v -4.52168292 -3.64799981 0.0
v -4.52168292 -3.05310105 0.0
v -4.635463774050485 -3.05310105 0.0
v -4.151972427871607 -1.6234156017861545 0.0
v -2.2420994068882676 -2.339455618985791 0.0
v -2.80271478 -2.79835749 0.0
v -4.151972427871607 -1.6234156017861545 0.0
v -2.80271478 -3.64799981 0.0
v -4.52168292 -3.05310105 0.0
v -2.80271478 -2.79835749 0.0
v -4.52168292 -3.05310105 0.0
v -4.151972427871607 -1.6234156017861545 0.0
v -2.80271478 -2.79835749 0.0
v -4.151972427871607 -1.6234156017861545 0.0
v -4.243293943801357 -1.4004927216249772 0.0
v -3.980406452593492 -0.5541772449754676 0.0
v -3.980406452593492 -0.5541772449754676 0.0
v -2.1238124749798377 -0.17033797258495093 0.0
v -1.8714031858581064 -0.44116066069295323 0.0
v -3.980406452593492 -0.5541772449754676 0.0
v -2.2420994068882676 -2.339455618985791 0.0
v -4.151972427871607 -1.6234156017861545 0.0
v -2.2420994068882676 -2.339455618985791 0.0
v -3.980406452593492 -0.5541772449754676 0.0
v -1.8714031858581064 -0.44116066069295323 0.0
v -0.00026213999999979976 -0.0119999999999999 0.0
v -2.1238124749798377 -0.17033797258495093 0.0
v -2.2150412449293015 1.0995217845052978 0.0
v -2.2150412449293015 1.0995217845052978 0.0
v -1.7402052136283888 1.730948334738457 0.0
v -1.74129991 1.7145899200000008 0.0
v -1.74129991 1.7145899200000008 0.0
v -0.00026213999999979976 1.5980490700000007 0.0
v -0.00026213999999979976 -0.0119999999999999 0.0
v -0.00026213999999979976 -0.0119999999999999 0.0
v -0.00026213999999979976 -0.5168636761014054 0.0
v -1.8714031858581064 -0.44116066069295323 0.0
v -0.00026213999999979976 -0.0119999999999999 0.0
v -2.2150412449293015 1.0995217845052978 0.0
v -1.74129991 1.7145899200000008 0.0
v -2.1238124749798377 -0.17033797258495093 0.0
v -0.00026213999999979976 -0.0119999999999999 0.0
v -1.8714031858581064 -0.44116066069295323 0.0
v -0.9127148299999996 -1.98335762 0.0
v -1.8714031858581064 -0.44116066069295323 0.0
v -0.00026213999999979976 -0.5168636761014054 0.0
v -0.00026213999999979976 -0.5168636761014054 0.0
v -0.00026213999999979976 -1.98335762 0.0
v -0.9127148299999996 -1.98335762 0.0
v -0.9127148299999996 -1.98335762 0.0
v -0.9127148300000001 -2.79835749 0.0
v -2.0083428532046748 -2.79835749 0.0
v -1.8714031858581064 -0.44116066069295323 0.0
v -0.9127148299999996 -1.98335762 0.0
v -2.2420994068882676 -2.339455618985791 0.0
v -2.2420994068882676 -2.339455618985791 0.0
v -0.9127148299999996 -1.98335762 0.0
v -2.0083428532046748 -2.79835749 0.0
v -6.25126223 -1.2317735173280986 0.0
v -4.151972427871607 -1.6234156017861545 0.0
v -4.635463774050485 -3.05310105 0.0
v -4.635463774050485 -3.05310105 0.0
v -6.25126223 -3.0531010499999995 0.0
v -6.25126223 -1.2317735173280986 0.0
v -4.151972427871607 -1.6234156017861545 0.0
v -6.25126223 -1.2317735173280986 0.0
v -4.243293943801357 -1.4004927216249772 0.0
v -6.25126223 -1.2317735173280986 0.0
v -3.980406452593492 -0.5541772449754676 0.0
v -4.243293943801357 -1.4004927216249772 0.0
v -4.441037139028969 0.4065041980585816 0.0
v -6.25126223 -1.2317735173280986 0.0
v -6.25126223 0.36678489067119247 0.0
v -3.980406452593492 -0.5541772449754676 0.0
v -6.25126223 -1.2317735173280986 0.0
v -4.441037139028969 0.4065041980585816 0.0
v -4.51011812 1.9854677599999997 0.0
v -4.441037139028969 0.4065041980585816 0.0
v -6.25126223 0.36678489067119247 0.0
v -6.25126223 0.36678489067119247 0.0
v -6.25126223 2.155849220000001 0.0
v -4.51011812 1.9854677599999997 0.0
v -4.51011812 1.9854677599999997 0.0
v -4.452476121912717 2.5619739202378304 0.0
v -4.019777226378998 1.3786389526302187 0.0
v -4.441037139028969 0.4065041980585816 0.0
v -4.51011812 1.9854677599999997 0.0
v -4.019777226378998 1.3786389526302187 0.0
v -3.980406452593492 -0.5541772449754676 0.0
v -2.2150412449293015 1.0995217845052978 0.0
v -2.1238124749798377 -0.17033797258495093 0.0
v -2.2150412449293015 1.0995217845052978 0.0
v -3.980406452593492 -0.5541772449754676 0.0
v -4.441037139028969 0.4065041980585816 0.0
v -2.2150412449293015 1.0995217845052978 0.0
v -4.441037139028969 0.4065041980585816 0.0
v -4.019777226378998 1.3786389526302187 0.0
v -1.67695229 2.6761579700000007 0.0
v -4.019777226378998 1.3786389526302187 0.0
v -4.452476121912717 2.5619739202378304 0.0
v -4.452476121912717 2.5619739202378304 0.0
v -4.41604285 2.92636111 0.0
v -1.67695229 2.6761579700000007 0.0
v -4.019777226378998 1.3786389526302187 0.0
v -1.7402052136283888 1.730948334738457 0.0
v -2.2150412449293015 1.0995217845052978 0.0
v -1.7402052136283888 1.730948334738457 0.0
v -4.019777226378998 1.3786389526302187 0.0
v -1.67695229 2.6761579700000007 0.0
v -4.42231185 2.05879585 -1.1811718261039316e-17
v -3.55628642 2.55879575 1.00000001
v -3.55628642 2.55879575 -5.551115123125783e-17
v -3.55628642 2.55879575 1.00000001
v -4.42231185 2.05879585 -1.1811718261039316e-17
v -4.42231185 2.05879585 1.0000000100000002
v 0.57073784 -1.48799997 0.04999999999999983
v -0.00026214 -1.48799997 2.19300006
v -0.0002621400000000218 -1.48799997 1.6653345369377348e-16
v -0.00026214 -1.48799997 2.19300006
v 0.57073784 -1.48799997 0.04999999999999983
v 0.57073784 -1.48799997 2.19300006
v 0.57073784 -0.011999999999999972 2.19499993
v 0.6757168 -1.48499143 0.05
v 0.6757168 -1.4849914300000002 2.1949999300000003
v 0.6757168 -1.48499143 0.05
v 0.57073784 -0.011999999999999972 2.19499993
v 0.57073784 -0.011999999999999678 0.04999999999999993
v -0.00026214 1.59804907 1.10000001
v -0.00026214 2.52300007 1.10000001
v -0.00026214 2.52300007 2.76800004
v -0.00026214 2.52300007 2.76800004
v -0.00026214 0.93000002 2.76800004
v -0.00026214 0.93000002 2.27600003
v -0.00026214 1.59804907 1.10000001
v -0.00026214 0.7934286111164899 2.27600003
v -0.00026214 1.59804907 0.9005573431273912
v -0.00026214 1.59804907 1.10000001
v -0.00026214 2.52300007 2.76800004
v -0.00026214 0.93000002 2.27600003
v -0.00026214 0.7934286111164899 2.27600003
v -0.00026214 1.59804907 1.10000001
v -0.00026214 0.93000002 2.27600003
v -0.00026214 -1.9833576199999998 1.1000000099999998
v -0.00026214 -3.64799981 2.76800004
v -0.00026214 -3.64799981 1.1000000100000003
v -0.00026214 -1.9833576199999998 1.1000000099999998
v -0.00026214 -1.9833576199999992 0.0
v -0.00026214 -1.4879999699999997 0.0
v -0.00026214 -1.487999969999999 2.19300006
v -0.00026214 -0.7564979517727609 2.19399119073911
v -0.00026214 -0.645282890658087 2.76800004
v -0.00026214 -1.9833576199999998 1.1000000099999998
v -0.00026214 -1.4879999699999997 0.0
v -0.00026214 -1.487999969999999 2.19300006
v -0.00026214 -3.64799981 2.76800004
v -0.00026214 -1.487999969999999 2.19300006
v -0.00026214 -0.645282890658087 2.76800004
v -0.00026214 -3.64799981 2.76800004
v -0.00026214 -1.9833576199999998 1.1000000099999998
v -0.00026214 -1.487999969999999 2.19300006
v -0.00026214 -0.012000000000000038 2.19499993
v -0.00026214 0.4990000199999999 2.7680000400000004
v -0.00026214 -0.645282890658087 2.76800004
v -0.00026214 -0.645282890658087 2.76800004
v -0.00026214 -0.7564979517727609 2.19399119073911
v -0.00026214 -0.012000000000000038 2.19499993
v -0.00026214 1.59804907 0.9005573431273912
v -0.00026214 -0.011999999999999844 2.220446049250313e-16
v -0.00026214 1.59804907 0.0
v -0.00026214 0.49900001999999966 2.27600003
v -0.00026214 1.59804907 0.9005573431273912
v -0.00026214 0.7934286111164899 2.27600003
v -0.00026214 0.4990000199999999 2.7680000400000004
v -0.00026214 -0.012000000000000038 2.19499993
v -0.00026214 0.49900001999999966 2.27600003
v -0.00026214 0.49900001999999966 2.27600003
v -0.00026214 -0.011999999999999844 2.220446049250313e-16
v -0.00026214 1.59804907 0.9005573431273912
v -0.00026214 -0.011999999999999844 2.220446049250313e-16
v -0.00026214 0.49900001999999966 2.27600003
v -0.00026214 -0.012000000000000038 2.19499993
v 4.200251008423472 2.0776438226857668 1.4215184214401722
v 3.731702832452437 2.120678077910341 2.7360000500000003
v 6.10173802 1.90299993 2.73600005
v 6.10173802 1.90299993 2.73600005
v 6.10173802 1.90299993 1.354821065448788
v 4.200251008423472 2.0776438226857668 1.4215184214401722
v 2.272304030743187 2.2547179562580397 2.7360000500000003
v 0.5707378400000004 2.41099993 0.05000000000000015
v 0.5707378400000007 2.41099993 2.7360000500000003
v 0.5707378400000004 2.41099993 0.05000000000000015
v 2.272304030743187 2.2547179562580397 2.7360000500000003
v 2.280886315222287 2.253929708134102 0.050000000000000044
v 4.200251008423472 2.0776438226857668 1.4215184214401722
v 6.10173802 1.90299993 1.354821065448788
v 6.101738020000001 1.90299993 0.04999999999999982
v 6.101738020000001 1.90299993 0.04999999999999982
v 3.690242326041924 2.124486057764093 0.050000000000000044
v 4.200251008423472 2.0776438226857668 1.4215184214401722
v 4.200251008423472 2.0776438226857668 1.4215184214401722
v 3.690242326041924 2.124486057764093 0.050000000000000044
v 2.280886315222287 2.253929708134102 0.050000000000000044
v 4.200251008423472 2.0776438226857668 1.4215184214401722
v 2.272304030743187 2.2547179562580397 2.7360000500000003
v 3.731702832452437 2.120678077910341 2.7360000500000003
v 2.272304030743187 2.2547179562580397 2.7360000500000003
v 4.200251008423472 2.0776438226857668 1.4215184214401722
v 2.280886315222287 2.253929708134102 0.050000000000000044
v 6.10173802 -6.15999997 0.05
v 4.427896211879647 -4.050607223104175 0.05
v 6.101738020000001 -4.079579424900997 0.05
v 4.185556741218379 -4.286539444931234 0.05
v 6.10173802 -6.15999997 0.05
v 4.264991029340463 -6.159999970000001 0.05
v 4.427896211879647 -4.050607223104175 0.05
v 6.10173802 -6.15999997 0.05
v 4.185556741218379 -4.286539444931234 0.05
v 4.427896211879647 -4.050607223104175 0.05
v 4.147384424869009 -2.2192908679399874 0.05
v 4.330984157069945 -2.0177072667408353 0.05
v 4.427896211879647 -4.050607223104175 0.05
v 6.101738020000001 -1.9537579370137506 0.05000000000000001
v 6.101738020000001 -4.079579424900997 0.05
v 6.101738020000001 -1.9537579370137506 0.05000000000000001
v 4.427896211879647 -4.050607223104175 0.05
v 4.330984157069945 -2.0177072667408353 0.05
v 2.28948392070812 -6.159999970000001 0.049999999999999996
v 4.185556741218379 -4.286539444931234 0.05
v 4.264991029340463 -6.159999970000001 0.05
v 4.185556741218379 -4.286539444931234 0.05
v 2.28948392070812 -6.159999970000001 0.049999999999999996
v 2.4434614627334468 -4.197874293419717 0.05
v 2.4434614627334468 -4.197874293419717 0.05
v 2.242388184084821 -3.97974899702733 0.05
v 2.6085272374472868 -2.305764606895194 0.05
v 2.6085272374472868 -2.305764606895194 0.05
v 4.147384424869009 -2.2192908679399874 0.05
v 4.427896211879647 -4.050607223104175 0.05
v 2.6085272374472868 -2.305764606895194 0.05
v 4.185556741218379 -4.286539444931234 0.05
v 2.4434614627334468 -4.197874293419717 0.05
v 4.185556741218379 -4.286539444931234 0.05
v 2.6085272374472868 -2.305764606895194 0.05
v 4.427896211879647 -4.050607223104175 0.05
v 4.250343578759231 0.03949668014142271 0.05000000000000001
v 4.252403019995175 2.072853871317799 0.05000000000000001
v 6.101738020000001 1.9029999300000005 0.05000000000000001
v 6.101738020000001 1.9029999300000005 0.05000000000000001
v 6.101738020000001 -0.008625386766717646 0.05000000000000001
v 4.250343578759231 0.03949668014142271 0.05000000000000001
v 0.5707378400000009 -6.159999970000001 0.049999999999999996
v 2.4434614627334468 -4.197874293419717 0.05
v 2.28948392070812 -6.159999970000001 0.049999999999999996
v 2.4434614627334468 -4.197874293419717 0.05
v 0.5707378400000009 -6.159999970000001 0.049999999999999996
v 0.5707378400000016 -3.949400407259974 0.049999999999999996
v 2.4434614627334468 -4.197874293419717 0.05
v 0.5707378400000016 -3.949400407259974 0.049999999999999996
v 2.242388184084821 -3.97974899702733 0.05
v 2.6085272374472868 -2.305764606895194 0.05
v 2.1287488889418165 -1.786365349718247 0.05
v 2.637756920832989 -0.10376410124212543 0.05
v 2.637756920832989 -0.10376410124212543 0.05
v 4.051818441265415 -0.142094387242792 0.05000000000000001
v 4.330984157069945 -2.0177072667408353 0.05
v 4.330984157069945 -2.0177072667408353 0.05
v 4.147384424869009 -2.2192908679399874 0.05
v 2.6085272374472868 -2.305764606895194 0.05
v 2.6085272374472868 -2.305764606895194 0.05
v 2.637756920832989 -0.10376410124212543 0.05
v 4.330984157069945 -2.0177072667408353 0.05
v 0.5707378400000016 -3.949400407259974 0.049999999999999996
v 2.6085272374472868 -2.305764606895194 0.05
v 2.242388184084821 -3.97974899702733 0.05
v 2.1287488889418165 -1.786365349718247 0.05
v 0.5707378400000016 -3.949400407259974 0.049999999999999996
v 0.5707378400000012 -1.7971479799529693 0.05
v 2.6085272374472868 -2.305764606895194 0.05
v 0.5707378400000016 -3.949400407259974 0.049999999999999996
v 2.1287488889418165 -1.786365349718247 0.05
v 4.330984157069945 -2.0177072667408353 0.05
v 4.051818441265415 -0.142094387242792 0.05000000000000001
v 4.250343578759231 0.03949668014142271 0.05000000000000001
v 4.330984157069945 -2.0177072667408353 0.05
v 6.101738020000001 -0.008625386766717646 0.05000000000000001
v 6.101738020000001 -1.9537579370137506 0.05000000000000001
v 6.101738020000001 -0.008625386766717646 0.05000000000000001
v 4.330984157069945 -2.0177072667408353 0.05
v 4.250343578759231 0.03949668014142271 0.05000000000000001
v 0.5707378400000019 -0.012000000000000854 0.05
v 2.637756920832989 -0.10376410124212543 0.05
v 2.1287488889418165 -1.786365349718247 0.05
v 2.1287488889418165 -1.786365349718247 0.05
v 0.5707378400000012 -1.7971479799529693 0.05
v 0.5707378400000018 -1.4879999700000006 0.05
v 0.5707378400000019 -0.012000000000000854 0.05
v 0.570737840000002 0.3240844529125403 0.05
v 2.2439108383522997 0.3209015706436028 0.05
v 0.5707378400000019 -0.012000000000000854 0.05
v 2.1287488889418165 -1.786365349718247 0.05
v 0.5707378400000018 -1.4879999700000006 0.05
v 2.637756920832989 -0.10376410124212543 0.05
v 0.5707378400000019 -0.012000000000000854 0.05
v 2.2439108383522997 0.3209015706436028 0.05
v 4.252403019995175 2.072853871317799 0.05000000000000001
v 2.2439108383522997 0.3209015706436028 0.05
v 2.605652458102777 2.224101251215974 0.05000000000000001
v 2.2439108383522997 0.3209015706436028 0.05
v 4.252403019995175 2.072853871317799 0.05000000000000001
v 4.250343578759231 0.03949668014142271 0.05000000000000001
v 4.250343578759231 0.03949668014142271 0.05000000000000001
v 4.051818441265415 -0.142094387242792 0.05000000000000001
v 2.637756920832989 -0.10376410124212543 0.05
v 2.2439108383522997 0.3209015706436028 0.05
v 4.250343578759231 0.03949668014142271 0.05000000000000001
v 2.637756920832989 -0.10376410124212543 0.05
v 2.2439108383522997 0.3209015706436028 0.05
v 0.570737840000002 0.3240844529125403 0.05
v 0.5707378400000016 2.410999929999999 0.05
v 0.5707378400000016 2.410999929999999 0.05
v 2.605652458102777 2.224101251215974 0.05000000000000001
v 2.2439108383522997 0.3209015706436028 0.05
v 0.57073784 -0.012000000000000177 0.05
v 0.57073784 -1.48799997 0.05
v -0.0002621400000000773 -1.48799997 -6.938893903907228e-18
v -0.0002621400000000773 -1.48799997 -6.938893903907228e-18
v -0.0002621400000000043 -0.012000000000000004 1.5333097274868078e-18
v 0.57073784 -0.012000000000000177 0.05
v 0.57073784 -3.763058453928773 0.04999999999999971
v 0.57073784 -1.4879999699999997 1.239762414105448
v 0.57073784 -1.48799997 0.05
v 0.57073784 -1.4879999699999997 1.239762414105448
v 0.57073784 -3.763058453928773 0.04999999999999971
v 0.57073784 -2.674444518428102 1.982853764361522
v 0.57073784 -1.48799997 2.1930000600000006
v 0.57073784 -2.9144352029363265 2.7360000500000003
v 0.57073784 0.4990000200000002 2.736000050000001
v 0.57073784 0.4990000200000002 2.736000050000001
v 0.57073784 -0.011999999999999789 2.1949999300000003
v 0.57073784 -1.48799997 2.1930000600000006
v 0.57073784 -1.48799997 2.1930000600000006
v 0.57073784 -1.4879999699999997 1.239762414105448
v 0.57073784 -2.674444518428102 1.982853764361522
v 0.57073784 -2.9144352029363265 2.7360000500000003
v 0.57073784 -1.48799997 2.1930000600000006
v 0.57073784 -2.674444518428102 1.982853764361522
v 0.57073784 -3.90599995 2.2760000300000005
v 0.57073784 -3.763058453928773 0.04999999999999971
v 0.57073784 -4.3985790462704655 0.04999999999999982
v 0.57073784 -3.90599995 2.2760000300000005
v 0.57073784 -4.778348755961273 2.7360000499999995
v 0.57073784 -3.90599995 2.7360000500000003
v 0.57073784 -3.4830001899999994 2.2760000300000005
v 0.57073784 -3.4830001899999994 2.7360000500000003
v 0.57073784 -2.9144352029363265 2.7360000500000003
v 0.57073784 -3.763058453928773 0.04999999999999971
v 0.57073784 -3.4830001899999994 2.2760000300000005
v 0.57073784 -2.674444518428102 1.982853764361522
v 0.57073784 -4.778348755961273 2.7360000499999995
v 0.57073784 -3.90599995 2.2760000300000005
v 0.57073784 -4.3985790462704655 0.04999999999999982
v 0.57073784 -2.674444518428102 1.982853764361522
v 0.57073784 -3.4830001899999994 2.2760000300000005
v 0.57073784 -2.9144352029363265 2.7360000500000003
v 0.57073784 -3.763058453928773 0.04999999999999971
v 0.57073784 -3.90599995 2.2760000300000005
v 0.57073784 -3.4830001899999994 2.2760000300000005
v 0.57073784 -4.778348755961273 2.7360000499999995
v 0.57073784 -6.159999970000001 0.049999999999998934
v 0.57073784 -6.15999997 2.7360000499999995
v 0.57073784 -6.159999970000001 0.049999999999998934
v 0.57073784 -4.778348755961273 2.7360000499999995
v 0.57073784 -4.3985790462704655 0.04999999999999982
v 0.57073784 0.93000002 2.27600003
v 0.57073784 0.9300000200000001 2.73600005
v 0.57073784 2.41099993 2.73600005
v 0.57073784 2.41099993 2.73600005
v 0.57073784 2.41099993 0.04999999999999982
v 0.57073784 1.8365227495865721 0.0499999999999996
v 0.57073784 1.8365227495865721 0.0499999999999996
v 0.57073784 0.7723343207203057 2.27600003
v 0.57073784 0.93000002 2.27600003
v 0.57073784 0.93000002 2.27600003
v 0.57073784 2.41099993 2.73600005
v 0.57073784 1.8365227495865721 0.0499999999999996
v 0.57073784 0.49900002 2.27600003
v 0.57073784 -0.011999999999999908 0.04999999999999973
v 0.57073784 -0.012000000000000233 2.19499993
v 0.57073784 -0.012000000000000233 2.19499993
v 0.57073784 0.49900002 2.73600005
v 0.57073784 0.49900002 2.27600003
v 0.57073784 -0.011999999999999908 0.04999999999999973
v 0.57073784 0.7723343207203057 2.27600003
v 0.57073784 1.8365227495865721 0.0499999999999996
v 0.57073784 0.7723343207203057 2.27600003
v 0.57073784 -0.011999999999999908 0.04999999999999973
v 0.57073784 0.49900002 2.27600003
v -0.0002621399999999113 -0.012 2.19499993
v 0.57073784 -0.012 0.05
v -0.0002621400000000218 -0.012 0.0
v 0.57073784 -0.012 0.05
v -0.0002621399999999113 -0.012 2.19499993
v 0.57073784 -0.012 2.19499993
v 0.6757168 -1.48499143 2.19499993
v 0.6757168 -1.48499143 0.05
v 0.57073784 -0.011999999999999789 0.05
v 0.57073784 -0.011999999999999789 0.05
v 0.57073784 -0.011999999999999789 2.19499993
v 0.6757168 -1.48499143 2.19499993
v -5.44190039 -0.09118618 0.0
v -5.44190039 1.4788138 0.0
v -5.44190039 1.4788138 1.00000001
v -5.44190039 1.4788138 1.00000001
v -5.44190039 -0.09118618 1.00000001
v -5.44190039 -0.09118618 0.0
v -2.50874144 2.56199827 0.0
v -2.50874144 2.56199827 1.00000001
v -3.50874164 2.56199827 1.00000001
v -3.50874164 2.56199827 1.00000001
v -3.50874164 2.56199827 0.0
v -2.50874144 2.56199827 0.0
v -1.7840585400000002 1.7289706300000003 1.00000001
v -2.39004694 2.52444417 1.00000001
v -2.39004694 2.52444417 0.0
v -2.39004694 2.52444417 0.0
v -1.7840585400000002 1.7289706300000003 0.0
v -1.7840585400000002 1.7289706300000003 1.00000001
v -4.38912512 1.97678031 0.0
v -4.38912512 1.97678031 1.00000001
v -5.31825755 1.6070335900000006 1.00000001
v -5.31825755 1.6070335900000006 1.00000001
v -5.31825755 1.6070335900000006 0.0
v -4.38912512 1.97678031 0.0
v -3.55628642 2.55879575 0.0
v -3.55628642 2.55879575 1.00000001
v -4.42231185 2.0587958500000005 1.00000001
v -4.42231185 2.0587958500000005 1.00000001
v -4.42231185 2.0587958500000005 0.0
v -3.55628642 2.55879575 0.0

usemtl Patch_1_Mat_CR1_paintedConcrete
f 3 2 1
f 6 5 4

usemtl Patch_2_Mat_CR1_paintedConcrete
f 9 8 7
f 12 11 10

usemtl Patch_3_Mat_CR1_paintedConcrete
f 15 14 13
f 18 17 16

usemtl Patch_4_Mat_CR1_paintedConcrete
f 21 20 19
f 24 23 22

usemtl Patch_5_Mat_CR1_paintedConcrete
f 27 26 25
f 30 29 28

usemtl Patch_6_Mat_CR1_paintedConcrete
f 33 32 31
f 36 35 34

usemtl Patch_7_Mat_CR1_paintedConcrete
f 39 38 37
f 42 41 40

usemtl Patch_8_Mat_CR1_paintedConcrete
f 45 44 43
f 48 47 46

usemtl Patch_9_Mat_CR1_paintedConcrete
f 51 50 49
f 54 53 52

usemtl Patch_10_Mat_CR1_paintedConcrete
f 57 56 55
f 60 59 58

usemtl Patch_11_Mat_CR1_paintedConcrete
f 63 62 61
f 66 65 64

usemtl Patch_12_Mat_CR1_paintedConcrete
f 69 68 67
f 72 71 70

usemtl Patch_13_Mat_CR1_paintedConcrete
f 75 74 73
f 78 77 76

usemtl Patch_14_Mat_CR1_paintedConcrete
f 81 80 79
f 84 83 82
f 87 86 85

usemtl Patch_15_Mat_CR1_paintedConcrete
f 90 89 88
f 93 92 91
f 96 95 94

usemtl Patch_16_Mat_CR1_paintedConcrete
f 99 98 97
f 102 101 100
f 105 104 103

usemtl Patch_17_Mat_CR1_paintedConcrete
f 108 107 106
f 111 110 109

usemtl Patch_18_Mat_CR1_paintedConcrete
f 114 113 112
f 117 116 115
f 120 119 118

usemtl Patch_19_Mat_CR1_paintedConcrete
f 123 122 121
f 126 125 124
f 129 128 127

usemtl Patch_20_Mat_CR1_paintedConcrete
f 132 131 130
f 135 134 133
f 138 137 136
f 141 140 139
f 144 143 142

usemtl Patch_21_Mat_CR1_paintedConcrete
f 147 146 145
f 150 149 148
f 153 152 151
f 156 155 154
f 159 158 157

usemtl Patch_22_Mat_CR1_paintedConcrete
f 162 161 160
f 165 164 163

usemtl Patch_23_Mat_CR1_concrete
f 168 167 166
f 171 170 169

usemtl Patch_24_Mat_CR1_concrete
f 174 173 172
f 177 176 175

usemtl Patch_25_Mat_CR1_concrete
f 180 179 178
f 183 182 181

usemtl Patch_26_Mat_CR1_concrete
f 186 185 184
f 189 188 187
f 192 191 190
f 195 194 193
f 198 197 196
f 201 200 199

usemtl Patch_27_Mat_CR1_concrete
f 204 203 202
f 207 206 205
f 210 209 208
f 213 212 211
f 216 215 214

usemtl Patch_28_Mat_CR1_concrete
f 219 218 217
f 222 221 220
f 225 224 223

usemtl Patch_29_Mat_CR1_concrete
f 228 227 226
f 231 230 229
f 234 233 232

usemtl Patch_30_Mat_CR1_concrete
f 237 236 235
f 240 239 238
f 243 242 241
f 246 245 244

usemtl Patch_31_Mat_CR1_concrete
f 249 248 247
f 252 251 250

usemtl Patch_32_Mat_CR1_concrete
f 255 254 253
f 258 257 256

usemtl Patch_33_Mat_CR1_concrete
f 261 260 259
f 264 263 262

usemtl Patch_34_Mat_CR1_concrete
f 267 266 265
f 270 269 268
f 273 272 271

usemtl Patch_35_Mat_CR1_concrete
f 276 275 274
f 279 278 277
f 282 281 280

usemtl Patch_36_Mat_CR1_concrete
f 285 284 283
f 288 287 286

usemtl Patch_37_Mat_CR1_concrete
f 291 290 289
f 294 293 292
f 297 296 295

usemtl Patch_38_Mat_CR1_concrete
f 300 299 298
f 303 302 301
f 306 305 304

usemtl Patch_39_Mat_CR1_concrete
f 309 308 307
f 312 311 310

usemtl Patch_40_Mat_CR1_concrete
f 315 314 313
f 318 317 316
f 321 320 319

usemtl Patch_41_Mat_CR1_concrete
f 324 323 322
f 327 326 325
f 330 329 328
f 333 332 331

usemtl Patch_42_Mat_CR1_concrete
f 336 335 334
f 339 338 337
f 342 341 340
f 345 344 343

usemtl Patch_43_Mat_CR1_concrete
f 348 347 346
f 351 350 349
f 354 353 352
f 357 356 355

usemtl Patch_44_Mat_CR1_concrete
f 360 359 358
f 363 362 361

usemtl Patch_45_Mat_CR1_paintedConcrete
f 366 365 364
f 369 368 367
f 372 371 370
f 375 374 373

usemtl Patch_46_Mat_CR1_paintedConcrete
f 378 377 376
f 381 380 379

usemtl Patch_47_Mat_CR1_paintedConcrete
f 384 383 382
f 387 386 385

usemtl Patch_48_Mat_CR1_paintedConcrete
f 390 389 388
f 393 392 391
f 396 395 394
f 399 398 397
f 402 401 400
f 405 404 403

usemtl Patch_49_Mat_CR1_paintedConcrete
f 408 407 406
f 411 410 409

usemtl Patch_50_Mat_CR1_paintedConcrete
f 414 413 412
f 417 416 415
f 420 419 418
f 423 422 421
f 426 425 424
f 429 428 427
f 432 431 430

usemtl Patch_51_Mat_CR1_paintedConcrete
f 435 434 433
f 438 437 436

usemtl Patch_52_Mat_CR1_paintedConcrete
f 441 440 439
f 444 443 442

usemtl Patch_53_Mat_CR1_paintedConcrete
f 447 446 445
f 450 449 448

usemtl Patch_54_Mat_CR1_paintedConcrete
f 453 452 451
f 456 455 454
f 459 458 457

usemtl Patch_55_Mat_CR1_tablesEquipment
f 462 461 460
f 465 464 463

usemtl Patch_56_Mat_CR1_tablesEquipment
f 468 467 466
f 471 470 469

usemtl Patch_57_Mat_CR1_tablesEquipment
f 474 473 472
f 477 476 475

usemtl Patch_58_Mat_CR1_tablesEquipment
f 480 479 478
f 483 482 481

usemtl Patch_59_Mat_CR1_tablesEquipment
f 486 485 484
f 489 488 487

usemtl Patch_60_Mat_CR1_tablesEquipment
f 492 491 490
f 495 494 493

usemtl Patch_61_Mat_CR1_tablesEquipment
f 498 497 496
f 501 500 499

usemtl Patch_62_Mat_CR1_tablesEquipment
f 504 503 502
f 507 506 505

usemtl Patch_63_Mat_CR1_tablesEquipment
f 510 509 508
f 513 512 511

usemtl Patch_64_Mat_CR1_absorber
f 516 515 514
f 519 518 517

usemtl Patch_65_Mat_CR1_absorber
f 522 521 520
f 525 524 523

usemtl Patch_66_Mat_CR1_absorber
f 528 527 526
f 531 530 529

usemtl Patch_67_Mat_CR1_absorber
f 534 533 532
f 537 536 535

usemtl Patch_68_Mat_CR1_tablesEquipment
f 540 539 538
f 543 542 541

usemtl Patch_69_Mat_CR1_tablesEquipment
f 546 545 544
f 549 548 547

usemtl Patch_70_Mat_CR1_tablesEquipment
f 552 551 550
f 555 554 553
f 558 557 556
f 561 560 559

usemtl Patch_71_Mat_CR1_tablesEquipment
f 564 563 562
f 567 566 565

usemtl Patch_72_Mat_CR1_tablesEquipment
f 570 569 568
f 573 572 571

usemtl Patch_73_Mat_CR1_concrete
f 576 575 574
f 579 578 577
f 582 581 580
f 585 584 583
f 588 587 586
f 591 590 589

usemtl Patch_74_Mat_CR1_concrete
f 594 593 592
f 597 596 595
f 600 599 598
f 603 602 601

usemtl Patch_75_Mat_CR1_concrete
f 606 605 604
f 609 608 607
f 612 611 610
f 615 614 613
f 618 617 616
f 621 620 619

usemtl Patch_76_Mat_CR1_concrete
f 624 623 622
f 627 626 625
f 630 629 628
f 633 632 631
f 636 635 634

usemtl Patch_77_Mat_CR1_concrete
f 639 638 637
f 642 641 640
f 645 644 643

usemtl Patch_78_Mat_CR1_concrete
f 648 647 646
f 651 650 649
f 654 653 652

usemtl Patch_79_Mat_CR1_concrete
f 657 656 655
f 660 659 658
f 663 662 661
f 666 665 664

usemtl Patch_80_Mat_CR1_concrete
f 669 668 667
f 672 671 670
f 675 674 673

usemtl Patch_81_Mat_CR1_concrete
f 678 677 676
f 681 680 679
f 684 683 682
f 687 686 685

usemtl Patch_82_Mat_CR1_absorber
f 690 689 688
f 693 692 691

usemtl Patch_83_Mat_CR1_concrete
f 696 695 694
f 699 698 697

usemtl Patch_84_Mat_CR1_paintedConcrete
f 702 701 700
f 705 704 703

usemtl Patch_85_Mat_CR1_concrete
f 708 707 706
f 711 710 709
f 714 713 712
f 717 716 715
f 720 719 718

usemtl Patch_86_Mat_CR1_concrete
f 723 722 721
f 726 725 724
f 729 728 727
f 732 731 730
f 735 734 733
f 738 737 736

usemtl Patch_87_Mat_CR1_concrete
f 741 740 739
f 744 743 742
f 747 746 745
f 750 749 748
f 753 752 751
f 756 755 754
f 759 758 757

usemtl Patch_88_Mat_CR1_paintedConcrete
f 762 761 760
f 765 764 763

usemtl Patch_89_Mat_CR1_paintedConcrete
f 768 767 766
f 771 770 769

usemtl Patch_90_Mat_CR1_paintedConcrete
f 774 773 772
f 777 776 775

usemtl Patch_91_Mat_CR1_paintedConcrete
f 780 779 778
f 783 782 781
f 786 785 784

usemtl Patch_92_Mat_CR1_paintedConcrete
f 789 788 787
f 792 791 790
f 795 794 793

usemtl Patch_93_Mat_CR1_paintedConcrete
f 798 797 796
f 801 800 799
f 804 803 802

usemtl Patch_94_Mat_CR1_paintedConcrete
f 807 806 805
f 810 809 808

usemtl Patch_95_Mat_CR1_paintedConcrete
f 813 812 811
f 816 815 814
f 819 818 817
f 822 821 820

usemtl Patch_96_Mat_CR1_paintedConcrete
f 825 824 823
f 828 827 826

usemtl Patch_97_Mat_CR1_paintedConcrete
f 831 830 829
f 834 833 832
f 837 836 835

usemtl Patch_98_Mat_CR1_paintedConcrete
f 840 839 838
f 843 842 841
f 846 845 844
f 849 848 847

usemtl Patch_99_Mat_CR1_paintedConcrete
f 852 851 850
f 855 854 853
f 858 857 856

usemtl Patch_100_Mat_CR1_paintedConcrete
f 861 860 859
f 864 863 862
f 867 866 865

usemtl Patch_101_Mat_CR1_paintedConcrete
f 870 869 868
f 873 872 871
f 876 875 874
f 879 878 877
f 882 881 880

usemtl Patch_102_Mat_CR1_paintedConcrete
f 885 884 883
f 888 887 886
f 891 890 889
f 894 893 892

usemtl Patch_103_Mat_CR1_paintedConcrete
f 897 896 895
f 900 899 898

usemtl Patch_104_Mat_CR1_concrete
f 903 902 901
f 906 905 904

usemtl Patch_105_Mat_CR1_paintedConcrete
f 909 908 907
f 912 911 910

usemtl Patch_106_Mat_CR1_paintedConcrete
f 915 914 913
f 918 917 916
f 921 920 919
f 924 923 922

usemtl Patch_107_Mat_CR1_paintedConcrete
f 927 926 925
f 930 929 928
f 933 932 931
f 936 935 934
f 939 938 937
f 942 941 940
f 945 944 943

usemtl Patch_108_Mat_CR1_paintedConcrete
f 948 947 946
f 951 950 949

usemtl Patch_109_Mat_CR1_paintedConcrete
f 954 953 952
f 957 956 955
f 960 959 958
f 963 962 961

usemtl Patch_110_Mat_CR1_paintedConcrete
f 966 965 964
f 969 968 967
f 972 971 970
f 975 974 973

usemtl Patch_111_Mat_CR1_concrete
f 978 977 976
f 981 980 979

usemtl Patch_112_Mat_CR1_tablesEquipment
f 984 983 982
f 987 986 985

usemtl Patch_113_Mat_CR1_absorber
f 990 989 988
f 993 992 991

usemtl Patch_114_Mat_CR1_absorber
f 996 995 994
f 999 998 997

usemtl Patch_115_Mat_CR1_absorber
f 1002 1001 1000
f 1005 1004 1003

usemtl Patch_116_Mat_CR1_absorber
f 1008 1007 1006
f 1011 1010 1009

usemtl Patch_117_Mat_CR1_absorber
f 1014 1013 1012
f 1017 1016 1015

