mtllib mesh.mtl

v 4.754 -3.906 2.736
v 6.102 -6.160 2.736
v 6.102 -3.906 2.736
v 6.102 -6.160 2.736
v 4.754 -3.906 2.736
v 4.720 -6.160 2.736
v 4.754 -3.906 2.736
v 3.340 -3.906 2.736
v 3.386 -6.160 2.736
v 3.386 -6.160 2.736
v 4.720 -6.160 2.736
v 4.754 -3.906 2.736
v 3.340 -3.906 2.736
v 1.989 -3.906 2.736
v 1.956 -6.160 2.736
v 1.956 -6.160 2.736
v 3.386 -6.160 2.736
v 3.340 -3.906 2.736
v 1.956 -6.160 2.736
v 0.571 -3.906 2.736
v 0.571 -6.160 2.736
v 0.571 -3.906 2.736
v 1.956 -6.160 2.736
v 1.989 -3.906 2.736
v 1.928 0.930 2.736
v 0.571 0.930 2.736
v 0.571 0.930 2.276
v 0.571 0.930 2.276
v 1.930 0.930 2.276
v 1.928 0.930 2.736
v 1.930 0.930 2.276
v 3.298 0.930 2.276
v 3.299 0.930 2.736
v 3.299 0.930 2.736
v 1.928 0.930 2.736
v 1.930 0.930 2.276
v 3.299 0.930 2.736
v 4.690 0.930 2.276
v 4.691 0.930 2.736
v 4.690 0.930 2.276
v 3.299 0.930 2.736
v 3.298 0.930 2.276
v 4.691 0.930 2.736
v 6.102 0.930 2.276
v 6.102 0.930 2.736
v 6.102 0.930 2.276
v 4.691 0.930 2.736
v 4.690 0.930 2.276
v 5.005 0.499 2.276
v 6.102 0.499 2.276
v 6.102 0.930 2.276
v 6.102 0.930 2.276
v 5.005 0.930 2.276
v 5.005 0.499 2.276
v 5.005 0.499 2.276
v 3.918 0.930 2.276
v 3.918 0.499 2.276
v 3.918 0.930 2.276
v 5.005 0.499 2.276
v 5.005 0.930 2.276
v 3.918 0.499 2.276
v 2.803 0.930 2.276
v 2.802 0.499 2.276
v 2.803 0.930 2.276
v 3.918 0.499 2.276
v 3.918 0.930 2.276
v 2.803 0.930 2.276
v 1.681 0.930 2.276
v 1.682 0.499 2.276
v 1.682 0.499 2.276
v 2.802 0.499 2.276
v 2.803 0.930 2.276
v 1.681 0.930 2.276
v 0.571 0.930 2.276
v 0.571 0.499 2.276
v 0.571 0.499 2.276
v 1.682 0.499 2.276
v 1.681 0.930 2.276
v 4.691 0.499 2.736
v 6.102 0.499 2.736
v 6.102 0.499 2.276
v 6.102 0.499 2.276
v 4.690 0.499 2.276
v 4.691 0.499 2.736
v 4.690 0.499 2.276
v 3.301 0.499 2.276
v 3.301 0.499 2.736
v 3.301 0.499 2.736
v 4.691 0.499 2.736
v 4.690 0.499 2.276
v 3.301 0.499 2.736
v 1.935 0.499 2.276
v 1.934 0.499 2.736
v 1.935 0.499 2.276
v 3.301 0.499 2.736
v 3.301 0.499 2.276
v 1.934 0.499 2.736
v 0.571 0.499 2.276
v 0.571 0.499 2.736
v 0.571 0.499 2.276
v 1.934 0.499 2.736
v 1.935 0.499 2.276
v 3.200 0.930 2.736
v 6.102 0.930 2.736
v 6.102 1.903 2.736
v 6.102 1.903 2.736
v 3.260 2.164 2.736
v 3.200 0.930 2.736
v 3.260 2.164 2.736
v 0.571 2.411 2.736
v 0.571 0.930 2.736
v 0.571 0.930 2.736
v 3.200 0.930 2.736
v 3.260 2.164 2.736
v 1.982 -3.483 2.736
v 0.571 -3.483 2.736
v 0.571 -3.483 2.276
v 0.571 -3.483 2.276
v 1.983 -3.483 2.276
v 1.982 -3.483 2.736
v 1.983 -3.483 2.276
v 3.372 -3.483 2.276
v 3.372 -3.483 2.736
v 3.372 -3.483 2.736
v 1.982 -3.483 2.736
v 1.983 -3.483 2.276
v 3.372 -3.483 2.736
v 4.738 -3.483 2.276
v 4.739 -3.483 2.736
v 4.738 -3.483 2.276
v 3.372 -3.483 2.736
v 3.372 -3.483 2.276
v 4.739 -3.483 2.736
v 6.102 -3.483 2.276
v 6.102 -3.483 2.736
v 6.102 -3.483 2.276
v 4.739 -3.483 2.736
v 4.738 -3.483 2.276
v 4.943 -3.906 2.276
v 6.102 -3.906 2.276
v 6.102 -3.483 2.276
v 6.102 -3.483 2.276
v 4.942 -3.483 2.276
v 4.943 -3.906 2.276
v 4.943 -3.906 2.276
v 3.810 -3.483 2.276
v 3.808 -3.906 2.276
v 3.810 -3.483 2.276
v 4.943 -3.906 2.276
v 4.942 -3.483 2.276
v 3.808 -3.906 2.276
v 2.698 -3.483 2.276
v 2.698 -3.906 2.276
v 2.698 -3.483 2.276
v 3.808 -3.906 2.276
v 3.810 -3.483 2.276
v 2.698 -3.483 2.276
v 1.630 -3.483 2.276
v 1.630 -3.906 2.276
v 1.630 -3.906 2.276
v 2.698 -3.906 2.276
v 2.698 -3.483 2.276
v 1.630 -3.483 2.276
v 0.571 -3.483 2.276
v 0.571 -3.906 2.276
v 0.571 -3.906 2.276
v 1.630 -3.906 2.276
v 1.630 -3.483 2.276
v 4.691 -3.906 2.736
v 6.102 -3.906 2.736
v 6.102 -3.906 2.276
v 6.102 -3.906 2.276
v 4.690 -3.906 2.276
v 4.691 -3.906 2.736
v 4.690 -3.906 2.276
v 3.301 -3.906 2.276
v 3.301 -3.906 2.736
v 3.301 -3.906 2.736
v 4.691 -3.906 2.736
v 4.690 -3.906 2.276
v 3.301 -3.906 2.736
v 1.935 -3.906 2.276
v 1.934 -3.906 2.736
v 1.935 -3.906 2.276
v 3.301 -3.906 2.736
v 3.301 -3.906 2.276
v 1.934 -3.906 2.736
v 0.571 -3.906 2.276
v 0.571 -3.906 2.736
v 0.571 -3.906 2.276
v 1.934 -3.906 2.736
v 1.935 -3.906 2.276
v 6.102 0.499 2.736
v 4.300 -1.515 2.736
v 6.102 -1.471 2.736
v 4.300 -1.515 2.736
v 6.102 0.499 2.736
v 4.227 0.499 2.736
v 4.300 -1.515 2.736
v 4.227 0.499 2.736
v 4.215 -1.439 2.736
v 2.387 -1.481 2.736
v 2.438 -1.525 2.736
v 4.215 -1.439 2.736
v 4.215 -1.439 2.736
v 4.227 0.499 2.736
v 2.366 0.499 2.736
v 2.366 0.499 2.736
v 2.387 -1.481 2.736
v 4.215 -1.439 2.736
v 4.300 -1.515 2.736
v 4.286 -3.483 2.736
v 6.102 -3.483 2.736
v 6.102 -3.483 2.736
v 6.102 -1.471 2.736
v 4.300 -1.515 2.736
v 4.300 -1.515 2.736
v 4.215 -1.439 2.736
v 2.438 -1.525 2.736
v 2.438 -1.525 2.736
v 2.460 -3.483 2.736
v 4.286 -3.483 2.736
v 4.286 -3.483 2.736
v 4.300 -1.515 2.736
v 2.438 -1.525 2.736
v 2.387 -1.481 2.736
v 2.366 0.499 2.736
v 0.571 0.499 2.736
v 0.571 0.499 2.736
v 0.571 -1.524 2.736
v 2.387 -1.481 2.736
v 0.571 -3.483 2.736
v 2.387 -1.481 2.736
v 0.571 -1.524 2.736
v 2.387 -1.481 2.736
v 0.571 -3.483 2.736
v 2.460 -3.483 2.736
v 2.387 -1.481 2.736
v 2.460 -3.483 2.736
v 2.438 -1.525 2.736
v -4.034 -3.648 1.931
v -4.054 -3.648 2.768
v -6.251 -3.648 2.768
v -6.251 -3.648 2.768
v -6.251 -3.648 1.100
v -4.693 -3.648 1.100
v -4.693 -3.648 1.100
v -4.034 -3.648 1.931
v -6.251 -3.648 2.768
v -2.840 -3.648 1.100
v -4.522 -3.648 1.100
v -4.522 -3.648 0.000
v -2.840 -3.648 1.100
v -2.803 -3.648 -0.000
v -2.803 -3.648 1.074
v -2.803 -3.648 -0.000
v -2.840 -3.648 1.100
v -4.522 -3.648 0.000
v -4.034 -3.648 1.931
v -4.693 -3.648 1.100
v -4.522 -3.648 1.100
v -4.522 -3.648 1.100
v -2.840 -3.648 1.100
v -4.034 -3.648 1.931
v -1.855 -3.648 2.768
v -0.000 -3.648 1.100
v -0.000 -3.648 2.768
v -0.000 -3.648 1.100
v -1.855 -3.648 2.768
v -1.951 -3.648 1.100
v -1.855 -3.648 2.768
v -2.840 -3.648 1.100
v -1.951 -3.648 1.100
v -4.034 -3.648 1.931
v -1.855 -3.648 2.768
v -4.054 -3.648 2.768
v -1.855 -3.648 2.768
v -4.034 -3.648 1.931
v -2.840 -3.648 1.100
v -2.186 0.930 2.768
v 0.000 0.930 2.768
v -0.000 2.523 2.768
v -0.000 2.523 2.768
v -2.100 2.715 2.768
v -2.186 0.930 2.768
v -2.186 0.930 2.768
v -4.171 2.904 2.768
v -4.271 0.930 2.768
v -4.171 2.904 2.768
v -2.186 0.930 2.768
v -2.100 2.715 2.768
v -4.171 2.904 2.768
v -6.251 3.094 2.768
v -6.251 0.930 2.768
v -6.251 0.930 2.768
v -4.271 0.930 2.768
v -4.171 2.904 2.768
v -6.251 0.794 2.001
v -6.251 0.795 2.276
v -6.251 0.930 2.276
v -6.251 0.930 2.276
v -6.251 0.930 2.768
v -6.251 3.094 2.768
v -6.251 3.094 2.768
v -6.251 3.094 1.100
v -6.251 2.156 1.100
v -6.251 2.156 1.100
v -6.251 2.156 0.661
v -6.251 0.794 2.001
v -6.251 2.156 1.100
v -6.251 0.930 2.276
v -6.251 3.094 2.768
v -6.251 0.930 2.276
v -6.251 2.156 1.100
v -6.251 0.794 2.001
v -6.251 -0.416 0.698
v -6.251 0.794 2.001
v -6.251 2.156 0.661
v -6.251 2.156 0.661
v -6.251 2.156 0.000
v -6.251 -0.393 0.000
v -6.251 -0.393 0.000
v -6.251 -0.416 0.698
v -6.251 2.156 0.661
v -6.251 0.499 2.276
v -6.251 -0.416 0.698
v -6.251 -1.584 1.763
v -6.251 0.499 2.276
v -6.251 -1.598 2.768
v -6.251 0.499 2.768
v -6.251 0.499 2.276
v -6.251 0.795 2.276
v -6.251 0.794 2.001
v -6.251 -1.598 2.768
v -6.251 0.499 2.276
v -6.251 -1.584 1.763
v -6.251 -0.416 0.698
v -6.251 0.499 2.276
v -6.251 0.794 2.001
v -6.251 -3.053 0.000
v -6.251 -0.416 0.698
v -6.251 -0.393 0.000
v -6.251 -0.416 0.698
v -6.251 -3.053 0.000
v -6.251 -3.053 0.619
v -6.251 -0.416 0.698
v -6.251 -3.053 0.619
v -6.251 -1.584 1.763
v -6.251 -1.584 1.763
v -6.251 -3.053 0.619
v -6.251 -3.053 1.100
v -6.251 -3.053 1.100
v -6.251 -3.648 1.100
v -6.251 -3.648 2.768
v -6.251 -3.648 2.768
v -6.251 -1.598 2.768
v -6.251 -1.584 1.763
v -6.251 -1.584 1.763
v -6.251 -3.053 1.100
v -6.251 -3.648 2.768
v -1.245 0.499 2.768
v 0.000 0.499 2.768
v 0.000 0.499 2.276
v 0.000 0.499 2.276
v -1.245 0.499 2.276
v -1.245 0.499 2.768
v -1.245 0.499 2.276
v -2.496 0.499 2.276
v -2.496 0.499 2.768
v -2.496 0.499 2.768
v -1.245 0.499 2.768
v -1.245 0.499 2.276
v -2.496 0.499 2.276
v -3.756 0.499 2.276
v -3.756 0.499 2.768
v -3.756 0.499 2.768
v -2.496 0.499 2.768
v -2.496 0.499 2.276
v -3.756 0.499 2.768
v -5.007 0.499 2.276
v -5.008 0.499 2.768
v -5.007 0.499 2.276
v -3.756 0.499 2.768
v -3.756 0.499 2.276
v -5.008 0.499 2.768
v -6.251 0.499 2.276
v -6.251 0.499 2.768
v -6.251 0.499 2.276
v -5.008 0.499 2.768
v -5.007 0.499 2.276
v -1.175 0.499 2.276
v 0.000 0.499 2.276
v -0.000 0.930 2.276
v -0.000 0.930 2.276
v -1.176 0.930 2.276
v -1.175 0.499 2.276
v -1.176 0.930 2.276
v -2.380 0.930 2.276
v -2.380 0.499 2.276
v -2.380 0.499 2.276
v -1.175 0.499 2.276
v -1.176 0.930 2.276
v -2.380 0.499 2.276
v -3.639 0.930 2.276
v -3.640 0.499 2.276
v -3.639 0.930 2.276
v -2.380 0.499 2.276
v -2.380 0.930 2.276
v -3.639 0.930 2.276
v -4.934 0.930 2.276
v -4.932 0.499 2.276
v -4.932 0.499 2.276
v -3.640 0.499 2.276
v -3.639 0.930 2.276
v -4.934 0.930 2.276
v -6.251 0.930 2.276
v -6.251 0.499 2.276
v -6.251 0.499 2.276
v -4.932 0.499 2.276
v -4.934 0.930 2.276
v -5.037 0.930 2.768
v -6.251 0.930 2.768
v -6.251 0.930 2.276
v -6.251 0.930 2.276
v -5.036 0.930 2.276
v -5.037 0.930 2.768
v -5.037 0.930 2.768
v -3.819 0.930 2.276
v -3.818 0.930 2.768
v -3.819 0.930 2.276
v -5.037 0.930 2.768
v -5.036 0.930 2.276
v -3.819 0.930 2.276
v -2.572 0.930 2.276
v -2.574 0.930 2.768
v -2.574 0.930 2.768
v -3.818 0.930 2.768
v -3.819 0.930 2.276
v -2.572 0.930 2.276
v -1.295 0.930 2.276
v -1.295 0.930 2.768
v -1.295 0.930 2.768
v -2.574 0.930 2.768
v -2.572 0.930 2.276
v -1.295 0.930 2.768
v -0.000 0.930 2.276
v -0.000 0.930 2.768
v -0.000 0.930 2.276
v -1.295 0.930 2.768
v -1.295 0.930 2.276
v -0.000 0.499 2.768
v -0.994 -1.554 2.768
v -0.000 -1.550 2.768
v -2.182 -0.251 2.768
v -0.000 0.499 2.768
v -2.189 0.499 2.768
v -0.994 -1.554 2.768
v -0.000 0.499 2.768
v -2.182 -0.251 2.768
v -0.994 -1.554 2.768
v -3.313 -1.587 2.768
v -2.120 -2.676 2.768
v -3.313 -1.587 2.768
v -0.994 -1.554 2.768
v -2.182 -0.251 2.768
v 0.000 -3.648 2.768
v -2.120 -2.676 2.768
v -2.099 -3.648 2.768
v -0.994 -1.554 2.768
v 0.000 -3.648 2.768
v -0.000 -1.550 2.768
v -2.120 -2.676 2.768
v 0.000 -3.648 2.768
v -0.994 -1.554 2.768
v -4.289 -1.545 2.768
v -4.188 -1.631 2.768
v -3.313 -1.587 2.768
v -4.426 0.499 2.768
v -2.182 -0.251 2.768
v -2.189 0.499 2.768
v -3.313 -1.587 2.768
v -4.426 0.499 2.768
v -4.289 -1.545 2.768
v -4.426 0.499 2.768
v -3.313 -1.587 2.768
v -2.182 -0.251 2.768
v -4.356 -3.648 2.768
v -3.313 -1.587 2.768
v -4.188 -1.631 2.768
v -2.120 -2.676 2.768
v -4.356 -3.648 2.768
v -2.099 -3.648 2.768
v -3.313 -1.587 2.768
v -4.356 -3.648 2.768
v -2.120 -2.676 2.768
v -6.251 -1.596 2.768
v -4.426 0.499 2.768
v -6.251 0.499 2.768
v -4.426 0.499 2.768
v -6.251 -1.596 2.768
v -4.289 -1.545 2.768
v -4.356 -3.648 2.768
v -4.289 -1.545 2.768
v -6.251 -1.596 2.768
v -6.251 -1.596 2.768
v -6.251 -3.648 2.768
v -4.356 -3.648 2.768
v -4.289 -1.545 2.768
v -4.356 -3.648 2.768
v -4.188 -1.631 2.768
v -1.677 2.676 1.100
v -2.036 2.709 2.768
v 0.000 2.523 2.768
v 0.000 2.523 2.768
v 0.000 2.523 1.100
v -1.677 2.676 1.100
v -1.677 2.676 1.100
v -1.677 2.676 0.700
v -2.136 2.718 1.428
v -2.036 2.709 2.768
v -1.677 2.676 1.100
v -2.136 2.718 1.428
v -1.677 2.676 0.000
v -2.136 2.718 1.428
v -1.677 2.676 0.700
v -2.136 2.718 1.428
v -1.677 2.676 0.000
v -4.416 2.926 0.000
v -4.416 2.926 0.000
v -4.416 2.926 0.788
v -4.118 2.899 1.299
v -2.136 2.718 1.428
v -4.416 2.926 0.000
v -4.118 2.899 1.299
v -4.118 2.899 1.299
v -4.416 2.926 0.788
v -4.416 2.926 1.100
v -4.416 2.926 1.100
v -6.251 3.093 1.100
v -6.251 3.093 2.768
v -4.416 2.926 1.100
v -4.235 2.909 2.768
v -4.118 2.899 1.299
v -4.235 2.909 2.768
v -4.416 2.926 1.100
v -6.251 3.093 2.768
v -2.136 2.718 1.428
v -4.118 2.899 1.299
v -4.235 2.909 2.768
v -4.235 2.909 2.768
v -2.036 2.709 2.768
v -2.136 2.718 1.428
v 6.102 0.930 2.276
v 6.102 1.903 0.050
v 6.102 1.903 2.736
v 6.102 1.903 2.736
v 6.102 0.930 2.736
v 6.102 0.930 2.276
v 6.102 0.499 2.276
v 6.102 0.499 2.736
v 6.102 0.038 2.736
v 6.102 1.903 0.050
v 6.102 0.930 2.276
v 6.102 0.275 0.050
v 6.102 0.499 2.276
v 6.102 0.038 2.736
v 6.102 0.275 0.050
v 6.102 0.275 0.050
v 6.102 0.930 2.276
v 6.102 0.499 2.276
v 6.102 -3.483 2.276
v 6.102 -1.887 0.940
v 6.102 -0.880 2.736
v 6.102 -0.880 2.736
v 6.102 -3.483 2.736
v 6.102 -3.483 2.276
v 6.102 -3.483 2.276
v 6.102 -3.603 2.276
v 6.102 -3.601 2.071
v 6.102 -1.887 0.940
v 6.102 -3.483 2.276
v 6.102 -3.601 2.071
v 6.102 0.275 0.050
v 6.102 -0.880 2.736
v 6.102 -1.887 0.940
v 6.102 -1.887 0.940
v 6.102 -1.740 0.050
v 6.102 0.275 0.050
v 6.102 -0.880 2.736
v 6.102 0.275 0.050
v 6.102 0.038 2.736
v 6.102 -1.887 0.940
v 6.102 -3.601 2.071
v 6.102 -4.161 1.237
v 6.102 -1.887 0.940
v 6.102 -4.108 0.050
v 6.102 -1.740 0.050
v 6.102 -4.108 0.050
v 6.102 -1.887 0.940
v 6.102 -4.161 1.237
v 6.102 -3.906 2.276
v 6.102 -3.601 2.071
v 6.102 -3.603 2.276
v 6.102 -3.906 2.276
v 6.102 -3.906 2.736
v 6.102 -6.160 2.736
v 6.102 -3.906 2.276
v 6.102 -6.160 1.608
v 6.102 -4.161 1.237
v 6.102 -3.601 2.071
v 6.102 -3.906 2.276
v 6.102 -4.161 1.237
v 6.102 -6.160 1.608
v 6.102 -3.906 2.276
v 6.102 -6.160 2.736
v 6.102 -4.161 1.237
v 6.102 -6.160 1.608
v 6.102 -6.160 0.050
v 6.102 -6.160 0.050
v 6.102 -4.108 0.050
v 6.102 -4.161 1.237
v 2.234 -6.160 2.736
v 0.571 -6.160 2.736
v 0.571 -6.160 0.050
v 0.571 -6.160 0.050
v 2.283 -6.160 0.050
v 2.234 -6.160 2.736
v 4.188 -6.160 1.412
v 6.102 -6.160 1.346
v 6.102 -6.160 2.736
v 6.102 -6.160 2.736
v 3.734 -6.160 2.736
v 4.188 -6.160 1.412
v 4.188 -6.160 1.412
v 3.663 -6.160 0.050
v 6.102 -6.160 0.050
v 6.102 -6.160 0.050
v 6.102 -6.160 1.346
v 4.188 -6.160 1.412
v 4.188 -6.160 1.412
v 3.734 -6.160 2.736
v 2.234 -6.160 2.736
v 4.188 -6.160 1.412
v 2.283 -6.160 0.050
v 3.663 -6.160 0.050
v 2.283 -6.160 0.050
v 4.188 -6.160 1.412
v 2.234 -6.160 2.736
v -4.416 2.926 1.100
v -4.510 1.985 1.100
v -6.251 2.156 1.100
v -6.251 2.156 1.100
v -6.251 3.094 1.100
v -4.416 2.926 1.100
v -4.510 1.985 1.100
v -4.416 2.926 0.000
v -4.510 1.985 -0.000
v -4.416 2.926 0.000
v -4.510 1.985 1.100
v -4.416 2.926 1.100
v -6.251 2.156 1.100
v -4.510 1.985 1.100
v -4.510 1.985 -0.000
v -4.510 1.985 -0.000
v -6.251 2.156 -0.000
v -6.251 2.156 1.100
v -4.522 -3.053 0.000
v -6.251 -3.053 1.100
v -6.251 -3.053 -0.000
v -6.251 -3.053 1.100
v -4.522 -3.053 0.000
v -4.522 -3.053 1.100
v -5.379 -3.053 1.100
v -4.522 -3.053 1.100
v -4.522 -3.648 1.100
v -4.522 -3.648 1.100
v -5.381 -3.648 1.100
v -5.379 -3.053 1.100
v -5.381 -3.648 1.100
v -6.251 -3.648 1.100
v -6.251 -3.053 1.100
v -6.251 -3.053 1.100
v -5.379 -3.053 1.100
v -5.381 -3.648 1.100
v -4.522 -3.648 1.100
v -4.522 -3.053 0.000
v -4.522 -3.648 -0.000
v -4.522 -3.053 0.000
v -4.522 -3.648 1.100
v -4.522 -3.053 1.100
v 0.000 2.523 1.100
v -0.000 1.598 1.100
v -1.741 1.715 1.100
v -1.741 1.715 1.100
v -1.677 2.676 1.100
v 0.000 2.523 1.100
v -1.741 1.715 0.000
v 0.000 1.598 1.100
v 0.000 1.598 0.000
v 0.000 1.598 1.100
v -1.741 1.715 0.000
v -1.741 1.715 1.100
v -1.741 1.715 0.000
v -1.677 2.676 1.100
v -1.741 1.715 1.100
v -1.677 2.676 1.100
v -1.741 1.715 0.000
v -1.677 2.676 -0.000
v -5.442 1.479 1.000
v -5.442 1.479 0.000
v -5.442 -0.091 0.000
v -5.442 -0.091 0.000
v -5.442 -0.091 1.000
v -5.442 1.479 1.000
v -3.509 2.562 0.000
v -2.509 2.562 1.000
v -2.509 2.562 0.000
v -2.509 2.562 1.000
v -3.509 2.562 0.000
v -3.509 2.562 1.000
v -1.784 1.729 0.000
v -2.390 2.524 1.000
v -1.784 1.729 1.000
v -2.390 2.524 1.000
v -1.784 1.729 0.000
v -2.390 2.524 -0.000
v -5.318 1.607 -0.000
v -4.389 1.977 1.000
v -4.389 1.977 -0.000
v -4.389 1.977 1.000
v -5.318 1.607 -0.000
v -5.318 1.607 1.000
v -2.803 -3.648 0.000
v -2.803 -2.798 1.100
v -2.803 -3.648 1.100
v -2.803 -2.798 1.100
v -2.803 -3.648 0.000
v -2.803 -2.798 0.000
v -0.913 -2.798 0.000
v -2.803 -2.798 1.100
v -2.803 -2.798 -0.000
v -2.803 -2.798 1.100
v -0.913 -2.798 0.000
v -0.913 -2.798 1.100
v -0.913 -2.798 1.100
v -0.913 -1.983 1.100
v 0.000 -1.983 1.100
v -0.913 -2.798 1.100
v -0.000 -3.648 1.100
v -1.140 -3.648 1.100
v -1.140 -3.648 1.100
v -1.348 -2.798 1.100
v -0.913 -2.798 1.100
v -0.000 -3.648 1.100
v -0.913 -2.798 1.100
v 0.000 -1.983 1.100
v -1.348 -2.798 1.100
v -2.803 -3.648 1.100
v -2.803 -2.798 1.100
v -2.803 -3.648 1.100
v -1.348 -2.798 1.100
v -1.140 -3.648 1.100
v -0.913 -2.798 0.000
v -0.913 -1.983 1.100
v -0.913 -2.798 1.100
v -0.913 -1.983 1.100
v -0.913 -2.798 0.000
v -0.913 -1.983 -0.000
v 0.000 -1.983 -0.000
v -0.913 -1.983 1.100
v -0.913 -1.983 -0.000
v -0.913 -1.983 1.100
v 0.000 -1.983 -0.000
v 0.000 -1.983 1.100
v -2.803 -2.798 0.000
v -3.926 -1.283 0.000
v -2.586 -1.610 0.000
v -2.586 -1.610 0.000
v -2.085 -2.798 0.000
v -2.803 -2.798 0.000
v -4.522 -3.053 0.000
v -2.803 -3.648 0.000
v -4.522 -3.648 0.000
v -4.522 -3.053 0.000
v -4.576 -3.053 0.000
v -4.269 -1.538 0.000
v -3.926 -1.283 0.000
v -2.803 -2.798 0.000
v -4.269 -1.538 0.000
v -2.803 -3.648 0.000
v -4.522 -3.053 0.000
v -2.803 -2.798 0.000
v -4.522 -3.053 0.000
v -4.269 -1.538 0.000
v -2.803 -2.798 0.000
v -3.926 -1.283 0.000
v -4.036 0.410 0.000
v -3.127 0.794 0.000
v -3.127 0.794 0.000
v -2.086 0.473 0.000
v -1.730 -0.447 0.000
v -3.127 0.794 0.000
v -2.586 -1.610 0.000
v -3.926 -1.283 0.000
v -2.586 -1.610 0.000
v -3.127 0.794 0.000
v -1.730 -0.447 0.000
v 0.000 -0.012 0.000
v -2.086 0.473 0.000
v -1.084 1.671 0.000
v -1.084 1.671 0.000
v 0.000 1.598 0.000
v 0.000 -0.012 0.000
v 0.000 -0.012 0.000
v 0.000 -0.811 0.000
v -1.730 -0.447 0.000
v -2.086 0.473 0.000
v 0.000 -0.012 0.000
v -1.730 -0.447 0.000
v -0.913 -1.983 0.000
v -1.730 -0.447 0.000
v 0.000 -0.811 0.000
v 0.000 -0.811 0.000
v 0.000 -1.983 0.000
v -0.913 -1.983 0.000
v -0.913 -1.983 0.000
v -0.913 -2.798 0.000
v -2.085 -2.798 0.000
v -0.913 -1.983 0.000
v -2.586 -1.610 0.000
v -1.730 -0.447 0.000
v -2.586 -1.610 0.000
v -0.913 -1.983 0.000
v -2.085 -2.798 0.000
v -4.269 -1.538 0.000
v -4.576 -3.053 0.000
v -6.251 -3.053 0.000
v -6.251 -3.053 0.000
v -6.251 -1.084 0.000
v -4.269 -1.538 0.000
v -4.269 -1.538 0.000
v -6.251 0.011 0.000
v -4.346 0.568 0.000
v -4.346 0.568 0.000
v -4.036 0.410 0.000
v -3.926 -1.283 0.000
v -6.251 0.011 0.000
v -4.269 -1.538 0.000
v -6.251 -1.084 0.000
v -4.269 -1.538 0.000
v -4.346 0.568 0.000
v -3.926 -1.283 0.000
v -1.741 1.715 0.000
v -3.127 0.794 0.000
v -3.053 2.802 0.000
v -3.053 2.802 0.000
v -1.677 2.676 0.000
v -1.741 1.715 0.000
v -1.741 1.715 0.000
v -1.084 1.671 0.000
v -2.086 0.473 0.000
v -3.127 0.794 0.000
v -1.741 1.715 0.000
v -2.086 0.473 0.000
v -4.885 2.022 0.000
v -6.251 0.011 0.000
v -6.251 2.156 0.000
v -6.251 0.011 0.000
v -4.885 2.022 0.000
v -4.346 0.568 0.000
v -3.127 0.794 0.000
v -4.036 0.410 0.000
v -4.346 0.568 0.000
v -4.346 0.568 0.000
v -4.885 2.022 0.000
v -4.510 1.985 0.000
v -4.510 1.985 0.000
v -4.416 2.926 0.000
v -3.053 2.802 0.000
v -4.510 1.985 0.000
v -3.127 0.794 0.000
v -4.346 0.568 0.000
v -3.127 0.794 0.000
v -4.510 1.985 0.000
v -3.053 2.802 0.000
v -4.422 2.059 0.000
v -3.556 2.559 1.000
v -3.556 2.559 0.000
v -3.556 2.559 1.000
v -4.422 2.059 0.000
v -4.422 2.059 1.000
v 0.571 -1.488 1.105
v 0.571 -1.488 2.193
v 0.000 -1.488 2.193
v 0.000 -1.488 2.193
v 0.000 -1.488 1.104
v 0.571 -1.488 1.105
v 0.000 -1.488 1.104
v 0.000 -1.488 -0.000
v 0.571 -1.488 0.050
v 0.571 -1.488 0.050
v 0.571 -1.488 1.105
v 0.000 -1.488 1.104
v 0.571 -0.012 2.195
v 0.676 -1.485 0.050
v 0.676 -1.485 2.195
v 0.676 -1.485 0.050
v 0.571 -0.012 2.195
v 0.571 -0.012 0.050
v 0.000 1.598 1.100
v 0.000 0.688 2.276
v 0.000 -0.012 1.063
v 0.000 -0.012 1.063
v 0.000 -0.012 0.000
v 0.000 1.598 0.000
v 0.000 1.598 1.100
v 0.000 2.523 1.100
v 0.000 2.523 2.768
v 0.000 0.930 2.276
v 0.000 0.971 2.768
v 0.000 0.930 2.696
v 0.000 1.598 1.100
v 0.000 -0.012 1.063
v 0.000 1.598 0.000
v 0.000 0.971 2.768
v 0.000 0.930 2.276
v 0.000 2.523 2.768
v 0.000 0.688 2.276
v 0.000 1.598 1.100
v 0.000 0.930 2.276
v 0.000 2.523 2.768
v 0.000 0.930 2.276
v 0.000 1.598 1.100
v 0.000 0.499 2.276
v 0.000 -0.012 1.063
v 0.000 0.688 2.276
v 0.000 -0.012 2.195
v 0.000 0.499 2.768
v 0.000 -1.609 2.768
v 0.000 -1.609 2.768
v 0.000 -1.450 2.193
v 0.000 -0.012 2.195
v 0.000 -0.012 1.063
v 0.000 0.499 2.276
v 0.000 -0.012 2.195
v 0.000 0.499 2.768
v 0.000 -0.012 2.195
v 0.000 0.499 2.276
v 0.000 0.971 2.768
v 0.000 0.930 2.768
v 0.000 0.930 2.696
v 0.000 -1.983 1.100
v 0.000 -3.648 2.768
v 0.000 -3.648 1.100
v 0.000 -1.983 1.100
v 0.000 -1.983 0.000
v 0.000 -1.488 0.000
v 0.000 -1.488 2.193
v 0.000 -1.450 2.193
v 0.000 -1.609 2.768
v 0.000 -1.488 2.193
v 0.000 -3.648 2.768
v 0.000 -1.983 1.100
v 0.000 -1.983 1.100
v 0.000 -1.488 0.000
v 0.000 -1.488 2.193
v 0.000 -3.648 2.768
v 0.000 -1.488 2.193
v 0.000 -1.609 2.768
v 4.163 2.081 1.336
v 4.720 2.030 2.736
v 6.102 1.903 2.736
v 4.163 2.081 1.336
v 6.102 1.903 0.050
v 4.620 2.039 0.050
v 6.102 1.903 0.050
v 4.163 2.081 1.336
v 6.102 1.903 2.736
v 1.972 2.282 0.050
v 4.163 2.081 1.336
v 4.620 2.039 0.050
v 4.163 2.081 1.336
v 1.972 2.282 0.050
v 2.524 2.232 1.454
v 2.524 2.232 1.454
v 1.972 2.282 0.050
v 0.571 2.411 0.050
v 2.524 2.232 1.454
v 0.571 2.411 2.736
v 2.067 2.274 2.736
v 0.571 2.411 2.736
v 2.524 2.232 1.454
v 0.571 2.411 0.050
v 4.720 2.030 2.736
v 2.524 2.232 1.454
v 2.067 2.274 2.736
v 2.524 2.232 1.454
v 4.720 2.030 2.736
v 4.163 2.081 1.336
v 4.389 -4.257 0.050
v 6.102 -4.222 0.050
v 6.102 -6.160 0.050
v 6.102 -6.160 0.050
v 4.096 -6.160 0.050
v 4.389 -4.257 0.050
v 4.389 -4.257 0.050
v 2.603 -6.160 0.050
v 2.298 -4.256 0.050
v 4.389 -4.257 0.050
v 2.737 -3.777 0.050
v 3.919 -3.758 0.050
v 2.603 -6.160 0.050
v 4.389 -4.257 0.050
v 4.096 -6.160 0.050
v 2.737 -3.777 0.050
v 4.389 -4.257 0.050
v 2.298 -4.256 0.050
v 4.389 -4.257 0.050
v 3.919 -3.758 0.050
v 4.477 -2.229 0.050
v 4.477 -2.229 0.050
v 6.102 -2.237 0.050
v 6.102 -4.222 0.050
v 6.102 -4.222 0.050
v 4.389 -4.257 0.050
v 4.477 -2.229 0.050
v 4.477 -2.229 0.050
v 2.737 -3.777 0.050
v 2.130 -2.173 0.050
v 4.477 -2.229 0.050
v 2.617 -1.563 0.050
v 3.948 -1.529 0.050
v 2.737 -3.777 0.050
v 4.477 -2.229 0.050
v 3.919 -3.758 0.050
v 2.617 -1.563 0.050
v 4.477 -2.229 0.050
v 2.130 -2.173 0.050
v 4.477 -2.229 0.050
v 3.948 -1.529 0.050
v 4.464 -0.144 0.050
v 4.477 -2.229 0.050
v 6.102 -0.173 0.050
v 6.102 -2.237 0.050
v 6.102 -0.173 0.050
v 4.477 -2.229 0.050
v 4.464 -0.144 0.050
v 2.298 -4.256 0.050
v 2.603 -6.160 0.050
v 0.571 -6.160 0.050
v 0.571 -6.160 0.050
v 0.571 -4.246 0.050
v 2.298 -4.256 0.050
v 2.467 0.456 0.050
v 2.617 -1.563 0.050
v 2.069 0.032 0.050
v 2.617 -1.563 0.050
v 2.467 0.456 0.050
v 4.090 0.375 0.050
v 4.090 0.375 0.050
v 4.464 -0.144 0.050
v 3.948 -1.529 0.050
v 2.617 -1.563 0.050
v 4.090 0.375 0.050
v 3.948 -1.529 0.050
v 6.102 1.903 0.050
v 4.090 0.375 0.050
v 4.488 2.051 0.050
v 4.090 0.375 0.050
v 6.102 1.903 0.050
v 6.102 -0.173 0.050
v 4.090 0.375 0.050
v 6.102 -0.173 0.050
v 4.464 -0.144 0.050
v 0.571 -1.488 0.050
v 2.617 -1.563 0.050
v 2.130 -2.173 0.050
v 2.130 -2.173 0.050
v 0.571 -2.220 0.050
v 0.571 -1.488 0.050
v 0.571 -0.012 0.050
v 0.571 0.037 0.050
v 2.069 0.032 0.050
v 2.617 -1.563 0.050
v 0.571 -1.488 0.050
v 2.069 0.032 0.050
v 0.571 -1.488 0.050
v 0.571 -0.012 0.050
v 2.069 0.032 0.050
v 2.130 -2.173 0.050
v 2.737 -3.777 0.050
v 2.298 -4.256 0.050
v 2.130 -2.173 0.050
v 0.571 -4.246 0.050
v 0.571 -2.220 0.050
v 0.571 -4.246 0.050
v 2.130 -2.173 0.050
v 2.298 -4.256 0.050
v 4.090 0.375 0.050
v 2.467 0.456 0.050
v 2.332 2.249 0.050
v 2.332 2.249 0.050
v 4.488 2.051 0.050
v 4.090 0.375 0.050
v 2.467 0.456 0.050
v 2.069 0.032 0.050
v 0.571 0.037 0.050
v 2.467 0.456 0.050
v 0.571 2.411 0.050
v 2.332 2.249 0.050
v 0.571 2.411 0.050
v 2.467 0.456 0.050
v 0.571 0.037 0.050
v 0.000 -0.012 0.000
v 0.571 -1.488 0.050
v 0.000 -1.488 -0.000
v 0.571 -1.488 0.050
v 0.000 -0.012 0.000
v 0.571 -0.012 0.050
v 0.571 -1.488 2.193
v 0.571 0.499 2.736
v 0.571 -0.012 2.195
v 0.571 -1.488 2.193
v 0.571 -1.488 0.891
v 0.571 -2.985 2.736
v 0.571 0.499 2.736
v 0.571 -1.488 2.193
v 0.571 -2.985 2.736
v 0.571 -4.024 1.337
v 0.571 -3.613 2.276
v 0.571 -3.483 2.276
v 0.571 -2.985 2.736
v 0.571 -3.483 2.573
v 0.571 -3.411 2.736
v 0.571 -3.483 2.276
v 0.571 -2.985 2.736
v 0.571 -1.488 0.891
v 0.571 -1.488 0.891
v 0.571 -1.488 0.050
v 0.571 -3.780 0.050
v 0.571 -1.488 0.891
v 0.571 -4.024 1.337
v 0.571 -3.483 2.276
v 0.571 -3.483 2.573
v 0.571 -2.985 2.736
v 0.571 -3.483 2.276
v 0.571 -4.024 1.337
v 0.571 -1.488 0.891
v 0.571 -3.780 0.050
v 0.571 -3.483 2.573
v 0.571 -3.483 2.736
v 0.571 -3.411 2.736
v 0.571 -3.906 2.276
v 0.571 -6.160 1.446
v 0.571 -6.160 2.736
v 0.571 -6.160 2.736
v 0.571 -3.906 2.736
v 0.571 -3.906 2.276
v 0.571 -3.906 2.276
v 0.571 -3.613 2.276
v 0.571 -4.024 1.337
v 0.571 -6.160 1.446
v 0.571 -3.906 2.276
v 0.571 -4.024 1.337
v 0.571 -4.024 1.337
v 0.571 -3.780 0.050
v 0.571 -6.160 0.050
v 0.571 -6.160 0.050
v 0.571 -6.160 1.446
v 0.571 -4.024 1.337
v 0.571 2.369 2.736
v 0.571 2.411 2.736
v 0.571 2.411 0.050
v 0.571 2.411 0.050
v 0.571 0.268 0.050
v 0.571 2.369 2.736
v 0.571 0.268 0.050
v 0.571 -0.012 0.050
v 0.571 -0.012 2.195
v 0.571 -0.012 2.195
v 0.571 0.499 2.736
v 0.571 0.499 2.276
v 0.571 0.930 2.276
v 0.571 0.930 2.736
v 0.571 2.369 2.736
v 0.571 0.268 0.050
v 0.571 -0.012 2.195
v 0.571 0.499 2.276
v 0.571 0.930 2.276
v 0.571 2.369 2.736
v 0.571 0.268 0.050
v 0.571 0.268 0.050
v 0.571 0.499 2.276
v 0.571 0.930 2.276
v -0.000 -0.012 1.108
v 0.571 -0.012 0.050
v -0.000 -0.012 0.000
v 0.571 -0.012 0.050
v -0.000 -0.012 1.108
v 0.571 -0.012 1.108
v -0.000 -0.012 1.108
v -0.000 -0.012 2.195
v 0.571 -0.012 2.195
v 0.571 -0.012 2.195
v 0.571 -0.012 1.108
v -0.000 -0.012 1.108
v 0.676 -1.485 2.195
v 0.676 -1.485 0.050
v 0.571 -0.012 0.050
v 0.571 -0.012 0.050
v 0.571 -0.012 2.195
v 0.676 -1.485 2.195
v -5.442 -0.091 0.000
v -5.442 1.479 0.000
v -5.442 1.479 1.000
v -5.442 1.479 1.000
v -5.442 -0.091 1.000
v -5.442 -0.091 0.000
v -2.509 2.562 0.000
v -2.509 2.562 1.000
v -3.509 2.562 1.000
v -3.509 2.562 1.000
v -3.509 2.562 0.000
v -2.509 2.562 0.000
v -1.784 1.729 1.000
v -2.390 2.524 1.000
v -2.390 2.524 0.000
v -2.390 2.524 0.000
v -1.784 1.729 0.000
v -1.784 1.729 1.000
v -5.318 1.607 1.000
v -4.389 1.977 0.000
v -4.389 1.977 1.000
v -4.389 1.977 0.000
v -5.318 1.607 1.000
v -5.318 1.607 0.000
v -4.422 2.059 1.000
v -3.556 2.559 0.000
v -3.556 2.559 1.000
v -3.556 2.559 0.000
v -4.422 2.059 1.000
v -4.422 2.059 0.000

usemtl Patch_1_Mat_CR1_paintedConcrete
f 3 2 1
f 6 5 4

usemtl Patch_2_Mat_CR1_paintedConcrete
f 9 8 7
f 12 11 10

usemtl Patch_3_Mat_CR1_paintedConcrete
f 15 14 13
f 18 17 16

usemtl Patch_4_Mat_CR1_paintedConcrete
f 21 20 19
f 24 23 22

usemtl Patch_5_Mat_CR1_paintedConcrete
f 27 26 25
f 30 29 28

usemtl Patch_6_Mat_CR1_paintedConcrete
f 33 32 31
f 36 35 34

usemtl Patch_7_Mat_CR1_paintedConcrete
f 39 38 37
f 42 41 40

usemtl Patch_8_Mat_CR1_paintedConcrete
f 45 44 43
f 48 47 46

usemtl Patch_9_Mat_CR1_paintedConcrete
f 51 50 49
f 54 53 52

usemtl Patch_10_Mat_CR1_paintedConcrete
f 57 56 55
f 60 59 58

usemtl Patch_11_Mat_CR1_paintedConcrete
f 63 62 61
f 66 65 64

usemtl Patch_12_Mat_CR1_paintedConcrete
f 69 68 67
f 72 71 70

usemtl Patch_13_Mat_CR1_paintedConcrete
f 75 74 73
f 78 77 76

usemtl Patch_14_Mat_CR1_paintedConcrete
f 81 80 79
f 84 83 82

usemtl Patch_15_Mat_CR1_paintedConcrete
f 87 86 85
f 90 89 88

usemtl Patch_16_Mat_CR1_paintedConcrete
f 93 92 91
f 96 95 94

usemtl Patch_17_Mat_CR1_paintedConcrete
f 99 98 97
f 102 101 100

usemtl Patch_18_Mat_CR1_paintedConcrete
f 105 104 103
f 108 107 106

usemtl Patch_19_Mat_CR1_paintedConcrete
f 111 110 109
f 114 113 112

usemtl Patch_20_Mat_CR1_paintedConcrete
f 117 116 115
f 120 119 118

usemtl Patch_21_Mat_CR1_paintedConcrete
f 123 122 121
f 126 125 124

usemtl Patch_22_Mat_CR1_paintedConcrete
f 129 128 127
f 132 131 130

usemtl Patch_23_Mat_CR1_paintedConcrete
f 135 134 133
f 138 137 136

usemtl Patch_24_Mat_CR1_paintedConcrete
f 141 140 139
f 144 143 142

usemtl Patch_25_Mat_CR1_paintedConcrete
f 147 146 145
f 150 149 148

usemtl Patch_26_Mat_CR1_paintedConcrete
f 153 152 151
f 156 155 154

usemtl Patch_27_Mat_CR1_paintedConcrete
f 159 158 157
f 162 161 160

usemtl Patch_28_Mat_CR1_paintedConcrete
f 165 164 163
f 168 167 166

usemtl Patch_29_Mat_CR1_paintedConcrete
f 171 170 169
f 174 173 172

usemtl Patch_30_Mat_CR1_paintedConcrete
f 177 176 175
f 180 179 178

usemtl Patch_31_Mat_CR1_paintedConcrete
f 183 182 181
f 186 185 184

usemtl Patch_32_Mat_CR1_paintedConcrete
f 189 188 187
f 192 191 190

usemtl Patch_33_Mat_CR1_paintedConcrete
f 195 194 193
f 198 197 196
f 201 200 199

usemtl Patch_34_Mat_CR1_paintedConcrete
f 204 203 202
f 207 206 205
f 210 209 208

usemtl Patch_35_Mat_CR1_paintedConcrete
f 213 212 211
f 216 215 214

usemtl Patch_36_Mat_CR1_paintedConcrete
f 219 218 217
f 222 221 220
f 225 224 223

usemtl Patch_37_Mat_CR1_paintedConcrete
f 228 227 226
f 231 230 229

usemtl Patch_38_Mat_CR1_paintedConcrete
f 234 233 232
f 237 236 235
f 240 239 238

usemtl Patch_39_Mat_CR1_paintedConcrete
f 243 242 241
f 246 245 244
f 249 248 247

usemtl Patch_40_Mat_CR1_paintedConcrete
f 252 251 250
f 255 254 253
f 258 257 256
f 261 260 259
f 264 263 262

usemtl Patch_41_Mat_CR1_paintedConcrete
f 267 266 265
f 270 269 268

usemtl Patch_42_Mat_CR1_paintedConcrete
f 273 272 271
f 276 275 274
f 279 278 277

usemtl Patch_43_Mat_CR1_concrete
f 282 281 280
f 285 284 283

usemtl Patch_44_Mat_CR1_concrete
f 288 287 286
f 291 290 289

usemtl Patch_45_Mat_CR1_concrete
f 294 293 292
f 297 296 295

usemtl Patch_46_Mat_CR1_concrete
f 300 299 298
f 303 302 301
f 306 305 304
f 309 308 307
f 312 311 310
f 315 314 313

usemtl Patch_47_Mat_CR1_concrete
f 318 317 316
f 321 320 319
f 324 323 322

usemtl Patch_48_Mat_CR1_concrete
f 327 326 325
f 330 329 328
f 333 332 331
f 336 335 334
f 339 338 337

usemtl Patch_49_Mat_CR1_concrete
f 342 341 340
f 345 344 343
f 348 347 346

usemtl Patch_50_Mat_CR1_concrete
f 351 350 349
f 354 353 352
f 357 356 355
f 360 359 358

usemtl Patch_51_Mat_CR1_concrete
f 363 362 361
f 366 365 364

usemtl Patch_52_Mat_CR1_concrete
f 369 368 367
f 372 371 370

usemtl Patch_53_Mat_CR1_concrete
f 375 374 373
f 378 377 376

usemtl Patch_54_Mat_CR1_concrete
f 381 380 379
f 384 383 382

usemtl Patch_55_Mat_CR1_concrete
f 387 386 385
f 390 389 388

usemtl Patch_56_Mat_CR1_concrete
f 393 392 391
f 396 395 394

usemtl Patch_57_Mat_CR1_concrete
f 399 398 397
f 402 401 400

usemtl Patch_58_Mat_CR1_concrete
f 405 404 403
f 408 407 406

usemtl Patch_59_Mat_CR1_concrete
f 411 410 409
f 414 413 412

usemtl Patch_60_Mat_CR1_concrete
f 417 416 415
f 420 419 418

usemtl Patch_61_Mat_CR1_concrete
f 423 422 421
f 426 425 424

usemtl Patch_62_Mat_CR1_concrete
f 429 428 427
f 432 431 430

usemtl Patch_63_Mat_CR1_concrete
f 435 434 433
f 438 437 436

usemtl Patch_64_Mat_CR1_concrete
f 441 440 439
f 444 443 442

usemtl Patch_65_Mat_CR1_concrete
f 447 446 445
f 450 449 448

usemtl Patch_66_Mat_CR1_concrete
f 453 452 451
f 456 455 454
f 459 458 457

usemtl Patch_67_Mat_CR1_concrete
f 462 461 460
f 465 464 463

usemtl Patch_68_Mat_CR1_concrete
f 468 467 466
f 471 470 469
f 474 473 472

usemtl Patch_69_Mat_CR1_concrete
f 477 476 475
f 480 479 478
f 483 482 481
f 486 485 484

usemtl Patch_70_Mat_CR1_concrete
f 489 488 487
f 492 491 490
f 495 494 493

usemtl Patch_71_Mat_CR1_concrete
f 498 497 496
f 501 500 499

usemtl Patch_72_Mat_CR1_concrete
f 504 503 502
f 507 506 505
f 510 509 508

usemtl Patch_73_Mat_CR1_concrete
f 513 512 511
f 516 515 514
f 519 518 517
f 522 521 520

usemtl Patch_74_Mat_CR1_concrete
f 525 524 523
f 528 527 526
f 531 530 529
f 534 533 532

usemtl Patch_75_Mat_CR1_concrete
f 537 536 535
f 540 539 538
f 543 542 541
f 546 545 544

usemtl Patch_76_Mat_CR1_concrete
f 549 548 547
f 552 551 550

usemtl Patch_77_Mat_CR1_paintedConcrete
f 555 554 553
f 558 557 556
f 561 560 559
f 564 563 562
f 567 566 565
f 570 569 568

usemtl Patch_78_Mat_CR1_paintedConcrete
f 573 572 571
f 576 575 574
f 579 578 577
f 582 581 580

usemtl Patch_79_Mat_CR1_paintedConcrete
f 585 584 583
f 588 587 586
f 591 590 589

usemtl Patch_80_Mat_CR1_paintedConcrete
f 594 593 592
f 597 596 595
f 600 599 598

usemtl Patch_81_Mat_CR1_paintedConcrete
f 603 602 601
f 606 605 604
f 609 608 607
f 612 611 610
f 615 614 613

usemtl Patch_82_Mat_CR1_paintedConcrete
f 618 617 616
f 621 620 619

usemtl Patch_83_Mat_CR1_paintedConcrete
f 624 623 622
f 627 626 625

usemtl Patch_84_Mat_CR1_paintedConcrete
f 630 629 628
f 633 632 631

usemtl Patch_85_Mat_CR1_paintedConcrete
f 636 635 634
f 639 638 637

usemtl Patch_86_Mat_CR1_paintedConcrete
f 642 641 640
f 645 644 643
f 648 647 646

usemtl Patch_87_Mat_CR1_tablesEquipment
f 651 650 649
f 654 653 652

usemtl Patch_88_Mat_CR1_tablesEquipment
f 657 656 655
f 660 659 658

usemtl Patch_89_Mat_CR1_tablesEquipment
f 663 662 661
f 666 665 664

usemtl Patch_90_Mat_CR1_tablesEquipment
f 669 668 667
f 672 671 670

usemtl Patch_91_Mat_CR1_tablesEquipment
f 675 674 673
f 678 677 676

usemtl Patch_92_Mat_CR1_tablesEquipment
f 681 680 679
f 684 683 682

usemtl Patch_93_Mat_CR1_tablesEquipment
f 687 686 685
f 690 689 688

usemtl Patch_94_Mat_CR1_tablesEquipment
f 693 692 691
f 696 695 694

usemtl Patch_95_Mat_CR1_tablesEquipment
f 699 698 697
f 702 701 700

usemtl Patch_96_Mat_CR1_tablesEquipment
f 705 704 703
f 708 707 706

usemtl Patch_97_Mat_CR1_absorber
f 711 710 709
f 714 713 712

usemtl Patch_98_Mat_CR1_absorber
f 717 716 715
f 720 719 718

usemtl Patch_99_Mat_CR1_absorber
f 723 722 721
f 726 725 724

usemtl Patch_100_Mat_CR1_absorber
f 729 728 727
f 732 731 730

usemtl Patch_101_Mat_CR1_tablesEquipment
f 735 734 733
f 738 737 736

usemtl Patch_102_Mat_CR1_tablesEquipment
f 741 740 739
f 744 743 742

usemtl Patch_103_Mat_CR1_tablesEquipment
f 747 746 745
f 750 749 748
f 753 752 751
f 756 755 754

usemtl Patch_104_Mat_CR1_tablesEquipment
f 759 758 757
f 762 761 760

usemtl Patch_105_Mat_CR1_tablesEquipment
f 765 764 763
f 768 767 766

usemtl Patch_106_Mat_CR1_tablesEquipment
f 771 770 769
f 774 773 772

usemtl Patch_107_Mat_CR1_concrete
f 777 776 775
f 780 779 778
f 783 782 781
f 786 785 784
f 789 788 787
f 792 791 790
f 795 794 793

usemtl Patch_108_Mat_CR1_concrete
f 798 797 796
f 801 800 799
f 804 803 802
f 807 806 805

usemtl Patch_109_Mat_CR1_concrete
f 810 809 808
f 813 812 811
f 816 815 814
f 819 818 817

usemtl Patch_110_Mat_CR1_concrete
f 822 821 820
f 825 824 823
f 828 827 826
f 831 830 829
f 834 833 832

usemtl Patch_111_Mat_CR1_concrete
f 837 836 835
f 840 839 838

usemtl Patch_112_Mat_CR1_concrete
f 843 842 841
f 846 845 844
f 849 848 847
f 852 851 850

usemtl Patch_113_Mat_CR1_concrete
f 855 854 853
f 858 857 856
f 861 860 859
f 864 863 862

usemtl Patch_114_Mat_CR1_concrete
f 867 866 865
f 870 869 868

usemtl Patch_115_Mat_CR1_concrete
f 873 872 871
f 876 875 874
f 879 878 877
f 882 881 880
f 885 884 883

usemtl Patch_116_Mat_CR1_absorber
f 888 887 886
f 891 890 889

usemtl Patch_117_Mat_CR1_concrete
f 894 893 892
f 897 896 895

usemtl Patch_118_Mat_CR1_concrete
f 900 899 898
f 903 902 901

usemtl Patch_119_Mat_CR1_paintedConcrete
f 906 905 904
f 909 908 907

usemtl Patch_120_Mat_CR1_concrete
f 912 911 910
f 915 914 913
f 918 917 916
f 921 920 919
f 924 923 922
f 927 926 925
f 930 929 928
f 933 932 931

usemtl Patch_121_Mat_CR1_concrete
f 936 935 934
f 939 938 937
f 942 941 940
f 945 944 943
f 948 947 946
f 951 950 949

usemtl Patch_122_Mat_CR1_concrete
f 954 953 952
f 957 956 955
f 960 959 958
f 963 962 961
f 966 965 964
f 969 968 967

usemtl Patch_123_Mat_CR1_paintedConcrete
f 972 971 970
f 975 974 973
f 978 977 976

usemtl Patch_124_Mat_CR1_paintedConcrete
f 981 980 979
f 984 983 982

usemtl Patch_125_Mat_CR1_paintedConcrete
f 987 986 985
f 990 989 988
f 993 992 991

usemtl Patch_126_Mat_CR1_paintedConcrete
f 996 995 994
f 999 998 997

usemtl Patch_127_Mat_CR1_paintedConcrete
f 1002 1001 1000
f 1005 1004 1003

usemtl Patch_128_Mat_CR1_paintedConcrete
f 1008 1007 1006
f 1011 1010 1009
f 1014 1013 1012
f 1017 1016 1015

usemtl Patch_129_Mat_CR1_paintedConcrete
f 1020 1019 1018
f 1023 1022 1021
f 1026 1025 1024

usemtl Patch_130_Mat_CR1_paintedConcrete
f 1029 1028 1027
f 1032 1031 1030
f 1035 1034 1033
f 1038 1037 1036

usemtl Patch_131_Mat_CR1_paintedConcrete
f 1041 1040 1039
f 1044 1043 1042
f 1047 1046 1045

usemtl Patch_132_Mat_CR1_paintedConcrete
f 1050 1049 1048
f 1053 1052 1051

usemtl Patch_133_Mat_CR1_paintedConcrete
f 1056 1055 1054
f 1059 1058 1057
f 1062 1061 1060
f 1065 1064 1063

usemtl Patch_134_Mat_CR1_paintedConcrete
f 1068 1067 1066
f 1071 1070 1069
f 1074 1073 1072

usemtl Patch_135_Mat_CR1_paintedConcrete
f 1077 1076 1075
f 1080 1079 1078
f 1083 1082 1081
f 1086 1085 1084
f 1089 1088 1087

usemtl Patch_136_Mat_CR1_paintedConcrete
f 1092 1091 1090
f 1095 1094 1093
f 1098 1097 1096

usemtl Patch_137_Mat_CR1_paintedConcrete
f 1101 1100 1099
f 1104 1103 1102

usemtl Patch_138_Mat_CR1_paintedConcrete
f 1107 1106 1105
f 1110 1109 1108
f 1113 1112 1111

usemtl Patch_139_Mat_CR1_concrete
f 1116 1115 1114
f 1119 1118 1117

usemtl Patch_140_Mat_CR1_paintedConcrete
f 1122 1121 1120
f 1125 1124 1123
f 1128 1127 1126

usemtl Patch_141_Mat_CR1_paintedConcrete
f 1131 1130 1129
f 1134 1133 1132
f 1137 1136 1135
f 1140 1139 1138
f 1143 1142 1141
f 1146 1145 1144
f 1149 1148 1147

usemtl Patch_142_Mat_CR1_paintedConcrete
f 1152 1151 1150
f 1155 1154 1153
f 1158 1157 1156
f 1161 1160 1159
f 1164 1163 1162

usemtl Patch_143_Mat_CR1_paintedConcrete
f 1167 1166 1165
f 1170 1169 1168

usemtl Patch_144_Mat_CR1_paintedConcrete
f 1173 1172 1171
f 1176 1175 1174

usemtl Patch_145_Mat_CR1_paintedConcrete
f 1179 1178 1177
f 1182 1181 1180
f 1185 1184 1183
f 1188 1187 1186
f 1191 1190 1189
f 1194 1193 1192

usemtl Patch_146_Mat_CR1_concrete
f 1197 1196 1195
f 1200 1199 1198

usemtl Patch_147_Mat_CR1_concrete
f 1203 1202 1201
f 1206 1205 1204

usemtl Patch_148_Mat_CR1_tablesEquipment
f 1209 1208 1207
f 1212 1211 1210

usemtl Patch_149_Mat_CR1_absorber
f 1215 1214 1213
f 1218 1217 1216

usemtl Patch_150_Mat_CR1_absorber
f 1221 1220 1219
f 1224 1223 1222

usemtl Patch_151_Mat_CR1_absorber
f 1227 1226 1225
f 1230 1229 1228

usemtl Patch_152_Mat_CR1_absorber
f 1233 1232 1231
f 1236 1235 1234

usemtl Patch_153_Mat_CR1_absorber
f 1239 1238 1237
f 1242 1241 1240

