mtllib mesh.mtl

# obj1
v -2.8234923900 4.0823775600 0.5950000200
v -1.3034924300 4.0823775600 0.1500000000
v -2.8234923900 4.0823775600 0.1500000000
v -1.3034924300 4.0823775600 0.5950000200
usemtl Patch_1_Mat_CR2_concrete
f 1 2 3
f 2 1 4

# obj2
v 2.8035075600 4.1893776200 0.4500000000
v 1.2605076500 4.1893776200 2.5680000400
v 1.2605076500 4.1893776200 0.4500000000
v 2.8035075600 4.1893776200 2.5680000400
usemtl Patch_2_Mat_CR2_windows
f 5 6 7
f 6 5 8

# obj3
v 3.0935076900 -3.6946221600 2.9879999800
v 2.4885076000 -3.6946221600 0.0000000000
v 3.0935076900 -3.6946221600 0.0000000000
v 2.4885076000 -3.6946221600 2.9879999800
usemtl Patch_3_Mat_CR2_concrete
f 9 10 11
f 10 9 12

# obj4
v 2.5185075100 -1.6946223400 2.9879999800
v 2.4885076000 -3.6946221600 0.0000000000
v 2.4885076000 -3.6946221600 2.9879999800
v 2.5185075100 -1.6946223400 0.0000000000
usemtl Patch_4_Mat_CR2_concrete
f 13 14 15
f 14 13 16

# obj5
v 2.5185075100 -1.6946223400 2.9879999800
v 3.1315076900 -1.6946223400 0.0000000000
v 2.5185075100 -1.6946223400 0.0000000000
v 3.1315076900 -1.6946223400 2.9879999800
usemtl Patch_5_Mat_CR2_concrete
f 17 18 19
f 18 17 20

# obj6
v -1.6164924200 -4.2546220900 2.9879999800
v 3.0935076900 -4.2546220900 0.0000000000
v -1.6164924200 -4.2546220900 0.0000000000
v 3.0935076900 -4.2546220900 2.9879999800
usemtl Patch_6_Mat_CR2_plaster
f 21 22 23
f 22 21 24

# obj7
v 0.7575075900 4.1893776200 2.5680000400
v -0.7694923700 4.1893776200 0.4500000000
v 0.7575075900 4.1893776200 0.4500000000
v -0.7694923700 4.1893776200 2.5680000400
usemtl Patch_7_Mat_CR2_windows
f 25 26 27
f 26 25 28

# obj8
v -1.2974924100 4.1893776200 2.5680000400
v -2.8844923400 4.1893776200 0.4500000000
v -1.2974924100 4.1893776200 0.4500000000
v -2.8844923400 4.1893776200 2.5680000400
usemtl Patch_8_Mat_CR2_windows
f 29 30 31
f 30 29 32

# obj9
v -1.6164924200 -2.8906222000 0.0000000000
v -1.6164924200 -4.2546220900 2.9879999800
v -1.6164924200 -4.2546220900 0.0000000000
v -1.6164924200 -2.8906222000 2.9879999800
usemtl Patch_9_Mat_CR2_concrete
f 33 34 35
f 34 33 36

# obj10
v -0.7634924000 4.0823775600 0.5950000200
v 0.7565076000 4.0823775600 0.1500000000
v -0.7634924000 4.0823775600 0.1500000000
v 0.7565076000 4.0823775600 0.5950000200
usemtl Patch_10_Mat_CR2_concrete
f 37 38 39
f 38 37 40

# obj11
v 1.2665075800 4.0823775600 0.5950000200
v 2.7865076300 4.0823775600 0.1500000000
v 1.2665075800 4.0823775600 0.1500000000
v 2.7865076300 4.0823775600 0.5950000200
usemtl Patch_11_Mat_CR2_concrete
f 41 42 43
f 42 41 44

# obj12
v 3.0935076900 -3.6946221600 2.9879999800
v 3.0935076900 -4.2546220900 0.0000000000
v 3.0935076900 -4.2546220900 2.9879999800
v 3.0935076900 -3.6946221600 0.0000000000
usemtl Patch_12_Mat_CR2_concrete
f 45 46 47
f 46 45 48

# obj13
v 3.1550136200 4.1893776200 -0.0000000000
v 2.8035075600 4.1893776200 0.4500000000
v -2.8844923400 4.1893776200 0.0000000000
v 3.1550136200 4.1893776200 2.9879999800
v 1.2605076500 4.1893776200 0.4500000000
v -1.2974924100 4.1893776200 0.4500000000
v 2.8035075600 4.1893776200 2.5680000400
v 1.2605076500 4.1893776200 2.5680000400
v 0.7575075900 4.1893776200 2.5680000400
v -0.7694923700 4.1893776200 2.5680000400
v -1.2974924100 4.1893776200 2.5680000400
v -2.8844923400 4.1893776200 2.5680000400
v -2.8844923400 4.1893776200 2.9879999800
v -0.7694923700 4.1893776200 0.4500000000
v 0.7575075900 4.1893776200 0.4500000000
v -2.8844923400 4.1893776200 0.4500000000
usemtl Patch_13_Mat_CR2_concrete
f 49 50 51
f 50 49 52
f 51 50 53
f 51 53 54
f 50 52 55
f 55 52 56
f 56 52 57
f 57 52 58
f 58 52 59
f 59 52 60
f 60 52 61
f 54 62 59
f 59 62 58
f 56 63 53
f 63 56 57
f 64 51 54

# obj14
v 3.0935076900 -4.2546220900 0.0000000000
v -1.6164924200 -2.8906222000 0.0000000000
v -1.6164924200 -4.2546220900 0.0000000000
v 2.4885076000 -3.6946221600 0.0000000000
v 3.0935076900 -3.6946221600 0.0000000000
v -2.8844923400 4.1893776200 0.0000000000
v -2.8844923400 -2.8906222000 0.0000000000
v 3.1550136200 4.1893776200 -0.0000000000
v 2.5185075100 -1.6946223400 0.0000000000
v 3.1315076900 -1.6946223400 0.0000000000
usemtl Patch_14_Mat_CR2_floor
f 65 66 67
f 66 65 68
f 68 65 69
f 66 70 71
f 70 66 72
f 72 66 73
f 73 66 68
f 72 73 74

# obj15
v 3.1550136200 4.1893776200 2.9879999800
v 3.1315076900 -1.6946223400 0.0000000000
v 3.1315076900 -1.6946223400 2.9879999800
v 3.1550136200 4.1893776200 -0.0000000000
usemtl Patch_15_Mat_CR2_concrete
f 75 76 77
f 76 75 78

# obj16
v -2.8844923400 4.1893776200 0.0000000000
v -2.8844923400 -2.8906222000 2.9879589000
v -2.8844923400 -2.8906222000 0.0000000000
v -2.8844923400 4.1893776200 2.9879999800
v -2.8844923400 -2.8906222000 2.9879999800
v -2.8844923400 4.1893776200 0.4500000000
v -2.8844923400 4.1893776200 2.5680000400
usemtl Patch_16_Mat_CR2_plaster
f 79 80 81
f 80 82 83
f 82 80 79

# obj17
v -2.8844923400 -2.8906222000 2.9879589000
v -1.6164924200 -2.8906222000 0.0000000000
v -2.8844923400 -2.8906222000 0.0000000000
v -1.6164924200 -2.8906222000 2.9879999800
usemtl Patch_17_Mat_CR2_plaster
f 86 87 88
f 87 86 89

# obj18
v -1.6164924200 -2.8906222000 2.9879999800
v -2.8844923400 -2.8906222000 2.9879589000
v -2.8844923400 -2.8906222000 2.9879999800

# obj19
v -2.8844923400 4.1893776200 2.9879999800
v -1.6164924200 -2.8906222000 2.9879999800
v -2.8844923400 -2.8906222000 2.9879999800
v 3.1550136200 4.1893776200 2.9879999800
v -1.6164924200 -4.2546220900 2.9879999800
v 2.5185075100 -1.6946223400 2.9879999800
v 2.4885076000 -3.6946221600 2.9879999800
v 3.1315076900 -1.6946223400 2.9879999800
v 3.0935076900 -4.2546220900 2.9879999800
v 3.0935076900 -3.6946221600 2.9879999800
usemtl Patch_18_Mat_CR2_ceiling
f 93 94 95
f 94 93 96
f 94 96 97
f 97 96 98
f 97 98 99
f 98 96 100
f 99 101 97
f 101 99 102

# obj20
usemtl Patch_19_Mat_CR2_concrete
f 1 3 2
f 2 4 1

# obj21
usemtl Patch_20_Mat_CR2_concrete
f 37 39 38
f 38 40 37

# obj22
usemtl Patch_21_Mat_CR2_concrete
f 41 43 42
f 42 44 41
