mtllib mesh.mtl

v 6.102 -3.906 2.736
v 4.789 -5.132 2.736
v 6.102 -4.775 2.736
v 4.789 -5.132 2.736
v 6.102 -3.906 2.736
v 4.232 -3.906 2.736
v 4.789 -5.132 2.736
v 4.232 -3.906 2.736
v 4.232 -4.571 2.736
v 4.789 -5.132 2.736
v 4.232 -4.571 2.736
v 3.332 -5.218 2.736
v 3.332 -5.218 2.736
v 3.341 -6.160 2.736
v 4.750 -6.160 2.736
v 4.750 -6.160 2.736
v 4.789 -5.132 2.736
v 3.332 -5.218 2.736
v 4.789 -5.132 2.736
v 4.750 -6.160 2.736
v 6.102 -6.160 2.736
v 6.102 -6.160 2.736
v 6.102 -4.775 2.736
v 4.789 -5.132 2.736
v 4.232 -3.906 2.736
v 3.332 -5.218 2.736
v 4.232 -4.571 2.736
v 3.332 -5.218 2.736
v 4.232 -3.906 2.736
v 2.385 -3.906 2.736
v 3.332 -5.218 2.736
v 2.385 -3.906 2.736
v 2.389 -4.609 2.736
v 3.332 -5.218 2.736
v 2.389 -4.609 2.736
v 1.886 -5.128 2.736
v 3.332 -5.218 2.736
v 1.923 -6.160 2.736
v 3.341 -6.160 2.736
v 1.923 -6.160 2.736
v 3.332 -5.218 2.736
v 1.886 -5.128 2.736
v 1.886 -5.128 2.736
v 2.389 -4.609 2.736
v 2.385 -3.906 2.736
v 1.886 -5.128 2.736
v 0.571 -3.906 2.736
v 0.571 -4.817 2.736
v 0.571 -3.906 2.736
v 1.886 -5.128 2.736
v 2.385 -3.906 2.736
v 1.886 -5.128 2.736
v 0.571 -4.817 2.736
v 0.571 -6.160 2.736
v 0.571 -6.160 2.736
v 1.923 -6.160 2.736
v 1.886 -5.128 2.736
v 3.336 0.930 2.276
v 0.571 0.930 2.736
v 0.571 0.930 2.276
v 0.571 0.930 2.736
v 3.336 0.930 2.276
v 3.337 0.930 2.736
v 3.337 0.930 2.736
v 6.102 0.930 2.276
v 6.102 0.930 2.736
v 6.102 0.930 2.276
v 3.337 0.930 2.736
v 3.336 0.930 2.276
v 3.334 0.930 2.276
v 6.102 0.499 2.276
v 6.102 0.930 2.276
v 6.102 0.499 2.276
v 3.334 0.930 2.276
v 3.334 0.499 2.276
v 3.334 0.499 2.276
v 0.571 0.930 2.276
v 0.571 0.499 2.276
v 0.571 0.930 2.276
v 3.334 0.499 2.276
v 3.334 0.930 2.276
v 3.337 0.499 2.276
v 6.102 0.499 2.736
v 6.102 0.499 2.276
v 6.102 0.499 2.736
v 3.337 0.499 2.276
v 3.336 0.499 2.736
v 3.336 0.499 2.736
v 0.571 0.499 2.276
v 0.571 0.499 2.736
v 0.571 0.499 2.276
v 3.336 0.499 2.736
v 3.337 0.499 2.276
v 4.585 0.930 2.736
v 6.102 0.930 2.736
v 6.102 1.903 2.736
v 6.102 1.903 2.736
v 4.638 2.037 2.736
v 4.585 0.930 2.736
v 4.585 0.930 2.736
v 3.227 2.167 2.736
v 3.170 0.930 2.736
v 3.227 2.167 2.736
v 4.585 0.930 2.736
v 4.638 2.037 2.736
v 3.170 0.930 2.736
v 1.892 2.290 2.736
v 1.821 0.930 2.736
v 1.892 2.290 2.736
v 3.170 0.930 2.736
v 3.227 2.167 2.736
v 1.892 2.290 2.736
v 0.571 2.411 2.736
v 0.571 0.930 2.736
v 0.571 0.930 2.736
v 1.821 0.930 2.736
v 1.892 2.290 2.736
v 3.336 -3.483 2.276
v 0.571 -3.483 2.736
v 0.571 -3.483 2.276
v 0.571 -3.483 2.736
v 3.336 -3.483 2.276
v 3.337 -3.483 2.736
v 3.337 -3.483 2.736
v 6.102 -3.483 2.276
v 6.102 -3.483 2.736
v 6.102 -3.483 2.276
v 3.337 -3.483 2.736
v 3.336 -3.483 2.276
v 3.333 -3.906 2.276
v 6.102 -3.906 2.276
v 6.102 -3.483 2.276
v 6.102 -3.483 2.276
v 3.333 -3.483 2.276
v 3.333 -3.906 2.276
v 3.333 -3.483 2.276
v 0.571 -3.483 2.276
v 0.571 -3.906 2.276
v 0.571 -3.906 2.276
v 3.333 -3.906 2.276
v 3.333 -3.483 2.276
v 3.337 -3.906 2.276
v 6.102 -3.906 2.736
v 6.102 -3.906 2.276
v 6.102 -3.906 2.736
v 3.337 -3.906 2.276
v 3.336 -3.906 2.736
v 3.336 -3.906 2.736
v 0.571 -3.906 2.276
v 0.571 -3.906 2.736
v 0.571 -3.906 2.276
v 3.336 -3.906 2.736
v 3.337 -3.906 2.276
v 4.753 -0.805 2.736
v 6.102 -0.812 2.736
v 6.102 0.499 2.736
v 6.102 0.499 2.736
v 4.695 0.499 2.736
v 4.753 -0.805 2.736
v 4.753 -0.805 2.736
v 3.439 -0.897 2.736
v 4.658 -0.909 2.736
v 3.297 -0.727 2.736
v 4.753 -0.805 2.736
v 4.695 0.499 2.736
v 4.695 0.499 2.736
v 3.398 0.499 2.736
v 3.297 -0.727 2.736
v 3.439 -0.897 2.736
v 4.753 -0.805 2.736
v 3.297 -0.727 2.736
v 4.753 -0.805 2.736
v 4.658 -0.909 2.736
v 4.771 -2.130 2.736
v 4.771 -2.130 2.736
v 6.102 -2.144 2.736
v 6.102 -0.812 2.736
v 6.102 -0.812 2.736
v 4.753 -0.805 2.736
v 4.771 -2.130 2.736
v 3.350 -2.214 2.736
v 3.439 -0.897 2.736
v 3.235 -2.075 2.736
v 3.439 -0.897 2.736
v 3.350 -2.214 2.736
v 4.663 -2.252 2.736
v 3.439 -0.897 2.736
v 4.771 -2.130 2.736
v 4.658 -0.909 2.736
v 4.771 -2.130 2.736
v 3.439 -0.897 2.736
v 4.663 -2.252 2.736
v 1.912 0.499 2.736
v 3.297 -0.727 2.736
v 3.398 0.499 2.736
v 3.297 -0.727 2.736
v 1.912 0.499 2.736
v 1.996 -0.729 2.736
v 6.102 -3.483 2.736
v 4.663 -2.252 2.736
v 4.720 -3.483 2.736
v 4.771 -2.130 2.736
v 6.102 -3.483 2.736
v 6.102 -2.144 2.736
v 6.102 -3.483 2.736
v 4.771 -2.130 2.736
v 4.663 -2.252 2.736
v 2.042 -2.038 2.736
v 3.297 -0.727 2.736
v 1.996 -0.729 2.736
v 1.996 -0.729 2.736
v 1.880 -0.868 2.736
v 2.042 -2.038 2.736
v 3.297 -0.727 2.736
v 3.235 -2.075 2.736
v 3.439 -0.897 2.736
v 3.235 -2.075 2.736
v 3.297 -0.727 2.736
v 2.042 -2.038 2.736
v 0.571 0.499 2.736
v 1.996 -0.729 2.736
v 1.912 0.499 2.736
v 1.996 -0.729 2.736
v 0.571 0.499 2.736
v 0.571 -0.874 2.736
v 1.996 -0.729 2.736
v 0.571 -0.874 2.736
v 1.880 -0.868 2.736
v 4.720 -3.483 2.736
v 3.350 -2.214 2.736
v 3.242 -3.483 2.736
v 3.350 -2.214 2.736
v 4.720 -3.483 2.736
v 4.663 -2.252 2.736
v 3.350 -2.214 2.736
v 3.235 -2.075 2.736
v 2.042 -2.038 2.736
v 3.242 -3.483 2.736
v 1.888 -2.209 2.736
v 1.977 -3.483 2.736
v 1.888 -2.209 2.736
v 3.242 -3.483 2.736
v 3.350 -2.214 2.736
v 1.888 -2.209 2.736
v 3.350 -2.214 2.736
v 2.042 -2.038 2.736
v 1.888 -2.209 2.736
v 0.571 -2.189 2.736
v 0.571 -3.483 2.736
v 0.571 -3.483 2.736
v 1.977 -3.483 2.736
v 1.888 -2.209 2.736
v 1.888 -2.209 2.736
v 2.042 -2.038 2.736
v 1.880 -0.868 2.736
v 1.880 -0.868 2.736
v 0.571 -0.874 2.736
v 0.571 -2.189 2.736
v 0.571 -2.189 2.736
v 1.888 -2.209 2.736
v 1.880 -0.868 2.736
v -6.251 -2.187 0.000
v -4.446 -2.463 0.000
v -4.624 -3.053 0.000
v -6.152 -3.623 0.000
v -4.797 -3.623 0.000
v -4.805 -3.648 0.000
v -4.680 -1.878 0.000
v -6.251 -2.187 0.000
v -6.251 -1.915 0.000
v -6.251 -2.187 0.000
v -4.624 -3.053 0.000
v -6.152 -3.053 0.000
v -6.152 -3.623 0.000
v -4.805 -3.648 0.000
v -6.251 -3.648 0.000
v -4.446 -2.463 0.000
v -6.251 -2.187 0.000
v -4.680 -1.878 0.000
v -6.152 -3.053 0.000
v -6.152 -3.623 0.000
v -6.251 -3.648 0.000
v -6.251 -2.187 0.000
v -6.152 -3.053 0.000
v -6.251 -3.648 0.000
v -4.522 -3.053 0.000
v -4.624 -3.053 0.000
v -4.446 -2.463 0.000
v -2.803 -2.798 0.000
v -2.881 -2.390 0.000
v -2.716 -2.798 0.000
v -2.803 -3.613 0.000
v -2.387 -3.613 0.000
v -2.372 -3.648 0.000
v -4.522 -3.623 0.000
v -4.805 -3.648 0.000
v -4.797 -3.623 0.000
v -2.803 -2.798 0.000
v -4.522 -3.053 0.000
v -4.446 -2.463 0.000
v -2.881 -2.390 0.000
v -2.803 -2.798 0.000
v -4.446 -2.463 0.000
v -2.803 -3.613 0.000
v -4.805 -3.648 0.000
v -4.522 -3.623 0.000
v -2.803 -3.613 0.000
v -4.522 -3.053 0.000
v -2.803 -2.798 0.000
v -4.805 -3.648 0.000
v -2.803 -3.613 0.000
v -2.372 -3.648 0.000
v -4.522 -3.053 0.000
v -2.803 -3.613 0.000
v -4.522 -3.623 0.000
v -4.446 -2.463 0.000
v -4.680 -1.878 0.000
v -4.523 -1.354 0.000
v -2.881 -2.390 0.000
v -3.316 -0.990 0.000
v -2.717 -1.804 0.000
v -3.316 -0.990 0.000
v -2.881 -2.390 0.000
v -4.446 -2.463 0.000
v -3.316 -0.990 0.000
v -4.446 -2.463 0.000
v -4.523 -1.354 0.000
v -6.251 -1.150 0.000
v -4.523 -1.354 0.000
v -4.680 -1.878 0.000
v -4.680 -1.878 0.000
v -6.251 -1.915 0.000
v -6.251 -1.150 0.000
v -6.251 -1.150 0.000
v -6.251 -0.709 0.000
v -4.975 -0.556 0.000
v -4.523 -1.354 0.000
v -6.251 -1.150 0.000
v -4.975 -0.556 0.000
v -0.013 -3.613 0.000
v -0.013 -3.372 0.000
v -0.000 -3.387 0.000
v -0.013 -3.613 0.000
v -2.372 -3.648 0.000
v -2.387 -3.613 0.000
v -0.013 -3.613 0.000
v -0.000 -3.387 0.000
v 0.000 -3.648 0.000
v -2.372 -3.648 0.000
v -0.013 -3.613 0.000
v 0.000 -3.648 0.000
v -2.716 -2.798 0.000
v -2.717 -1.804 0.000
v -1.705 -1.430 0.000
v -2.716 -2.798 0.000
v -0.913 -2.339 0.000
v -0.913 -2.798 0.000
v -2.717 -1.804 0.000
v -2.716 -2.798 0.000
v -2.881 -2.390 0.000
v -2.716 -2.798 0.000
v -1.705 -1.430 0.000
v -0.913 -2.339 0.000
v -2.555 0.011 0.000
v -3.316 -0.990 0.000
v -3.180 -0.315 0.000
v -1.705 -1.430 0.000
v -2.555 0.011 0.000
v -1.652 -0.318 0.000
v -1.652 -0.318 0.000
v -1.481 -0.738 0.000
v -1.705 -1.430 0.000
v -3.316 -0.990 0.000
v -1.705 -1.430 0.000
v -2.717 -1.804 0.000
v -3.316 -0.990 0.000
v -2.555 0.011 0.000
v -1.705 -1.430 0.000
v -1.481 -0.738 0.000
v -1.652 -0.318 0.000
v -1.091 0.536 0.000
v -1.091 0.536 0.000
v 0.000 0.471 0.000
v 0.000 -0.821 0.000
v 0.000 -0.821 0.000
v -1.481 -0.738 0.000
v -1.091 0.536 0.000
v -0.913 -1.983 0.000
v -0.913 -2.339 0.000
v -1.705 -1.430 0.000
v -0.913 -1.983 0.000
v -1.481 -0.738 0.000
v 0.000 -0.821 0.000
v -0.013 -1.983 0.000
v -0.000 -3.387 0.000
v -0.013 -3.372 0.000
v -1.481 -0.738 0.000
v -0.913 -1.983 0.000
v -1.705 -1.430 0.000
v -0.000 -3.387 0.000
v -0.013 -1.983 0.000
v 0.000 -0.821 0.000
v -0.913 -1.983 0.000
v 0.000 -0.821 0.000
v -0.013 -1.983 0.000
v -5.342 -0.091 0.000
v -5.342 0.815 0.000
v -4.741 0.073 0.000
v -5.442 -0.091 0.000
v -4.975 -0.556 0.000
v -6.251 -0.709 0.000
v -5.442 -0.091 0.000
v -6.251 0.819 0.000
v -5.442 0.863 0.000
v -4.975 -0.556 0.000
v -5.342 -0.091 0.000
v -4.741 0.073 0.000
v -6.251 0.819 0.000
v -5.442 -0.091 0.000
v -6.251 -0.709 0.000
v -4.975 -0.556 0.000
v -5.442 -0.091 0.000
v -5.342 -0.091 0.000
v -1.091 0.536 0.000
v -2.523 1.161 0.000
v -1.560 1.491 0.000
v -2.555 0.011 0.000
v -1.091 0.536 0.000
v -1.652 -0.318 0.000
v -1.091 0.536 0.000
v -2.555 0.011 0.000
v -2.523 1.161 0.000
v -3.965 0.306 0.000
v -4.975 -0.556 0.000
v -4.741 0.073 0.000
v -3.316 -0.990 0.000
v -3.965 0.306 0.000
v -3.180 -0.315 0.000
v -4.975 -0.556 0.000
v -3.316 -0.990 0.000
v -4.523 -1.354 0.000
v -3.965 0.306 0.000
v -3.316 -0.990 0.000
v -4.975 -0.556 0.000
v -2.523 1.161 0.000
v -3.965 0.306 0.000
v -3.745 1.293 0.000
v -3.745 1.293 0.000
v -3.144 1.530 0.000
v -2.523 1.161 0.000
v -3.965 0.306 0.000
v -2.555 0.011 0.000
v -3.180 -0.315 0.000
v -2.555 0.011 0.000
v -3.965 0.306 0.000
v -2.523 1.161 0.000
v -0.115 1.598 0.000
v -1.560 1.491 0.000
v -1.465 1.695 0.000
v -0.051 2.496 0.000
v -1.056 2.568 0.000
v -1.033 2.617 0.000
v -1.560 1.491 0.000
v -0.115 1.598 0.000
v -1.091 0.536 0.000
v -0.051 2.496 0.000
v -1.033 2.617 0.000
v 0.000 2.523 0.000
v -1.091 0.536 0.000
v -0.115 1.598 0.000
v 0.000 0.471 0.000
v -0.115 1.598 0.000
v -0.051 2.496 0.000
v 0.000 2.523 0.000
v 0.000 2.523 0.000
v 0.000 0.471 0.000
v -0.115 1.598 0.000
v -4.788 1.818 0.000
v -4.779 2.013 0.000
v -4.746 1.886 0.000
v -4.779 2.013 0.000
v -4.788 1.818 0.000
v -5.318 1.607 0.000
v -5.281 1.514 0.000
v -4.878 1.675 0.000
v -5.342 0.933 0.000
v -5.442 1.479 0.000
v -5.442 0.863 0.000
v -6.251 0.819 0.000
v -6.037 3.051 0.000
v -5.033 2.983 0.000
v -5.023 2.945 0.000
v -4.779 2.013 0.000
v -5.318 1.607 0.000
v -6.131 2.156 0.000
v -5.342 1.479 0.000
v -5.281 1.514 0.000
v -5.342 0.933 0.000
v -5.033 2.983 0.000
v -6.037 3.051 0.000
v -6.251 3.094 0.000
v -5.281 1.514 0.000
v -5.342 1.479 0.000
v -5.318 1.607 0.000
v -6.251 3.094 0.000
v -6.037 3.051 0.000
v -6.131 2.156 0.000
v -5.442 1.479 0.000
v -5.318 1.607 0.000
v -5.342 1.479 0.000
v -6.251 0.819 0.000
v -6.251 3.094 0.000
v -6.131 2.156 0.000
v -5.318 1.607 0.000
v -5.442 1.479 0.000
v -6.131 2.156 0.000
v -5.442 1.479 0.000
v -6.251 0.819 0.000
v -6.131 2.156 0.000
v -3.509 2.562 0.000
v -3.509 2.471 0.000
v -3.556 2.559 0.000
v -4.372 1.972 0.000
v -3.509 2.471 0.000
v -3.509 2.462 0.000
v -3.509 2.462 0.000
v -3.043 2.462 0.000
v -3.144 1.530 0.000
v -4.352 1.884 0.000
v -3.745 1.293 0.000
v -4.586 1.791 0.000
v -4.779 2.013 0.000
v -4.694 1.855 0.000
v -4.746 1.886 0.000
v -4.694 1.855 0.000
v -4.779 2.013 0.000
v -4.510 1.985 0.000
v -4.416 2.881 0.000
v -5.023 2.945 0.000
v -5.033 2.983 0.000
v -3.007 2.798 0.000
v -3.033 2.562 0.000
v -3.509 2.562 0.000
v -3.745 1.293 0.000
v -3.509 2.462 0.000
v -3.144 1.530 0.000
v -3.509 2.462 0.000
v -3.745 1.293 0.000
v -4.352 1.884 0.000
v -4.694 1.855 0.000
v -4.510 1.985 0.000
v -4.389 1.977 0.000
v -4.416 2.881 0.000
v -5.033 2.983 0.000
v -3.007 2.798 0.000
v -3.007 2.798 0.000
v -3.509 2.562 0.000
v -3.556 2.559 0.000
v -3.509 2.462 0.000
v -4.352 1.884 0.000
v -4.372 1.972 0.000
v -4.416 2.881 0.000
v -3.007 2.798 0.000
v -3.556 2.559 0.000
v -4.416 2.881 0.000
v -3.556 2.559 0.000
v -4.422 2.059 0.000
v -4.510 1.985 0.000
v -4.416 2.881 0.000
v -4.422 2.059 0.000
v -4.422 2.059 0.000
v -4.389 1.977 0.000
v -4.510 1.985 0.000
v -1.741 1.715 0.000
v -1.465 1.695 0.000
v -1.560 1.491 0.000
v -2.509 2.462 0.000
v -2.523 1.161 0.000
v -3.144 1.530 0.000
v -2.509 2.462 0.000
v -1.864 1.668 0.000
v -2.523 1.161 0.000
v -3.144 1.530 0.000
v -3.043 2.462 0.000
v -2.509 2.462 0.000
v -2.509 2.562 0.000
v -3.033 2.562 0.000
v -3.007 2.798 0.000
v -1.677 2.612 0.000
v -1.033 2.617 0.000
v -1.056 2.568 0.000
v -2.523 1.161 0.000
v -1.864 1.668 0.000
v -1.560 1.491 0.000
v -1.864 1.668 0.000
v -2.509 2.462 0.000
v -2.470 2.464 0.000
v -1.033 2.617 0.000
v -1.677 2.612 0.000
v -3.007 2.798 0.000
v -1.741 1.715 0.000
v -1.560 1.491 0.000
v -1.864 1.668 0.000
v -2.509 2.562 0.000
v -2.470 2.464 0.000
v -2.509 2.462 0.000
v -2.509 2.562 0.000
v -3.007 2.798 0.000
v -1.677 2.612 0.000
v -1.741 1.715 0.000
v -1.864 1.668 0.000
v -1.784 1.729 0.000
v -2.470 2.464 0.000
v -2.509 2.562 0.000
v -2.390 2.524 0.000
v -1.677 2.612 0.000
v -1.741 1.715 0.000
v -1.784 1.729 0.000
v -2.390 2.524 0.000
v -2.509 2.562 0.000
v -1.677 2.612 0.000
v -1.677 2.612 0.000
v -1.784 1.729 0.000
v -2.390 2.524 0.000
v -3.965 0.306 0.000
v -5.342 0.815 0.000
v -5.342 0.933 0.000
v -3.745 1.293 0.000
v -4.878 1.675 0.000
v -4.586 1.791 0.000
v -4.878 1.675 0.000
v -3.745 1.293 0.000
v -3.965 0.306 0.000
v -5.342 0.815 0.000
v -3.965 0.306 0.000
v -4.741 0.073 0.000
v -4.878 1.675 0.000
v -3.965 0.306 0.000
v -5.342 0.933 0.000
v -4.746 1.886 0.000
v -4.694 1.855 0.000
v -4.788 1.818 0.000
v -5.077 -3.648 1.333
v -6.251 -3.648 1.496
v -6.251 -3.648 0.000
v -6.251 -3.648 0.000
v -5.046 -3.648 -0.000
v -5.077 -3.648 1.333
v -5.077 -3.648 1.333
v -4.697 -3.648 1.616
v -4.702 -3.648 2.768
v -5.077 -3.648 1.333
v -6.251 -3.648 2.768
v -6.251 -3.648 1.496
v -6.251 -3.648 2.768
v -5.077 -3.648 1.333
v -4.702 -3.648 2.768
v -3.147 -3.648 2.768
v -3.812 -3.648 1.273
v -3.149 -3.648 1.635
v -3.812 -3.648 1.273
v -3.147 -3.648 2.768
v -4.702 -3.648 2.768
v -3.812 -3.648 1.273
v -4.702 -3.648 2.768
v -4.697 -3.648 1.616
v -3.812 -3.648 1.273
v -4.697 -3.648 1.616
v -5.077 -3.648 1.333
v -3.812 -3.648 1.273
v -5.046 -3.648 -0.000
v -3.816 -3.648 -0.000
v -5.046 -3.648 -0.000
v -3.812 -3.648 1.273
v -5.077 -3.648 1.333
v -1.580 -3.648 2.768
v -2.520 -3.648 1.269
v -1.587 -3.648 1.612
v -2.520 -3.648 1.269
v -1.580 -3.648 2.768
v -3.147 -3.648 2.768
v -2.520 -3.648 1.269
v -3.147 -3.648 2.768
v -3.149 -3.648 1.635
v -2.520 -3.648 1.269
v -3.149 -3.648 1.635
v -3.812 -3.648 1.273
v -2.520 -3.648 1.269
v -3.816 -3.648 -0.000
v -2.520 -3.648 -0.000
v -3.816 -3.648 -0.000
v -2.520 -3.648 1.269
v -3.812 -3.648 1.273
v -1.225 -3.648 1.328
v -1.587 -3.648 1.612
v -2.520 -3.648 1.269
v -2.520 -3.648 1.269
v -2.520 -3.648 -0.000
v -1.255 -3.648 -0.000
v -1.255 -3.648 -0.000
v -1.225 -3.648 1.328
v -2.520 -3.648 1.269
v 0.000 -3.648 2.768
v -1.225 -3.648 1.328
v 0.000 -3.648 1.490
v -1.225 -3.648 1.328
v 0.000 -3.648 2.768
v -1.580 -3.648 2.768
v -1.225 -3.648 1.328
v -1.580 -3.648 2.768
v -1.587 -3.648 1.612
v -1.225 -3.648 1.328
v -1.255 -3.648 -0.000
v 0.000 -3.648 -0.000
v 0.000 -3.648 -0.000
v 0.000 -3.648 1.490
v -1.225 -3.648 1.328
v -1.441 0.930 2.768
v 0.000 0.930 2.768
v -0.000 2.523 2.768
v -0.000 2.523 2.768
v -1.444 2.655 2.768
v -1.441 0.930 2.768
v -4.394 2.314 2.768
v -3.055 1.500 2.768
v -2.484 2.750 2.768
v -2.484 2.750 2.768
v -4.339 2.919 2.768
v -4.394 2.314 2.768
v -1.444 2.655 2.768
v -2.484 2.750 2.768
v -3.055 1.500 2.768
v -3.055 1.500 2.768
v -2.962 0.930 2.768
v -1.441 0.930 2.768
v -1.441 0.930 2.768
v -1.444 2.655 2.768
v -3.055 1.500 2.768
v -3.055 1.500 2.768
v -4.394 2.314 2.768
v -4.762 1.854 2.768
v -3.055 1.500 2.768
v -4.775 0.930 2.768
v -2.962 0.930 2.768
v -4.775 0.930 2.768
v -3.055 1.500 2.768
v -4.762 1.854 2.768
v -6.251 3.094 2.768
v -4.394 2.314 2.768
v -4.339 2.919 2.768
v -4.762 1.854 2.768
v -6.251 3.094 2.768
v -6.251 2.180 2.768
v -6.251 3.094 2.768
v -4.762 1.854 2.768
v -4.394 2.314 2.768
v -4.762 1.854 2.768
v -6.251 2.180 2.768
v -6.251 0.930 2.768
v -6.251 0.930 2.768
v -4.775 0.930 2.768
v -4.762 1.854 2.768
v -6.251 1.742 1.323
v -6.251 3.094 1.513
v -6.251 3.094 0.000
v -6.251 3.094 0.000
v -6.251 1.758 0.000
v -6.251 1.742 1.323
v -6.251 0.330 1.170
v -6.251 1.452 1.567
v -6.251 1.742 1.323
v -6.251 0.330 1.170
v -6.251 1.758 0.000
v -6.251 0.310 0.000
v -6.251 1.758 0.000
v -6.251 0.330 1.170
v -6.251 1.742 1.323
v -6.251 3.094 2.768
v -6.251 1.452 1.567
v -6.251 1.377 2.768
v -6.251 1.742 1.323
v -6.251 3.094 2.768
v -6.251 3.094 1.513
v -6.251 1.452 1.567
v -6.251 3.094 2.768
v -6.251 1.742 1.323
v -6.251 -1.150 0.000
v -6.251 0.330 1.170
v -6.251 0.310 0.000
v -6.251 0.330 1.170
v -6.251 -1.150 0.000
v -6.251 -1.150 1.303
v -6.251 0.330 1.170
v -6.251 -1.150 1.303
v -6.251 -0.222 1.611
v -6.251 -0.222 1.611
v -6.251 -1.150 1.303
v -6.251 -1.150 2.033
v -6.251 -1.150 2.033
v -6.251 -1.843 2.033
v -6.251 -1.857 2.768
v -6.251 -1.150 2.033
v -6.251 -0.062 2.768
v -6.251 -0.222 1.611
v -6.251 -0.062 2.768
v -6.251 -1.150 2.033
v -6.251 -1.857 2.768
v -6.251 0.499 2.276
v -6.251 0.330 1.170
v -6.251 -0.222 1.611
v -6.251 0.499 2.276
v -6.251 -0.062 2.768
v -6.251 0.499 2.768
v -6.251 0.930 2.276
v -6.251 0.930 2.768
v -6.251 1.377 2.768
v -6.251 -0.062 2.768
v -6.251 0.499 2.276
v -6.251 -0.222 1.611
v -6.251 0.930 2.276
v -6.251 1.377 2.768
v -6.251 1.452 1.567
v -6.251 0.930 2.276
v -6.251 0.330 1.170
v -6.251 0.499 2.276
v -6.251 0.330 1.170
v -6.251 0.930 2.276
v -6.251 1.452 1.567
v -6.251 -2.757 1.408
v -6.251 -2.187 1.487
v -6.251 -2.187 0.000
v -6.251 -2.187 0.000
v -6.251 -3.151 0.000
v -6.251 -2.757 1.408
v -6.251 -2.187 2.033
v -6.251 -2.187 1.487
v -6.251 -2.757 1.408
v -6.251 -2.187 2.033
v -6.251 -3.648 1.761
v -6.251 -3.648 2.768
v -6.251 -2.187 2.033
v -6.251 -1.857 2.768
v -6.251 -1.843 2.033
v -6.251 -3.648 1.761
v -6.251 -2.187 2.033
v -6.251 -2.757 1.408
v -6.251 -1.857 2.768
v -6.251 -2.187 2.033
v -6.251 -3.648 2.768
v -6.251 -2.757 1.408
v -6.251 -3.151 0.000
v -6.251 -3.648 0.000
v -6.251 -3.648 0.000
v -6.251 -3.648 1.761
v -6.251 -2.757 1.408
v -6.251 -1.150 1.017
v -6.251 -1.150 0.000
v -6.251 -2.187 0.000
v -6.251 -2.187 0.000
v -6.251 -2.187 1.019
v -6.251 -1.150 1.017
v -6.251 -2.187 1.019
v -6.251 -2.187 2.033
v -6.251 -1.150 2.033
v -6.251 -1.150 2.033
v -6.251 -1.150 1.017
v -6.251 -2.187 1.019
v -3.118 0.499 2.276
v 0.000 0.499 2.768
v 0.000 0.499 2.276
v 0.000 0.499 2.768
v -3.118 0.499 2.276
v -3.118 0.499 2.768
v -3.118 0.499 2.768
v -6.251 0.499 2.276
v -6.251 0.499 2.768
v -6.251 0.499 2.276
v -3.118 0.499 2.768
v -3.118 0.499 2.276
v -3.138 0.930 2.276
v 0.000 0.499 2.276
v -0.000 0.930 2.276
v 0.000 0.499 2.276
v -3.138 0.930 2.276
v -3.138 0.499 2.276
v -3.138 0.499 2.276
v -6.251 0.930 2.276
v -6.251 0.499 2.276
v -6.251 0.930 2.276
v -3.138 0.499 2.276
v -3.138 0.930 2.276
v -3.127 0.930 2.768
v -6.251 0.930 2.768
v -6.251 0.930 2.276
v -6.251 0.930 2.276
v -3.127 0.930 2.276
v -3.127 0.930 2.768
v -3.127 0.930 2.276
v -0.000 0.930 2.276
v -0.000 0.930 2.768
v -0.000 0.930 2.768
v -3.127 0.930 2.768
v -3.127 0.930 2.276
v -1.237 -0.805 2.768
v 0.000 -1.030 2.768
v -0.000 0.499 2.768
v -0.000 0.499 2.768
v -1.298 0.499 2.768
v -1.237 -0.805 2.768
v -2.566 -0.800 2.768
v -1.735 -1.195 2.768
v -1.237 -0.805 2.768
v -2.566 -0.800 2.768
v -1.298 0.499 2.768
v -2.560 0.499 2.768
v -1.298 0.499 2.768
v -2.566 -0.800 2.768
v -1.237 -0.805 2.768
v -2.566 -0.800 2.768
v -3.357 -1.169 2.768
v -3.337 -2.160 2.768
v -2.566 -0.800 2.768
v -2.946 -2.496 2.768
v -1.703 -2.091 2.768
v -1.703 -2.091 2.768
v -1.735 -1.195 2.768
v -2.566 -0.800 2.768
v -2.946 -2.496 2.768
v -2.566 -0.800 2.768
v -3.337 -2.160 2.768
v -1.237 -0.805 2.768
v -1.735 -1.195 2.768
v -1.703 -2.091 2.768
v -1.237 -0.805 2.768
v -1.419 -2.354 2.768
v 0.000 -2.163 2.768
v 0.000 -2.163 2.768
v 0.000 -1.030 2.768
v -1.237 -0.805 2.768
v -1.419 -2.354 2.768
v -1.237 -0.805 2.768
v -1.703 -2.091 2.768
v -1.419 -2.354 2.768
v -1.409 -3.648 2.768
v 0.000 -3.648 2.768
v 0.000 -3.648 2.768
v 0.000 -2.163 2.768
v -1.419 -2.354 2.768
v -3.847 -0.856 2.768
v -3.357 -1.169 2.768
v -2.566 -0.800 2.768
v -2.566 -0.800 2.768
v -2.560 0.499 2.768
v -3.832 0.499 2.768
v -3.832 0.499 2.768
v -3.847 -0.856 2.768
v -2.566 -0.800 2.768
v -5.091 -0.850 2.768
v -5.030 0.499 2.768
v -6.251 0.499 2.768
v -6.251 0.499 2.768
v -6.251 -0.933 2.768
v -5.091 -0.850 2.768
v -4.881 -2.214 2.768
v -3.847 -0.856 2.768
v -4.806 -1.082 2.768
v -3.337 -2.160 2.768
v -4.881 -2.214 2.768
v -4.562 -2.531 2.768
v -3.847 -0.856 2.768
v -3.337 -2.160 2.768
v -3.357 -1.169 2.768
v -4.881 -2.214 2.768
v -3.337 -2.160 2.768
v -3.847 -0.856 2.768
v -1.419 -2.354 2.768
v -1.703 -2.091 2.768
v -2.946 -2.496 2.768
v -2.946 -2.496 2.768
v -2.919 -3.648 2.768
v -1.409 -3.648 2.768
v -1.409 -3.648 2.768
v -1.419 -2.354 2.768
v -2.946 -2.496 2.768
v -2.946 -2.496 2.768
v -3.337 -2.160 2.768
v -4.562 -2.531 2.768
v -4.562 -2.531 2.768
v -4.578 -3.648 2.768
v -2.919 -3.648 2.768
v -2.919 -3.648 2.768
v -2.946 -2.496 2.768
v -4.562 -2.531 2.768
v -5.091 -0.850 2.768
v -4.806 -1.082 2.768
v -3.847 -0.856 2.768
v -3.847 -0.856 2.768
v -3.832 0.499 2.768
v -5.030 0.499 2.768
v -5.030 0.499 2.768
v -5.091 -0.850 2.768
v -3.847 -0.856 2.768
v -4.881 -2.214 2.768
v -4.806 -1.082 2.768
v -5.091 -0.850 2.768
v -4.881 -2.214 2.768
v -6.251 -0.933 2.768
v -6.251 -2.362 2.768
v -6.251 -0.933 2.768
v -4.881 -2.214 2.768
v -5.091 -0.850 2.768
v -6.251 -3.648 2.768
v -4.881 -2.214 2.768
v -6.251 -2.362 2.768
v -4.562 -2.531 2.768
v -6.251 -3.648 2.768
v -4.578 -3.648 2.768
v -6.251 -3.648 2.768
v -4.562 -2.531 2.768
v -4.881 -2.214 2.768
v -1.244 2.637 1.325
v -0.000 2.523 1.479
v 0.000 2.523 -0.000
v 0.000 2.523 -0.000
v -1.269 2.639 -0.000
v -1.244 2.637 1.325
v -1.244 2.637 1.325
v -1.572 2.667 1.594
v -1.561 2.666 2.768
v -1.244 2.637 1.325
v 0.000 2.523 2.768
v -0.000 2.523 1.479
v 0.000 2.523 2.768
v -1.244 2.637 1.325
v -1.561 2.666 2.768
v -3.117 2.808 2.768
v -2.540 2.755 1.272
v -3.124 2.808 1.636
v -2.540 2.755 1.272
v -3.117 2.808 2.768
v -1.561 2.666 2.768
v -2.540 2.755 1.272
v -1.561 2.666 2.768
v -1.572 2.667 1.594
v -2.540 2.755 1.272
v -1.572 2.667 1.594
v -1.244 2.637 1.325
v -2.540 2.755 1.272
v -1.269 2.639 -0.000
v -2.548 2.756 -0.000
v -1.269 2.639 -0.000
v -2.540 2.755 1.272
v -1.244 2.637 1.325
v -4.685 2.951 2.768
v -3.826 2.873 1.276
v -4.676 2.950 1.637
v -3.826 2.873 1.276
v -4.685 2.951 2.768
v -3.117 2.808 2.768
v -3.826 2.873 1.276
v -3.117 2.808 2.768
v -3.124 2.808 1.636
v -3.826 2.873 1.276
v -3.124 2.808 1.636
v -2.540 2.755 1.272
v -3.826 2.873 1.276
v -2.548 2.756 -0.000
v -3.840 2.874 -0.000
v -2.548 2.756 -0.000
v -3.826 2.873 1.276
v -2.540 2.755 1.272
v -5.092 2.988 1.329
v -4.676 2.950 1.637
v -3.826 2.873 1.276
v -3.826 2.873 1.276
v -3.840 2.874 -0.000
v -5.049 2.984 -0.000
v -5.049 2.984 -0.000
v -5.092 2.988 1.329
v -3.826 2.873 1.276
v -6.251 3.094 2.768
v -5.092 2.988 1.329
v -6.251 3.094 1.505
v -5.092 2.988 1.329
v -6.251 3.094 2.768
v -4.685 2.951 2.768
v -5.092 2.988 1.329
v -4.685 2.951 2.768
v -4.676 2.950 1.637
v -5.092 2.988 1.329
v -5.049 2.984 -0.000
v -6.251 3.094 -0.000
v -6.251 3.094 -0.000
v -6.251 3.094 1.505
v -5.092 2.988 1.329
v 0.000 -2.340 1.473
v 0.000 -2.499 2.768
v 0.000 -3.648 2.768
v 0.000 -3.648 2.768
v 0.000 -3.648 0.955
v 0.000 -2.340 1.473
v 0.000 -2.340 1.473
v 0.000 -1.488 1.037
v 0.000 -1.488 2.193
v 0.000 -1.488 2.193
v 0.000 -0.802 2.194
v 0.000 -0.816 2.768
v 0.000 -1.488 2.193
v 0.000 -2.499 2.768
v 0.000 -2.340 1.473
v 0.000 -2.499 2.768
v 0.000 -1.488 2.193
v 0.000 -0.816 2.768
v 0.000 -1.488 0.050
v 0.000 -1.488 1.037
v 0.000 -2.340 1.473
v 0.000 -2.340 1.473
v 0.000 -3.648 0.955
v 0.000 -3.648 -0.000
v 0.000 -1.488 0.050
v 0.000 -0.941 -0.000
v 0.000 -0.942 0.050
v 0.000 -1.488 0.050
v 0.000 -2.340 1.473
v 0.000 -3.648 -0.000
v 0.000 -0.941 -0.000
v 0.000 -1.488 0.050
v 0.000 -3.648 -0.000
v 0.000 1.261 1.327
v 0.000 0.915 1.613
v 0.000 -0.012 1.326
v 0.000 -0.012 0.050
v 0.000 -0.942 0.050
v 0.000 -0.941 -0.000
v 0.000 -0.012 0.050
v 0.000 1.261 1.327
v 0.000 -0.012 1.326
v 0.000 -0.012 0.050
v 0.000 -0.941 -0.000
v 0.000 1.242 -0.000
v 0.000 1.261 1.327
v 0.000 -0.012 0.050
v 0.000 1.242 -0.000
v 0.000 0.499 2.276
v 0.000 -0.012 1.326
v 0.000 0.915 1.613
v 0.000 0.980 2.768
v 0.000 0.930 2.768
v 0.000 0.930 2.276
v 0.000 -0.012 2.195
v 0.000 0.499 2.768
v 0.000 -0.816 2.768
v 0.000 -0.816 2.768
v 0.000 -0.802 2.194
v 0.000 -0.012 2.195
v 0.000 0.915 1.613
v 0.000 0.980 2.768
v 0.000 0.930 2.276
v 0.000 0.499 2.768
v 0.000 -0.012 2.195
v 0.000 0.499 2.276
v 0.000 0.499 2.276
v 0.000 0.915 1.613
v 0.000 0.930 2.276
v 0.000 -0.012 1.326
v 0.000 0.499 2.276
v 0.000 -0.012 2.195
v 0.000 2.523 2.768
v 0.000 1.261 1.327
v 0.000 2.523 1.478
v 0.000 1.261 1.327
v 0.000 2.523 2.768
v 0.000 0.980 2.768
v 0.000 1.261 1.327
v 0.000 0.980 2.768
v 0.000 0.915 1.613
v 0.000 1.261 1.327
v 0.000 1.242 -0.000
v 0.000 2.523 -0.000
v 0.000 2.523 -0.000
v 0.000 2.523 1.478
v 0.000 1.261 1.327
v 5.071 1.998 1.369
v 6.102 1.903 1.643
v 6.102 1.903 0.050
v 6.102 1.903 0.050
v 4.904 2.013 0.050
v 5.071 1.998 1.369
v 5.071 1.998 1.369
v 4.271 2.071 1.867
v 4.261 2.072 2.736
v 5.071 1.998 1.369
v 6.102 1.903 2.736
v 6.102 1.903 1.643
v 6.102 1.903 2.736
v 5.071 1.998 1.369
v 4.261 2.072 2.736
v 2.404 2.243 2.736
v 3.773 2.117 1.407
v 2.959 2.192 1.377
v 2.959 2.192 1.377
v 2.399 2.243 1.854
v 2.404 2.243 2.736
v 3.773 2.117 1.407
v 4.261 2.072 2.736
v 4.271 2.071 1.867
v 4.261 2.072 2.736
v 3.773 2.117 1.407
v 2.404 2.243 2.736
v 5.071 1.998 1.369
v 4.904 2.013 0.050
v 4.083 2.088 0.050
v 5.071 1.998 1.369
v 3.773 2.117 1.407
v 4.271 2.071 1.867
v 3.773 2.117 1.407
v 5.071 1.998 1.369
v 4.083 2.088 0.050
v 2.959 2.192 1.377
v 3.773 2.117 1.407
v 4.083 2.088 0.050
v 4.083 2.088 0.050
v 2.694 2.216 0.050
v 2.959 2.192 1.377
v 0.571 2.411 2.736
v 1.651 2.312 1.355
v 0.571 2.411 1.624
v 1.651 2.312 1.355
v 0.571 2.411 2.736
v 2.404 2.243 2.736
v 1.651 2.312 1.355
v 2.404 2.243 2.736
v 2.399 2.243 1.854
v 1.651 2.312 1.355
v 2.694 2.216 0.050
v 1.794 2.299 0.050
v 2.959 2.192 1.377
v 1.651 2.312 1.355
v 2.399 2.243 1.854
v 2.694 2.216 0.050
v 1.651 2.312 1.355
v 2.959 2.192 1.377
v 1.651 2.312 1.355
v 1.794 2.299 0.050
v 0.571 2.411 0.050
v 0.571 2.411 0.050
v 0.571 2.411 1.624
v 1.651 2.312 1.355
v 6.102 0.930 2.276
v 6.102 0.598 1.327
v 6.102 1.903 1.349
v 6.102 0.930 2.276
v 6.102 1.903 2.736
v 6.102 0.930 2.736
v 6.102 0.499 2.276
v 6.102 0.499 2.736
v 6.102 0.455 2.736
v 6.102 1.903 2.736
v 6.102 0.930 2.276
v 6.102 1.903 1.349
v 6.102 0.499 2.276
v 6.102 0.455 2.736
v 6.102 0.377 1.559
v 6.102 0.598 1.327
v 6.102 0.930 2.276
v 6.102 0.377 1.559
v 6.102 0.930 2.276
v 6.102 0.499 2.276
v 6.102 0.377 1.559
v 6.102 0.455 2.736
v 6.102 -0.762 1.300
v 6.102 0.377 1.559
v 6.102 -0.762 1.300
v 6.102 0.455 2.736
v 6.102 -1.205 2.736
v 6.102 -0.762 1.300
v 6.102 -1.205 2.736
v 6.102 -1.203 1.649
v 6.102 0.598 1.327
v 6.102 0.546 0.050
v 6.102 1.903 0.050
v 6.102 1.903 0.050
v 6.102 1.903 1.349
v 6.102 0.598 1.327
v 6.102 0.598 1.327
v 6.102 0.377 1.559
v 6.102 -0.762 1.300
v 6.102 -0.762 1.300
v 6.102 -0.779 0.050
v 6.102 0.546 0.050
v 6.102 0.546 0.050
v 6.102 0.598 1.327
v 6.102 -0.762 1.300
v 6.102 -0.762 1.300
v 6.102 -1.203 1.649
v 6.102 -2.154 1.246
v 6.102 -2.154 1.246
v 6.102 -2.136 0.050
v 6.102 -0.779 0.050
v 6.102 -0.779 0.050
v 6.102 -0.762 1.300
v 6.102 -2.154 1.246
v 6.102 -2.154 1.246
v 6.102 -2.797 1.643
v 6.102 -3.539 1.199
v 6.102 -3.539 1.199
v 6.102 -3.557 0.050
v 6.102 -2.136 0.050
v 6.102 -2.136 0.050
v 6.102 -2.154 1.246
v 6.102 -3.539 1.199
v 6.102 -1.205 2.736
v 6.102 -2.154 1.246
v 6.102 -1.203 1.649
v 6.102 -2.797 1.643
v 6.102 -1.205 2.736
v 6.102 -2.839 2.736
v 6.102 -2.154 1.246
v 6.102 -1.205 2.736
v 6.102 -2.797 1.643
v 6.102 -3.483 2.276
v 6.102 -3.539 1.199
v 6.102 -2.797 1.643
v 6.102 -3.483 2.276
v 6.102 -2.839 2.736
v 6.102 -3.483 2.736
v 6.102 -3.906 2.276
v 6.102 -3.906 2.736
v 6.102 -4.431 2.736
v 6.102 -2.839 2.736
v 6.102 -3.483 2.276
v 6.102 -2.797 1.643
v 6.102 -3.906 2.276
v 6.102 -4.431 2.736
v 6.102 -4.475 1.668
v 6.102 -3.906 2.276
v 6.102 -3.539 1.199
v 6.102 -3.483 2.276
v 6.102 -3.539 1.199
v 6.102 -3.906 2.276
v 6.102 -4.475 1.668
v 6.102 -4.905 1.328
v 6.102 -4.475 1.668
v 6.102 -4.431 2.736
v 6.102 -4.905 1.328
v 6.102 -6.160 2.736
v 6.102 -6.160 1.553
v 6.102 -6.160 2.736
v 6.102 -4.905 1.328
v 6.102 -4.431 2.736
v 6.102 -3.539 1.199
v 6.102 -4.475 1.668
v 6.102 -4.905 1.328
v 6.102 -3.539 1.199
v 6.102 -4.887 0.050
v 6.102 -3.557 0.050
v 6.102 -4.887 0.050
v 6.102 -3.539 1.199
v 6.102 -4.905 1.328
v 6.102 -4.905 1.328
v 6.102 -6.160 1.553
v 6.102 -6.160 0.050
v 6.102 -6.160 0.050
v 6.102 -4.887 0.050
v 6.102 -4.905 1.328
v 1.648 -6.160 1.430
v 1.805 -6.160 2.736
v 0.571 -6.160 2.736
v 0.571 -6.160 2.736
v 0.571 -6.160 1.169
v 1.648 -6.160 1.430
v 2.963 -6.160 1.406
v 3.781 -6.160 1.383
v 4.075 -6.160 2.736
v 4.075 -6.160 2.736
v 2.686 -6.160 2.736
v 2.963 -6.160 1.406
v 0.571 -6.160 0.050
v 1.648 -6.160 1.430
v 0.571 -6.160 1.169
v 1.648 -6.160 1.430
v 0.571 -6.160 0.050
v 2.408 -6.160 0.050
v 1.648 -6.160 1.430
v 2.408 -6.160 0.050
v 2.402 -6.160 0.926
v 4.268 -6.160 0.050
v 2.963 -6.160 1.406
v 2.408 -6.160 0.050
v 2.963 -6.160 1.406
v 2.402 -6.160 0.926
v 2.408 -6.160 0.050
v 3.781 -6.160 1.383
v 4.268 -6.160 0.050
v 4.278 -6.160 0.933
v 2.963 -6.160 1.406
v 4.268 -6.160 0.050
v 3.781 -6.160 1.383
v 1.648 -6.160 1.430
v 2.963 -6.160 1.406
v 2.686 -6.160 2.736
v 2.686 -6.160 2.736
v 1.805 -6.160 2.736
v 1.648 -6.160 1.430
v 2.963 -6.160 1.406
v 1.648 -6.160 1.430
v 2.402 -6.160 0.926
v 5.071 -6.160 1.417
v 6.102 -6.160 1.147
v 6.102 -6.160 2.736
v 6.102 -6.160 2.736
v 4.917 -6.160 2.736
v 5.071 -6.160 1.417
v 5.071 -6.160 1.417
v 4.278 -6.160 0.933
v 4.268 -6.160 0.050
v 5.071 -6.160 1.417
v 6.102 -6.160 0.050
v 6.102 -6.160 1.147
v 6.102 -6.160 0.050
v 5.071 -6.160 1.417
v 4.268 -6.160 0.050
v 4.075 -6.160 2.736
v 5.071 -6.160 1.417
v 4.917 -6.160 2.736
v 5.071 -6.160 1.417
v 4.075 -6.160 2.736
v 3.781 -6.160 1.383
v 5.071 -6.160 1.417
v 3.781 -6.160 1.383
v 4.278 -6.160 0.933
v 0.571 -0.013 2.195
v 0.000 -1.488 2.193
v 0.571 -1.488 2.193
v 0.000 -1.488 2.193
v 0.571 -0.013 2.195
v 0.000 -0.012 2.195
v -0.000 -0.012 2.195
v 0.571 -0.012 0.050
v -0.000 -0.012 0.050
v 0.571 -0.012 0.050
v -0.000 -0.012 2.195
v 0.571 -0.012 2.195
v 0.571 -1.488 0.050
v 0.000 -1.488 2.193
v 0.000 -1.488 0.050
v 0.000 -1.488 2.193
v 0.571 -1.488 0.050
v 0.571 -1.488 2.193
v 0.571 -0.150 0.050
v 0.571 -0.041 0.050
v 0.523 -0.069 0.050
v -4.416 2.881 1.100
v -4.510 1.985 1.100
v -6.131 2.156 1.100
v -6.131 2.156 1.100
v -6.037 3.051 1.100
v -4.416 2.881 1.100
v -4.416 2.881 0.000
v -6.037 3.051 1.100
v -6.037 3.051 0.000
v -6.037 3.051 1.100
v -4.416 2.881 0.000
v -4.416 2.881 1.100
v -4.510 1.985 1.100
v -4.416 2.881 0.000
v -4.510 1.985 -0.000
v -4.416 2.881 0.000
v -4.510 1.985 1.100
v -4.416 2.881 1.100
v -6.131 2.156 0.000
v -4.510 1.985 1.100
v -4.510 1.985 -0.000
v -4.510 1.985 1.100
v -6.131 2.156 0.000
v -6.131 2.156 1.100
v -6.131 2.156 0.000
v -6.037 3.051 1.100
v -6.131 2.156 1.100
v -6.037 3.051 1.100
v -6.131 2.156 0.000
v -6.037 3.051 0.000
v -6.152 -3.623 0.000
v -4.522 -3.623 1.100
v -4.522 -3.623 -0.000
v -4.522 -3.623 1.100
v -6.152 -3.623 0.000
v -6.152 -3.623 1.100
v -4.522 -3.053 0.000
v -6.152 -3.053 1.100
v -6.152 -3.053 -0.000
v -6.152 -3.053 1.100
v -4.522 -3.053 0.000
v -4.522 -3.053 1.100
v -6.152 -3.053 1.100
v -4.522 -3.623 1.100
v -6.152 -3.623 1.100
v -4.522 -3.623 1.100
v -6.152 -3.053 1.100
v -4.522 -3.053 1.100
v -4.522 -3.623 1.100
v -4.522 -3.053 0.000
v -4.522 -3.623 -0.000
v -4.522 -3.053 0.000
v -4.522 -3.623 1.100
v -4.522 -3.053 1.100
v -6.152 -3.623 0.000
v -6.152 -3.053 1.100
v -6.152 -3.623 1.100
v -6.152 -3.053 1.100
v -6.152 -3.623 0.000
v -6.152 -3.053 -0.000
v -0.115 1.598 1.100
v -0.051 2.496 0.000
v -0.115 1.598 -0.000
v -0.051 2.496 0.000
v -0.115 1.598 1.100
v -0.051 2.496 1.100
v -0.051 2.496 1.100
v -0.115 1.598 1.100
v -1.741 1.715 1.100
v -1.741 1.715 1.100
v -1.677 2.612 1.100
v -0.051 2.496 1.100
v -0.051 2.496 0.000
v -1.677 2.612 1.100
v -1.677 2.612 -0.000
v -1.677 2.612 1.100
v -0.051 2.496 0.000
v -0.051 2.496 1.100
v -1.741 1.715 0.000
v -1.677 2.612 1.100
v -1.741 1.715 1.100
v -1.677 2.612 1.100
v -1.741 1.715 0.000
v -1.677 2.612 0.000
v -0.013 -3.613 1.100
v -0.013 -1.983 0.000
v -0.013 -3.613 -0.000
v -0.013 -1.983 0.000
v -0.013 -3.613 1.100
v -0.013 -1.983 1.100
v -0.013 -1.983 0.000
v -0.913 -1.983 1.100
v -0.913 -1.983 0.000
v -0.913 -1.983 1.100
v -0.013 -1.983 0.000
v -0.013 -1.983 1.100
v -0.913 -2.798 1.100
v -0.913 -1.983 1.100
v -0.013 -1.983 1.100
v -0.913 -2.798 1.100
v -0.013 -3.613 1.100
v -1.157 -3.613 1.100
v -1.157 -3.613 1.100
v -1.355 -2.798 1.100
v -0.913 -2.798 1.100
v -0.013 -3.613 1.100
v -0.913 -2.798 1.100
v -0.013 -1.983 1.100
v -1.355 -2.798 1.100
v -2.803 -3.613 1.100
v -2.803 -2.798 1.100
v -2.803 -3.613 1.100
v -1.355 -2.798 1.100
v -1.157 -3.613 1.100
v -1.411 -3.613 0.000
v -0.013 -3.613 1.100
v -0.013 -3.613 0.000
v -0.013 -3.613 1.100
v -1.411 -3.613 0.000
v -1.411 -3.613 1.100
v -1.411 -3.613 1.100
v -2.803 -3.613 0.000
v -2.803 -3.613 1.100
v -2.803 -3.613 0.000
v -1.411 -3.613 1.100
v -1.411 -3.613 0.000
v -5.442 1.479 -0.000
v -5.442 1.479 1.000
v -5.442 -0.091 1.000
v -5.442 -0.091 1.000
v -5.442 -0.091 0.000
v -5.442 1.479 -0.000
v -5.442 -0.091 -0.000
v -5.342 -0.091 1.000
v -5.342 -0.091 -0.000
v -5.342 -0.091 1.000
v -5.442 -0.091 -0.000
v -5.442 -0.091 1.000
v -5.342 1.479 1.000
v -5.342 -0.091 1.000
v -5.442 -0.091 1.000
v -5.442 -0.091 1.000
v -5.442 1.479 1.000
v -5.342 1.479 1.000
v -5.342 1.479 1.000
v -5.342 1.479 0.000
v -5.342 -0.091 0.000
v -5.342 -0.091 0.000
v -5.342 -0.091 1.000
v -5.342 1.479 1.000
v -5.342 1.479 -0.000
v -5.442 1.479 1.000
v -5.442 1.479 -0.000
v -5.442 1.479 1.000
v -5.342 1.479 -0.000
v -5.342 1.479 1.000
v -3.556 2.559 1.000
v -3.509 2.471 0.000
v -3.509 2.471 1.000
v -3.509 2.471 0.000
v -3.556 2.559 1.000
v -3.556 2.559 0.000
v -4.372 1.972 1.000
v -3.509 2.471 0.000
v -4.372 1.972 0.000
v -3.509 2.471 0.000
v -4.372 1.972 1.000
v -3.509 2.471 1.000
v -3.509 2.471 1.000
v -4.372 1.972 1.000
v -4.422 2.059 1.000
v -4.422 2.059 1.000
v -3.556 2.559 1.000
v -3.509 2.471 1.000
v -4.422 2.059 0.000
v -4.422 2.059 1.000
v -4.372 1.972 1.000
v -4.372 1.972 1.000
v -4.372 1.972 0.000
v -4.422 2.059 0.000
v -3.556 2.559 0.000
v -4.422 2.059 1.000
v -4.422 2.059 0.000
v -4.422 2.059 1.000
v -3.556 2.559 0.000
v -3.556 2.559 1.000
v -2.509 2.562 1.000
v -2.509 2.562 0.000
v -2.509 2.462 0.000
v -2.509 2.462 0.000
v -2.509 2.462 1.000
v -2.509 2.562 1.000
v -2.509 2.562 0.000
v -3.509 2.562 1.000
v -3.509 2.562 0.000
v -3.509 2.562 1.000
v -2.509 2.562 0.000
v -2.509 2.562 1.000
v -3.509 2.471 -0.000
v -3.509 2.471 1.000
v -3.509 2.462 1.000
v -3.509 2.462 1.000
v -3.509 2.462 -0.000
v -3.509 2.471 -0.000
v -3.509 2.471 1.000
v -3.509 2.562 -0.000
v -3.509 2.562 1.000
v -3.509 2.562 -0.000
v -3.509 2.471 1.000
v -3.509 2.471 -0.000
v -3.509 2.462 0.000
v -2.509 2.462 1.000
v -2.509 2.462 0.000
v -2.509 2.462 1.000
v -3.509 2.462 0.000
v -3.509 2.462 1.000
v -2.509 2.462 1.000
v -3.509 2.462 1.000
v -3.509 2.471 1.000
v -3.509 2.471 1.000
v -3.509 2.562 1.000
v -2.509 2.562 1.000
v -2.509 2.562 1.000
v -2.509 2.462 1.000
v -3.509 2.471 1.000
v -2.390 2.524 1.000
v -1.864 1.668 1.000
v -2.470 2.464 1.000
v -1.864 1.668 1.000
v -2.390 2.524 1.000
v -1.784 1.729 1.000
v -1.784 1.729 1.000
v -2.390 2.524 0.000
v -1.784 1.729 -0.000
v -2.390 2.524 0.000
v -1.784 1.729 1.000
v -2.390 2.524 1.000
v -1.864 1.668 0.000
v -2.470 2.464 1.000
v -1.864 1.668 1.000
v -2.470 2.464 1.000
v -1.864 1.668 0.000
v -2.470 2.464 0.000
v -2.390 2.524 -0.000
v -2.470 2.464 1.000
v -2.470 2.464 -0.000
v -2.470 2.464 1.000
v -2.390 2.524 -0.000
v -2.390 2.524 1.000
v -1.864 1.668 1.000
v -1.784 1.729 1.000
v -1.784 1.729 0.000
v -1.784 1.729 0.000
v -1.864 1.668 0.000
v -1.864 1.668 1.000
v -4.352 1.884 1.000
v -5.281 1.514 1.000
v -5.318 1.607 1.000
v -5.318 1.607 1.000
v -4.389 1.977 1.000
v -4.352 1.884 1.000
v -5.281 1.514 1.000
v -4.352 1.884 1.000
v -4.352 1.884 -0.000
v -4.352 1.884 -0.000
v -5.281 1.514 -0.000
v -5.281 1.514 1.000
v -5.281 1.514 0.000
v -5.318 1.607 1.000
v -5.281 1.514 1.000
v -5.318 1.607 1.000
v -5.281 1.514 0.000
v -5.318 1.607 0.000
v -4.389 1.977 -0.000
v -5.318 1.607 1.000
v -5.318 1.607 -0.000
v -5.318 1.607 1.000
v -4.389 1.977 -0.000
v -4.389 1.977 1.000
v -4.352 1.884 1.000
v -4.389 1.977 0.000
v -4.352 1.884 -0.000
v -4.389 1.977 0.000
v -4.352 1.884 1.000
v -4.389 1.977 1.000
v -0.913 -2.798 0.000
v -0.913 -1.983 1.100
v -0.913 -2.798 1.100
v -0.913 -1.983 1.100
v -0.913 -2.798 0.000
v -0.913 -1.983 -0.000
v -2.803 -3.613 0.000
v -2.803 -2.798 1.100
v -2.803 -3.613 1.100
v -2.803 -2.798 1.100
v -2.803 -3.613 0.000
v -2.803 -2.798 -0.000
v -1.855 -2.798 -0.000
v -2.803 -2.798 1.100
v -2.803 -2.798 -0.000
v -2.803 -2.798 1.100
v -1.855 -2.798 -0.000
v -1.852 -2.798 1.100
v -1.852 -2.798 1.100
v -0.913 -2.798 0.000
v -0.913 -2.798 1.100
v -0.913 -2.798 0.000
v -1.852 -2.798 1.100
v -1.855 -2.798 -0.000
v 0.571 1.160 1.221
v 0.571 1.336 1.416
v 0.571 2.411 1.434
v 0.571 1.160 1.221
v 0.571 2.411 0.050
v 0.571 1.261 0.050
v 0.571 2.411 0.050
v 0.571 1.160 1.221
v 0.571 2.411 1.434
v 0.571 1.336 1.416
v 0.571 1.016 2.736
v 0.571 2.411 2.736
v 0.571 2.411 2.736
v 0.571 2.411 1.434
v 0.571 1.336 1.416
v 0.571 1.160 1.221
v 0.571 1.261 0.050
v 0.571 0.043 0.050
v 0.571 0.043 0.050
v 0.571 -0.012 0.050
v 0.571 -0.012 1.238
v 0.571 -0.012 1.238
v 0.571 1.160 1.221
v 0.571 0.043 0.050
v 0.571 0.499 2.276
v 0.571 1.160 1.221
v 0.571 -0.012 1.238
v 0.571 0.499 2.276
v 0.571 -0.012 2.195
v 0.571 0.499 2.736
v 0.571 0.930 2.276
v 0.571 0.930 2.736
v 0.571 1.016 2.736
v 0.571 -0.012 2.195
v 0.571 0.499 2.276
v 0.571 -0.012 1.238
v 0.571 0.930 2.276
v 0.571 1.016 2.736
v 0.571 1.336 1.416
v 0.571 0.930 2.276
v 0.571 1.160 1.221
v 0.571 0.499 2.276
v 0.571 1.160 1.221
v 0.571 0.930 2.276
v 0.571 1.336 1.416
v 0.571 -1.488 0.050
v 0.571 -2.894 1.458
v 0.571 -1.488 1.315
v 0.571 -3.140 1.192
v 0.571 -1.488 0.050
v 0.571 -3.128 0.050
v 0.571 -2.894 1.458
v 0.571 -1.488 0.050
v 0.571 -3.140 1.192
v 0.571 -1.503 2.736
v 0.571 0.499 2.736
v 0.571 -0.014 2.195
v 0.571 -0.014 2.195
v 0.571 -1.362 2.193
v 0.571 -1.503 2.736
v 0.571 -4.682 1.340
v 0.571 -4.532 1.487
v 0.571 -3.140 1.192
v 0.571 -3.140 1.192
v 0.571 -3.128 0.050
v 0.571 -4.717 0.050
v 0.571 -4.717 0.050
v 0.571 -4.682 1.340
v 0.571 -3.140 1.192
v 0.571 -3.906 2.276
v 0.571 -3.140 1.192
v 0.571 -4.532 1.487
v 0.571 -3.906 2.276
v 0.571 -4.448 2.736
v 0.571 -3.906 2.736
v 0.571 -3.483 2.276
v 0.571 -3.483 2.736
v 0.571 -2.978 2.736
v 0.571 -4.448 2.736
v 0.571 -3.906 2.276
v 0.571 -4.532 1.487
v 0.571 -3.483 2.276
v 0.571 -2.978 2.736
v 0.571 -2.894 1.458
v 0.571 -3.483 2.276
v 0.571 -3.140 1.192
v 0.571 -3.906 2.276
v 0.571 -3.140 1.192
v 0.571 -3.483 2.276
v 0.571 -2.894 1.458
v 0.571 -1.488 2.193
v 0.571 -1.488 1.315
v 0.571 -2.894 1.458
v 0.571 -1.488 2.193
v 0.571 -2.978 2.736
v 0.571 -1.503 2.736
v 0.571 -1.503 2.736
v 0.571 -1.362 2.193
v 0.571 -1.488 2.193
v 0.571 -2.978 2.736
v 0.571 -1.488 2.193
v 0.571 -2.894 1.458
v 0.571 -6.160 2.736
v 0.571 -4.682 1.340
v 0.571 -6.160 1.490
v 0.571 -4.532 1.487
v 0.571 -6.160 2.736
v 0.571 -4.448 2.736
v 0.571 -4.682 1.340
v 0.571 -6.160 2.736
v 0.571 -4.532 1.487
v 0.571 -4.682 1.340
v 0.571 -4.717 0.050
v 0.571 -6.160 0.050
v 0.571 -6.160 0.050
v 0.571 -6.160 1.490
v 0.571 -4.682 1.340
v 0.571 -0.041 0.050
v 0.523 -0.069 2.190
v 0.523 -0.069 0.050
v 0.588 -0.031 2.190
v 0.583 -0.034 0.050
v 0.588 -0.031 0.050
v 0.571 -0.041 0.050
v 0.588 -0.031 2.190
v 0.523 -0.069 2.190
v 0.583 -0.034 0.050
v 0.588 -0.031 2.190
v 0.572 -0.041 0.050
v 1.367 -1.310 1.132
v 0.573 0.044 0.050
v 1.367 -1.310 0.050
v 0.573 0.044 0.050
v 1.367 -1.310 1.132
v 0.573 0.044 1.134
v 0.573 0.044 1.134
v 1.367 -1.310 2.220
v 0.573 0.044 2.220
v 1.367 -1.310 2.220
v 0.573 0.044 1.134
v 1.367 -1.310 1.132
v 0.547 0.029 0.050
v 0.573 0.044 0.050
v 0.573 0.044 2.220
v 0.573 0.044 2.220
v 0.547 0.029 2.220
v 0.547 0.029 0.050
v 0.523 -0.069 1.122
v 0.523 -0.069 2.190
v 1.247 -1.302 2.190
v 1.247 -1.302 2.190
v 1.247 -1.302 1.122
v 0.523 -0.069 1.122
v 1.247 -1.302 1.122
v 1.247 -1.302 0.050
v 0.572 -0.152 0.050
v 0.571 -0.150 0.050
v 0.523 -0.069 0.050
v 0.523 -0.069 1.122
v 0.523 -0.069 1.122
v 1.247 -1.302 1.122
v 0.572 -0.152 0.050
v 0.572 -0.152 0.050
v 0.571 -0.150 0.050
v 0.523 -0.069 1.122
v 1.311 -1.264 2.190
v 1.311 -1.264 0.050
v 1.307 -1.267 0.050
v 1.307 -1.267 0.050
v 1.252 -1.308 0.050
v 1.252 -1.308 2.190
v 1.252 -1.308 2.190
v 1.311 -1.264 2.190
v 1.307 -1.267 0.050
v 0.547 0.029 1.134
v 0.547 0.029 2.220
v 1.341 -1.326 2.220
v 1.341 -1.326 2.220
v 1.341 -1.326 1.129
v 0.547 0.029 1.134
v 1.341 -1.326 1.129
v 1.341 -1.326 0.050
v 1.307 -1.267 0.050
v 0.547 0.029 1.134
v 0.572 -0.014 0.050
v 0.571 -0.012 0.050
v 0.571 -0.012 0.050
v 0.547 0.029 0.050
v 0.547 0.029 1.134
v 0.584 -0.034 0.050
v 1.341 -1.326 1.129
v 1.307 -1.267 0.050
v 0.572 -0.014 0.050
v 0.547 0.029 1.134
v 0.584 -0.034 0.050
v 1.341 -1.326 1.129
v 0.584 -0.034 0.050
v 0.547 0.029 1.134
v 1.311 -1.264 2.190
v 1.247 -1.302 2.190
v 0.523 -0.069 2.190
v 0.523 -0.069 2.190
v 0.588 -0.031 2.190
v 1.311 -1.264 2.190
v 1.341 -1.326 0.050
v 1.367 -1.310 2.220
v 1.367 -1.310 0.050
v 1.367 -1.310 2.220
v 1.341 -1.326 0.050
v 1.341 -1.326 2.220
v 1.367 -1.310 2.220
v 1.341 -1.326 2.220
v 0.547 0.029 2.220
v 0.547 0.029 2.220
v 0.573 0.044 2.220
v 1.367 -1.310 2.220
v 1.341 -1.326 0.050
v 1.311 -1.264 0.050
v 1.367 -1.310 0.050
v 1.367 -1.310 0.050
v 0.588 -0.031 0.050
v 0.573 0.044 0.050
v 0.588 -0.031 0.050
v 1.367 -1.310 0.050
v 1.311 -1.264 0.050
v 1.307 -1.267 0.050
v 1.247 -1.302 0.050
v 0.572 -0.152 0.050
v 0.583 -0.034 0.050
v 1.307 -1.267 0.050
v 0.572 -0.152 0.050
v 6.102 -6.160 0.050
v 4.680 -4.803 0.050
v 6.102 -5.143 0.050
v 4.680 -4.803 0.050
v 6.102 -6.160 0.050
v 4.307 -6.160 0.050
v 4.680 -4.803 0.050
v 4.307 -6.160 0.050
v 4.301 -5.102 0.050
v 4.307 -6.160 0.050
v 3.407 -4.711 0.050
v 4.301 -5.102 0.050
v 2.433 -5.592 0.050
v 4.307 -6.160 0.050
v 2.424 -6.160 0.050
v 3.407 -4.711 0.050
v 4.307 -6.160 0.050
v 2.433 -5.592 0.050
v 4.680 -4.803 0.050
v 4.836 -3.719 0.050
v 6.102 -3.650 0.050
v 6.102 -3.650 0.050
v 6.102 -5.143 0.050
v 4.680 -4.803 0.050
v 4.680 -4.803 0.050
v 4.301 -5.102 0.050
v 3.407 -4.711 0.050
v 3.407 -4.711 0.050
v 3.185 -3.972 0.050
v 3.609 -3.356 0.050
v 3.609 -3.356 0.050
v 4.525 -3.350 0.050
v 4.836 -3.719 0.050
v 4.836 -3.719 0.050
v 4.680 -4.803 0.050
v 3.407 -4.711 0.050
v 3.407 -4.711 0.050
v 3.609 -3.356 0.050
v 4.836 -3.719 0.050
v 3.407 -4.711 0.050
v 2.433 -5.592 0.050
v 1.730 -4.755 0.050
v 1.730 -4.755 0.050
v 2.087 -3.847 0.050
v 3.185 -3.972 0.050
v 3.185 -3.972 0.050
v 3.407 -4.711 0.050
v 1.730 -4.755 0.050
v 4.836 -3.719 0.050
v 4.525 -3.350 0.050
v 4.882 -2.318 0.050
v 4.882 -2.318 0.050
v 6.102 -2.327 0.050
v 6.102 -3.650 0.050
v 6.102 -3.650 0.050
v 4.836 -3.719 0.050
v 4.882 -2.318 0.050
v 4.882 -2.318 0.050
v 3.609 -3.356 0.050
v 3.173 -2.475 0.050
v 4.882 -2.318 0.050
v 3.548 -1.833 0.050
v 4.527 -1.806 0.050
v 3.609 -3.356 0.050
v 4.882 -2.318 0.050
v 4.525 -3.350 0.050
v 3.548 -1.833 0.050
v 4.882 -2.318 0.050
v 3.173 -2.475 0.050
v 4.882 -2.318 0.050
v 4.527 -1.806 0.050
v 4.873 -0.911 0.050
v 4.882 -2.318 0.050
v 6.102 -0.903 0.050
v 6.102 -2.327 0.050
v 6.102 -0.903 0.050
v 4.882 -2.318 0.050
v 4.873 -0.911 0.050
v 3.455 -0.413 0.050
v 3.548 -1.833 0.050
v 3.114 -0.977 0.050
v 4.873 -0.911 0.050
v 3.455 -0.413 0.050
v 4.531 -0.375 0.050
v 3.548 -1.833 0.050
v 4.873 -0.911 0.050
v 4.527 -1.806 0.050
v 3.455 -0.413 0.050
v 4.873 -0.911 0.050
v 3.548 -1.833 0.050
v 4.873 -0.911 0.050
v 4.531 -0.375 0.050
v 4.834 0.519 0.050
v 4.873 -0.911 0.050
v 6.102 0.522 0.050
v 6.102 -0.903 0.050
v 6.102 0.522 0.050
v 4.873 -0.911 0.050
v 4.834 0.519 0.050
v 0.571 -6.160 0.050
v 2.433 -5.592 0.050
v 2.424 -6.160 0.050
v 1.730 -4.755 0.050
v 0.571 -6.160 0.050
v 0.571 -4.914 0.050
v 0.571 -6.160 0.050
v 1.730 -4.755 0.050
v 2.433 -5.592 0.050
v 2.087 -3.847 0.050
v 1.817 -3.384 0.050
v 2.176 -2.502 0.050
v 3.185 -3.972 0.050
v 3.173 -2.475 0.050
v 3.609 -3.356 0.050
v 3.173 -2.475 0.050
v 3.185 -3.972 0.050
v 2.087 -3.847 0.050
v 3.173 -2.475 0.050
v 2.087 -3.847 0.050
v 2.176 -2.502 0.050
v 1.817 -3.384 0.050
v 2.087 -3.847 0.050
v 1.730 -4.755 0.050
v 1.730 -4.755 0.050
v 0.571 -4.914 0.050
v 0.571 -3.333 0.050
v 0.571 -3.333 0.050
v 1.817 -3.384 0.050
v 1.730 -4.755 0.050
v 3.340 0.920 0.050
v 3.455 -0.413 0.050
v 3.065 0.581 0.050
v 3.455 -0.413 0.050
v 3.340 0.920 0.050
v 4.584 0.898 0.050
v 4.584 0.898 0.050
v 4.834 0.519 0.050
v 4.531 -0.375 0.050
v 3.455 -0.413 0.050
v 4.584 0.898 0.050
v 4.531 -0.375 0.050
v 3.548 -1.833 0.050
v 1.804 -1.923 0.050
v 2.163 -1.017 0.050
v 2.163 -1.017 0.050
v 3.114 -0.977 0.050
v 3.548 -1.833 0.050
v 1.804 -1.923 0.050
v 3.173 -2.475 0.050
v 2.176 -2.502 0.050
v 3.173 -2.475 0.050
v 1.804 -1.923 0.050
v 3.548 -1.833 0.050
v 1.247 -1.302 0.050
v 1.307 -1.267 0.050
v 1.341 -1.326 0.050
v 1.367 -1.310 0.050
v 0.864 -0.453 0.050
v 1.751 -0.456 0.050
v 1.367 -1.310 0.050
v 2.163 -1.017 0.050
v 1.804 -1.923 0.050
v 1.247 -1.302 0.050
v 0.571 -1.928 0.050
v 0.571 -1.488 0.050
v 0.571 -1.488 0.050
v 0.572 -0.452 0.050
v 0.748 -0.453 0.050
v 2.163 -1.017 0.050
v 1.367 -1.310 0.050
v 1.751 -0.456 0.050
v 0.571 -1.488 0.050
v 0.748 -0.453 0.050
v 1.247 -1.302 0.050
v 1.341 -1.326 0.050
v 1.367 -1.310 0.050
v 1.804 -1.923 0.050
v 1.341 -1.326 0.050
v 0.571 -1.928 0.050
v 1.247 -1.302 0.050
v 0.571 -1.928 0.050
v 1.341 -1.326 0.050
v 1.804 -1.923 0.050
v 6.102 1.903 0.050
v 4.584 0.898 0.050
v 4.816 2.021 0.050
v 4.584 0.898 0.050
v 6.102 1.903 0.050
v 6.102 0.522 0.050
v 4.584 0.898 0.050
v 6.102 0.522 0.050
v 4.834 0.519 0.050
v 3.455 -0.413 0.050
v 1.751 -0.456 0.050
v 2.173 0.577 0.050
v 2.173 0.577 0.050
v 3.065 0.581 0.050
v 3.455 -0.413 0.050
v 3.455 -0.413 0.050
v 3.114 -0.977 0.050
v 2.163 -1.017 0.050
v 1.751 -0.456 0.050
v 3.455 -0.413 0.050
v 2.163 -1.017 0.050
v 1.804 -1.923 0.050
v 2.176 -2.502 0.050
v 1.817 -3.384 0.050
v 1.804 -1.923 0.050
v 0.571 -3.333 0.050
v 0.571 -1.928 0.050
v 0.571 -3.333 0.050
v 1.804 -1.923 0.050
v 1.817 -3.384 0.050
v 4.584 0.898 0.050
v 3.340 0.920 0.050
v 3.222 2.167 0.050
v 3.222 2.167 0.050
v 4.816 2.021 0.050
v 4.584 0.898 0.050
v 1.807 1.012 0.050
v 0.571 0.971 0.050
v 0.571 2.411 0.050
v 0.571 2.411 0.050
v 2.081 2.272 0.050
v 1.807 1.012 0.050
v 3.222 2.167 0.050
v 1.807 1.012 0.050
v 2.081 2.272 0.050
v 1.807 1.012 0.050
v 3.222 2.167 0.050
v 3.340 0.920 0.050
v 3.340 0.920 0.050
v 3.065 0.581 0.050
v 2.173 0.577 0.050
v 1.807 1.012 0.050
v 3.340 0.920 0.050
v 2.173 0.577 0.050
v 1.807 1.012 0.050
v 2.173 0.577 0.050
v 1.751 -0.456 0.050
v 1.751 -0.456 0.050
v 0.864 -0.453 0.050
v 0.573 0.044 0.050
v 0.573 0.044 0.050
v 1.807 1.012 0.050
v 1.751 -0.456 0.050
v 1.807 1.012 0.050
v 0.573 0.044 0.050
v 0.571 0.971 0.050
v 0.572 -0.452 0.050
v 0.572 -0.152 0.050
v 0.748 -0.453 0.050
v 0.000 -1.488 0.050
v 0.571 -0.150 0.050
v 0.571 -1.488 0.050
v 0.571 -0.150 0.050
v 0.000 -1.488 0.050
v 0.000 -0.012 0.050
v 0.571 -0.150 0.050
v 0.000 -0.012 0.050
v 0.523 -0.069 0.050
v 0.571 -0.012 0.050
v 0.523 -0.069 0.050
v 0.000 -0.012 0.050
v 1.311 -1.264 0.050
v 1.307 -1.267 0.050
v 0.583 -0.034 0.050
v 0.583 -0.034 0.050
v 0.588 -0.031 0.050
v 1.311 -1.264 0.050
v -1.741 1.715 0.000
v -0.115 1.598 1.100
v -0.115 1.598 -0.000
v -0.115 1.598 1.100
v -1.741 1.715 0.000
v -1.741 1.715 1.100

usemtl Patch_1_Mat_CR1_paintedConcrete
f 3 2 1
f 6 5 4
f 9 8 7

usemtl Patch_2_Mat_CR1_paintedConcrete
f 12 11 10
f 15 14 13
f 18 17 16

usemtl Patch_3_Mat_CR1_paintedConcrete
f 21 20 19
f 24 23 22

usemtl Patch_4_Mat_CR1_paintedConcrete
f 27 26 25
f 30 29 28
f 33 32 31

usemtl Patch_5_Mat_CR1_paintedConcrete
f 36 35 34
f 39 38 37
f 42 41 40

usemtl Patch_6_Mat_CR1_paintedConcrete
f 45 44 43
f 48 47 46
f 51 50 49

usemtl Patch_7_Mat_CR1_paintedConcrete
f 54 53 52
f 57 56 55

usemtl Patch_8_Mat_CR1_paintedConcrete
f 60 59 58
f 63 62 61

usemtl Patch_9_Mat_CR1_paintedConcrete
f 66 65 64
f 69 68 67

usemtl Patch_10_Mat_CR1_paintedConcrete
f 72 71 70
f 75 74 73

usemtl Patch_11_Mat_CR1_paintedConcrete
f 78 77 76
f 81 80 79

usemtl Patch_12_Mat_CR1_paintedConcrete
f 84 83 82
f 87 86 85

usemtl Patch_13_Mat_CR1_paintedConcrete
f 90 89 88
f 93 92 91

usemtl Patch_14_Mat_CR1_paintedConcrete
f 96 95 94
f 99 98 97

usemtl Patch_15_Mat_CR1_paintedConcrete
f 102 101 100
f 105 104 103

usemtl Patch_16_Mat_CR1_paintedConcrete
f 108 107 106
f 111 110 109

usemtl Patch_17_Mat_CR1_paintedConcrete
f 114 113 112
f 117 116 115

usemtl Patch_18_Mat_CR1_paintedConcrete
f 120 119 118
f 123 122 121

usemtl Patch_19_Mat_CR1_paintedConcrete
f 126 125 124
f 129 128 127

usemtl Patch_20_Mat_CR1_paintedConcrete
f 132 131 130
f 135 134 133

usemtl Patch_21_Mat_CR1_paintedConcrete
f 138 137 136
f 141 140 139

usemtl Patch_22_Mat_CR1_paintedConcrete
f 144 143 142
f 147 146 145

usemtl Patch_23_Mat_CR1_paintedConcrete
f 150 149 148
f 153 152 151

usemtl Patch_24_Mat_CR1_paintedConcrete
f 156 155 154
f 159 158 157

usemtl Patch_25_Mat_CR1_paintedConcrete
f 162 161 160
f 165 164 163
f 168 167 166
f 171 170 169

usemtl Patch_26_Mat_CR1_paintedConcrete
f 174 173 172
f 177 176 175
f 180 179 178

usemtl Patch_27_Mat_CR1_paintedConcrete
f 183 182 181
f 186 185 184
f 189 188 187
f 192 191 190

usemtl Patch_28_Mat_CR1_paintedConcrete
f 195 194 193
f 198 197 196

usemtl Patch_29_Mat_CR1_paintedConcrete
f 201 200 199
f 204 203 202
f 207 206 205

usemtl Patch_30_Mat_CR1_paintedConcrete
f 210 209 208
f 213 212 211
f 216 215 214
f 219 218 217

usemtl Patch_31_Mat_CR1_paintedConcrete
f 222 221 220
f 225 224 223
f 228 227 226

usemtl Patch_32_Mat_CR1_paintedConcrete
f 231 230 229
f 234 233 232

usemtl Patch_33_Mat_CR1_paintedConcrete
f 237 236 235
f 240 239 238
f 243 242 241
f 246 245 244

usemtl Patch_34_Mat_CR1_paintedConcrete
f 249 248 247
f 252 251 250

usemtl Patch_35_Mat_CR1_paintedConcrete
f 255 254 253
f 258 257 256
f 261 260 259

usemtl Patch_36_Mat_CR1_concrete
f 264 263 262
f 267 266 265
f 270 269 268
f 273 272 271
f 276 275 274
f 279 278 277
f 282 281 280
f 285 284 283

usemtl Patch_37_Mat_CR1_concrete
f 288 287 286
f 291 290 289
f 294 293 292
f 297 296 295
f 300 299 298
f 303 302 301
f 306 305 304
f 309 308 307
f 312 311 310
f 315 314 313

usemtl Patch_38_Mat_CR1_concrete
f 318 317 316
f 321 320 319
f 324 323 322
f 327 326 325

usemtl Patch_39_Mat_CR1_concrete
f 330 329 328
f 333 332 331
f 336 335 334
f 339 338 337

usemtl Patch_40_Mat_CR1_concrete
f 342 341 340
f 345 344 343
f 348 347 346
f 351 350 349
f 354 353 352
f 357 356 355
f 360 359 358
f 363 362 361

usemtl Patch_41_Mat_CR1_concrete
f 366 365 364
f 369 368 367
f 372 371 370
f 375 374 373
f 378 377 376

usemtl Patch_42_Mat_CR1_concrete
f 381 380 379
f 384 383 382
f 387 386 385

usemtl Patch_43_Mat_CR1_concrete
f 390 389 388
f 393 392 391
f 396 395 394
f 399 398 397
f 402 401 400
f 405 404 403

usemtl Patch_44_Mat_CR1_concrete
f 408 407 406
f 411 410 409
f 414 413 412
f 417 416 415
f 420 419 418
f 423 422 421

usemtl Patch_45_Mat_CR1_concrete
f 426 425 424
f 429 428 427
f 432 431 430

usemtl Patch_46_Mat_CR1_concrete
f 435 434 433
f 438 437 436
f 441 440 439
f 444 443 442

usemtl Patch_47_Mat_CR1_concrete
f 447 446 445
f 450 449 448
f 453 452 451
f 456 455 454

usemtl Patch_48_Mat_CR1_concrete
f 459 458 457
f 462 461 460
f 465 464 463
f 468 467 466
f 471 470 469
f 474 473 472
f 477 476 475

usemtl Patch_49_Mat_CR1_concrete
f 480 479 478
f 483 482 481
f 486 485 484
f 489 488 487
f 492 491 490
f 495 494 493
f 498 497 496
f 501 500 499
f 504 503 502
f 507 506 505
f 510 509 508
f 513 512 511
f 516 515 514
f 519 518 517

usemtl Patch_50_Mat_CR1_concrete
f 522 521 520
f 525 524 523
f 528 527 526
f 531 530 529
f 534 533 532
f 537 536 535
f 540 539 538
f 543 542 541
f 546 545 544
f 549 548 547
f 552 551 550
f 555 554 553
f 558 557 556
f 561 560 559
f 564 563 562
f 567 566 565
f 570 569 568
f 573 572 571

usemtl Patch_51_Mat_CR1_concrete
f 576 575 574
f 579 578 577
f 582 581 580
f 585 584 583
f 588 587 586
f 591 590 589
f 594 593 592
f 597 596 595
f 600 599 598
f 603 602 601
f 606 605 604
f 609 608 607
f 612 611 610
f 615 614 613
f 618 617 616
f 621 620 619
f 624 623 622

usemtl Patch_52_Mat_CR1_concrete
f 627 626 625
f 630 629 628
f 633 632 631
f 636 635 634
f 639 638 637
f 642 641 640

usemtl Patch_53_Mat_CR1_concrete
f 645 644 643
f 648 647 646

usemtl Patch_54_Mat_CR1_concrete
f 651 650 649
f 654 653 652
f 657 656 655

usemtl Patch_55_Mat_CR1_concrete
f 660 659 658
f 663 662 661
f 666 665 664

usemtl Patch_56_Mat_CR1_concrete
f 669 668 667
f 672 671 670
f 675 674 673

usemtl Patch_57_Mat_CR1_concrete
f 678 677 676
f 681 680 679
f 684 683 682

usemtl Patch_58_Mat_CR1_concrete
f 687 686 685
f 690 689 688
f 693 692 691

usemtl Patch_59_Mat_CR1_concrete
f 696 695 694
f 699 698 697
f 702 701 700

usemtl Patch_60_Mat_CR1_concrete
f 705 704 703
f 708 707 706
f 711 710 709

usemtl Patch_61_Mat_CR1_concrete
f 714 713 712
f 717 716 715

usemtl Patch_62_Mat_CR1_concrete
f 720 719 718
f 723 722 721

usemtl Patch_63_Mat_CR1_concrete
f 726 725 724
f 729 728 727

usemtl Patch_64_Mat_CR1_concrete
f 732 731 730
f 735 734 733
f 738 737 736

usemtl Patch_65_Mat_CR1_concrete
f 741 740 739
f 744 743 742
f 747 746 745

usemtl Patch_66_Mat_CR1_concrete
f 750 749 748
f 753 752 751
f 756 755 754

usemtl Patch_67_Mat_CR1_concrete
f 759 758 757
f 762 761 760

usemtl Patch_68_Mat_CR1_concrete
f 765 764 763
f 768 767 766

usemtl Patch_69_Mat_CR1_concrete
f 771 770 769
f 774 773 772
f 777 776 775

usemtl Patch_70_Mat_CR1_concrete
f 780 779 778
f 783 782 781
f 786 785 784

usemtl Patch_71_Mat_CR1_concrete
f 789 788 787
f 792 791 790
f 795 794 793

usemtl Patch_72_Mat_CR1_concrete
f 798 797 796
f 801 800 799
f 804 803 802
f 807 806 805

usemtl Patch_73_Mat_CR1_concrete
f 810 809 808
f 813 812 811
f 816 815 814
f 819 818 817
f 822 821 820
f 825 824 823
f 828 827 826

usemtl Patch_74_Mat_CR1_concrete
f 831 830 829
f 834 833 832

usemtl Patch_75_Mat_CR1_concrete
f 837 836 835
f 840 839 838
f 843 842 841
f 846 845 844
f 849 848 847

usemtl Patch_76_Mat_CR1_concrete
f 852 851 850
f 855 854 853

usemtl Patch_77_Mat_CR1_concrete
f 858 857 856
f 861 860 859

usemtl Patch_78_Mat_CR1_concrete
f 864 863 862
f 867 866 865

usemtl Patch_79_Mat_CR1_concrete
f 870 869 868
f 873 872 871

usemtl Patch_80_Mat_CR1_concrete
f 876 875 874
f 879 878 877

usemtl Patch_81_Mat_CR1_concrete
f 882 881 880
f 885 884 883

usemtl Patch_82_Mat_CR1_concrete
f 888 887 886
f 891 890 889

usemtl Patch_83_Mat_CR1_concrete
f 894 893 892
f 897 896 895

usemtl Patch_84_Mat_CR1_concrete
f 900 899 898
f 903 902 901

usemtl Patch_85_Mat_CR1_concrete
f 906 905 904
f 909 908 907

usemtl Patch_86_Mat_CR1_concrete
f 912 911 910
f 915 914 913
f 918 917 916

usemtl Patch_87_Mat_CR1_concrete
f 921 920 919
f 924 923 922
f 927 926 925
f 930 929 928

usemtl Patch_88_Mat_CR1_concrete
f 933 932 931
f 936 935 934
f 939 938 937
f 942 941 940

usemtl Patch_89_Mat_CR1_concrete
f 945 944 943
f 948 947 946

usemtl Patch_90_Mat_CR1_concrete
f 951 950 949
f 954 953 952
f 957 956 955

usemtl Patch_91_Mat_CR1_concrete
f 960 959 958
f 963 962 961

usemtl Patch_92_Mat_CR1_concrete
f 966 965 964
f 969 968 967
f 972 971 970
f 975 974 973

usemtl Patch_93_Mat_CR1_concrete
f 978 977 976
f 981 980 979
f 984 983 982

usemtl Patch_94_Mat_CR1_concrete
f 987 986 985
f 990 989 988
f 993 992 991

usemtl Patch_95_Mat_CR1_concrete
f 996 995 994
f 999 998 997
f 1002 1001 1000

usemtl Patch_96_Mat_CR1_concrete
f 1005 1004 1003
f 1008 1007 1006
f 1011 1010 1009

usemtl Patch_97_Mat_CR1_concrete
f 1014 1013 1012
f 1017 1016 1015
f 1020 1019 1018

usemtl Patch_98_Mat_CR1_concrete
f 1023 1022 1021
f 1026 1025 1024

usemtl Patch_99_Mat_CR1_concrete
f 1029 1028 1027
f 1032 1031 1030
f 1035 1034 1033

usemtl Patch_100_Mat_CR1_concrete
f 1038 1037 1036
f 1041 1040 1039
f 1044 1043 1042

usemtl Patch_101_Mat_CR1_concrete
f 1047 1046 1045
f 1050 1049 1048
f 1053 1052 1051

usemtl Patch_102_Mat_CR1_concrete
f 1056 1055 1054
f 1059 1058 1057
f 1062 1061 1060

usemtl Patch_103_Mat_CR1_concrete
f 1065 1064 1063
f 1068 1067 1066
f 1071 1070 1069

usemtl Patch_104_Mat_CR1_concrete
f 1074 1073 1072
f 1077 1076 1075
f 1080 1079 1078

usemtl Patch_105_Mat_CR1_concrete
f 1083 1082 1081
f 1086 1085 1084
f 1089 1088 1087

usemtl Patch_106_Mat_CR1_concrete
f 1092 1091 1090
f 1095 1094 1093

usemtl Patch_107_Mat_CR1_concrete
f 1098 1097 1096
f 1101 1100 1099

usemtl Patch_108_Mat_CR1_concrete
f 1104 1103 1102
f 1107 1106 1105
f 1110 1109 1108
f 1113 1112 1111

usemtl Patch_109_Mat_CR1_concrete
f 1116 1115 1114
f 1119 1118 1117
f 1122 1121 1120
f 1125 1124 1123
f 1128 1127 1126

usemtl Patch_110_Mat_CR1_concrete
f 1131 1130 1129
f 1134 1133 1132
f 1137 1136 1135
f 1140 1139 1138
f 1143 1142 1141

usemtl Patch_111_Mat_CR1_concrete
f 1146 1145 1144
f 1149 1148 1147
f 1152 1151 1150
f 1155 1154 1153
f 1158 1157 1156
f 1161 1160 1159
f 1164 1163 1162
f 1167 1166 1165

usemtl Patch_112_Mat_CR1_concrete
f 1170 1169 1168
f 1173 1172 1171
f 1176 1175 1174

usemtl Patch_113_Mat_CR1_concrete
f 1179 1178 1177
f 1182 1181 1180

usemtl Patch_114_Mat_CR1_paintedConcrete
f 1185 1184 1183
f 1188 1187 1186

usemtl Patch_115_Mat_CR1_paintedConcrete
f 1191 1190 1189
f 1194 1193 1192
f 1197 1196 1195

usemtl Patch_116_Mat_CR1_paintedConcrete
f 1200 1199 1198
f 1203 1202 1201
f 1206 1205 1204
f 1209 1208 1207

usemtl Patch_117_Mat_CR1_paintedConcrete
f 1212 1211 1210
f 1215 1214 1213
f 1218 1217 1216

usemtl Patch_118_Mat_CR1_paintedConcrete
f 1221 1220 1219
f 1224 1223 1222

usemtl Patch_119_Mat_CR1_paintedConcrete
f 1227 1226 1225
f 1230 1229 1228
f 1233 1232 1231

usemtl Patch_120_Mat_CR1_paintedConcrete
f 1236 1235 1234
f 1239 1238 1237
f 1242 1241 1240

usemtl Patch_121_Mat_CR1_paintedConcrete
f 1245 1244 1243
f 1248 1247 1246

usemtl Patch_122_Mat_CR1_paintedConcrete
f 1251 1250 1249
f 1254 1253 1252
f 1257 1256 1255
f 1260 1259 1258
f 1263 1262 1261
f 1266 1265 1264
f 1269 1268 1267

usemtl Patch_123_Mat_CR1_paintedConcrete
f 1272 1271 1270
f 1275 1274 1273
f 1278 1277 1276

usemtl Patch_124_Mat_CR1_paintedConcrete
f 1281 1280 1279
f 1284 1283 1282

usemtl Patch_125_Mat_CR1_paintedConcrete
f 1287 1286 1285
f 1290 1289 1288
f 1293 1292 1291

usemtl Patch_126_Mat_CR1_paintedConcrete
f 1296 1295 1294
f 1299 1298 1297
f 1302 1301 1300

usemtl Patch_127_Mat_CR1_paintedConcrete
f 1305 1304 1303
f 1308 1307 1306
f 1311 1310 1309

usemtl Patch_128_Mat_CR1_paintedConcrete
f 1314 1313 1312
f 1317 1316 1315
f 1320 1319 1318

usemtl Patch_129_Mat_CR1_paintedConcrete
f 1323 1322 1321
f 1326 1325 1324
f 1329 1328 1327
f 1332 1331 1330
f 1335 1334 1333
f 1338 1337 1336
f 1341 1340 1339

usemtl Patch_130_Mat_CR1_paintedConcrete
f 1344 1343 1342
f 1347 1346 1345
f 1350 1349 1348

usemtl Patch_131_Mat_CR1_paintedConcrete
f 1353 1352 1351
f 1356 1355 1354
f 1359 1358 1357

usemtl Patch_132_Mat_CR1_paintedConcrete
f 1362 1361 1360
f 1365 1364 1363

usemtl Patch_133_Mat_CR1_paintedConcrete
f 1368 1367 1366
f 1371 1370 1369

usemtl Patch_134_Mat_CR1_paintedConcrete
f 1374 1373 1372
f 1377 1376 1375

usemtl Patch_135_Mat_CR1_paintedConcrete
f 1380 1379 1378
f 1383 1382 1381
f 1386 1385 1384

usemtl Patch_136_Mat_CR1_paintedConcrete
f 1389 1388 1387
f 1392 1391 1390
f 1395 1394 1393
f 1398 1397 1396

usemtl Patch_137_Mat_CR1_paintedConcrete
f 1401 1400 1399
f 1404 1403 1402
f 1407 1406 1405

usemtl Patch_138_Mat_CR1_paintedConcrete
f 1410 1409 1408
f 1413 1412 1411

usemtl Patch_139_Mat_CR1_paintedConcrete
f 1416 1415 1414
f 1419 1418 1417
f 1422 1421 1420

usemtl Patch_140_Mat_CR1_paintedConcrete
f 1425 1424 1423
f 1428 1427 1426
f 1431 1430 1429

usemtl Patch_141_Mat_CR1_concrete
f 1434 1433 1432
f 1437 1436 1435

usemtl Patch_142_Mat_CR1_concrete
f 1440 1439 1438
f 1443 1442 1441

usemtl Patch_143_Mat_CR1_concrete
f 1446 1445 1444
f 1449 1448 1447

usemtl Patch_144_Mat_CR1_concrete
f 1452 1451 1450

usemtl Patch_145_Mat_CR1_tablesEquipment
f 1455 1454 1453
f 1458 1457 1456

usemtl Patch_146_Mat_CR1_tablesEquipment
f 1461 1460 1459
f 1464 1463 1462

usemtl Patch_147_Mat_CR1_tablesEquipment
f 1467 1466 1465
f 1470 1469 1468

usemtl Patch_148_Mat_CR1_tablesEquipment
f 1473 1472 1471
f 1476 1475 1474

usemtl Patch_149_Mat_CR1_tablesEquipment
f 1479 1478 1477
f 1482 1481 1480

usemtl Patch_150_Mat_CR1_tablesEquipment
f 1485 1484 1483
f 1488 1487 1486

usemtl Patch_151_Mat_CR1_tablesEquipment
f 1491 1490 1489
f 1494 1493 1492

usemtl Patch_152_Mat_CR1_tablesEquipment
f 1497 1496 1495
f 1500 1499 1498

usemtl Patch_153_Mat_CR1_tablesEquipment
f 1503 1502 1501
f 1506 1505 1504

usemtl Patch_154_Mat_CR1_tablesEquipment
f 1509 1508 1507
f 1512 1511 1510

usemtl Patch_155_Mat_CR1_tablesEquipment
f 1515 1514 1513
f 1518 1517 1516

usemtl Patch_156_Mat_CR1_tablesEquipment
f 1521 1520 1519
f 1524 1523 1522

usemtl Patch_157_Mat_CR1_tablesEquipment
f 1527 1526 1525
f 1530 1529 1528

usemtl Patch_158_Mat_CR1_tablesEquipment
f 1533 1532 1531
f 1536 1535 1534

usemtl Patch_159_Mat_CR1_tablesEquipment
f 1539 1538 1537
f 1542 1541 1540

usemtl Patch_160_Mat_CR1_tablesEquipment
f 1545 1544 1543
f 1548 1547 1546

usemtl Patch_161_Mat_CR1_tablesEquipment
f 1551 1550 1549
f 1554 1553 1552
f 1557 1556 1555
f 1560 1559 1558

usemtl Patch_162_Mat_CR1_tablesEquipment
f 1563 1562 1561
f 1566 1565 1564

usemtl Patch_163_Mat_CR1_tablesEquipment
f 1569 1568 1567
f 1572 1571 1570

usemtl Patch_164_Mat_CR1_tablesEquipment
f 1575 1574 1573
f 1578 1577 1576

usemtl Patch_165_Mat_CR1_absorber
f 1581 1580 1579
f 1584 1583 1582

usemtl Patch_166_Mat_CR1_absorber
f 1587 1586 1585
f 1590 1589 1588

usemtl Patch_167_Mat_CR1_absorber
f 1593 1592 1591
f 1596 1595 1594

usemtl Patch_168_Mat_CR1_absorber
f 1599 1598 1597
f 1602 1601 1600

usemtl Patch_169_Mat_CR1_absorber
f 1605 1604 1603
f 1608 1607 1606

usemtl Patch_170_Mat_CR1_absorber
f 1611 1610 1609
f 1614 1613 1612

usemtl Patch_171_Mat_CR1_absorber
f 1617 1616 1615
f 1620 1619 1618

usemtl Patch_172_Mat_CR1_absorber
f 1623 1622 1621
f 1626 1625 1624

usemtl Patch_173_Mat_CR1_absorber
f 1629 1628 1627
f 1632 1631 1630

usemtl Patch_174_Mat_CR1_absorber
f 1635 1634 1633
f 1638 1637 1636

usemtl Patch_175_Mat_CR1_absorber
f 1641 1640 1639
f 1644 1643 1642

usemtl Patch_176_Mat_CR1_absorber
f 1647 1646 1645
f 1650 1649 1648

usemtl Patch_177_Mat_CR1_absorber
f 1653 1652 1651
f 1656 1655 1654
f 1659 1658 1657
f 1662 1661 1660

usemtl Patch_178_Mat_CR1_absorber
f 1665 1664 1663
f 1668 1667 1666

usemtl Patch_179_Mat_CR1_absorber
f 1671 1670 1669
f 1674 1673 1672
f 1677 1676 1675

usemtl Patch_180_Mat_CR1_absorber
f 1680 1679 1678
f 1683 1682 1681

usemtl Patch_181_Mat_CR1_absorber
f 1686 1685 1684
f 1689 1688 1687

usemtl Patch_182_Mat_CR1_absorber
f 1692 1691 1690
f 1695 1694 1693

usemtl Patch_183_Mat_CR1_absorber
f 1698 1697 1696
f 1701 1700 1699

usemtl Patch_184_Mat_CR1_absorber
f 1704 1703 1702
f 1707 1706 1705

usemtl Patch_185_Mat_CR1_absorber
f 1710 1709 1708
f 1713 1712 1711

usemtl Patch_186_Mat_CR1_absorber
f 1716 1715 1714
f 1719 1718 1717

usemtl Patch_187_Mat_CR1_absorber
f 1722 1721 1720
f 1725 1724 1723

usemtl Patch_188_Mat_CR1_absorber
f 1728 1727 1726
f 1731 1730 1729

usemtl Patch_189_Mat_CR1_absorber
f 1734 1733 1732
f 1737 1736 1735

usemtl Patch_190_Mat_CR1_tablesEquipment
f 1740 1739 1738
f 1743 1742 1741

usemtl Patch_191_Mat_CR1_tablesEquipment
f 1746 1745 1744
f 1749 1748 1747

usemtl Patch_192_Mat_CR1_tablesEquipment
f 1752 1751 1750
f 1755 1754 1753

usemtl Patch_193_Mat_CR1_tablesEquipment
f 1758 1757 1756
f 1761 1760 1759

usemtl Patch_194_Mat_CR1_paintedConcrete
f 1764 1763 1762
f 1767 1766 1765
f 1770 1769 1768

usemtl Patch_195_Mat_CR1_paintedConcrete
f 1773 1772 1771
f 1776 1775 1774

usemtl Patch_196_Mat_CR1_paintedConcrete
f 1779 1778 1777
f 1782 1781 1780
f 1785 1784 1783

usemtl Patch_197_Mat_CR1_paintedConcrete
f 1788 1787 1786
f 1791 1790 1789
f 1794 1793 1792
f 1797 1796 1795
f 1800 1799 1798
f 1803 1802 1801
f 1806 1805 1804

usemtl Patch_198_Mat_CR1_paintedConcrete
f 1809 1808 1807
f 1812 1811 1810
f 1815 1814 1813

usemtl Patch_199_Mat_CR1_paintedConcrete
f 1818 1817 1816
f 1821 1820 1819

usemtl Patch_200_Mat_CR1_paintedConcrete
f 1824 1823 1822
f 1827 1826 1825
f 1830 1829 1828

usemtl Patch_201_Mat_CR1_paintedConcrete
f 1833 1832 1831
f 1836 1835 1834
f 1839 1838 1837
f 1842 1841 1840
f 1845 1844 1843
f 1848 1847 1846
f 1851 1850 1849

usemtl Patch_202_Mat_CR1_paintedConcrete
f 1854 1853 1852
f 1857 1856 1855
f 1860 1859 1858
f 1863 1862 1861

usemtl Patch_203_Mat_CR1_paintedConcrete
f 1866 1865 1864
f 1869 1868 1867
f 1872 1871 1870

usemtl Patch_204_Mat_CR1_paintedConcrete
f 1875 1874 1873
f 1878 1877 1876

usemtl Patch_205_Mat_CR1_tablesEquipment
f 1881 1880 1879
f 1884 1883 1882
f 1887 1886 1885
f 1890 1889 1888

usemtl Patch_206_Mat_CR1_paintedConcrete
f 1893 1892 1891
f 1896 1895 1894

usemtl Patch_207_Mat_CR1_paintedConcrete
f 1899 1898 1897
f 1902 1901 1900

usemtl Patch_208_Mat_CR1_paintedConcrete
f 1905 1904 1903
f 1908 1907 1906

usemtl Patch_209_Mat_CR1_tablesEquipment
f 1911 1910 1909
f 1914 1913 1912

usemtl Patch_210_Mat_CR1_tablesEquipment
f 1917 1916 1915
f 1920 1919 1918
f 1923 1922 1921
f 1926 1925 1924

usemtl Patch_211_Mat_CR1_tablesEquipment
f 1929 1928 1927
f 1932 1931 1930
f 1935 1934 1933

usemtl Patch_212_Mat_CR1_paintedConcrete
f 1938 1937 1936
f 1941 1940 1939

usemtl Patch_213_Mat_CR1_paintedConcrete
f 1944 1943 1942
f 1947 1946 1945
f 1950 1949 1948
f 1953 1952 1951
f 1956 1955 1954
f 1959 1958 1957

usemtl Patch_214_Mat_CR1_tablesEquipment
f 1962 1961 1960
f 1965 1964 1963

usemtl Patch_215_Mat_CR1_paintedConcrete
f 1968 1967 1966
f 1971 1970 1969

usemtl Patch_216_Mat_CR1_paintedConcrete
f 1974 1973 1972
f 1977 1976 1975

usemtl Patch_217_Mat_CR1_paintedConcrete
f 1980 1979 1978
f 1983 1982 1981
f 1986 1985 1984

usemtl Patch_218_Mat_CR1_tablesEquipment
f 1989 1988 1987
f 1992 1991 1990

usemtl Patch_219_Mat_CR1_paintedConcrete
f 1995 1994 1993
f 1998 1997 1996
f 2001 2000 1999

usemtl Patch_220_Mat_CR1_paintedConcrete
f 2004 2003 2002
f 2007 2006 2005
f 2010 2009 2008

usemtl Patch_221_Mat_CR1_paintedConcrete
f 2013 2012 2011
f 2016 2015 2014

usemtl Patch_222_Mat_CR1_paintedConcrete
f 2019 2018 2017
f 2022 2021 2020
f 2025 2024 2023
f 2028 2027 2026
f 2031 2030 2029

usemtl Patch_223_Mat_CR1_paintedConcrete
f 2034 2033 2032
f 2037 2036 2035
f 2040 2039 2038

usemtl Patch_224_Mat_CR1_paintedConcrete
f 2043 2042 2041
f 2046 2045 2044
f 2049 2048 2047

usemtl Patch_225_Mat_CR1_paintedConcrete
f 2052 2051 2050
f 2055 2054 2053
f 2058 2057 2056
f 2061 2060 2059

usemtl Patch_226_Mat_CR1_paintedConcrete
f 2064 2063 2062
f 2067 2066 2065
f 2070 2069 2068

usemtl Patch_227_Mat_CR1_paintedConcrete
f 2073 2072 2071
f 2076 2075 2074
f 2079 2078 2077
f 2082 2081 2080

usemtl Patch_228_Mat_CR1_paintedConcrete
f 2085 2084 2083
f 2088 2087 2086
f 2091 2090 2089

usemtl Patch_229_Mat_CR1_paintedConcrete
f 2094 2093 2092
f 2097 2096 2095
f 2100 2099 2098

usemtl Patch_230_Mat_CR1_paintedConcrete
f 2103 2102 2101
f 2106 2105 2104
f 2109 2108 2107
f 2112 2111 2110

usemtl Patch_231_Mat_CR1_paintedConcrete
f 2115 2114 2113
f 2118 2117 2116
f 2121 2120 2119

usemtl Patch_232_Mat_CR1_paintedConcrete
f 2124 2123 2122
f 2127 2126 2125
f 2130 2129 2128
f 2133 2132 2131

usemtl Patch_233_Mat_CR1_paintedConcrete
f 2136 2135 2134
f 2139 2138 2137
f 2142 2141 2140
f 2145 2144 2143

usemtl Patch_234_Mat_CR1_paintedConcrete
f 2148 2147 2146
f 2151 2150 2149
f 2154 2153 2152
f 2157 2156 2155
f 2160 2159 2158
f 2163 2162 2161
f 2166 2165 2164
f 2169 2168 2167
f 2172 2171 2170
f 2175 2174 2173

usemtl Patch_235_Mat_CR1_paintedConcrete
f 2178 2177 2176
f 2181 2180 2179
f 2184 2183 2182

usemtl Patch_236_Mat_CR1_paintedConcrete
f 2187 2186 2185
f 2190 2189 2188
f 2193 2192 2191
f 2196 2195 2194

usemtl Patch_237_Mat_CR1_paintedConcrete
f 2199 2198 2197
f 2202 2201 2200
f 2205 2204 2203

usemtl Patch_238_Mat_CR1_paintedConcrete
f 2208 2207 2206
f 2211 2210 2209

usemtl Patch_239_Mat_CR1_paintedConcrete
f 2214 2213 2212
f 2217 2216 2215

usemtl Patch_240_Mat_CR1_paintedConcrete
f 2220 2219 2218
f 2223 2222 2221
f 2226 2225 2224
f 2229 2228 2227

usemtl Patch_241_Mat_CR1_paintedConcrete
f 2232 2231 2230
f 2235 2234 2233
f 2238 2237 2236
f 2241 2240 2239
f 2244 2243 2242

usemtl Patch_242_Mat_CR1_concrete
f 2247 2246 2245
f 2250 2249 2248
f 2253 2252 2251
f 2256 2255 2254

usemtl Patch_243_Mat_CR1_paintedConcrete
f 2259 2258 2257
f 2262 2261 2260

usemtl Patch_244_Mat_CR1_tablesEquipment
f 2265 2264 2263
f 2268 2267 2266

