# File generated by ImageToStl.com - Free Image and 3D model conversion tools

mtllib CR1_DoorAngle3_simplified.mtl

o obj1
v 240.22590637 -153.77952576 107.71653748
v 22.46999359 -242.51968384 107.71653748
v 22.46999359 -153.77952576 107.71653748
v 240.22590637 -242.51968384 107.71653748
usemtl mat0
f 1 2 3
f 2 1 4
# Vertices: 4, normals: 0, texture coordinates: 0, faces: 2

o obj2
v 22.46999359 36.61417389 107.71653748
v 240.22590637 36.61417389 89.60630035
v 22.46999359 36.61417389 89.60630035
v 240.22590637 36.61417389 107.71653748
usemtl mat0
f 5 6 7
f 6 5 8
# Vertices: 4, normals: 0, texture coordinates: 0, faces: 2

o obj3
v 240.22590637 36.61417389 89.60630035
v 22.46999359 19.64566994 89.60630035
v 22.46999359 36.61417389 89.60630035
v 240.22590637 19.64566994 89.60630035
usemtl mat0
f 9 10 11
f 10 9 12
# Vertices: 4, normals: 0, texture coordinates: 0, faces: 2

o obj4
v 240.22590637 19.64566994 107.71653748
v 22.46999359 19.64566994 89.60630035
v 240.22590637 19.64566994 89.60630035
v 22.46999359 19.64566994 107.71653748
usemtl mat0
f 13 14 15
f 14 13 16
# Vertices: 4, normals: 0, texture coordinates: 0, faces: 2

o obj5
v 240.22590637 74.92125702 107.71653748
v 22.46999359 36.61417389 107.71653748
v 22.46999359 94.92125702 107.71653748
v 240.22590637 36.61417389 107.71653748
usemtl mat0
f 17 18 19
f 18 17 20
# Vertices: 4, normals: 0, texture coordinates: 0, faces: 2

o obj6
v 22.46999359 -137.12599182 107.71653748
v 240.22590637 -137.12599182 89.60630035
v 22.46999359 -137.12599182 89.60630035
v 240.22590637 -137.12599182 107.71653748
usemtl mat0
f 21 22 23
f 22 21 24
# Vertices: 4, normals: 0, texture coordinates: 0, faces: 2

o obj7
v 240.22590637 -137.12599182 89.60630035
v 22.46999359 -153.77952576 89.60630035
v 22.46999359 -137.12599182 89.60630035
v 240.22590637 -153.77952576 89.60630035
usemtl mat0
f 25 26 27
f 26 25 28
# Vertices: 4, normals: 0, texture coordinates: 0, faces: 2

o obj8
v 240.22590637 -153.77952576 107.71653748
v 22.46999359 -153.77952576 89.60630035
v 240.22590637 -153.77952576 89.60630035
v 22.46999359 -153.77952576 107.71653748
usemtl mat0
f 29 30 31
f 30 29 32
# Vertices: 4, normals: 0, texture coordinates: 0, faces: 2

o obj9
v 240.22590637 19.64566994 107.71653748
v 22.46999359 -137.12599182 107.71653748
v 22.46999359 19.64566994 107.71653748
v 240.22590637 -137.12599182 107.71653748
usemtl mat0
f 33 34 35
f 34 33 36
# Vertices: 4, normals: 0, texture coordinates: 0, faces: 2

o obj10
v -246.11268616 -143.62203979 108.97637939
v -178.01901245 -143.62203979 43.30708694
v -246.11268616 -143.62203979 43.30708694
v -178.01901245 -143.62203979 0
v -110.3431015 -143.62203979 43.30708694
v -110.3431015 -143.62203979 0
v -0.01032051 -143.62203979 43.30708694
v -0.01032051 -143.62203979 108.97637939
usemtl mat1
f 37 38 39
f 40 41 42
f 41 40 38
f 41 38 43
f 43 38 44
f 44 38 37
# Vertices: 8, normals: 0, texture coordinates: 0, faces: 6

o obj11
v -0.01032051 99.33071136 108.97637939
v -246.11268616 36.61417389 108.97637939
v -246.11268616 121.8110199 108.97637939
v -0.01032051 36.61417389 108.97637939
usemtl mat2
f 45 46 47
f 46 45 48
# Vertices: 4, normals: 0, texture coordinates: 0, faces: 2

o obj12
v -246.11268616 84.87595367 -0
v -246.11268616 -120.20082855 43.30708694
v -246.11268616 -120.20082855 0
v -246.11268616 19.64566994 89.60630035
v -246.11268616 36.61417389 89.60630035
v -246.11268616 36.61417389 108.97637939
v -246.11268616 84.87595367 43.30708694
v -246.11268616 121.8110199 108.97637939
v -246.11268616 121.8110199 43.30708694
v -246.11268616 -143.62203979 108.97637939
v -246.11268616 -143.62203979 43.30708694
v -246.11268616 19.64566994 108.97637939
usemtl mat2
f 49 50 51
f 50 49 52
f 52 49 53
f 53 49 54
f 54 49 55
f 54 55 56
f 56 55 57
f 50 58 59
f 58 50 60
f 60 50 52
# Vertices: 12, normals: 0, texture coordinates: 0, faces: 10

o obj13
v -0.01032051 19.64566994 108.97637939
v -246.11268616 19.64566994 89.60630035
v -0.01032051 19.64566994 89.60630035
v -246.11268616 19.64566994 108.97637939
usemtl mat2
f 61 62 63
f 62 61 64
# Vertices: 4, normals: 0, texture coordinates: 0, faces: 2

o obj14
v -0.01032051 36.61417389 89.60630035
v -246.11268616 19.64566994 89.60630035
v -246.11268616 36.61417389 89.60630035
v -0.01032051 19.64566994 89.60630035
usemtl mat2
f 65 66 67
f 66 65 68
# Vertices: 4, normals: 0, texture coordinates: 0, faces: 2

o obj15
v -246.11268616 36.61417389 89.60630035
v -0.01032051 36.61417389 108.97637939
v -0.01032051 36.61417389 89.60630035
v -246.11268616 36.61417389 108.97637939
usemtl mat2
f 69 70 71
f 70 69 72
# Vertices: 4, normals: 0, texture coordinates: 0, faces: 2

o obj16
v -0.01032051 19.64566994 108.97637939
v -246.11268616 -143.62203979 108.97637939
v -246.11268616 19.64566994 108.97637939
v -0.01032051 -143.62203979 108.97637939
usemtl mat2
f 73 74 75
f 74 73 76
# Vertices: 4, normals: 0, texture coordinates: 0, faces: 2

o obj17
v -0.01032051 99.33071136 108.97637939
v -66.02174377 105.36054993 43.30708694
v -0.01032051 99.33071136 43.30708694
v -66.02174377 105.36054993 0
v -173.85995483 115.2110672 43.30708694
v -173.85995483 115.2110672 -0
v -246.11268616 121.8110199 43.30708694
v -246.11268616 121.8110199 108.97637939
usemtl mat2
f 77 78 79
f 80 81 82
f 81 80 78
f 81 78 83
f 83 78 84
f 84 78 77
# Vertices: 8, normals: 0, texture coordinates: 0, faces: 6

o obj18
v -0.01032051 99.33071136 108.97637939
v -0.01032051 36.61417389 89.60630035
v -0.01032051 36.61417389 108.97637939
v -0.01032051 62.91531754 43.30708694
v -0.01032051 99.33071136 43.30708694
v -0.01032051 -143.62203979 108.97637939
v -0.01032051 -58.58267593 86.3385849
v -0.01032051 -143.62203979 43.30708694
v -0.01032051 19.64566994 108.97637939
v -0.01032051 -78.08494568 43.30708694
v -0.01032051 -78.08494568 0
v -0.01032051 -0.47244096 86.41732025
v -0.01032051 -0.47244096 0
v -0.01032051 19.64566994 89.60630035
v -0.01032051 62.91531754 0
v -0.01032051 -58.58267593 0
usemtl mat2
f 85 86 87
f 86 85 88
f 88 85 89
f 90 91 92
f 91 90 93
f 92 91 94
f 94 91 95
f 91 93 96
f 96 93 97
f 97 93 98
f 97 98 99
f 99 98 86
f 99 86 88
f 100 95 91
# Vertices: 16, normals: 0, texture coordinates: 0, faces: 14

o obj19
v 240.22590637 74.92125702 107.71653748
v 22.46999359 94.92125702 1.96850395
v 240.22590637 74.92125702 1.96850395
v 22.46999359 94.92125702 107.71653748
usemtl mat0
f 101 102 103
f 102 101 104
# Vertices: 4, normals: 0, texture coordinates: 0, faces: 2

o obj20
v 240.22590637 74.92125702 107.71653748
v 240.22590637 36.61417389 89.60630035
v 240.22590637 36.61417389 107.71653748
v 240.22590637 -153.77952576 107.71653748
v 240.22590637 -242.51968384 1.96850395
v 240.22590637 -242.51968384 107.71653748
v 240.22590637 -153.77952576 89.60630035
v 240.22590637 74.92125702 1.96850395
v 240.22590637 -137.12599182 89.60630035
v 240.22590637 -137.12599182 107.71653748
v 240.22590637 19.64566994 89.60630035
v 240.22590637 19.64566994 107.71653748
usemtl mat0
f 105 106 107
f 108 109 110
f 109 108 111
f 109 111 112
f 112 111 113
f 112 113 114
f 112 114 115
f 115 114 116
f 112 115 106
f 112 106 105
# Vertices: 12, normals: 0, texture coordinates: 0, faces: 10

o obj21
v 22.46999359 -242.51968384 107.71653748
v 240.22590637 -242.51968384 1.96850395
v 22.46999359 -242.51968384 1.96850395
v 240.22590637 -242.51968384 107.71653748
usemtl mat0
f 117 118 119
f 118 117 120
# Vertices: 4, normals: 0, texture coordinates: 0, faces: 2

o obj22
v -177.56370544 78.16802216 43.30708694
v -246.11268616 121.8110199 43.30708694
v -246.11268616 84.87595367 43.30708694
v -173.85995483 115.2110672 43.30708694
usemtl mat3
f 121 122 123
f 122 121 124
# Vertices: 4, normals: 0, texture coordinates: 0, faces: 2

o obj23
v -173.85995483 115.2110672 -0
v -177.56370544 78.16802216 43.30708694
v -177.56370544 78.16802216 -0
v -173.85995483 115.2110672 43.30708694
usemtl mat3
f 125 126 127
f 126 125 128
# Vertices: 4, normals: 0, texture coordinates: 0, faces: 2

o obj24
v -177.56370544 78.16802216 43.30708694
v -246.11268616 84.87595367 -0
v -177.56370544 78.16802216 -0
v -246.11268616 84.87595367 43.30708694
usemtl mat3
f 129 130 131
f 130 129 132
# Vertices: 4, normals: 0, texture coordinates: 0, faces: 2

o obj25
v -246.11268616 -120.20082855 43.30708694
v -178.01901245 -120.20082855 0
v -246.11268616 -120.20082855 0
v -178.01901245 -120.20082855 43.30708694
usemtl mat3
f 133 134 135
f 134 133 136
# Vertices: 4, normals: 0, texture coordinates: 0, faces: 2

o obj26
v -178.01901245 -143.62203979 43.30708694
v -246.11268616 -120.20082855 43.30708694
v -246.11268616 -143.62203979 43.30708694
v -178.01901245 -120.20082855 43.30708694
usemtl mat3
f 137 138 139
f 138 137 140
# Vertices: 4, normals: 0, texture coordinates: 0, faces: 2

o obj27
v -178.01901245 -120.20082855 0
v -178.01901245 -143.62203979 43.30708694
v -178.01901245 -143.62203979 0
v -178.01901245 -120.20082855 43.30708694
usemtl mat3
f 141 142 143
f 142 141 144
# Vertices: 4, normals: 0, texture coordinates: 0, faces: 2

o obj28
v -0.01032051 62.91531754 43.30708694
v -66.02174377 105.36054993 43.30708694
v -68.55511475 67.50354004 43.30708694
v -0.01032051 99.33071136 43.30708694
usemtl mat3
f 145 146 147
f 146 145 148
# Vertices: 4, normals: 0, texture coordinates: 0, faces: 2

o obj29
v -0.01032051 62.91531754 43.30708694
v -68.55511475 67.50354004 0
v -0.01032051 62.91531754 0
v -68.55511475 67.50354004 43.30708694
usemtl mat3
f 149 150 151
f 150 149 152
# Vertices: 4, normals: 0, texture coordinates: 0, faces: 2

o obj30
v -66.02174377 105.36054993 43.30708694
v -68.55511475 67.50354004 0
v -68.55511475 67.50354004 43.30708694
v -66.02174377 105.36054993 0
usemtl mat3
f 153 154 155
f 154 153 156
# Vertices: 4, normals: 0, texture coordinates: 0, faces: 2

o obj31
v -214.24804688 58.22101593 0
v -214.24804688 -3.59000707 39.37007904
v -214.24804688 -3.59000707 0
v -214.24804688 58.22101593 39.37007904
usemtl mat4
f 157 158 159
f 158 157 160
# Vertices: 4, normals: 0, texture coordinates: 0, faces: 2

o obj32
v -98.76934814 100.86607361 39.37007904
v -138.13943481 100.86607361 0
v -98.76934814 100.86607361 0
v -138.13943481 100.86607361 39.37007904
usemtl mat4
f 161 162 163
f 162 161 164
# Vertices: 4, normals: 0, texture coordinates: 0, faces: 2

o obj33
v -94.09633636 99.38756561 39.37007904
v -70.23852539 68.06970978 0
v -70.23852539 68.06970978 39.37007904
v -94.09633636 99.38756561 0
usemtl mat4
f 165 166 167
f 166 165 168
# Vertices: 4, normals: 0, texture coordinates: 0, faces: 2

o obj34
v -172.80020142 77.8259964 39.37007904
v -209.38021851 63.26903915 0
v -172.80020142 77.8259964 0
v -209.38021851 63.26903915 39.37007904
usemtl mat4
f 169 170 171
f 170 169 172
# Vertices: 4, normals: 0, texture coordinates: 0, faces: 2

o obj35
v -110.3431015 -110.17155457 43.30708694
v -110.3431015 -143.62203979 0
v -110.3431015 -143.62203979 43.30708694
v -110.3431015 -110.17155457 0
usemtl mat3
f 173 174 175
f 174 173 176
# Vertices: 4, normals: 0, texture coordinates: 0, faces: 2

o obj36
v -110.3431015 -110.17155457 43.30708694
v -35.93365479 -110.17155457 0
v -110.3431015 -110.17155457 0
v -35.93365479 -110.17155457 43.30708694
usemtl mat3
f 177 178 179
f 178 177 180
# Vertices: 4, normals: 0, texture coordinates: 0, faces: 2

o obj37
v -0.01032051 -143.62203979 43.30708694
v -110.3431015 -110.17155457 43.30708694
v -110.3431015 -143.62203979 43.30708694
v -35.93365479 -110.17155457 43.30708694
v -35.93365479 -78.08494568 43.30708694
v -0.01032051 -78.08494568 43.30708694
usemtl mat3
f 181 182 183
f 182 181 184
f 184 181 185
f 185 181 186
# Vertices: 6, normals: 0, texture coordinates: 0, faces: 4

o obj38
v -35.93365479 -78.08494568 43.30708694
v -35.93365479 -110.17155457 0
v -35.93365479 -110.17155457 43.30708694
v -35.93365479 -78.08494568 0
usemtl mat3
f 187 188 189
f 188 187 190
# Vertices: 4, normals: 0, texture coordinates: 0, faces: 2

o obj39
v -35.93365479 -78.08494568 43.30708694
v -0.01032051 -78.08494568 0
v -35.93365479 -78.08494568 0
v -0.01032051 -78.08494568 43.30708694
usemtl mat3
f 191 192 193
f 192 191 194
# Vertices: 4, normals: 0, texture coordinates: 0, faces: 2

o obj40
v -35.93365479 -110.17155457 0
v -68.55511475 67.50354004 0
v -110.3431015 -110.17155457 0
v -35.93365479 -78.08494568 0
v -0.01032051 62.91531754 0
v -0.01032051 -0.47244096 0
v -0.01032051 -78.08494568 0
v -0.01032051 -58.58267593 0
v -110.3431015 -143.62203979 0
v -178.01901245 -120.20082855 0
v -178.01901245 -143.62203979 0
v -177.56370544 78.16802216 -0
v -173.85995483 115.2110672 -0
v -66.02174377 105.36054993 0
v -246.11268616 -120.20082855 0
v -246.11268616 84.87595367 -0
usemtl mat2
f 195 196 197
f 196 195 198
f 196 198 199
f 199 198 200
f 200 198 201
f 200 201 202
f 203 204 205
f 204 203 206
f 206 203 207
f 207 203 197
f 207 197 208
f 208 197 196
f 209 206 210
f 206 209 204
# Vertices: 16, normals: 0, texture coordinates: 0, faces: 14

o obj41
v -140.01127625 100.73999023 39.37007904
v -174.10676575 81.05495453 0
v -140.01127625 100.73999023 0
v -174.10676575 81.05495453 39.37007904
usemtl mat4
f 211 212 213
f 212 211 214
# Vertices: 4, normals: 0, texture coordinates: 0, faces: 2

o obj42
v -0.01032051 -58.58267593 86.3385849
v 22.46999359 -58.58267593 1.96850395
v -0.01032051 -58.58267593 0
v 22.46999359 -58.58267593 86.3385849
usemtl mat2
f 215 216 217
f 216 215 218
# Vertices: 4, normals: 0, texture coordinates: 0, faces: 2

o obj43
v 22.46999359 -58.58267593 1.96850395
v 22.46999359 -242.51968384 107.71653748
v 22.46999359 -242.51968384 1.96850395
v 22.46999359 -153.77952576 89.60630035
v 22.46999359 -137.12599182 89.60630035
v 22.46999359 -137.12599182 107.71653748
v 22.46999359 -58.58267593 86.3385849
v 22.46999359 19.64566994 107.71653748
v 22.46999359 -0.47244096 86.41732025
v 22.46999359 -153.77952576 107.71653748
usemtl mat0
f 219 220 221
f 220 219 222
f 222 219 223
f 223 219 224
f 224 219 225
f 224 225 226
f 226 225 227
f 228 220 222
# Vertices: 10, normals: 0, texture coordinates: 0, faces: 8

o obj44
v 51.43086624 -50.88471222 1.96850395
v 22.46999359 -0.47244096 86.41732025
v 51.43086624 -50.88471222 86.41732025
v 22.46999359 -0.47244096 1.96850395
usemtl mat0
f 229 230 231
f 230 229 232
# Vertices: 4, normals: 0, texture coordinates: 0, faces: 2

o obj45
v 240.22590637 -242.51968384 1.96850395
v 22.46999359 -58.58267593 1.96850395
v 22.46999359 -242.51968384 1.96850395
v 22.46999359 -0.47244096 1.96850395
v 240.22590637 74.92125702 1.96850395
v 22.46999359 94.92125702 1.96850395
usemtl mat0
f 233 234 235
f 234 233 236
f 236 237 238
f 237 236 233
# Vertices: 6, normals: 0, texture coordinates: 0, faces: 4

o obj46
v 22.46999359 -58.58267593 1.96850395
v -0.01032051 -0.47244096 0
v -0.01032051 -58.58267593 0
v 22.46999359 -0.47244096 1.96850395
usemtl mat2
f 239 240 241
f 240 239 242
# Vertices: 4, normals: 0, texture coordinates: 0, faces: 2

o obj47
v 22.46999359 -0.47244096 1.96850395
v -0.01032051 -0.47244096 86.41732025
v -0.01032051 -0.47244096 0
v 22.46999359 -0.47244096 86.41732025
usemtl mat2
f 243 244 245
f 244 243 246
# Vertices: 4, normals: 0, texture coordinates: 0, faces: 2

o obj48
v 22.46999359 94.92125702 1.96850395
v 22.46999359 19.64566994 89.60630035
v 22.46999359 -0.47244096 1.96850395
v 22.46999359 36.61417389 89.60630035
v 22.46999359 36.61417389 107.71653748
v 22.46999359 94.92125702 107.71653748
v 22.46999359 19.64566994 107.71653748
v 22.46999359 -0.47244096 86.41732025
usemtl mat0
f 247 248 249
f 248 247 250
f 250 247 251
f 251 247 252
f 249 253 254
f 253 249 248
# Vertices: 8, normals: 0, texture coordinates: 0, faces: 6

o obj49
usemtl mat3
f 229 231 230
f 230 232 229
# Vertices: 4, normals: 0, texture coordinates: 0, faces: 2

o obj50
usemtl mat4
f 157 159 158
f 158 160 157
# Vertices: 4, normals: 0, texture coordinates: 0, faces: 2

o obj51
usemtl mat4
f 161 163 162
f 162 164 161
# Vertices: 4, normals: 0, texture coordinates: 0, faces: 2

o obj52
usemtl mat4
f 165 167 166
f 166 168 165
# Vertices: 4, normals: 0, texture coordinates: 0, faces: 2

o obj53
usemtl mat4
f 169 171 170
f 170 172 169
# Vertices: 4, normals: 0, texture coordinates: 0, faces: 2

o obj54
usemtl mat4
f 211 213 212
f 212 214 211
# Vertices: 4, normals: 0, texture coordinates: 0, faces: 2
