mtllib mesh.mtl

v 4.714 -3.906 2.736
v 6.102 -6.160 2.736
v 6.102 -3.906 2.736
v 6.102 -6.160 2.736
v 4.714 -3.906 2.736
v 4.682 -6.160 2.736
v 4.714 -3.906 2.736
v 3.282 -3.906 2.736
v 3.332 -6.160 2.736
v 3.332 -6.160 2.736
v 4.682 -6.160 2.736
v 4.714 -3.906 2.736
v 3.282 -3.906 2.736
v 1.953 -3.906 2.736
v 1.913 -6.160 2.736
v 1.913 -6.160 2.736
v 3.332 -6.160 2.736
v 3.282 -3.906 2.736
v 1.913 -6.160 2.736
v 0.571 -3.906 2.736
v 0.571 -6.160 2.736
v 0.571 -3.906 2.736
v 1.913 -6.160 2.736
v 1.953 -3.906 2.736
v 6.102 0.930 2.736
v 0.571 0.930 2.736
v 0.571 0.930 2.276
v 0.571 0.930 2.276
v 6.102 0.930 2.276
v 6.102 0.930 2.736
v 0.571 0.499 2.276
v 6.102 0.930 2.276
v 0.571 0.930 2.276
v 6.102 0.930 2.276
v 0.571 0.499 2.276
v 6.102 0.499 2.276
v 0.571 0.499 2.736
v 6.102 0.499 2.736
v 6.102 0.499 2.276
v 6.102 0.499 2.276
v 0.571 0.499 2.276
v 0.571 0.499 2.736
v 3.200 0.930 2.736
v 6.102 0.930 2.736
v 6.102 1.903 2.736
v 6.102 1.903 2.736
v 3.260 2.164 2.736
v 3.200 0.930 2.736
v 3.260 2.164 2.736
v 0.571 2.411 2.736
v 0.571 0.930 2.736
v 0.571 0.930 2.736
v 3.200 0.930 2.736
v 3.260 2.164 2.736
v 6.102 -3.483 2.736
v 0.571 -3.483 2.736
v 0.571 -3.483 2.276
v 0.571 -3.483 2.276
v 6.102 -3.483 2.276
v 6.102 -3.483 2.736
v 0.571 -3.906 2.276
v 6.102 -3.483 2.276
v 0.571 -3.483 2.276
v 6.102 -3.483 2.276
v 0.571 -3.906 2.276
v 6.102 -3.906 2.276
v 0.571 -3.906 2.736
v 6.102 -3.906 2.736
v 6.102 -3.906 2.276
v 6.102 -3.906 2.276
v 0.571 -3.906 2.276
v 0.571 -3.906 2.736
v 6.102 0.499 2.736
v 4.298 -1.511 2.736
v 6.102 -1.458 2.736
v 4.298 -1.511 2.736
v 6.102 0.499 2.736
v 4.211 0.499 2.736
v 4.298 -1.511 2.736
v 4.211 0.499 2.736
v 4.224 -1.446 2.736
v 2.372 -1.469 2.736
v 2.458 -1.545 2.736
v 4.224 -1.446 2.736
v 4.224 -1.446 2.736
v 4.211 0.499 2.736
v 2.377 0.499 2.736
v 2.377 0.499 2.736
v 2.372 -1.469 2.736
v 4.224 -1.446 2.736
v 4.298 -1.511 2.736
v 4.307 -3.483 2.736
v 6.102 -3.483 2.736
v 6.102 -3.483 2.736
v 6.102 -1.458 2.736
v 4.298 -1.511 2.736
v 4.298 -1.511 2.736
v 4.224 -1.446 2.736
v 2.458 -1.545 2.736
v 2.458 -1.545 2.736
v 2.457 -3.483 2.736
v 4.307 -3.483 2.736
v 4.307 -3.483 2.736
v 4.298 -1.511 2.736
v 2.458 -1.545 2.736
v 2.372 -1.469 2.736
v 2.377 0.499 2.736
v 0.571 0.499 2.736
v 0.571 0.499 2.736
v 0.571 -1.517 2.736
v 2.372 -1.469 2.736
v 0.571 -3.483 2.736
v 2.372 -1.469 2.736
v 0.571 -1.517 2.736
v 2.372 -1.469 2.736
v 0.571 -3.483 2.736
v 2.457 -3.483 2.736
v 2.372 -1.469 2.736
v 2.457 -3.483 2.736
v 2.458 -1.545 2.736
v -6.251 -2.187 0.000
v -4.713 -3.053 0.000
v -6.152 -3.053 0.000
v -6.152 -3.623 0.000
v -4.834 -3.623 0.000
v -4.839 -3.648 0.000
v -4.384 -1.509 0.000
v -6.251 -2.187 0.000
v -6.251 -1.150 0.000
v -6.251 -1.150 0.000
v -6.251 -1.144 0.000
v -4.384 -1.509 0.000
v -6.152 -3.623 0.000
v -4.839 -3.648 0.000
v -6.251 -3.648 0.000
v -4.713 -3.053 0.000
v -6.251 -2.187 0.000
v -4.384 -1.509 0.000
v -6.152 -3.053 0.000
v -6.152 -3.623 0.000
v -6.251 -3.648 0.000
v -6.251 -2.187 0.000
v -6.152 -3.053 0.000
v -6.251 -3.648 0.000
v -4.522 -3.053 0.000
v -4.713 -3.053 0.000
v -4.384 -1.509 0.000
v -4.384 -1.509 0.000
v -3.996 -1.240 0.000
v -3.030 -1.486 0.000
v -3.030 -1.486 0.000
v -2.653 -2.798 0.000
v -2.803 -2.798 0.000
v -2.803 -3.613 0.000
v -2.419 -3.613 0.000
v -2.409 -3.648 0.000
v -4.522 -3.623 0.000
v -4.839 -3.648 0.000
v -4.834 -3.623 0.000
v -2.803 -2.798 0.000
v -4.522 -3.053 0.000
v -4.384 -1.509 0.000
v -4.384 -1.509 0.000
v -3.030 -1.486 0.000
v -2.803 -2.798 0.000
v -4.839 -3.648 0.000
v -4.522 -3.623 0.000
v -2.409 -3.648 0.000
v -2.803 -3.613 0.000
v -4.522 -3.053 0.000
v -2.803 -2.798 0.000
v -2.803 -3.613 0.000
v -2.409 -3.648 0.000
v -4.522 -3.623 0.000
v -4.522 -3.053 0.000
v -2.803 -3.613 0.000
v -4.522 -3.623 0.000
v -2.404 0.848 0.000
v -4.213 0.493 0.000
v -4.001 0.792 0.000
v -2.052 -0.845 0.000
v -2.404 0.848 0.000
v -1.850 -0.053 0.000
v -4.213 0.493 0.000
v -2.052 -0.845 0.000
v -3.030 -1.486 0.000
v -4.213 0.493 0.000
v -3.030 -1.486 0.000
v -3.996 -1.240 0.000
v -2.052 -0.845 0.000
v -4.213 0.493 0.000
v -2.404 0.848 0.000
v -0.013 -3.613 0.000
v -0.013 -2.604 0.000
v 0.000 -2.615 0.000
v -0.013 -3.613 0.000
v -2.409 -3.648 0.000
v -2.419 -3.613 0.000
v -0.013 -3.613 0.000
v 0.000 -2.615 0.000
v 0.000 -3.648 0.000
v -2.409 -3.648 0.000
v -0.013 -3.613 0.000
v 0.000 -3.648 0.000
v -0.913 -1.983 0.000
v -2.052 -0.845 0.000
v -0.732 -1.983 0.000
v -0.913 -1.983 0.000
v -0.913 -2.798 0.000
v -2.653 -2.798 0.000
v -2.653 -2.798 0.000
v -2.052 -0.845 0.000
v -0.913 -1.983 0.000
v -2.052 -0.845 0.000
v -2.653 -2.798 0.000
v -3.030 -1.486 0.000
v -1.850 -0.053 0.000
v -0.732 -1.983 0.000
v -2.052 -0.845 0.000
v -0.732 -1.983 0.000
v -1.850 -0.053 0.000
v 0.000 0.237 0.000
v -0.013 -1.983 0.000
v 0.000 -2.615 0.000
v -0.013 -2.604 0.000
v -0.732 -1.983 0.000
v 0.000 0.237 0.000
v -0.013 -1.983 0.000
v 0.000 -2.615 0.000
v -0.013 -1.983 0.000
v 0.000 0.237 0.000
v -5.342 -0.091 0.000
v -5.342 0.396 0.000
v -4.213 0.493 0.000
v -5.342 -0.091 0.000
v -3.996 -1.240 0.000
v -4.384 -1.509 0.000
v -5.442 -0.091 0.000
v -6.251 -1.144 0.000
v -6.251 0.318 0.000
v -6.251 0.318 0.000
v -5.442 0.388 0.000
v -5.442 -0.091 0.000
v -3.996 -1.240 0.000
v -5.342 -0.091 0.000
v -4.213 0.493 0.000
v -5.342 -0.091 0.000
v -6.251 -1.144 0.000
v -5.442 -0.091 0.000
v -6.251 -1.144 0.000
v -5.342 -0.091 0.000
v -4.384 -1.509 0.000
v -4.459 2.471 0.000
v -4.357 2.097 0.000
v -4.422 2.059 0.000
v -4.352 1.884 0.000
v -4.329 1.997 0.000
v -4.001 0.792 0.000
v -5.281 1.514 0.000
v -4.213 0.493 0.000
v -5.342 0.396 0.000
v -5.342 0.396 0.000
v -5.342 1.479 0.000
v -5.281 1.514 0.000
v -5.318 1.607 0.000
v -5.281 1.514 0.000
v -5.342 1.479 0.000
v -5.442 1.479 0.000
v -5.442 0.388 0.000
v -6.251 0.318 0.000
v -6.037 3.051 0.000
v -4.587 2.942 0.000
v -4.575 2.898 0.000
v -4.510 1.985 0.000
v -4.459 2.471 0.000
v -4.422 2.059 0.000
v -4.213 0.493 0.000
v -5.281 1.514 0.000
v -4.001 0.792 0.000
v -5.318 1.607 0.000
v -5.342 1.479 0.000
v -5.442 1.479 0.000
v -4.587 2.942 0.000
v -6.037 3.051 0.000
v -6.251 3.094 0.000
v -4.001 0.792 0.000
v -5.281 1.514 0.000
v -4.352 1.884 0.000
v -6.251 3.094 0.000
v -6.037 3.051 0.000
v -6.131 2.156 0.000
v -4.329 1.997 0.000
v -4.352 1.884 0.000
v -4.372 1.972 0.000
v -6.251 0.318 0.000
v -6.251 3.094 0.000
v -6.131 2.156 0.000
v -4.372 1.972 0.000
v -4.352 1.884 0.000
v -4.389 1.977 0.000
v -5.442 1.479 0.000
v -6.251 0.318 0.000
v -6.131 2.156 0.000
v -4.422 2.059 0.000
v -4.372 1.972 0.000
v -4.389 1.977 0.000
v -5.318 1.607 0.000
v -5.442 1.479 0.000
v -6.131 2.156 0.000
v -4.510 1.985 0.000
v -4.422 2.059 0.000
v -4.389 1.977 0.000
v -5.318 1.607 0.000
v -6.131 2.156 0.000
v -4.510 1.985 0.000
v -4.510 1.985 0.000
v -4.389 1.977 0.000
v -5.318 1.607 0.000
v -1.864 1.668 0.000
v -2.404 0.848 0.000
v -1.975 1.814 0.000
v -1.741 1.715 0.000
v -1.928 1.918 0.000
v -1.688 2.460 0.000
v -0.051 2.496 0.000
v -1.622 2.608 0.000
v -1.595 2.669 0.000
v -1.741 1.715 0.000
v -2.404 0.848 0.000
v -1.864 1.668 0.000
v -1.928 1.918 0.000
v -1.741 1.715 0.000
v -1.784 1.729 0.000
v -0.051 2.496 0.000
v -1.595 2.669 0.000
v 0.000 2.523 0.000
v -2.404 0.848 0.000
v -1.741 1.715 0.000
v -1.850 -0.053 0.000
v -1.864 1.668 0.000
v -1.784 1.729 0.000
v -1.741 1.715 0.000
v -0.115 1.598 0.000
v -0.051 2.496 0.000
v 0.000 2.523 0.000
v -1.850 -0.053 0.000
v -1.741 1.715 0.000
v 0.000 0.237 0.000
v -0.115 1.598 0.000
v 0.000 2.523 0.000
v 0.000 0.237 0.000
v 0.000 0.237 0.000
v -1.741 1.715 0.000
v -0.115 1.598 0.000
v -2.390 2.524 0.000
v -1.688 2.460 0.000
v -1.928 1.918 0.000
v -2.509 2.462 0.000
v -1.975 1.814 0.000
v -2.404 0.848 0.000
v -3.509 2.462 0.000
v -4.001 0.792 0.000
v -4.329 1.997 0.000
v -4.329 1.997 0.000
v -3.509 2.471 0.000
v -3.509 2.462 0.000
v -3.509 2.562 0.000
v -3.509 2.471 0.000
v -3.556 2.559 0.000
v -3.556 2.559 0.000
v -4.357 2.097 0.000
v -4.459 2.471 0.000
v -4.416 2.881 0.000
v -4.575 2.898 0.000
v -4.587 2.942 0.000
v -1.677 2.612 0.000
v -1.595 2.669 0.000
v -1.622 2.608 0.000
v -1.688 2.460 0.000
v -2.390 2.524 0.000
v -1.677 2.612 0.000
v -3.509 2.462 0.000
v -2.404 0.848 0.000
v -4.001 0.792 0.000
v -2.404 0.848 0.000
v -3.509 2.462 0.000
v -2.509 2.462 0.000
v -3.556 2.559 0.000
v -4.459 2.471 0.000
v -4.416 2.881 0.000
v -1.595 2.669 0.000
v -4.416 2.881 0.000
v -4.587 2.942 0.000
v -1.975 1.814 0.000
v -2.509 2.462 0.000
v -2.470 2.464 0.000
v -3.509 2.562 0.000
v -3.556 2.559 0.000
v -4.416 2.881 0.000
v -2.390 2.524 0.000
v -1.595 2.669 0.000
v -1.677 2.612 0.000
v -2.509 2.562 0.000
v -2.470 2.464 0.000
v -2.509 2.462 0.000
v -2.509 2.562 0.000
v -3.509 2.562 0.000
v -4.416 2.881 0.000
v -2.470 2.464 0.000
v -2.509 2.562 0.000
v -2.390 2.524 0.000
v -1.595 2.669 0.000
v -2.509 2.562 0.000
v -4.416 2.881 0.000
v -1.595 2.669 0.000
v -2.390 2.524 0.000
v -2.509 2.562 0.000
v -4.238 -3.648 1.369
v -3.723 -3.648 2.768
v -6.251 -3.648 2.768
v -6.251 -3.648 2.768
v -6.251 -3.648 1.416
v -4.238 -3.648 1.369
v -1.981 -3.648 1.377
v 0.000 -3.648 1.405
v 0.000 -3.648 2.768
v 0.000 -3.648 2.768
v -2.497 -3.648 2.768
v -1.981 -3.648 1.377
v -4.238 -3.648 1.369
v -6.251 -3.648 1.416
v -6.251 -3.648 0.000
v -6.251 -3.648 0.000
v -3.766 -3.648 -0.000
v -4.238 -3.648 1.369
v -4.238 -3.648 1.369
v -3.766 -3.648 -0.000
v -2.463 -3.648 -0.000
v -3.723 -3.648 2.768
v -1.981 -3.648 1.377
v -2.497 -3.648 2.768
v -1.981 -3.648 1.377
v -3.723 -3.648 2.768
v -4.238 -3.648 1.369
v -1.981 -3.648 1.377
v -4.238 -3.648 1.369
v -2.463 -3.648 -0.000
v -1.981 -3.648 1.377
v -2.463 -3.648 -0.000
v 0.000 -3.648 -0.000
v 0.000 -3.648 -0.000
v 0.000 -3.648 1.405
v -1.981 -3.648 1.377
v -2.226 0.930 2.768
v 0.000 0.930 2.768
v -0.000 2.523 2.768
v -0.000 2.523 2.768
v -2.140 2.719 2.768
v -2.226 0.930 2.768
v -2.226 0.930 2.768
v -4.209 2.907 2.768
v -4.310 0.930 2.768
v -4.209 2.907 2.768
v -2.226 0.930 2.768
v -2.140 2.719 2.768
v -4.209 2.907 2.768
v -6.251 3.094 2.768
v -6.251 0.930 2.768
v -6.251 0.930 2.768
v -4.310 0.930 2.768
v -4.209 2.907 2.768
v -6.251 0.999 1.440
v -6.251 3.094 1.259
v -6.251 3.094 0.000
v -6.251 3.094 0.000
v -6.251 0.505 0.000
v -6.251 0.999 1.440
v -6.251 0.505 0.000
v -6.251 -1.150 0.000
v -6.251 -1.150 2.033
v -6.251 -1.150 2.033
v -6.251 -1.249 2.033
v -6.251 -0.968 2.768
v -6.251 -0.968 2.768
v -6.251 0.499 2.768
v -6.251 0.499 2.276
v -6.251 0.499 2.276
v -6.251 0.737 2.276
v -6.251 0.999 1.440
v -6.251 0.999 1.440
v -6.251 0.505 0.000
v -6.251 -1.150 2.033
v -6.251 -1.150 2.033
v -6.251 -0.968 2.768
v -6.251 0.499 2.276
v -6.251 0.499 2.276
v -6.251 0.999 1.440
v -6.251 -1.150 2.033
v -6.251 0.999 1.440
v -6.251 0.737 2.276
v -6.251 0.930 2.276
v -6.251 0.930 2.276
v -6.251 0.930 2.768
v -6.251 3.094 2.768
v -6.251 0.930 2.276
v -6.251 3.094 1.259
v -6.251 0.999 1.440
v -6.251 3.094 1.259
v -6.251 0.930 2.276
v -6.251 3.094 2.768
v -6.251 -2.187 1.348
v -6.251 -2.187 0.000
v -6.251 -3.648 0.000
v -6.251 -3.648 0.000
v -6.251 -3.648 1.826
v -6.251 -2.187 1.348
v -6.251 -2.187 2.033
v -6.251 -2.187 1.348
v -6.251 -3.648 1.826
v -6.251 -2.187 2.033
v -6.251 -3.648 2.768
v -6.251 -0.968 2.768
v -6.251 -0.968 2.768
v -6.251 -1.249 2.033
v -6.251 -2.187 2.033
v -6.251 -3.648 2.768
v -6.251 -2.187 2.033
v -6.251 -3.648 1.826
v -6.251 -2.187 2.033
v -6.251 -1.150 0.000
v -6.251 -2.187 0.000
v -6.251 -1.150 0.000
v -6.251 -2.187 2.033
v -6.251 -1.150 2.033
v -6.251 0.499 2.276
v 0.000 0.499 2.768
v 0.000 0.499 2.276
v 0.000 0.499 2.768
v -6.251 0.499 2.276
v -6.251 0.499 2.768
v 0.000 0.499 2.276
v -0.000 0.930 2.276
v -6.251 0.930 2.276
v -6.251 0.930 2.276
v -6.251 0.499 2.276
v 0.000 0.499 2.276
v -0.000 0.930 2.768
v -6.251 0.930 2.276
v -0.000 0.930 2.276
v -6.251 0.930 2.276
v -0.000 0.930 2.768
v -6.251 0.930 2.768
v -1.470 -1.511 2.768
v 0.000 -1.718 2.768
v -0.000 0.499 2.768
v -0.000 0.499 2.768
v -1.574 0.499 2.768
v -1.470 -1.511 2.768
v -3.104 -1.486 2.768
v -2.103 -1.903 2.768
v -1.470 -1.511 2.768
v -3.104 -1.486 2.768
v -1.574 0.499 2.768
v -3.070 0.499 2.768
v -1.574 0.499 2.768
v -3.104 -1.486 2.768
v -1.470 -1.511 2.768
v -1.470 -1.511 2.768
v -2.103 -1.903 2.768
v -2.077 -3.648 2.768
v -1.470 -1.511 2.768
v 0.000 -3.648 2.768
v 0.000 -1.718 2.768
v 0.000 -3.648 2.768
v -1.470 -1.511 2.768
v -2.077 -3.648 2.768
v -4.710 -1.514 2.768
v -4.166 -1.869 2.768
v -3.104 -1.486 2.768
v -3.104 -1.486 2.768
v -3.070 0.499 2.768
v -4.647 0.499 2.768
v -4.647 0.499 2.768
v -4.710 -1.514 2.768
v -3.104 -1.486 2.768
v -4.198 -3.648 2.768
v -3.104 -1.486 2.768
v -4.166 -1.869 2.768
v -3.104 -1.486 2.768
v -4.198 -3.648 2.768
v -2.077 -3.648 2.768
v -3.104 -1.486 2.768
v -2.077 -3.648 2.768
v -2.103 -1.903 2.768
v -4.710 -1.514 2.768
v -4.647 0.499 2.768
v -6.251 0.499 2.768
v -6.251 0.499 2.768
v -6.251 -1.702 2.768
v -4.710 -1.514 2.768
v -6.251 -3.648 2.768
v -4.710 -1.514 2.768
v -6.251 -1.702 2.768
v -4.710 -1.514 2.768
v -6.251 -3.648 2.768
v -4.198 -3.648 2.768
v -4.710 -1.514 2.768
v -4.198 -3.648 2.768
v -4.166 -1.869 2.768
v -2.007 2.706 1.665
v -1.726 2.681 2.768
v 0.000 2.523 2.768
v -2.007 2.706 1.665
v 0.000 2.523 -0.000
v -1.205 2.633 -0.000
v 0.000 2.523 -0.000
v -2.007 2.706 1.665
v 0.000 2.523 2.768
v -2.007 2.706 1.665
v -3.758 2.866 0.984
v -4.189 2.906 1.573
v -2.007 2.706 1.665
v -4.190 2.906 2.768
v -1.726 2.681 2.768
v -4.190 2.906 2.768
v -2.007 2.706 1.665
v -4.189 2.906 1.573
v -3.767 2.867 -0.000
v -2.007 2.706 1.665
v -1.205 2.633 -0.000
v -2.007 2.706 1.665
v -3.767 2.867 -0.000
v -3.758 2.866 0.984
v -4.189 2.906 1.573
v -6.251 3.094 1.090
v -6.251 3.094 2.768
v -6.251 3.094 2.768
v -4.190 2.906 2.768
v -4.189 2.906 1.573
v -6.251 3.094 -0.000
v -3.758 2.866 0.984
v -3.767 2.867 -0.000
v -4.189 2.906 1.573
v -6.251 3.094 -0.000
v -6.251 3.094 1.090
v -3.758 2.866 0.984
v -6.251 3.094 -0.000
v -4.189 2.906 1.573
v 0.000 -1.488 2.193
v 0.000 -0.569 2.194
v 0.000 -0.552 2.768
v 0.000 -1.488 2.193
v 0.000 -3.648 2.768
v 0.000 -3.648 1.787
v 0.000 -3.648 1.787
v 0.000 -1.488 1.225
v 0.000 -1.488 2.193
v 0.000 -3.648 2.768
v 0.000 -1.488 2.193
v 0.000 -0.552 2.768
v 0.000 0.930 2.276
v 0.000 -0.012 1.235
v 0.000 2.523 1.564
v 0.000 0.930 2.276
v 0.000 2.523 2.768
v 0.000 0.930 2.768
v 0.000 -0.012 2.195
v 0.000 0.499 2.768
v 0.000 -0.552 2.768
v 0.000 -0.552 2.768
v 0.000 -0.569 2.194
v 0.000 -0.012 2.195
v 0.000 2.523 2.768
v 0.000 0.930 2.276
v 0.000 2.523 1.564
v 0.000 0.499 2.768
v 0.000 -0.012 2.195
v 0.000 0.499 2.276
v 0.000 0.499 2.276
v 0.000 -0.012 1.235
v 0.000 0.930 2.276
v 0.000 -0.012 1.235
v 0.000 0.499 2.276
v 0.000 -0.012 2.195
v 0.000 -3.648 -0.000
v 0.000 -1.488 1.225
v 0.000 -3.648 1.787
v 0.000 -1.488 0.050
v 0.000 -0.677 -0.000
v 0.000 -0.676 0.050
v 0.000 -1.488 1.225
v 0.000 -3.648 -0.000
v 0.000 -1.488 0.050
v 0.000 -0.677 -0.000
v 0.000 -1.488 0.050
v 0.000 -3.648 -0.000
v 0.000 -0.012 0.050
v 0.000 -0.676 0.050
v 0.000 -0.677 -0.000
v 0.000 2.523 -0.000
v 0.000 2.523 1.564
v 0.000 -0.012 1.235
v 0.000 -0.012 0.050
v 0.000 -0.677 -0.000
v 0.000 2.523 -0.000
v 0.000 2.523 -0.000
v 0.000 -0.012 1.235
v 0.000 -0.012 0.050
v 4.176 2.080 1.378
v 3.670 2.126 2.736
v 6.102 1.903 2.736
v 6.102 1.903 2.736
v 6.102 1.903 1.428
v 4.176 2.080 1.378
v 2.233 2.258 0.050
v 0.571 2.411 0.050
v 0.571 2.411 2.736
v 0.571 2.411 2.736
v 2.260 2.256 2.736
v 2.233 2.258 0.050
v 4.176 2.080 1.378
v 6.102 1.903 1.428
v 6.102 1.903 0.050
v 6.102 1.903 0.050
v 3.717 2.122 0.050
v 4.176 2.080 1.378
v 4.176 2.080 1.378
v 3.717 2.122 0.050
v 2.233 2.258 0.050
v 4.176 2.080 1.378
v 2.260 2.256 2.736
v 3.670 2.126 2.736
v 2.260 2.256 2.736
v 4.176 2.080 1.378
v 2.233 2.258 0.050
v 6.102 0.930 2.276
v 6.102 1.903 1.489
v 6.102 1.903 2.736
v 6.102 1.903 2.736
v 6.102 0.930 2.736
v 6.102 0.930 2.276
v 6.102 0.499 2.276
v 6.102 0.499 2.736
v 6.102 -0.659 2.736
v 6.102 1.903 1.489
v 6.102 0.930 2.276
v 6.102 -0.016 1.306
v 6.102 0.499 2.276
v 6.102 -0.659 2.736
v 6.102 -0.016 1.306
v 6.102 -0.016 1.306
v 6.102 0.930 2.276
v 6.102 0.499 2.276
v 6.102 -0.016 1.306
v 6.102 -1.343 2.736
v 6.102 -2.238 1.003
v 6.102 -2.238 1.003
v 6.102 -2.025 0.050
v 6.102 -0.355 0.050
v 6.102 -1.343 2.736
v 6.102 -0.016 1.306
v 6.102 -0.659 2.736
v 6.102 -0.016 1.306
v 6.102 -2.238 1.003
v 6.102 -0.355 0.050
v 6.102 -0.016 1.306
v 6.102 -0.355 0.050
v 6.102 1.903 0.050
v 6.102 1.903 0.050
v 6.102 1.903 1.489
v 6.102 -0.016 1.306
v 6.102 -3.483 2.276
v 6.102 -2.238 1.003
v 6.102 -1.343 2.736
v 6.102 -1.343 2.736
v 6.102 -3.483 2.736
v 6.102 -3.483 2.276
v 6.102 -3.906 2.276
v 6.102 -3.906 2.736
v 6.102 -4.184 2.736
v 6.102 -2.238 1.003
v 6.102 -3.483 2.276
v 6.102 -3.972 1.858
v 6.102 -3.906 2.276
v 6.102 -4.184 2.736
v 6.102 -3.972 1.858
v 6.102 -3.972 1.858
v 6.102 -3.483 2.276
v 6.102 -3.906 2.276
v 6.102 -2.238 1.003
v 6.102 -3.972 1.858
v 6.102 -4.710 0.050
v 6.102 -4.710 0.050
v 6.102 -2.025 0.050
v 6.102 -2.238 1.003
v 6.102 -3.972 1.858
v 6.102 -4.184 2.736
v 6.102 -6.160 2.736
v 6.102 -6.160 2.736
v 6.102 -6.160 0.050
v 6.102 -4.710 0.050
v 6.102 -4.710 0.050
v 6.102 -3.972 1.858
v 6.102 -6.160 2.736
v 2.519 -6.160 1.488
v 2.081 -6.160 2.736
v 0.571 -6.160 2.736
v 2.519 -6.160 1.488
v 0.571 -6.160 0.050
v 1.928 -6.160 0.050
v 0.571 -6.160 0.050
v 2.519 -6.160 1.488
v 0.571 -6.160 2.736
v 4.147 -6.160 1.301
v 2.519 -6.160 1.488
v 1.928 -6.160 0.050
v 1.928 -6.160 0.050
v 4.580 -6.160 0.050
v 4.147 -6.160 1.301
v 4.147 -6.160 1.301
v 4.580 -6.160 0.050
v 6.102 -6.160 0.050
v 4.147 -6.160 1.301
v 6.102 -6.160 2.736
v 4.742 -6.160 2.736
v 6.102 -6.160 2.736
v 4.147 -6.160 1.301
v 6.102 -6.160 0.050
v 2.519 -6.160 1.488
v 4.147 -6.160 1.301
v 4.742 -6.160 2.736
v 4.742 -6.160 2.736
v 2.081 -6.160 2.736
v 2.519 -6.160 1.488
v 0.571 -0.013 2.195
v 0.571 -0.012 2.195
v 0.000 -0.012 2.195
v 0.571 -0.013 2.195
v 0.000 -1.488 2.193
v 0.571 -1.488 2.193
v 0.000 -1.488 2.193
v 0.571 -0.013 2.195
v 0.000 -0.012 2.195
v -0.000 -0.012 2.195
v 0.571 -0.012 0.050
v -0.000 -0.012 0.050
v 0.571 -0.012 0.050
v -0.000 -0.012 2.195
v 0.571 -0.012 2.195
v 0.571 -1.488 0.050
v 0.000 -1.488 2.193
v 0.000 -1.488 0.050
v 0.000 -1.488 2.193
v 0.571 -1.488 0.050
v 0.571 -1.488 2.193
v 0.571 -0.150 0.050
v 0.571 -0.041 0.050
v 0.523 -0.069 0.050
v -4.416 2.881 1.100
v -4.510 1.985 1.100
v -6.131 2.156 1.100
v -6.131 2.156 1.100
v -6.037 3.051 1.100
v -4.416 2.881 1.100
v -4.416 2.881 0.000
v -6.037 3.051 1.100
v -6.037 3.051 0.000
v -6.037 3.051 1.100
v -4.416 2.881 0.000
v -4.416 2.881 1.100
v -4.510 1.985 1.100
v -4.416 2.881 0.000
v -4.510 1.985 -0.000
v -4.416 2.881 0.000
v -4.510 1.985 1.100
v -4.416 2.881 1.100
v -6.131 2.156 0.000
v -4.510 1.985 1.100
v -4.510 1.985 -0.000
v -4.510 1.985 1.100
v -6.131 2.156 0.000
v -6.131 2.156 1.100
v -6.131 2.156 0.000
v -6.037 3.051 1.100
v -6.131 2.156 1.100
v -6.037 3.051 1.100
v -6.131 2.156 0.000
v -6.037 3.051 0.000
v -6.152 -3.623 0.000
v -4.522 -3.623 1.100
v -4.522 -3.623 -0.000
v -4.522 -3.623 1.100
v -6.152 -3.623 0.000
v -6.152 -3.623 1.100
v -4.522 -3.053 0.000
v -6.152 -3.053 1.100
v -6.152 -3.053 -0.000
v -6.152 -3.053 1.100
v -4.522 -3.053 0.000
v -4.522 -3.053 1.100
v -6.152 -3.053 1.100
v -4.522 -3.623 1.100
v -6.152 -3.623 1.100
v -4.522 -3.623 1.100
v -6.152 -3.053 1.100
v -4.522 -3.053 1.100
v -4.522 -3.623 1.100
v -4.522 -3.053 0.000
v -4.522 -3.623 -0.000
v -4.522 -3.053 0.000
v -4.522 -3.623 1.100
v -4.522 -3.053 1.100
v -6.152 -3.623 0.000
v -6.152 -3.053 1.100
v -6.152 -3.623 1.100
v -6.152 -3.053 1.100
v -6.152 -3.623 0.000
v -6.152 -3.053 -0.000
v -0.115 1.598 1.100
v -0.051 2.496 0.000
v -0.115 1.598 -0.000
v -0.051 2.496 0.000
v -0.115 1.598 1.100
v -0.051 2.496 1.100
v -0.051 2.496 1.100
v -0.115 1.598 1.100
v -1.741 1.715 1.100
v -1.741 1.715 1.100
v -1.677 2.612 1.100
v -0.051 2.496 1.100
v -0.051 2.496 0.000
v -1.677 2.612 1.100
v -1.677 2.612 -0.000
v -1.677 2.612 1.100
v -0.051 2.496 0.000
v -0.051 2.496 1.100
v -1.741 1.715 0.000
v -1.677 2.612 1.100
v -1.741 1.715 1.100
v -1.677 2.612 1.100
v -1.741 1.715 0.000
v -1.677 2.612 0.000
v -0.013 -3.613 1.100
v -0.013 -1.983 0.000
v -0.013 -3.613 -0.000
v -0.013 -1.983 0.000
v -0.013 -3.613 1.100
v -0.013 -1.983 1.100
v -0.013 -1.983 0.000
v -0.913 -1.983 1.100
v -0.913 -1.983 0.000
v -0.913 -1.983 1.100
v -0.013 -1.983 0.000
v -0.013 -1.983 1.100
v -0.913 -2.798 1.100
v -2.803 -3.613 1.100
v -2.803 -2.798 1.100
v -0.913 -2.798 1.100
v -0.913 -1.983 1.100
v -0.013 -1.983 1.100
v -2.803 -3.613 1.100
v -0.913 -2.798 1.100
v -0.013 -3.613 1.100
v -0.913 -2.798 1.100
v -0.013 -1.983 1.100
v -0.013 -3.613 1.100
v -2.803 -3.613 0.000
v -0.013 -3.613 1.100
v -0.013 -3.613 0.000
v -0.013 -3.613 1.100
v -2.803 -3.613 0.000
v -2.803 -3.613 1.100
v -5.442 1.479 -0.000
v -5.442 1.479 1.000
v -5.442 -0.091 1.000
v -5.442 -0.091 1.000
v -5.442 -0.091 0.000
v -5.442 1.479 -0.000
v -5.442 -0.091 -0.000
v -5.342 -0.091 1.000
v -5.342 -0.091 -0.000
v -5.342 -0.091 1.000
v -5.442 -0.091 -0.000
v -5.442 -0.091 1.000
v -5.342 1.479 1.000
v -5.342 -0.091 1.000
v -5.442 -0.091 1.000
v -5.442 -0.091 1.000
v -5.442 1.479 1.000
v -5.342 1.479 1.000
v -5.342 1.479 1.000
v -5.342 1.479 0.000
v -5.342 -0.091 0.000
v -5.342 -0.091 0.000
v -5.342 -0.091 1.000
v -5.342 1.479 1.000
v -5.342 1.479 -0.000
v -5.442 1.479 1.000
v -5.442 1.479 -0.000
v -5.442 1.479 1.000
v -5.342 1.479 -0.000
v -5.342 1.479 1.000
v -3.556 2.559 1.000
v -3.509 2.471 0.000
v -3.509 2.471 1.000
v -3.509 2.471 0.000
v -3.556 2.559 1.000
v -3.556 2.559 0.000
v -4.372 1.972 1.000
v -3.509 2.471 0.000
v -4.372 1.972 0.000
v -3.509 2.471 0.000
v -4.372 1.972 1.000
v -3.509 2.471 1.000
v -3.509 2.471 1.000
v -4.372 1.972 1.000
v -4.422 2.059 1.000
v -4.422 2.059 1.000
v -3.556 2.559 1.000
v -3.509 2.471 1.000
v -4.422 2.059 0.000
v -4.422 2.059 1.000
v -4.372 1.972 1.000
v -4.372 1.972 1.000
v -4.372 1.972 0.000
v -4.422 2.059 0.000
v -3.556 2.559 0.000
v -4.422 2.059 1.000
v -4.422 2.059 0.000
v -4.422 2.059 1.000
v -3.556 2.559 0.000
v -3.556 2.559 1.000
v -2.509 2.562 1.000
v -2.509 2.562 0.000
v -2.509 2.462 0.000
v -2.509 2.462 0.000
v -2.509 2.462 1.000
v -2.509 2.562 1.000
v -2.509 2.562 0.000
v -3.509 2.562 1.000
v -3.509 2.562 0.000
v -3.509 2.562 1.000
v -2.509 2.562 0.000
v -2.509 2.562 1.000
v -3.509 2.471 -0.000
v -3.509 2.471 1.000
v -3.509 2.462 1.000
v -3.509 2.462 1.000
v -3.509 2.462 -0.000
v -3.509 2.471 -0.000
v -3.509 2.471 1.000
v -3.509 2.562 -0.000
v -3.509 2.562 1.000
v -3.509 2.562 -0.000
v -3.509 2.471 1.000
v -3.509 2.471 -0.000
v -3.509 2.462 0.000
v -2.509 2.462 1.000
v -2.509 2.462 0.000
v -2.509 2.462 1.000
v -3.509 2.462 0.000
v -3.509 2.462 1.000
v -2.509 2.462 1.000
v -3.509 2.462 1.000
v -3.509 2.471 1.000
v -3.509 2.471 1.000
v -3.509 2.562 1.000
v -2.509 2.562 1.000
v -2.509 2.562 1.000
v -2.509 2.462 1.000
v -3.509 2.471 1.000
v -2.390 2.524 1.000
v -1.864 1.668 1.000
v -2.470 2.464 1.000
v -1.864 1.668 1.000
v -2.390 2.524 1.000
v -1.784 1.729 1.000
v -1.784 1.729 1.000
v -2.390 2.524 0.000
v -1.784 1.729 -0.000
v -2.390 2.524 0.000
v -1.784 1.729 1.000
v -2.390 2.524 1.000
v -1.864 1.668 0.000
v -2.470 2.464 1.000
v -1.864 1.668 1.000
v -2.470 2.464 1.000
v -1.864 1.668 0.000
v -2.470 2.464 0.000
v -2.390 2.524 -0.000
v -2.470 2.464 1.000
v -2.470 2.464 -0.000
v -2.470 2.464 1.000
v -2.390 2.524 -0.000
v -2.390 2.524 1.000
v -1.864 1.668 1.000
v -1.784 1.729 1.000
v -1.784 1.729 0.000
v -1.784 1.729 0.000
v -1.864 1.668 0.000
v -1.864 1.668 1.000
v -4.352 1.884 1.000
v -5.281 1.514 1.000
v -5.318 1.607 1.000
v -5.318 1.607 1.000
v -4.389 1.977 1.000
v -4.352 1.884 1.000
v -5.281 1.514 1.000
v -4.352 1.884 1.000
v -4.352 1.884 -0.000
v -4.352 1.884 -0.000
v -5.281 1.514 -0.000
v -5.281 1.514 1.000
v -5.281 1.514 0.000
v -5.318 1.607 1.000
v -5.281 1.514 1.000
v -5.318 1.607 1.000
v -5.281 1.514 0.000
v -5.318 1.607 0.000
v -4.389 1.977 -0.000
v -5.318 1.607 1.000
v -5.318 1.607 -0.000
v -5.318 1.607 1.000
v -4.389 1.977 -0.000
v -4.389 1.977 1.000
v -4.352 1.884 1.000
v -4.389 1.977 0.000
v -4.352 1.884 -0.000
v -4.389 1.977 0.000
v -4.352 1.884 1.000
v -4.389 1.977 1.000
v -0.913 -2.798 0.000
v -0.913 -1.983 1.100
v -0.913 -2.798 1.100
v -0.913 -1.983 1.100
v -0.913 -2.798 0.000
v -0.913 -1.983 -0.000
v -2.803 -3.613 0.000
v -2.803 -2.798 1.100
v -2.803 -3.613 1.100
v -2.803 -2.798 1.100
v -2.803 -3.613 0.000
v -2.803 -2.798 -0.000
v -0.913 -2.798 0.000
v -2.803 -2.798 1.100
v -2.803 -2.798 -0.000
v -2.803 -2.798 1.100
v -0.913 -2.798 0.000
v -0.913 -2.798 1.100
v 0.571 2.411 1.176
v 0.571 2.411 0.050
v 0.571 0.043 0.050
v 0.571 0.043 0.050
v 0.571 -0.012 0.050
v 0.571 -0.012 1.525
v 0.571 -0.012 1.525
v 0.571 2.411 1.176
v 0.571 0.043 0.050
v 0.571 0.499 2.276
v 0.571 -0.012 2.195
v 0.571 0.499 2.736
v 0.571 0.930 2.276
v 0.571 0.930 2.736
v 0.571 2.411 2.736
v 0.571 0.930 2.276
v 0.571 2.411 1.176
v 0.571 -0.012 1.525
v 0.571 -0.012 2.195
v 0.571 0.499 2.276
v 0.571 -0.012 1.525
v 0.571 2.411 1.176
v 0.571 0.930 2.276
v 0.571 2.411 2.736
v 0.571 -0.012 1.525
v 0.571 0.499 2.276
v 0.571 0.930 2.276
v 0.571 -3.740 0.050
v 0.571 -1.488 1.247
v 0.571 -1.488 0.050
v 0.571 -1.488 1.247
v 0.571 -3.740 0.050
v 0.571 -2.689 2.027
v 0.571 -1.488 2.193
v 0.571 -2.918 2.736
v 0.571 0.499 2.736
v 0.571 0.499 2.736
v 0.571 -0.014 2.195
v 0.571 -1.488 2.193
v 0.571 -1.488 2.193
v 0.571 -1.488 1.247
v 0.571 -2.689 2.027
v 0.571 -2.918 2.736
v 0.571 -1.488 2.193
v 0.571 -2.689 2.027
v 0.571 -3.906 2.276
v 0.571 -3.740 0.050
v 0.571 -4.425 0.050
v 0.571 -3.906 2.276
v 0.571 -4.769 2.736
v 0.571 -3.906 2.736
v 0.571 -3.483 2.276
v 0.571 -3.483 2.736
v 0.571 -2.918 2.736
v 0.571 -3.740 0.050
v 0.571 -3.483 2.276
v 0.571 -2.689 2.027
v 0.571 -4.769 2.736
v 0.571 -3.906 2.276
v 0.571 -4.425 0.050
v 0.571 -2.689 2.027
v 0.571 -3.483 2.276
v 0.571 -2.918 2.736
v 0.571 -3.740 0.050
v 0.571 -3.906 2.276
v 0.571 -3.483 2.276
v 0.571 -4.769 2.736
v 0.571 -6.160 0.050
v 0.571 -6.160 2.736
v 0.571 -6.160 0.050
v 0.571 -4.769 2.736
v 0.571 -4.425 0.050
v 0.571 0.499 2.736
v 0.571 -0.013 2.195
v 0.571 -0.014 2.195
v 0.571 0.499 2.736
v 0.571 -0.012 2.195
v 0.571 -0.013 2.195
v 0.572 -0.152 0.050
v 0.571 -1.488 0.050
v 0.571 -0.150 0.050
v 0.571 -0.041 0.050
v 0.523 -0.069 2.190
v 0.523 -0.069 0.050
v 0.588 -0.031 2.190
v 0.571 -0.041 0.050
v 0.572 -0.041 0.050
v 0.588 -0.031 2.190
v 0.583 -0.034 0.050
v 0.588 -0.031 0.050
v 0.571 -0.041 0.050
v 0.588 -0.031 2.190
v 0.523 -0.069 2.190
v 0.583 -0.034 0.050
v 0.588 -0.031 2.190
v 0.572 -0.041 0.050
v 0.573 0.044 2.220
v 0.573 0.044 0.050
v 1.367 -1.310 0.050
v 1.367 -1.310 0.050
v 1.367 -1.310 2.220
v 0.573 0.044 2.220
v 0.547 0.029 0.050
v 0.573 0.044 0.050
v 0.573 0.044 2.220
v 0.573 0.044 2.220
v 0.547 0.029 2.220
v 0.547 0.029 0.050
v 0.572 -0.152 0.050
v 1.247 -1.302 2.190
v 1.247 -1.302 0.050
v 0.523 -0.069 2.190
v 0.572 -0.152 0.050
v 0.571 -0.150 0.050
v 0.571 -0.150 0.050
v 0.523 -0.069 0.050
v 0.523 -0.069 2.190
v 0.572 -0.152 0.050
v 0.523 -0.069 2.190
v 1.247 -1.302 2.190
v 1.311 -1.264 2.190
v 1.311 -1.264 0.050
v 1.307 -1.267 0.050
v 1.307 -1.267 0.050
v 1.252 -1.308 0.050
v 1.252 -1.308 2.190
v 1.252 -1.308 2.190
v 1.311 -1.264 2.190
v 1.307 -1.267 0.050
v 1.307 -1.267 0.050
v 1.341 -1.326 2.220
v 1.341 -1.326 0.050
v 0.547 0.029 2.220
v 0.572 -0.014 0.050
v 0.571 -0.012 0.050
v 0.571 -0.012 0.050
v 0.547 0.029 0.050
v 0.547 0.029 2.220
v 0.584 -0.034 0.050
v 1.341 -1.326 2.220
v 1.307 -1.267 0.050
v 0.572 -0.014 0.050
v 0.547 0.029 2.220
v 0.584 -0.034 0.050
v 1.341 -1.326 2.220
v 0.584 -0.034 0.050
v 0.547 0.029 2.220
v 1.311 -1.264 2.190
v 1.247 -1.302 2.190
v 0.523 -0.069 2.190
v 0.523 -0.069 2.190
v 0.588 -0.031 2.190
v 1.311 -1.264 2.190
v 1.341 -1.326 0.050
v 1.367 -1.310 2.220
v 1.367 -1.310 0.050
v 1.367 -1.310 2.220
v 1.341 -1.326 0.050
v 1.341 -1.326 2.220
v 1.367 -1.310 2.220
v 1.341 -1.326 2.220
v 0.547 0.029 2.220
v 0.547 0.029 2.220
v 0.573 0.044 2.220
v 1.367 -1.310 2.220
v 0.571 0.043 0.050
v 0.547 0.029 0.050
v 0.571 -0.012 0.050
v 1.311 -1.264 0.050
v 1.341 -1.326 0.050
v 1.307 -1.267 0.050
v 0.588 -0.031 0.050
v 0.572 -0.014 0.050
v 0.573 0.044 0.050
v 1.341 -1.326 0.050
v 1.311 -1.264 0.050
v 1.367 -1.310 0.050
v 1.367 -1.310 0.050
v 0.588 -0.031 0.050
v 0.573 0.044 0.050
v 0.588 -0.031 0.050
v 1.367 -1.310 0.050
v 1.311 -1.264 0.050
v 1.307 -1.267 0.050
v 1.247 -1.302 0.050
v 0.572 -0.152 0.050
v 0.572 -0.152 0.050
v 0.572 -0.041 0.050
v 0.583 -0.034 0.050
v 0.583 -0.034 0.050
v 1.307 -1.267 0.050
v 0.572 -0.152 0.050
v 4.393 -4.251 0.050
v 6.102 -4.219 0.050
v 6.102 -6.160 0.050
v 6.102 -6.160 0.050
v 4.114 -6.160 0.050
v 4.393 -4.251 0.050
v 4.114 -6.160 0.050
v 2.609 -6.160 0.050
v 2.310 -4.292 0.050
v 4.393 -4.251 0.050
v 2.757 -3.793 0.050
v 3.939 -3.775 0.050
v 2.310 -4.292 0.050
v 4.393 -4.251 0.050
v 4.114 -6.160 0.050
v 2.757 -3.793 0.050
v 4.393 -4.251 0.050
v 2.310 -4.292 0.050
v 4.393 -4.251 0.050
v 3.939 -3.775 0.050
v 4.485 -2.224 0.050
v 4.485 -2.224 0.050
v 6.102 -2.223 0.050
v 6.102 -4.219 0.050
v 6.102 -4.219 0.050
v 4.393 -4.251 0.050
v 4.485 -2.224 0.050
v 4.485 -2.224 0.050
v 2.757 -3.793 0.050
v 2.148 -2.246 0.050
v 4.485 -2.224 0.050
v 2.657 -1.585 0.050
v 3.946 -1.536 0.050
v 2.757 -3.793 0.050
v 4.485 -2.224 0.050
v 3.939 -3.775 0.050
v 2.657 -1.585 0.050
v 4.485 -2.224 0.050
v 2.148 -2.246 0.050
v 6.102 1.903 0.050
v 4.088 0.365 0.050
v 4.479 2.052 0.050
v 4.088 0.365 0.050
v 6.102 1.903 0.050
v 6.102 -0.165 0.050
v 4.088 0.365 0.050
v 6.102 -0.165 0.050
v 4.452 -0.137 0.050
v 2.310 -4.292 0.050
v 2.609 -6.160 0.050
v 0.571 -6.160 0.050
v 0.571 -6.160 0.050
v 0.571 -4.275 0.050
v 2.310 -4.292 0.050
v 4.485 -2.224 0.050
v 3.946 -1.536 0.050
v 4.452 -0.137 0.050
v 4.485 -2.224 0.050
v 6.102 -0.165 0.050
v 6.102 -2.223 0.050
v 6.102 -0.165 0.050
v 4.485 -2.224 0.050
v 4.452 -0.137 0.050
v 2.471 0.450 0.050
v 2.657 -1.585 0.050
v 2.036 -0.014 0.050
v 2.657 -1.585 0.050
v 2.471 0.450 0.050
v 4.088 0.365 0.050
v 4.088 0.365 0.050
v 4.452 -0.137 0.050
v 3.946 -1.536 0.050
v 2.657 -1.585 0.050
v 4.088 0.365 0.050
v 3.946 -1.536 0.050
v 1.367 -1.310 0.050
v 2.657 -1.585 0.050
v 2.148 -2.246 0.050
v 1.247 -1.302 0.050
v 0.571 -2.281 0.050
v 0.571 -1.488 0.050
v 0.571 -1.488 0.050
v 0.572 -0.152 0.050
v 1.247 -1.302 0.050
v 1.247 -1.302 0.050
v 1.307 -1.267 0.050
v 1.341 -1.326 0.050
v 1.367 -1.310 0.050
v 0.616 -0.029 0.050
v 2.036 -0.014 0.050
v 1.341 -1.326 0.050
v 0.571 -2.281 0.050
v 1.247 -1.302 0.050
v 2.657 -1.585 0.050
v 1.367 -1.310 0.050
v 2.036 -0.014 0.050
v 0.571 -2.281 0.050
v 1.341 -1.326 0.050
v 2.148 -2.246 0.050
v 1.341 -1.326 0.050
v 1.367 -1.310 0.050
v 2.148 -2.246 0.050
v 2.148 -2.246 0.050
v 2.757 -3.793 0.050
v 2.310 -4.292 0.050
v 2.148 -2.246 0.050
v 0.571 -4.275 0.050
v 0.571 -2.281 0.050
v 0.571 -4.275 0.050
v 2.148 -2.246 0.050
v 2.310 -4.292 0.050
v 4.479 2.052 0.050
v 2.471 0.450 0.050
v 2.318 2.251 0.050
v 2.471 0.450 0.050
v 4.479 2.052 0.050
v 4.088 0.365 0.050
v 0.573 0.044 0.050
v 2.036 -0.014 0.050
v 0.616 -0.029 0.050
v 0.573 0.044 0.050
v 0.571 0.043 0.050
v 0.571 2.411 0.050
v 0.571 2.411 0.050
v 2.318 2.251 0.050
v 2.471 0.450 0.050
v 2.036 -0.014 0.050
v 0.573 0.044 0.050
v 2.471 0.450 0.050
v 0.573 0.044 0.050
v 0.571 2.411 0.050
v 2.471 0.450 0.050
v 0.583 -0.034 0.050
v 0.572 -0.041 0.050
v 0.572 -0.014 0.050
v 0.000 -1.488 0.050
v 0.571 -0.150 0.050
v 0.571 -1.488 0.050
v 0.571 -0.150 0.050
v 0.000 -1.488 0.050
v 0.000 -0.012 0.050
v 0.523 -0.069 0.050
v 0.571 -0.012 0.050
v 0.571 -0.041 0.050
v 0.571 -0.150 0.050
v 0.000 -0.012 0.050
v 0.523 -0.069 0.050
v 0.571 -0.012 0.050
v 0.523 -0.069 0.050
v 0.000 -0.012 0.050
v 1.311 -1.264 0.050
v 1.307 -1.267 0.050
v 0.583 -0.034 0.050
v 0.583 -0.034 0.050
v 0.588 -0.031 0.050
v 1.311 -1.264 0.050
v -1.741 1.715 0.000
v -0.115 1.598 1.100
v -0.115 1.598 -0.000
v -0.115 1.598 1.100
v -1.741 1.715 0.000
v -1.741 1.715 1.100

usemtl Patch_1_Mat_CR1_paintedConcrete
f 3 2 1
f 6 5 4

usemtl Patch_2_Mat_CR1_paintedConcrete
f 9 8 7
f 12 11 10

usemtl Patch_3_Mat_CR1_paintedConcrete
f 15 14 13
f 18 17 16

usemtl Patch_4_Mat_CR1_paintedConcrete
f 21 20 19
f 24 23 22

usemtl Patch_5_Mat_CR1_paintedConcrete
f 27 26 25
f 30 29 28

usemtl Patch_6_Mat_CR1_paintedConcrete
f 33 32 31
f 36 35 34

usemtl Patch_7_Mat_CR1_paintedConcrete
f 39 38 37
f 42 41 40

usemtl Patch_8_Mat_CR1_paintedConcrete
f 45 44 43
f 48 47 46

usemtl Patch_9_Mat_CR1_paintedConcrete
f 51 50 49
f 54 53 52

usemtl Patch_10_Mat_CR1_paintedConcrete
f 57 56 55
f 60 59 58

usemtl Patch_11_Mat_CR1_paintedConcrete
f 63 62 61
f 66 65 64

usemtl Patch_12_Mat_CR1_paintedConcrete
f 69 68 67
f 72 71 70

usemtl Patch_13_Mat_CR1_paintedConcrete
f 75 74 73
f 78 77 76
f 81 80 79

usemtl Patch_14_Mat_CR1_paintedConcrete
f 84 83 82
f 87 86 85
f 90 89 88

usemtl Patch_15_Mat_CR1_paintedConcrete
f 93 92 91
f 96 95 94

usemtl Patch_16_Mat_CR1_paintedConcrete
f 99 98 97
f 102 101 100
f 105 104 103

usemtl Patch_17_Mat_CR1_paintedConcrete
f 108 107 106
f 111 110 109

usemtl Patch_18_Mat_CR1_paintedConcrete
f 114 113 112
f 117 116 115
f 120 119 118

usemtl Patch_19_Mat_CR1_concrete
f 123 122 121
f 126 125 124
f 129 128 127
f 132 131 130
f 135 134 133
f 138 137 136
f 141 140 139
f 144 143 142

usemtl Patch_20_Mat_CR1_concrete
f 147 146 145
f 150 149 148
f 153 152 151
f 156 155 154
f 159 158 157
f 162 161 160
f 165 164 163
f 168 167 166
f 171 170 169
f 174 173 172
f 177 176 175

usemtl Patch_21_Mat_CR1_concrete
f 180 179 178
f 183 182 181
f 186 185 184
f 189 188 187
f 192 191 190

usemtl Patch_22_Mat_CR1_concrete
f 195 194 193
f 198 197 196
f 201 200 199
f 204 203 202
f 207 206 205
f 210 209 208
f 213 212 211
f 216 215 214

usemtl Patch_23_Mat_CR1_concrete
f 219 218 217
f 222 221 220
f 225 224 223
f 228 227 226
f 231 230 229

usemtl Patch_24_Mat_CR1_concrete
f 234 233 232
f 237 236 235
f 240 239 238
f 243 242 241
f 246 245 244
f 249 248 247
f 252 251 250

usemtl Patch_25_Mat_CR1_concrete
f 255 254 253
f 258 257 256
f 261 260 259
f 264 263 262
f 267 266 265
f 270 269 268
f 273 272 271
f 276 275 274
f 279 278 277
f 282 281 280
f 285 284 283
f 288 287 286
f 291 290 289
f 294 293 292
f 297 296 295
f 300 299 298
f 303 302 301
f 306 305 304
f 309 308 307
f 312 311 310
f 315 314 313
f 318 317 316

usemtl Patch_26_Mat_CR1_concrete
f 321 320 319
f 324 323 322
f 327 326 325
f 330 329 328
f 333 332 331
f 336 335 334
f 339 338 337
f 342 341 340
f 345 344 343
f 348 347 346
f 351 350 349
f 354 353 352

usemtl Patch_27_Mat_CR1_concrete
f 357 356 355
f 360 359 358
f 363 362 361
f 366 365 364
f 369 368 367
f 372 371 370
f 375 374 373
f 378 377 376
f 381 380 379
f 384 383 382
f 387 386 385
f 390 389 388
f 393 392 391
f 396 395 394
f 399 398 397
f 402 401 400
f 405 404 403
f 408 407 406
f 411 410 409
f 414 413 412
f 417 416 415

usemtl Patch_28_Mat_CR1_concrete
f 420 419 418
f 423 422 421

usemtl Patch_29_Mat_CR1_concrete
f 426 425 424
f 429 428 427

usemtl Patch_30_Mat_CR1_concrete
f 432 431 430
f 435 434 433

usemtl Patch_31_Mat_CR1_concrete
f 438 437 436
f 441 440 439
f 444 443 442
f 447 446 445

usemtl Patch_32_Mat_CR1_concrete
f 450 449 448
f 453 452 451

usemtl Patch_33_Mat_CR1_concrete
f 456 455 454
f 459 458 457

usemtl Patch_34_Mat_CR1_concrete
f 462 461 460
f 465 464 463

usemtl Patch_35_Mat_CR1_concrete
f 468 467 466
f 471 470 469

usemtl Patch_36_Mat_CR1_concrete
f 474 473 472
f 477 476 475

usemtl Patch_37_Mat_CR1_concrete
f 480 479 478
f 483 482 481
f 486 485 484
f 489 488 487
f 492 491 490
f 495 494 493
f 498 497 496

usemtl Patch_38_Mat_CR1_concrete
f 501 500 499
f 504 503 502
f 507 506 505
f 510 509 508

usemtl Patch_39_Mat_CR1_concrete
f 513 512 511
f 516 515 514

usemtl Patch_40_Mat_CR1_concrete
f 519 518 517
f 522 521 520
f 525 524 523
f 528 527 526

usemtl Patch_41_Mat_CR1_concrete
f 531 530 529
f 534 533 532

usemtl Patch_42_Mat_CR1_concrete
f 537 536 535
f 540 539 538

usemtl Patch_43_Mat_CR1_concrete
f 543 542 541
f 546 545 544

usemtl Patch_44_Mat_CR1_concrete
f 549 548 547
f 552 551 550

usemtl Patch_45_Mat_CR1_concrete
f 555 554 553
f 558 557 556

usemtl Patch_46_Mat_CR1_concrete
f 561 560 559
f 564 563 562
f 567 566 565

usemtl Patch_47_Mat_CR1_concrete
f 570 569 568
f 573 572 571
f 576 575 574

usemtl Patch_48_Mat_CR1_concrete
f 579 578 577
f 582 581 580
f 585 584 583

usemtl Patch_49_Mat_CR1_concrete
f 588 587 586
f 591 590 589
f 594 593 592

usemtl Patch_50_Mat_CR1_concrete
f 597 596 595
f 600 599 598

usemtl Patch_51_Mat_CR1_concrete
f 603 602 601
f 606 605 604
f 609 608 607

usemtl Patch_52_Mat_CR1_concrete
f 612 611 610
f 615 614 613
f 618 617 616

usemtl Patch_53_Mat_CR1_concrete
f 621 620 619
f 624 623 622
f 627 626 625

usemtl Patch_54_Mat_CR1_concrete
f 630 629 628
f 633 632 631

usemtl Patch_55_Mat_CR1_concrete
f 636 635 634
f 639 638 637

usemtl Patch_56_Mat_CR1_concrete
f 642 641 640
f 645 644 643
f 648 647 646

usemtl Patch_57_Mat_CR1_concrete
f 651 650 649
f 654 653 652
f 657 656 655
f 660 659 658

usemtl Patch_58_Mat_CR1_concrete
f 663 662 661
f 666 665 664
f 669 668 667
f 672 671 670
f 675 674 673
f 678 677 676
f 681 680 679
f 684 683 682

usemtl Patch_59_Mat_CR1_concrete
f 687 686 685
f 690 689 688
f 693 692 691
f 696 695 694

usemtl Patch_60_Mat_CR1_concrete
f 699 698 697
f 702 701 700
f 705 704 703
f 708 707 706

usemtl Patch_61_Mat_CR1_paintedConcrete
f 711 710 709
f 714 713 712

usemtl Patch_62_Mat_CR1_paintedConcrete
f 717 716 715
f 720 719 718

usemtl Patch_63_Mat_CR1_paintedConcrete
f 723 722 721
f 726 725 724

usemtl Patch_64_Mat_CR1_paintedConcrete
f 729 728 727
f 732 731 730
f 735 734 733

usemtl Patch_65_Mat_CR1_paintedConcrete
f 738 737 736
f 741 740 739
f 744 743 742
f 747 746 745
f 750 749 748
f 753 752 751

usemtl Patch_66_Mat_CR1_paintedConcrete
f 756 755 754
f 759 758 757
f 762 761 760
f 765 764 763

usemtl Patch_67_Mat_CR1_paintedConcrete
f 768 767 766
f 771 770 769

usemtl Patch_68_Mat_CR1_paintedConcrete
f 774 773 772
f 777 776 775
f 780 779 778
f 783 782 781
f 786 785 784
f 789 788 787

usemtl Patch_69_Mat_CR1_paintedConcrete
f 792 791 790
f 795 794 793

usemtl Patch_70_Mat_CR1_paintedConcrete
f 798 797 796
f 801 800 799
f 804 803 802

usemtl Patch_71_Mat_CR1_paintedConcrete
f 807 806 805
f 810 809 808
f 813 812 811

usemtl Patch_72_Mat_CR1_paintedConcrete
f 816 815 814
f 819 818 817

usemtl Patch_73_Mat_CR1_paintedConcrete
f 822 821 820
f 825 824 823
f 828 827 826

usemtl Patch_74_Mat_CR1_paintedConcrete
f 831 830 829
f 834 833 832

usemtl Patch_75_Mat_CR1_concrete
f 837 836 835
f 840 839 838
f 843 842 841

usemtl Patch_76_Mat_CR1_concrete
f 846 845 844
f 849 848 847

usemtl Patch_77_Mat_CR1_concrete
f 852 851 850
f 855 854 853

usemtl Patch_78_Mat_CR1_concrete
f 858 857 856

usemtl Patch_79_Mat_CR1_tablesEquipment
f 861 860 859
f 864 863 862

usemtl Patch_80_Mat_CR1_tablesEquipment
f 867 866 865
f 870 869 868

usemtl Patch_81_Mat_CR1_tablesEquipment
f 873 872 871
f 876 875 874

usemtl Patch_82_Mat_CR1_tablesEquipment
f 879 878 877
f 882 881 880

usemtl Patch_83_Mat_CR1_tablesEquipment
f 885 884 883
f 888 887 886

usemtl Patch_84_Mat_CR1_tablesEquipment
f 891 890 889
f 894 893 892

usemtl Patch_85_Mat_CR1_tablesEquipment
f 897 896 895
f 900 899 898

usemtl Patch_86_Mat_CR1_tablesEquipment
f 903 902 901
f 906 905 904

usemtl Patch_87_Mat_CR1_tablesEquipment
f 909 908 907
f 912 911 910

usemtl Patch_88_Mat_CR1_tablesEquipment
f 915 914 913
f 918 917 916

usemtl Patch_89_Mat_CR1_tablesEquipment
f 921 920 919
f 924 923 922

usemtl Patch_90_Mat_CR1_tablesEquipment
f 927 926 925
f 930 929 928

usemtl Patch_91_Mat_CR1_tablesEquipment
f 933 932 931
f 936 935 934

usemtl Patch_92_Mat_CR1_tablesEquipment
f 939 938 937
f 942 941 940

usemtl Patch_93_Mat_CR1_tablesEquipment
f 945 944 943
f 948 947 946

usemtl Patch_94_Mat_CR1_tablesEquipment
f 951 950 949
f 954 953 952

usemtl Patch_95_Mat_CR1_tablesEquipment
f 957 956 955
f 960 959 958
f 963 962 961
f 966 965 964

usemtl Patch_96_Mat_CR1_tablesEquipment
f 969 968 967
f 972 971 970

usemtl Patch_97_Mat_CR1_absorber
f 975 974 973
f 978 977 976

usemtl Patch_98_Mat_CR1_absorber
f 981 980 979
f 984 983 982

usemtl Patch_99_Mat_CR1_absorber
f 987 986 985
f 990 989 988

usemtl Patch_100_Mat_CR1_absorber
f 993 992 991
f 996 995 994

usemtl Patch_101_Mat_CR1_absorber
f 999 998 997
f 1002 1001 1000

usemtl Patch_102_Mat_CR1_absorber
f 1005 1004 1003
f 1008 1007 1006

usemtl Patch_103_Mat_CR1_absorber
f 1011 1010 1009
f 1014 1013 1012

usemtl Patch_104_Mat_CR1_absorber
f 1017 1016 1015
f 1020 1019 1018

usemtl Patch_105_Mat_CR1_absorber
f 1023 1022 1021
f 1026 1025 1024

usemtl Patch_106_Mat_CR1_absorber
f 1029 1028 1027
f 1032 1031 1030

usemtl Patch_107_Mat_CR1_absorber
f 1035 1034 1033
f 1038 1037 1036

usemtl Patch_108_Mat_CR1_absorber
f 1041 1040 1039
f 1044 1043 1042

usemtl Patch_109_Mat_CR1_absorber
f 1047 1046 1045
f 1050 1049 1048
f 1053 1052 1051
f 1056 1055 1054

usemtl Patch_110_Mat_CR1_absorber
f 1059 1058 1057
f 1062 1061 1060

usemtl Patch_111_Mat_CR1_absorber
f 1065 1064 1063
f 1068 1067 1066
f 1071 1070 1069

usemtl Patch_112_Mat_CR1_absorber
f 1074 1073 1072
f 1077 1076 1075

usemtl Patch_113_Mat_CR1_absorber
f 1080 1079 1078
f 1083 1082 1081

usemtl Patch_114_Mat_CR1_absorber
f 1086 1085 1084
f 1089 1088 1087

usemtl Patch_115_Mat_CR1_absorber
f 1092 1091 1090
f 1095 1094 1093

usemtl Patch_116_Mat_CR1_absorber
f 1098 1097 1096
f 1101 1100 1099

usemtl Patch_117_Mat_CR1_absorber
f 1104 1103 1102
f 1107 1106 1105

usemtl Patch_118_Mat_CR1_absorber
f 1110 1109 1108
f 1113 1112 1111

usemtl Patch_119_Mat_CR1_absorber
f 1116 1115 1114
f 1119 1118 1117

usemtl Patch_120_Mat_CR1_absorber
f 1122 1121 1120
f 1125 1124 1123

usemtl Patch_121_Mat_CR1_absorber
f 1128 1127 1126
f 1131 1130 1129

usemtl Patch_122_Mat_CR1_tablesEquipment
f 1134 1133 1132
f 1137 1136 1135

usemtl Patch_123_Mat_CR1_tablesEquipment
f 1140 1139 1138
f 1143 1142 1141

usemtl Patch_124_Mat_CR1_tablesEquipment
f 1146 1145 1144
f 1149 1148 1147

usemtl Patch_125_Mat_CR1_paintedConcrete
f 1152 1151 1150
f 1155 1154 1153
f 1158 1157 1156

usemtl Patch_126_Mat_CR1_paintedConcrete
f 1161 1160 1159
f 1164 1163 1162
f 1167 1166 1165
f 1170 1169 1168
f 1173 1172 1171
f 1176 1175 1174

usemtl Patch_127_Mat_CR1_paintedConcrete
f 1179 1178 1177
f 1182 1181 1180

usemtl Patch_128_Mat_CR1_paintedConcrete
f 1185 1184 1183
f 1188 1187 1186
f 1191 1190 1189
f 1194 1193 1192

usemtl Patch_129_Mat_CR1_paintedConcrete
f 1197 1196 1195
f 1200 1199 1198
f 1203 1202 1201
f 1206 1205 1204
f 1209 1208 1207
f 1212 1211 1210
f 1215 1214 1213

usemtl Patch_130_Mat_CR1_paintedConcrete
f 1218 1217 1216
f 1221 1220 1219

usemtl Patch_131_Mat_CR1_paintedConcrete
f 1224 1223 1222

usemtl Patch_132_Mat_CR1_paintedConcrete
f 1227 1226 1225

usemtl Patch_133_Mat_CR1_paintedConcrete
f 1230 1229 1228

usemtl Patch_134_Mat_CR1_tablesEquipment
f 1233 1232 1231
f 1236 1235 1234
f 1239 1238 1237
f 1242 1241 1240
f 1245 1244 1243

usemtl Patch_135_Mat_CR1_paintedConcrete
f 1248 1247 1246
f 1251 1250 1249

usemtl Patch_136_Mat_CR1_paintedConcrete
f 1254 1253 1252
f 1257 1256 1255

usemtl Patch_137_Mat_CR1_tablesEquipment
f 1260 1259 1258
f 1263 1262 1261
f 1266 1265 1264
f 1269 1268 1267

usemtl Patch_138_Mat_CR1_tablesEquipment
f 1272 1271 1270
f 1275 1274 1273
f 1278 1277 1276

usemtl Patch_139_Mat_CR1_paintedConcrete
f 1281 1280 1279
f 1284 1283 1282
f 1287 1286 1285
f 1290 1289 1288
f 1293 1292 1291
f 1296 1295 1294

usemtl Patch_140_Mat_CR1_tablesEquipment
f 1299 1298 1297
f 1302 1301 1300

usemtl Patch_141_Mat_CR1_paintedConcrete
f 1305 1304 1303
f 1308 1307 1306

usemtl Patch_142_Mat_CR1_paintedConcrete
f 1311 1310 1309
f 1314 1313 1312

usemtl Patch_143_Mat_CR1_paintedConcrete
f 1317 1316 1315

usemtl Patch_144_Mat_CR1_paintedConcrete
f 1320 1319 1318
f 1323 1322 1321
f 1326 1325 1324
f 1329 1328 1327
f 1332 1331 1330

usemtl Patch_145_Mat_CR1_tablesEquipment
f 1335 1334 1333
f 1338 1337 1336
f 1341 1340 1339

usemtl Patch_146_Mat_CR1_paintedConcrete
f 1344 1343 1342
f 1347 1346 1345

usemtl Patch_147_Mat_CR1_paintedConcrete
f 1350 1349 1348
f 1353 1352 1351
f 1356 1355 1354
f 1359 1358 1357

usemtl Patch_148_Mat_CR1_paintedConcrete
f 1362 1361 1360
f 1365 1364 1363
f 1368 1367 1366

usemtl Patch_149_Mat_CR1_paintedConcrete
f 1371 1370 1369
f 1374 1373 1372
f 1377 1376 1375
f 1380 1379 1378

usemtl Patch_150_Mat_CR1_paintedConcrete
f 1383 1382 1381
f 1386 1385 1384
f 1389 1388 1387

usemtl Patch_151_Mat_CR1_paintedConcrete
f 1392 1391 1390
f 1395 1394 1393

usemtl Patch_152_Mat_CR1_paintedConcrete
f 1398 1397 1396
f 1401 1400 1399
f 1404 1403 1402

usemtl Patch_153_Mat_CR1_paintedConcrete
f 1407 1406 1405
f 1410 1409 1408
f 1413 1412 1411
f 1416 1415 1414

usemtl Patch_154_Mat_CR1_paintedConcrete
f 1419 1418 1417
f 1422 1421 1420
f 1425 1424 1423
f 1428 1427 1426
f 1431 1430 1429
f 1434 1433 1432
f 1437 1436 1435
f 1440 1439 1438
f 1443 1442 1441

usemtl Patch_155_Mat_CR1_paintedConcrete
f 1446 1445 1444
f 1449 1448 1447
f 1452 1451 1450

usemtl Patch_156_Mat_CR1_paintedConcrete
f 1455 1454 1453
f 1458 1457 1456

usemtl Patch_157_Mat_CR1_paintedConcrete
f 1461 1460 1459
f 1464 1463 1462
f 1467 1466 1465
f 1470 1469 1468
f 1473 1472 1471

usemtl Patch_158_Mat_CR1_paintedConcrete
f 1476 1475 1474

usemtl Patch_159_Mat_CR1_concrete
f 1479 1478 1477
f 1482 1481 1480
f 1485 1484 1483
f 1488 1487 1486
f 1491 1490 1489

usemtl Patch_160_Mat_CR1_paintedConcrete
f 1494 1493 1492
f 1497 1496 1495

usemtl Patch_161_Mat_CR1_tablesEquipment
f 1500 1499 1498
f 1503 1502 1501

