mtllib mesh.mtl

v -1.30349243 4.08237756 0.1500000000000001
v -2.82349239 4.08237756 0.59500002
v -2.82349239 4.08237756 0.1499999999999999
v -2.82349239 4.08237756 0.59500002
v -1.30349243 4.08237756 0.1500000000000001
v -1.30349243 4.08237756 0.5950000200000001
v 1.2605076500000005 4.18937762 2.5680000399999994
v 2.80350756 4.18937762 0.45
v 1.2605076499999999 4.18937762 0.44999999999999984
v 2.80350756 4.18937762 0.45
v 1.2605076500000005 4.18937762 2.5680000399999994
v 2.8035075600000003 4.18937762 2.5680000399999994
v -0.7694923699999996 4.18937762 0.45000000000000057
v 0.75750759 4.18937762 2.56800004
v 0.7575075900000002 4.18937762 0.45000000000000007
v 0.75750759 4.18937762 2.56800004
v -0.7694923699999996 4.18937762 0.45000000000000057
v -0.7694923699999999 4.18937762 2.56800004
v -2.88449234 4.18937762 0.4500000000000002
v -1.29749241 4.18937762 2.56800004
v -1.2974924100000003 4.18937762 0.45000000000000007
v -1.29749241 4.18937762 2.56800004
v -2.88449234 4.18937762 0.4500000000000002
v -2.88449234 4.18937762 2.56800004
v -1.61649242 -2.8906222 1.4935405392601693
v -1.61649242 -2.8906222 0.0
v -1.61649242 -4.25462209 1.1102230246251565e-16
v -1.61649242 -4.25462209 1.1102230246251565e-16
v -1.61649242 -4.25462209 1.4995330843460524
v -1.61649242 -2.8906222 1.4935405392601693
v -1.61649242 -4.25462209 1.4995330843460524
v -1.61649242 -4.25462209 2.98799998
v -1.61649242 -2.8906222000000006 2.98799998
v -1.61649242 -2.8906222000000006 2.98799998
v -1.61649242 -2.8906222 1.4935405392601693
v -1.61649242 -4.25462209 1.4995330843460524
v 0.7565076000000001 4.08237756 0.15000000000000002
v -0.7634924 4.08237756 0.59500002
v -0.7634924 4.08237756 0.14999999999999997
v -0.7634924 4.08237756 0.59500002
v 0.7565076000000001 4.08237756 0.15000000000000002
v 0.7565076000000001 4.08237756 0.5950000200000001
v 2.78650763 4.08237756 0.15000000000000008
v 1.26650758 4.08237756 0.59500002
v 1.2665075800000003 4.08237756 0.15000000000000008
v 1.26650758 4.08237756 0.59500002
v 2.78650763 4.08237756 0.15000000000000008
v 2.78650763 4.08237756 0.59500002
v 0.7575075900000003 4.18937762 2.56800004
v 1.260507650000001 4.18937762 1.4933228390738165
v 0.7575075900000005 4.18937762 1.4842659680213834
v 0.7575075900000003 4.18937762 2.56800004
v -0.07180246416674418 4.18937762 2.56800004
v -0.21795855044850176 4.18937762 2.9879999800000006
v 2.80350756 4.18937762 2.56800004
v 3.15501362 4.18937762 1.5274347560353267
v 2.80350756 4.18937762 1.5211056413637125
v 1.260507650000001 4.18937762 1.4933228390738165
v 0.7575075900000003 4.18937762 2.56800004
v 1.2605076500000003 4.18937762 2.56800004
v 1.2605076500000003 4.18937762 2.56800004
v -0.21795855044850176 4.18937762 2.9879999800000006
v 3.15501362 4.18937762 2.98799998
v 3.15501362 4.18937762 1.5274347560353267
v 2.80350756 4.18937762 2.56800004
v 3.15501362 4.18937762 2.98799998
v -0.21795855044850176 4.18937762 2.9879999800000006
v 1.2605076500000003 4.18937762 2.56800004
v 0.7575075900000003 4.18937762 2.56800004
v 3.15501362 4.18937762 2.98799998
v 2.80350756 4.18937762 2.56800004
v 1.2605076500000003 4.18937762 2.56800004
v -0.7694923699999997 4.18937762 2.5680000400000003
v -0.7694923699999996 4.18937762 0.4500000000000006
v -1.2974924099999996 4.18937762 0.45000000000000057
v -1.2974924099999994 4.18937762 2.5680000400000003
v -2.8844923399999987 4.18937762 2.5680000400000007
v -2.884492339999999 4.18937762 2.9879999800000006
v -0.7694923699999997 4.18937762 2.5680000400000003
v -0.21795855044850176 4.18937762 2.9879999800000006
v -0.07180246416674418 4.18937762 2.56800004
v -0.7694923699999997 4.18937762 2.5680000400000003
v -1.2974924099999996 4.18937762 0.45000000000000057
v -1.2974924099999994 4.18937762 2.5680000400000003
v -1.2974924099999994 4.18937762 2.5680000400000003
v -0.21795855044850176 4.18937762 2.9879999800000006
v -0.7694923699999997 4.18937762 2.5680000400000003
v -0.21795855044850176 4.18937762 2.9879999800000006
v -1.2974924099999994 4.18937762 2.5680000400000003
v -2.884492339999999 4.18937762 2.9879999800000006
v -1.2974924099999996 4.18937762 0.45000000000000057
v -2.8844923399999987 4.18937762 5.868309054229044e-16
v -2.884492339999998 4.18937762 0.45000000000000073
v -0.1784320262750393 4.18937762 4.440892098500626e-16
v -1.2974924099999996 4.18937762 0.45000000000000057
v -0.03010367704275224 4.18937762 0.4500000000000004
v -2.8844923399999987 4.18937762 5.868309054229044e-16
v -1.2974924099999996 4.18937762 0.45000000000000057
v -0.1784320262750393 4.18937762 4.440892098500626e-16
v 1.2605076500000005 4.18937762 0.4500000000000004
v 0.7575075900000005 4.18937762 1.4842659680213834
v 1.260507650000001 4.18937762 1.4933228390738165
v 2.8035075600000003 4.18937762 0.4500000000000002
v 2.80350756 4.18937762 1.5211056413637125
v 3.15501362 4.18937762 1.5274347560353267
v 0.7575075900000002 4.18937762 0.4500000000000002
v -0.1784320262750393 4.18937762 4.440892098500626e-16
v -0.03010367704275224 4.18937762 0.4500000000000004
v 0.7575075900000005 4.18937762 1.4842659680213834
v 1.2605076500000005 4.18937762 0.4500000000000004
v 0.7575075900000002 4.18937762 0.4500000000000002
v 2.8035075600000003 4.18937762 0.4500000000000002
v 3.15501362 4.18937762 1.5274347560353267
v 3.1550136200000005 4.18937762 0.0
v 1.2605076500000005 4.18937762 0.4500000000000004
v -0.1784320262750393 4.18937762 4.440892098500626e-16
v 0.7575075900000002 4.18937762 0.4500000000000002
v 3.1550136200000005 4.18937762 0.0
v 1.2605076500000005 4.18937762 0.4500000000000004
v 2.8035075600000003 4.18937762 0.4500000000000002
v -0.1784320262750393 4.18937762 4.440892098500626e-16
v 1.2605076500000005 4.18937762 0.4500000000000004
v 3.1550136200000005 4.18937762 0.0
v -1.2473852419736917 -0.527886456856621 0.0
v -0.7483807821260584 -1.929662314892386 0.0
v -2.0128229098771344 -2.8906222 0.0
v -2.0128229098771344 -2.8906222 0.0
v -2.88449234 -2.8906222 0.0
v -2.8844923400000004 -0.5260179609887914 0.0
v -2.8844923400000004 -0.5260179609887914 0.0
v -1.2473852419736917 -0.527886456856621 0.0
v -2.0128229098771344 -2.8906222 0.0
v -1.61649242 -2.8906222 0.0
v -0.10877889811384578 -2.164446622804655 0.0
v 0.07179947628035954 -4.234376594366242 0.0
v 0.07179947628035954 -4.234376594366242 0.0
v -1.6164924200000002 -4.25462209 0.0
v -1.61649242 -2.8906222 0.0
v -1.61649242 -2.8906222 0.0
v -2.0128229098771344 -2.8906222 0.0
v -0.7483807821260584 -1.929662314892386 0.0
v -0.10877889811384578 -2.164446622804655 0.0
v -1.61649242 -2.8906222 0.0
v -0.7483807821260584 -1.929662314892386 0.0
v -0.7483807821260584 -1.929662314892386 0.0
v -1.2473852419736917 -0.527886456856621 0.0
v -0.8722202225367495 -0.022590945343075486 0.0
v -0.8722202225367495 -0.022590945343075486 0.0
v 0.8573866809291527 0.2234831786648173 0.0
v 1.1865531354634162 -0.1940904582770247 0.0
v -0.8722202225367495 -0.022590945343075486 0.0
v 0.9641730152960803 -1.804972984678142 0.0
v -0.10877889811384578 -2.164446622804655 0.0
v -0.10877889811384578 -2.164446622804655 0.0
v -0.7483807821260584 -1.929662314892386 0.0
v -0.8722202225367495 -0.022590945343075486 0.0
v 0.9641730152960803 -1.804972984678142 0.0
v -0.8722202225367495 -0.022590945343075486 0.0
v 1.1865531354634162 -0.1940904582770247 0.0
v 1.6250112778744135 -2.27914934089496 0.0
v 1.4483978307539176 -4.217868835230314 0.0
v 0.07179947628035954 -4.234376594366242 0.0
v 1.6250112778744135 -2.27914934089496 0.0
v -0.10877889811384578 -2.164446622804655 0.0
v 0.9641730152960803 -1.804972984678142 0.0
v -0.10877889811384578 -2.164446622804655 0.0
v 1.6250112778744135 -2.27914934089496 0.0
v 0.07179947628035954 -4.234376594366242 0.0
v 1.6250112778744135 -2.27914934089496 0.0
v 0.9641730152960803 -1.804972984678142 0.0
v 1.1865531354634162 -0.1940904582770247 0.0
v 1.6250112778744135 -2.27914934089496 0.0
v 3.1372564521810675 -0.25556407311449325 0.0
v 3.1298814581443013 -2.1016590593622855 0.0
v 3.1372564521810675 -0.25556407311449325 0.0
v 1.6250112778744135 -2.27914934089496 0.0
v 1.1865531354634162 -0.1940904582770247 0.0
v 1.6250112778744135 -2.27914934089496 0.0
v 3.1298814581443013 -2.1016590593622855 0.0
v 3.121507530000001 -4.197805400000001 0.0
v 3.121507530000001 -4.197805400000001 0.0
v 1.4483978307539176 -4.217868835230314 0.0
v 1.6250112778744135 -2.27914934089496 0.0
v -2.8844923400000004 -0.5260179609887914 0.0
v -0.8722202225367495 -0.022590945343075486 0.0
v -1.2473852419736917 -0.527886456856621 0.0
v -1.3926653105803075 1.7780843254706744 0.0
v -2.8844923400000004 -0.5260179609887914 0.0
v -2.8844923400000004 1.7804353494012881 0.0
v -2.8844923400000004 -0.5260179609887914 0.0
v -1.3926653105803075 1.7780843254706744 0.0
v -0.8722202225367495 -0.022590945343075486 0.0
v -0.03858046523806191 2.2121338372421357 0.0
v -1.3926653105803075 1.7780843254706744 0.0
v -0.8764007813078811 2.255667969884108 0.0
v -0.8722202225367495 -0.022590945343075486 0.0
v -0.03858046523806191 2.2121338372421357 0.0
v 0.953348957325995 0.9129229128111921 0.0
v 0.953348957325995 0.9129229128111921 0.0
v 0.8573866809291527 0.2234831786648173 0.0
v -0.8722202225367495 -0.022590945343075486 0.0
v -0.03858046523806191 2.2121338372421357 0.0
v -0.8722202225367495 -0.022590945343075486 0.0
v -1.3926653105803075 1.7780843254706744 0.0
v 1.1865531354634162 -0.1940904582770247 0.0
v 0.8573866809291527 0.2234831786648173 0.0
v 0.953348957325995 0.9129229128111921 0.0
v 3.1372564521810675 -0.25556407311449325 0.0
v 2.339751961848248 1.990566001693056 0.0
v 3.146109430168438 1.9604971459684937 0.0
v 0.953348957325995 0.9129229128111921 0.0
v 3.1372564521810675 -0.25556407311449325 0.0
v 1.1865531354634162 -0.1940904582770247 0.0
v 3.1372564521810675 -0.25556407311449325 0.0
v 0.953348957325995 0.9129229128111921 0.0
v 2.339751961848248 1.990566001693056 0.0
v -2.8844923400000013 4.18937762 0.0
v -1.3926653105803075 1.7780843254706744 0.0
v -2.8844923400000004 1.7804353494012881 0.0
v -1.3926653105803075 1.7780843254706744 0.0
v -2.8844923400000013 4.18937762 0.0
v -1.2707166602752251 4.189377620000001 0.0
v -1.3926653105803075 1.7780843254706744 0.0
v -1.2707166602752251 4.189377620000001 0.0
v -0.8764007813078811 2.255667969884108 0.0
v -1.2707166602752251 4.189377620000001 0.0
v -0.03858046523806191 2.2121338372421357 0.0
v -0.8764007813078811 2.255667969884108 0.0
v 1.060746402169817 3.314185893732205 0.0
v -1.2707166602752251 4.189377620000001 0.0
v 1.1024431242000103 4.18937762 0.0
v -0.03858046523806191 2.2121338372421357 0.0
v -1.2707166602752251 4.189377620000001 0.0
v 1.060746402169817 3.314185893732205 0.0
v 3.1550136199999996 4.189377619999999 0.0
v 1.060746402169817 3.314185893732205 0.0
v 1.1024431242000103 4.18937762 0.0
v 2.339751961848248 1.990566001693056 0.0
v 3.1550136199999996 4.189377619999999 0.0
v 3.146109430168438 1.9604971459684937 0.0
v 1.060746402169817 3.314185893732205 0.0
v 3.1550136199999996 4.189377619999999 0.0
v 2.339751961848248 1.990566001693056 0.0
v -0.03858046523806191 2.2121338372421357 0.0
v 1.060746402169817 3.314185893732205 0.0
v 2.339751961848248 1.990566001693056 0.0
v 2.339751961848248 1.990566001693056 0.0
v 0.953348957325995 0.9129229128111921 0.0
v -0.03858046523806191 2.2121338372421357 0.0
v -2.88449234 2.0431194390481715 1.3389927181069756
v -2.88449234 4.18937762 1.723437996984571
v -2.88449234 4.18937762 0.0
v -2.88449234 4.18937762 0.0
v -2.88449234 2.0392208552144138 1.1102230246251565e-16
v -2.88449234 2.0431194390481715 1.3389927181069756
v -2.88449234 -0.32804059577231875 1.1195325545884494
v -2.88449234 1.6378417053253103 1.8717472996735063
v -2.88449234 2.0431194390481715 1.3389927181069756
v -2.88449234 -0.32804059577231875 1.1195325545884494
v -2.88449234 2.0392208552144138 1.1102230246251565e-16
v -2.88449234 -0.3058831285386153 -2.220446049250313e-16
v -2.88449234 2.0392208552144138 1.1102230246251565e-16
v -2.88449234 -0.32804059577231875 1.1195325545884494
v -2.88449234 2.0431194390481715 1.3389927181069756
v -2.88449234 4.18937762 2.98799998
v -2.88449234 1.6378417053253103 1.8717472996735063
v -2.88449234 1.6191080183103885 2.9879999799999997
v -2.88449234 2.0431194390481715 1.3389927181069756
v -2.88449234 4.18937762 2.98799998
v -2.88449234 4.18937762 1.723437996984571
v -2.88449234 4.18937762 2.98799998
v -2.88449234 2.0431194390481715 1.3389927181069756
v -2.88449234 1.6378417053253103 1.8717472996735063
v -2.88449234 -2.8906222000000006 -4.440892098500626e-16
v -2.88449234 -0.32804059577231875 1.1195325545884494
v -2.88449234 -0.3058831285386153 -2.220446049250313e-16
v -2.88449234 -0.7386768097722543 1.6564219172703298
v -2.88449234 -2.8906222000000006 -4.440892098500626e-16
v -2.88449234 -2.8906222000000006 1.2455498905040374
v -2.88449234 -2.8906222000000006 -4.440892098500626e-16
v -2.88449234 -0.7386768097722543 1.6564219172703298
v -2.88449234 -0.32804059577231875 1.1195325545884494
v -2.88449234 1.6378417053253103 1.8717472996735063
v -2.88449234 -0.32804059577231875 1.1195325545884494
v -2.88449234 -0.7386768097722543 1.6564219172703298
v -2.88449234 1.6378417053253103 1.8717472996735063
v -2.88449234 -0.7399237672385712 2.98799998
v -2.88449234 1.6191080183103885 2.9879999799999997
v -2.88449234 -0.7399237672385712 2.98799998
v -2.88449234 1.6378417053253103 1.8717472996735063
v -2.88449234 -0.7386768097722543 1.6564219172703298
v -2.88449234 -0.7386768097722543 1.6564219172703298
v -2.88449234 -2.8906222000000006 1.2455498905040374
v -2.88449234 -2.8906222 2.9879589
v -2.88449234 -2.8906222 2.9879589
v -2.88449234 -2.8906221999999997 2.9879999799999997
v -2.88449234 -0.7399237672385712 2.98799998
v -2.88449234 -0.7399237672385712 2.98799998
v -2.88449234 -0.7386768097722543 1.6564219172703298
v -2.88449234 -2.8906222 2.9879589
v -1.6164924199999997 -2.8906222 -4.0432483498577156e-16
v -2.88449234 -2.8906222 2.9879589
v -2.88449234 -2.8906222 -3.885780586188048e-16
v -2.88449234 -2.8906222 2.9879589
v -1.6164924199999997 -2.8906222 -4.0432483498577156e-16
v -1.61649242 -2.8906222 2.98799998
v -1.61649242 -4.25462209 2.98799998
v 0.7780378272110501 -4.225907593548515 1.5258442568358428
v 0.7814162116209935 -4.225867080964777 2.98799998
v 0.7780378272110501 -4.225907593548515 1.5258442568358428
v -1.61649242 -4.25462209 2.98799998
v -1.6164924200000002 -4.25462209 1.529910052327864
v 0.7780378272110501 -4.225907593548515 1.5258442568358428
v -1.6164924200000002 -4.25462209 1.529910052327864
v 0.7360102399966153 -4.226411575908036 1.460700747933912
v 0.7780378272110501 -4.225907593548515 1.5258442568358428
v 3.1215075299999997 -4.1978054 1.4529939149194242
v 3.1215075299999997 -4.1978054 2.9879999800000006
v 3.1215075299999997 -4.1978054 2.9879999800000006
v 0.7814162116209935 -4.225867080964777 2.98799998
v 0.7780378272110501 -4.225907593548515 1.5258442568358428
v 0.7360102399966153 -4.226411575908036 1.460700747933912
v -1.6164924200000002 -4.25462209 1.529910052327864
v -1.6164924200000004 -4.25462209 0.0
v -1.6164924200000004 -4.25462209 0.0
v 0.7329912806047846 -4.226447778373569 2.220446049250313e-16
v 0.7360102399966153 -4.226411575908036 1.460700747933912
v 3.1215075299999997 -4.1978054 1.4529939149194242
v 0.7360102399966153 -4.226411575908036 1.460700747933912
v 0.7329912806047846 -4.226447778373569 2.220446049250313e-16
v 0.7329912806047846 -4.226447778373569 2.220446049250313e-16
v 3.1215075299999997 -4.1978054 2.9081716084031557e-16
v 3.1215075299999997 -4.1978054 1.4529939149194242
v 0.7360102399966153 -4.226411575908036 1.460700747933912
v 3.1215075299999997 -4.1978054 1.4529939149194242
v 0.7780378272110501 -4.225907593548515 1.5258442568358428
v 3.12150753 -4.1978054 2.98799998
v 0.7264506285063818 -2.6535869417112377 2.98799998
v 0.8401043451074537 -4.225163310276266 2.98799998
v 1.2568982767784935 -2.082520608234292 2.98799998
v 3.12150753 -4.1978054 2.98799998
v 3.1291578461420118 -2.2827922891324253 2.98799998
v 0.7264506285063818 -2.6535869417112377 2.98799998
v 3.12150753 -4.1978054 2.98799998
v 1.2568982767784935 -2.082520608234292 2.98799998
v 1.6424539396921825 -0.02305646415469087 2.98799998
v 1.0344919340041023 -0.7066217284961805 2.98799998
v 1.2568982767784935 -2.082520608234292 2.98799998
v 1.6424539396921825 -0.02305646415469087 2.98799998
v 3.1291578461420118 -2.2827922891324253 2.98799998
v 3.137972156490583 -0.07641028250177384 2.98799998
v 3.1291578461420118 -2.2827922891324253 2.98799998
v 1.6424539396921825 -0.02305646415469087 2.98799998
v 1.2568982767784935 -2.082520608234292 2.98799998
v -1.6164924199999997 -2.890622200000001 2.98799998
v -1.0751149276119036 -0.8123740152669948 2.98799998
v -2.88449234 -0.8026577382773126 2.98799998
v -2.88449234 -0.8026577382773126 2.98799998
v -2.8844923399999995 -2.890622200000001 2.98799998
v -1.6164924199999997 -2.890622200000001 2.98799998
v -1.6164924199999997 -2.890622200000001 2.98799998
v -1.6164924199999997 -3.0439883380107164 2.98799998
v -0.8178645217956231 -2.2518020704242874 2.98799998
v -1.0751149276119036 -0.8123740152669948 2.98799998
v -1.6164924199999997 -2.890622200000001 2.98799998
v -0.8178645217956231 -2.2518020704242874 2.98799998
v 0.8401043451074537 -4.225163310276266 2.98799998
v -0.8178645217956231 -2.2518020704242874 2.98799998
v -1.6164924199999997 -3.0439883380107164 2.98799998
v -1.6164924199999997 -3.0439883380107164 2.98799998
v -1.6164924199999997 -4.254622090000001 2.98799998
v 0.8401043451074537 -4.225163310276266 2.98799998
v -0.8178645217956231 -2.2518020704242874 2.98799998
v 0.8401043451074537 -4.225163310276266 2.98799998
v 0.7264506285063818 -2.6535869417112377 2.98799998
v -1.0751149276119036 -0.8123740152669948 2.98799998
v 1.0344919340041023 -0.7066217284961805 2.98799998
v -0.682342539819653 -0.3439311631252242 2.98799998
v 1.0344919340041023 -0.7066217284961805 2.98799998
v -1.0751149276119036 -0.8123740152669948 2.98799998
v -0.8178645217956231 -2.2518020704242874 2.98799998
v -0.8178645217956231 -2.2518020704242874 2.98799998
v 0.7264506285063818 -2.6535869417112377 2.98799998
v 1.2568982767784935 -2.082520608234292 2.98799998
v 1.0344919340041023 -0.7066217284961805 2.98799998
v -0.8178645217956231 -2.2518020704242874 2.98799998
v 1.2568982767784935 -2.082520608234292 2.98799998
v 1.8406948010124808 2.1513338323481728 2.98799998
v 1.0555116692077768 1.5288094514015622 2.98799998
v 1.6424539396921825 -0.02305646415469087 2.98799998
v 1.8406948010124808 2.1513338323481728 2.98799998
v 3.137972156490583 -0.07641028250177384 2.98799998
v 3.146629617720021 2.0907095401885583 2.98799998
v 3.137972156490583 -0.07641028250177384 2.98799998
v 1.8406948010124808 2.1513338323481728 2.98799998
v 1.6424539396921825 -0.02305646415469087 2.98799998
v 0.44025253661430097 1.6255397764895563 2.98799998
v 1.6424539396921825 -0.02305646415469087 2.98799998
v 1.0555116692077768 1.5288094514015622 2.98799998
v 1.6424539396921825 -0.02305646415469087 2.98799998
v 0.44025253661430097 1.6255397764895563 2.98799998
v -0.7324804268403218 0.41755483554677025 2.98799998
v -0.7324804268403218 0.41755483554677025 2.98799998
v -0.682342539819653 -0.3439311631252242 2.98799998
v 1.0344919340041023 -0.7066217284961805 2.98799998
v 1.6424539396921825 -0.02305646415469087 2.98799998
v -0.7324804268403218 0.41755483554677025 2.98799998
v 1.0344919340041023 -0.7066217284961805 2.98799998
v -0.18110401019066413 2.5059540467562926 2.98799998
v 1.2823497338164387 4.18937762 2.98799998
v 0.5599049649514249 4.18937762 2.98799998
v 1.8406948010124808 2.1513338323481728 2.98799998
v -0.18110401019066413 2.5059540467562926 2.98799998
v 0.44025253661430097 1.6255397764895563 2.98799998
v 0.44025253661430097 1.6255397764895563 2.98799998
v 1.0555116692077768 1.5288094514015622 2.98799998
v 1.8406948010124808 2.1513338323481728 2.98799998
v 1.2823497338164387 4.18937762 2.98799998
v -0.18110401019066413 2.5059540467562926 2.98799998
v 1.8406948010124808 2.1513338323481728 2.98799998
v -1.0751149276119036 -0.8123740152669948 2.98799998
v -0.682342539819653 -0.3439311631252242 2.98799998
v -0.7324804268403218 0.41755483554677025 2.98799998
v -2.88449234 -0.8026577382773126 2.98799998
v -2.145324916627841 1.5372946882397565 2.98799998
v -2.8844923399999987 1.4551764903401558 2.98799998
v -0.7324804268403218 0.41755483554677025 2.98799998
v -2.88449234 -0.8026577382773126 2.98799998
v -1.0751149276119036 -0.8123740152669948 2.98799998
v -2.88449234 -0.8026577382773126 2.98799998
v -0.7324804268403218 0.41755483554677025 2.98799998
v -2.145324916627841 1.5372946882397565 2.98799998
v 1.8406948010124808 2.1513338323481728 2.98799998
v 3.146629617720021 2.0907095401885583 2.98799998
v 3.1550136200000014 4.18937762 2.98799998
v 3.1550136200000014 4.18937762 2.98799998
v 1.2823497338164387 4.18937762 2.98799998
v 1.8406948010124808 2.1513338323481728 2.98799998
v -1.2166102741978384 2.5878675678689413 2.98799998
v -0.18110401019066413 2.5059540467562926 2.98799998
v 0.5599049649514249 4.18937762 2.98799998
v 0.5599049649514249 4.18937762 2.98799998
v -1.8347430369720668 4.189377620000001 2.98799998
v -1.2166102741978384 2.5878675678689413 2.98799998
v -2.8844923399999995 4.18937762 2.98799998
v -1.2166102741978384 2.5878675678689413 2.98799998
v -1.8347430369720668 4.189377620000001 2.98799998
v -2.145324916627841 1.5372946882397565 2.98799998
v -2.8844923399999995 4.18937762 2.98799998
v -2.8844923399999987 1.4551764903401558 2.98799998
v -2.8844923399999995 4.18937762 2.98799998
v -2.145324916627841 1.5372946882397565 2.98799998
v -1.2166102741978384 2.5878675678689413 2.98799998
v -1.2166102741978384 2.5878675678689413 2.98799998
v -2.145324916627841 1.5372946882397565 2.98799998
v -0.7324804268403218 0.41755483554677025 2.98799998
v -0.7324804268403218 0.41755483554677025 2.98799998
v 0.44025253661430097 1.6255397764895563 2.98799998
v -0.18110401019066413 2.5059540467562926 2.98799998
v -0.18110401019066413 2.5059540467562926 2.98799998
v -1.2166102741978384 2.5878675678689413 2.98799998
v -0.7324804268403218 0.41755483554677025 2.98799998
v 3.1470370360510476 2.1926937498660006 1.1331324042387778
v 3.1481043152363917 2.4598531188319104 0.0
v 3.15501362 4.18937762 -4.440892098500626e-16
v 3.15501362 4.18937762 -4.440892098500626e-16
v 3.15501362 4.18937762 2.98799998
v 3.1521681482986588 3.477104360500529 2.98799998
v 3.1521681482986588 3.477104360500529 2.98799998
v 3.1470370360510476 2.1926937498660006 1.1331324042387778
v 3.15501362 4.18937762 -4.440892098500626e-16
v 3.141324726105786 0.7627987971015044 2.9879999800000006
v 3.1470370360510476 2.1926937498660006 1.1331324042387778
v 3.1521681482986588 3.477104360500529 2.98799998
v 3.1470370360510476 2.1926937498660006 1.1331324042387778
v 3.141324726105786 0.7627987971015044 2.9879999800000006
v 3.1414222949165502 0.7872220429329073 1.9286176627543592
v 3.1470370360510476 2.1926937498660006 1.1331324042387778
v 3.1414222949165502 0.7872220429329073 1.9286176627543592
v 3.137926086322722 -0.08794248245729142 1.0679343778561492
v 3.1470370360510476 2.1926937498660006 1.1331324042387778
v 3.1377995408787087 -0.11961910599908199 6.661338147750939e-16
v 3.1481043152363917 2.4598531188319104 0.0
v 3.1377995408787087 -0.11961910599908199 6.661338147750939e-16
v 3.1470370360510476 2.1926937498660006 1.1331324042387778
v 3.137926086322722 -0.08794248245729142 1.0679343778561492
v 3.131720471448951 -1.6413206205197928 2.048814989356514
v 3.137926086322722 -0.08794248245729142 1.0679343778561492
v 3.1414222949165502 0.7872220429329073 1.9286176627543592
v 3.131720471448951 -1.6413206205197928 2.048814989356514
v 3.141324726105786 0.7627987971015044 2.9879999800000006
v 3.131807666999932 -1.6194939900592864 2.9879999800000006
v 3.141324726105786 0.7627987971015044 2.9879999800000006
v 3.131720471448951 -1.6413206205197928 2.048814989356514
v 3.1414222949165502 0.7872220429329073 1.9286176627543592
v 3.12150753 -4.197805399999999 2.9879999800000014
v 3.131720471448951 -1.6413206205197928 2.048814989356514
v 3.131807666999932 -1.6194939900592864 2.9879999800000006
v 3.129136485160836 -2.288139330777916 1.3277422817742015
v 3.12150753 -4.197805399999999 2.9879999800000014
v 3.12150753 -4.197805399999998 1.840509064684374
v 3.131720471448951 -1.6413206205197928 2.048814989356514
v 3.12150753 -4.197805399999999 2.9879999800000014
v 3.129136485160836 -2.288139330777916 1.3277422817742015
v 3.137926086322722 -0.08794248245729142 1.0679343778561492
v 3.131720471448951 -1.6413206205197928 2.048814989356514
v 3.129136485160836 -2.288139330777916 1.3277422817742015
v 3.137926086322722 -0.08794248245729142 1.0679343778561492
v 3.129216544301541 -2.2680990734539495 8.881784197001252e-16
v 3.1377995408787087 -0.11961910599908199 6.661338147750939e-16
v 3.129216544301541 -2.2680990734539495 8.881784197001252e-16
v 3.137926086322722 -0.08794248245729142 1.0679343778561492
v 3.129136485160836 -2.288139330777916 1.3277422817742015
v 3.129136485160836 -2.288139330777916 1.3277422817742015
v 3.12150753 -4.197805399999998 1.840509064684374
v 3.12150753 -4.197805399999998 9.926863567420317e-16
v 3.12150753 -4.197805399999998 9.926863567420317e-16
v 3.129216544301541 -2.2680990734539495 8.881784197001252e-16
v 3.129136485160836 -2.288139330777916 1.3277422817742015
v -2.82349239 4.08237756 0.15
v -2.82349239 4.08237756 0.59500002
v -1.30349243 4.08237756 0.59500002
v -1.30349243 4.08237756 0.59500002
v -1.30349243 4.08237756 0.15
v -2.82349239 4.08237756 0.15
v -0.7634924 4.08237756 0.15
v -0.7634924 4.08237756 0.59500002
v 0.7565076000000001 4.08237756 0.59500002
v 0.7565076000000001 4.08237756 0.59500002
v 0.7565076000000001 4.08237756 0.15
v -0.7634924 4.08237756 0.15
v 1.26650758 4.08237756 0.15
v 1.26650758 4.08237756 0.59500002
v 2.78650763 4.08237756 0.59500002
v 2.78650763 4.08237756 0.59500002
v 2.78650763 4.08237756 0.15
v 1.26650758 4.08237756 0.15

usemtl Patch_1_Mat_CR2_concrete
f 3 2 1
f 6 5 4

usemtl Patch_2_Mat_CR2_windows
f 9 8 7
f 12 11 10

usemtl Patch_3_Mat_CR2_windows
f 15 14 13
f 18 17 16

usemtl Patch_4_Mat_CR2_windows
f 21 20 19
f 24 23 22

usemtl Patch_5_Mat_CR2_concrete
f 27 26 25
f 30 29 28

usemtl Patch_6_Mat_CR2_concrete
f 33 32 31
f 36 35 34

usemtl Patch_7_Mat_CR2_concrete
f 39 38 37
f 42 41 40

usemtl Patch_8_Mat_CR2_concrete
f 45 44 43
f 48 47 46

usemtl Patch_9_Mat_CR2_concrete
f 51 50 49
f 54 53 52
f 57 56 55
f 60 59 58
f 63 62 61
f 66 65 64
f 69 68 67
f 72 71 70

usemtl Patch_10_Mat_CR2_concrete
f 75 74 73
f 78 77 76
f 81 80 79
f 84 83 82
f 87 86 85
f 90 89 88
f 93 92 91
f 96 95 94
f 99 98 97

usemtl Patch_11_Mat_CR2_concrete
f 102 101 100
f 105 104 103
f 108 107 106
f 111 110 109
f 114 113 112
f 117 116 115
f 120 119 118
f 123 122 121

usemtl Patch_12_Mat_CR2_floor
f 126 125 124
f 129 128 127
f 132 131 130

usemtl Patch_13_Mat_CR2_floor
f 135 134 133
f 138 137 136
f 141 140 139
f 144 143 142

usemtl Patch_14_Mat_CR2_floor
f 147 146 145
f 150 149 148
f 153 152 151
f 156 155 154
f 159 158 157

usemtl Patch_15_Mat_CR2_floor
f 162 161 160
f 165 164 163
f 168 167 166

usemtl Patch_16_Mat_CR2_floor
f 171 170 169
f 174 173 172
f 177 176 175

usemtl Patch_17_Mat_CR2_floor
f 180 179 178
f 183 182 181

usemtl Patch_18_Mat_CR2_floor
f 186 185 184
f 189 188 187
f 192 191 190

usemtl Patch_19_Mat_CR2_floor
f 195 194 193
f 198 197 196
f 201 200 199
f 204 203 202

usemtl Patch_20_Mat_CR2_floor
f 207 206 205
f 210 209 208
f 213 212 211
f 216 215 214

usemtl Patch_21_Mat_CR2_floor
f 219 218 217
f 222 221 220
f 225 224 223

usemtl Patch_22_Mat_CR2_floor
f 228 227 226
f 231 230 229
f 234 233 232

usemtl Patch_23_Mat_CR2_floor
f 237 236 235
f 240 239 238
f 243 242 241

usemtl Patch_24_Mat_CR2_floor
f 246 245 244
f 249 248 247

usemtl Patch_25_Mat_CR2_plaster
f 252 251 250
f 255 254 253

usemtl Patch_26_Mat_CR2_plaster
f 258 257 256
f 261 260 259
f 264 263 262

usemtl Patch_27_Mat_CR2_plaster
f 267 266 265
f 270 269 268
f 273 272 271

usemtl Patch_28_Mat_CR2_plaster
f 276 275 274
f 279 278 277
f 282 281 280

usemtl Patch_29_Mat_CR2_plaster
f 285 284 283
f 288 287 286
f 291 290 289

usemtl Patch_30_Mat_CR2_plaster
f 294 293 292
f 297 296 295
f 300 299 298

usemtl Patch_31_Mat_CR2_plaster
f 303 302 301
f 306 305 304

usemtl Patch_32_Mat_CR2_plaster
f 309 308 307
f 312 311 310
f 315 314 313

usemtl Patch_33_Mat_CR2_plaster
f 318 317 316
f 321 320 319

usemtl Patch_34_Mat_CR2_plaster
f 324 323 322
f 327 326 325

usemtl Patch_35_Mat_CR2_plaster
f 330 329 328
f 333 332 331
f 336 335 334

usemtl Patch_36_Mat_CR2_ceiling
f 339 338 337
f 342 341 340
f 345 344 343

usemtl Patch_37_Mat_CR2_ceiling
f 348 347 346
f 351 350 349
f 354 353 352

usemtl Patch_38_Mat_CR2_ceiling
f 357 356 355
f 360 359 358
f 363 362 361
f 366 365 364

usemtl Patch_39_Mat_CR2_ceiling
f 369 368 367
f 372 371 370
f 375 374 373

usemtl Patch_40_Mat_CR2_ceiling
f 378 377 376
f 381 380 379
f 384 383 382
f 387 386 385

usemtl Patch_41_Mat_CR2_ceiling
f 390 389 388
f 393 392 391
f 396 395 394

usemtl Patch_42_Mat_CR2_ceiling
f 399 398 397
f 402 401 400
f 405 404 403
f 408 407 406

usemtl Patch_43_Mat_CR2_ceiling
f 411 410 409
f 414 413 412
f 417 416 415
f 420 419 418

usemtl Patch_44_Mat_CR2_ceiling
f 423 422 421
f 426 425 424
f 429 428 427
f 432 431 430

usemtl Patch_45_Mat_CR2_ceiling
f 435 434 433
f 438 437 436

usemtl Patch_46_Mat_CR2_ceiling
f 441 440 439
f 444 443 442

usemtl Patch_47_Mat_CR2_ceiling
f 447 446 445
f 450 449 448
f 453 452 451

usemtl Patch_48_Mat_CR2_ceiling
f 456 455 454
f 459 458 457
f 462 461 460

usemtl Patch_49_Mat_CR2_concrete
f 465 464 463
f 468 467 466
f 471 470 469

usemtl Patch_50_Mat_CR2_concrete
f 474 473 472
f 477 476 475

usemtl Patch_51_Mat_CR2_concrete
f 480 479 478
f 483 482 481
f 486 485 484

usemtl Patch_52_Mat_CR2_concrete
f 489 488 487
f 492 491 490
f 495 494 493

usemtl Patch_53_Mat_CR2_concrete
f 498 497 496
f 501 500 499
f 504 503 502

usemtl Patch_54_Mat_CR2_concrete
f 507 506 505
f 510 509 508
f 513 512 511

usemtl Patch_55_Mat_CR2_concrete
f 516 515 514
f 519 518 517

usemtl Patch_56_Mat_CR2_concrete
f 522 521 520
f 525 524 523

usemtl Patch_57_Mat_CR2_concrete
f 528 527 526
f 531 530 529

usemtl Patch_58_Mat_CR2_concrete
f 534 533 532
f 537 536 535

