# File generated by ImageToStl.com - Free Image and 3D model conversion tools

mtllib CR2_simplified.mtl

o obj1
v -111.16111755 160.723526 23.4251976
v -51.3185997 160.723526 5.90551186
v -111.16111755 160.723526 5.90551186
v -51.3185997 160.723526 23.4251976
usemtl mat0
f 1 2 3
f 2 1 4
# Vertices: 4, normals: 0, texture coordinates: 0, faces: 2

o obj2
v 110.37431335 164.93612671 17.71653557
v 49.62628555 164.93612671 101.10236359
v 49.62628555 164.93612671 17.71653557
v 110.37431335 164.93612671 101.10236359
usemtl mat1
f 5 6 7
f 6 5 8
# Vertices: 4, normals: 0, texture coordinates: 0, faces: 2

o obj3
v 121.79164124 -145.45756531 117.63779449
v 97.97274017 -145.45756531 0
v 121.79164124 -145.45756531 0
v 97.97274017 -145.45756531 117.63779449
usemtl mat0
f 9 10 11
f 10 9 12
# Vertices: 4, normals: 0, texture coordinates: 0, faces: 2

o obj4
v 99.15383911 -66.71741486 117.63779449
v 97.97274017 -145.45756531 0
v 97.97274017 -145.45756531 117.63779449
v 99.15383911 -66.71741486 0
usemtl mat0
f 13 14 15
f 14 13 16
# Vertices: 4, normals: 0, texture coordinates: 0, faces: 2

o obj5
v 99.15383911 -66.71741486 117.63779449
v 123.28770447 -66.71741486 0
v 99.15383911 -66.71741486 0
v 123.28770447 -66.71741486 117.63779449
usemtl mat0
f 17 18 19
f 18 17 20
# Vertices: 4, normals: 0, texture coordinates: 0, faces: 2

o obj6
v -63.64143372 -167.50480652 117.63779449
v 121.79164124 -167.50480652 0
v -63.64143372 -167.50480652 0
v 121.79164124 -167.50480652 117.63779449
usemtl mat2
f 21 22 23
f 22 21 24
# Vertices: 4, normals: 0, texture coordinates: 0, faces: 2

o obj7
v 29.82313347 164.93612671 101.10236359
v -30.29497528 164.93612671 17.71653557
v 29.82313347 164.93612671 17.71653557
v -30.29497528 164.93612671 101.10236359
usemtl mat1
f 25 26 27
f 26 25 28
# Vertices: 4, normals: 0, texture coordinates: 0, faces: 2

o obj8
v -51.08237839 164.93612671 101.10236359
v -113.56269073 164.93612671 17.71653557
v -51.08237839 164.93612671 17.71653557
v -113.56269073 164.93612671 101.10236359
usemtl mat1
f 29 30 31
f 30 29 32
# Vertices: 4, normals: 0, texture coordinates: 0, faces: 2

o obj9
v -63.64143372 -113.80402374 0
v -63.64143372 -167.50480652 117.63779449
v -63.64143372 -167.50480652 0
v -63.64143372 -113.80402374 117.63779449
usemtl mat0
f 33 34 35
f 34 33 36
# Vertices: 4, normals: 0, texture coordinates: 0, faces: 2

o obj10
v -30.05875587 160.723526 23.4251976
v 29.78376389 160.723526 5.90551186
v -30.05875587 160.723526 5.90551186
v 29.78376389 160.723526 23.4251976
usemtl mat0
f 37 38 39
f 38 37 40
# Vertices: 4, normals: 0, texture coordinates: 0, faces: 2

o obj11
v 49.86250305 160.723526 23.4251976
v 109.70502472 160.723526 5.90551186
v 49.86250305 160.723526 5.90551186
v 109.70502472 160.723526 23.4251976
usemtl mat0
f 41 42 43
f 42 41 44
# Vertices: 4, normals: 0, texture coordinates: 0, faces: 2

o obj12
v 121.79164124 -145.45756531 117.63779449
v 121.79164124 -167.50480652 0
v 121.79164124 -167.50480652 117.63779449
v 121.79164124 -145.45756531 0
usemtl mat0
f 45 46 47
f 46 45 48
# Vertices: 4, normals: 0, texture coordinates: 0, faces: 2

o obj13
v 124.21313477 164.93612671 -0
v 110.37431335 164.93612671 17.71653557
v -113.56269073 164.93612671 0
v 124.21313477 164.93612671 117.63779449
v 49.62628555 164.93612671 17.71653557
v -51.08237839 164.93612671 17.71653557
v 110.37431335 164.93612671 101.10236359
v 49.62628555 164.93612671 101.10236359
v 29.82313347 164.93612671 101.10236359
v -30.29497528 164.93612671 101.10236359
v -51.08237839 164.93612671 101.10236359
v -113.56269073 164.93612671 101.10236359
v -113.56269073 164.93612671 117.63779449
v -30.29497528 164.93612671 17.71653557
v 29.82313347 164.93612671 17.71653557
v -113.56269073 164.93612671 17.71653557
usemtl mat0
f 49 50 51
f 50 49 52
f 51 50 53
f 51 53 54
f 50 52 55
f 55 52 56
f 56 52 57
f 57 52 58
f 58 52 59
f 59 52 60
f 60 52 61
f 54 62 59
f 62 54 53
f 62 53 63
f 59 62 58
f 56 63 53
f 63 56 57
f 64 51 54
# Vertices: 16, normals: 0, texture coordinates: 0, faces: 18

o obj14
v 121.79164124 -167.50480652 0
v -63.64143372 -113.80402374 0
v -63.64143372 -167.50480652 0
v 97.97274017 -145.45756531 0
v 121.79164124 -145.45756531 0
v -113.56269073 164.93612671 0
v -113.56269073 -113.80402374 0
v 124.21313477 164.93612671 -0
v 99.15383911 -66.71741486 0
v 123.28770447 -66.71741486 0
usemtl mat3
f 65 66 67
f 66 65 68
f 68 65 69
f 66 70 71
f 70 66 72
f 72 66 73
f 73 66 68
f 72 73 74
# Vertices: 10, normals: 0, texture coordinates: 0, faces: 8

o obj15
v 124.21313477 164.93612671 117.63779449
v 123.28770447 -66.71741486 0
v 123.28770447 -66.71741486 117.63779449
v 124.21313477 164.93612671 -0
usemtl mat0
f 75 76 77
f 76 75 78
# Vertices: 4, normals: 0, texture coordinates: 0, faces: 2

o obj16
v -113.56269073 164.93612671 0
v -113.56269073 -113.80402374 117.63617706
v -113.56269073 -113.80402374 0
v -113.56269073 164.93612671 117.63779449
v -113.56269073 -113.80402374 117.63779449
v -113.56269073 164.93612671 17.71653557
v -113.56269073 164.93612671 101.10236359
usemtl mat2
f 79 80 81
f 80 82 83
f 82 80 79
f 82 79 84
f 82 84 85
# Vertices: 7, normals: 0, texture coordinates: 0, faces: 5

o obj17
v -113.56269073 -113.80402374 117.63617706
v -63.64143372 -113.80402374 0
v -113.56269073 -113.80402374 0
v -63.64143372 -113.80402374 117.63779449
usemtl mat2
f 86 87 88
f 87 86 89
# Vertices: 4, normals: 0, texture coordinates: 0, faces: 2

o obj18
v -63.64143372 -113.80402374 117.63779449
v -113.56269073 -113.80402374 117.63617706
v -113.56269073 -113.80402374 117.63779449
# Tiny triangle, removed:
# usemtl mat2
# f 90 91 92
# Vertices: 3, normals: 0, texture coordinates: 0, faces: 1

o obj19
v -113.56269073 164.93612671 117.63779449
v -63.64143372 -113.80402374 117.63779449
v -113.56269073 -113.80402374 117.63779449
v 124.21313477 164.93612671 117.63779449
v -63.64143372 -167.50480652 117.63779449
v 99.15383911 -66.71741486 117.63779449
v 97.97274017 -145.45756531 117.63779449
v 123.28770447 -66.71741486 117.63779449
v 121.79164124 -167.50480652 117.63779449
v 121.79164124 -145.45756531 117.63779449
usemtl mat4
f 93 94 95
f 94 93 96
f 94 96 97
f 97 96 98
f 97 98 99
f 98 96 100
f 99 101 97
f 101 99 102
# Vertices: 10, normals: 0, texture coordinates: 0, faces: 8

o obj20
usemtl mat0
f 1 3 2
f 2 4 1
# Vertices: 4, normals: 0, texture coordinates: 0, faces: 2

o obj21
usemtl mat0
f 37 39 38
f 38 40 37
# Vertices: 4, normals: 0, texture coordinates: 0, faces: 2

o obj22
usemtl mat0
f 41 43 42
f 42 44 41
# Vertices: 4, normals: 0, texture coordinates: 0, faces: 2

