# File generated by ImageToStl.com - Free Image and 3D model conversion tools

mtllib CR2_ubersimplified.mtl

o obj1
v -111.16111755 160.723526 23.4251976
v -51.3185997 160.723526 5.90551186
v -111.16111755 160.723526 5.90551186
v -51.3185997 160.723526 23.4251976
usemtl mat0
f 1 2 3
f 2 1 4
# Vertices: 4, normals: 0, texture coordinates: 0, faces: 2

o obj2
v 110.37431335 164.93612671 17.71653557
v 49.62628555 164.93612671 101.10236359
v 49.62628555 164.93612671 17.71653557
v 110.37431335 164.93612671 101.10236359
usemtl mat1
f 5 6 7
f 6 5 8
# Vertices: 4, normals: 0, texture coordinates: 0, faces: 2

o obj3
v 29.82313347 164.93612671 101.10236359
v -30.29497528 164.93612671 17.71653557
v 29.82313347 164.93612671 17.71653557
v -30.29497528 164.93612671 101.10236359
usemtl mat1
f 9 10 11
f 10 9 12
# Vertices: 4, normals: 0, texture coordinates: 0, faces: 2

o obj4
v -51.08237839 164.93612671 101.10236359
v -113.56269073 164.93612671 17.71653557
v -51.08237839 164.93612671 17.71653557
v -113.56269073 164.93612671 101.10236359
usemtl mat1
f 13 14 15
f 14 13 16
# Vertices: 4, normals: 0, texture coordinates: 0, faces: 2

o obj5
v -63.64143372 -113.80402374 0
v -63.64143372 -167.50480652 117.63779449
v -63.64143372 -167.50480652 0
v -63.64143372 -113.80402374 117.63779449
usemtl mat0
f 17 18 19
f 18 17 20
# Vertices: 4, normals: 0, texture coordinates: 0, faces: 2

o obj6
v -30.05875587 160.723526 23.4251976
v 29.78376389 160.723526 5.90551186
v -30.05875587 160.723526 5.90551186
v 29.78376389 160.723526 23.4251976
usemtl mat0
f 21 22 23
f 22 21 24
# Vertices: 4, normals: 0, texture coordinates: 0, faces: 2

o obj7
v 49.86250305 160.723526 23.4251976
v 109.70502472 160.723526 5.90551186
v 49.86250305 160.723526 5.90551186
v 109.70502472 160.723526 23.4251976
usemtl mat0
f 25 26 27
f 26 25 28
# Vertices: 4, normals: 0, texture coordinates: 0, faces: 2

o obj8
v 124.21313477 164.93612671 -0
v 110.37431335 164.93612671 17.71653557
v -113.56269073 164.93612671 0
v 124.21313477 164.93612671 117.63779449
v 49.62628555 164.93612671 17.71653557
v -51.08237839 164.93612671 17.71653557
v 110.37431335 164.93612671 101.10236359
v 49.62628555 164.93612671 101.10236359
v 29.82313347 164.93612671 101.10236359
v -30.29497528 164.93612671 101.10236359
v -51.08237839 164.93612671 101.10236359
v -113.56269073 164.93612671 101.10236359
v -113.56269073 164.93612671 117.63779449
v -30.29497528 164.93612671 17.71653557
v 29.82313347 164.93612671 17.71653557
v -113.56269073 164.93612671 17.71653557
usemtl mat0
f 29 30 31
f 30 29 32
f 31 30 33
f 31 33 34
f 30 32 35
f 35 32 36
f 36 32 37
f 37 32 38
f 38 32 39
f 39 32 40
f 40 32 41
f 34 42 39
f 42 34 33
f 42 33 43
f 39 42 38
f 36 43 33
f 43 36 37
f 44 31 34
# Vertices: 16, normals: 0, texture coordinates: 0, faces: 18

o obj9
v 122.89399719 -165.26792908 0
v -63.64143372 -113.80402374 0
v -63.64143372 -167.50480652 0
v -113.56269073 164.93612671 0
v -113.56269073 -113.80402374 0
v 124.21313477 164.93612671 -0
usemtl mat2
f 45 46 47
f 46 48 49
f 48 46 50
f 50 46 45
# Vertices: 6, normals: 0, texture coordinates: 0, faces: 4

o obj10
v -113.56269073 164.93612671 0
v -113.56269073 -113.80402374 117.63617706
v -113.56269073 -113.80402374 0
v -113.56269073 164.93612671 117.63779449
v -113.56269073 -113.80402374 117.63779449
v -113.56269073 164.93612671 17.71653557
v -113.56269073 164.93612671 101.10236359
usemtl mat3
f 51 52 53
f 52 54 55
f 54 52 51
f 54 51 56
f 54 56 57
# Vertices: 7, normals: 0, texture coordinates: 0, faces: 5

o obj11
v -113.56269073 -113.80402374 117.63617706
v -63.64143372 -113.80402374 0
v -113.56269073 -113.80402374 0
v -63.64143372 -113.80402374 117.63779449
usemtl mat3
f 58 59 60
f 59 58 61
# Vertices: 4, normals: 0, texture coordinates: 0, faces: 2

o obj12
v -63.64143372 -113.80402374 117.63779449
v -113.56269073 -113.80402374 117.63617706
v -113.56269073 -113.80402374 117.63779449
# Tiny triangle, removed:
# usemtl mat3
# f 62 63 64
# Vertices: 3, normals: 0, texture coordinates: 0, faces: 1

o obj13
v -63.64143372 -167.50480652 117.63779449
v 122.89399719 -165.26792908 0
v -63.64143372 -167.50480652 0
v 122.89399719 -165.26792908 117.63779449
usemtl mat3
f 65 66 67
f 66 65 68
# Vertices: 4, normals: 0, texture coordinates: 0, faces: 2

o obj14
v -113.56269073 164.93612671 117.63779449
v -63.64143372 -113.80402374 117.63779449
v -113.56269073 -113.80402374 117.63779449
v 124.21313477 164.93612671 117.63779449
v -63.64143372 -167.50480652 117.63779449
v 122.89399719 -165.26792908 117.63779449
usemtl mat4
f 69 70 71
f 70 69 72
f 70 72 73
f 73 72 74
# Vertices: 6, normals: 0, texture coordinates: 0, faces: 4

o obj15
v 124.21313477 164.93612671 117.63779449
v 122.89399719 -165.26792908 0
v 122.89399719 -165.26792908 117.63779449
v 124.21313477 164.93612671 -0
usemtl mat0
f 75 76 77
f 76 75 78
# Vertices: 4, normals: 0, texture coordinates: 0, faces: 2

o obj16
usemtl mat0
f 1 3 2
f 2 4 1
# Vertices: 4, normals: 0, texture coordinates: 0, faces: 2

o obj17
usemtl mat0
f 21 23 22
f 22 24 21
# Vertices: 4, normals: 0, texture coordinates: 0, faces: 2

o obj18
usemtl mat0
f 25 27 26
f 26 28 25
# Vertices: 4, normals: 0, texture coordinates: 0, faces: 2
