# File generated by ImageToStl.com - Free Image and 3D model conversion tools

mtllib CR1_DoorAngle1.mtl

o obj1
v 19.88647461 -1.65458953 86.22047424
v 22.6277256 -1.45809424 1.96850395
v 19.88647461 -1.65458953 1.96850395
v 22.83167267 -1.44347501 86.22047424
v 22.83167267 -1.44347501 1.96850395
usemtl mat0
f 1 2 3
f 2 4 5
f 4 2 1
# Vertices: 5, normals: 0, texture coordinates: 0, faces: 3

o obj2
v 23.60268593 1.46000171 1.96850395
v 28.02201653 -60.19283295 87.40157318
v 28.02201653 -60.19283295 1.96850395
v 23.60268593 1.46000171 87.40157318
usemtl mat1
f 6 7 8
f 7 6 9
# Vertices: 4, normals: 0, texture coordinates: 0, faces: 2

o obj3
v 22.42460632 1.37555599 87.40157318
v 23.60268593 1.46000171 1.96850395
v 22.42460632 1.37555599 1.96850395
v 23.60268593 1.46000171 87.40157318
usemtl mat1
f 10 11 12
f 11 10 13
# Vertices: 4, normals: 0, texture coordinates: 0, faces: 2

o obj4
v 19.88647461 -1.65458953 86.22047424
v 23.91172409 -57.80971909 1.96850395
v 23.91172409 -57.80971909 86.22047424
v 19.88647461 -1.65458953 1.96850395
usemtl mat0
f 14 15 16
f 15 14 17
# Vertices: 4, normals: 0, texture coordinates: 0, faces: 2

o obj5
v 26.85692406 -57.59860611 86.22047424
v 26.65297508 -57.61322403 1.96850395
v 26.85692406 -57.59860611 1.96850395
v 23.91172409 -57.80971909 86.22047424
v 23.91172409 -57.80971909 1.96850395
usemtl mat0
f 18 19 20
f 19 21 22
f 21 19 18
# Vertices: 5, normals: 0, texture coordinates: 0, faces: 3

o obj6
v 22.42460632 1.37555599 87.40157318
v 26.84393692 -60.2772789 1.96850395
v 26.84393692 -60.2772789 87.40157318
v 26.65297508 -57.61322403 1.96850395
v 22.6277256 -1.45809424 1.96850395
v 22.42460632 1.37555599 1.96850395
usemtl mat1
f 23 24 25
f 24 23 26
f 26 23 27
f 27 23 28
# Vertices: 6, normals: 0, texture coordinates: 0, faces: 4

o obj7
v 23.91172409 -57.80971909 86.22047424
v 22.83167267 -1.44347501 86.22047424
v 19.88647461 -1.65458953 86.22047424
v 26.85692406 -57.59860611 86.22047424
usemtl mat1
f 29 30 31
f 30 29 32
# Vertices: 4, normals: 0, texture coordinates: 0, faces: 2

o obj8
v 28.02201653 -60.19283295 87.40157318
v 26.84393692 -60.2772789 1.96850395
v 28.02201653 -60.19283295 1.96850395
v 26.84393692 -60.2772789 87.40157318
usemtl mat1
f 33 34 35
f 34 33 36
# Vertices: 4, normals: 0, texture coordinates: 0, faces: 2

o obj9
v 28.02201653 -60.19283295 87.40157318
v 22.42460632 1.37555599 87.40157318
v 26.84393692 -60.2772789 87.40157318
v 23.60268593 1.46000171 87.40157318
usemtl mat1
f 37 38 39
f 38 37 40
# Vertices: 4, normals: 0, texture coordinates: 0, faces: 2

o obj10
v 22.42460632 1.37555599 1.96850395
v 22.83167267 -1.44347501 1.96850395
v 22.6277256 -1.45809424 1.96850395
v 23.60268593 1.46000171 1.96850395
v 26.85692406 -57.59860611 1.96850395
v 26.65297508 -57.61322403 1.96850395
v 28.02201653 -60.19283295 1.96850395
v 26.84393692 -60.2772789 1.96850395
usemtl mat1
f 41 42 43
f 42 41 44
f 42 44 45
f 46 47 48
f 47 46 45
f 47 45 44
# Vertices: 8, normals: 0, texture coordinates: 0, faces: 6

o obj11
v 22.6277256 -1.45809424 1.96850395
v 23.91172409 -57.80971909 1.96850395
v 19.88647461 -1.65458953 1.96850395
v 26.65297508 -57.61322403 1.96850395
usemtl mat1
f 49 50 51
f 50 49 52
# Vertices: 4, normals: 0, texture coordinates: 0, faces: 2

o obj12
v 240.22590637 -153.77952576 107.71653748
v 22.46999359 -242.51968384 107.71653748
v 22.46999359 -153.77952576 107.71653748
v 240.22590637 -242.51968384 107.71653748
usemtl mat1
f 53 54 55
f 54 53 56
# Vertices: 4, normals: 0, texture coordinates: 0, faces: 2

o obj13
v 22.46999359 36.61417389 107.71653748
v 240.22590637 36.61417389 89.60630035
v 22.46999359 36.61417389 89.60630035
v 240.22590637 36.61417389 107.71653748
usemtl mat1
f 57 58 59
f 58 57 60
# Vertices: 4, normals: 0, texture coordinates: 0, faces: 2

o obj14
v 240.22590637 36.61417389 89.60630035
v 22.46999359 19.64566994 89.60630035
v 22.46999359 36.61417389 89.60630035
v 240.22590637 19.64566994 89.60630035
usemtl mat1
f 61 62 63
f 62 61 64
# Vertices: 4, normals: 0, texture coordinates: 0, faces: 2

o obj15
v 240.22590637 19.64566994 107.71653748
v 22.46999359 19.64566994 89.60630035
v 240.22590637 19.64566994 89.60630035
v 22.46999359 19.64566994 107.71653748
usemtl mat1
f 65 66 67
f 66 65 68
# Vertices: 4, normals: 0, texture coordinates: 0, faces: 2

o obj16
v 240.22590637 74.92125702 107.71653748
v 22.46999359 36.61417389 107.71653748
v 22.46999359 94.92125702 107.71653748
v 240.22590637 36.61417389 107.71653748
usemtl mat1
f 69 70 71
f 70 69 72
# Vertices: 4, normals: 0, texture coordinates: 0, faces: 2

o obj17
v 22.46999359 -137.12599182 107.71653748
v 240.22590637 -137.12599182 89.60630035
v 22.46999359 -137.12599182 89.60630035
v 240.22590637 -137.12599182 107.71653748
usemtl mat1
f 73 74 75
f 74 73 76
# Vertices: 4, normals: 0, texture coordinates: 0, faces: 2

o obj18
v 240.22590637 -137.12599182 89.60630035
v 22.46999359 -153.77952576 89.60630035
v 22.46999359 -137.12599182 89.60630035
v 240.22590637 -153.77952576 89.60630035
usemtl mat1
f 77 78 79
f 78 77 80
# Vertices: 4, normals: 0, texture coordinates: 0, faces: 2

o obj19
v 240.22590637 -153.77952576 107.71653748
v 22.46999359 -153.77952576 89.60630035
v 240.22590637 -153.77952576 89.60630035
v 22.46999359 -153.77952576 107.71653748
usemtl mat1
f 81 82 83
f 82 81 84
# Vertices: 4, normals: 0, texture coordinates: 0, faces: 2

o obj20
v 240.22590637 19.64566994 107.71653748
v 22.46999359 -137.12599182 107.71653748
v 22.46999359 19.64566994 107.71653748
v 240.22590637 -137.12599182 107.71653748
usemtl mat1
f 85 86 87
f 86 85 88
# Vertices: 4, normals: 0, texture coordinates: 0, faces: 2

o obj21
v -174.10676575 81.05495453 0
v -173.85995483 113.40699005 -0
v -177.56370544 78.16802216 -0
v -140.01127625 100.73999023 0
v -241.38539124 84.87595367 -0
v -209.38021851 63.26903915 0
v -214.24804688 58.22101593 0
v -214.24804688 -3.59000707 0
v -210.31105042 58.22101593 0
v -172.80020142 77.8259964 0
v -172.13825989 77.645401 0
v -171.34449768 74.16799927 0
v -138.13943481 97.27464294 0
v -138.13943481 96.92906952 0
v -242.19224548 -120.20082855 0
v -178.01901245 -120.20082855 0
v -210.31105042 -3.59000707 0
v -207.92451477 59.61103821 0
v -110.3431015 -110.17155457 0
v -98.76934814 96.92906952 0
v -110.3431015 -142.25816345 0
v -35.93365479 -110.17155457 0
v -98.76934814 100.86607361 0
v -97.2281189 97.00177765 0
v -73.37030792 65.68392944 0
v -70.23852539 68.06970978 0
v -68.55511475 67.50354004 0
v -35.93365479 -78.08494568 0
v -4.54612064 62.91531754 0
v -0.50058484 -78.08494568 0
v -2.01274681 98.25770569 0
v -246.11268616 -143.62203979 0
v -242.19224548 -142.64176941 0
v -246.11268616 -86.10236359 0
v -0.01032051 -143.62203979 0
v -246.11268616 -45.27558899 0
v -246.11268616 121.8110199 0
v -178.01901245 -142.64176941 0
v -0.50058484 -142.25816345 0
v -237.68162537 120.11491394 -0
v -0.01032051 99.33071136 0
v -66.02174377 102.84593201 0
v -138.13943481 100.86607361 0
v -138.13943481 97.27464294 0
v -94.09633636 99.38756561 0
usemtl mat2
f 89 90 91
f 90 89 92
f 93 94 91
f 94 93 95
f 95 93 96
f 94 95 97
f 91 94 98
f 91 98 89
f 89 98 99
f 99 98 100
f 99 100 101
f 101 100 102
f 103 96 93
f 96 103 104
f 96 104 105
f 105 104 97
f 97 104 94
f 94 104 106
f 106 104 100
f 102 107 108
f 107 102 109
f 108 107 110
f 108 110 111
f 111 110 112
f 112 110 113
f 113 110 114
f 114 110 115
f 115 110 116
f 115 116 117
f 117 116 118
f 117 118 119
f 120 121 122
f 121 120 123
f 122 121 124
f 124 121 125
f 121 123 126
f 126 123 109
f 126 109 104
f 104 109 100
f 100 109 102
f 109 123 127
f 127 123 118
f 125 128 129
f 128 125 93
f 93 125 103
f 103 125 121
f 129 128 90
f 129 90 130
f 130 90 131
f 131 90 92
f 131 92 132
f 130 131 111
f 130 111 133
f 133 111 112
f 130 133 114
f 130 114 115
f 129 130 119
f 129 119 118
f 129 118 123
# Vertices: 45, normals: 0, texture coordinates: 0, faces: 59

o obj22
v -246.11268616 -143.62203979 108.97637939
v -0.01032051 -143.62203979 0
v -246.11268616 -143.62203979 0
v -0.01032051 -143.62203979 108.97637939
usemtl mat3
f 134 135 136
f 135 134 137
# Vertices: 4, normals: 0, texture coordinates: 0, faces: 2

o obj23
v -0.01032051 99.33071136 108.97637939
v -246.11268616 36.61417389 108.97637939
v -246.11268616 121.8110199 108.97637939
v -0.01032051 36.61417389 108.97637939
usemtl mat2
f 138 139 140
f 139 138 141
# Vertices: 4, normals: 0, texture coordinates: 0, faces: 2

o obj24
v -246.11268616 121.8110199 0
v -246.11268616 -45.27558899 80.03936768
v -246.11268616 -45.27558899 0
v -246.11268616 19.64566994 89.60630035
v -246.11268616 36.61417389 89.60630035
v -246.11268616 36.61417389 108.97637939
v -246.11268616 121.8110199 108.97637939
v -246.11268616 -86.10236359 0
v -246.11268616 -143.62203979 108.97637939
v -246.11268616 -143.62203979 0
v -246.11268616 -86.10236359 80.03936768
v -246.11268616 19.64566994 108.97637939
usemtl mat2
f 142 143 144
f 143 142 145
f 145 142 146
f 146 142 147
f 147 142 148
f 149 150 151
f 150 149 152
f 150 152 153
f 153 152 143
f 153 143 145
# Vertices: 12, normals: 0, texture coordinates: 0, faces: 10

o obj25
v -246.11268616 -45.27558899 0
v -246.11268616 -86.10236359 80.03936768
v -246.11268616 -86.10236359 0
v -246.11268616 -45.27558899 80.03936768
usemtl mat2
f 154 155 156
f 155 154 157
# Vertices: 4, normals: 0, texture coordinates: 0, faces: 2

o obj26
v -0.01032051 19.64566994 108.97637939
v -246.11268616 19.64566994 89.60630035
v -0.01032051 19.64566994 89.60630035
v -246.11268616 19.64566994 108.97637939
usemtl mat2
f 158 159 160
f 159 158 161
# Vertices: 4, normals: 0, texture coordinates: 0, faces: 2

o obj27
v -0.01032051 36.61417389 89.60630035
v -246.11268616 19.64566994 89.60630035
v -246.11268616 36.61417389 89.60630035
v -0.01032051 19.64566994 89.60630035
usemtl mat2
f 162 163 164
f 163 162 165
# Vertices: 4, normals: 0, texture coordinates: 0, faces: 2

o obj28
v -246.11268616 36.61417389 89.60630035
v -0.01032051 36.61417389 108.97637939
v -0.01032051 36.61417389 89.60630035
v -246.11268616 36.61417389 108.97637939
usemtl mat2
f 166 167 168
f 167 166 169
# Vertices: 4, normals: 0, texture coordinates: 0, faces: 2

o obj29
v -0.01032051 19.64566994 108.97637939
v -246.11268616 -143.62203979 108.97637939
v -246.11268616 19.64566994 108.97637939
v -0.01032051 -143.62203979 108.97637939
usemtl mat2
f 170 171 172
f 171 170 173
# Vertices: 4, normals: 0, texture coordinates: 0, faces: 2

o obj30
v -0.01032051 99.33071136 108.97637939
v -246.11268616 121.8110199 0
v -0.01032051 99.33071136 0
v -246.11268616 121.8110199 108.97637939
usemtl mat2
f 174 175 176
f 175 174 177
# Vertices: 4, normals: 0, texture coordinates: 0, faces: 2

o obj31
v -0.01032051 -143.62203979 108.97637939
v -0.01032051 -58.58267593 86.3385849
v -0.01032051 -143.62203979 0
v -0.01032051 19.64566994 108.97637939
v -0.01032051 -0.47244096 86.41732025
v -0.01032051 -0.47244096 1.96850395
v -0.01032051 99.33071136 108.97637939
v -0.01032051 36.61417389 89.60630035
v -0.01032051 36.61417389 108.97637939
v -0.01032051 -58.58267593 1.96850395
v -0.01032051 99.33071136 0
v -0.01032051 19.64566994 89.60630035
usemtl mat2
f 178 179 180
f 179 178 181
f 179 181 182
f 182 181 183
f 184 185 186
f 180 187 188
f 187 180 179
f 188 187 183
f 188 183 189
f 189 183 181
f 188 189 185
f 188 185 184
# Vertices: 12, normals: 0, texture coordinates: 0, faces: 12

o obj32
v 240.22590637 74.92125702 107.71653748
v 22.46999359 94.92125702 1.96850395
v 240.22590637 74.92125702 1.96850395
v 22.46999359 94.92125702 107.71653748
usemtl mat1
f 190 191 192
f 191 190 193
# Vertices: 4, normals: 0, texture coordinates: 0, faces: 2

o obj33
v 240.22590637 74.92125702 107.71653748
v 240.22590637 36.61417389 89.60630035
v 240.22590637 36.61417389 107.71653748
v 240.22590637 -153.77952576 107.71653748
v 240.22590637 -242.51968384 1.96850395
v 240.22590637 -242.51968384 107.71653748
v 240.22590637 -153.77952576 89.60630035
v 240.22590637 74.92125702 1.96850395
v 240.22590637 -137.12599182 89.60630035
v 240.22590637 -137.12599182 107.71653748
v 240.22590637 19.64566994 89.60630035
v 240.22590637 19.64566994 107.71653748
usemtl mat1
f 194 195 196
f 197 198 199
f 198 197 200
f 198 200 201
f 201 200 202
f 201 202 203
f 201 203 204
f 204 203 205
f 201 204 195
f 201 195 194
# Vertices: 12, normals: 0, texture coordinates: 0, faces: 10

o obj34
v 22.46999359 -242.51968384 107.71653748
v 240.22590637 -242.51968384 1.96850395
v 22.46999359 -242.51968384 1.96850395
v 240.22590637 -242.51968384 107.71653748
usemtl mat1
f 206 207 208
f 207 206 209
# Vertices: 4, normals: 0, texture coordinates: 0, faces: 2

o obj35
v 22.46999359 -0.47244096 86.41732025
v -0.01032051 -58.58267593 86.3385849
v -0.01032051 -0.47244096 86.41732025
v 22.46441269 -0.51229274 86.41730499
v 22.46999359 -58.58267593 86.3385849
v 22.46999359 -0.56630933 86.4172287
usemtl mat2
f 210 211 212
f 211 210 213
f 213 214 211
f 214 213 215
# Vertices: 6, normals: 0, texture coordinates: 0, faces: 4

o obj36
v 22.46999359 -0.47244096 86.41732025
v -0.01032051 -0.47244096 1.96850395
v 22.46999359 -0.47244096 1.96850395
v -0.01032051 -0.47244096 86.41732025
usemtl mat2
f 216 217 218
f 217 216 219
# Vertices: 4, normals: 0, texture coordinates: 0, faces: 2

o obj37
v -0.01032051 -58.58267593 86.3385849
v 22.46999359 -58.58267593 1.96850395
v -0.01032051 -58.58267593 1.96850395
v 22.46999359 -58.58267593 86.3385849
usemtl mat2
f 220 221 222
f 221 220 223
# Vertices: 4, normals: 0, texture coordinates: 0, faces: 2

o obj38
v 22.46999359 -58.58267593 1.96850395
v -0.01032051 -0.47244096 1.96850395
v -0.01032051 -58.58267593 1.96850395
v 22.46999359 -0.47244096 1.96850395
usemtl mat2
f 224 225 226
f 225 224 227
# Vertices: 4, normals: 0, texture coordinates: 0, faces: 2

o obj39
v -177.56370544 78.16802216 43.30708694
v -237.68162537 120.11491394 43.30708694
v -241.38539124 84.87595367 43.30708694
v -173.85995483 113.40699005 43.30708694
usemtl mat0
f 228 229 230
f 229 228 231
# Vertices: 4, normals: 0, texture coordinates: 0, faces: 2

o obj40
v -237.68162537 120.11491394 43.30708694
v -173.85995483 113.40699005 -0
v -237.68162537 120.11491394 -0
v -173.85995483 113.40699005 43.30708694
usemtl mat0
f 232 233 234
f 233 232 235
# Vertices: 4, normals: 0, texture coordinates: 0, faces: 2

o obj41
v -173.85995483 113.40699005 -0
v -177.56370544 78.16802216 43.30708694
v -177.56370544 78.16802216 -0
v -173.85995483 113.40699005 43.30708694
usemtl mat0
f 236 237 238
f 237 236 239
# Vertices: 4, normals: 0, texture coordinates: 0, faces: 2

o obj42
v -177.56370544 78.16802216 43.30708694
v -241.38539124 84.87595367 -0
v -177.56370544 78.16802216 -0
v -241.38539124 84.87595367 43.30708694
usemtl mat0
f 240 241 242
f 241 240 243
# Vertices: 4, normals: 0, texture coordinates: 0, faces: 2

o obj43
v -237.68162537 120.11491394 43.30708694
v -241.38539124 84.87595367 -0
v -241.38539124 84.87595367 43.30708694
v -237.68162537 120.11491394 -0
usemtl mat0
f 244 245 246
f 245 244 247
# Vertices: 4, normals: 0, texture coordinates: 0, faces: 2

o obj44
v -178.01901245 -142.64176941 43.30708694
v -242.19224548 -142.64176941 0
v -178.01901245 -142.64176941 0
v -242.19224548 -142.64176941 43.30708694
usemtl mat0
f 248 249 250
f 249 248 251
# Vertices: 4, normals: 0, texture coordinates: 0, faces: 2

o obj45
v -242.19224548 -120.20082855 43.30708694
v -178.01901245 -120.20082855 0
v -242.19224548 -120.20082855 0
v -178.01901245 -120.20082855 43.30708694
usemtl mat0
f 252 253 254
f 253 252 255
# Vertices: 4, normals: 0, texture coordinates: 0, faces: 2

o obj46
v -178.01901245 -142.64176941 43.30708694
v -242.19224548 -120.20082855 43.30708694
v -242.19224548 -142.64176941 43.30708694
v -178.01901245 -120.20082855 43.30708694
usemtl mat0
f 256 257 258
f 257 256 259
# Vertices: 4, normals: 0, texture coordinates: 0, faces: 2

o obj47
v -178.01901245 -120.20082855 0
v -178.01901245 -142.64176941 43.30708694
v -178.01901245 -142.64176941 0
v -178.01901245 -120.20082855 43.30708694
usemtl mat0
f 260 261 262
f 261 260 263
# Vertices: 4, normals: 0, texture coordinates: 0, faces: 2

o obj48
v -242.19224548 -120.20082855 43.30708694
v -242.19224548 -142.64176941 0
v -242.19224548 -142.64176941 43.30708694
v -242.19224548 -120.20082855 0
usemtl mat0
f 264 265 266
f 265 264 267
# Vertices: 4, normals: 0, texture coordinates: 0, faces: 2

o obj49
v -2.01274681 98.25770569 0
v -4.54612064 62.91531754 43.30708694
v -4.54612064 62.91531754 0
v -2.01274681 98.25770569 43.30708694
usemtl mat0
f 268 269 270
f 269 268 271
# Vertices: 4, normals: 0, texture coordinates: 0, faces: 2

o obj50
v -4.54612064 62.91531754 43.30708694
v -66.02174377 102.84593201 43.30708694
v -68.55511475 67.50354004 43.30708694
v -2.01274681 98.25770569 43.30708694
usemtl mat0
f 272 273 274
f 273 272 275
# Vertices: 4, normals: 0, texture coordinates: 0, faces: 2

o obj51
v -4.54612064 62.91531754 43.30708694
v -68.55511475 67.50354004 0
v -4.54612064 62.91531754 0
v -68.55511475 67.50354004 43.30708694
usemtl mat0
f 276 277 278
f 277 276 279
# Vertices: 4, normals: 0, texture coordinates: 0, faces: 2

o obj52
v -66.02174377 102.84593201 43.30708694
v -2.01274681 98.25770569 0
v -66.02174377 102.84593201 0
v -2.01274681 98.25770569 43.30708694
usemtl mat0
f 280 281 282
f 281 280 283
# Vertices: 4, normals: 0, texture coordinates: 0, faces: 2

o obj53
v -66.02174377 102.84593201 43.30708694
v -68.55511475 67.50354004 0
v -68.55511475 67.50354004 43.30708694
v -66.02174377 102.84593201 0
usemtl mat0
f 284 285 286
f 285 284 287
# Vertices: 4, normals: 0, texture coordinates: 0, faces: 2

o obj54
v -0.50058484 -78.08494568 0
v -0.50058484 -142.25816345 43.30708694
v -0.50058484 -142.25816345 0
v -0.50058484 -78.08494568 43.30708694
usemtl mat0
f 288 289 290
f 289 288 291
# Vertices: 4, normals: 0, texture coordinates: 0, faces: 2

o obj55
v -0.50058484 -142.25816345 43.30708694
v -110.3431015 -142.25816345 0
v -0.50058484 -142.25816345 0
v -110.3431015 -142.25816345 43.30708694
usemtl mat0
f 292 293 294
f 293 292 295
# Vertices: 4, normals: 0, texture coordinates: 0, faces: 2

o obj56
v -214.24804688 58.22101593 39.37007904
v -214.24804688 -3.59000707 0
v -214.24804688 -3.59000707 39.37007904
v -214.24804688 58.22101593 0
usemtl mat4
f 296 297 298
f 297 296 299
# Vertices: 4, normals: 0, texture coordinates: 0, faces: 2

o obj57
v -210.31105042 -3.59000707 39.37007904
v -214.24804688 -3.59000707 0
v -210.31105042 -3.59000707 0
v -214.24804688 -3.59000707 39.37007904
usemtl mat4
f 300 301 302
f 301 300 303
# Vertices: 4, normals: 0, texture coordinates: 0, faces: 2

o obj58
v -210.31105042 -3.59000707 39.37007904
v -214.24804688 58.22101593 39.37007904
v -214.24804688 -3.59000707 39.37007904
v -210.31105042 58.22101593 39.37007904
usemtl mat4
f 304 305 306
f 305 304 307
# Vertices: 4, normals: 0, texture coordinates: 0, faces: 2

o obj59
v -210.31105042 58.22101593 0
v -210.31105042 -3.59000707 39.37007904
v -210.31105042 -3.59000707 0
v -210.31105042 58.22101593 39.37007904
usemtl mat4
f 308 309 310
f 309 308 311
# Vertices: 4, normals: 0, texture coordinates: 0, faces: 2

o obj60
v -214.24804688 58.22101593 39.37007904
v -210.31105042 58.22101593 0
v -214.24804688 58.22101593 0
v -210.31105042 58.22101593 39.37007904
usemtl mat4
f 312 313 314
f 313 312 315
# Vertices: 4, normals: 0, texture coordinates: 0, faces: 2

o obj61
v -138.13943481 97.27464294 0
v -138.13943481 97.27464294 39.37007904
v -138.13943481 97.27464294 0
v -138.13943481 97.27464294 39.37007904
v -140.01127625 100.73999023 0
v -140.01127625 100.73999023 39.37007904
usemtl mat4
f 316 317 318
f 317 316 319
f 319 316 320
f 319 320 321
# Vertices: 6, normals: 0, texture coordinates: 0, faces: 4

o obj62
v -172.13825989 77.645401 39.37007904
v -140.01127625 100.73999023 39.37007904
v -174.10676575 81.05495453 39.37007904
v -138.13943481 97.27464294 39.37007904
v -138.13943481 97.49784851 39.37007904
usemtl mat4
f 322 323 324
f 323 322 325
f 323 325 326
# Vertices: 5, normals: 0, texture coordinates: 0, faces: 3

o obj63
v -174.10676575 81.05495453 39.37007904
v -172.13825989 77.645401 0
v -172.13825989 77.645401 39.37007904
v -174.10676575 81.05495453 0
usemtl mat4
f 327 328 329
f 328 327 330
# Vertices: 4, normals: 0, texture coordinates: 0, faces: 2

o obj64
v -174.10676575 81.05495453 39.37007904
v -140.01127625 100.73999023 0
v -174.10676575 81.05495453 0
v -140.01127625 100.73999023 39.37007904
usemtl mat4
f 331 332 333
f 332 331 334
# Vertices: 4, normals: 0, texture coordinates: 0, faces: 2

o obj65
v -138.13943481 97.27464294 39.37007904
v -138.13943481 97.27464294 39.37007904
v -138.13943481 97.27464294 39.37007904
usemtl mat1
f 335 336 337
# Vertices: 3, normals: 0, texture coordinates: 0, faces: 1

o obj66
v -98.76934814 100.86607361 0
v -98.76934814 96.92906952 39.37007904
v -98.76934814 96.92906952 0
v -98.76934814 100.86607361 39.37007904
usemtl mat4
f 338 339 340
f 339 338 341
# Vertices: 4, normals: 0, texture coordinates: 0, faces: 2

o obj67
v -138.13943481 100.86607361 39.37007904
v -98.76934814 100.86607361 0
v -138.13943481 100.86607361 0
v -98.76934814 100.86607361 39.37007904
usemtl mat4
f 342 343 344
f 343 342 345
# Vertices: 4, normals: 0, texture coordinates: 0, faces: 2

o obj68
v -138.13943481 97.27464294 39.37007904
v -138.13943481 96.92906952 0
v -138.13943481 96.92906952 39.37007904
v -138.13943481 97.27464294 0
v -138.13943481 97.27464294 39.37007904
v -138.13943481 97.27464294 0
v -138.13943481 100.86607361 39.37007904
v -138.13943481 100.86607361 0
usemtl mat4
f 346 347 348
f 347 346 349
f 349 346 350
f 349 350 351
f 351 350 352
f 351 352 353
# Vertices: 8, normals: 0, texture coordinates: 0, faces: 6

o obj69
v -98.76934814 96.92906952 39.37007904
v -138.13943481 96.92906952 0
v -98.76934814 96.92906952 0
v -138.13943481 96.92906952 39.37007904
usemtl mat4
f 354 355 356
f 355 354 357
# Vertices: 4, normals: 0, texture coordinates: 0, faces: 2

o obj70
v -98.76934814 96.92906952 39.37007904
v -138.13943481 97.27464294 39.37007904
v -138.13943481 96.92906952 39.37007904
v -138.13943481 97.27464294 39.37007904
v -138.13943481 100.86607361 39.37007904
v -138.13943481 97.27464294 39.37007904
v -98.76934814 100.86607361 39.37007904
usemtl mat4
f 358 359 360
f 359 358 361
f 361 362 363
f 362 361 364
f 364 361 358
# Vertices: 7, normals: 0, texture coordinates: 0, faces: 5

o obj71
v -138.13943481 97.27464294 0
v -138.13943481 97.27464294 0
v -138.13943481 97.27464294 0
usemtl mat1
f 365 366 367
# Vertices: 3, normals: 0, texture coordinates: 0, faces: 1

o obj72
v -73.37030792 65.68392944 39.37007904
v -94.09633636 99.38756561 39.37007904
v -97.2281189 97.00177765 39.37007904
v -70.23852539 68.06970978 39.37007904
usemtl mat4
f 368 369 370
f 369 368 371
# Vertices: 4, normals: 0, texture coordinates: 0, faces: 2

o obj73
v -94.09633636 99.38756561 0
v -70.23852539 68.06970978 39.37007904
v -70.23852539 68.06970978 0
v -94.09633636 99.38756561 39.37007904
usemtl mat4
f 372 373 374
f 373 372 375
# Vertices: 4, normals: 0, texture coordinates: 0, faces: 2

o obj74
v -97.2281189 97.00177765 39.37007904
v -73.37030792 65.68392944 0
v -73.37030792 65.68392944 39.37007904
v -97.2281189 97.00177765 0
usemtl mat4
f 376 377 378
f 377 376 379
# Vertices: 4, normals: 0, texture coordinates: 0, faces: 2

o obj75
v -97.2281189 97.00177765 39.37007904
v -94.09633636 99.38756561 0
v -97.2281189 97.00177765 0
v -94.09633636 99.38756561 39.37007904
usemtl mat4
f 380 381 382
f 381 380 383
# Vertices: 4, normals: 0, texture coordinates: 0, faces: 2

o obj76
v -70.23852539 68.06970978 39.37007904
v -73.37030792 65.68392944 0
v -70.23852539 68.06970978 0
v -73.37030792 65.68392944 39.37007904
usemtl mat4
f 384 385 386
f 385 384 387
# Vertices: 4, normals: 0, texture coordinates: 0, faces: 2

o obj77
v -207.92451477 59.61103821 39.37007904
v -172.80020142 77.8259964 39.37007904
v -209.38021851 63.26903915 39.37007904
v -171.34449768 74.16799927 39.37007904
usemtl mat4
f 388 389 390
f 389 388 391
# Vertices: 4, normals: 0, texture coordinates: 0, faces: 2

o obj78
v -171.34449768 74.16799927 39.37007904
v -207.92451477 59.61103821 0
v -171.34449768 74.16799927 0
v -207.92451477 59.61103821 39.37007904
usemtl mat4
f 392 393 394
f 393 392 395
# Vertices: 4, normals: 0, texture coordinates: 0, faces: 2

o obj79
v -209.38021851 63.26903915 39.37007904
v -207.92451477 59.61103821 0
v -207.92451477 59.61103821 39.37007904
v -209.38021851 63.26903915 0
usemtl mat4
f 396 397 398
f 397 396 399
# Vertices: 4, normals: 0, texture coordinates: 0, faces: 2

o obj80
v -209.38021851 63.26903915 39.37007904
v -172.80020142 77.8259964 0
v -209.38021851 63.26903915 0
v -172.80020142 77.8259964 39.37007904
usemtl mat4
f 400 401 402
f 401 400 403
# Vertices: 4, normals: 0, texture coordinates: 0, faces: 2

o obj81
v -172.80020142 77.8259964 0
v -171.34449768 74.16799927 39.37007904
v -171.34449768 74.16799927 0
v -172.80020142 77.8259964 39.37007904
usemtl mat4
f 404 405 406
f 405 404 407
# Vertices: 4, normals: 0, texture coordinates: 0, faces: 2

o obj82
v -110.3431015 -110.17155457 43.30708694
v -110.3431015 -142.25816345 0
v -110.3431015 -142.25816345 43.30708694
v -110.3431015 -110.17155457 0
usemtl mat0
f 408 409 410
f 409 408 411
# Vertices: 4, normals: 0, texture coordinates: 0, faces: 2

o obj83
v -110.3431015 -110.17155457 43.30708694
v -35.93365479 -110.17155457 0
v -110.3431015 -110.17155457 0
v -35.93365479 -110.17155457 43.30708694
usemtl mat0
f 412 413 414
f 413 412 415
# Vertices: 4, normals: 0, texture coordinates: 0, faces: 2

o obj84
v 22.46999359 94.92125702 1.96850395
v 22.46999359 -0.47244096 86.41732025
v 22.46999359 -0.47244096 1.96850395
v 22.46999359 19.64566994 89.60630035
v 22.46999359 36.61417389 89.60630035
v 22.46999359 36.61417389 107.71653748
v 22.46999359 94.92125702 107.71653748
v 22.46999359 19.64566994 107.71653748
usemtl mat1
f 416 417 418
f 417 416 419
f 419 416 420
f 420 416 421
f 421 416 422
f 423 417 419
# Vertices: 8, normals: 0, texture coordinates: 0, faces: 6

o obj85
v 22.46999359 -58.58267593 1.96850395
v 22.46999359 -242.51968384 107.71653748
v 22.46999359 -242.51968384 1.96850395
v 22.46999359 -153.77952576 89.60630035
v 22.46999359 -137.12599182 89.60630035
v 22.46999359 -137.12599182 107.71653748
v 22.46999359 -58.58267593 86.3385849
v 22.46999359 19.64566994 107.71653748
v 22.46999359 -0.56630933 86.4172287
v 22.46999359 -153.77952576 107.71653748
usemtl mat1
f 424 425 426
f 425 424 427
f 427 424 428
f 428 424 429
f 429 424 430
f 429 430 431
f 431 430 432
f 433 425 427
# Vertices: 10, normals: 0, texture coordinates: 0, faces: 8

o obj86
v 22.46999359 19.64566994 107.71653748
v 22.46999359 -0.56630933 86.4172287
v 22.46441269 -0.51229274 86.41730499
usemtl mat1
f 434 435 436
# Vertices: 3, normals: 0, texture coordinates: 0, faces: 1

o obj87
v 22.46999359 19.64566994 107.71653748
v 22.46441269 -0.51229274 86.41730499
v 22.46999359 -0.47244096 86.41732025
usemtl mat1
f 437 438 439
# Vertices: 3, normals: 0, texture coordinates: 0, faces: 1

o obj88
v 240.22590637 -242.51968384 1.96850395
v 22.46999359 -58.58267593 1.96850395
v 22.46999359 -242.51968384 1.96850395
v 22.46999359 -0.47244096 1.96850395
v 22.46999359 94.92125702 1.96850395
v 240.22590637 74.92125702 1.96850395
usemtl mat1
f 440 441 442
f 441 440 443
f 443 440 444
f 444 440 445
# Vertices: 6, normals: 0, texture coordinates: 0, faces: 4

o obj89
v -138.13943481 97.27464294 39.37007904
v -138.13943481 97.27464294 0
v -138.13943481 97.27464294 0
v -172.13825989 77.645401 0
v -138.13943481 97.27464294 39.37007904
v -172.13825989 77.645401 39.37007904
usemtl mat4
f 446 447 448
f 447 446 449
f 449 446 450
f 451 449 450
# Vertices: 6, normals: 0, texture coordinates: 0, faces: 4

o obj90
v -0.50058484 -142.25816345 43.30708694
v -110.3431015 -110.17155457 43.30708694
v -110.3431015 -142.25816345 43.30708694
v -35.93365479 -110.17155457 43.30708694
v -35.93365479 -78.08494568 43.30708694
v -0.50058484 -78.08494568 43.30708694
usemtl mat0
f 452 453 454
f 453 452 455
f 455 452 456
f 456 452 457
# Vertices: 6, normals: 0, texture coordinates: 0, faces: 4

o obj91
v -35.93365479 -78.08494568 43.30708694
v -35.93365479 -110.17155457 0
v -35.93365479 -110.17155457 43.30708694
v -35.93365479 -78.08494568 0
usemtl mat0
f 458 459 460
f 459 458 461
# Vertices: 4, normals: 0, texture coordinates: 0, faces: 2

o obj92
v -35.93365479 -78.08494568 43.30708694
v -0.50058484 -78.08494568 0
v -35.93365479 -78.08494568 0
v -0.50058484 -78.08494568 43.30708694
usemtl mat0
f 462 463 464
f 463 462 465
# Vertices: 4, normals: 0, texture coordinates: 0, faces: 2

