mtllib mesh.mtl

v 6.102 -3.906 2.736
v 4.789 -5.129 2.736
v 6.102 -4.824 2.736
v 4.789 -5.129 2.736
v 6.102 -3.906 2.736
v 4.293 -3.906 2.736
v 4.789 -5.129 2.736
v 4.293 -3.906 2.736
v 4.288 -4.611 2.736
v 4.789 -5.129 2.736
v 4.288 -4.611 2.736
v 3.342 -5.219 2.736
v 3.342 -5.219 2.736
v 3.330 -6.160 2.736
v 4.750 -6.160 2.736
v 4.750 -6.160 2.736
v 4.789 -5.129 2.736
v 3.342 -5.219 2.736
v 4.789 -5.129 2.736
v 4.750 -6.160 2.736
v 6.102 -6.160 2.736
v 6.102 -6.160 2.736
v 6.102 -4.824 2.736
v 4.789 -5.129 2.736
v 4.293 -3.906 2.736
v 3.342 -5.219 2.736
v 4.288 -4.611 2.736
v 3.342 -5.219 2.736
v 4.293 -3.906 2.736
v 2.445 -3.906 2.736
v 3.342 -5.219 2.736
v 2.445 -3.906 2.736
v 2.444 -4.567 2.736
v 1.883 -5.129 2.736
v 0.571 -4.770 2.736
v 0.571 -6.160 2.736
v 0.571 -6.160 2.736
v 1.921 -6.160 2.736
v 1.883 -5.129 2.736
v 3.342 -5.219 2.736
v 2.444 -4.567 2.736
v 1.883 -5.129 2.736
v 3.342 -5.219 2.736
v 1.921 -6.160 2.736
v 3.330 -6.160 2.736
v 1.921 -6.160 2.736
v 3.342 -5.219 2.736
v 1.883 -5.129 2.736
v 1.883 -5.129 2.736
v 2.444 -4.567 2.736
v 2.445 -3.906 2.736
v 1.883 -5.129 2.736
v 0.571 -3.906 2.736
v 0.571 -4.770 2.736
v 0.571 -3.906 2.736
v 1.883 -5.129 2.736
v 2.445 -3.906 2.736
v 3.334 0.930 2.276
v 0.571 0.930 2.736
v 0.571 0.930 2.276
v 0.571 0.930 2.736
v 3.334 0.930 2.276
v 3.334 0.930 2.736
v 3.334 0.930 2.736
v 6.102 0.930 2.276
v 6.102 0.930 2.736
v 6.102 0.930 2.276
v 3.334 0.930 2.736
v 3.334 0.930 2.276
v 3.334 0.930 2.276
v 6.102 0.499 2.276
v 6.102 0.930 2.276
v 6.102 0.499 2.276
v 3.334 0.930 2.276
v 3.334 0.499 2.276
v 3.334 0.499 2.276
v 0.571 0.930 2.276
v 0.571 0.499 2.276
v 0.571 0.930 2.276
v 3.334 0.499 2.276
v 3.334 0.930 2.276
v 3.337 0.499 2.276
v 6.102 0.499 2.736
v 6.102 0.499 2.276
v 6.102 0.499 2.736
v 3.337 0.499 2.276
v 3.336 0.499 2.736
v 3.336 0.499 2.736
v 0.571 0.499 2.276
v 0.571 0.499 2.736
v 0.571 0.499 2.276
v 3.336 0.499 2.736
v 3.337 0.499 2.276
v 4.586 0.930 2.736
v 6.102 0.930 2.736
v 6.102 1.903 2.736
v 6.102 1.903 2.736
v 4.641 2.037 2.736
v 4.586 0.930 2.736
v 4.586 0.930 2.736
v 3.228 2.167 2.736
v 3.174 0.930 2.736
v 3.228 2.167 2.736
v 4.586 0.930 2.736
v 4.641 2.037 2.736
v 3.174 0.930 2.736
v 1.894 2.289 2.736
v 1.821 0.930 2.736
v 1.894 2.289 2.736
v 3.174 0.930 2.736
v 3.228 2.167 2.736
v 1.894 2.289 2.736
v 0.571 2.411 2.736
v 0.571 0.930 2.736
v 0.571 0.930 2.736
v 1.821 0.930 2.736
v 1.894 2.289 2.736
v 3.336 -3.483 2.276
v 0.571 -3.483 2.736
v 0.571 -3.483 2.276
v 0.571 -3.483 2.736
v 3.336 -3.483 2.276
v 3.337 -3.483 2.736
v 3.337 -3.483 2.736
v 6.102 -3.483 2.276
v 6.102 -3.483 2.736
v 6.102 -3.483 2.276
v 3.337 -3.483 2.736
v 3.336 -3.483 2.276
v 3.333 -3.906 2.276
v 6.102 -3.906 2.276
v 6.102 -3.483 2.276
v 6.102 -3.483 2.276
v 3.333 -3.483 2.276
v 3.333 -3.906 2.276
v 3.333 -3.483 2.276
v 0.571 -3.483 2.276
v 0.571 -3.906 2.276
v 0.571 -3.906 2.276
v 3.333 -3.906 2.276
v 3.333 -3.483 2.276
v 3.337 -3.906 2.276
v 6.102 -3.906 2.736
v 6.102 -3.906 2.276
v 6.102 -3.906 2.736
v 3.337 -3.906 2.276
v 3.336 -3.906 2.736
v 3.336 -3.906 2.736
v 0.571 -3.906 2.276
v 0.571 -3.906 2.736
v 0.571 -3.906 2.276
v 3.336 -3.906 2.736
v 3.337 -3.906 2.276
v 4.779 -0.754 2.736
v 6.102 -0.896 2.736
v 6.102 0.499 2.736
v 6.102 0.499 2.736
v 4.771 0.499 2.736
v 4.779 -0.754 2.736
v 3.408 -0.699 2.736
v 4.538 -0.978 2.736
v 4.779 -0.754 2.736
v 3.408 -0.699 2.736
v 4.771 0.499 2.736
v 3.396 0.499 2.736
v 4.771 0.499 2.736
v 3.408 -0.699 2.736
v 4.779 -0.754 2.736
v 6.102 -0.896 2.736
v 4.839 -2.211 2.736
v 6.102 -2.046 2.736
v 4.839 -2.211 2.736
v 6.102 -0.896 2.736
v 4.779 -0.754 2.736
v 4.779 -0.754 2.736
v 4.538 -0.978 2.736
v 4.547 -1.964 2.736
v 4.839 -2.211 2.736
v 4.779 -0.754 2.736
v 4.547 -1.964 2.736
v 3.110 -2.036 2.736
v 3.408 -0.699 2.736
v 3.061 -0.985 2.736
v 3.408 -0.699 2.736
v 3.110 -2.036 2.736
v 3.474 -2.300 2.736
v 3.408 -0.699 2.736
v 4.547 -1.964 2.736
v 4.538 -0.978 2.736
v 4.547 -1.964 2.736
v 3.408 -0.699 2.736
v 3.474 -2.300 2.736
v 4.839 -2.211 2.736
v 4.829 -3.483 2.736
v 6.102 -3.483 2.736
v 6.102 -3.483 2.736
v 6.102 -2.046 2.736
v 4.839 -2.211 2.736
v 4.839 -2.211 2.736
v 4.547 -1.964 2.736
v 3.474 -2.300 2.736
v 3.474 -2.300 2.736
v 3.514 -3.483 2.736
v 4.829 -3.483 2.736
v 4.829 -3.483 2.736
v 4.839 -2.211 2.736
v 3.474 -2.300 2.736
v 1.985 -0.742 2.736
v 3.061 -0.985 2.736
v 3.408 -0.699 2.736
v 3.408 -0.699 2.736
v 3.396 0.499 2.736
v 2.011 0.499 2.736
v 2.011 0.499 2.736
v 1.985 -0.742 2.736
v 3.408 -0.699 2.736
v 3.061 -0.985 2.736
v 1.985 -0.742 2.736
v 1.809 -0.881 2.736
v 3.110 -2.036 2.736
v 1.741 -2.096 2.736
v 2.057 -2.364 2.736
v 1.741 -2.096 2.736
v 3.110 -2.036 2.736
v 3.061 -0.985 2.736
v 1.741 -2.096 2.736
v 3.061 -0.985 2.736
v 1.809 -0.881 2.736
v 1.809 -0.881 2.736
v 1.985 -0.742 2.736
v 2.011 0.499 2.736
v 1.809 -0.881 2.736
v 0.571 0.499 2.736
v 0.571 -0.751 2.736
v 0.571 0.499 2.736
v 1.809 -0.881 2.736
v 2.011 0.499 2.736
v 3.474 -2.300 2.736
v 3.110 -2.036 2.736
v 2.057 -2.364 2.736
v 2.057 -2.364 2.736
v 2.049 -3.483 2.736
v 3.514 -3.483 2.736
v 3.514 -3.483 2.736
v 3.474 -2.300 2.736
v 2.057 -2.364 2.736
v 1.741 -2.096 2.736
v 1.809 -0.881 2.736
v 0.571 -0.751 2.736
v 0.571 -0.751 2.736
v 0.571 -2.235 2.736
v 1.741 -2.096 2.736
v 0.571 -3.483 2.736
v 1.741 -2.096 2.736
v 0.571 -2.235 2.736
v 1.741 -2.096 2.736
v 0.571 -3.483 2.736
v 2.049 -3.483 2.736
v 1.741 -2.096 2.736
v 2.049 -3.483 2.736
v 2.057 -2.364 2.736
v -4.937 -3.648 1.977
v -4.756 -3.648 2.768
v -6.251 -3.648 2.768
v -6.251 -3.648 2.768
v -6.251 -3.648 1.844
v -4.937 -3.648 1.977
v -2.258 -3.648 2.768
v -2.895 -3.648 1.100
v -2.392 -3.648 1.100
v -3.574 -3.648 1.481
v -2.258 -3.648 2.768
v -3.538 -3.648 2.768
v -2.258 -3.648 2.768
v -3.574 -3.648 1.481
v -2.895 -3.648 1.100
v -2.803 -3.648 1.048
v -2.803 -3.648 1.100
v -2.895 -3.648 1.100
v -4.937 -3.648 1.977
v -6.251 -3.648 1.844
v -6.251 -3.648 1.100
v -6.251 -3.648 1.100
v -4.562 -3.648 1.100
v -4.937 -3.648 1.977
v -4.937 -3.648 1.977
v -3.538 -3.648 2.768
v -4.756 -3.648 2.768
v -4.552 -3.648 1.100
v -4.937 -3.648 1.977
v -4.562 -3.648 1.100
v -4.937 -3.648 1.977
v -4.552 -3.648 1.100
v -3.574 -3.648 1.481
v -3.538 -3.648 2.768
v -4.937 -3.648 1.977
v -3.574 -3.648 1.481
v -2.895 -3.648 1.100
v -4.522 -3.648 1.100
v -4.522 -3.648 0.000
v -2.895 -3.648 1.100
v -2.803 -3.648 -0.000
v -2.803 -3.648 1.048
v -2.803 -3.648 -0.000
v -2.895 -3.648 1.100
v -4.522 -3.648 0.000
v -3.574 -3.648 1.481
v -4.552 -3.648 1.100
v -4.522 -3.648 1.100
v -4.522 -3.648 1.100
v -2.895 -3.648 1.100
v -3.574 -3.648 1.481
v -1.129 -3.648 1.100
v -0.000 -3.648 1.100
v -0.000 -3.648 2.768
v -0.000 -3.648 2.768
v -1.187 -3.648 2.768
v -1.129 -3.648 1.100
v -2.258 -3.648 2.768
v -1.129 -3.648 1.100
v -1.187 -3.648 2.768
v -1.129 -3.648 1.100
v -2.258 -3.648 2.768
v -2.392 -3.648 1.100
v -1.277 0.930 2.768
v 0.000 0.930 2.768
v -0.000 2.523 2.768
v -0.000 2.523 2.768
v -1.166 2.629 2.768
v -1.277 0.930 2.768
v -4.944 1.996 2.768
v -4.551 2.939 2.768
v -6.251 3.094 2.768
v -6.251 3.094 2.768
v -6.251 1.938 2.768
v -4.944 1.996 2.768
v -1.166 2.629 2.768
v -2.399 2.742 2.768
v -2.431 0.930 2.768
v -2.431 0.930 2.768
v -1.277 0.930 2.768
v -1.166 2.629 2.768
v -4.944 1.996 2.768
v -6.251 1.938 2.768
v -6.251 0.930 2.768
v -6.251 0.930 2.768
v -4.511 0.930 2.768
v -4.944 1.996 2.768
v -2.431 0.930 2.768
v -3.496 2.842 2.768
v -3.684 0.930 2.768
v -3.496 2.842 2.768
v -2.431 0.930 2.768
v -2.399 2.742 2.768
v -3.496 2.842 2.768
v -4.551 2.939 2.768
v -4.944 1.996 2.768
v -4.944 1.996 2.768
v -4.511 0.930 2.768
v -3.684 0.930 2.768
v -3.684 0.930 2.768
v -3.496 2.842 2.768
v -4.944 1.996 2.768
v -6.251 1.863 1.437
v -6.251 1.934 2.768
v -6.251 3.094 2.768
v -6.251 3.094 2.768
v -6.251 3.094 1.100
v -6.251 2.314 1.100
v -6.251 2.314 1.100
v -6.251 1.863 1.437
v -6.251 3.094 2.768
v -6.251 2.156 1.100
v -6.251 1.863 1.437
v -6.251 2.314 1.100
v -6.251 2.156 1.100
v -6.251 2.156 0.000
v -6.251 0.901 0.000
v -6.251 1.863 1.437
v -6.251 2.156 1.100
v -6.251 0.950 1.248
v -6.251 2.156 1.100
v -6.251 0.901 0.000
v -6.251 0.950 1.248
v -6.251 -0.351 1.253
v -6.251 0.511 1.575
v -6.251 0.950 1.248
v -6.251 -0.351 1.253
v -6.251 0.901 0.000
v -6.251 -0.340 0.000
v -6.251 0.901 0.000
v -6.251 -0.351 1.253
v -6.251 0.950 1.248
v -6.251 0.930 2.276
v -6.251 0.950 1.248
v -6.251 0.511 1.575
v -6.251 0.511 1.575
v -6.251 0.543 2.276
v -6.251 0.930 2.276
v -6.251 0.930 2.276
v -6.251 0.930 2.768
v -6.251 1.934 2.768
v -6.251 0.950 1.248
v -6.251 0.930 2.276
v -6.251 1.863 1.437
v -6.251 1.863 1.437
v -6.251 0.930 2.276
v -6.251 1.934 2.768
v -6.251 -1.683 1.224
v -6.251 -0.917 1.577
v -6.251 -0.351 1.253
v -6.251 -0.351 1.253
v -6.251 -0.340 0.000
v -6.251 -1.663 -0.000
v -6.251 -1.663 -0.000
v -6.251 -1.683 1.224
v -6.251 -0.351 1.253
v -6.251 0.499 2.276
v -6.251 -0.351 1.253
v -6.251 -0.917 1.577
v -6.251 0.499 2.276
v -6.251 -0.921 2.768
v -6.251 0.499 2.768
v -6.251 0.499 2.276
v -6.251 0.543 2.276
v -6.251 0.511 1.575
v -6.251 -0.921 2.768
v -6.251 0.499 2.276
v -6.251 -0.917 1.577
v -6.251 -0.351 1.253
v -6.251 0.499 2.276
v -6.251 0.511 1.575
v -6.251 -3.053 1.100
v -6.251 -1.683 1.224
v -6.251 -1.663 -0.000
v -6.251 -1.663 -0.000
v -6.251 -3.053 0.000
v -6.251 -3.053 1.100
v -6.251 -3.053 1.100
v -6.251 -3.143 1.100
v -6.251 -2.294 1.539
v -6.251 -1.683 1.224
v -6.251 -3.053 1.100
v -6.251 -2.294 1.539
v -6.251 -0.917 1.577
v -6.251 -1.683 1.224
v -6.251 -2.294 1.539
v -6.251 -2.294 1.539
v -6.251 -2.379 2.768
v -6.251 -0.921 2.768
v -6.251 -0.921 2.768
v -6.251 -0.917 1.577
v -6.251 -2.294 1.539
v -6.251 -3.648 2.768
v -6.251 -3.143 1.100
v -6.251 -3.648 1.100
v -6.251 -2.294 1.539
v -6.251 -3.648 2.768
v -6.251 -2.379 2.768
v -6.251 -3.648 2.768
v -6.251 -2.294 1.539
v -6.251 -3.143 1.100
v -3.123 0.499 2.768
v 0.000 0.499 2.768
v 0.000 0.499 2.276
v 0.000 0.499 2.276
v -3.123 0.499 2.276
v -3.123 0.499 2.768
v -3.123 0.499 2.276
v -6.251 0.499 2.276
v -6.251 0.499 2.768
v -6.251 0.499 2.768
v -3.123 0.499 2.768
v -3.123 0.499 2.276
v -3.123 0.499 2.276
v 0.000 0.499 2.276
v -0.000 0.930 2.276
v -0.000 0.930 2.276
v -3.123 0.930 2.276
v -3.123 0.499 2.276
v -3.123 0.930 2.276
v -6.251 0.930 2.276
v -6.251 0.499 2.276
v -6.251 0.499 2.276
v -3.123 0.499 2.276
v -3.123 0.930 2.276
v -3.127 0.930 2.768
v -6.251 0.930 2.768
v -6.251 0.930 2.276
v -6.251 0.930 2.276
v -3.127 0.930 2.276
v -3.127 0.930 2.768
v -3.127 0.930 2.276
v -0.000 0.930 2.276
v -0.000 0.930 2.768
v -0.000 0.930 2.768
v -3.127 0.930 2.768
v -3.127 0.930 2.276
v -1.434 -0.795 2.768
v 0.000 -0.949 2.768
v -0.000 0.499 2.768
v -0.000 0.499 2.768
v -1.425 0.499 2.768
v -1.434 -0.795 2.768
v -2.951 -0.658 2.768
v -1.671 -1.022 2.768
v -1.434 -0.795 2.768
v -2.951 -0.658 2.768
v -1.425 0.499 2.768
v -2.942 0.499 2.768
v -1.425 0.499 2.768
v -2.951 -0.658 2.768
v -1.434 -0.795 2.768
v 0.000 -0.949 2.768
v -1.217 -2.325 2.768
v -0.000 -2.112 2.768
v -1.217 -2.325 2.768
v 0.000 -0.949 2.768
v -1.434 -0.795 2.768
v -1.217 -2.325 2.768
v -1.671 -1.022 2.768
v -1.704 -1.952 2.768
v -1.671 -1.022 2.768
v -1.217 -2.325 2.768
v -1.434 -0.795 2.768
v -2.519 -2.332 2.768
v -2.951 -0.658 2.768
v -3.313 -0.990 2.768
v -3.313 -0.990 2.768
v -3.311 -1.978 2.768
v -2.519 -2.332 2.768
v -2.519 -2.332 2.768
v -1.704 -1.952 2.768
v -1.671 -1.022 2.768
v -2.951 -0.658 2.768
v -2.519 -2.332 2.768
v -1.671 -1.022 2.768
v -1.217 -2.325 2.768
v -1.271 -3.648 2.768
v 0.000 -3.648 2.768
v 0.000 -3.648 2.768
v -0.000 -2.112 2.768
v -1.217 -2.325 2.768
v -1.217 -2.325 2.768
v -1.704 -1.952 2.768
v -2.519 -2.332 2.768
v -2.519 -2.332 2.768
v -2.512 -3.648 2.768
v -1.271 -3.648 2.768
v -1.271 -3.648 2.768
v -1.217 -2.325 2.768
v -2.519 -2.332 2.768
v -4.569 -0.650 2.768
v -3.313 -0.990 2.768
v -2.951 -0.658 2.768
v -4.569 -0.650 2.768
v -2.942 0.499 2.768
v -4.575 0.499 2.768
v -2.942 0.499 2.768
v -4.569 -0.650 2.768
v -2.951 -0.658 2.768
v -2.519 -2.332 2.768
v -3.311 -1.978 2.768
v -3.797 -2.303 2.768
v -2.519 -2.332 2.768
v -3.765 -3.648 2.768
v -2.512 -3.648 2.768
v -3.765 -3.648 2.768
v -2.519 -2.332 2.768
v -3.797 -2.303 2.768
v -3.797 -2.303 2.768
v -4.850 -0.930 2.768
v -4.797 -2.086 2.768
v -3.313 -0.990 2.768
v -3.797 -2.303 2.768
v -3.311 -1.978 2.768
v -4.850 -0.930 2.768
v -3.313 -0.990 2.768
v -4.569 -0.650 2.768
v -3.797 -2.303 2.768
v -3.313 -0.990 2.768
v -4.850 -0.930 2.768
v -3.797 -2.303 2.768
v -4.797 -2.086 2.768
v -5.040 -2.289 2.768
v -3.797 -2.303 2.768
v -5.006 -3.648 2.768
v -3.765 -3.648 2.768
v -5.006 -3.648 2.768
v -3.797 -2.303 2.768
v -5.040 -2.289 2.768
v -6.251 0.499 2.768
v -4.569 -0.650 2.768
v -4.575 0.499 2.768
v -4.850 -0.930 2.768
v -6.251 0.499 2.768
v -6.251 -0.784 2.768
v -4.569 -0.650 2.768
v -6.251 0.499 2.768
v -4.850 -0.930 2.768
v -5.040 -2.289 2.768
v -4.797 -2.086 2.768
v -4.850 -0.930 2.768
v -4.850 -0.930 2.768
v -6.251 -0.784 2.768
v -6.251 -2.210 2.768
v -6.251 -2.210 2.768
v -5.040 -2.289 2.768
v -4.850 -0.930 2.768
v -5.040 -2.289 2.768
v -6.251 -2.210 2.768
v -6.251 -3.648 2.768
v -6.251 -3.648 2.768
v -5.006 -3.648 2.768
v -5.040 -2.289 2.768
v -1.141 2.627 2.768
v 0.000 2.523 2.768
v 0.000 2.523 1.100
v 0.000 2.523 1.100
v -1.278 2.640 1.100
v -1.141 2.627 2.768
v -1.141 2.627 2.768
v -1.516 2.661 1.100
v -2.496 2.751 1.524
v -2.496 2.751 1.524
v -2.433 2.745 2.768
v -1.141 2.627 2.768
v -1.516 2.661 1.100
v -1.141 2.627 2.768
v -1.278 2.640 1.100
v -1.677 2.676 1.100
v -2.496 2.751 1.524
v -1.516 2.661 1.100
v -1.677 2.676 1.100
v -1.677 2.676 0.000
v -3.058 2.802 0.000
v -2.496 2.751 1.524
v -1.677 2.676 1.100
v -3.059 2.802 1.221
v -1.677 2.676 1.100
v -3.058 2.802 0.000
v -3.059 2.802 1.221
v -5.117 2.990 2.768
v -4.533 2.937 1.100
v -4.994 2.979 1.100
v -3.760 2.866 1.526
v -5.117 2.990 2.768
v -3.840 2.873 2.768
v -5.117 2.990 2.768
v -3.760 2.866 1.526
v -4.533 2.937 1.100
v -2.496 2.751 1.524
v -3.059 2.802 1.221
v -3.760 2.866 1.526
v -3.760 2.866 1.526
v -3.840 2.873 2.768
v -2.433 2.745 2.768
v -2.433 2.745 2.768
v -2.496 2.751 1.524
v -3.760 2.866 1.526
v -4.416 2.926 1.100
v -3.059 2.802 1.221
v -3.058 2.802 0.000
v -3.058 2.802 0.000
v -4.416 2.926 0.000
v -4.416 2.926 1.100
v -4.416 2.926 1.100
v -4.533 2.937 1.100
v -3.760 2.866 1.526
v -3.059 2.802 1.221
v -4.416 2.926 1.100
v -3.760 2.866 1.526
v -5.117 2.990 2.768
v -6.251 3.093 1.100
v -6.251 3.093 2.768
v -6.251 3.093 1.100
v -5.117 2.990 2.768
v -4.994 2.979 1.100
v 6.102 0.930 2.276
v 6.102 0.633 1.325
v 6.102 1.903 1.349
v 6.102 0.930 2.276
v 6.102 1.903 2.736
v 6.102 0.930 2.736
v 6.102 0.499 2.276
v 6.102 0.499 2.736
v 6.102 0.489 2.736
v 6.102 1.903 2.736
v 6.102 0.930 2.276
v 6.102 1.903 1.349
v 6.102 0.499 2.276
v 6.102 0.489 2.736
v 6.102 0.406 1.557
v 6.102 0.633 1.325
v 6.102 0.930 2.276
v 6.102 0.406 1.557
v 6.102 0.930 2.276
v 6.102 0.499 2.276
v 6.102 0.406 1.557
v 6.102 0.489 2.736
v 6.102 -0.699 1.301
v 6.102 0.406 1.557
v 6.102 -0.699 1.301
v 6.102 0.489 2.736
v 6.102 -1.154 2.736
v 6.102 -0.699 1.301
v 6.102 -1.154 2.736
v 6.102 -1.148 1.648
v 6.102 0.633 1.325
v 6.102 0.583 0.050
v 6.102 1.903 0.050
v 6.102 1.903 0.050
v 6.102 1.903 1.349
v 6.102 0.633 1.325
v 6.102 0.633 1.325
v 6.102 0.406 1.557
v 6.102 -0.699 1.301
v 6.102 -0.699 1.301
v 6.102 -0.719 0.050
v 6.102 0.583 0.050
v 6.102 0.583 0.050
v 6.102 0.633 1.325
v 6.102 -0.699 1.301
v 6.102 -0.699 1.301
v 6.102 -1.148 1.648
v 6.102 -2.084 1.243
v 6.102 -2.084 1.243
v 6.102 -2.065 0.050
v 6.102 -0.719 0.050
v 6.102 -0.719 0.050
v 6.102 -0.699 1.301
v 6.102 -2.084 1.243
v 6.102 -2.084 1.243
v 6.102 -2.733 1.641
v 6.102 -3.477 1.195
v 6.102 -3.477 1.195
v 6.102 -3.501 0.050
v 6.102 -2.065 0.050
v 6.102 -2.065 0.050
v 6.102 -2.084 1.243
v 6.102 -3.477 1.195
v 6.102 -1.154 2.736
v 6.102 -2.084 1.243
v 6.102 -1.148 1.648
v 6.102 -2.733 1.641
v 6.102 -1.154 2.736
v 6.102 -2.773 2.736
v 6.102 -2.084 1.243
v 6.102 -1.154 2.736
v 6.102 -2.733 1.641
v 6.102 -3.483 2.276
v 6.102 -3.477 1.195
v 6.102 -2.733 1.641
v 6.102 -3.483 2.276
v 6.102 -2.773 2.736
v 6.102 -3.483 2.736
v 6.102 -3.906 2.276
v 6.102 -3.906 2.736
v 6.102 -4.386 2.736
v 6.102 -2.773 2.736
v 6.102 -3.483 2.276
v 6.102 -2.733 1.641
v 6.102 -3.906 2.276
v 6.102 -4.386 2.736
v 6.102 -4.429 1.687
v 6.102 -3.906 2.276
v 6.102 -3.477 1.195
v 6.102 -3.483 2.276
v 6.102 -3.477 1.195
v 6.102 -3.906 2.276
v 6.102 -4.429 1.687
v 6.102 -4.872 1.326
v 6.102 -4.429 1.687
v 6.102 -4.386 2.736
v 6.102 -4.872 1.326
v 6.102 -6.160 2.736
v 6.102 -6.160 1.563
v 6.102 -6.160 2.736
v 6.102 -4.872 1.326
v 6.102 -4.386 2.736
v 6.102 -3.477 1.195
v 6.102 -4.429 1.687
v 6.102 -4.872 1.326
v 6.102 -3.477 1.195
v 6.102 -4.851 0.050
v 6.102 -3.501 0.050
v 6.102 -4.851 0.050
v 6.102 -3.477 1.195
v 6.102 -4.872 1.326
v 6.102 -4.872 1.326
v 6.102 -6.160 1.563
v 6.102 -6.160 0.050
v 6.102 -6.160 0.050
v 6.102 -4.851 0.050
v 6.102 -4.872 1.326
v 1.821 -6.160 1.346
v 2.059 -6.160 1.550
v 2.065 -6.160 2.736
v 1.821 -6.160 1.346
v 0.571 -6.160 2.736
v 0.571 -6.160 1.475
v 0.571 -6.160 2.736
v 1.821 -6.160 1.346
v 2.065 -6.160 2.736
v 2.059 -6.160 1.550
v 3.175 -6.160 1.272
v 3.487 -6.160 1.515
v 2.059 -6.160 1.550
v 3.508 -6.160 2.736
v 2.065 -6.160 2.736
v 3.508 -6.160 2.736
v 2.059 -6.160 1.550
v 3.487 -6.160 1.515
v 1.821 -6.160 1.346
v 0.571 -6.160 1.475
v 0.571 -6.160 0.050
v 0.571 -6.160 0.050
v 1.833 -6.160 0.050
v 1.821 -6.160 1.346
v 3.175 -6.160 1.272
v 2.059 -6.160 1.550
v 1.821 -6.160 1.346
v 3.175 -6.160 1.272
v 1.833 -6.160 0.050
v 3.149 -6.160 0.050
v 1.833 -6.160 0.050
v 3.175 -6.160 1.272
v 1.821 -6.160 1.346
v 4.840 -6.160 1.443
v 6.102 -6.160 1.311
v 6.102 -6.160 2.736
v 6.102 -6.160 2.736
v 4.833 -6.160 2.736
v 4.840 -6.160 1.443
v 4.600 -6.160 1.236
v 3.487 -6.160 1.515
v 3.175 -6.160 1.272
v 4.600 -6.160 1.236
v 3.149 -6.160 0.050
v 4.599 -6.160 0.050
v 3.149 -6.160 0.050
v 4.600 -6.160 1.236
v 3.175 -6.160 1.272
v 3.487 -6.160 1.515
v 4.600 -6.160 1.236
v 4.840 -6.160 1.443
v 3.487 -6.160 1.515
v 4.833 -6.160 2.736
v 3.508 -6.160 2.736
v 4.833 -6.160 2.736
v 3.487 -6.160 1.515
v 4.840 -6.160 1.443
v 4.840 -6.160 1.443
v 4.600 -6.160 1.236
v 4.599 -6.160 0.050
v 4.840 -6.160 1.443
v 6.102 -6.160 0.050
v 6.102 -6.160 1.311
v 6.102 -6.160 0.050
v 4.840 -6.160 1.443
v 4.599 -6.160 0.050
v -4.416 2.926 1.100
v -4.510 1.985 1.100
v -6.251 2.156 1.100
v -6.251 2.156 1.100
v -6.251 3.094 1.100
v -4.416 2.926 1.100
v -4.510 1.985 1.100
v -4.416 2.926 0.000
v -4.510 1.985 -0.000
v -4.416 2.926 0.000
v -4.510 1.985 1.100
v -4.416 2.926 1.100
v -6.251 2.156 1.100
v -4.510 1.985 1.100
v -4.510 1.985 -0.000
v -4.510 1.985 -0.000
v -6.251 2.156 -0.000
v -6.251 2.156 1.100
v -4.522 -3.053 0.000
v -6.251 -3.053 1.100
v -6.251 -3.053 -0.000
v -6.251 -3.053 1.100
v -4.522 -3.053 0.000
v -4.522 -3.053 1.100
v -6.251 -3.053 1.100
v -4.522 -3.648 1.100
v -6.251 -3.648 1.100
v -4.522 -3.648 1.100
v -6.251 -3.053 1.100
v -4.522 -3.053 1.100
v -4.522 -3.648 1.100
v -4.522 -3.053 0.000
v -4.522 -3.648 -0.000
v -4.522 -3.053 0.000
v -4.522 -3.648 1.100
v -4.522 -3.053 1.100
v 0.000 2.523 1.100
v -0.000 1.598 1.100
v -1.741 1.715 1.100
v -1.741 1.715 1.100
v -1.677 2.676 1.100
v 0.000 2.523 1.100
v -1.741 1.715 0.000
v 0.000 1.598 1.100
v 0.000 1.598 0.000
v 0.000 1.598 1.100
v -1.741 1.715 0.000
v -1.741 1.715 1.100
v -1.741 1.715 0.000
v -1.677 2.676 1.100
v -1.741 1.715 1.100
v -1.677 2.676 1.100
v -1.741 1.715 0.000
v -1.677 2.676 -0.000
v -5.442 1.479 1.000
v -5.442 1.479 0.000
v -5.442 -0.091 0.000
v -5.442 -0.091 0.000
v -5.442 -0.091 1.000
v -5.442 1.479 1.000
v -3.509 2.562 0.000
v -2.509 2.562 1.000
v -2.509 2.562 0.000
v -2.509 2.562 1.000
v -3.509 2.562 0.000
v -3.509 2.562 1.000
v -1.784 1.729 0.000
v -2.390 2.524 1.000
v -1.784 1.729 1.000
v -2.390 2.524 1.000
v -1.784 1.729 0.000
v -2.390 2.524 -0.000
v -5.318 1.607 -0.000
v -4.389 1.977 1.000
v -4.389 1.977 -0.000
v -4.389 1.977 1.000
v -5.318 1.607 -0.000
v -5.318 1.607 1.000
v -2.803 -3.648 0.000
v -2.803 -2.798 1.100
v -2.803 -3.648 1.100
v -2.803 -2.798 1.100
v -2.803 -3.648 0.000
v -2.803 -2.798 0.000
v -1.863 -2.798 -0.000
v -2.803 -2.798 1.100
v -2.803 -2.798 -0.000
v -2.803 -2.798 1.100
v -1.863 -2.798 -0.000
v -1.858 -2.798 1.100
v -1.858 -2.798 1.100
v -0.913 -2.798 0.000
v -0.913 -2.798 1.100
v -0.913 -2.798 0.000
v -1.858 -2.798 1.100
v -1.863 -2.798 -0.000
v -0.913 -2.798 1.100
v -0.913 -1.983 1.100
v 0.000 -1.983 1.100
v -0.913 -2.798 1.100
v -0.000 -3.648 1.100
v -1.148 -3.648 1.100
v -1.148 -3.648 1.100
v -1.354 -2.798 1.100
v -0.913 -2.798 1.100
v -0.000 -3.648 1.100
v -0.913 -2.798 1.100
v 0.000 -1.983 1.100
v -1.354 -2.798 1.100
v -2.803 -3.648 1.100
v -2.803 -2.798 1.100
v -2.803 -3.648 1.100
v -1.354 -2.798 1.100
v -1.148 -3.648 1.100
v -0.913 -2.798 0.000
v -0.913 -1.983 1.100
v -0.913 -2.798 1.100
v -0.913 -1.983 1.100
v -0.913 -2.798 0.000
v -0.913 -1.983 -0.000
v 0.000 -1.983 -0.000
v -0.913 -1.983 1.100
v -0.913 -1.983 -0.000
v -0.913 -1.983 1.100
v 0.000 -1.983 -0.000
v 0.000 -1.983 1.100
v -4.522 -3.053 0.000
v -2.803 -3.648 0.000
v -4.522 -3.648 0.000
v -4.522 -3.053 0.000
v -4.672 -3.053 0.000
v -4.449 -2.323 0.000
v -4.522 -3.053 0.000
v -3.792 -2.076 0.000
v -2.803 -2.798 0.000
v -2.803 -3.648 0.000
v -4.522 -3.053 0.000
v -2.803 -2.798 0.000
v -3.792 -2.076 0.000
v -4.522 -3.053 0.000
v -4.449 -2.323 0.000
v -2.148 -1.382 0.000
v -3.505 -1.262 0.000
v -2.683 -1.001 0.000
v -2.802 -2.798 0.000
v -2.148 -1.382 0.000
v -2.477 -2.798 0.000
v -3.505 -1.262 0.000
v -2.802 -2.798 0.000
v -3.792 -2.076 0.000
v -2.148 -1.382 0.000
v -2.802 -2.798 0.000
v -3.505 -1.262 0.000
v -2.148 -1.382 0.000
v -1.539 -1.280 0.000
v -0.913 -2.032 0.000
v -0.913 -2.032 0.000
v -0.913 -2.798 0.000
v -2.477 -2.798 0.000
v -2.477 -2.798 0.000
v -2.148 -1.382 0.000
v -0.913 -2.032 0.000
v -1.147 -0.655 0.000
v -2.683 -1.001 0.000
v -2.634 -0.018 0.000
v -2.634 -0.018 0.000
v -1.706 0.450 0.000
v -1.493 0.316 0.000
v -2.148 -1.382 0.000
v -1.147 -0.655 0.000
v -1.539 -1.280 0.000
v -1.147 -0.655 0.000
v -2.148 -1.382 0.000
v -2.683 -1.001 0.000
v -1.147 -0.655 0.000
v -2.634 -0.018 0.000
v -1.493 0.316 0.000
v -5.047 -1.744 0.000
v -4.449 -2.323 0.000
v -4.672 -3.053 0.000
v -5.047 -1.744 0.000
v -6.251 -3.053 0.000
v -6.251 -1.971 0.000
v -6.251 -3.053 0.000
v -5.047 -1.744 0.000
v -4.672 -3.053 0.000
v -6.251 -0.494 0.000
v -5.047 -1.744 0.000
v -6.251 -1.971 0.000
v -5.047 -1.744 0.000
v -6.251 -0.494 0.000
v -4.923 -0.661 0.000
v -3.505 -1.262 0.000
v -5.047 -1.744 0.000
v -4.923 -0.661 0.000
v -4.923 -0.661 0.000
v -4.535 -0.343 0.000
v -4.367 -0.354 0.000
v -5.047 -1.744 0.000
v -3.505 -1.262 0.000
v -3.792 -2.076 0.000
v -5.047 -1.744 0.000
v -3.792 -2.076 0.000
v -4.449 -2.323 0.000
v -3.505 -1.262 0.000
v -4.923 -0.661 0.000
v -4.367 -0.354 0.000
v 0.000 -0.012 0.000
v -1.493 0.316 0.000
v 0.000 0.758 0.000
v 0.000 -0.012 0.000
v 0.000 -0.688 0.000
v -1.147 -0.655 0.000
v -1.493 0.316 0.000
v 0.000 -0.012 0.000
v -1.147 -0.655 0.000
v -0.913 -1.983 0.000
v -1.147 -0.655 0.000
v 0.000 -0.688 0.000
v 0.000 -0.688 0.000
v 0.000 -1.983 0.000
v -0.913 -1.983 0.000
v -0.913 -1.983 0.000
v -0.913 -2.032 0.000
v -1.539 -1.280 0.000
v -1.147 -0.655 0.000
v -0.913 -1.983 0.000
v -1.539 -1.280 0.000
v -3.505 -1.262 0.000
v -4.367 -0.354 0.000
v -3.378 0.428 0.000
v -3.505 -1.262 0.000
v -2.634 -0.018 0.000
v -2.683 -1.001 0.000
v -2.634 -0.018 0.000
v -3.505 -1.262 0.000
v -3.378 0.428 0.000
v -3.470 1.223 0.000
v -5.039 0.749 0.000
v -4.574 1.507 0.000
v -5.039 0.749 0.000
v -3.470 1.223 0.000
v -3.378 0.428 0.000
v -5.039 0.749 0.000
v -4.367 -0.354 0.000
v -4.535 -0.343 0.000
v -4.367 -0.354 0.000
v -5.039 0.749 0.000
v -3.378 0.428 0.000
v -3.121 1.560 0.000
v -3.378 0.428 0.000
v -3.470 1.223 0.000
v -2.634 -0.018 0.000
v -3.121 1.560 0.000
v -1.847 1.357 0.000
v -1.847 1.357 0.000
v -1.706 0.450 0.000
v -2.634 -0.018 0.000
v -3.121 1.560 0.000
v -2.634 -0.018 0.000
v -3.378 0.428 0.000
v -5.039 0.749 0.000
v -4.535 -0.343 0.000
v -4.923 -0.661 0.000
v -5.039 0.749 0.000
v -6.251 -0.494 0.000
v -6.251 0.730 0.000
v -6.251 -0.494 0.000
v -5.039 0.749 0.000
v -4.923 -0.661 0.000
v -1.493 0.316 0.000
v -1.706 0.450 0.000
v -1.847 1.357 0.000
v 0.000 0.758 0.000
v -1.602 1.706 0.000
v 0.000 1.598 0.000
v -1.602 1.706 0.000
v 0.000 0.758 0.000
v -1.493 0.316 0.000
v -1.602 1.706 0.000
v -1.493 0.316 0.000
v -1.847 1.357 0.000
v -6.251 2.156 0.000
v -5.039 0.749 0.000
v -6.251 0.730 0.000
v -5.039 0.749 0.000
v -6.251 2.156 0.000
v -4.772 2.011 0.000
v -5.039 0.749 0.000
v -4.772 2.011 0.000
v -4.574 1.507 0.000
v -4.510 1.985 0.000
v -3.470 1.223 0.000
v -4.574 1.507 0.000
v -4.574 1.507 0.000
v -4.772 2.011 0.000
v -4.510 1.985 0.000
v -4.510 1.985 0.000
v -4.416 2.926 0.000
v -3.129 2.809 0.000
v -3.470 1.223 0.000
v -4.510 1.985 0.000
v -3.121 1.560 0.000
v -3.121 1.560 0.000
v -4.510 1.985 0.000
v -3.129 2.809 0.000
v -1.741 1.715 0.000
v -3.121 1.560 0.000
v -3.129 2.809 0.000
v -3.129 2.809 0.000
v -1.677 2.676 0.000
v -1.741 1.715 0.000
v -1.741 1.715 0.000
v -1.602 1.706 0.000
v -1.847 1.357 0.000
v -3.121 1.560 0.000
v -1.741 1.715 0.000
v -1.847 1.357 0.000
v -4.422 2.059 0.000
v -3.556 2.559 1.000
v -3.556 2.559 0.000
v -3.556 2.559 1.000
v -4.422 2.059 0.000
v -4.422 2.059 1.000
v 0.571 -1.488 0.050
v 0.000 -1.488 2.193
v 0.000 -1.488 -0.000
v 0.000 -1.488 2.193
v 0.571 -1.488 0.050
v 0.571 -1.488 2.193
v 0.676 -1.485 1.121
v 0.571 -0.012 0.050
v 0.676 -1.485 0.050
v 0.571 -0.012 0.050
v 0.676 -1.485 1.121
v 0.571 -0.012 1.126
v 0.571 -0.012 1.126
v 0.676 -1.485 2.195
v 0.571 -0.012 2.195
v 0.676 -1.485 2.195
v 0.571 -0.012 1.126
v 0.676 -1.485 1.121
v 0.000 1.040 1.540
v 0.000 1.598 1.085
v 0.000 1.598 1.100
v 0.000 1.598 1.100
v 0.000 2.523 1.100
v 0.000 2.523 2.768
v 0.000 2.523 2.768
v 0.000 1.158 2.768
v 0.000 1.040 1.540
v 0.000 1.040 1.540
v 0.000 1.598 1.100
v 0.000 2.523 2.768
v 0.000 1.598 1.085
v 0.000 -0.012 1.203
v 0.000 -0.012 0.000
v 0.000 -0.012 0.000
v 0.000 1.598 0.000
v 0.000 1.598 1.085
v 0.000 -0.012 1.203
v 0.000 1.598 1.085
v 0.000 1.040 1.540
v 0.000 0.499 2.276
v 0.000 -0.012 1.203
v 0.000 1.040 1.540
v 0.000 0.930 2.276
v 0.000 1.158 2.768
v 0.000 0.930 2.768
v 0.000 -0.012 2.195
v 0.000 0.499 2.768
v 0.000 -0.546 2.768
v 0.000 -0.546 2.768
v 0.000 -0.620 2.194
v 0.000 -0.012 2.195
v 0.000 1.158 2.768
v 0.000 0.930 2.276
v 0.000 1.040 1.540
v 0.000 0.499 2.768
v 0.000 -0.012 2.195
v 0.000 0.499 2.276
v 0.000 0.499 2.276
v 0.000 1.040 1.540
v 0.000 0.930 2.276
v 0.000 -0.012 1.203
v 0.000 0.499 2.276
v 0.000 -0.012 2.195
v 0.000 -2.188 1.773
v 0.000 -1.488 1.609
v 0.000 -1.488 2.193
v 0.000 -1.488 2.193
v 0.000 -0.620 2.194
v 0.000 -0.546 2.768
v 0.000 -1.488 2.193
v 0.000 -2.453 2.768
v 0.000 -2.188 1.773
v 0.000 -2.453 2.768
v 0.000 -1.488 2.193
v 0.000 -0.546 2.768
v 0.000 -2.188 1.773
v 0.000 -2.775 1.100
v 0.000 -1.983 1.100
v 0.000 -1.983 1.100
v 0.000 -1.983 0.000
v 0.000 -1.488 0.000
v 0.000 -1.983 1.100
v 0.000 -1.488 1.609
v 0.000 -2.188 1.773
v 0.000 -1.488 1.609
v 0.000 -1.983 1.100
v 0.000 -1.488 0.000
v 0.000 -2.188 1.773
v 0.000 -2.453 2.768
v 0.000 -3.648 2.768
v 0.000 -3.648 2.768
v 0.000 -3.648 1.100
v 0.000 -2.775 1.100
v 0.000 -2.775 1.100
v 0.000 -2.188 1.773
v 0.000 -3.648 2.768
v 4.805 2.022 1.366
v 4.704 2.031 1.463
v 4.711 2.031 2.736
v 4.805 2.022 1.366
v 6.102 1.903 2.736
v 6.102 1.903 1.418
v 6.102 1.903 2.736
v 4.805 2.022 1.366
v 4.711 2.031 2.736
v 4.704 2.031 1.463
v 3.445 2.147 1.338
v 3.317 2.159 1.457
v 4.704 2.031 1.463
v 3.308 2.160 2.736
v 4.711 2.031 2.736
v 3.308 2.160 2.736
v 4.704 2.031 1.463
v 3.317 2.159 1.457
v 4.805 2.022 1.366
v 6.102 1.903 1.418
v 6.102 1.903 0.050
v 6.102 1.903 0.050
v 4.795 2.023 0.050
v 4.805 2.022 1.366
v 3.445 2.147 1.338
v 4.704 2.031 1.463
v 4.805 2.022 1.366
v 3.445 2.147 1.338
v 4.795 2.023 0.050
v 3.455 2.146 0.050
v 4.795 2.023 0.050
v 3.445 2.147 1.338
v 4.805 2.022 1.366
v 3.317 2.159 1.457
v 2.035 2.277 1.320
v 1.931 2.286 1.422
v 3.317 2.159 1.457
v 1.934 2.286 2.736
v 3.308 2.160 2.736
v 1.934 2.286 2.736
v 3.317 2.159 1.457
v 1.931 2.286 1.422
v 2.035 2.277 1.320
v 3.317 2.159 1.457
v 3.445 2.147 1.338
v 2.035 2.277 1.320
v 3.455 2.146 0.050
v 2.035 2.277 0.050
v 3.455 2.146 0.050
v 2.035 2.277 1.320
v 3.445 2.147 1.338
v 1.931 2.286 1.422
v 0.571 2.411 1.357
v 0.571 2.411 2.736
v 0.571 2.411 2.736
v 1.934 2.286 2.736
v 1.931 2.286 1.422
v 1.931 2.286 1.422
v 2.035 2.277 1.320
v 2.035 2.277 0.050
v 1.931 2.286 1.422
v 0.571 2.411 0.050
v 0.571 2.411 1.357
v 0.571 2.411 0.050
v 1.931 2.286 1.422
v 2.035 2.277 0.050
v 4.758 -4.928 0.050
v 6.102 -4.820 0.050
v 6.102 -6.160 0.050
v 6.102 -6.160 0.050
v 4.740 -6.160 0.050
v 4.758 -4.928 0.050
v 3.413 -4.920 0.050
v 4.576 -4.746 0.050
v 4.758 -4.928 0.050
v 3.413 -4.920 0.050
v 4.740 -6.160 0.050
v 3.299 -6.160 0.050
v 4.740 -6.160 0.050
v 3.413 -4.920 0.050
v 4.758 -4.928 0.050
v 4.758 -4.928 0.050
v 4.698 -3.525 0.050
v 6.102 -3.650 0.050
v 6.102 -3.650 0.050
v 6.102 -4.820 0.050
v 4.758 -4.928 0.050
v 4.698 -3.525 0.050
v 4.576 -4.746 0.050
v 4.623 -3.591 0.050
v 4.576 -4.746 0.050
v 4.698 -3.525 0.050
v 4.758 -4.928 0.050
v 3.380 -3.406 0.050
v 3.413 -4.920 0.050
v 3.041 -4.548 0.050
v 4.576 -4.746 0.050
v 3.380 -3.406 0.050
v 4.623 -3.591 0.050
v 3.380 -3.406 0.050
v 4.576 -4.746 0.050
v 3.413 -4.920 0.050
v 6.102 -3.650 0.050
v 4.811 -2.288 0.050
v 6.102 -2.245 0.050
v 4.811 -2.288 0.050
v 6.102 -3.650 0.050
v 4.698 -3.525 0.050
v 1.915 -4.825 0.050
v 2.046 -6.160 0.050
v 0.571 -6.160 0.050
v 0.571 -6.160 0.050
v 0.571 -4.862 0.050
v 1.915 -4.825 0.050
v 3.538 -2.112 0.050
v 3.380 -3.406 0.050
v 3.192 -3.113 0.050
v 4.811 -2.288 0.050
v 3.538 -2.112 0.050
v 4.614 -2.073 0.050
v 3.380 -3.406 0.050
v 4.811 -2.288 0.050
v 4.698 -3.525 0.050
v 3.380 -3.406 0.050
v 4.698 -3.525 0.050
v 4.623 -3.591 0.050
v 4.811 -2.288 0.050
v 3.380 -3.406 0.050
v 3.538 -2.112 0.050
v 3.413 -4.920 0.050
v 1.915 -4.825 0.050
v 3.041 -4.548 0.050
v 1.915 -4.825 0.050
v 2.091 -4.616 0.050
v 3.041 -4.548 0.050
v 2.046 -6.160 0.050
v 3.413 -4.920 0.050
v 3.299 -6.160 0.050
v 1.915 -4.825 0.050
v 3.413 -4.920 0.050
v 2.046 -6.160 0.050
v 3.041 -4.548 0.050
v 2.091 -4.616 0.050
v 1.750 -3.479 0.050
v 3.380 -3.406 0.050
v 2.120 -3.014 0.050
v 3.192 -3.113 0.050
v 1.750 -3.479 0.050
v 3.380 -3.406 0.050
v 3.041 -4.548 0.050
v 2.120 -3.014 0.050
v 3.380 -3.406 0.050
v 1.750 -3.479 0.050
v 3.538 -2.112 0.050
v 3.175 -1.611 0.050
v 3.474 -0.680 0.050
v 3.474 -0.680 0.050
v 4.592 -0.657 0.050
v 4.802 -0.905 0.050
v 4.802 -0.905 0.050
v 4.614 -2.073 0.050
v 3.538 -2.112 0.050
v 3.538 -2.112 0.050
v 3.474 -0.680 0.050
v 4.802 -0.905 0.050
v 4.811 -2.288 0.050
v 4.614 -2.073 0.050
v 4.802 -0.905 0.050
v 4.802 -0.905 0.050
v 6.102 -0.898 0.050
v 6.102 -2.245 0.050
v 6.102 -2.245 0.050
v 4.811 -2.288 0.050
v 4.802 -0.905 0.050
v 4.802 -0.905 0.050
v 4.592 -0.657 0.050
v 4.793 0.510 0.050
v 4.802 -0.905 0.050
v 6.102 0.505 0.050
v 6.102 -0.898 0.050
v 6.102 0.505 0.050
v 4.802 -0.905 0.050
v 4.793 0.510 0.050
v 1.750 -3.479 0.050
v 2.091 -4.616 0.050
v 1.915 -4.825 0.050
v 1.750 -3.479 0.050
v 0.571 -4.862 0.050
v 0.571 -3.460 0.050
v 0.571 -4.862 0.050
v 1.750 -3.479 0.050
v 1.915 -4.825 0.050
v 4.629 0.706 0.050
v 3.163 -0.243 0.050
v 3.424 0.738 0.050
v 4.592 -0.657 0.050
v 4.629 0.706 0.050
v 4.793 0.510 0.050
v 3.163 -0.243 0.050
v 4.592 -0.657 0.050
v 3.474 -0.680 0.050
v 4.629 0.706 0.050
v 4.592 -0.657 0.050
v 3.163 -0.243 0.050
v 6.102 1.903 0.050
v 4.629 0.706 0.050
v 4.807 2.022 0.050
v 4.793 0.510 0.050
v 6.102 1.903 0.050
v 6.102 0.505 0.050
v 6.102 1.903 0.050
v 4.793 0.510 0.050
v 4.629 0.706 0.050
v 2.110 -1.655 0.050
v 2.120 -3.014 0.050
v 1.831 -2.061 0.050
v 2.120 -3.014 0.050
v 2.110 -1.655 0.050
v 3.175 -1.611 0.050
v 2.120 -3.014 0.050
v 3.538 -2.112 0.050
v 3.192 -3.113 0.050
v 3.538 -2.112 0.050
v 2.120 -3.014 0.050
v 3.175 -1.611 0.050
v 0.571 -1.488 0.050
v 2.110 -1.655 0.050
v 1.831 -2.061 0.050
v 1.831 -2.061 0.050
v 0.571 -2.064 0.050
v 0.571 -1.488 0.050
v 0.571 -1.488 0.050
v 0.571 -0.644 0.050
v 1.782 -0.621 0.050
v 2.110 -1.655 0.050
v 0.571 -1.488 0.050
v 1.782 -0.621 0.050
v 1.831 -2.061 0.050
v 2.120 -3.014 0.050
v 1.750 -3.479 0.050
v 1.750 -3.479 0.050
v 0.571 -3.460 0.050
v 0.571 -2.064 0.050
v 0.571 -2.064 0.050
v 1.831 -2.061 0.050
v 1.750 -3.479 0.050
v 4.629 0.706 0.050
v 3.424 0.738 0.050
v 3.247 0.992 0.050
v 3.247 0.992 0.050
v 3.434 2.148 0.050
v 4.807 2.022 0.050
v 4.807 2.022 0.050
v 4.629 0.706 0.050
v 3.247 0.992 0.050
v 2.035 -0.279 0.050
v 2.110 -1.655 0.050
v 1.782 -0.621 0.050
v 3.175 -1.611 0.050
v 2.035 -0.279 0.050
v 3.163 -0.243 0.050
v 3.163 -0.243 0.050
v 3.474 -0.680 0.050
v 3.175 -1.611 0.050
v 2.035 -0.279 0.050
v 3.175 -1.611 0.050
v 2.110 -1.655 0.050
v 0.571 -0.012 0.050
v 2.035 -0.279 0.050
v 1.782 -0.621 0.050
v 1.782 -0.621 0.050
v 0.571 -0.644 0.050
v 0.571 -0.012 0.050
v 0.571 -0.012 0.050
v 0.571 0.852 0.050
v 1.775 0.849 0.050
v 2.035 -0.279 0.050
v 0.571 -0.012 0.050
v 1.775 0.849 0.050
v 3.247 0.992 0.050
v 1.955 1.050 0.050
v 1.929 2.286 0.050
v 1.929 2.286 0.050
v 3.434 2.148 0.050
v 3.247 0.992 0.050
v 1.955 1.050 0.050
v 2.035 -0.279 0.050
v 1.775 0.849 0.050
v 2.035 -0.279 0.050
v 1.955 1.050 0.050
v 3.247 0.992 0.050
v 3.247 0.992 0.050
v 3.424 0.738 0.050
v 3.163 -0.243 0.050
v 2.035 -0.279 0.050
v 3.247 0.992 0.050
v 3.163 -0.243 0.050
v 1.955 1.050 0.050
v 1.775 0.849 0.050
v 0.571 0.852 0.050
v 1.955 1.050 0.050
v 0.571 2.411 0.050
v 1.929 2.286 0.050
v 0.571 2.411 0.050
v 1.955 1.050 0.050
v 0.571 0.852 0.050
v 0.000 -0.012 0.000
v 0.571 -1.488 0.050
v 0.000 -1.488 -0.000
v 0.571 -1.488 0.050
v 0.000 -0.012 0.000
v 0.571 -0.012 0.050
v 0.571 -2.940 1.305
v 0.571 -1.488 1.520
v 0.571 -1.488 0.050
v 0.571 -1.488 0.050
v 0.571 -2.917 0.050
v 0.571 -2.940 1.305
v 0.571 -1.632 2.736
v 0.571 0.499 2.736
v 0.571 -0.012 2.195
v 0.571 -1.488 2.193
v 0.571 -1.488 2.131
v 0.571 -1.632 2.736
v 0.571 -1.632 2.736
v 0.571 -0.012 2.195
v 0.571 -1.488 2.193
v 0.571 -4.497 1.150
v 0.571 -3.185 1.537
v 0.571 -2.940 1.305
v 0.571 -4.497 1.150
v 0.571 -2.917 0.050
v 0.571 -4.496 0.050
v 0.571 -2.917 0.050
v 0.571 -4.497 1.150
v 0.571 -2.940 1.305
v 0.571 -3.906 2.276
v 0.571 -4.497 1.150
v 0.571 -4.791 1.447
v 0.571 -3.906 2.276
v 0.571 -4.710 2.736
v 0.571 -3.906 2.736
v 0.571 -3.483 2.276
v 0.571 -3.483 2.736
v 0.571 -3.257 2.736
v 0.571 -4.710 2.736
v 0.571 -3.906 2.276
v 0.571 -4.791 1.447
v 0.571 -3.483 2.276
v 0.571 -3.257 2.736
v 0.571 -3.185 1.537
v 0.571 -4.497 1.150
v 0.571 -3.906 2.276
v 0.571 -3.185 1.537
v 0.571 -3.906 2.276
v 0.571 -3.483 2.276
v 0.571 -3.185 1.537
v 0.571 -1.488 2.131
v 0.571 -1.488 1.520
v 0.571 -2.940 1.305
v 0.571 -1.488 2.131
v 0.571 -3.185 1.537
v 0.571 -3.257 2.736
v 0.571 -3.257 2.736
v 0.571 -1.632 2.736
v 0.571 -1.488 2.131
v 0.571 -3.185 1.537
v 0.571 -1.488 2.131
v 0.571 -2.940 1.305
v 0.571 -6.160 0.050
v 0.571 -4.497 1.150
v 0.571 -4.496 0.050
v 0.571 -4.791 1.447
v 0.571 -6.160 0.050
v 0.571 -6.160 1.300
v 0.571 -4.497 1.150
v 0.571 -6.160 0.050
v 0.571 -4.791 1.447
v 0.571 -4.791 1.447
v 0.571 -6.160 1.300
v 0.571 -6.160 2.736
v 0.571 -6.160 2.736
v 0.571 -4.710 2.736
v 0.571 -4.791 1.447
v 0.571 1.159 1.219
v 0.571 1.338 1.419
v 0.571 2.411 1.442
v 0.571 1.159 1.219
v 0.571 2.411 0.050
v 0.571 1.267 0.050
v 0.571 2.411 0.050
v 0.571 1.159 1.219
v 0.571 2.411 1.442
v 0.571 1.338 1.419
v 0.571 1.009 2.736
v 0.571 2.411 2.736
v 0.571 2.411 2.736
v 0.571 2.411 1.442
v 0.571 1.338 1.419
v 0.571 1.159 1.219
v 0.571 1.267 0.050
v 0.571 -0.012 0.050
v 0.571 -0.012 0.050
v 0.571 -0.012 1.234
v 0.571 1.159 1.219
v 0.571 0.499 2.276
v 0.571 1.159 1.219
v 0.571 -0.012 1.234
v 0.571 0.499 2.276
v 0.571 -0.012 2.195
v 0.571 0.499 2.736
v 0.571 0.930 2.276
v 0.571 0.930 2.736
v 0.571 1.009 2.736
v 0.571 -0.012 2.195
v 0.571 0.499 2.276
v 0.571 -0.012 1.234
v 0.571 0.930 2.276
v 0.571 1.009 2.736
v 0.571 1.338 1.419
v 0.571 0.930 2.276
v 0.571 1.159 1.219
v 0.571 0.499 2.276
v 0.571 1.159 1.219
v 0.571 0.930 2.276
v 0.571 1.338 1.419
v -0.000 -0.012 2.195
v 0.571 -0.012 0.050
v -0.000 -0.012 0.000
v 0.571 -0.012 0.050
v -0.000 -0.012 2.195
v 0.571 -0.012 2.195
v 0.676 -1.485 1.125
v 0.676 -1.485 0.050
v 0.571 -0.012 0.050
v 0.571 -0.012 0.050
v 0.571 -0.012 1.125
v 0.676 -1.485 1.125
v 0.571 -0.012 1.125
v 0.571 -0.012 2.195
v 0.676 -1.485 2.195
v 0.676 -1.485 2.195
v 0.676 -1.485 1.125
v 0.571 -0.012 1.125
v -5.442 -0.091 0.000
v -5.442 1.479 0.000
v -5.442 1.479 1.000
v -5.442 1.479 1.000
v -5.442 -0.091 1.000
v -5.442 -0.091 0.000
v -2.509 2.562 0.000
v -2.509 2.562 1.000
v -3.509 2.562 1.000
v -3.509 2.562 1.000
v -3.509 2.562 0.000
v -2.509 2.562 0.000
v -1.784 1.729 1.000
v -2.390 2.524 1.000
v -2.390 2.524 0.000
v -2.390 2.524 0.000
v -1.784 1.729 0.000
v -1.784 1.729 1.000
v -5.318 1.607 1.000
v -4.389 1.977 0.000
v -4.389 1.977 1.000
v -4.389 1.977 0.000
v -5.318 1.607 1.000
v -5.318 1.607 0.000
v -4.422 2.059 1.000
v -3.556 2.559 0.000
v -3.556 2.559 1.000
v -3.556 2.559 0.000
v -4.422 2.059 1.000
v -4.422 2.059 0.000

usemtl Patch_1_Mat_CR1_paintedConcrete
f 3 2 1
f 6 5 4
f 9 8 7

usemtl Patch_2_Mat_CR1_paintedConcrete
f 12 11 10
f 15 14 13
f 18 17 16

usemtl Patch_3_Mat_CR1_paintedConcrete
f 21 20 19
f 24 23 22

usemtl Patch_4_Mat_CR1_paintedConcrete
f 27 26 25
f 30 29 28
f 33 32 31

usemtl Patch_5_Mat_CR1_paintedConcrete
f 36 35 34
f 39 38 37

usemtl Patch_6_Mat_CR1_paintedConcrete
f 42 41 40
f 45 44 43
f 48 47 46

usemtl Patch_7_Mat_CR1_paintedConcrete
f 51 50 49
f 54 53 52
f 57 56 55

usemtl Patch_8_Mat_CR1_paintedConcrete
f 60 59 58
f 63 62 61

usemtl Patch_9_Mat_CR1_paintedConcrete
f 66 65 64
f 69 68 67

usemtl Patch_10_Mat_CR1_paintedConcrete
f 72 71 70
f 75 74 73

usemtl Patch_11_Mat_CR1_paintedConcrete
f 78 77 76
f 81 80 79

usemtl Patch_12_Mat_CR1_paintedConcrete
f 84 83 82
f 87 86 85

usemtl Patch_13_Mat_CR1_paintedConcrete
f 90 89 88
f 93 92 91

usemtl Patch_14_Mat_CR1_paintedConcrete
f 96 95 94
f 99 98 97

usemtl Patch_15_Mat_CR1_paintedConcrete
f 102 101 100
f 105 104 103

usemtl Patch_16_Mat_CR1_paintedConcrete
f 108 107 106
f 111 110 109

usemtl Patch_17_Mat_CR1_paintedConcrete
f 114 113 112
f 117 116 115

usemtl Patch_18_Mat_CR1_paintedConcrete
f 120 119 118
f 123 122 121

usemtl Patch_19_Mat_CR1_paintedConcrete
f 126 125 124
f 129 128 127

usemtl Patch_20_Mat_CR1_paintedConcrete
f 132 131 130
f 135 134 133

usemtl Patch_21_Mat_CR1_paintedConcrete
f 138 137 136
f 141 140 139

usemtl Patch_22_Mat_CR1_paintedConcrete
f 144 143 142
f 147 146 145

usemtl Patch_23_Mat_CR1_paintedConcrete
f 150 149 148
f 153 152 151

usemtl Patch_24_Mat_CR1_paintedConcrete
f 156 155 154
f 159 158 157

usemtl Patch_25_Mat_CR1_paintedConcrete
f 162 161 160
f 165 164 163
f 168 167 166

usemtl Patch_26_Mat_CR1_paintedConcrete
f 171 170 169
f 174 173 172
f 177 176 175
f 180 179 178

usemtl Patch_27_Mat_CR1_paintedConcrete
f 183 182 181
f 186 185 184
f 189 188 187
f 192 191 190

usemtl Patch_28_Mat_CR1_paintedConcrete
f 195 194 193
f 198 197 196

usemtl Patch_29_Mat_CR1_paintedConcrete
f 201 200 199
f 204 203 202
f 207 206 205

usemtl Patch_30_Mat_CR1_paintedConcrete
f 210 209 208
f 213 212 211
f 216 215 214

usemtl Patch_31_Mat_CR1_paintedConcrete
f 219 218 217
f 222 221 220
f 225 224 223
f 228 227 226

usemtl Patch_32_Mat_CR1_paintedConcrete
f 231 230 229
f 234 233 232
f 237 236 235

usemtl Patch_33_Mat_CR1_paintedConcrete
f 240 239 238
f 243 242 241
f 246 245 244

usemtl Patch_34_Mat_CR1_paintedConcrete
f 249 248 247
f 252 251 250

usemtl Patch_35_Mat_CR1_paintedConcrete
f 255 254 253
f 258 257 256
f 261 260 259

usemtl Patch_36_Mat_CR1_paintedConcrete
f 264 263 262
f 267 266 265

usemtl Patch_37_Mat_CR1_paintedConcrete
f 270 269 268
f 273 272 271
f 276 275 274
f 279 278 277

usemtl Patch_38_Mat_CR1_paintedConcrete
f 282 281 280
f 285 284 283

usemtl Patch_39_Mat_CR1_paintedConcrete
f 288 287 286
f 291 290 289
f 294 293 292
f 297 296 295

usemtl Patch_40_Mat_CR1_paintedConcrete
f 300 299 298
f 303 302 301
f 306 305 304
f 309 308 307
f 312 311 310

usemtl Patch_41_Mat_CR1_paintedConcrete
f 315 314 313
f 318 317 316

usemtl Patch_42_Mat_CR1_paintedConcrete
f 321 320 319
f 324 323 322

usemtl Patch_43_Mat_CR1_concrete
f 327 326 325
f 330 329 328

usemtl Patch_44_Mat_CR1_concrete
f 333 332 331
f 336 335 334

usemtl Patch_45_Mat_CR1_concrete
f 339 338 337
f 342 341 340

usemtl Patch_46_Mat_CR1_concrete
f 345 344 343
f 348 347 346

usemtl Patch_47_Mat_CR1_concrete
f 351 350 349
f 354 353 352

usemtl Patch_48_Mat_CR1_concrete
f 357 356 355
f 360 359 358
f 363 362 361

usemtl Patch_49_Mat_CR1_concrete
f 366 365 364
f 369 368 367
f 372 371 370

usemtl Patch_50_Mat_CR1_concrete
f 375 374 373
f 378 377 376
f 381 380 379
f 384 383 382

usemtl Patch_51_Mat_CR1_concrete
f 387 386 385
f 390 389 388
f 393 392 391

usemtl Patch_52_Mat_CR1_concrete
f 396 395 394
f 399 398 397
f 402 401 400
f 405 404 403
f 408 407 406

usemtl Patch_53_Mat_CR1_concrete
f 411 410 409
f 414 413 412
f 417 416 415

usemtl Patch_54_Mat_CR1_concrete
f 420 419 418
f 423 422 421
f 426 425 424
f 429 428 427
f 432 431 430

usemtl Patch_55_Mat_CR1_concrete
f 435 434 433
f 438 437 436
f 441 440 439
f 444 443 442

usemtl Patch_56_Mat_CR1_concrete
f 447 446 445
f 450 449 448
f 453 452 451

usemtl Patch_57_Mat_CR1_concrete
f 456 455 454
f 459 458 457
f 462 461 460

usemtl Patch_58_Mat_CR1_concrete
f 465 464 463
f 468 467 466

usemtl Patch_59_Mat_CR1_concrete
f 471 470 469
f 474 473 472

usemtl Patch_60_Mat_CR1_concrete
f 477 476 475
f 480 479 478

usemtl Patch_61_Mat_CR1_concrete
f 483 482 481
f 486 485 484

usemtl Patch_62_Mat_CR1_concrete
f 489 488 487
f 492 491 490

usemtl Patch_63_Mat_CR1_concrete
f 495 494 493
f 498 497 496

usemtl Patch_64_Mat_CR1_concrete
f 501 500 499
f 504 503 502

usemtl Patch_65_Mat_CR1_concrete
f 507 506 505
f 510 509 508
f 513 512 511

usemtl Patch_66_Mat_CR1_concrete
f 516 515 514
f 519 518 517
f 522 521 520
f 525 524 523

usemtl Patch_67_Mat_CR1_concrete
f 528 527 526
f 531 530 529
f 534 533 532
f 537 536 535

usemtl Patch_68_Mat_CR1_concrete
f 540 539 538
f 543 542 541

usemtl Patch_69_Mat_CR1_concrete
f 546 545 544
f 549 548 547
f 552 551 550

usemtl Patch_70_Mat_CR1_concrete
f 555 554 553
f 558 557 556
f 561 560 559

usemtl Patch_71_Mat_CR1_concrete
f 564 563 562
f 567 566 565
f 570 569 568

usemtl Patch_72_Mat_CR1_concrete
f 573 572 571
f 576 575 574
f 579 578 577
f 582 581 580

usemtl Patch_73_Mat_CR1_concrete
f 585 584 583
f 588 587 586
f 591 590 589

usemtl Patch_74_Mat_CR1_concrete
f 594 593 592
f 597 596 595
f 600 599 598

usemtl Patch_75_Mat_CR1_concrete
f 603 602 601
f 606 605 604
f 609 608 607

usemtl Patch_76_Mat_CR1_concrete
f 612 611 610
f 615 614 613

usemtl Patch_77_Mat_CR1_concrete
f 618 617 616
f 621 620 619

usemtl Patch_78_Mat_CR1_concrete
f 624 623 622
f 627 626 625
f 630 629 628

usemtl Patch_79_Mat_CR1_concrete
f 633 632 631
f 636 635 634
f 639 638 637
f 642 641 640

usemtl Patch_80_Mat_CR1_concrete
f 645 644 643
f 648 647 646
f 651 650 649

usemtl Patch_81_Mat_CR1_concrete
f 654 653 652
f 657 656 655
f 660 659 658

usemtl Patch_82_Mat_CR1_concrete
f 663 662 661
f 666 665 664
f 669 668 667
f 672 671 670

usemtl Patch_83_Mat_CR1_concrete
f 675 674 673
f 678 677 676

usemtl Patch_84_Mat_CR1_paintedConcrete
f 681 680 679
f 684 683 682
f 687 686 685
f 690 689 688
f 693 692 691
f 696 695 694
f 699 698 697

usemtl Patch_85_Mat_CR1_paintedConcrete
f 702 701 700
f 705 704 703
f 708 707 706

usemtl Patch_86_Mat_CR1_paintedConcrete
f 711 710 709
f 714 713 712

usemtl Patch_87_Mat_CR1_paintedConcrete
f 717 716 715
f 720 719 718
f 723 722 721

usemtl Patch_88_Mat_CR1_paintedConcrete
f 726 725 724
f 729 728 727
f 732 731 730

usemtl Patch_89_Mat_CR1_paintedConcrete
f 735 734 733
f 738 737 736
f 741 740 739

usemtl Patch_90_Mat_CR1_paintedConcrete
f 744 743 742
f 747 746 745
f 750 749 748

usemtl Patch_91_Mat_CR1_paintedConcrete
f 753 752 751
f 756 755 754
f 759 758 757
f 762 761 760
f 765 764 763
f 768 767 766
f 771 770 769

usemtl Patch_92_Mat_CR1_paintedConcrete
f 774 773 772
f 777 776 775
f 780 779 778

usemtl Patch_93_Mat_CR1_paintedConcrete
f 783 782 781
f 786 785 784
f 789 788 787

usemtl Patch_94_Mat_CR1_paintedConcrete
f 792 791 790
f 795 794 793

usemtl Patch_95_Mat_CR1_paintedConcrete
f 798 797 796
f 801 800 799
f 804 803 802

usemtl Patch_96_Mat_CR1_paintedConcrete
f 807 806 805
f 810 809 808
f 813 812 811

usemtl Patch_97_Mat_CR1_paintedConcrete
f 816 815 814
f 819 818 817

usemtl Patch_98_Mat_CR1_paintedConcrete
f 822 821 820
f 825 824 823
f 828 827 826

usemtl Patch_99_Mat_CR1_paintedConcrete
f 831 830 829
f 834 833 832

usemtl Patch_100_Mat_CR1_paintedConcrete
f 837 836 835
f 840 839 838
f 843 842 841

usemtl Patch_101_Mat_CR1_paintedConcrete
f 846 845 844
f 849 848 847
f 852 851 850

usemtl Patch_102_Mat_CR1_paintedConcrete
f 855 854 853
f 858 857 856
f 861 860 859

usemtl Patch_103_Mat_CR1_tablesEquipment
f 864 863 862
f 867 866 865

usemtl Patch_104_Mat_CR1_tablesEquipment
f 870 869 868
f 873 872 871

usemtl Patch_105_Mat_CR1_tablesEquipment
f 876 875 874
f 879 878 877

usemtl Patch_106_Mat_CR1_tablesEquipment
f 882 881 880
f 885 884 883

usemtl Patch_107_Mat_CR1_tablesEquipment
f 888 887 886
f 891 890 889

usemtl Patch_108_Mat_CR1_tablesEquipment
f 894 893 892
f 897 896 895

usemtl Patch_109_Mat_CR1_tablesEquipment
f 900 899 898
f 903 902 901

usemtl Patch_110_Mat_CR1_tablesEquipment
f 906 905 904
f 909 908 907

usemtl Patch_111_Mat_CR1_tablesEquipment
f 912 911 910
f 915 914 913

usemtl Patch_112_Mat_CR1_absorber
f 918 917 916
f 921 920 919

usemtl Patch_113_Mat_CR1_absorber
f 924 923 922
f 927 926 925

usemtl Patch_114_Mat_CR1_absorber
f 930 929 928
f 933 932 931

usemtl Patch_115_Mat_CR1_absorber
f 936 935 934
f 939 938 937

usemtl Patch_116_Mat_CR1_tablesEquipment
f 942 941 940
f 945 944 943

usemtl Patch_117_Mat_CR1_tablesEquipment
f 948 947 946
f 951 950 949

usemtl Patch_118_Mat_CR1_tablesEquipment
f 954 953 952
f 957 956 955

usemtl Patch_119_Mat_CR1_tablesEquipment
f 960 959 958
f 963 962 961
f 966 965 964
f 969 968 967

usemtl Patch_120_Mat_CR1_tablesEquipment
f 972 971 970
f 975 974 973

usemtl Patch_121_Mat_CR1_tablesEquipment
f 978 977 976
f 981 980 979

usemtl Patch_122_Mat_CR1_tablesEquipment
f 984 983 982
f 987 986 985

usemtl Patch_123_Mat_CR1_concrete
f 990 989 988
f 993 992 991
f 996 995 994
f 999 998 997
f 1002 1001 1000

usemtl Patch_124_Mat_CR1_concrete
f 1005 1004 1003
f 1008 1007 1006
f 1011 1010 1009
f 1014 1013 1012

usemtl Patch_125_Mat_CR1_concrete
f 1017 1016 1015
f 1020 1019 1018
f 1023 1022 1021

usemtl Patch_126_Mat_CR1_concrete
f 1026 1025 1024
f 1029 1028 1027
f 1032 1031 1030
f 1035 1034 1033
f 1038 1037 1036

usemtl Patch_127_Mat_CR1_concrete
f 1041 1040 1039
f 1044 1043 1042
f 1047 1046 1045

usemtl Patch_128_Mat_CR1_concrete
f 1050 1049 1048
f 1053 1052 1051

usemtl Patch_129_Mat_CR1_concrete
f 1056 1055 1054
f 1059 1058 1057
f 1062 1061 1060
f 1065 1064 1063
f 1068 1067 1066

usemtl Patch_130_Mat_CR1_concrete
f 1071 1070 1069
f 1074 1073 1072
f 1077 1076 1075

usemtl Patch_131_Mat_CR1_concrete
f 1080 1079 1078
f 1083 1082 1081
f 1086 1085 1084
f 1089 1088 1087

usemtl Patch_132_Mat_CR1_concrete
f 1092 1091 1090
f 1095 1094 1093
f 1098 1097 1096

usemtl Patch_133_Mat_CR1_concrete
f 1101 1100 1099
f 1104 1103 1102
f 1107 1106 1105
f 1110 1109 1108

usemtl Patch_134_Mat_CR1_concrete
f 1113 1112 1111
f 1116 1115 1114
f 1119 1118 1117
f 1122 1121 1120

usemtl Patch_135_Mat_CR1_concrete
f 1125 1124 1123
f 1128 1127 1126
f 1131 1130 1129

usemtl Patch_136_Mat_CR1_concrete
f 1134 1133 1132
f 1137 1136 1135
f 1140 1139 1138
f 1143 1142 1141

usemtl Patch_137_Mat_CR1_concrete
f 1146 1145 1144
f 1149 1148 1147
f 1152 1151 1150

usemtl Patch_138_Mat_CR1_concrete
f 1155 1154 1153
f 1158 1157 1156
f 1161 1160 1159
f 1164 1163 1162
f 1167 1166 1165

usemtl Patch_139_Mat_CR1_concrete
f 1170 1169 1168
f 1173 1172 1171
f 1176 1175 1174
f 1179 1178 1177

usemtl Patch_140_Mat_CR1_absorber
f 1182 1181 1180
f 1185 1184 1183

usemtl Patch_141_Mat_CR1_concrete
f 1188 1187 1186
f 1191 1190 1189

usemtl Patch_142_Mat_CR1_paintedConcrete
f 1194 1193 1192
f 1197 1196 1195

usemtl Patch_143_Mat_CR1_paintedConcrete
f 1200 1199 1198
f 1203 1202 1201

usemtl Patch_144_Mat_CR1_concrete
f 1206 1205 1204
f 1209 1208 1207
f 1212 1211 1210
f 1215 1214 1213

usemtl Patch_145_Mat_CR1_concrete
f 1218 1217 1216
f 1221 1220 1219
f 1224 1223 1222

usemtl Patch_146_Mat_CR1_concrete
f 1227 1226 1225
f 1230 1229 1228
f 1233 1232 1231
f 1236 1235 1234
f 1239 1238 1237
f 1242 1241 1240
f 1245 1244 1243
f 1248 1247 1246

usemtl Patch_147_Mat_CR1_concrete
f 1251 1250 1249
f 1254 1253 1252
f 1257 1256 1255
f 1260 1259 1258

usemtl Patch_148_Mat_CR1_concrete
f 1263 1262 1261
f 1266 1265 1264
f 1269 1268 1267
f 1272 1271 1270

usemtl Patch_149_Mat_CR1_concrete
f 1275 1274 1273
f 1278 1277 1276
f 1281 1280 1279

usemtl Patch_150_Mat_CR1_paintedConcrete
f 1284 1283 1282
f 1287 1286 1285
f 1290 1289 1288

usemtl Patch_151_Mat_CR1_paintedConcrete
f 1293 1292 1291
f 1296 1295 1294
f 1299 1298 1297

usemtl Patch_152_Mat_CR1_paintedConcrete
f 1302 1301 1300
f 1305 1304 1303

usemtl Patch_153_Mat_CR1_paintedConcrete
f 1308 1307 1306
f 1311 1310 1309
f 1314 1313 1312

usemtl Patch_154_Mat_CR1_paintedConcrete
f 1317 1316 1315
f 1320 1319 1318
f 1323 1322 1321

usemtl Patch_155_Mat_CR1_paintedConcrete
f 1326 1325 1324
f 1329 1328 1327
f 1332 1331 1330

usemtl Patch_156_Mat_CR1_paintedConcrete
f 1335 1334 1333
f 1338 1337 1336

usemtl Patch_157_Mat_CR1_paintedConcrete
f 1341 1340 1339
f 1344 1343 1342
f 1347 1346 1345

usemtl Patch_158_Mat_CR1_paintedConcrete
f 1350 1349 1348
f 1353 1352 1351

usemtl Patch_159_Mat_CR1_paintedConcrete
f 1356 1355 1354
f 1359 1358 1357
f 1362 1361 1360

usemtl Patch_160_Mat_CR1_paintedConcrete
f 1365 1364 1363
f 1368 1367 1366
f 1371 1370 1369
f 1374 1373 1372

usemtl Patch_161_Mat_CR1_paintedConcrete
f 1377 1376 1375
f 1380 1379 1378
f 1383 1382 1381

usemtl Patch_162_Mat_CR1_paintedConcrete
f 1386 1385 1384
f 1389 1388 1387

usemtl Patch_163_Mat_CR1_paintedConcrete
f 1392 1391 1390
f 1395 1394 1393

usemtl Patch_164_Mat_CR1_paintedConcrete
f 1398 1397 1396
f 1401 1400 1399
f 1404 1403 1402
f 1407 1406 1405
f 1410 1409 1408

usemtl Patch_165_Mat_CR1_paintedConcrete
f 1413 1412 1411
f 1416 1415 1414
f 1419 1418 1417
f 1422 1421 1420

usemtl Patch_166_Mat_CR1_paintedConcrete
f 1425 1424 1423
f 1428 1427 1426
f 1431 1430 1429
f 1434 1433 1432

usemtl Patch_167_Mat_CR1_paintedConcrete
f 1437 1436 1435
f 1440 1439 1438
f 1443 1442 1441
f 1446 1445 1444

usemtl Patch_168_Mat_CR1_paintedConcrete
f 1449 1448 1447
f 1452 1451 1450
f 1455 1454 1453

usemtl Patch_169_Mat_CR1_paintedConcrete
f 1458 1457 1456
f 1461 1460 1459
f 1464 1463 1462

usemtl Patch_170_Mat_CR1_paintedConcrete
f 1467 1466 1465
f 1470 1469 1468
f 1473 1472 1471

usemtl Patch_171_Mat_CR1_paintedConcrete
f 1476 1475 1474
f 1479 1478 1477
f 1482 1481 1480
f 1485 1484 1483

usemtl Patch_172_Mat_CR1_paintedConcrete
f 1488 1487 1486
f 1491 1490 1489
f 1494 1493 1492

usemtl Patch_173_Mat_CR1_paintedConcrete
f 1497 1496 1495
f 1500 1499 1498
f 1503 1502 1501
f 1506 1505 1504

usemtl Patch_174_Mat_CR1_paintedConcrete
f 1509 1508 1507
f 1512 1511 1510
f 1515 1514 1513
f 1518 1517 1516

usemtl Patch_175_Mat_CR1_paintedConcrete
f 1521 1520 1519
f 1524 1523 1522
f 1527 1526 1525

usemtl Patch_176_Mat_CR1_paintedConcrete
f 1530 1529 1528
f 1533 1532 1531
f 1536 1535 1534

usemtl Patch_177_Mat_CR1_paintedConcrete
f 1539 1538 1537
f 1542 1541 1540
f 1545 1544 1543
f 1548 1547 1546

usemtl Patch_178_Mat_CR1_paintedConcrete
f 1551 1550 1549
f 1554 1553 1552
f 1557 1556 1555
f 1560 1559 1558

usemtl Patch_179_Mat_CR1_paintedConcrete
f 1563 1562 1561
f 1566 1565 1564

usemtl Patch_180_Mat_CR1_paintedConcrete
f 1569 1568 1567
f 1572 1571 1570
f 1575 1574 1573
f 1578 1577 1576

usemtl Patch_181_Mat_CR1_paintedConcrete
f 1581 1580 1579
f 1584 1583 1582
f 1587 1586 1585

usemtl Patch_182_Mat_CR1_concrete
f 1590 1589 1588
f 1593 1592 1591

usemtl Patch_183_Mat_CR1_paintedConcrete
f 1596 1595 1594
f 1599 1598 1597

usemtl Patch_184_Mat_CR1_paintedConcrete
f 1602 1601 1600
f 1605 1604 1603
f 1608 1607 1606

usemtl Patch_185_Mat_CR1_paintedConcrete
f 1611 1610 1609
f 1614 1613 1612
f 1617 1616 1615

usemtl Patch_186_Mat_CR1_paintedConcrete
f 1620 1619 1618
f 1623 1622 1621
f 1626 1625 1624
f 1629 1628 1627
f 1632 1631 1630
f 1635 1634 1633
f 1638 1637 1636

usemtl Patch_187_Mat_CR1_paintedConcrete
f 1641 1640 1639
f 1644 1643 1642
f 1647 1646 1645
f 1650 1649 1648

usemtl Patch_188_Mat_CR1_paintedConcrete
f 1653 1652 1651
f 1656 1655 1654
f 1659 1658 1657

usemtl Patch_189_Mat_CR1_paintedConcrete
f 1662 1661 1660
f 1665 1664 1663

usemtl Patch_190_Mat_CR1_paintedConcrete
f 1668 1667 1666
f 1671 1670 1669
f 1674 1673 1672

usemtl Patch_191_Mat_CR1_paintedConcrete
f 1677 1676 1675
f 1680 1679 1678

usemtl Patch_192_Mat_CR1_paintedConcrete
f 1683 1682 1681
f 1686 1685 1684

usemtl Patch_193_Mat_CR1_paintedConcrete
f 1689 1688 1687
f 1692 1691 1690
f 1695 1694 1693
f 1698 1697 1696
f 1701 1700 1699
f 1704 1703 1702
f 1707 1706 1705

usemtl Patch_194_Mat_CR1_concrete
f 1710 1709 1708
f 1713 1712 1711

usemtl Patch_195_Mat_CR1_tablesEquipment
f 1716 1715 1714
f 1719 1718 1717

usemtl Patch_196_Mat_CR1_tablesEquipment
f 1722 1721 1720
f 1725 1724 1723

usemtl Patch_197_Mat_CR1_absorber
f 1728 1727 1726
f 1731 1730 1729

usemtl Patch_198_Mat_CR1_absorber
f 1734 1733 1732
f 1737 1736 1735

usemtl Patch_199_Mat_CR1_absorber
f 1740 1739 1738
f 1743 1742 1741

usemtl Patch_200_Mat_CR1_absorber
f 1746 1745 1744
f 1749 1748 1747

usemtl Patch_201_Mat_CR1_absorber
f 1752 1751 1750
f 1755 1754 1753

