mtllib mesh.mtl

# obj1
v 240.22590637 -153.77952576 107.71653748
v 22.46999359 -242.51968384 107.71653748
v 22.46999359 -153.77952576 107.71653748
v 240.22590637 -242.51968384 107.71653748
usemtl Patch_1_Mat_CR1_paintedConcrete
f 1 2 3
usemtl Patch_2_Mat_CR1_paintedConcrete
f 2 1 4

# obj2
v 22.46999359 36.61417389 107.71653748
v 240.22590637 36.61417389 89.60630035
v 22.46999359 36.61417389 89.60630035
v 240.22590637 36.61417389 107.71653748
usemtl Patch_3_Mat_CR1_paintedConcrete
f 5 6 7
usemtl Patch_4_Mat_CR1_paintedConcrete
f 6 5 8

# obj3
v 240.22590637 36.61417389 89.60630035
v 22.46999359 19.64566994 89.60630035
v 22.46999359 36.61417389 89.60630035
v 240.22590637 19.64566994 89.60630035
usemtl Patch_5_Mat_CR1_paintedConcrete
f 9 10 11
usemtl Patch_6_Mat_CR1_paintedConcrete
f 10 9 12

# obj4
v 240.22590637 19.64566994 107.71653748
v 22.46999359 19.64566994 89.60630035
v 240.22590637 19.64566994 89.60630035
v 22.46999359 19.64566994 107.71653748
usemtl Patch_7_Mat_CR1_paintedConcrete
f 13 14 15
usemtl Patch_8_Mat_CR1_paintedConcrete
f 14 13 16

# obj5
v 240.22590637 74.92125702 107.71653748
v 22.46999359 36.61417389 107.71653748
v 22.46999359 94.92125702 107.71653748
v 240.22590637 36.61417389 107.71653748
usemtl Patch_9_Mat_CR1_paintedConcrete
f 17 18 19
usemtl Patch_10_Mat_CR1_paintedConcrete
f 18 17 20

# obj6
v 22.46999359 -137.12599182 107.71653748
v 240.22590637 -137.12599182 89.60630035
v 22.46999359 -137.12599182 89.60630035
v 240.22590637 -137.12599182 107.71653748
usemtl Patch_11_Mat_CR1_paintedConcrete
f 21 22 23
usemtl Patch_12_Mat_CR1_paintedConcrete
f 22 21 24

# obj7
v 240.22590637 -137.12599182 89.60630035
v 22.46999359 -153.77952576 89.60630035
v 22.46999359 -137.12599182 89.60630035
v 240.22590637 -153.77952576 89.60630035
usemtl Patch_13_Mat_CR1_paintedConcrete
f 25 26 27
usemtl Patch_14_Mat_CR1_paintedConcrete
f 26 25 28

# obj8
v 240.22590637 -153.77952576 107.71653748
v 22.46999359 -153.77952576 89.60630035
v 240.22590637 -153.77952576 89.60630035
v 22.46999359 -153.77952576 107.71653748
usemtl Patch_15_Mat_CR1_paintedConcrete
f 29 30 31
usemtl Patch_16_Mat_CR1_paintedConcrete
f 30 29 32

# obj9
v 240.22590637 19.64566994 107.71653748
v 22.46999359 -137.12599182 107.71653748
v 22.46999359 19.64566994 107.71653748
v 240.22590637 -137.12599182 107.71653748
usemtl Patch_17_Mat_CR1_paintedConcrete
f 33 34 35
usemtl Patch_18_Mat_CR1_paintedConcrete
f 34 33 36

# obj10
v -174.10676575 81.05495453 0
v -173.85995483 113.40699005 -0
v -177.56370544 78.16802216 -0
v -140.01127625 100.73999023 0
v -241.38539124 84.87595367 -0
v -209.38021851 63.26903915 0
v -214.24804688 58.22101593 0
v -214.24804688 -3.59000707 0
v -210.31105042 58.22101593 0
v -172.80020142 77.8259964 0
v -172.13825989 77.645401 0
v -171.34449768 74.16799927 0
v -138.13943481 97.27464294 0
v -138.13943481 96.92906952 0
v -242.19224548 -120.20082855 0
v -178.01901245 -120.20082855 0
v -210.31105042 -3.59000707 0
v -207.92451477 59.61103821 0
v -110.3431015 -110.17155457 0
v -98.76934814 96.92906952 0
v -110.3431015 -142.25816345 0
v -35.93365479 -110.17155457 0
v -98.76934814 100.86607361 0
v -97.2281189 97.00177765 0
v -73.37030792 65.68392944 0
v -70.23852539 68.06970978 0
v -68.55511475 67.50354004 0
v -35.93365479 -78.08494568 0
v -4.54612064 62.91531754 0
v -0.50058484 -78.08494568 0
v -2.01274681 98.25770569 0
v -246.11268616 -143.62203979 0
v -242.19224548 -142.64176941 0
v -246.11268616 -86.10236359 0
v -0.01032051 -143.62203979 0
v -246.11268616 -45.27558899 0
v -246.11268616 121.8110199 0
v -178.01901245 -142.64176941 0
v -0.50058484 -142.25816345 0
v -237.68162537 120.11491394 -0
v -0.01032051 99.33071136 0
v -66.02174377 102.84593201 0
v -138.13943481 100.86607361 0
v -138.13943481 97.49784851 0
v -94.09633636 99.38756561 0
usemtl Patch_19_Mat_CR1_concrete
f 37 38 39
usemtl Patch_20_Mat_CR1_concrete
f 38 37 40
usemtl Patch_21_Mat_CR1_concrete
f 41 42 39
usemtl Patch_22_Mat_CR1_concrete
f 42 41 43
usemtl Patch_23_Mat_CR1_concrete
f 43 41 44
usemtl Patch_24_Mat_CR1_concrete
f 42 43 45
usemtl Patch_25_Mat_CR1_concrete
f 39 42 46
usemtl Patch_26_Mat_CR1_concrete
f 39 46 37
usemtl Patch_27_Mat_CR1_concrete
f 37 46 47
usemtl Patch_28_Mat_CR1_concrete
f 47 46 48
usemtl Patch_29_Mat_CR1_concrete
f 47 48 49
usemtl Patch_30_Mat_CR1_concrete
f 49 48 50
usemtl Patch_31_Mat_CR1_concrete
f 51 44 41
usemtl Patch_32_Mat_CR1_concrete
f 44 51 52
usemtl Patch_33_Mat_CR1_concrete
f 44 52 53
usemtl Patch_34_Mat_CR1_concrete
f 53 52 45
usemtl Patch_35_Mat_CR1_concrete
f 45 52 42
usemtl Patch_36_Mat_CR1_concrete
f 42 52 54
usemtl Patch_37_Mat_CR1_concrete
f 54 52 48
usemtl Patch_38_Mat_CR1_concrete
f 50 55 56
usemtl Patch_39_Mat_CR1_concrete
f 55 50 57
usemtl Patch_40_Mat_CR1_concrete
f 56 55 58
usemtl Patch_41_Mat_CR1_concrete
f 56 58 59
usemtl Patch_42_Mat_CR1_concrete
f 59 58 60
usemtl Patch_43_Mat_CR1_concrete
f 60 58 61
usemtl Patch_44_Mat_CR1_concrete
f 61 58 62
usemtl Patch_45_Mat_CR1_concrete
f 62 58 63
usemtl Patch_46_Mat_CR1_concrete
f 63 58 64
usemtl Patch_47_Mat_CR1_concrete
f 63 64 65
usemtl Patch_48_Mat_CR1_concrete
f 65 64 66
usemtl Patch_49_Mat_CR1_concrete
f 65 66 67
usemtl Patch_50_Mat_CR1_concrete
f 68 69 70
usemtl Patch_51_Mat_CR1_concrete
f 69 68 71
usemtl Patch_52_Mat_CR1_concrete
f 70 69 72
usemtl Patch_53_Mat_CR1_concrete
f 72 69 73
usemtl Patch_54_Mat_CR1_concrete
f 69 71 74
usemtl Patch_55_Mat_CR1_concrete
f 74 71 57
usemtl Patch_56_Mat_CR1_concrete
f 74 57 52
usemtl Patch_57_Mat_CR1_concrete
f 52 57 48
usemtl Patch_58_Mat_CR1_concrete
f 48 57 50
usemtl Patch_59_Mat_CR1_concrete
f 57 71 75
usemtl Patch_60_Mat_CR1_concrete
f 75 71 66
usemtl Patch_61_Mat_CR1_concrete
f 73 76 77
usemtl Patch_62_Mat_CR1_concrete
f 76 73 41
usemtl Patch_63_Mat_CR1_concrete
f 41 73 51
usemtl Patch_64_Mat_CR1_concrete
f 51 73 69
usemtl Patch_65_Mat_CR1_concrete
f 77 76 38
usemtl Patch_66_Mat_CR1_concrete
f 77 38 78
usemtl Patch_67_Mat_CR1_concrete
f 78 38 79
usemtl Patch_68_Mat_CR1_concrete
f 79 38 40
usemtl Patch_69_Mat_CR1_concrete
f 79 40 80
usemtl Patch_70_Mat_CR1_concrete
f 78 79 59
usemtl Patch_71_Mat_CR1_concrete
f 78 59 81
usemtl Patch_72_Mat_CR1_concrete
f 81 59 60
usemtl Patch_73_Mat_CR1_concrete
f 78 81 62
usemtl Patch_74_Mat_CR1_concrete
f 78 62 63
usemtl Patch_75_Mat_CR1_concrete
f 77 78 67
usemtl Patch_76_Mat_CR1_concrete
f 77 67 66
usemtl Patch_77_Mat_CR1_concrete
f 77 66 71

# obj11
v -246.11268616 -143.62203979 108.97637939
v -0.01032051 -143.62203979 0
v -246.11268616 -143.62203979 0
v -0.01032051 -143.62203979 108.97637939
usemtl Patch_78_Mat_CR1_concrete
f 82 83 84
usemtl Patch_79_Mat_CR1_concrete
f 83 82 85

# obj12
v -0.01032051 99.33071136 108.97637939
v -246.11268616 36.61417389 108.97637939
v -246.11268616 121.8110199 108.97637939
v -0.01032051 36.61417389 108.97637939
usemtl Patch_80_Mat_CR1_concrete
f 86 87 88
usemtl Patch_81_Mat_CR1_concrete
f 87 86 89

# obj13
v -246.11268616 121.8110199 0
v -246.11268616 -45.27558899 80.03936768
v -246.11268616 -45.27558899 0
v -246.11268616 19.64566994 89.60630035
v -246.11268616 36.61417389 89.60630035
v -246.11268616 36.61417389 108.97637939
v -246.11268616 121.8110199 108.97637939
v -246.11268616 -86.10236359 0
v -246.11268616 -143.62203979 108.97637939
v -246.11268616 -143.62203979 0
v -246.11268616 -86.10236359 80.03936768
v -246.11268616 19.64566994 108.97637939
usemtl Patch_82_Mat_CR1_concrete
f 90 91 92
usemtl Patch_83_Mat_CR1_concrete
f 91 90 93
usemtl Patch_84_Mat_CR1_concrete
f 93 90 94
usemtl Patch_85_Mat_CR1_concrete
f 94 90 95
usemtl Patch_86_Mat_CR1_concrete
f 95 90 96
usemtl Patch_87_Mat_CR1_concrete
f 97 98 99
usemtl Patch_88_Mat_CR1_concrete
f 98 97 100
usemtl Patch_89_Mat_CR1_concrete
f 98 100 101
usemtl Patch_90_Mat_CR1_concrete
f 101 100 91
usemtl Patch_91_Mat_CR1_concrete
f 101 91 93

# obj14
v -246.11268616 -45.27558899 0
v -246.11268616 -86.10236359 80.03936768
v -246.11268616 -86.10236359 0
v -246.11268616 -45.27558899 80.03936768
usemtl Patch_92_Mat_CR1_concrete
f 102 103 104
usemtl Patch_93_Mat_CR1_concrete
f 103 102 105

# obj15
v -0.01032051 19.64566994 108.97637939
v -246.11268616 19.64566994 89.60630035
v -0.01032051 19.64566994 89.60630035
v -246.11268616 19.64566994 108.97637939
usemtl Patch_94_Mat_CR1_concrete
f 106 107 108
usemtl Patch_95_Mat_CR1_concrete
f 107 106 109

# obj16
v -0.01032051 36.61417389 89.60630035
v -246.11268616 19.64566994 89.60630035
v -246.11268616 36.61417389 89.60630035
v -0.01032051 19.64566994 89.60630035
usemtl Patch_96_Mat_CR1_concrete
f 110 111 112
usemtl Patch_97_Mat_CR1_concrete
f 111 110 113

# obj17
v -246.11268616 36.61417389 89.60630035
v -0.01032051 36.61417389 108.97637939
v -0.01032051 36.61417389 89.60630035
v -246.11268616 36.61417389 108.97637939
usemtl Patch_98_Mat_CR1_concrete
f 114 115 116
usemtl Patch_99_Mat_CR1_concrete
f 115 114 117

# obj18
v -0.01032051 19.64566994 108.97637939
v -246.11268616 -143.62203979 108.97637939
v -246.11268616 19.64566994 108.97637939
v -0.01032051 -143.62203979 108.97637939
usemtl Patch_100_Mat_CR1_concrete
f 118 119 120
usemtl Patch_101_Mat_CR1_concrete
f 119 118 121

# obj19
v -0.01032051 99.33071136 108.97637939
v -246.11268616 121.8110199 0
v -0.01032051 99.33071136 0
v -246.11268616 121.8110199 108.97637939
usemtl Patch_102_Mat_CR1_concrete
f 122 123 124
usemtl Patch_103_Mat_CR1_concrete
f 123 122 125

# obj20
v -0.01032051 -143.62203979 108.97637939
v -0.01032051 -58.58267593 86.3385849
v -0.01032051 -143.62203979 0
v -0.01032051 19.64566994 108.97637939
v -0.01032051 -0.47244096 86.41732025
v -0.01032051 -0.47244096 1.96850395
v -0.01032051 99.33071136 108.97637939
v -0.01032051 36.61417389 89.60630035
v -0.01032051 36.61417389 108.97637939
v -0.01032051 -58.58267593 1.96850395
v -0.01032051 99.33071136 0
v -0.01032051 19.64566994 89.60630035
usemtl Patch_104_Mat_CR1_concrete
f 126 127 128
usemtl Patch_105_Mat_CR1_concrete
f 127 126 129
usemtl Patch_106_Mat_CR1_concrete
f 127 129 130
usemtl Patch_107_Mat_CR1_concrete
f 130 129 131
usemtl Patch_108_Mat_CR1_concrete
f 132 133 134
usemtl Patch_109_Mat_CR1_concrete
f 128 135 136
usemtl Patch_110_Mat_CR1_concrete
f 135 128 127
usemtl Patch_111_Mat_CR1_concrete
f 136 135 131
usemtl Patch_112_Mat_CR1_concrete
f 136 131 137
usemtl Patch_113_Mat_CR1_concrete
f 137 131 129
usemtl Patch_114_Mat_CR1_concrete
f 136 137 133
usemtl Patch_115_Mat_CR1_concrete
f 136 133 132

# obj21
v 240.22590637 74.92125702 107.71653748
v 22.46999359 94.92125702 1.96850395
v 240.22590637 74.92125702 1.96850395
v 22.46999359 94.92125702 107.71653748
usemtl Patch_116_Mat_CR1_paintedConcrete
f 138 139 140
usemtl Patch_117_Mat_CR1_paintedConcrete
f 139 138 141

# obj22
v 240.22590637 74.92125702 107.71653748
v 240.22590637 36.61417389 89.60630035
v 240.22590637 36.61417389 107.71653748
v 240.22590637 -153.77952576 107.71653748
v 240.22590637 -242.51968384 1.96850395
v 240.22590637 -242.51968384 107.71653748
v 240.22590637 -153.77952576 89.60630035
v 240.22590637 74.92125702 1.96850395
v 240.22590637 -137.12599182 89.60630035
v 240.22590637 -137.12599182 107.71653748
v 240.22590637 19.64566994 89.60630035
v 240.22590637 19.64566994 107.71653748
usemtl Patch_118_Mat_CR1_paintedConcrete
f 142 143 144
usemtl Patch_119_Mat_CR1_paintedConcrete
f 145 146 147
usemtl Patch_120_Mat_CR1_paintedConcrete
f 146 145 148
usemtl Patch_121_Mat_CR1_paintedConcrete
f 146 148 149
usemtl Patch_122_Mat_CR1_paintedConcrete
f 149 148 150
usemtl Patch_123_Mat_CR1_paintedConcrete
f 149 150 151
usemtl Patch_124_Mat_CR1_paintedConcrete
f 149 151 152
usemtl Patch_125_Mat_CR1_paintedConcrete
f 152 151 153
usemtl Patch_126_Mat_CR1_paintedConcrete
f 149 152 143
usemtl Patch_127_Mat_CR1_paintedConcrete
f 149 143 142

# obj23
v 22.46999359 -242.51968384 107.71653748
v 240.22590637 -242.51968384 1.96850395
v 22.46999359 -242.51968384 1.96850395
v 240.22590637 -242.51968384 107.71653748
usemtl Patch_128_Mat_CR1_paintedConcrete
f 154 155 156
usemtl Patch_129_Mat_CR1_paintedConcrete
f 155 154 157

# obj24
v 22.46999359 -0.47244096 86.41732025
v -0.01032051 -58.58267593 86.3385849
v -0.01032051 -0.47244096 86.41732025
v 22.46441269 -0.51229274 86.41730499
v 22.46999359 -58.58267593 86.3385849
v 22.46999359 -0.56630933 86.4172287
usemtl Patch_130_Mat_CR1_concrete
f 158 159 160
usemtl Patch_131_Mat_CR1_concrete
f 159 158 161
usemtl Patch_132_Mat_CR1_concrete
f 161 162 159
usemtl Patch_133_Mat_CR1_concrete
f 162 161 163

# obj25
v 22.46999359 -0.47244096 86.41732025
v 22.46278381 -0.47244096 1.96850395
v 22.46999359 -0.47244096 1.96850395
v -0.01032051 -0.47244096 86.41732025
v -0.01032051 -0.47244096 1.96850395
usemtl Patch_134_Mat_CR1_concrete
f 164 165 166
usemtl Patch_135_Mat_CR1_concrete
f 165 167 168
usemtl Patch_136_Mat_CR1_concrete
f 167 165 164

# obj26
v -0.01032051 -58.58267593 86.3385849
v 22.46999359 -58.58267593 1.96850395
v -0.01032051 -58.58267593 1.96850395
v 22.46999359 -58.58267593 86.3385849
usemtl Patch_137_Mat_CR1_concrete
f 169 170 171
usemtl Patch_138_Mat_CR1_concrete
f 170 169 172

# obj27
v 22.46999359 -5.91576195 1.96850395
v 20.59337807 -2.7171483 1.96850395
v 22.46999359 -1.61614442 1.96850395
usemtl Patch_139_Mat_CR1_concrete
f 173 174 175

# obj28
v -177.56370544 78.16802216 43.30708694
v -237.68162537 120.11491394 43.30708694
v -241.38539124 84.87595367 43.30708694
v -173.85995483 113.40699005 43.30708694
usemtl Patch_140_Mat_CR1_tablesEquipment
f 176 177 178
usemtl Patch_141_Mat_CR1_tablesEquipment
f 177 176 179

# obj29
v -237.68162537 120.11491394 43.30708694
v -173.85995483 113.40699005 -0
v -237.68162537 120.11491394 -0
v -173.85995483 113.40699005 43.30708694
usemtl Patch_142_Mat_CR1_tablesEquipment
f 180 181 182
usemtl Patch_143_Mat_CR1_tablesEquipment
f 181 180 183

# obj30
v -173.85995483 113.40699005 -0
v -177.56370544 78.16802216 43.30708694
v -177.56370544 78.16802216 -0
v -173.85995483 113.40699005 43.30708694
usemtl Patch_144_Mat_CR1_tablesEquipment
f 184 185 186
usemtl Patch_145_Mat_CR1_tablesEquipment
f 185 184 187

# obj31
v -177.56370544 78.16802216 43.30708694
v -241.38539124 84.87595367 -0
v -177.56370544 78.16802216 -0
v -241.38539124 84.87595367 43.30708694
usemtl Patch_146_Mat_CR1_tablesEquipment
f 188 189 190
usemtl Patch_147_Mat_CR1_tablesEquipment
f 189 188 191

# obj32
v -237.68162537 120.11491394 43.30708694
v -241.38539124 84.87595367 -0
v -241.38539124 84.87595367 43.30708694
v -237.68162537 120.11491394 -0
usemtl Patch_148_Mat_CR1_tablesEquipment
f 192 193 194
usemtl Patch_149_Mat_CR1_tablesEquipment
f 193 192 195

# obj33
v -178.01901245 -142.64176941 43.30708694
v -242.19224548 -142.64176941 0
v -178.01901245 -142.64176941 0
v -242.19224548 -142.64176941 43.30708694
usemtl Patch_150_Mat_CR1_tablesEquipment
f 196 197 198
usemtl Patch_151_Mat_CR1_tablesEquipment
f 197 196 199

# obj34
v -242.19224548 -120.20082855 43.30708694
v -178.01901245 -120.20082855 0
v -242.19224548 -120.20082855 0
v -178.01901245 -120.20082855 43.30708694
usemtl Patch_152_Mat_CR1_tablesEquipment
f 200 201 202
usemtl Patch_153_Mat_CR1_tablesEquipment
f 201 200 203

# obj35
v -178.01901245 -142.64176941 43.30708694
v -242.19224548 -120.20082855 43.30708694
v -242.19224548 -142.64176941 43.30708694
v -178.01901245 -120.20082855 43.30708694
usemtl Patch_154_Mat_CR1_tablesEquipment
f 204 205 206
usemtl Patch_155_Mat_CR1_tablesEquipment
f 205 204 207

# obj36
v -178.01901245 -120.20082855 0
v -178.01901245 -142.64176941 43.30708694
v -178.01901245 -142.64176941 0
v -178.01901245 -120.20082855 43.30708694
usemtl Patch_156_Mat_CR1_tablesEquipment
f 208 209 210
usemtl Patch_157_Mat_CR1_tablesEquipment
f 209 208 211

# obj37
v -242.19224548 -120.20082855 43.30708694
v -242.19224548 -142.64176941 0
v -242.19224548 -142.64176941 43.30708694
v -242.19224548 -120.20082855 0
usemtl Patch_158_Mat_CR1_tablesEquipment
f 212 213 214
usemtl Patch_159_Mat_CR1_tablesEquipment
f 213 212 215

# obj38
v -2.01274681 98.25770569 0
v -4.54612064 62.91531754 43.30708694
v -4.54612064 62.91531754 0
v -2.01274681 98.25770569 43.30708694
usemtl Patch_160_Mat_CR1_tablesEquipment
f 216 217 218
usemtl Patch_161_Mat_CR1_tablesEquipment
f 217 216 219

# obj39
v -4.54612064 62.91531754 43.30708694
v -66.02174377 102.84593201 43.30708694
v -68.55511475 67.50354004 43.30708694
v -2.01274681 98.25770569 43.30708694
usemtl Patch_162_Mat_CR1_tablesEquipment
f 220 221 222
usemtl Patch_163_Mat_CR1_tablesEquipment
f 221 220 223

# obj40
v -66.02174377 102.84593201 43.30708694
v -2.01274681 98.25770569 0
v -66.02174377 102.84593201 0
v -2.01274681 98.25770569 43.30708694
usemtl Patch_164_Mat_CR1_tablesEquipment
f 224 225 226
usemtl Patch_165_Mat_CR1_tablesEquipment
f 225 224 227

# obj41
v -66.02174377 102.84593201 43.30708694
v -68.55511475 67.50354004 0
v -68.55511475 67.50354004 43.30708694
v -66.02174377 102.84593201 0
usemtl Patch_166_Mat_CR1_tablesEquipment
f 228 229 230
usemtl Patch_167_Mat_CR1_tablesEquipment
f 229 228 231

# obj42
v -0.50058484 -78.08494568 0
v -0.50058484 -142.25816345 43.30708694
v -0.50058484 -142.25816345 0
v -0.50058484 -78.08494568 43.30708694
usemtl Patch_168_Mat_CR1_tablesEquipment
f 232 233 234
usemtl Patch_169_Mat_CR1_tablesEquipment
f 233 232 235

# obj43
v -35.93365479 -78.08494568 43.30708694
v -0.50058484 -78.08494568 0
v -35.93365479 -78.08494568 0
v -0.50058484 -78.08494568 43.30708694
usemtl Patch_170_Mat_CR1_tablesEquipment
f 236 237 238
usemtl Patch_171_Mat_CR1_tablesEquipment
f 237 236 239

# obj44
v -0.50058484 -142.25816345 43.30708694
v -110.3431015 -110.17155457 43.30708694
v -110.3431015 -142.25816345 43.30708694
v -35.93365479 -110.17155457 43.30708694
v -35.93365479 -78.08494568 43.30708694
v -0.50058484 -78.08494568 43.30708694
usemtl Patch_172_Mat_CR1_tablesEquipment
f 240 241 242
usemtl Patch_173_Mat_CR1_tablesEquipment
f 241 240 243
usemtl Patch_174_Mat_CR1_tablesEquipment
f 243 240 244
usemtl Patch_175_Mat_CR1_tablesEquipment
f 244 240 245

# obj45
v -0.50058484 -142.25816345 43.30708694
v -110.3431015 -142.25816345 0
v -0.50058484 -142.25816345 0
v -110.3431015 -142.25816345 43.30708694
usemtl Patch_176_Mat_CR1_tablesEquipment
f 246 247 248
usemtl Patch_177_Mat_CR1_tablesEquipment
f 247 246 249

# obj46
v -214.24804688 58.22101593 39.37007904
v -214.24804688 -3.59000707 0
v -214.24804688 -3.59000707 39.37007904
v -214.24804688 58.22101593 0
usemtl Patch_178_Mat_CR1_absorber
f 250 251 252
usemtl Patch_179_Mat_CR1_absorber
f 251 250 253

# obj47
v -210.31105042 -3.59000707 39.37007904
v -214.24804688 -3.59000707 0
v -210.31105042 -3.59000707 0
v -214.24804688 -3.59000707 39.37007904
usemtl Patch_180_Mat_CR1_absorber
f 254 255 256
usemtl Patch_181_Mat_CR1_absorber
f 255 254 257

# obj48
v -210.31105042 -3.59000707 39.37007904
v -214.24804688 58.22101593 39.37007904
v -214.24804688 -3.59000707 39.37007904
v -210.31105042 58.22101593 39.37007904
usemtl Patch_182_Mat_CR1_absorber
f 258 259 260
usemtl Patch_183_Mat_CR1_absorber
f 259 258 261

# obj49
v -210.31105042 58.22101593 0
v -210.31105042 -3.59000707 39.37007904
v -210.31105042 -3.59000707 0
v -210.31105042 58.22101593 39.37007904
usemtl Patch_184_Mat_CR1_absorber
f 262 263 264
usemtl Patch_185_Mat_CR1_absorber
f 263 262 265

# obj50
v -214.24804688 58.22101593 39.37007904
v -210.31105042 58.22101593 0
v -214.24804688 58.22101593 0
v -210.31105042 58.22101593 39.37007904
usemtl Patch_186_Mat_CR1_absorber
f 266 267 268
usemtl Patch_187_Mat_CR1_absorber
f 267 266 269

# obj51
v -138.13943481 97.49784851 0
v -138.04278564 97.33044434 39.37007904
v -138.04278564 97.33044434 0
v -138.13943481 97.49784851 39.37007904
v -140.01127625 100.73999023 0
v -140.01127625 100.73999023 39.37007904
usemtl Patch_188_Mat_CR1_absorber
f 270 271 272
usemtl Patch_189_Mat_CR1_absorber
f 271 270 273
usemtl Patch_190_Mat_CR1_absorber
f 273 270 274
usemtl Patch_191_Mat_CR1_absorber
f 273 274 275

# obj52
v -138.04278564 97.33044434 39.37007904
v -138.13943481 97.27464294 0
v -138.04278564 97.33044434 0
v -172.13825989 77.645401 0
v -138.13943481 97.27464294 39.37007904
v -172.13825989 77.645401 39.37007904
usemtl Patch_192_Mat_CR1_absorber
f 276 277 278
usemtl Patch_193_Mat_CR1_absorber
f 277 276 279
usemtl Patch_194_Mat_CR1_absorber
f 279 276 280
usemtl Patch_195_Mat_CR1_absorber
f 281 279 280

# obj53
v -172.13825989 77.645401 39.37007904
v -140.01127625 100.73999023 39.37007904
v -174.10676575 81.05495453 39.37007904
v -138.13943481 97.27464294 39.37007904
v -138.13943481 97.49784851 39.37007904
usemtl Patch_196_Mat_CR1_absorber
f 282 283 284
usemtl Patch_197_Mat_CR1_absorber
f 283 282 285
usemtl Patch_198_Mat_CR1_absorber
f 283 285 286

# obj54
v -174.10676575 81.05495453 39.37007904
v -172.13825989 77.645401 0
v -172.13825989 77.645401 39.37007904
v -174.10676575 81.05495453 0
usemtl Patch_199_Mat_CR1_absorber
f 287 288 289
usemtl Patch_200_Mat_CR1_absorber
f 288 287 290

# obj55
v -174.10676575 81.05495453 39.37007904
v -140.01127625 100.73999023 0
v -174.10676575 81.05495453 0
v -140.01127625 100.73999023 39.37007904
usemtl Patch_201_Mat_CR1_absorber
f 291 292 293
usemtl Patch_202_Mat_CR1_absorber
f 292 291 294

# obj56
v -138.04278564 97.33044434 39.37007904
v -138.13943481 97.49784851 39.37007904
v -138.13943481 97.27464294 39.37007904
usemtl Patch_203_Mat_CR1_absorber
f 295 296 297

# obj57
v -98.76934814 100.86607361 0
v -98.76934814 96.92906952 39.37007904
v -98.76934814 96.92906952 0
v -98.76934814 100.86607361 39.37007904
usemtl Patch_204_Mat_CR1_absorber
f 298 299 300
usemtl Patch_205_Mat_CR1_absorber
f 299 298 301

# obj58
v -138.13943481 100.86607361 39.37007904
v -98.76934814 100.86607361 0
v -138.13943481 100.86607361 0
v -98.76934814 100.86607361 39.37007904
usemtl Patch_206_Mat_CR1_absorber
f 302 303 304
usemtl Patch_207_Mat_CR1_absorber
f 303 302 305

# obj59
v -138.13943481 97.27464294 39.37007904
v -138.13943481 96.92906952 0
v -138.13943481 96.92906952 39.37007904
v -138.13943481 97.27464294 0
v -138.13943481 97.49784851 39.37007904
v -138.13943481 97.49784851 0
v -138.13943481 100.86607361 39.37007904
v -138.13943481 100.86607361 0
usemtl Patch_208_Mat_CR1_absorber
f 306 307 308
usemtl Patch_209_Mat_CR1_absorber
f 307 306 309
usemtl Patch_210_Mat_CR1_absorber
f 309 306 310
usemtl Patch_211_Mat_CR1_absorber
f 309 310 311
usemtl Patch_212_Mat_CR1_absorber
f 311 310 312
usemtl Patch_213_Mat_CR1_absorber
f 311 312 313

# obj60
v -98.76934814 96.92906952 39.37007904
v -138.13943481 96.92906952 0
v -98.76934814 96.92906952 0
v -138.13943481 96.92906952 39.37007904
usemtl Patch_214_Mat_CR1_absorber
f 314 315 316
usemtl Patch_215_Mat_CR1_absorber
f 315 314 317

# obj61
v -98.76934814 96.92906952 39.37007904
v -138.13943481 97.27464294 39.37007904
v -138.13943481 96.92906952 39.37007904
v -138.04278564 97.33044434 39.37007904
v -138.13943481 100.86607361 39.37007904
v -138.13943481 97.49784851 39.37007904
v -98.76934814 100.86607361 39.37007904
usemtl Patch_216_Mat_CR1_absorber
f 318 319 320
usemtl Patch_217_Mat_CR1_absorber
f 319 318 321
usemtl Patch_218_Mat_CR1_absorber
f 321 322 323
usemtl Patch_219_Mat_CR1_absorber
f 322 321 324
usemtl Patch_220_Mat_CR1_absorber
f 324 321 318

# obj62
v -138.04278564 97.33044434 0
v -138.13943481 97.49784851 0
v -138.13943481 97.27464294 0
usemtl Patch_221_Mat_CR1_concrete
f 325 326 327

# obj63
v -73.37030792 65.68392944 39.37007904
v -94.09633636 99.38756561 39.37007904
v -97.2281189 97.00177765 39.37007904
v -70.23852539 68.06970978 39.37007904
usemtl Patch_222_Mat_CR1_absorber
f 328 329 330
usemtl Patch_223_Mat_CR1_absorber
f 329 328 331

# obj64
v -94.09633636 99.38756561 0
v -70.23852539 68.06970978 39.37007904
v -70.23852539 68.06970978 0
v -94.09633636 99.38756561 39.37007904
usemtl Patch_224_Mat_CR1_absorber
f 332 333 334
usemtl Patch_225_Mat_CR1_absorber
f 333 332 335

# obj65
v -97.2281189 97.00177765 39.37007904
v -73.37030792 65.68392944 0
v -73.37030792 65.68392944 39.37007904
v -97.2281189 97.00177765 0
usemtl Patch_226_Mat_CR1_absorber
f 336 337 338
usemtl Patch_227_Mat_CR1_absorber
f 337 336 339

# obj66
v -97.2281189 97.00177765 39.37007904
v -94.09633636 99.38756561 0
v -97.2281189 97.00177765 0
v -94.09633636 99.38756561 39.37007904
usemtl Patch_228_Mat_CR1_absorber
f 340 341 342
usemtl Patch_229_Mat_CR1_absorber
f 341 340 343

# obj67
v -70.23852539 68.06970978 39.37007904
v -73.37030792 65.68392944 0
v -70.23852539 68.06970978 0
v -73.37030792 65.68392944 39.37007904
usemtl Patch_230_Mat_CR1_absorber
f 344 345 346
usemtl Patch_231_Mat_CR1_absorber
f 345 344 347

# obj68
v -207.92451477 59.61103821 39.37007904
v -172.80020142 77.8259964 39.37007904
v -209.38021851 63.26903915 39.37007904
v -171.34449768 74.16799927 39.37007904
usemtl Patch_232_Mat_CR1_absorber
f 348 349 350
usemtl Patch_233_Mat_CR1_absorber
f 349 348 351

# obj69
v -171.34449768 74.16799927 39.37007904
v -207.92451477 59.61103821 0
v -171.34449768 74.16799927 0
v -207.92451477 59.61103821 39.37007904
usemtl Patch_234_Mat_CR1_absorber
f 352 353 354
usemtl Patch_235_Mat_CR1_absorber
f 353 352 355

# obj70
v -209.38021851 63.26903915 39.37007904
v -207.92451477 59.61103821 0
v -207.92451477 59.61103821 39.37007904
v -209.38021851 63.26903915 0
usemtl Patch_236_Mat_CR1_absorber
f 356 357 358
usemtl Patch_237_Mat_CR1_absorber
f 357 356 359

# obj71
v -209.38021851 63.26903915 39.37007904
v -172.80020142 77.8259964 0
v -209.38021851 63.26903915 0
v -172.80020142 77.8259964 39.37007904
usemtl Patch_238_Mat_CR1_absorber
f 360 361 362
usemtl Patch_239_Mat_CR1_absorber
f 361 360 363

# obj72
v -172.80020142 77.8259964 0
v -171.34449768 74.16799927 39.37007904
v -171.34449768 74.16799927 0
v -172.80020142 77.8259964 39.37007904
usemtl Patch_240_Mat_CR1_absorber
f 364 365 366
usemtl Patch_241_Mat_CR1_absorber
f 365 364 367

# obj73
v -35.93365479 -78.08494568 43.30708694
v -35.93365479 -110.17155457 0
v -35.93365479 -110.17155457 43.30708694
v -35.93365479 -78.08494568 0
usemtl Patch_242_Mat_CR1_tablesEquipment
f 368 369 370
usemtl Patch_243_Mat_CR1_tablesEquipment
f 369 368 371

# obj74
v -110.3431015 -110.17155457 43.30708694
v -110.3431015 -142.25816345 0
v -110.3431015 -142.25816345 43.30708694
v -110.3431015 -110.17155457 0
usemtl Patch_244_Mat_CR1_tablesEquipment
f 372 373 374
usemtl Patch_245_Mat_CR1_tablesEquipment
f 373 372 375

# obj75
v -110.3431015 -110.17155457 43.30708694
v -35.93365479 -110.17155457 0
v -110.3431015 -110.17155457 0
v -35.93365479 -110.17155457 43.30708694
usemtl Patch_246_Mat_CR1_tablesEquipment
f 376 377 378
usemtl Patch_247_Mat_CR1_tablesEquipment
f 377 376 379

# obj76
v 22.46999359 94.92125702 1.96850395
v 22.46999359 19.64566994 89.60630035
v 22.46999359 1.67762446 1.96850395
v 22.46999359 36.61417389 89.60630035
v 22.46999359 36.61417389 107.71653748
v 22.46999359 94.92125702 107.71653748
v 22.46999359 -0.47244096 86.41732025
v 22.46999359 -0.47244096 1.96850395
v 22.46999359 19.64566994 107.71653748
usemtl Patch_248_Mat_CR1_paintedConcrete
f 380 381 382
usemtl Patch_249_Mat_CR1_paintedConcrete
f 381 380 383
usemtl Patch_250_Mat_CR1_paintedConcrete
f 383 380 384
usemtl Patch_251_Mat_CR1_paintedConcrete
f 384 380 385
usemtl Patch_252_Mat_CR1_paintedConcrete
f 382 386 387
usemtl Patch_253_Mat_CR1_paintedConcrete
f 386 382 388
usemtl Patch_254_Mat_CR1_paintedConcrete
f 388 382 381

# obj77
v 22.46999359 -58.58267593 1.96850395
v 22.46999359 -242.51968384 107.71653748
v 22.46999359 -242.51968384 1.96850395
v 22.46999359 -153.77952576 89.60630035
v 22.46999359 -137.12599182 89.60630035
v 22.46999359 -137.12599182 107.71653748
v 22.46999359 -58.58267593 86.3385849
v 22.46999359 19.64566994 107.71653748
v 22.46999359 -0.56630933 86.4172287
v 22.46999359 -153.77952576 107.71653748
usemtl Patch_255_Mat_CR1_paintedConcrete
f 389 390 391
usemtl Patch_256_Mat_CR1_paintedConcrete
f 390 389 392
usemtl Patch_257_Mat_CR1_paintedConcrete
f 392 389 393
usemtl Patch_258_Mat_CR1_paintedConcrete
f 393 389 394
usemtl Patch_259_Mat_CR1_paintedConcrete
f 394 389 395
usemtl Patch_260_Mat_CR1_paintedConcrete
f 394 395 396
usemtl Patch_261_Mat_CR1_paintedConcrete
f 396 395 397
usemtl Patch_262_Mat_CR1_paintedConcrete
f 398 390 392

# obj78
v 22.46999359 19.64566994 107.71653748
v 22.46999359 -0.56630933 86.4172287
v 22.46441269 -0.51229274 86.41730499
usemtl Patch_263_Mat_CR1_paintedConcrete
f 399 400 401

# obj79
v 22.46999359 19.64566994 107.71653748
v 22.46441269 -0.51229274 86.41730499
v 22.46999359 -0.47244096 86.41732025
usemtl Patch_264_Mat_CR1_paintedConcrete
f 402 403 404

# obj80
v 22.50100327 -5.96861458 1.96851277
v 22.46999359 -5.91576195 1.96850395
v 22.46999359 -58.58267593 1.96850395
usemtl Patch_265_Mat_CR1_paintedConcrete
f 405 406 407

# obj81
v 20.59337807 -2.7171483 86.22047424
v 22.46999359 -1.61614442 1.96850395
v 20.59337807 -2.7171483 1.96850395
v 22.50358009 -1.59643996 1.96851349
v 22.96381187 -1.32642341 1.96850395
v 23.14017105 -1.22295403 86.22047424
v 23.14017105 -1.22295403 1.96850395
usemtl Patch_266_Mat_CR1_tablesEquipment
f 408 409 410
usemtl Patch_267_Mat_CR1_tablesEquipment
f 409 408 411
usemtl Patch_268_Mat_CR1_tablesEquipment
f 412 413 414
usemtl Patch_269_Mat_CR1_tablesEquipment
f 413 412 411
usemtl Patch_270_Mat_CR1_tablesEquipment
f 413 411 408

# obj82
v 22.5449276 1.72158718 1.96850395
v 53.82339096 -51.59126663 87.40157318
v 53.82339096 -51.59126663 1.96850395
v 22.5449276 1.72158718 87.40157318
usemtl Patch_271_Mat_CR1_paintedConcrete
f 415 416 417
usemtl Patch_272_Mat_CR1_paintedConcrete
f 416 415 418

# obj83
v 21.52621078 1.12390947 1.96850395
v 22.5449276 1.72158718 1.96850395
v 22.46999359 1.67762446 1.96850395
v 21.52621078 1.12390947 87.40157318
v 22.5449276 1.72158718 87.40157318
usemtl Patch_273_Mat_CR1_paintedConcrete
f 419 420 421
usemtl Patch_274_Mat_CR1_paintedConcrete
f 420 419 422
usemtl Patch_275_Mat_CR1_paintedConcrete
f 420 422 423

# obj84
v 20.59337807 -2.7171483 86.22047424
v 49.08267975 -51.27598953 1.96850395
v 49.08267975 -51.27598953 86.22047424
v 22.50100327 -5.96861458 1.96851277
v 22.46999359 -5.91576195 1.96850395
v 20.59337807 -2.7171483 1.96850395
usemtl Patch_276_Mat_CR1_tablesEquipment
f 424 425 426
usemtl Patch_277_Mat_CR1_tablesEquipment
f 425 424 427
usemtl Patch_278_Mat_CR1_tablesEquipment
f 427 424 428
usemtl Patch_279_Mat_CR1_tablesEquipment
f 428 424 429

# obj85
v 51.62947464 -49.7817955 86.22047424
v 51.45311356 -49.88526535 1.96850395
v 51.62947464 -49.7817955 1.96850395
v 49.08267975 -51.27598953 86.22047424
v 49.08267975 -51.27598953 1.96850395
usemtl Patch_280_Mat_CR1_tablesEquipment
f 430 431 432
usemtl Patch_281_Mat_CR1_tablesEquipment
f 431 433 434
usemtl Patch_282_Mat_CR1_tablesEquipment
f 433 431 430

# obj86
v 21.52621078 1.12390947 87.40157318
v 52.80467606 -52.18894196 1.96850395
v 52.80467606 -52.18894196 87.40157318
v 51.45311356 -49.88526535 1.96850395
v 22.96381187 -1.32642341 1.96850395
v 22.50419998 -0.54303503 1.96851373
v 22.46999359 -0.48473191 1.96850395
v 22.46278381 -0.47244096 1.96850395
v 21.52621078 1.12390947 1.96850395
usemtl Patch_283_Mat_CR1_paintedConcrete
f 435 436 437
usemtl Patch_284_Mat_CR1_paintedConcrete
f 436 435 438
usemtl Patch_285_Mat_CR1_paintedConcrete
f 438 435 439
usemtl Patch_286_Mat_CR1_paintedConcrete
f 439 435 440
usemtl Patch_287_Mat_CR1_paintedConcrete
f 440 435 441
usemtl Patch_288_Mat_CR1_paintedConcrete
f 441 435 442
usemtl Patch_289_Mat_CR1_paintedConcrete
f 442 435 443

# obj87
v 49.08267975 -51.27598953 86.22047424
v 23.14017105 -1.22295403 86.22047424
v 20.59337807 -2.7171483 86.22047424
v 51.62947464 -49.7817955 86.22047424
usemtl Patch_290_Mat_CR1_tablesEquipment
f 444 445 446
usemtl Patch_291_Mat_CR1_tablesEquipment
f 445 444 447

# obj88
v 53.82339096 -51.59126663 87.40157318
v 52.80467606 -52.18894196 1.96850395
v 53.82339096 -51.59126663 1.96850395
v 52.80467606 -52.18894196 87.40157318
usemtl Patch_292_Mat_CR1_paintedConcrete
f 448 449 450
usemtl Patch_293_Mat_CR1_paintedConcrete
f 449 448 451

# obj89
v 52.80467606 -52.18894196 87.40157318
v 22.5449276 1.72158718 87.40157318
v 21.52621078 1.12390947 87.40157318
v 53.82339096 -51.59126663 87.40157318
usemtl Patch_294_Mat_CR1_paintedConcrete
f 452 453 454
usemtl Patch_295_Mat_CR1_paintedConcrete
f 453 452 455

# obj90
v 22.46999359 1.67762446 1.96850395
v 22.46278381 -0.47244096 1.96850395
v 21.52621078 1.12390947 1.96850395
v 22.46999359 -0.47244096 1.96850395
usemtl Patch_296_Mat_CR1_paintedConcrete
f 456 457 458
usemtl Patch_297_Mat_CR1_paintedConcrete
f 457 456 459

# obj91
v 22.50100327 -5.96861458 1.96851277
v 22.46999359 -1.61614442 1.96850395
v 22.46999359 -5.91576195 1.96850395
v 22.50358009 -1.59643996 1.96851349
usemtl Patch_298_Mat_CR1_tablesEquipment
f 460 461 462
usemtl Patch_299_Mat_CR1_tablesEquipment
f 461 460 463

# obj92
v 52.80467606 -52.18894196 1.96850395
v 51.62947464 -49.7817955 1.96850395
v 51.45311356 -49.88526535 1.96850395
v 22.50419998 -0.54303503 1.96851373
v 22.46999359 -0.47244096 1.96850395
v 22.46999359 -0.48473191 1.96850395
v 22.46999359 1.67762446 1.96850395
v 22.5449276 1.72158718 1.96850395
v 22.96381187 -1.32642341 1.96850395
v 23.14017105 -1.22295403 1.96850395
v 53.82339096 -51.59126663 1.96850395
usemtl Patch_300_Mat_CR1_paintedConcrete
f 464 465 466
usemtl Patch_301_Mat_CR1_paintedConcrete
f 467 468 469
usemtl Patch_302_Mat_CR1_paintedConcrete
f 468 467 470
usemtl Patch_303_Mat_CR1_paintedConcrete
f 470 467 471
usemtl Patch_304_Mat_CR1_paintedConcrete
f 471 467 472
usemtl Patch_305_Mat_CR1_paintedConcrete
f 471 472 473
usemtl Patch_306_Mat_CR1_paintedConcrete
f 471 473 474
usemtl Patch_307_Mat_CR1_paintedConcrete
f 474 473 465
usemtl Patch_308_Mat_CR1_paintedConcrete
f 474 465 464

# obj93
v 49.08267975 -51.27598953 1.96850395
v 22.50358009 -1.59643996 1.96851349
v 22.50100327 -5.96861458 1.96851277
v 22.96381187 -1.32642341 1.96850395
v 51.45311356 -49.88526535 1.96850395
usemtl Patch_309_Mat_CR1_tablesEquipment
f 475 476 477
usemtl Patch_310_Mat_CR1_tablesEquipment
f 476 475 478
usemtl Patch_311_Mat_CR1_tablesEquipment
f 478 475 479

# obj94
v 240.22590637 -242.51968384 1.96850395
v 22.46999359 -58.58267593 1.96850395
v 22.46999359 -242.51968384 1.96850395
v 49.08267975 -51.27598953 1.96850395
v 22.50100327 -5.96861458 1.96851277
v 52.80467606 -52.18894196 1.96850395
v 51.45311356 -49.88526535 1.96850395
v 53.82339096 -51.59126663 1.96850395
v 22.5449276 1.72158718 1.96850395
v 22.46999359 94.92125702 1.96850395
v 22.46999359 1.67762446 1.96850395
v 240.22590637 74.92125702 1.96850395
usemtl Patch_312_Mat_CR1_paintedConcrete
f 480 481 482
usemtl Patch_313_Mat_CR1_paintedConcrete
f 481 480 483
usemtl Patch_314_Mat_CR1_paintedConcrete
f 481 483 484
usemtl Patch_315_Mat_CR1_paintedConcrete
f 483 480 485
usemtl Patch_316_Mat_CR1_paintedConcrete
f 483 485 486
usemtl Patch_317_Mat_CR1_paintedConcrete
f 485 480 487
usemtl Patch_318_Mat_CR1_paintedConcrete
f 488 489 490
usemtl Patch_319_Mat_CR1_paintedConcrete
f 489 488 491
usemtl Patch_320_Mat_CR1_paintedConcrete
f 491 488 487
usemtl Patch_321_Mat_CR1_paintedConcrete
f 491 487 480

# obj95
v 22.96381187 -1.32642341 1.96850395
v 22.50419998 -0.54303503 1.96851373
v 22.50358009 -1.59643996 1.96851349
usemtl Patch_322_Mat_CR1_paintedConcrete
f 492 493 494

# obj96
v 22.46999359 -58.58267593 1.96850395
v -0.01032051 -0.47244096 1.96850395
v -0.01032051 -58.58267593 1.96850395
v 20.59337807 -2.7171483 1.96850395
v 22.46999359 -5.91576195 1.96850395
v 22.46278381 -0.47244096 1.96850395
v 22.46999359 -1.61614442 1.96850395
v 22.46999359 -0.48473191 1.96850395
usemtl Patch_323_Mat_CR1_concrete
f 495 496 497
usemtl Patch_324_Mat_CR1_concrete
f 496 495 498
usemtl Patch_325_Mat_CR1_concrete
f 498 495 499
usemtl Patch_326_Mat_CR1_concrete
f 498 500 496
usemtl Patch_327_Mat_CR1_concrete
f 500 498 501
usemtl Patch_328_Mat_CR1_concrete
f 500 501 502

# obj97
v 22.50358009 -1.59643996 1.96851349
v 22.46999359 -0.48473191 1.96850395
v 22.46999359 -1.61614442 1.96850395
v 22.50419998 -0.54303503 1.96851373
usemtl Patch_329_Mat_CR1_paintedConcrete
f 503 504 505
usemtl Patch_330_Mat_CR1_paintedConcrete
f 504 503 506

# obj98
v 51.45311356 -49.88526535 1.96850395
v 23.14017105 -1.22295403 1.96850395
v 22.96381187 -1.32642341 1.96850395
v 51.62947464 -49.7817955 1.96850395
usemtl Patch_331_Mat_CR1_paintedConcrete
f 507 508 509
usemtl Patch_332_Mat_CR1_paintedConcrete
f 508 507 510

# obj99
v -4.54612064 62.91531754 43.30708694
v -68.55511475 67.50354004 0
v -4.54612064 62.91531754 0
v -68.55511475 67.50354004 43.30708694
usemtl Patch_333_Mat_CR1_tablesEquipment
f 511 512 513
usemtl Patch_334_Mat_CR1_tablesEquipment
f 512 511 514
