mtllib mesh.mtl

v -1.30349243 4.08237756 0.1500000000000001
v -2.82349239 4.08237756 0.59500002
v -2.82349239 4.08237756 0.1499999999999999
v -2.82349239 4.08237756 0.59500002
v -1.30349243 4.08237756 0.1500000000000001
v -1.30349243 4.08237756 0.5950000200000001
v 1.2605076500000005 4.18937762 2.5680000399999994
v 2.80350756 4.18937762 0.45
v 1.2605076499999999 4.18937762 0.44999999999999984
v 2.80350756 4.18937762 0.45
v 1.2605076500000005 4.18937762 2.5680000399999994
v 2.8035075600000003 4.18937762 2.5680000399999994
v 2.4885076 -3.69462216 2.941836062697082e-18
v 3.09350769 -3.69462216 2.98799998
v 3.09350769 -3.69462216 -4.85722573273506e-16
v 3.09350769 -3.69462216 2.98799998
v 2.4885076 -3.69462216 2.941836062697082e-18
v 2.4885076 -3.69462216 2.98799998
v 2.51850751 -1.69462234 1.5006094182467065
v 2.51850751 -1.69462234 2.98799998
v 2.4885076 -3.6946221600000007 2.98799998
v 2.4885076 -3.6946221600000007 2.98799998
v 2.4885075999999997 -3.69462216 1.5003271548044128
v 2.51850751 -1.69462234 1.5006094182467065
v 2.4885075999999997 -3.69462216 1.5003271548044128
v 2.4885076 -3.69462216 -5.988283305119281e-16
v 2.51850751 -1.6946223400000004 -5.551115123125783e-16
v 2.51850751 -1.6946223400000004 -5.551115123125783e-16
v 2.51850751 -1.69462234 1.5006094182467065
v 2.4885075999999997 -3.69462216 1.5003271548044128
v 3.13150769 -1.69462234 2.080182847191878e-19
v 2.51850751 -1.69462234 2.98799998
v 2.51850751 -1.69462234 1.3877787807814457e-17
v 2.51850751 -1.69462234 2.98799998
v 3.13150769 -1.69462234 2.080182847191878e-19
v 3.1315076900000003 -1.69462234 2.98799998
v 0.6820130704061167 -4.25462209 1.5778373776349377
v 0.676398714004903 -4.25462209 2.9879999799999997
v -1.61649242 -4.25462209 2.98799998
v -1.61649242 -4.25462209 2.98799998
v -1.6164924199999997 -4.25462209 1.397568550946617
v 0.6820130704061167 -4.25462209 1.5778373776349377
v 0.6820130704061167 -4.25462209 1.5778373776349377
v 0.7948082330972335 -4.25462209 1.40973254167475
v 3.0935076900000005 -4.25462209 1.5951479073009098
v 3.0935076900000005 -4.25462209 1.5951479073009098
v 3.09350769 -4.25462209 2.98799998
v 0.676398714004903 -4.25462209 2.9879999799999997
v 0.676398714004903 -4.25462209 2.9879999799999997
v 0.6820130704061167 -4.25462209 1.5778373776349377
v 3.0935076900000005 -4.25462209 1.5951479073009098
v 0.7948082330972335 -4.25462209 1.40973254167475
v 0.6820130704061167 -4.25462209 1.5778373776349377
v -1.6164924199999997 -4.25462209 1.397568550946617
v -1.6164924199999997 -4.25462209 1.397568550946617
v -1.6164924199999997 -4.25462209 0.0
v 0.8012878928244209 -4.25462209 2.220446049250313e-16
v 0.8012878928244209 -4.25462209 2.220446049250313e-16
v 0.7948082330972335 -4.25462209 1.40973254167475
v -1.6164924199999997 -4.25462209 1.397568550946617
v 0.7948082330972335 -4.25462209 1.40973254167475
v 0.8012878928244209 -4.25462209 2.220446049250313e-16
v 3.09350769 -4.25462209 -1.211694571856412e-16
v 3.09350769 -4.25462209 -1.211694571856412e-16
v 3.0935076900000005 -4.25462209 1.5951479073009098
v 0.7948082330972335 -4.25462209 1.40973254167475
v -0.7694923699999996 4.18937762 0.45000000000000057
v 0.75750759 4.18937762 2.56800004
v 0.7575075900000002 4.18937762 0.45000000000000007
v 0.75750759 4.18937762 2.56800004
v -0.7694923699999996 4.18937762 0.45000000000000057
v -0.7694923699999999 4.18937762 2.56800004
v -2.88449234 4.18937762 0.4500000000000002
v -1.29749241 4.18937762 2.56800004
v -1.2974924100000003 4.18937762 0.45000000000000007
v -1.29749241 4.18937762 2.56800004
v -2.88449234 4.18937762 0.4500000000000002
v -2.88449234 4.18937762 2.56800004
v -1.61649242 -2.8906222 1.4944477176900648
v -1.61649242 -2.8906222 0.0
v -1.61649242 -4.25462209 1.1102230246251565e-16
v -1.61649242 -4.25462209 1.1102230246251565e-16
v -1.61649242 -4.25462209 1.505967813242468
v -1.61649242 -2.8906222 1.4944477176900648
v -1.61649242 -4.25462209 1.505967813242468
v -1.61649242 -4.25462209 2.98799998
v -1.61649242 -2.8906222000000006 2.98799998
v -1.61649242 -2.8906222000000006 2.98799998
v -1.61649242 -2.8906222 1.4944477176900648
v -1.61649242 -4.25462209 1.505967813242468
v 0.7565076000000001 4.08237756 0.15000000000000002
v -0.7634924 4.08237756 0.59500002
v -0.7634924 4.08237756 0.14999999999999997
v -0.7634924 4.08237756 0.59500002
v 0.7565076000000001 4.08237756 0.15000000000000002
v 0.7565076000000001 4.08237756 0.5950000200000001
v 2.78650763 4.08237756 0.15000000000000008
v 1.26650758 4.08237756 0.59500002
v 1.2665075800000003 4.08237756 0.15000000000000008
v 1.26650758 4.08237756 0.59500002
v 2.78650763 4.08237756 0.15000000000000008
v 2.78650763 4.08237756 0.59500002
v 3.09350769 -4.25462209 4.4288603814401584e-16
v 3.09350769 -3.69462216 2.98799998
v 3.09350769 -4.25462209 2.98799998
v 3.09350769 -3.69462216 2.98799998
v 3.09350769 -4.25462209 4.4288603814401584e-16
v 3.09350769 -3.6946221599999998 4.579669976578771e-16
v 0.7575075900000003 4.18937762 2.56800004
v 0.6079057381678896 4.18937762 2.56800004
v 0.7642927831863144 4.18937762 2.98799998
v 1.2605076500000003 4.18937762 2.56800004
v 3.15501362 4.18937762 2.98799998
v 2.80350756 4.18937762 2.56800004
v 2.8035075600000003 4.18937762 0.4500000000000002
v 2.80350756 4.18937762 2.56800004
v 3.15501362 4.18937762 2.98799998
v 0.7575075900000002 4.18937762 0.4500000000000002
v 0.7343593132647452 4.18937762 0.0
v 0.5721199019627293 4.18937762 0.4500000000000002
v 1.2605076500000003 4.18937762 2.56800004
v 0.7575075900000003 4.18937762 2.56800004
v 0.7642927831863144 4.18937762 2.98799998
v 3.15501362 4.18937762 2.98799998
v 1.2605076500000003 4.18937762 2.56800004
v 0.7642927831863144 4.18937762 2.98799998
v 2.8035075600000003 4.18937762 0.4500000000000002
v 3.15501362 4.18937762 2.98799998
v 3.1550136200000005 4.18937762 0.0
v 1.2605076500000005 4.18937762 0.4500000000000004
v 0.7343593132647452 4.18937762 0.0
v 0.7575075900000002 4.18937762 0.4500000000000002
v 1.2605076500000005 4.18937762 0.4500000000000004
v 0.7575075900000003 4.18937762 2.56800004
v 1.2605076500000003 4.18937762 2.56800004
v 1.2605076500000005 4.18937762 0.4500000000000004
v 2.8035075600000003 4.18937762 0.4500000000000002
v 3.1550136200000005 4.18937762 0.0
v 0.7575075900000003 4.18937762 2.56800004
v 1.2605076500000005 4.18937762 0.4500000000000004
v 0.7575075900000002 4.18937762 0.4500000000000002
v 0.7343593132647452 4.18937762 0.0
v 1.2605076500000005 4.18937762 0.4500000000000004
v 3.1550136200000005 4.18937762 0.0
v -0.7694923699999998 4.18937762 1.4944304186860946
v -0.7694923699999996 4.18937762 0.4500000000000006
v -1.2974924099999996 4.18937762 0.45000000000000057
v -1.2974924099999996 4.18937762 0.45000000000000057
v -1.2974924099999994 4.18937762 1.5037711806106069
v -0.7694923699999998 4.18937762 1.4944304186860946
v -1.2974924099999996 4.18937762 0.45000000000000057
v -2.8844923399999987 4.18937762 5.868309054229044e-16
v -2.884492339999998 4.18937762 0.45000000000000073
v 0.7343593132647452 4.18937762 0.0
v -1.2974924099999996 4.18937762 0.45000000000000057
v 0.5721199019627293 4.18937762 0.4500000000000002
v -1.2974924099999996 4.18937762 0.45000000000000057
v 0.7343593132647452 4.18937762 0.0
v -2.8844923399999987 4.18937762 5.868309054229044e-16
v -0.7694923699999997 4.18937762 2.5680000400000003
v -0.7694923699999998 4.18937762 1.4944304186860946
v -1.2974924099999994 4.18937762 1.5037711806106069
v -1.2974924099999994 4.18937762 2.5680000400000003
v -2.8844923399999987 4.18937762 2.5680000400000007
v -2.884492339999999 4.18937762 2.9879999800000006
v -0.7694923699999997 4.18937762 2.5680000400000003
v 0.7642927831863144 4.18937762 2.98799998
v 0.6079057381678896 4.18937762 2.56800004
v -0.7694923699999997 4.18937762 2.5680000400000003
v -1.2974924099999994 4.18937762 1.5037711806106069
v -1.2974924099999994 4.18937762 2.5680000400000003
v 0.7642927831863144 4.18937762 2.98799998
v -1.2974924099999994 4.18937762 2.5680000400000003
v -2.884492339999999 4.18937762 2.9879999800000006
v 0.7642927831863144 4.18937762 2.98799998
v -0.7694923699999997 4.18937762 2.5680000400000003
v -1.2974924099999994 4.18937762 2.5680000400000003
v -1.61649242 -2.8906222 0.0
v -0.7236762094428245 -2.155795601880383 0.0
v -1.61649242 -3.0893577278764686 0.0
v -1.61649242 -2.8906222 0.0
v -2.88449234 -2.8906222 0.0
v -2.8844923400000004 -0.9959810310083741 0.0
v -0.7236762094428245 -2.155795601880383 0.0
v -1.61649242 -2.8906222 0.0
v -1.0516432319592068 -1.1081016486212767 0.0
v -1.61649242 -2.8906222 0.0
v -2.8844923400000004 -0.9959810310083741 0.0
v -1.0516432319592068 -1.1081016486212767 0.0
v -1.61649242 -3.0893577278764686 0.0
v 0.5604798871306439 -2.5424452642861426 0.0
v 0.6370777810789625 -4.25462209 0.0
v 0.6370777810789625 -4.25462209 0.0
v -1.6164924200000002 -4.25462209 0.0
v -1.61649242 -3.0893577278764686 0.0
v 0.5604798871306439 -2.5424452642861426 0.0
v -1.61649242 -3.0893577278764686 0.0
v -0.7236762094428245 -2.155795601880383 0.0
v -1.0516432319592068 -1.1081016486212767 0.0
v -0.5231613100591304 -0.20054057686946203 0.0
v 0.9401953277012287 -0.2380568547685335 0.0
v -0.7236762094428245 -2.155795601880383 0.0
v 1.2971252038285128 -1.9709307956074327 0.0
v 0.5604798871306439 -2.5424452642861426 0.0
v 0.9401953277012287 -0.2380568547685335 0.0
v -0.7236762094428245 -2.155795601880383 0.0
v -1.0516432319592068 -1.1081016486212767 0.0
v -0.7236762094428245 -2.155795601880383 0.0
v 0.9401953277012287 -0.2380568547685335 0.0
v 1.2971252038285128 -1.9709307956074327 0.0
v 2.488507600000001 -3.6946221600000007 0.0
v 1.2971252038285128 -1.9709307956074327 0.0
v 2.5109915946010073 -2.195684824691529 0.0
v 2.488507600000001 -3.6946221600000007 0.0
v 3.0935076900000014 -3.694622160000001 0.0
v 3.093507690000001 -4.254622090000001 0.0
v 2.488507600000001 -3.6946221600000007 0.0
v 0.6370777810789625 -4.25462209 0.0
v 0.5604798871306439 -2.5424452642861426 0.0
v 1.2971252038285128 -1.9709307956074327 0.0
v 2.488507600000001 -3.6946221600000007 0.0
v 0.5604798871306439 -2.5424452642861426 0.0
v 0.6370777810789625 -4.25462209 0.0
v 2.488507600000001 -3.6946221600000007 0.0
v 3.093507690000001 -4.254622090000001 0.0
v -0.937196213573243 2.5153700012811253 0.0
v -0.5351316964016815 1.9637091105421292 0.0
v -0.9985481495253044 0.729245741368193 0.0
v -0.9985481495253044 0.729245741368193 0.0
v -2.8844923400000004 0.7322916117461951 0.0
v -2.8844923400000013 2.4552257223391964 0.0
v -2.8844923400000013 2.4552257223391964 0.0
v -0.937196213573243 2.5153700012811253 0.0
v -0.9985481495253044 0.729245741368193 0.0
v -0.9985481495253044 0.729245741368193 0.0
v -0.5231613100591304 -0.20054057686946203 0.0
v -1.0516432319592068 -1.1081016486212767 0.0
v -0.9985481495253044 0.729245741368193 0.0
v -2.8844923400000004 -0.9959810310083741 0.0
v -2.8844923400000004 0.7322916117461951 0.0
v -2.8844923400000004 -0.9959810310083741 0.0
v -0.9985481495253044 0.729245741368193 0.0
v -1.0516432319592068 -1.1081016486212767 0.0
v -0.9985481495253044 0.729245741368193 0.0
v -0.5351316964016815 1.9637091105421292 0.0
v 1.035302875901685 1.9804683289861704 0.0
v -0.9985481495253044 0.729245741368193 0.0
v 1.3139089793398218 0.16001503712454895 0.0
v 0.9401953277012287 -0.2380568547685335 0.0
v 0.9401953277012287 -0.2380568547685335 0.0
v -0.5231613100591304 -0.20054057686946203 0.0
v -0.9985481495253044 0.729245741368193 0.0
v 1.3139089793398218 0.16001503712454895 0.0
v -0.9985481495253044 0.729245741368193 0.0
v 1.035302875901685 1.9804683289861704 0.0
v 2.518507510000001 -1.6946223400000007 0.0
v 0.9401953277012287 -0.2380568547685335 0.0
v 1.3139089793398218 0.16001503712454895 0.0
v 2.518507510000001 -1.6946223400000007 0.0
v 3.1386635073345124 0.09662050425425428 0.0
v 3.1315076900000003 -1.6946223400000011 0.0
v 2.518507510000001 -1.6946223400000007 0.0
v 2.5109915946010073 -2.195684824691529 0.0
v 1.2971252038285128 -1.9709307956074327 0.0
v 3.1386635073345124 0.09662050425425428 0.0
v 2.518507510000001 -1.6946223400000007 0.0
v 1.3139089793398218 0.16001503712454895 0.0
v 0.9401953277012287 -0.2380568547685335 0.0
v 2.518507510000001 -1.6946223400000007 0.0
v 1.2971252038285128 -1.9709307956074327 0.0
v -0.937196213573243 2.5153700012811253 0.0
v -2.8844923400000013 2.4552257223391964 0.0
v -2.8844923400000013 4.18937762 0.0
v -2.8844923400000013 4.18937762 0.0
v -0.710993297838763 4.18937762 0.0
v -0.937196213573243 2.5153700012811253 0.0
v 1.2261828870760267 2.179073733546449 0.0
v 1.035302875901685 1.9804683289861704 0.0
v -0.5351316964016815 1.9637091105421292 0.0
v 1.1070957373414583 4.18937762 0.0
v -0.937196213573243 2.5153700012811253 0.0
v -0.710993297838763 4.18937762 0.0
v -0.937196213573243 2.5153700012811253 0.0
v 1.1070957373414583 4.18937762 0.0
v 1.2261828870760267 2.179073733546449 0.0
v -0.937196213573243 2.5153700012811253 0.0
v 1.2261828870760267 2.179073733546449 0.0
v -0.5351316964016815 1.9637091105421292 0.0
v 1.3139089793398218 0.16001503712454895 0.0
v 1.035302875901685 1.9804683289861704 0.0
v 1.2261828870760267 2.179073733546449 0.0
v 1.3139089793398218 0.16001503712454895 0.0
v 3.1469914766158036 2.1812762025396024 0.0
v 3.1386635073345124 0.09662050425425428 0.0
v 3.1469914766158036 2.1812762025396024 0.0
v 1.3139089793398218 0.16001503712454895 0.0
v 1.2261828870760267 2.179073733546449 0.0
v 1.2261828870760267 2.179073733546449 0.0
v 1.1070957373414583 4.18937762 0.0
v 3.1550136199999996 4.189377619999999 0.0
v 3.1550136199999996 4.189377619999999 0.0
v 3.1469914766158036 2.1812762025396024 0.0
v 1.2261828870760267 2.179073733546449 0.0
v 3.147581674362588 2.329014391093381 1.4936017077418389
v 3.1550136199999996 4.18937762 1.4818918268298447
v 3.15501362 4.18937762 2.98799998
v 3.15501362 4.18937762 2.98799998
v 3.1450644240275376 1.6988967624460751 2.9879999800000006
v 3.147581674362588 2.329014391093381 1.4936017077418389
v 3.147581674362588 2.329014391093381 1.4936017077418389
v 3.1413920240245603 0.7796222870000701 2.9879999800000006
v 3.138855617249597 0.14470942193030484 1.502952695811719
v 3.147581674362588 2.329014391093381 1.4936017077418389
v 3.14136719709448 0.7734076145493571 -1.1102230246251565e-16
v 3.1450932136228467 1.7061033685088576 -2.220446049250313e-16
v 3.1413920240245603 0.7796222870000701 2.9879999800000006
v 3.147581674362588 2.329014391093381 1.4936017077418389
v 3.1450644240275376 1.6988967624460751 2.9879999800000006
v 3.14136719709448 0.7734076145493571 -1.1102230246251565e-16
v 3.147581674362588 2.329014391093381 1.4936017077418389
v 3.138855617249597 0.14470942193030484 1.502952695811719
v 3.147581674362588 2.329014391093381 1.4936017077418389
v 3.1450932136228467 1.7061033685088576 -2.220446049250313e-16
v 3.1550136199999996 4.18937762 -4.440892098500626e-16
v 3.1550136199999996 4.18937762 -4.440892098500626e-16
v 3.1550136199999996 4.18937762 1.4818918268298447
v 3.147581674362588 2.329014391093381 1.4936017077418389
v 3.138855617249597 0.14470942193030484 1.502952695811719
v 3.1413920240245603 0.7796222870000701 2.9879999800000006
v 3.1315076900000003 -1.6946223400000007 2.98799998
v 3.1315076900000003 -1.6946223400000007 2.98799998
v 3.13150769 -1.6946223400000004 1.4826585800216914
v 3.138855617249597 0.14470942193030484 1.502952695811719
v 3.138855617249597 0.14470942193030484 1.502952695811719
v 3.13150769 -1.6946223400000004 1.4826585800216914
v 3.13150769 -1.6946223400000004 1.263689567488435e-16
v 3.13150769 -1.6946223400000004 1.263689567488435e-16
v 3.14136719709448 0.7734076145493571 -1.1102230246251565e-16
v 3.138855617249597 0.14470942193030484 1.502952695811719
v -2.88449234 4.18937762 0.0
v -2.88449234 2.128774532608895 1.6959782453867729
v -2.88449234 4.18937762 1.114323536800002
v -2.88449234 1.5314075752370053 0.9836966666562149
v -2.88449234 4.18937762 0.0
v -2.88449234 1.4967190943453221 0.0
v -2.88449234 2.128774532608895 1.6959782453867729
v -2.88449234 4.18937762 0.0
v -2.88449234 1.5314075752370053 0.9836966666562149
v -2.88449234 2.128774532608895 1.6959782453867729
v -2.88449234 1.5314075752370053 0.9836966666562149
v -2.88449234 -0.25356234852463577 2.000990779786408
v -2.88449234 -0.25356234852463577 2.000990779786408
v -2.88449234 -0.21793371577844467 2.9879999799999997
v -2.88449234 2.1314349763688223 2.98799998
v -2.88449234 2.1314349763688223 2.98799998
v -2.88449234 2.128774532608895 1.6959782453867729
v -2.88449234 -0.25356234852463577 2.000990779786408
v -2.88449234 2.128774532608895 1.6959782453867729
v -2.88449234 2.1314349763688223 2.98799998
v -2.88449234 4.18937762 2.98799998
v -2.88449234 4.18937762 2.98799998
v -2.88449234 4.18937762 1.114323536800002
v -2.88449234 2.128774532608895 1.6959782453867729
v -2.88449234 -0.8469960765366801 1.296884002429522
v -2.88449234 -0.25356234852463577 2.000990779786408
v -2.88449234 1.5314075752370053 0.9836966666562149
v -2.88449234 1.5314075752370053 0.9836966666562149
v -2.88449234 1.4967190943453221 0.0
v -2.88449234 -0.8485764551059433 -2.220446049250313e-16
v -2.88449234 -0.8485764551059433 -2.220446049250313e-16
v -2.88449234 -0.8469960765366801 1.296884002429522
v -2.88449234 1.5314075752370053 0.9836966666562149
v -2.88449234 -2.8906222 2.9879589
v -2.88449234 -0.8469960765366801 1.296884002429522
v -2.88449234 -2.8906222000000006 1.8611398188183745
v -2.88449234 -2.8906222 2.9879589
v -2.88449234 -2.8906221999999997 2.9879999799999997
v -2.88449234 -0.21793371577844467 2.9879999799999997
v -2.88449234 -0.8469960765366801 1.296884002429522
v -2.88449234 -2.8906222 2.9879589
v -2.88449234 -0.25356234852463577 2.000990779786408
v -2.88449234 -0.25356234852463577 2.000990779786408
v -2.88449234 -2.8906222 2.9879589
v -2.88449234 -0.21793371577844467 2.9879999799999997
v -2.88449234 -0.8469960765366801 1.296884002429522
v -2.88449234 -0.8485764551059433 -2.220446049250313e-16
v -2.88449234 -2.8906222000000006 -4.440892098500626e-16
v -2.88449234 -2.8906222000000006 -4.440892098500626e-16
v -2.88449234 -2.8906222000000006 1.8611398188183745
v -2.88449234 -0.8469960765366801 1.296884002429522
v -1.6164924199999997 -2.8906222 -4.0432483498577156e-16
v -2.88449234 -2.8906222 2.9879589
v -2.88449234 -2.8906222 -3.885780586188048e-16
v -2.88449234 -2.8906222 2.9879589
v -1.6164924199999997 -2.8906222 -4.0432483498577156e-16
v -1.61649242 -2.8906222 2.98799998
v -1.61649242 -2.8906222 2.98799998
v -2.88449234 -2.8906222 2.98799998
v -2.8844923400000004 -2.8906222 2.9879589
v 2.4885076 -3.69462216 2.98799998
v 0.5791268749880762 -3.0399812187383537 2.98799998
v 0.6142804862316524 -4.25462209 2.98799998
v 2.4885076 -3.69462216 2.98799998
v 3.09350769 -4.25462209 2.98799998
v 3.09350769 -3.69462216 2.98799998
v 2.4885076 -3.69462216 2.98799998
v 2.5108396639078165 -2.2058135670455106 2.98799998
v 1.6755910850748388 -2.0629332856531954 2.98799998
v 3.09350769 -4.25462209 2.98799998
v 2.4885076 -3.69462216 2.98799998
v 0.6142804862316524 -4.25462209 2.98799998
v 0.5791268749880762 -3.0399812187383537 2.98799998
v 2.4885076 -3.69462216 2.98799998
v 1.6755910850748388 -2.0629332856531954 2.98799998
v 2.51850751 -1.69462234 2.98799998
v 0.9655008037323627 -0.8286703001233592 2.98799998
v 1.6755910850748388 -2.0629332856531954 2.98799998
v 1.6755910850748388 -2.0629332856531954 2.98799998
v 2.5108396639078165 -2.2058135670455106 2.98799998
v 2.51850751 -1.69462234 2.98799998
v 2.51850751 -1.69462234 2.98799998
v 3.13150769 -1.69462234 2.98799998
v 3.1389547307769314 0.16951950138153382 2.98799998
v 2.51850751 -1.69462234 2.98799998
v 1.2787502330662441 0.1063246741144186 2.98799998
v 0.9655008037323627 -0.8286703001233592 2.98799998
v 1.2787502330662441 0.1063246741144186 2.98799998
v 2.51850751 -1.69462234 2.98799998
v 3.1389547307769314 0.16951950138153382 2.98799998
v -0.7765800229433495 -2.198297152895779 2.98799998
v -0.6936168819375437 -1.2268237442967331 2.98799998
v -1.2842294232606317 -0.49316351018233495 2.98799998
v -1.6686190243627315 -2.8906222000000006 2.98799998
v -2.884492340000001 -0.5409571816777428 2.98799998
v -2.8844923400000004 -2.8906222000000006 2.98799998
v -1.2842294232606317 -0.49316351018233495 2.98799998
v -1.6686190243627315 -2.8906222000000006 2.98799998
v -0.7765800229433495 -2.198297152895779 2.98799998
v -1.6686190243627315 -2.8906222000000006 2.98799998
v -1.2842294232606317 -0.49316351018233495 2.98799998
v -2.884492340000001 -0.5409571816777428 2.98799998
v -0.7765800229433495 -2.198297152895779 2.98799998
v -1.6686190243627315 -2.8906222000000006 2.98799998
v -1.6164924200000002 -2.8906222 2.98799998
v 0.5791268749880762 -3.0399812187383537 2.98799998
v -1.6164924200000002 -4.25462209 2.98799998
v 0.6142804862316524 -4.25462209 2.98799998
v -1.6164924200000002 -2.8906222 2.98799998
v 0.5791268749880762 -3.0399812187383537 2.98799998
v -0.7765800229433495 -2.198297152895779 2.98799998
v -1.6164924200000002 -4.25462209 2.98799998
v 0.5791268749880762 -3.0399812187383537 2.98799998
v -1.6164924200000002 -2.8906222 2.98799998
v -0.7765800229433495 -2.198297152895779 2.98799998
v 0.9655008037323627 -0.8286703001233592 2.98799998
v -0.6936168819375437 -1.2268237442967331 2.98799998
v 0.9655008037323627 -0.8286703001233592 2.98799998
v -0.7765800229433495 -2.198297152895779 2.98799998
v 0.5791268749880762 -3.0399812187383537 2.98799998
v 0.9655008037323627 -0.8286703001233592 2.98799998
v 0.5791268749880762 -3.0399812187383537 2.98799998
v 1.6755910850748388 -2.0629332856531954 2.98799998
v 0.9655008037323627 -0.8286703001233592 2.98799998
v 0.8586906112638756 0.7808931962733116 2.98799998
v -0.7731021345378062 0.7553603271153065 2.98799998
v -0.7731021345378062 0.7553603271153065 2.98799998
v -1.2842294232606317 -0.49316351018233495 2.98799998
v -0.6936168819375437 -1.2268237442967331 2.98799998
v 0.8586906112638756 0.7808931962733116 2.98799998
v 0.9655008037323627 -0.8286703001233592 2.98799998
v 1.2787502330662441 0.1063246741144186 2.98799998
v 0.9655008037323627 -0.8286703001233592 2.98799998
v -0.7731021345378062 0.7553603271153065 2.98799998
v -0.6936168819375437 -1.2268237442967331 2.98799998
v 1.0133808369343125 2.483352446917408 2.98799998
v 1.2212213462293462 2.1794904539791133 2.98799998
v 3.146766167022916 2.124876747783255 2.98799998
v 1.0133808369343125 2.483352446917408 2.98799998
v 3.1550136199999996 4.189377619999999 2.98799998
v 1.1976624808989387 4.189377619999999 2.98799998
v 3.1550136199999996 4.189377619999999 2.98799998
v 1.0133808369343125 2.483352446917408 2.98799998
v 3.146766167022916 2.124876747783255 2.98799998
v 3.1389547307769314 0.16951950138153382 2.98799998
v 0.8586906112638756 0.7808931962733116 2.98799998
v 1.2787502330662441 0.1063246741144186 2.98799998
v 0.8586906112638756 0.7808931962733116 2.98799998
v 3.1389547307769314 0.16951950138153382 2.98799998
v 3.146766167022916 2.124876747783255 2.98799998
v 0.8586906112638756 0.7808931962733116 2.98799998
v 3.146766167022916 2.124876747783255 2.98799998
v 1.2212213462293462 2.1794904539791133 2.98799998
v 0.8586906112638756 0.7808931962733116 2.98799998
v -0.8283080346140927 2.586632966849181 2.98799998
v -0.7731021345378062 0.7553603271153065 2.98799998
v -0.8283080346140927 2.586632966849181 2.98799998
v -1.3511788034287724 1.8292610041730968 2.98799998
v -0.7731021345378062 0.7553603271153065 2.98799998
v 1.0133808369343125 2.483352446917408 2.98799998
v 0.8586906112638756 0.7808931962733116 2.98799998
v 1.2212213462293462 2.1794904539791133 2.98799998
v -0.8283080346140927 2.586632966849181 2.98799998
v 0.8586906112638756 0.7808931962733116 2.98799998
v 1.0133808369343125 2.483352446917408 2.98799998
v -0.8283080346140927 2.586632966849181 2.98799998
v 1.0133808369343125 2.483352446917408 2.98799998
v 1.1976624808989387 4.189377619999999 2.98799998
v 1.1976624808989387 4.189377619999999 2.98799998
v -1.128160551186164 4.18937762 2.98799998
v -0.8283080346140927 2.586632966849181 2.98799998
v -2.8844923400000013 1.8343582776373482 2.98799998
v -0.7731021345378062 0.7553603271153065 2.98799998
v -1.3511788034287724 1.8292610041730968 2.98799998
v -0.7731021345378062 0.7553603271153065 2.98799998
v -2.8844923400000013 1.8343582776373482 2.98799998
v -2.884492340000001 -0.5409571816777428 2.98799998
v -0.7731021345378062 0.7553603271153065 2.98799998
v -2.884492340000001 -0.5409571816777428 2.98799998
v -1.2842294232606317 -0.49316351018233495 2.98799998
v -2.884492340000001 4.189377619999999 2.98799998
v -0.8283080346140927 2.586632966849181 2.98799998
v -1.128160551186164 4.18937762 2.98799998
v -0.8283080346140927 2.586632966849181 2.98799998
v -2.884492340000001 4.189377619999999 2.98799998
v -2.8844923400000013 1.8343582776373482 2.98799998
v -0.8283080346140927 2.586632966849181 2.98799998
v -2.8844923400000013 1.8343582776373482 2.98799998
v -1.3511788034287724 1.8292610041730968 2.98799998
v -2.82349239 4.08237756 0.15
v -2.82349239 4.08237756 0.59500002
v -1.30349243 4.08237756 0.59500002
v -1.30349243 4.08237756 0.59500002
v -1.30349243 4.08237756 0.15
v -2.82349239 4.08237756 0.15
v -0.7634924 4.08237756 0.15
v -0.7634924 4.08237756 0.59500002
v 0.7565076000000001 4.08237756 0.59500002
v 0.7565076000000001 4.08237756 0.59500002
v 0.7565076000000001 4.08237756 0.15
v -0.7634924 4.08237756 0.15
v 1.26650758 4.08237756 0.15
v 1.26650758 4.08237756 0.59500002
v 2.78650763 4.08237756 0.59500002
v 2.78650763 4.08237756 0.59500002
v 2.78650763 4.08237756 0.15
v 1.26650758 4.08237756 0.15

usemtl Patch_1_Mat_CR2_concrete
f 3 2 1
f 6 5 4

usemtl Patch_2_Mat_CR2_windows
f 9 8 7
f 12 11 10

usemtl Patch_3_Mat_CR2_concrete
f 15 14 13
f 18 17 16

usemtl Patch_4_Mat_CR2_concrete
f 21 20 19
f 24 23 22

usemtl Patch_5_Mat_CR2_concrete
f 27 26 25
f 30 29 28

usemtl Patch_6_Mat_CR2_concrete
f 33 32 31
f 36 35 34

usemtl Patch_7_Mat_CR2_plaster
f 39 38 37
f 42 41 40

usemtl Patch_8_Mat_CR2_plaster
f 45 44 43
f 48 47 46
f 51 50 49

usemtl Patch_9_Mat_CR2_plaster
f 54 53 52
f 57 56 55
f 60 59 58

usemtl Patch_10_Mat_CR2_plaster
f 63 62 61
f 66 65 64

usemtl Patch_11_Mat_CR2_windows
f 69 68 67
f 72 71 70

usemtl Patch_12_Mat_CR2_windows
f 75 74 73
f 78 77 76

usemtl Patch_13_Mat_CR2_concrete
f 81 80 79
f 84 83 82

usemtl Patch_14_Mat_CR2_concrete
f 87 86 85
f 90 89 88

usemtl Patch_15_Mat_CR2_concrete
f 93 92 91
f 96 95 94

usemtl Patch_16_Mat_CR2_concrete
f 99 98 97
f 102 101 100

usemtl Patch_17_Mat_CR2_concrete
f 105 104 103
f 108 107 106

usemtl Patch_18_Mat_CR2_concrete
f 111 110 109
f 114 113 112
f 117 116 115
f 120 119 118
f 123 122 121
f 126 125 124
f 129 128 127
f 132 131 130
f 135 134 133
f 138 137 136
f 141 140 139
f 144 143 142

usemtl Patch_19_Mat_CR2_concrete
f 147 146 145
f 150 149 148
f 153 152 151
f 156 155 154
f 159 158 157

usemtl Patch_20_Mat_CR2_concrete
f 162 161 160
f 165 164 163
f 168 167 166
f 171 170 169
f 174 173 172
f 177 176 175

usemtl Patch_21_Mat_CR2_floor
f 180 179 178
f 183 182 181
f 186 185 184
f 189 188 187

usemtl Patch_22_Mat_CR2_floor
f 192 191 190
f 195 194 193
f 198 197 196

usemtl Patch_23_Mat_CR2_floor
f 201 200 199
f 204 203 202
f 207 206 205
f 210 209 208

usemtl Patch_24_Mat_CR2_floor
f 213 212 211
f 216 215 214
f 219 218 217
f 222 221 220
f 225 224 223

usemtl Patch_25_Mat_CR2_floor
f 228 227 226
f 231 230 229
f 234 233 232

usemtl Patch_26_Mat_CR2_floor
f 237 236 235
f 240 239 238
f 243 242 241

usemtl Patch_27_Mat_CR2_floor
f 246 245 244
f 249 248 247
f 252 251 250
f 255 254 253

usemtl Patch_28_Mat_CR2_floor
f 258 257 256
f 261 260 259
f 264 263 262
f 267 266 265
f 270 269 268

usemtl Patch_29_Mat_CR2_floor
f 273 272 271
f 276 275 274

usemtl Patch_30_Mat_CR2_floor
f 279 278 277
f 282 281 280
f 285 284 283
f 288 287 286

usemtl Patch_31_Mat_CR2_floor
f 291 290 289
f 294 293 292
f 297 296 295

usemtl Patch_32_Mat_CR2_floor
f 300 299 298
f 303 302 301

usemtl Patch_33_Mat_CR2_concrete
f 306 305 304
f 309 308 307

usemtl Patch_34_Mat_CR2_concrete
f 312 311 310
f 315 314 313
f 318 317 316
f 321 320 319

usemtl Patch_35_Mat_CR2_concrete
f 324 323 322
f 327 326 325

usemtl Patch_36_Mat_CR2_concrete
f 330 329 328
f 333 332 331

usemtl Patch_37_Mat_CR2_concrete
f 336 335 334
f 339 338 337

usemtl Patch_38_Mat_CR2_plaster
f 342 341 340
f 345 344 343
f 348 347 346

usemtl Patch_39_Mat_CR2_plaster
f 351 350 349
f 354 353 352
f 357 356 355

usemtl Patch_40_Mat_CR2_plaster
f 360 359 358
f 363 362 361

usemtl Patch_41_Mat_CR2_plaster
f 366 365 364
f 369 368 367
f 372 371 370

usemtl Patch_42_Mat_CR2_plaster
f 375 374 373
f 378 377 376
f 381 380 379
f 384 383 382

usemtl Patch_43_Mat_CR2_plaster
f 387 386 385
f 390 389 388

usemtl Patch_44_Mat_CR2_plaster
f 393 392 391
f 396 395 394

usemtl Patch_45_Mat_CR2_plaster
f 399 398 397

usemtl Patch_46_Mat_CR2_ceiling
f 402 401 400
f 405 404 403
f 408 407 406
f 411 410 409
f 414 413 412

usemtl Patch_47_Mat_CR2_ceiling
f 417 416 415
f 420 419 418
f 423 422 421
f 426 425 424
f 429 428 427

usemtl Patch_48_Mat_CR2_ceiling
f 432 431 430
f 435 434 433
f 438 437 436
f 441 440 439

usemtl Patch_49_Mat_CR2_ceiling
f 444 443 442
f 447 446 445
f 450 449 448
f 453 452 451

usemtl Patch_50_Mat_CR2_ceiling
f 456 455 454
f 459 458 457
f 462 461 460

usemtl Patch_51_Mat_CR2_ceiling
f 465 464 463
f 468 467 466
f 471 470 469
f 474 473 472

usemtl Patch_52_Mat_CR2_ceiling
f 477 476 475
f 480 479 478
f 483 482 481

usemtl Patch_53_Mat_CR2_ceiling
f 486 485 484
f 489 488 487
f 492 491 490

usemtl Patch_54_Mat_CR2_ceiling
f 495 494 493
f 498 497 496
f 501 500 499
f 504 503 502

usemtl Patch_55_Mat_CR2_ceiling
f 507 506 505
f 510 509 508

usemtl Patch_56_Mat_CR2_ceiling
f 513 512 511
f 516 515 514
f 519 518 517

usemtl Patch_57_Mat_CR2_ceiling
f 522 521 520
f 525 524 523
f 528 527 526

usemtl Patch_58_Mat_CR2_concrete
f 531 530 529
f 534 533 532

usemtl Patch_59_Mat_CR2_concrete
f 537 536 535
f 540 539 538

usemtl Patch_60_Mat_CR2_concrete
f 543 542 541
f 546 545 544

