mtllib mesh.mtl

# obj1
v 6.1017380200 -3.9059999500 2.7360000500
v 0.5707378400 -6.1599999700 2.7360000500
v 0.5707378400 -3.9059999500 2.7360000500
v 6.1017380200 -6.1599999700 2.7360000500
usemtl Patch_1_Mat_CR1_paintedConcrete
f 1 2 3
f 2 1 4

# obj2
v 0.5707378400 0.9300000200 2.7360000500
v 6.1017380200 0.9300000200 2.2760000300
v 0.5707378400 0.9300000200 2.2760000300
v 6.1017380200 0.9300000200 2.7360000500
usemtl Patch_2_Mat_CR1_paintedConcrete
f 5 6 7
f 6 5 8

# obj3
v 6.1017380200 0.9300000200 2.2760000300
v 0.5707378400 0.4990000200 2.2760000300
v 0.5707378400 0.9300000200 2.2760000300
v 6.1017380200 0.4990000200 2.2760000300
usemtl Patch_3_Mat_CR1_paintedConcrete
f 9 10 11
f 10 9 12

# obj4
v 6.1017380200 0.4990000200 2.7360000500
v 0.5707378400 0.4990000200 2.2760000300
v 6.1017380200 0.4990000200 2.2760000300
v 0.5707378400 0.4990000200 2.7360000500
usemtl Patch_4_Mat_CR1_paintedConcrete
f 13 14 15
f 14 13 16

# obj5
v 6.1017380200 1.9029999300 2.7360000500
v 0.5707378400 0.9300000200 2.7360000500
v 0.5707378400 2.4109999300 2.7360000500
v 6.1017380200 0.9300000200 2.7360000500
usemtl Patch_5_Mat_CR1_paintedConcrete
f 17 18 19
f 18 17 20

# obj6
v 0.5707378400 -3.4830001900 2.7360000500
v 6.1017380200 -3.4830001900 2.2760000300
v 0.5707378400 -3.4830001900 2.2760000300
v 6.1017380200 -3.4830001900 2.7360000500
usemtl Patch_6_Mat_CR1_paintedConcrete
f 21 22 23
f 22 21 24

# obj7
v 6.1017380200 -3.4830001900 2.2760000300
v 0.5707378400 -3.9059999500 2.2760000300
v 0.5707378400 -3.4830001900 2.2760000300
v 6.1017380200 -3.9059999500 2.2760000300
usemtl Patch_7_Mat_CR1_paintedConcrete
f 25 26 27
f 26 25 28

# obj8
v 6.1017380200 -3.9059999500 2.7360000500
v 0.5707378400 -3.9059999500 2.2760000300
v 6.1017380200 -3.9059999500 2.2760000300
v 0.5707378400 -3.9059999500 2.7360000500
usemtl Patch_8_Mat_CR1_paintedConcrete
f 29 30 31
f 30 29 32

# obj9
v 6.1017380200 0.4990000200 2.7360000500
v 0.5707378400 -3.4830001900 2.7360000500
v 0.5707378400 0.4990000200 2.7360000500
v 6.1017380200 -3.4830001900 2.7360000500
usemtl Patch_9_Mat_CR1_paintedConcrete
f 33 34 35
f 34 33 36

# obj10
v -4.4223118500 2.0587958500 0.0000000000
v -4.4160428500 2.8805375500 -0.0000000000
v -4.5101181200 1.9854677600 -0.0000000000
v -3.5562864200 2.5587957500 0.0000000000
v -6.1311889400 2.1558492200 -0.0000000000
v -5.3182575500 1.6070335900 0.0000000000
v -5.4419003900 1.4788138000 0.0000000000
v -5.4419003900 -0.0911861800 0.0000000000
v -5.3419006800 1.4788138000 0.0000000000
v -4.3891251200 1.9767803100 0.0000000000
v -4.3723118000 1.9721931900 0.0000000000
v -4.3521502400 1.8838671800 0.0000000000
v -3.5087416400 2.4707759300 0.0000000000
v -3.5087416400 2.4619983700 0.0000000000
v -6.1516830400 -3.0531010500 0.0000000000
v -4.5216829200 -3.0531010500 0.0000000000
v -5.3419006800 -0.0911861800 0.0000000000
v -5.2812826800 1.5141203700 0.0000000000
v -2.8027147800 -2.7983574900 0.0000000000
v -2.5087414400 2.4619983700 0.0000000000
v -2.8027147800 -3.6133573500 0.0000000000
v -0.9127148300 -2.7983574900 0.0000000000
v -2.5087414400 2.5619982700 0.0000000000
v -2.4695942200 2.4638451500 0.0000000000
v -1.8636058200 1.6683718100 0.0000000000
v -1.7840585400 1.7289706300 0.0000000000
v -1.7412999100 1.7145899200 0.0000000000
v -0.9127148300 -1.9833576200 0.0000000000
v -0.1154714600 1.5980490700 0.0000000000
v -0.0127148500 -1.9833576200 0.0000000000
v -0.0511237700 2.4957457200 0.0000000000
v -6.2512622300 -3.6479998100 0.0000000000
v -6.1516830400 -3.6231009400 0.0000000000
v -6.2512622300 -2.1870000400 0.0000000000
v -0.0002621400 -3.6479998100 0.0000000000
v -6.2512622300 -1.1499999600 0.0000000000
v -6.2512622300 3.0939999100 0.0000000000
v -4.5216829200 -3.6231009400 0.0000000000
v -0.0127148500 -3.6133573500 0.0000000000
v -6.0371132800 3.0509188100 -0.0000000000
v -0.0002621400 2.5230000700 0.0000000000
v -1.6769522900 2.6122866700 0.0000000000
v -3.5087416400 2.5619982700 0.0000000000
v -3.5087416400 2.4707759300 0.0000000000
v -2.3900469400 2.5244441700 0.0000000000
usemtl Patch_10_Mat_CR1_concrete
f 37 38 39
f 38 37 40
f 41 42 39
f 42 41 43
f 43 41 44
f 42 43 45
f 39 42 46
f 39 46 37
f 37 46 47
f 47 46 48
f 47 48 49
f 49 48 50
f 51 44 41
f 44 51 52
f 44 52 53
f 53 52 45
f 45 52 42
f 42 52 54
f 54 52 48
f 50 55 56
f 55 50 57
f 56 55 58
f 56 58 59
f 59 58 60
f 60 58 61
f 61 58 62
f 62 58 63
f 63 58 64
f 63 64 65
f 65 64 66
f 65 66 67
f 68 69 70
f 69 68 71
f 70 69 72
f 72 69 73
f 69 71 74
f 74 71 57
f 74 57 52
f 52 57 48
f 48 57 50
f 57 71 75
f 75 71 66
f 73 76 77
f 76 73 41
f 41 73 51
f 51 73 69
f 77 76 38
f 77 38 78
f 78 38 79
f 79 38 40
f 79 40 80
f 78 79 59
f 78 59 81
f 81 59 60
f 78 81 62
f 78 62 63
f 77 78 67
f 77 67 66
f 77 66 71

# obj11
v -6.2512622300 -3.6479998100 2.7680000400
v -0.0002621400 -3.6479998100 0.0000000000
v -6.2512622300 -3.6479998100 0.0000000000
v -0.0002621400 -3.6479998100 2.7680000400
usemtl Patch_11_Mat_CR1_concrete
f 82 83 84
f 83 82 85

# obj12
v -0.0002621400 2.5230000700 2.7680000400
v -6.2512622300 0.9300000200 2.7680000400
v -6.2512622300 3.0939999100 2.7680000400
v -0.0002621400 0.9300000200 2.7680000400
usemtl Patch_12_Mat_CR1_concrete
f 86 87 88
f 87 86 89

# obj13
v -6.2512622300 3.0939999100 0.0000000000
v -6.2512622300 -1.1499999600 2.0329999400
v -6.2512622300 -1.1499999600 0.0000000000
v -6.2512622300 0.4990000200 2.2760000300
v -6.2512622300 0.9300000200 2.2760000300
v -6.2512622300 0.9300000200 2.7680000400
v -6.2512622300 3.0939999100 2.7680000400
v -6.2512622300 -2.1870000400 0.0000000000
v -6.2512622300 -3.6479998100 2.7680000400
v -6.2512622300 -3.6479998100 0.0000000000
v -6.2512622300 -2.1870000400 2.0329999400
v -6.2512622300 0.4990000200 2.7680000400
usemtl Patch_13_Mat_CR1_concrete
f 90 91 92
f 91 90 93
f 93 90 94
f 94 90 95
f 95 90 96
f 97 98 99
f 98 97 100
f 98 100 101
f 101 100 91
f 101 91 93

# obj14
v -6.2512622300 -1.1499999600 0.0000000000
v -6.2512622300 -2.1870000400 2.0329999400
v -6.2512622300 -2.1870000400 0.0000000000
v -6.2512622300 -1.1499999600 2.0329999400
usemtl Patch_14_Mat_CR1_concrete
f 102 103 104
f 103 102 105

# obj15
v -0.0002621400 0.4990000200 2.7680000400
v -6.2512622300 0.4990000200 2.2760000300
v -0.0002621400 0.4990000200 2.2760000300
v -6.2512622300 0.4990000200 2.7680000400
usemtl Patch_15_Mat_CR1_concrete
f 106 107 108
f 107 106 109

# obj16
v -0.0002621400 0.9300000200 2.2760000300
v -6.2512622300 0.4990000200 2.2760000300
v -6.2512622300 0.9300000200 2.2760000300
v -0.0002621400 0.4990000200 2.2760000300
usemtl Patch_16_Mat_CR1_concrete
f 110 111 112
f 111 110 113

# obj17
v -6.2512622300 0.9300000200 2.2760000300
v -0.0002621400 0.9300000200 2.7680000400
v -0.0002621400 0.9300000200 2.2760000300
v -6.2512622300 0.9300000200 2.7680000400
usemtl Patch_17_Mat_CR1_concrete
f 114 115 116
f 115 114 117

# obj18
v -0.0002621400 0.4990000200 2.7680000400
v -6.2512622300 -3.6479998100 2.7680000400
v -6.2512622300 0.4990000200 2.7680000400
v -0.0002621400 -3.6479998100 2.7680000400
usemtl Patch_18_Mat_CR1_concrete
f 118 119 120
f 119 118 121

# obj19
v -0.0002621400 2.5230000700 2.7680000400
v -6.2512622300 3.0939999100 0.0000000000
v -0.0002621400 2.5230000700 0.0000000000
v -6.2512622300 3.0939999100 2.7680000400
usemtl Patch_19_Mat_CR1_concrete
f 122 123 124
f 123 122 125

# obj20
v -0.0002621400 -3.6479998100 2.7680000400
v -0.0002621400 -1.4879999700 2.1930000600
v -0.0002621400 -3.6479998100 0.0000000000
v -0.0002621400 0.4990000200 2.7680000400
v -0.0002621400 -0.0120000000 2.1949999300
v -0.0002621400 -0.0120000000 0.0500000000
v -0.0002621400 2.5230000700 2.7680000400
v -0.0002621400 0.9300000200 2.2760000300
v -0.0002621400 0.9300000200 2.7680000400
v -0.0002621400 -1.4879999700 0.0500000000
v -0.0002621400 2.5230000700 0.0000000000
v -0.0002621400 0.4990000200 2.2760000300
usemtl Patch_20_Mat_CR1_concrete
f 126 127 128
f 127 126 129
f 127 129 130
f 130 129 131
f 132 133 134
f 128 135 136
f 135 128 127
f 136 135 131
f 136 131 137
f 137 131 129
f 136 137 133
f 136 133 132

# obj21
v 6.1017380200 1.9029999300 2.7360000500
v 0.5707378400 2.4109999300 0.0500000000
v 6.1017380200 1.9029999300 0.0500000000
v 0.5707378400 2.4109999300 2.7360000500
usemtl Patch_21_Mat_CR1_paintedConcrete
f 138 139 140
f 139 138 141

# obj22
v 6.1017380200 1.9029999300 2.7360000500
v 6.1017380200 0.9300000200 2.2760000300
v 6.1017380200 0.9300000200 2.7360000500
v 6.1017380200 -3.9059999500 2.7360000500
v 6.1017380200 -6.1599999700 0.0500000000
v 6.1017380200 -6.1599999700 2.7360000500
v 6.1017380200 -3.9059999500 2.2760000300
v 6.1017380200 1.9029999300 0.0500000000
v 6.1017380200 -3.4830001900 2.2760000300
v 6.1017380200 -3.4830001900 2.7360000500
v 6.1017380200 0.4990000200 2.2760000300
v 6.1017380200 0.4990000200 2.7360000500
usemtl Patch_22_Mat_CR1_paintedConcrete
f 142 143 144
f 145 146 147
f 146 145 148
f 146 148 149
f 149 148 150
f 149 150 151
f 149 151 152
f 152 151 153
f 149 152 143
f 149 143 142

# obj23
v 0.5707378400 -6.1599999700 2.7360000500
v 6.1017380200 -6.1599999700 0.0500000000
v 0.5707378400 -6.1599999700 0.0500000000
v 6.1017380200 -6.1599999700 2.7360000500
usemtl Patch_23_Mat_CR1_paintedConcrete
f 154 155 156
f 155 154 157

# obj24
v 0.5707378400 -0.0120000000 2.1949999300
v -0.0002621400 -1.4879999700 2.1930000600
v -0.0002621400 -0.0120000000 2.1949999300
v 0.5705960800 -0.0130122400 2.1949995500
v 0.5707378400 -1.4879999700 2.1930000600
v 0.5707378400 -0.0143842600 2.1949976100
usemtl Patch_24_Mat_CR1_concrete
f 158 159 160
f 159 158 161
f 161 162 159
f 162 161 163

# obj25
v 0.5707378400 -0.0120000000 2.1949999300
v 0.5705547100 -0.0120000000 0.0500000000
v 0.5707378400 -0.0120000000 0.0500000000
v -0.0002621400 -0.0120000000 2.1949999300
v -0.0002621400 -0.0120000000 0.0500000000
usemtl Patch_25_Mat_CR1_concrete
f 164 165 166
f 165 167 168
f 167 165 164

# obj26
v -0.0002621400 -1.4879999700 2.1930000600
v 0.5707378400 -1.4879999700 0.0500000000
v -0.0002621400 -1.4879999700 0.0500000000
v 0.5707378400 -1.4879999700 2.1930000600
usemtl Patch_26_Mat_CR1_concrete
f 169 170 171
f 170 169 172

# obj27
v 0.5707378400 -0.1502603500 0.0500000000
v 0.5230718000 -0.0690155700 0.0500000000
v 0.5707378400 -0.0410500700 0.0500000000
usemtl Patch_27_Mat_CR1_concrete
f 173 174 175

# obj28
v -4.5101181200 1.9854677600 1.1000000100
v -6.0371132800 3.0509188100 1.1000000100
v -6.1311889400 2.1558492200 1.1000000100
v -4.4160428500 2.8805375500 1.1000000100
usemtl Patch_28_Mat_CR1_tablesEquipment
f 176 177 178
f 177 176 179

# obj29
v -6.0371132800 3.0509188100 1.1000000100
v -4.4160428500 2.8805375500 -0.0000000000
v -6.0371132800 3.0509188100 -0.0000000000
v -4.4160428500 2.8805375500 1.1000000100
usemtl Patch_29_Mat_CR1_tablesEquipment
f 180 181 182
f 181 180 183

# obj30
v -4.4160428500 2.8805375500 -0.0000000000
v -4.5101181200 1.9854677600 1.1000000100
v -4.5101181200 1.9854677600 -0.0000000000
v -4.4160428500 2.8805375500 1.1000000100
usemtl Patch_30_Mat_CR1_tablesEquipment
f 184 185 186
f 185 184 187

# obj31
v -4.5101181200 1.9854677600 1.1000000100
v -6.1311889400 2.1558492200 -0.0000000000
v -4.5101181200 1.9854677600 -0.0000000000
v -6.1311889400 2.1558492200 1.1000000100
usemtl Patch_31_Mat_CR1_tablesEquipment
f 188 189 190
f 189 188 191

# obj32
v -6.0371132800 3.0509188100 1.1000000100
v -6.1311889400 2.1558492200 -0.0000000000
v -6.1311889400 2.1558492200 1.1000000100
v -6.0371132800 3.0509188100 -0.0000000000
usemtl Patch_32_Mat_CR1_tablesEquipment
f 192 193 194
f 193 192 195

# obj33
v -4.5216829200 -3.6231009400 1.1000000100
v -6.1516830400 -3.6231009400 0.0000000000
v -4.5216829200 -3.6231009400 0.0000000000
v -6.1516830400 -3.6231009400 1.1000000100
usemtl Patch_33_Mat_CR1_tablesEquipment
f 196 197 198
f 197 196 199

# obj34
v -6.1516830400 -3.0531010500 1.1000000100
v -4.5216829200 -3.0531010500 0.0000000000
v -6.1516830400 -3.0531010500 0.0000000000
v -4.5216829200 -3.0531010500 1.1000000100
usemtl Patch_34_Mat_CR1_tablesEquipment
f 200 201 202
f 201 200 203

# obj35
v -4.5216829200 -3.6231009400 1.1000000100
v -6.1516830400 -3.0531010500 1.1000000100
v -6.1516830400 -3.6231009400 1.1000000100
v -4.5216829200 -3.0531010500 1.1000000100
usemtl Patch_35_Mat_CR1_tablesEquipment
f 204 205 206
f 205 204 207

# obj36
v -4.5216829200 -3.0531010500 0.0000000000
v -4.5216829200 -3.6231009400 1.1000000100
v -4.5216829200 -3.6231009400 0.0000000000
v -4.5216829200 -3.0531010500 1.1000000100
usemtl Patch_36_Mat_CR1_tablesEquipment
f 208 209 210
f 209 208 211

# obj37
v -6.1516830400 -3.0531010500 1.1000000100
v -6.1516830400 -3.6231009400 0.0000000000
v -6.1516830400 -3.6231009400 1.1000000100
v -6.1516830400 -3.0531010500 0.0000000000
usemtl Patch_37_Mat_CR1_tablesEquipment
f 212 213 214
f 213 212 215

# obj38
v -0.0511237700 2.4957457200 0.0000000000
v -0.1154714600 1.5980490700 1.1000000100
v -0.1154714600 1.5980490700 0.0000000000
v -0.0511237700 2.4957457200 1.1000000100
usemtl Patch_38_Mat_CR1_tablesEquipment
f 216 217 218
f 217 216 219

# obj39
v -0.1154714600 1.5980490700 1.1000000100
v -1.6769522900 2.6122866700 1.1000000100
v -1.7412999100 1.7145899200 1.1000000100
v -0.0511237700 2.4957457200 1.1000000100
usemtl Patch_39_Mat_CR1_tablesEquipment
f 220 221 222
f 221 220 223

# obj40
v -1.6769522900 2.6122866700 1.1000000100
v -0.0511237700 2.4957457200 0.0000000000
v -1.6769522900 2.6122866700 0.0000000000
v -0.0511237700 2.4957457200 1.1000000100
usemtl Patch_40_Mat_CR1_tablesEquipment
f 224 225 226
f 225 224 227

# obj41
v -1.6769522900 2.6122866700 1.1000000100
v -1.7412999100 1.7145899200 0.0000000000
v -1.7412999100 1.7145899200 1.1000000100
v -1.6769522900 2.6122866700 0.0000000000
usemtl Patch_41_Mat_CR1_tablesEquipment
f 228 229 230
f 229 228 231

# obj42
v -0.0127148500 -1.9833576200 0.0000000000
v -0.0127148500 -3.6133573500 1.1000000100
v -0.0127148500 -3.6133573500 0.0000000000
v -0.0127148500 -1.9833576200 1.1000000100
usemtl Patch_42_Mat_CR1_tablesEquipment
f 232 233 234
f 233 232 235

# obj43
v -0.9127148300 -1.9833576200 1.1000000100
v -0.0127148500 -1.9833576200 0.0000000000
v -0.9127148300 -1.9833576200 0.0000000000
v -0.0127148500 -1.9833576200 1.1000000100
usemtl Patch_43_Mat_CR1_tablesEquipment
f 236 237 238
f 237 236 239

# obj44
v -0.0127148500 -3.6133573500 1.1000000100
v -2.8027147800 -2.7983574900 1.1000000100
v -2.8027147800 -3.6133573500 1.1000000100
v -0.9127148300 -2.7983574900 1.1000000100
v -0.9127148300 -1.9833576200 1.1000000100
v -0.0127148500 -1.9833576200 1.1000000100
usemtl Patch_44_Mat_CR1_tablesEquipment
f 240 241 242
f 241 240 243
f 243 240 244
f 244 240 245

# obj45
v -0.0127148500 -3.6133573500 1.1000000100
v -2.8027147800 -3.6133573500 0.0000000000
v -0.0127148500 -3.6133573500 0.0000000000
v -2.8027147800 -3.6133573500 1.1000000100
usemtl Patch_45_Mat_CR1_tablesEquipment
f 246 247 248
f 247 246 249

# obj46
v -5.4419003900 1.4788138000 1.0000000100
v -5.4419003900 -0.0911861800 0.0000000000
v -5.4419003900 -0.0911861800 1.0000000100
v -5.4419003900 1.4788138000 0.0000000000
usemtl Patch_46_Mat_CR1_absorber
f 250 251 252
f 251 250 253

# obj47
v -5.3419006800 -0.0911861800 1.0000000100
v -5.4419003900 -0.0911861800 0.0000000000
v -5.3419006800 -0.0911861800 0.0000000000
v -5.4419003900 -0.0911861800 1.0000000100
usemtl Patch_47_Mat_CR1_absorber
f 254 255 256
f 255 254 257

# obj48
v -5.3419006800 -0.0911861800 1.0000000100
v -5.4419003900 1.4788138000 1.0000000100
v -5.4419003900 -0.0911861800 1.0000000100
v -5.3419006800 1.4788138000 1.0000000100
usemtl Patch_48_Mat_CR1_absorber
f 258 259 260
f 259 258 261

# obj49
v -5.3419006800 1.4788138000 0.0000000000
v -5.3419006800 -0.0911861800 1.0000000100
v -5.3419006800 -0.0911861800 0.0000000000
v -5.3419006800 1.4788138000 1.0000000100
usemtl Patch_49_Mat_CR1_absorber
f 262 263 264
f 263 262 265

# obj50
v -5.4419003900 1.4788138000 1.0000000100
v -5.3419006800 1.4788138000 0.0000000000
v -5.4419003900 1.4788138000 0.0000000000
v -5.3419006800 1.4788138000 1.0000000100
usemtl Patch_50_Mat_CR1_absorber
f 266 267 268
f 267 266 269

# obj51
v -3.5087416400 2.4707759300 0.0000000000
v -3.5087416400 2.4707759300 1.0000000100
v -3.5087416400 2.4707759300 0.0000000000
v -3.5087416400 2.4707759300 1.0000000100
v -3.5562864200 2.5587957500 0.0000000000
v -3.5562864200 2.5587957500 1.0000000100
usemtl Patch_51_Mat_CR1_absorber
f 273 270 274
f 273 274 275

# obj52
v -3.5087416400 2.4707759300 1.0000000100
v -3.5087416400 2.4707759300 0.0000000000
v -3.5087416400 2.4707759300 0.0000000000
v -4.3723118000 1.9721931900 0.0000000000
v -3.5087416400 2.4707759300 1.0000000100
v -4.3723118000 1.9721931900 1.0000000100
usemtl Patch_52_Mat_CR1_absorber
f 277 276 279
f 281 279 280

# obj53
v -4.3723118000 1.9721931900 1.0000000100
v -3.5562864200 2.5587957500 1.0000000100
v -4.4223118500 2.0587958500 1.0000000100
v -3.5087416400 2.4707759300 1.0000000100
v -3.5087416400 2.4707759300 1.0000000100
usemtl Patch_53_Mat_CR1_absorber
f 282 283 284
f 283 282 285

# obj54
v -4.4223118500 2.0587958500 1.0000000100
v -4.3723118000 1.9721931900 0.0000000000
v -4.3723118000 1.9721931900 1.0000000100
v -4.4223118500 2.0587958500 0.0000000000
usemtl Patch_54_Mat_CR1_absorber
f 287 288 289
f 288 287 290

# obj55
v -4.4223118500 2.0587958500 1.0000000100
v -3.5562864200 2.5587957500 0.0000000000
v -4.4223118500 2.0587958500 0.0000000000
v -3.5562864200 2.5587957500 1.0000000100
usemtl Patch_55_Mat_CR1_absorber
f 291 292 293
f 292 291 294

# obj56
v -3.5087416400 2.4707759300 1.0000000100
v -3.5087416400 2.4707759300 1.0000000100
v -3.5087416400 2.4707759300 1.0000000100

# obj57
v -2.5087414400 2.5619982700 0.0000000000
v -2.5087414400 2.4619983700 1.0000000100
v -2.5087414400 2.4619983700 0.0000000000
v -2.5087414400 2.5619982700 1.0000000100
usemtl Patch_56_Mat_CR1_absorber
f 298 299 300
f 299 298 301

# obj58
v -3.5087416400 2.5619982700 1.0000000100
v -2.5087414400 2.5619982700 0.0000000000
v -3.5087416400 2.5619982700 0.0000000000
v -2.5087414400 2.5619982700 1.0000000100
usemtl Patch_57_Mat_CR1_absorber
f 302 303 304
f 303 302 305

# obj59
v -3.5087416400 2.4707759300 1.0000000100
v -3.5087416400 2.4619983700 0.0000000000
v -3.5087416400 2.4619983700 1.0000000100
v -3.5087416400 2.4707759300 0.0000000000
v -3.5087416400 2.4707759300 1.0000000100
v -3.5087416400 2.4707759300 0.0000000000
v -3.5087416400 2.5619982700 1.0000000100
v -3.5087416400 2.5619982700 0.0000000000
usemtl Patch_58_Mat_CR1_absorber
f 306 307 308
f 307 306 309
f 311 310 312
f 311 312 313

# obj60
v -2.5087414400 2.4619983700 1.0000000100
v -3.5087416400 2.4619983700 0.0000000000
v -2.5087414400 2.4619983700 0.0000000000
v -3.5087416400 2.4619983700 1.0000000100
usemtl Patch_59_Mat_CR1_absorber
f 314 315 316
f 315 314 317

# obj61
v -2.5087414400 2.4619983700 1.0000000100
v -3.5087416400 2.4707759300 1.0000000100
v -3.5087416400 2.4619983700 1.0000000100
v -3.5087416400 2.4707759300 1.0000000100
v -3.5087416400 2.5619982700 1.0000000100
v -3.5087416400 2.4707759300 1.0000000100
v -2.5087414400 2.5619982700 1.0000000100
usemtl Patch_60_Mat_CR1_absorber
f 318 319 320
f 322 321 324
f 324 321 318

# obj62
v -3.5087416400 2.4707759300 0.0000000000
v -3.5087416400 2.4707759300 0.0000000000
v -3.5087416400 2.4707759300 0.0000000000

# obj63
v -1.8636058200 1.6683718100 1.0000000100
v -2.3900469400 2.5244441700 1.0000000100
v -2.4695942200 2.4638451500 1.0000000100
v -1.7840585400 1.7289706300 1.0000000100
usemtl Patch_61_Mat_CR1_absorber
f 328 329 330
f 329 328 331

# obj64
v -2.3900469400 2.5244441700 0.0000000000
v -1.7840585400 1.7289706300 1.0000000100
v -1.7840585400 1.7289706300 0.0000000000
v -2.3900469400 2.5244441700 1.0000000100
usemtl Patch_62_Mat_CR1_absorber
f 332 333 334
f 333 332 335

# obj65
v -2.4695942200 2.4638451500 1.0000000100
v -1.8636058200 1.6683718100 0.0000000000
v -1.8636058200 1.6683718100 1.0000000100
v -2.4695942200 2.4638451500 0.0000000000
usemtl Patch_63_Mat_CR1_absorber
f 336 337 338
f 337 336 339

# obj66
v -2.4695942200 2.4638451500 1.0000000100
v -2.3900469400 2.5244441700 0.0000000000
v -2.4695942200 2.4638451500 0.0000000000
v -2.3900469400 2.5244441700 1.0000000100
usemtl Patch_64_Mat_CR1_absorber
f 340 341 342
f 341 340 343

# obj67
v -1.7840585400 1.7289706300 1.0000000100
v -1.8636058200 1.6683718100 0.0000000000
v -1.7840585400 1.7289706300 0.0000000000
v -1.8636058200 1.6683718100 1.0000000100
usemtl Patch_65_Mat_CR1_absorber
f 344 345 346
f 345 344 347

# obj68
v -5.2812826800 1.5141203700 1.0000000100
v -4.3891251200 1.9767803100 1.0000000100
v -5.3182575500 1.6070335900 1.0000000100
v -4.3521502400 1.8838671800 1.0000000100
usemtl Patch_66_Mat_CR1_absorber
f 348 349 350
f 349 348 351

# obj69
v -4.3521502400 1.8838671800 1.0000000100
v -5.2812826800 1.5141203700 0.0000000000
v -4.3521502400 1.8838671800 0.0000000000
v -5.2812826800 1.5141203700 1.0000000100
usemtl Patch_67_Mat_CR1_absorber
f 352 353 354
f 353 352 355

# obj70
v -5.3182575500 1.6070335900 1.0000000100
v -5.2812826800 1.5141203700 0.0000000000
v -5.2812826800 1.5141203700 1.0000000100
v -5.3182575500 1.6070335900 0.0000000000
usemtl Patch_68_Mat_CR1_absorber
f 356 357 358
f 357 356 359

# obj71
v -5.3182575500 1.6070335900 1.0000000100
v -4.3891251200 1.9767803100 0.0000000000
v -5.3182575500 1.6070335900 0.0000000000
v -4.3891251200 1.9767803100 1.0000000100
usemtl Patch_69_Mat_CR1_absorber
f 360 361 362
f 361 360 363

# obj72
v -4.3891251200 1.9767803100 0.0000000000
v -4.3521502400 1.8838671800 1.0000000100
v -4.3521502400 1.8838671800 0.0000000000
v -4.3891251200 1.9767803100 1.0000000100
usemtl Patch_70_Mat_CR1_absorber
f 364 365 366
f 365 364 367

# obj73
v -0.9127148300 -1.9833576200 1.1000000100
v -0.9127148300 -2.7983574900 0.0000000000
v -0.9127148300 -2.7983574900 1.1000000100
v -0.9127148300 -1.9833576200 0.0000000000
usemtl Patch_71_Mat_CR1_tablesEquipment
f 368 369 370
f 369 368 371

# obj74
v -2.8027147800 -2.7983574900 1.1000000100
v -2.8027147800 -3.6133573500 0.0000000000
v -2.8027147800 -3.6133573500 1.1000000100
v -2.8027147800 -2.7983574900 0.0000000000
usemtl Patch_72_Mat_CR1_tablesEquipment
f 372 373 374
f 373 372 375

# obj75
v -2.8027147800 -2.7983574900 1.1000000100
v -0.9127148300 -2.7983574900 0.0000000000
v -2.8027147800 -2.7983574900 0.0000000000
v -0.9127148300 -2.7983574900 1.1000000100
usemtl Patch_73_Mat_CR1_tablesEquipment
f 376 377 378
f 377 376 379

# obj76
v 0.5707378400 2.4109999300 0.0500000000
v 0.5707378400 0.4990000200 2.2760000300
v 0.5707378400 0.0426116600 0.0500000000
v 0.5707378400 0.9300000200 2.2760000300
v 0.5707378400 0.9300000200 2.7360000500
v 0.5707378400 2.4109999300 2.7360000500
v 0.5707378400 -0.0120000000 2.1949999300
v 0.5707378400 -0.0120000000 0.0500000000
v 0.5707378400 0.4990000200 2.7360000500
usemtl Patch_74_Mat_CR1_paintedConcrete
f 380 381 382
f 381 380 383
f 383 380 384
f 384 380 385
f 382 386 387
f 386 382 388
f 388 382 381

# obj77
v 0.5707378400 -1.4879999700 0.0500000000
v 0.5707378400 -6.1599999700 2.7360000500
v 0.5707378400 -6.1599999700 0.0500000000
v 0.5707378400 -3.9059999500 2.2760000300
v 0.5707378400 -3.4830001900 2.2760000300
v 0.5707378400 -3.4830001900 2.7360000500
v 0.5707378400 -1.4879999700 2.1930000600
v 0.5707378400 0.4990000200 2.7360000500
v 0.5707378400 -0.0143842600 2.1949976100
v 0.5707378400 -3.9059999500 2.7360000500
usemtl Patch_75_Mat_CR1_paintedConcrete
f 389 390 391
f 390 389 392
f 392 389 393
f 393 389 394
f 394 389 395
f 394 395 396
f 396 395 397
f 398 390 392

# obj78
v 0.5707378400 0.4990000200 2.7360000500
v 0.5707378400 -0.0143842600 2.1949976100
v 0.5705960800 -0.0130122400 2.1949995500
usemtl Patch_76_Mat_CR1_paintedConcrete
f 399 400 401

# obj79
v 0.5707378400 0.4990000200 2.7360000500
v 0.5705960800 -0.0130122400 2.1949995500
v 0.5707378400 -0.0120000000 2.1949999300
usemtl Patch_77_Mat_CR1_paintedConcrete
f 402 403 404

# obj80
v 0.5715254800 -0.1516028100 0.0500002200
v 0.5707378400 -0.1502603500 0.0500000000
v 0.5707378400 -1.4879999700 0.0500000000
usemtl Patch_78_Mat_CR1_paintedConcrete
f 405 406 407

# obj81
v 0.5230718000 -0.0690155700 2.1900000500
v 0.5707378400 -0.0410500700 0.0500000000
v 0.5230718000 -0.0690155700 0.0500000000
v 0.5715909300 -0.0405495700 0.0500002400
v 0.5832808200 -0.0336911500 0.0500000000
v 0.5877603400 -0.0310630300 2.1900000500
v 0.5877603400 -0.0310630300 0.0500000000
usemtl Patch_79_Mat_CR1_tablesEquipment
f 408 409 410
f 409 408 411
f 412 413 414
f 413 412 411
f 413 411 408

# obj82
v 0.5726411600 0.0437283100 0.0500000000
v 1.3671141300 -1.3104181700 2.2199999600
v 1.3671141300 -1.3104181700 0.0500000000
v 0.5726411600 0.0437283100 2.2199999600
usemtl Patch_80_Mat_CR1_paintedConcrete
f 415 416 417
f 416 415 418

# obj83
v 0.5467657500 0.0285473000 0.0500000000
v 0.5726411600 0.0437283100 0.0500000000
v 0.5707378400 0.0426116600 0.0500000000
v 0.5467657500 0.0285473000 2.2199999600
v 0.5726411600 0.0437283100 2.2199999600
usemtl Patch_81_Mat_CR1_paintedConcrete
f 419 420 421
f 420 419 422
f 420 422 423

# obj84
v 0.5230718000 -0.0690155700 2.1900000500
v 1.2467000700 -1.3024101300 0.0500000000
v 1.2467000700 -1.3024101300 2.1900000500
v 0.5715254800 -0.1516028100 0.0500002200
v 0.5707378400 -0.1502603500 0.0500000000
v 0.5230718000 -0.0690155700 0.0500000000
usemtl Patch_82_Mat_CR1_tablesEquipment
f 424 425 426
f 425 424 427
f 427 424 428
f 428 424 429

# obj85
v 1.3113886600 -1.2644576100 2.1900000500
v 1.3069090800 -1.2670857400 0.0500000000
v 1.3113886600 -1.2644576100 0.0500000000
v 1.2467000700 -1.3024101300 2.1900000500
v 1.2467000700 -1.3024101300 0.0500000000
usemtl Patch_83_Mat_CR1_tablesEquipment
f 430 431 432
f 431 433 434
f 433 431 430

# obj86
v 0.5467657500 0.0285473000 2.2199999600
v 1.3412387700 -1.3255991300 0.0500000000
v 1.3412387700 -1.3255991300 2.2199999600
v 1.3069090800 -1.2670857400 0.0500000000
v 0.5832808200 -0.0336911500 0.0500000000
v 0.5716066800 -0.0137930900 0.0500002500
v 0.5707378400 -0.0123121900 0.0500000000
v 0.5705547100 -0.0120000000 0.0500000000
v 0.5467657500 0.0285473000 0.0500000000
usemtl Patch_84_Mat_CR1_paintedConcrete
f 435 436 437
f 436 435 438
f 438 435 439
f 439 435 440
f 440 435 441
f 441 435 442
f 442 435 443

# obj87
v 1.2467000700 -1.3024101300 2.1900000500
v 0.5877603400 -0.0310630300 2.1900000500
v 0.5230718000 -0.0690155700 2.1900000500
v 1.3113886600 -1.2644576100 2.1900000500
usemtl Patch_85_Mat_CR1_tablesEquipment
f 444 445 446
f 445 444 447

# obj88
v 1.3671141300 -1.3104181700 2.2199999600
v 1.3412387700 -1.3255991300 0.0500000000
v 1.3671141300 -1.3104181700 0.0500000000
v 1.3412387700 -1.3255991300 2.2199999600
usemtl Patch_86_Mat_CR1_paintedConcrete
f 448 449 450
f 449 448 451

# obj89
v 1.3412387700 -1.3255991300 2.2199999600
v 0.5726411600 0.0437283100 2.2199999600
v 0.5467657500 0.0285473000 2.2199999600
v 1.3671141300 -1.3104181700 2.2199999600
usemtl Patch_87_Mat_CR1_paintedConcrete
f 452 453 454
f 453 452 455

# obj90
v 0.5707378400 0.0426116600 0.0500000000
v 0.5705547100 -0.0120000000 0.0500000000
v 0.5467657500 0.0285473000 0.0500000000
v 0.5707378400 -0.0120000000 0.0500000000
usemtl Patch_88_Mat_CR1_paintedConcrete
f 456 457 458
f 457 456 459

# obj91
v 0.5715254800 -0.1516028100 0.0500002200
v 0.5707378400 -0.0410500700 0.0500000000
v 0.5707378400 -0.1502603500 0.0500000000
v 0.5715909300 -0.0405495700 0.0500002400
usemtl Patch_89_Mat_CR1_tablesEquipment
f 460 461 462
f 461 460 463

# obj92
v 1.3412387700 -1.3255991300 0.0500000000
v 1.3113886600 -1.2644576100 0.0500000000
v 1.3069090800 -1.2670857400 0.0500000000
v 0.5716066800 -0.0137930900 0.0500002500
v 0.5707378400 -0.0120000000 0.0500000000
v 0.5707378400 -0.0123121900 0.0500000000
v 0.5707378400 0.0426116600 0.0500000000
v 0.5726411600 0.0437283100 0.0500000000
v 0.5832808200 -0.0336911500 0.0500000000
v 0.5877603400 -0.0310630300 0.0500000000
v 1.3671141300 -1.3104181700 0.0500000000
usemtl Patch_90_Mat_CR1_paintedConcrete
f 464 465 466
f 467 468 469
f 468 467 470
f 470 467 471
f 471 467 472
f 471 472 473
f 471 473 474
f 474 473 465
f 474 465 464

# obj93
v 1.2467000700 -1.3024101300 0.0500000000
v 0.5715909300 -0.0405495700 0.0500002400
v 0.5715254800 -0.1516028100 0.0500002200
v 0.5832808200 -0.0336911500 0.0500000000
v 1.3069090800 -1.2670857400 0.0500000000
usemtl Patch_91_Mat_CR1_tablesEquipment
f 475 476 477
f 476 475 478
f 478 475 479

# obj94
v 6.1017380200 -6.1599999700 0.0500000000
v 0.5707378400 -1.4879999700 0.0500000000
v 0.5707378400 -6.1599999700 0.0500000000
v 1.2467000700 -1.3024101300 0.0500000000
v 0.5715254800 -0.1516028100 0.0500002200
v 1.3412387700 -1.3255991300 0.0500000000
v 1.3069090800 -1.2670857400 0.0500000000
v 1.3671141300 -1.3104181700 0.0500000000
v 0.5726411600 0.0437283100 0.0500000000
v 0.5707378400 2.4109999300 0.0500000000
v 0.5707378400 0.0426116600 0.0500000000
v 6.1017380200 1.9029999300 0.0500000000
usemtl Patch_92_Mat_CR1_paintedConcrete
f 480 481 482
f 481 480 483
f 481 483 484
f 483 480 485
f 483 485 486
f 485 480 487
f 488 489 490
f 489 488 491
f 491 488 487
f 491 487 480

# obj95
v 0.5832808200 -0.0336911500 0.0500000000
v 0.5716066800 -0.0137930900 0.0500002500
v 0.5715909300 -0.0405495700 0.0500002400
usemtl Patch_93_Mat_CR1_paintedConcrete
f 492 493 494

# obj96
v 0.5707378400 -1.4879999700 0.0500000000
v -0.0002621400 -0.0120000000 0.0500000000
v -0.0002621400 -1.4879999700 0.0500000000
v 0.5230718000 -0.0690155700 0.0500000000
v 0.5707378400 -0.1502603500 0.0500000000
v 0.5705547100 -0.0120000000 0.0500000000
v 0.5707378400 -0.0410500700 0.0500000000
v 0.5707378400 -0.0123121900 0.0500000000
usemtl Patch_94_Mat_CR1_concrete
f 495 496 497
f 496 495 498
f 498 495 499
f 498 500 496
f 500 498 501
f 500 501 502

# obj97
v 0.5715909300 -0.0405495700 0.0500002400
v 0.5707378400 -0.0123121900 0.0500000000
v 0.5707378400 -0.0410500700 0.0500000000
v 0.5716066800 -0.0137930900 0.0500002500
usemtl Patch_95_Mat_CR1_paintedConcrete
f 503 504 505
f 504 503 506

# obj98
v 1.3069090800 -1.2670857400 0.0500000000
v 0.5877603400 -0.0310630300 0.0500000000
v 0.5832808200 -0.0336911500 0.0500000000
v 1.3113886600 -1.2644576100 0.0500000000
usemtl Patch_96_Mat_CR1_paintedConcrete
f 507 508 509
f 508 507 510

# obj99
v -0.1154714600 1.5980490700 1.1000000100
v -1.7412999100 1.7145899200 0.0000000000
v -0.1154714600 1.5980490700 0.0000000000
v -1.7412999100 1.7145899200 1.1000000100
usemtl Patch_97_Mat_CR1_tablesEquipment
f 511 512 513
f 512 511 514
