# File generated by ImageToStl.com - Free Image and 3D model conversion tools

mtllib CR1_DoorAngle3.mtl

o obj1
v 240.22590637 -153.77952576 107.71653748
v 22.46999359 -242.51968384 107.71653748
v 22.46999359 -153.77952576 107.71653748
v 240.22590637 -242.51968384 107.71653748
usemtl mat0
f 1 2 3
f 2 1 4
# Vertices: 4, normals: 0, texture coordinates: 0, faces: 2

o obj2
v 22.46999359 36.61417389 107.71653748
v 240.22590637 36.61417389 89.60630035
v 22.46999359 36.61417389 89.60630035
v 240.22590637 36.61417389 107.71653748
usemtl mat0
f 5 6 7
f 6 5 8
# Vertices: 4, normals: 0, texture coordinates: 0, faces: 2

o obj3
v 240.22590637 36.61417389 89.60630035
v 22.46999359 19.64566994 89.60630035
v 22.46999359 36.61417389 89.60630035
v 240.22590637 19.64566994 89.60630035
usemtl mat0
f 9 10 11
f 10 9 12
# Vertices: 4, normals: 0, texture coordinates: 0, faces: 2

o obj4
v 240.22590637 19.64566994 107.71653748
v 22.46999359 19.64566994 89.60630035
v 240.22590637 19.64566994 89.60630035
v 22.46999359 19.64566994 107.71653748
usemtl mat0
f 13 14 15
f 14 13 16
# Vertices: 4, normals: 0, texture coordinates: 0, faces: 2

o obj5
v 240.22590637 74.92125702 107.71653748
v 22.46999359 36.61417389 107.71653748
v 22.46999359 94.92125702 107.71653748
v 240.22590637 36.61417389 107.71653748
usemtl mat0
f 17 18 19
f 18 17 20
# Vertices: 4, normals: 0, texture coordinates: 0, faces: 2

o obj6
v 22.46999359 -137.12599182 107.71653748
v 240.22590637 -137.12599182 89.60630035
v 22.46999359 -137.12599182 89.60630035
v 240.22590637 -137.12599182 107.71653748
usemtl mat0
f 21 22 23
f 22 21 24
# Vertices: 4, normals: 0, texture coordinates: 0, faces: 2

o obj7
v 240.22590637 -137.12599182 89.60630035
v 22.46999359 -153.77952576 89.60630035
v 22.46999359 -137.12599182 89.60630035
v 240.22590637 -153.77952576 89.60630035
usemtl mat0
f 25 26 27
f 26 25 28
# Vertices: 4, normals: 0, texture coordinates: 0, faces: 2

o obj8
v 240.22590637 -153.77952576 107.71653748
v 22.46999359 -153.77952576 89.60630035
v 240.22590637 -153.77952576 89.60630035
v 22.46999359 -153.77952576 107.71653748
usemtl mat0
f 29 30 31
f 30 29 32
# Vertices: 4, normals: 0, texture coordinates: 0, faces: 2

o obj9
v 240.22590637 19.64566994 107.71653748
v 22.46999359 -137.12599182 107.71653748
v 22.46999359 19.64566994 107.71653748
v 240.22590637 -137.12599182 107.71653748
usemtl mat0
f 33 34 35
f 34 33 36
# Vertices: 4, normals: 0, texture coordinates: 0, faces: 2

o obj10
v -174.10676575 81.05495453 0
v -173.85995483 113.40699005 -0
v -177.56370544 78.16802216 -0
v -140.01127625 100.73999023 0
v -241.38539124 84.87595367 -0
v -209.38021851 63.26903915 0
v -214.24804688 58.22101593 0
v -214.24804688 -3.59000707 0
v -210.31105042 58.22101593 0
v -172.80020142 77.8259964 0
v -172.13825989 77.645401 0
v -171.34449768 74.16799927 0
v -138.13943481 97.27464294 0
v -138.13943481 96.92906952 0
v -242.19224548 -120.20082855 0
v -178.01901245 -120.20082855 0
v -210.31105042 -3.59000707 0
v -207.92451477 59.61103821 0
v -110.3431015 -110.17155457 0
v -98.76934814 96.92906952 0
v -110.3431015 -142.25816345 0
v -35.93365479 -110.17155457 0
v -98.76934814 100.86607361 0
v -97.2281189 97.00177765 0
v -73.37030792 65.68392944 0
v -70.23852539 68.06970978 0
v -68.55511475 67.50354004 0
v -35.93365479 -78.08494568 0
v -4.54612064 62.91531754 0
v -0.50058484 -78.08494568 0
v -2.01274681 98.25770569 0
v -246.11268616 -143.62203979 0
v -242.19224548 -142.64176941 0
v -246.11268616 -86.10236359 0
v -0.01032051 -143.62203979 0
v -246.11268616 -45.27558899 0
v -246.11268616 121.8110199 0
v -178.01901245 -142.64176941 0
v -0.50058484 -142.25816345 0
v -237.68162537 120.11491394 -0
v -0.01032051 99.33071136 0
v -66.02174377 102.84593201 0
v -138.13943481 100.86607361 0
v -138.13943481 97.27464294 0
v -94.09633636 99.38756561 0
usemtl mat1
f 37 38 39
f 38 37 40
f 41 42 39
f 42 41 43
f 43 41 44
f 42 43 45
f 39 42 46
f 39 46 37
f 37 46 47
f 47 46 48
f 47 48 49
f 49 48 50
f 51 44 41
f 44 51 52
f 44 52 53
f 53 52 45
f 45 52 42
f 42 52 54
f 54 52 48
f 50 55 56
f 55 50 57
f 56 55 58
f 56 58 59
f 59 58 60
f 60 58 61
f 61 58 62
f 62 58 63
f 63 58 64
f 63 64 65
f 65 64 66
f 65 66 67
f 68 69 70
f 69 68 71
f 70 69 72
f 72 69 73
f 69 71 74
f 74 71 57
f 74 57 52
f 52 57 48
f 48 57 50
f 57 71 75
f 75 71 66
f 73 76 77
f 76 73 41
f 41 73 51
f 51 73 69
f 77 76 38
f 77 38 78
f 78 38 79
f 79 38 40
f 79 40 80
f 78 79 59
f 78 59 81
f 81 59 60
f 78 81 62
f 78 62 63
f 77 78 67
f 77 67 66
f 77 66 71
# Vertices: 45, normals: 0, texture coordinates: 0, faces: 59

o obj11
v -246.11268616 -143.62203979 108.97637939
v -0.01032051 -143.62203979 0
v -246.11268616 -143.62203979 0
v -0.01032051 -143.62203979 108.97637939
usemtl mat1
f 82 83 84
f 83 82 85
# Vertices: 4, normals: 0, texture coordinates: 0, faces: 2

o obj12
v -0.01032051 99.33071136 108.97637939
v -246.11268616 36.61417389 108.97637939
v -246.11268616 121.8110199 108.97637939
v -0.01032051 36.61417389 108.97637939
usemtl mat1
f 86 87 88
f 87 86 89
# Vertices: 4, normals: 0, texture coordinates: 0, faces: 2

o obj13
v -246.11268616 121.8110199 0
v -246.11268616 -45.27558899 80.03936768
v -246.11268616 -45.27558899 0
v -246.11268616 19.64566994 89.60630035
v -246.11268616 36.61417389 89.60630035
v -246.11268616 36.61417389 108.97637939
v -246.11268616 121.8110199 108.97637939
v -246.11268616 -86.10236359 0
v -246.11268616 -143.62203979 108.97637939
v -246.11268616 -143.62203979 0
v -246.11268616 -86.10236359 80.03936768
v -246.11268616 19.64566994 108.97637939
usemtl mat1
f 90 91 92
f 91 90 93
f 93 90 94
f 94 90 95
f 95 90 96
f 97 98 99
f 98 97 100
f 98 100 101
f 101 100 91
f 101 91 93
# Vertices: 12, normals: 0, texture coordinates: 0, faces: 10

o obj14
v -246.11268616 -45.27558899 0
v -246.11268616 -86.10236359 80.03936768
v -246.11268616 -86.10236359 0
v -246.11268616 -45.27558899 80.03936768
usemtl mat1
f 102 103 104
f 103 102 105
# Vertices: 4, normals: 0, texture coordinates: 0, faces: 2

o obj15
v -0.01032051 19.64566994 108.97637939
v -246.11268616 19.64566994 89.60630035
v -0.01032051 19.64566994 89.60630035
v -246.11268616 19.64566994 108.97637939
usemtl mat1
f 106 107 108
f 107 106 109
# Vertices: 4, normals: 0, texture coordinates: 0, faces: 2

o obj16
v -0.01032051 36.61417389 89.60630035
v -246.11268616 19.64566994 89.60630035
v -246.11268616 36.61417389 89.60630035
v -0.01032051 19.64566994 89.60630035
usemtl mat1
f 110 111 112
f 111 110 113
# Vertices: 4, normals: 0, texture coordinates: 0, faces: 2

o obj17
v -246.11268616 36.61417389 89.60630035
v -0.01032051 36.61417389 108.97637939
v -0.01032051 36.61417389 89.60630035
v -246.11268616 36.61417389 108.97637939
usemtl mat1
f 114 115 116
f 115 114 117
# Vertices: 4, normals: 0, texture coordinates: 0, faces: 2

o obj18
v -0.01032051 19.64566994 108.97637939
v -246.11268616 -143.62203979 108.97637939
v -246.11268616 19.64566994 108.97637939
v -0.01032051 -143.62203979 108.97637939
usemtl mat1
f 118 119 120
f 119 118 121
# Vertices: 4, normals: 0, texture coordinates: 0, faces: 2

o obj19
v -0.01032051 99.33071136 108.97637939
v -246.11268616 121.8110199 0
v -0.01032051 99.33071136 0
v -246.11268616 121.8110199 108.97637939
usemtl mat1
f 122 123 124
f 123 122 125
# Vertices: 4, normals: 0, texture coordinates: 0, faces: 2

o obj20
v -0.01032051 -143.62203979 108.97637939
v -0.01032051 -58.58267593 86.3385849
v -0.01032051 -143.62203979 0
v -0.01032051 19.64566994 108.97637939
v -0.01032051 -0.47244096 86.41732025
v -0.01032051 -0.47244096 1.96850395
v -0.01032051 99.33071136 108.97637939
v -0.01032051 36.61417389 89.60630035
v -0.01032051 36.61417389 108.97637939
v -0.01032051 -58.58267593 1.96850395
v -0.01032051 99.33071136 0
v -0.01032051 19.64566994 89.60630035
usemtl mat1
f 126 127 128
f 127 126 129
f 127 129 130
f 130 129 131
f 132 133 134
f 128 135 136
f 135 128 127
f 136 135 131
f 136 131 137
f 137 131 129
f 136 137 133
f 136 133 132
# Vertices: 12, normals: 0, texture coordinates: 0, faces: 12

o obj21
v 240.22590637 74.92125702 107.71653748
v 22.46999359 94.92125702 1.96850395
v 240.22590637 74.92125702 1.96850395
v 22.46999359 94.92125702 107.71653748
usemtl mat0
f 138 139 140
f 139 138 141
# Vertices: 4, normals: 0, texture coordinates: 0, faces: 2

o obj22
v 240.22590637 74.92125702 107.71653748
v 240.22590637 36.61417389 89.60630035
v 240.22590637 36.61417389 107.71653748
v 240.22590637 -153.77952576 107.71653748
v 240.22590637 -242.51968384 1.96850395
v 240.22590637 -242.51968384 107.71653748
v 240.22590637 -153.77952576 89.60630035
v 240.22590637 74.92125702 1.96850395
v 240.22590637 -137.12599182 89.60630035
v 240.22590637 -137.12599182 107.71653748
v 240.22590637 19.64566994 89.60630035
v 240.22590637 19.64566994 107.71653748
usemtl mat0
f 142 143 144
f 145 146 147
f 146 145 148
f 146 148 149
f 149 148 150
f 149 150 151
f 149 151 152
f 152 151 153
f 149 152 143
f 149 143 142
# Vertices: 12, normals: 0, texture coordinates: 0, faces: 10

o obj23
v 22.46999359 -242.51968384 107.71653748
v 240.22590637 -242.51968384 1.96850395
v 22.46999359 -242.51968384 1.96850395
v 240.22590637 -242.51968384 107.71653748
usemtl mat0
f 154 155 156
f 155 154 157
# Vertices: 4, normals: 0, texture coordinates: 0, faces: 2

o obj24
v 22.46999359 -0.47244096 86.41732025
v -0.01032051 -58.58267593 86.3385849
v -0.01032051 -0.47244096 86.41732025
v 22.46441269 -0.51229274 86.41730499
v 22.46999359 -58.58267593 86.3385849
v 22.46999359 -0.56630933 86.4172287
usemtl mat1
f 158 159 160
f 159 158 161
f 161 162 159
f 162 161 163
# Vertices: 6, normals: 0, texture coordinates: 0, faces: 4

o obj25
v 22.46999359 -0.47244096 86.41732025
v 22.46278381 -0.47244096 1.96850395
v 22.46999359 -0.47244096 1.96850395
v -0.01032051 -0.47244096 86.41732025
v -0.01032051 -0.47244096 1.96850395
usemtl mat1
f 164 165 166
f 165 167 168
f 167 165 164
# Vertices: 5, normals: 0, texture coordinates: 0, faces: 3

o obj26
v -0.01032051 -58.58267593 86.3385849
v 22.46999359 -58.58267593 1.96850395
v -0.01032051 -58.58267593 1.96850395
v 22.46999359 -58.58267593 86.3385849
usemtl mat1
f 169 170 171
f 170 169 172
# Vertices: 4, normals: 0, texture coordinates: 0, faces: 2

o obj27
v 22.46999359 -5.91576195 1.96850395
v 20.59337807 -2.7171483 1.96850395
v 22.46999359 -1.61614442 1.96850395
usemtl mat1
f 173 174 175
# Vertices: 3, normals: 0, texture coordinates: 0, faces: 1

o obj28
v -177.56370544 78.16802216 43.30708694
v -237.68162537 120.11491394 43.30708694
v -241.38539124 84.87595367 43.30708694
v -173.85995483 113.40699005 43.30708694
usemtl mat2
f 176 177 178
f 177 176 179
# Vertices: 4, normals: 0, texture coordinates: 0, faces: 2

o obj29
v -237.68162537 120.11491394 43.30708694
v -173.85995483 113.40699005 -0
v -237.68162537 120.11491394 -0
v -173.85995483 113.40699005 43.30708694
usemtl mat2
f 180 181 182
f 181 180 183
# Vertices: 4, normals: 0, texture coordinates: 0, faces: 2

o obj30
v -173.85995483 113.40699005 -0
v -177.56370544 78.16802216 43.30708694
v -177.56370544 78.16802216 -0
v -173.85995483 113.40699005 43.30708694
usemtl mat2
f 184 185 186
f 185 184 187
# Vertices: 4, normals: 0, texture coordinates: 0, faces: 2

o obj31
v -177.56370544 78.16802216 43.30708694
v -241.38539124 84.87595367 -0
v -177.56370544 78.16802216 -0
v -241.38539124 84.87595367 43.30708694
usemtl mat2
f 188 189 190
f 189 188 191
# Vertices: 4, normals: 0, texture coordinates: 0, faces: 2

o obj32
v -237.68162537 120.11491394 43.30708694
v -241.38539124 84.87595367 -0
v -241.38539124 84.87595367 43.30708694
v -237.68162537 120.11491394 -0
usemtl mat2
f 192 193 194
f 193 192 195
# Vertices: 4, normals: 0, texture coordinates: 0, faces: 2

o obj33
v -178.01901245 -142.64176941 43.30708694
v -242.19224548 -142.64176941 0
v -178.01901245 -142.64176941 0
v -242.19224548 -142.64176941 43.30708694
usemtl mat2
f 196 197 198
f 197 196 199
# Vertices: 4, normals: 0, texture coordinates: 0, faces: 2

o obj34
v -242.19224548 -120.20082855 43.30708694
v -178.01901245 -120.20082855 0
v -242.19224548 -120.20082855 0
v -178.01901245 -120.20082855 43.30708694
usemtl mat2
f 200 201 202
f 201 200 203
# Vertices: 4, normals: 0, texture coordinates: 0, faces: 2

o obj35
v -178.01901245 -142.64176941 43.30708694
v -242.19224548 -120.20082855 43.30708694
v -242.19224548 -142.64176941 43.30708694
v -178.01901245 -120.20082855 43.30708694
usemtl mat2
f 204 205 206
f 205 204 207
# Vertices: 4, normals: 0, texture coordinates: 0, faces: 2

o obj36
v -178.01901245 -120.20082855 0
v -178.01901245 -142.64176941 43.30708694
v -178.01901245 -142.64176941 0
v -178.01901245 -120.20082855 43.30708694
usemtl mat2
f 208 209 210
f 209 208 211
# Vertices: 4, normals: 0, texture coordinates: 0, faces: 2

o obj37
v -242.19224548 -120.20082855 43.30708694
v -242.19224548 -142.64176941 0
v -242.19224548 -142.64176941 43.30708694
v -242.19224548 -120.20082855 0
usemtl mat2
f 212 213 214
f 213 212 215
# Vertices: 4, normals: 0, texture coordinates: 0, faces: 2

o obj38
v -2.01274681 98.25770569 0
v -4.54612064 62.91531754 43.30708694
v -4.54612064 62.91531754 0
v -2.01274681 98.25770569 43.30708694
usemtl mat2
f 216 217 218
f 217 216 219
# Vertices: 4, normals: 0, texture coordinates: 0, faces: 2

o obj39
v -4.54612064 62.91531754 43.30708694
v -66.02174377 102.84593201 43.30708694
v -68.55511475 67.50354004 43.30708694
v -2.01274681 98.25770569 43.30708694
usemtl mat2
f 220 221 222
f 221 220 223
# Vertices: 4, normals: 0, texture coordinates: 0, faces: 2

o obj40
v -66.02174377 102.84593201 43.30708694
v -2.01274681 98.25770569 0
v -66.02174377 102.84593201 0
v -2.01274681 98.25770569 43.30708694
usemtl mat2
f 224 225 226
f 225 224 227
# Vertices: 4, normals: 0, texture coordinates: 0, faces: 2

o obj41
v -66.02174377 102.84593201 43.30708694
v -68.55511475 67.50354004 0
v -68.55511475 67.50354004 43.30708694
v -66.02174377 102.84593201 0
usemtl mat2
f 228 229 230
f 229 228 231
# Vertices: 4, normals: 0, texture coordinates: 0, faces: 2

o obj42
v -0.50058484 -78.08494568 0
v -0.50058484 -142.25816345 43.30708694
v -0.50058484 -142.25816345 0
v -0.50058484 -78.08494568 43.30708694
usemtl mat2
f 232 233 234
f 233 232 235
# Vertices: 4, normals: 0, texture coordinates: 0, faces: 2

o obj43
v -35.93365479 -78.08494568 43.30708694
v -0.50058484 -78.08494568 0
v -35.93365479 -78.08494568 0
v -0.50058484 -78.08494568 43.30708694
usemtl mat2
f 236 237 238
f 237 236 239
# Vertices: 4, normals: 0, texture coordinates: 0, faces: 2

o obj44
v -0.50058484 -142.25816345 43.30708694
v -110.3431015 -110.17155457 43.30708694
v -110.3431015 -142.25816345 43.30708694
v -35.93365479 -110.17155457 43.30708694
v -35.93365479 -78.08494568 43.30708694
v -0.50058484 -78.08494568 43.30708694
usemtl mat2
f 240 241 242
f 241 240 243
f 243 240 244
f 244 240 245
# Vertices: 6, normals: 0, texture coordinates: 0, faces: 4

o obj45
v -0.50058484 -142.25816345 43.30708694
v -110.3431015 -142.25816345 0
v -0.50058484 -142.25816345 0
v -110.3431015 -142.25816345 43.30708694
usemtl mat2
f 246 247 248
f 247 246 249
# Vertices: 4, normals: 0, texture coordinates: 0, faces: 2

o obj46
v -214.24804688 58.22101593 39.37007904
v -214.24804688 -3.59000707 0
v -214.24804688 -3.59000707 39.37007904
v -214.24804688 58.22101593 0
usemtl mat3
f 250 251 252
f 251 250 253
# Vertices: 4, normals: 0, texture coordinates: 0, faces: 2

o obj47
v -210.31105042 -3.59000707 39.37007904
v -214.24804688 -3.59000707 0
v -210.31105042 -3.59000707 0
v -214.24804688 -3.59000707 39.37007904
usemtl mat3
f 254 255 256
f 255 254 257
# Vertices: 4, normals: 0, texture coordinates: 0, faces: 2

o obj48
v -210.31105042 -3.59000707 39.37007904
v -214.24804688 58.22101593 39.37007904
v -214.24804688 -3.59000707 39.37007904
v -210.31105042 58.22101593 39.37007904
usemtl mat3
f 258 259 260
f 259 258 261
# Vertices: 4, normals: 0, texture coordinates: 0, faces: 2

o obj49
v -210.31105042 58.22101593 0
v -210.31105042 -3.59000707 39.37007904
v -210.31105042 -3.59000707 0
v -210.31105042 58.22101593 39.37007904
usemtl mat3
f 262 263 264
f 263 262 265
# Vertices: 4, normals: 0, texture coordinates: 0, faces: 2

o obj50
v -214.24804688 58.22101593 39.37007904
v -210.31105042 58.22101593 0
v -214.24804688 58.22101593 0
v -210.31105042 58.22101593 39.37007904
usemtl mat3
f 266 267 268
f 267 266 269
# Vertices: 4, normals: 0, texture coordinates: 0, faces: 2

o obj51
v -138.13943481 97.27464294 0
v -138.13943481 97.27464294 39.37007904
v -138.13943481 97.27464294 0
v -138.13943481 97.27464294 39.37007904
v -140.01127625 100.73999023 0
v -140.01127625 100.73999023 39.37007904
usemtl mat3
f 270 271 272
f 271 270 273
f 273 270 274
f 273 274 275
# Vertices: 6, normals: 0, texture coordinates: 0, faces: 4

o obj52
v -138.13943481 97.27464294 39.37007904
v -138.13943481 97.27464294 0
v -138.13943481 97.27464294 0
v -172.13825989 77.645401 0
v -138.13943481 97.27464294 39.37007904
v -172.13825989 77.645401 39.37007904
usemtl mat3
f 276 277 278
f 277 276 279
f 279 276 280
f 281 279 280
# Vertices: 6, normals: 0, texture coordinates: 0, faces: 4

o obj53
v -172.13825989 77.645401 39.37007904
v -140.01127625 100.73999023 39.37007904
v -174.10676575 81.05495453 39.37007904
v -138.13943481 97.27464294 39.37007904
v -138.13943481 97.27464294 39.37007904
usemtl mat3
f 282 283 284
f 283 282 285
f 283 285 286
# Vertices: 5, normals: 0, texture coordinates: 0, faces: 3

o obj54
v -174.10676575 81.05495453 39.37007904
v -172.13825989 77.645401 0
v -172.13825989 77.645401 39.37007904
v -174.10676575 81.05495453 0
usemtl mat3
f 287 288 289
f 288 287 290
# Vertices: 4, normals: 0, texture coordinates: 0, faces: 2

o obj55
v -174.10676575 81.05495453 39.37007904
v -140.01127625 100.73999023 0
v -174.10676575 81.05495453 0
v -140.01127625 100.73999023 39.37007904
usemtl mat3
f 291 292 293
f 292 291 294
# Vertices: 4, normals: 0, texture coordinates: 0, faces: 2

o obj56
v -138.13943481 97.27464294 39.37007904
v -138.13943481 97.27464294 39.37007904
v -138.13943481 97.27464294 39.37007904
usemtl mat3
f 295 296 297
# Vertices: 3, normals: 0, texture coordinates: 0, faces: 1

o obj57
v -98.76934814 100.86607361 0
v -98.76934814 96.92906952 39.37007904
v -98.76934814 96.92906952 0
v -98.76934814 100.86607361 39.37007904
usemtl mat3
f 298 299 300
f 299 298 301
# Vertices: 4, normals: 0, texture coordinates: 0, faces: 2

o obj58
v -138.13943481 100.86607361 39.37007904
v -98.76934814 100.86607361 0
v -138.13943481 100.86607361 0
v -98.76934814 100.86607361 39.37007904
usemtl mat3
f 302 303 304
f 303 302 305
# Vertices: 4, normals: 0, texture coordinates: 0, faces: 2

o obj59
v -138.13943481 97.27464294 39.37007904
v -138.13943481 96.92906952 0
v -138.13943481 96.92906952 39.37007904
v -138.13943481 97.27464294 0
v -138.13943481 97.27464294 39.37007904
v -138.13943481 97.27464294 0
v -138.13943481 100.86607361 39.37007904
v -138.13943481 100.86607361 0
usemtl mat3
f 306 307 308
f 307 306 309
f 309 306 310
f 309 310 311
f 311 310 312
f 311 312 313
# Vertices: 8, normals: 0, texture coordinates: 0, faces: 6

o obj60
v -98.76934814 96.92906952 39.37007904
v -138.13943481 96.92906952 0
v -98.76934814 96.92906952 0
v -138.13943481 96.92906952 39.37007904
usemtl mat3
f 314 315 316
f 315 314 317
# Vertices: 4, normals: 0, texture coordinates: 0, faces: 2

o obj61
v -98.76934814 96.92906952 39.37007904
v -138.13943481 97.27464294 39.37007904
v -138.13943481 96.92906952 39.37007904
v -138.13943481 97.27464294 39.37007904
v -138.13943481 100.86607361 39.37007904
v -138.13943481 97.27464294 39.37007904
v -98.76934814 100.86607361 39.37007904
usemtl mat3
f 318 319 320
f 319 318 321
f 321 322 323
f 322 321 324
f 324 321 318
# Vertices: 7, normals: 0, texture coordinates: 0, faces: 5

o obj62
v -138.13943481 97.27464294 0
v -138.13943481 97.27464294 0
v -138.13943481 97.27464294 0
usemtl mat1
f 325 326 327
# Vertices: 3, normals: 0, texture coordinates: 0, faces: 1

o obj63
v -73.37030792 65.68392944 39.37007904
v -94.09633636 99.38756561 39.37007904
v -97.2281189 97.00177765 39.37007904
v -70.23852539 68.06970978 39.37007904
usemtl mat3
f 328 329 330
f 329 328 331
# Vertices: 4, normals: 0, texture coordinates: 0, faces: 2

o obj64
v -94.09633636 99.38756561 0
v -70.23852539 68.06970978 39.37007904
v -70.23852539 68.06970978 0
v -94.09633636 99.38756561 39.37007904
usemtl mat3
f 332 333 334
f 333 332 335
# Vertices: 4, normals: 0, texture coordinates: 0, faces: 2

o obj65
v -97.2281189 97.00177765 39.37007904
v -73.37030792 65.68392944 0
v -73.37030792 65.68392944 39.37007904
v -97.2281189 97.00177765 0
usemtl mat3
f 336 337 338
f 337 336 339
# Vertices: 4, normals: 0, texture coordinates: 0, faces: 2

o obj66
v -97.2281189 97.00177765 39.37007904
v -94.09633636 99.38756561 0
v -97.2281189 97.00177765 0
v -94.09633636 99.38756561 39.37007904
usemtl mat3
f 340 341 342
f 341 340 343
# Vertices: 4, normals: 0, texture coordinates: 0, faces: 2

o obj67
v -70.23852539 68.06970978 39.37007904
v -73.37030792 65.68392944 0
v -70.23852539 68.06970978 0
v -73.37030792 65.68392944 39.37007904
usemtl mat3
f 344 345 346
f 345 344 347
# Vertices: 4, normals: 0, texture coordinates: 0, faces: 2

o obj68
v -207.92451477 59.61103821 39.37007904
v -172.80020142 77.8259964 39.37007904
v -209.38021851 63.26903915 39.37007904
v -171.34449768 74.16799927 39.37007904
usemtl mat3
f 348 349 350
f 349 348 351
# Vertices: 4, normals: 0, texture coordinates: 0, faces: 2

o obj69
v -171.34449768 74.16799927 39.37007904
v -207.92451477 59.61103821 0
v -171.34449768 74.16799927 0
v -207.92451477 59.61103821 39.37007904
usemtl mat3
f 352 353 354
f 353 352 355
# Vertices: 4, normals: 0, texture coordinates: 0, faces: 2

o obj70
v -209.38021851 63.26903915 39.37007904
v -207.92451477 59.61103821 0
v -207.92451477 59.61103821 39.37007904
v -209.38021851 63.26903915 0
usemtl mat3
f 356 357 358
f 357 356 359
# Vertices: 4, normals: 0, texture coordinates: 0, faces: 2

o obj71
v -209.38021851 63.26903915 39.37007904
v -172.80020142 77.8259964 0
v -209.38021851 63.26903915 0
v -172.80020142 77.8259964 39.37007904
usemtl mat3
f 360 361 362
f 361 360 363
# Vertices: 4, normals: 0, texture coordinates: 0, faces: 2

o obj72
v -172.80020142 77.8259964 0
v -171.34449768 74.16799927 39.37007904
v -171.34449768 74.16799927 0
v -172.80020142 77.8259964 39.37007904
usemtl mat3
f 364 365 366
f 365 364 367
# Vertices: 4, normals: 0, texture coordinates: 0, faces: 2

o obj73
v -35.93365479 -78.08494568 43.30708694
v -35.93365479 -110.17155457 0
v -35.93365479 -110.17155457 43.30708694
v -35.93365479 -78.08494568 0
usemtl mat2
f 368 369 370
f 369 368 371
# Vertices: 4, normals: 0, texture coordinates: 0, faces: 2

o obj74
v -110.3431015 -110.17155457 43.30708694
v -110.3431015 -142.25816345 0
v -110.3431015 -142.25816345 43.30708694
v -110.3431015 -110.17155457 0
usemtl mat2
f 372 373 374
f 373 372 375
# Vertices: 4, normals: 0, texture coordinates: 0, faces: 2

o obj75
v -110.3431015 -110.17155457 43.30708694
v -35.93365479 -110.17155457 0
v -110.3431015 -110.17155457 0
v -35.93365479 -110.17155457 43.30708694
usemtl mat2
f 376 377 378
f 377 376 379
# Vertices: 4, normals: 0, texture coordinates: 0, faces: 2

o obj76
v 22.46999359 94.92125702 1.96850395
v 22.46999359 19.64566994 89.60630035
v 22.46999359 1.67762446 1.96850395
v 22.46999359 36.61417389 89.60630035
v 22.46999359 36.61417389 107.71653748
v 22.46999359 94.92125702 107.71653748
v 22.46999359 -0.47244096 86.41732025
v 22.46999359 -0.47244096 1.96850395
v 22.46999359 19.64566994 107.71653748
usemtl mat0
f 380 381 382
f 381 380 383
f 383 380 384
f 384 380 385
f 382 386 387
f 386 382 388
f 388 382 381
# Vertices: 9, normals: 0, texture coordinates: 0, faces: 7

o obj77
v 22.46999359 -58.58267593 1.96850395
v 22.46999359 -242.51968384 107.71653748
v 22.46999359 -242.51968384 1.96850395
v 22.46999359 -153.77952576 89.60630035
v 22.46999359 -137.12599182 89.60630035
v 22.46999359 -137.12599182 107.71653748
v 22.46999359 -58.58267593 86.3385849
v 22.46999359 19.64566994 107.71653748
v 22.46999359 -0.56630933 86.4172287
v 22.46999359 -153.77952576 107.71653748
usemtl mat0
f 389 390 391
f 390 389 392
f 392 389 393
f 393 389 394
f 394 389 395
f 394 395 396
f 396 395 397
f 398 390 392
# Vertices: 10, normals: 0, texture coordinates: 0, faces: 8

o obj78
v 22.46999359 19.64566994 107.71653748
v 22.46999359 -0.56630933 86.4172287
v 22.46441269 -0.51229274 86.41730499
usemtl mat0
f 399 400 401
# Vertices: 3, normals: 0, texture coordinates: 0, faces: 1

o obj79
v 22.46999359 19.64566994 107.71653748
v 22.46441269 -0.51229274 86.41730499
v 22.46999359 -0.47244096 86.41732025
usemtl mat0
f 402 403 404
# Vertices: 3, normals: 0, texture coordinates: 0, faces: 1

o obj80
v 22.50100327 -5.96861458 1.96851277
v 22.46999359 -5.91576195 1.96850395
v 22.46999359 -58.58267593 1.96850395
usemtl mat0
f 405 406 407
# Vertices: 3, normals: 0, texture coordinates: 0, faces: 1

o obj81
v 20.59337807 -2.7171483 86.22047424
v 22.46999359 -1.61614442 1.96850395
v 20.59337807 -2.7171483 1.96850395
v 22.50358009 -1.59643996 1.96851349
v 22.96381187 -1.32642341 1.96850395
v 23.14017105 -1.22295403 86.22047424
v 23.14017105 -1.22295403 1.96850395
usemtl mat2
f 408 409 410
f 409 408 411
f 412 413 414
f 413 412 411
f 413 411 408
# Vertices: 7, normals: 0, texture coordinates: 0, faces: 5

o obj82
v 22.5449276 1.72158718 1.96850395
v 53.82339096 -51.59126663 87.40157318
v 53.82339096 -51.59126663 1.96850395
v 22.5449276 1.72158718 87.40157318
usemtl mat0
f 415 416 417
f 416 415 418
# Vertices: 4, normals: 0, texture coordinates: 0, faces: 2

o obj83
v 21.52621078 1.12390947 1.96850395
v 22.5449276 1.72158718 1.96850395
v 22.46999359 1.67762446 1.96850395
v 21.52621078 1.12390947 87.40157318
v 22.5449276 1.72158718 87.40157318
usemtl mat0
f 419 420 421
f 420 419 422
f 420 422 423
# Vertices: 5, normals: 0, texture coordinates: 0, faces: 3

o obj84
v 20.59337807 -2.7171483 86.22047424
v 49.08267975 -51.27598953 1.96850395
v 49.08267975 -51.27598953 86.22047424
v 22.50100327 -5.96861458 1.96851277
v 22.46999359 -5.91576195 1.96850395
v 20.59337807 -2.7171483 1.96850395
usemtl mat2
f 424 425 426
f 425 424 427
f 427 424 428
f 428 424 429
# Vertices: 6, normals: 0, texture coordinates: 0, faces: 4

o obj85
v 51.62947464 -49.7817955 86.22047424
v 51.45311356 -49.88526535 1.96850395
v 51.62947464 -49.7817955 1.96850395
v 49.08267975 -51.27598953 86.22047424
v 49.08267975 -51.27598953 1.96850395
usemtl mat2
f 430 431 432
f 431 433 434
f 433 431 430
# Vertices: 5, normals: 0, texture coordinates: 0, faces: 3

o obj86
v 21.52621078 1.12390947 87.40157318
v 52.80467606 -52.18894196 1.96850395
v 52.80467606 -52.18894196 87.40157318
v 51.45311356 -49.88526535 1.96850395
v 22.96381187 -1.32642341 1.96850395
v 22.50419998 -0.54303503 1.96851373
v 22.46999359 -0.48473191 1.96850395
v 22.46278381 -0.47244096 1.96850395
v 21.52621078 1.12390947 1.96850395
usemtl mat0
f 435 436 437
f 436 435 438
f 438 435 439
f 439 435 440
f 440 435 441
f 441 435 442
f 442 435 443
# Vertices: 9, normals: 0, texture coordinates: 0, faces: 7

o obj87
v 49.08267975 -51.27598953 86.22047424
v 23.14017105 -1.22295403 86.22047424
v 20.59337807 -2.7171483 86.22047424
v 51.62947464 -49.7817955 86.22047424
usemtl mat2
f 444 445 446
f 445 444 447
# Vertices: 4, normals: 0, texture coordinates: 0, faces: 2

o obj88
v 53.82339096 -51.59126663 87.40157318
v 52.80467606 -52.18894196 1.96850395
v 53.82339096 -51.59126663 1.96850395
v 52.80467606 -52.18894196 87.40157318
usemtl mat0
f 448 449 450
f 449 448 451
# Vertices: 4, normals: 0, texture coordinates: 0, faces: 2

o obj89
v 52.80467606 -52.18894196 87.40157318
v 22.5449276 1.72158718 87.40157318
v 21.52621078 1.12390947 87.40157318
v 53.82339096 -51.59126663 87.40157318
usemtl mat0
f 452 453 454
f 453 452 455
# Vertices: 4, normals: 0, texture coordinates: 0, faces: 2

o obj90
v 22.46999359 1.67762446 1.96850395
v 22.46278381 -0.47244096 1.96850395
v 21.52621078 1.12390947 1.96850395
v 22.46999359 -0.47244096 1.96850395
usemtl mat0
f 456 457 458
f 457 456 459
# Vertices: 4, normals: 0, texture coordinates: 0, faces: 2

o obj91
v 22.50100327 -5.96861458 1.96851277
v 22.46999359 -1.61614442 1.96850395
v 22.46999359 -5.91576195 1.96850395
v 22.50358009 -1.59643996 1.96851349
usemtl mat2
f 460 461 462
f 461 460 463
# Vertices: 4, normals: 0, texture coordinates: 0, faces: 2

o obj92
v 52.80467606 -52.18894196 1.96850395
v 51.62947464 -49.7817955 1.96850395
v 51.45311356 -49.88526535 1.96850395
v 22.50419998 -0.54303503 1.96851373
v 22.46999359 -0.47244096 1.96850395
v 22.46999359 -0.48473191 1.96850395
v 22.46999359 1.67762446 1.96850395
v 22.5449276 1.72158718 1.96850395
v 22.96381187 -1.32642341 1.96850395
v 23.14017105 -1.22295403 1.96850395
v 53.82339096 -51.59126663 1.96850395
usemtl mat0
f 464 465 466
f 467 468 469
f 468 467 470
f 470 467 471
f 471 467 472
f 471 472 473
f 471 473 474
f 474 473 465
f 474 465 464
# Vertices: 11, normals: 0, texture coordinates: 0, faces: 9

o obj93
v 49.08267975 -51.27598953 1.96850395
v 22.50358009 -1.59643996 1.96851349
v 22.50100327 -5.96861458 1.96851277
v 22.96381187 -1.32642341 1.96850395
v 51.45311356 -49.88526535 1.96850395
usemtl mat2
f 475 476 477
f 476 475 478
f 478 475 479
# Vertices: 5, normals: 0, texture coordinates: 0, faces: 3

o obj94
v 240.22590637 -242.51968384 1.96850395
v 22.46999359 -58.58267593 1.96850395
v 22.46999359 -242.51968384 1.96850395
v 49.08267975 -51.27598953 1.96850395
v 22.50100327 -5.96861458 1.96851277
v 52.80467606 -52.18894196 1.96850395
v 51.45311356 -49.88526535 1.96850395
v 53.82339096 -51.59126663 1.96850395
v 22.5449276 1.72158718 1.96850395
v 22.46999359 94.92125702 1.96850395
v 22.46999359 1.67762446 1.96850395
v 240.22590637 74.92125702 1.96850395
usemtl mat0
f 480 481 482
f 481 480 483
f 481 483 484
f 483 480 485
f 483 485 486
f 485 480 487
f 488 489 490
f 489 488 491
f 491 488 487
f 491 487 480
# Vertices: 12, normals: 0, texture coordinates: 0, faces: 10

o obj95
v 22.96381187 -1.32642341 1.96850395
v 22.50419998 -0.54303503 1.96851373
v 22.50358009 -1.59643996 1.96851349
usemtl mat0
f 492 493 494
# Vertices: 3, normals: 0, texture coordinates: 0, faces: 1

o obj96
v 22.46999359 -58.58267593 1.96850395
v -0.01032051 -0.47244096 1.96850395
v -0.01032051 -58.58267593 1.96850395
v 20.59337807 -2.7171483 1.96850395
v 22.46999359 -5.91576195 1.96850395
v 22.46278381 -0.47244096 1.96850395
v 22.46999359 -1.61614442 1.96850395
v 22.46999359 -0.48473191 1.96850395
usemtl mat1
f 495 496 497
f 496 495 498
f 498 495 499
f 498 500 496
f 500 498 501
f 500 501 502
# Vertices: 8, normals: 0, texture coordinates: 0, faces: 6

o obj97
v 22.50358009 -1.59643996 1.96851349
v 22.46999359 -0.48473191 1.96850395
v 22.46999359 -1.61614442 1.96850395
v 22.50419998 -0.54303503 1.96851373
usemtl mat0
f 503 504 505
f 504 503 506
# Vertices: 4, normals: 0, texture coordinates: 0, faces: 2

o obj98
v 51.45311356 -49.88526535 1.96850395
v 23.14017105 -1.22295403 1.96850395
v 22.96381187 -1.32642341 1.96850395
v 51.62947464 -49.7817955 1.96850395
usemtl mat0
f 507 508 509
f 508 507 510
# Vertices: 4, normals: 0, texture coordinates: 0, faces: 2

o obj99
v -4.54612064 62.91531754 43.30708694
v -68.55511475 67.50354004 0
v -4.54612064 62.91531754 0
v -68.55511475 67.50354004 43.30708694
usemtl mat2
f 511 512 513
f 512 511 514
# Vertices: 4, normals: 0, texture coordinates: 0, faces: 2

