mtllib mesh.mtl

v 4.292 0.150 2.736
v 6.102 0.133 2.736
v 6.102 1.903 2.736
v 6.102 1.903 2.736
v 4.141 2.083 2.736
v 4.292 0.150 2.736
v 2.206 0.360 2.736
v 4.141 2.083 2.736
v 2.652 2.220 2.736
v 4.292 0.150 2.736
v 2.206 0.360 2.736
v 2.739 -0.233 2.736
v 2.739 -0.233 2.736
v 3.926 -0.234 2.736
v 4.292 0.150 2.736
v 4.141 2.083 2.736
v 2.206 0.360 2.736
v 4.292 0.150 2.736
v 4.292 0.150 2.736
v 3.926 -0.234 2.736
v 4.461 -1.839 2.736
v 4.461 -1.839 2.736
v 6.102 -1.803 2.736
v 6.102 0.133 2.736
v 6.102 0.133 2.736
v 4.292 0.150 2.736
v 4.461 -1.839 2.736
v 2.664 -2.460 2.736
v 4.461 -1.839 2.736
v 2.113 -1.759 2.736
v 4.461 -1.839 2.736
v 2.664 -2.460 2.736
v 3.992 -2.446 2.736
v 2.739 -0.233 2.736
v 4.461 -1.839 2.736
v 3.926 -0.234 2.736
v 2.113 -1.759 2.736
v 4.461 -1.839 2.736
v 2.739 -0.233 2.736
v 4.461 -1.839 2.736
v 3.992 -2.446 2.736
v 4.523 -3.954 2.736
v 4.461 -1.839 2.736
v 6.102 -3.927 2.736
v 6.102 -1.803 2.736
v 6.102 -3.927 2.736
v 4.461 -1.839 2.736
v 4.523 -3.954 2.736
v 6.102 -6.160 2.736
v 4.164 -4.395 2.736
v 4.446 -6.160 2.736
v 4.164 -4.395 2.736
v 6.102 -6.160 2.736
v 6.102 -3.927 2.736
v 4.164 -4.395 2.736
v 6.102 -3.927 2.736
v 4.523 -3.954 2.736
v 2.206 0.360 2.736
v 2.652 2.220 2.736
v 0.571 2.411 2.736
v 0.571 0.499 2.736
v 0.571 0.340 2.736
v 2.206 0.360 2.736
v 2.206 0.360 2.736
v 0.571 2.411 2.736
v 0.571 0.499 2.736
v 2.113 -1.759 2.736
v 2.739 -0.233 2.736
v 2.206 0.360 2.736
v 2.113 -1.759 2.736
v 0.571 0.340 2.736
v 0.571 -1.740 2.736
v 0.571 0.340 2.736
v 2.113 -1.759 2.736
v 2.206 0.360 2.736
v 2.541 -4.434 2.736
v 2.664 -2.460 2.736
v 2.126 -3.941 2.736
v 2.664 -2.460 2.736
v 2.541 -4.434 2.736
v 4.164 -4.395 2.736
v 4.164 -4.395 2.736
v 4.523 -3.954 2.736
v 3.992 -2.446 2.736
v 2.664 -2.460 2.736
v 4.164 -4.395 2.736
v 3.992 -2.446 2.736
v 2.126 -3.941 2.736
v 2.664 -2.460 2.736
v 2.113 -1.759 2.736
v 2.113 -1.759 2.736
v 0.571 -1.740 2.736
v 0.571 -3.939 2.736
v 0.571 -3.939 2.736
v 2.126 -3.941 2.736
v 2.113 -1.759 2.736
v 4.446 -6.160 2.736
v 2.541 -4.434 2.736
v 2.283 -6.160 2.736
v 2.541 -4.434 2.736
v 4.446 -6.160 2.736
v 4.164 -4.395 2.736
v 2.541 -4.434 2.736
v 2.126 -3.941 2.736
v 0.571 -3.939 2.736
v 2.541 -4.434 2.736
v 0.571 -6.160 2.736
v 2.283 -6.160 2.736
v 0.571 -6.160 2.736
v 2.541 -4.434 2.736
v 0.571 -3.939 2.736
v -4.032 -3.648 1.935
v -4.053 -3.648 2.768
v -6.251 -3.648 2.768
v -6.251 -3.648 2.768
v -6.251 -3.648 1.100
v -4.694 -3.648 1.100
v -4.694 -3.648 1.100
v -4.032 -3.648 1.935
v -6.251 -3.648 2.768
v -2.839 -3.648 1.100
v -4.522 -3.648 1.100
v -4.522 -3.648 0.000
v -2.839 -3.648 1.100
v -2.803 -3.648 -0.000
v -2.803 -3.648 1.075
v -2.803 -3.648 -0.000
v -2.839 -3.648 1.100
v -4.522 -3.648 0.000
v -4.032 -3.648 1.935
v -4.694 -3.648 1.100
v -4.522 -3.648 1.100
v -4.522 -3.648 1.100
v -2.839 -3.648 1.100
v -4.032 -3.648 1.935
v -1.852 -3.648 2.768
v -0.000 -3.648 1.100
v -0.000 -3.648 2.768
v -0.000 -3.648 1.100
v -1.852 -3.648 2.768
v -1.949 -3.648 1.100
v -1.852 -3.648 2.768
v -2.839 -3.648 1.100
v -1.949 -3.648 1.100
v -4.032 -3.648 1.935
v -1.852 -3.648 2.768
v -4.053 -3.648 2.768
v -1.852 -3.648 2.768
v -4.032 -3.648 1.935
v -2.839 -3.648 1.100
v -2.209 1.240 2.768
v -1.888 0.579 2.768
v 0.000 0.506 2.768
v -2.209 1.240 2.768
v -0.000 2.523 2.768
v -1.854 2.692 2.768
v -0.000 2.523 2.768
v -2.209 1.240 2.768
v 0.000 0.506 2.768
v -1.536 -1.624 2.768
v -1.395 -3.648 2.768
v 0.000 -3.648 2.768
v 0.000 -3.648 2.768
v 0.000 -1.334 2.768
v -1.536 -1.624 2.768
v -4.237 2.910 2.768
v -2.209 1.240 2.768
v -1.854 2.692 2.768
v -2.209 1.240 2.768
v -4.237 2.910 2.768
v -4.132 1.351 2.768
v -4.107 -0.237 2.768
v -2.209 1.240 2.768
v -4.132 1.351 2.768
v -4.132 1.351 2.768
v -4.488 0.839 2.768
v -4.107 -0.237 2.768
v -2.209 1.240 2.768
v -2.348 -0.398 2.768
v -1.888 0.579 2.768
v -2.348 -0.398 2.768
v -2.209 1.240 2.768
v -4.107 -0.237 2.768
v -2.348 -0.398 2.768
v -2.065 -1.351 2.768
v -1.536 -1.624 2.768
v -1.536 -1.624 2.768
v 0.000 -1.334 2.768
v 0.000 0.506 2.768
v -1.536 -1.624 2.768
v -1.888 0.579 2.768
v -2.348 -0.398 2.768
v -1.888 0.579 2.768
v -1.536 -1.624 2.768
v 0.000 0.506 2.768
v -4.444 -1.718 2.768
v -4.107 -0.237 2.768
v -4.648 -1.384 2.768
v -4.107 -0.237 2.768
v -4.444 -1.718 2.768
v -3.141 -2.157 2.768
v -3.141 -2.157 2.768
v -2.065 -1.351 2.768
v -2.348 -0.398 2.768
v -4.107 -0.237 2.768
v -3.141 -2.157 2.768
v -2.348 -0.398 2.768
v -6.251 3.094 2.768
v -4.132 1.351 2.768
v -4.237 2.910 2.768
v -4.132 1.351 2.768
v -6.251 3.094 2.768
v -6.251 0.872 2.768
v -4.132 1.351 2.768
v -6.251 0.872 2.768
v -4.488 0.839 2.768
v -6.251 0.872 2.768
v -4.107 -0.237 2.768
v -4.488 0.839 2.768
v -4.107 -0.237 2.768
v -6.251 0.872 2.768
v -6.251 -1.255 2.768
v -4.107 -0.237 2.768
v -6.251 -1.255 2.768
v -4.648 -1.384 2.768
v -3.141 -2.157 2.768
v -4.444 -1.718 2.768
v -4.967 -3.648 2.768
v -4.967 -3.648 2.768
v -2.967 -3.648 2.768
v -3.141 -2.157 2.768
v -1.536 -1.624 2.768
v -2.065 -1.351 2.768
v -3.141 -2.157 2.768
v -3.141 -2.157 2.768
v -2.967 -3.648 2.768
v -1.395 -3.648 2.768
v -1.395 -3.648 2.768
v -1.536 -1.624 2.768
v -3.141 -2.157 2.768
v -4.444 -1.718 2.768
v -4.648 -1.384 2.768
v -6.251 -1.255 2.768
v -6.251 -1.255 2.768
v -6.251 -3.648 2.768
v -4.967 -3.648 2.768
v -4.967 -3.648 2.768
v -4.444 -1.718 2.768
v -6.251 -1.255 2.768
v -6.251 0.861 1.907
v -6.251 0.876 2.768
v -6.251 3.094 2.768
v -6.251 3.094 2.768
v -6.251 3.094 1.100
v -6.251 2.156 1.100
v -6.251 2.156 1.100
v -6.251 2.156 0.686
v -6.251 0.861 1.907
v -6.251 0.861 1.907
v -6.251 3.094 2.768
v -6.251 2.156 1.100
v -6.251 -0.387 0.744
v -6.251 0.861 1.907
v -6.251 2.156 0.686
v -6.251 2.156 0.686
v -6.251 2.156 0.000
v -6.251 -0.376 0.000
v -6.251 -0.376 0.000
v -6.251 -0.387 0.744
v -6.251 2.156 0.686
v -6.251 0.861 1.907
v -6.251 -0.387 0.744
v -6.251 -1.498 1.828
v -6.251 0.861 1.907
v -6.251 -1.526 2.768
v -6.251 0.876 2.768
v -6.251 -1.526 2.768
v -6.251 0.861 1.907
v -6.251 -1.498 1.828
v -6.251 -3.053 0.582
v -6.251 -0.387 0.744
v -6.251 -0.376 0.000
v -6.251 -0.376 0.000
v -6.251 -3.053 0.000
v -6.251 -3.053 0.582
v -6.251 -0.387 0.744
v -6.251 -3.053 0.582
v -6.251 -1.498 1.828
v -6.251 -1.498 1.828
v -6.251 -3.053 0.582
v -6.251 -3.053 1.100
v -6.251 -3.053 1.100
v -6.251 -3.648 1.100
v -6.251 -3.648 2.768
v -6.251 -3.648 2.768
v -6.251 -1.526 2.768
v -6.251 -1.498 1.828
v -6.251 -1.498 1.828
v -6.251 -3.053 1.100
v -6.251 -3.648 2.768
v -1.677 2.676 1.100
v -2.119 2.716 2.768
v 0.000 2.523 2.768
v 0.000 2.523 2.768
v 0.000 2.523 1.100
v -1.677 2.676 1.100
v -1.677 2.676 1.100
v -1.677 2.676 0.707
v -2.201 2.724 1.512
v -2.119 2.716 2.768
v -1.677 2.676 1.100
v -2.201 2.724 1.512
v -4.189 2.905 1.195
v -2.201 2.724 1.512
v -1.677 2.676 0.707
v -1.677 2.676 0.707
v -1.677 2.676 0.000
v -4.416 2.926 0.000
v -4.416 2.926 0.000
v -4.416 2.926 0.793
v -4.189 2.905 1.195
v -4.189 2.905 1.195
v -1.677 2.676 0.707
v -4.416 2.926 0.000
v -4.189 2.905 1.195
v -4.416 2.926 0.793
v -4.416 2.926 1.100
v -4.416 2.926 1.100
v -6.251 3.093 1.100
v -6.251 3.093 2.768
v -4.416 2.926 1.100
v -4.315 2.917 2.768
v -4.189 2.905 1.195
v -4.315 2.917 2.768
v -4.416 2.926 1.100
v -6.251 3.093 2.768
v -2.201 2.724 1.512
v -4.189 2.905 1.195
v -4.315 2.917 2.768
v -4.315 2.917 2.768
v -2.119 2.716 2.768
v -2.201 2.724 1.512
v 0.000 -1.983 1.100
v 0.000 -3.648 2.768
v 0.000 -3.648 1.100
v 0.000 -1.983 1.100
v 0.000 -1.983 0.000
v 0.000 -1.488 -0.000
v 0.000 -1.488 2.193
v 0.000 -0.767 2.194
v 0.000 -0.659 2.768
v 0.000 -1.983 1.100
v 0.000 -1.488 -0.000
v 0.000 -1.488 2.193
v 0.000 -3.648 2.768
v 0.000 -1.488 2.193
v 0.000 -0.659 2.768
v 0.000 -3.648 2.768
v 0.000 -1.983 1.100
v 0.000 -1.488 2.193
v 0.000 1.598 1.100
v 0.000 2.523 1.100
v 0.000 2.523 2.768
v 0.000 0.410 2.768
v 0.000 1.598 0.924
v 0.000 1.598 1.100
v 0.000 1.598 1.100
v 0.000 2.523 2.768
v 0.000 0.410 2.768
v 0.000 -0.012 2.195
v 0.000 -0.659 2.768
v 0.000 -0.767 2.194
v 0.000 1.598 0.924
v 0.000 -0.012 -0.000
v 0.000 1.598 -0.000
v 0.000 -0.012 2.195
v 0.000 1.598 0.924
v 0.000 0.410 2.768
v 0.000 -0.659 2.768
v 0.000 -0.012 2.195
v 0.000 0.410 2.768
v 0.000 -0.012 -0.000
v 0.000 1.598 0.924
v 0.000 -0.012 2.195
v 4.431 2.057 2.736
v 6.102 1.903 2.736
v 6.102 1.903 0.050
v 6.102 1.903 0.050
v 4.388 2.060 0.050
v 4.431 2.057 2.736
v 2.483 2.235 1.409
v 0.571 2.411 1.350
v 0.571 2.411 2.736
v 0.571 2.411 2.736
v 2.939 2.194 2.736
v 2.483 2.235 1.409
v 2.483 2.235 1.409
v 3.000 2.188 0.050
v 0.571 2.411 0.050
v 0.571 2.411 0.050
v 0.571 2.411 1.350
v 2.483 2.235 1.409
v 2.483 2.235 1.409
v 2.939 2.194 2.736
v 4.431 2.057 2.736
v 2.483 2.235 1.409
v 4.388 2.060 0.050
v 3.000 2.188 0.050
v 4.388 2.060 0.050
v 2.483 2.235 1.409
v 4.431 2.057 2.736
v 6.102 -0.096 0.934
v 6.102 0.112 0.050
v 6.102 1.903 0.050
v 6.102 1.903 0.050
v 6.102 1.903 2.736
v 6.102 0.799 2.736
v 6.102 0.799 2.736
v 6.102 -0.096 0.934
v 6.102 1.903 0.050
v 6.102 -1.685 1.848
v 6.102 -0.096 0.934
v 6.102 0.799 2.736
v 6.102 0.799 2.736
v 6.102 -1.689 2.736
v 6.102 -1.685 1.848
v 6.102 -0.096 0.934
v 6.102 -1.685 1.848
v 6.102 -2.456 0.926
v 6.102 -0.096 0.934
v 6.102 -2.455 0.050
v 6.102 0.112 0.050
v 6.102 -2.455 0.050
v 6.102 -0.096 0.934
v 6.102 -2.456 0.926
v 6.102 -4.084 1.884
v 6.102 -2.456 0.926
v 6.102 -1.685 1.848
v 6.102 -4.084 1.884
v 6.102 -1.689 2.736
v 6.102 -4.280 2.736
v 6.102 -1.689 2.736
v 6.102 -4.084 1.884
v 6.102 -1.685 1.848
v 6.102 -2.456 0.926
v 6.102 -4.084 1.884
v 6.102 -4.943 0.050
v 6.102 -4.943 0.050
v 6.102 -2.455 0.050
v 6.102 -2.456 0.926
v 6.102 -4.084 1.884
v 6.102 -4.280 2.736
v 6.102 -6.160 2.736
v 6.102 -6.160 2.736
v 6.102 -6.160 0.050
v 6.102 -4.943 0.050
v 6.102 -4.943 0.050
v 6.102 -4.084 1.884
v 6.102 -6.160 2.736
v 2.460 -6.160 1.394
v 2.948 -6.160 2.736
v 0.571 -6.160 2.736
v 0.571 -6.160 2.736
v 0.571 -6.160 1.386
v 2.460 -6.160 1.394
v 4.394 -6.160 2.736
v 6.102 -6.160 0.050
v 6.102 -6.160 2.736
v 6.102 -6.160 0.050
v 4.394 -6.160 2.736
v 4.383 -6.160 0.050
v 2.460 -6.160 1.394
v 0.571 -6.160 1.386
v 0.571 -6.160 0.050
v 0.571 -6.160 0.050
v 2.960 -6.160 0.050
v 2.460 -6.160 1.394
v 2.460 -6.160 1.394
v 2.960 -6.160 0.050
v 4.383 -6.160 0.050
v 2.460 -6.160 1.394
v 4.394 -6.160 2.736
v 2.948 -6.160 2.736
v 4.394 -6.160 2.736
v 2.460 -6.160 1.394
v 4.383 -6.160 0.050
v -4.416 2.926 1.100
v -4.510 1.985 1.100
v -6.251 2.156 1.100
v -6.251 2.156 1.100
v -6.251 3.094 1.100
v -4.416 2.926 1.100
v -4.510 1.985 1.000
v -4.416 2.926 0.000
v -4.510 1.985 0.000
v -4.510 1.985 1.000
v -4.510 1.985 1.100
v -4.416 2.926 1.100
v -4.416 2.926 0.000
v -4.510 1.985 1.000
v -4.416 2.926 1.100
v -6.251 2.156 -0.000
v -4.510 1.985 1.000
v -4.510 1.985 0.000
v -4.510 1.985 1.000
v -6.251 2.156 -0.000
v -6.251 2.156 1.100
v -4.510 1.985 1.000
v -6.251 2.156 1.100
v -4.510 1.985 1.100
v -4.522 -3.053 0.000
v -6.251 -3.053 1.100
v -6.251 -3.053 -0.000
v -6.251 -3.053 1.100
v -4.522 -3.053 0.000
v -4.522 -3.053 1.100
v -5.388 -3.053 1.100
v -4.522 -3.053 1.100
v -4.522 -3.648 1.100
v -4.522 -3.648 1.100
v -5.389 -3.648 1.100
v -5.388 -3.053 1.100
v -5.389 -3.648 1.100
v -6.251 -3.648 1.100
v -6.251 -3.053 1.100
v -6.251 -3.053 1.100
v -5.388 -3.053 1.100
v -5.389 -3.648 1.100
v -4.522 -3.648 1.100
v -4.522 -3.053 0.000
v -4.522 -3.648 -0.000
v -4.522 -3.053 0.000
v -4.522 -3.648 1.100
v -4.522 -3.053 1.100
v 0.000 2.523 1.100
v -0.000 1.598 1.100
v -1.741 1.715 1.100
v -1.741 1.715 1.100
v -1.677 2.676 1.100
v 0.000 2.523 1.100
v -1.741 1.715 1.000
v 0.000 1.598 1.100
v 0.000 1.598 0.000
v 0.000 1.598 0.000
v -1.741 1.715 0.000
v -1.741 1.715 1.000
v 0.000 1.598 1.100
v -1.741 1.715 1.000
v -1.741 1.715 1.100
v -1.741 1.715 1.000
v -1.677 2.676 1.100
v -1.741 1.715 1.100
v -1.741 1.715 1.000
v -1.741 1.715 -0.000
v -1.677 2.676 -0.000
v -1.677 2.676 1.100
v -1.741 1.715 1.000
v -1.677 2.676 -0.000
v -5.442 1.479 1.000
v -5.442 1.479 0.000
v -5.442 -0.091 0.000
v -5.442 -0.091 0.000
v -5.442 -0.091 1.000
v -5.442 1.479 1.000
v -3.556 2.559 1.000
v -2.390 2.524 0.000
v -3.556 2.559 -0.000
v -2.390 2.524 0.000
v -3.556 2.559 1.000
v -2.390 2.524 1.000
v -1.741 1.715 0.000
v -2.390 2.524 1.000
v -1.741 1.715 1.000
v -2.390 2.524 1.000
v -1.741 1.715 0.000
v -2.390 2.524 0.000
v -5.442 1.479 1.000
v -4.510 1.985 1.000
v -4.510 1.985 -0.000
v -4.510 1.985 -0.000
v -5.442 1.479 -0.000
v -5.442 1.479 1.000
v -2.803 -3.648 0.000
v -2.803 -2.798 1.100
v -2.803 -3.648 1.100
v -2.803 -2.798 1.100
v -2.803 -3.648 0.000
v -2.803 -2.798 0.000
v -0.913 -2.798 0.000
v -2.803 -2.798 1.100
v -2.803 -2.798 -0.000
v -2.803 -2.798 1.100
v -0.913 -2.798 0.000
v -0.913 -2.798 1.100
v -0.913 -2.798 1.100
v -0.913 -1.983 1.100
v 0.000 -1.983 1.100
v -0.913 -2.798 1.100
v -0.000 -3.648 1.100
v -1.140 -3.648 1.100
v -1.140 -3.648 1.100
v -1.348 -2.798 1.100
v -0.913 -2.798 1.100
v -0.000 -3.648 1.100
v -0.913 -2.798 1.100
v 0.000 -1.983 1.100
v -1.348 -2.798 1.100
v -2.803 -3.648 1.100
v -2.803 -2.798 1.100
v -2.803 -3.648 1.100
v -1.348 -2.798 1.100
v -1.140 -3.648 1.100
v -0.913 -2.798 0.000
v -0.913 -1.983 1.100
v -0.913 -2.798 1.100
v -0.913 -1.983 1.100
v -0.913 -2.798 0.000
v -0.913 -1.983 -0.000
v 0.000 -1.983 -0.000
v -0.913 -1.983 1.100
v -0.913 -1.983 -0.000
v -0.913 -1.983 1.100
v 0.000 -1.983 -0.000
v 0.000 -1.983 1.100
v -0.913 -1.983 0.000
v -1.861 -0.398 0.000
v 0.000 -0.610 0.000
v 0.000 -0.610 0.000
v 0.000 -1.983 0.000
v -0.913 -1.983 0.000
v -0.913 -1.983 0.000
v -0.913 -2.798 0.000
v -1.983 -2.798 0.000
v -0.913 -1.983 0.000
v -2.547 -1.612 0.000
v -1.861 -0.398 0.000
v -2.547 -1.612 0.000
v -0.913 -1.983 0.000
v -1.983 -2.798 0.000
v -2.547 -1.612 0.000
v -4.145 -1.391 0.000
v -4.195 0.321 0.000
v -4.195 0.321 0.000
v -3.987 0.580 0.000
v -2.294 0.497 0.000
v -2.294 0.497 0.000
v -1.861 -0.398 0.000
v -2.547 -1.612 0.000
v -2.547 -1.612 0.000
v -4.195 0.321 0.000
v -2.294 0.497 0.000
v -3.556 2.559 0.000
v -3.987 0.580 0.000
v -4.242 2.146 0.000
v -2.294 0.497 0.000
v -3.556 2.559 0.000
v -2.390 2.524 0.000
v -1.741 1.715 0.000
v -1.712 1.713 0.000
v -2.294 0.497 0.000
v -3.556 2.559 0.000
v -2.294 0.497 0.000
v -3.987 0.580 0.000
v -2.390 2.524 0.000
v -1.741 1.715 0.000
v -2.294 0.497 0.000
v 0.000 -0.012 0.000
v -2.294 0.497 0.000
v -1.712 1.713 0.000
v -1.712 1.713 0.000
v 0.000 1.598 0.000
v 0.000 -0.012 0.000
v 0.000 -0.012 0.000
v 0.000 -0.610 0.000
v -1.861 -0.398 0.000
v -2.294 0.497 0.000
v 0.000 -0.012 0.000
v -1.861 -0.398 0.000
v -2.803 -2.798 0.000
v -4.145 -1.391 0.000
v -2.547 -1.612 0.000
v -2.547 -1.612 0.000
v -1.983 -2.798 0.000
v -2.803 -2.798 0.000
v -4.522 -3.158 0.000
v -2.803 -3.648 0.000
v -4.522 -3.648 0.000
v -2.803 -2.798 0.000
v -4.522 -3.158 0.000
v -4.172 -1.416 0.000
v -4.145 -1.391 0.000
v -2.803 -2.798 0.000
v -4.172 -1.416 0.000
v -2.803 -3.648 0.000
v -4.522 -3.158 0.000
v -2.803 -2.798 0.000
v -4.195 0.321 0.000
v -4.145 -1.391 0.000
v -4.172 -1.416 0.000
v -4.195 0.321 0.000
v -6.251 -1.296 0.000
v -6.251 0.342 0.000
v -6.251 -1.296 0.000
v -4.195 0.321 0.000
v -4.172 -1.416 0.000
v -4.172 -1.416 0.000
v -4.522 -3.158 0.000
v -4.522 -3.053 0.000
v -4.522 -3.053 0.000
v -6.251 -3.053 0.000
v -6.251 -1.296 0.000
v -6.251 -1.296 0.000
v -4.172 -1.416 0.000
v -4.522 -3.053 0.000
v -4.510 1.985 0.000
v -4.195 0.321 0.000
v -6.251 0.342 0.000
v -6.251 0.342 0.000
v -6.251 2.156 0.000
v -4.510 1.985 0.000
v -4.510 1.985 0.000
v -4.242 2.146 0.000
v -3.987 0.580 0.000
v -4.195 0.321 0.000
v -4.510 1.985 0.000
v -3.987 0.580 0.000
v -4.510 1.985 1.000
v -3.556 2.559 0.000
v -4.510 1.985 -0.000
v -3.556 2.559 0.000
v -4.510 1.985 1.000
v -3.556 2.559 1.000
v 0.571 -1.488 1.109
v 0.571 -1.488 2.193
v 0.000 -1.488 2.193
v 0.000 -1.488 2.193
v 0.000 -1.488 1.108
v 0.571 -1.488 1.109
v 0.000 -1.488 1.108
v 0.000 -1.488 -0.000
v 0.571 -1.488 0.050
v 0.571 -1.488 0.050
v 0.571 -1.488 1.109
v 0.000 -1.488 1.108
v 1.306 -1.292 2.195
v 0.571 -0.012 0.050
v 1.306 -1.292 0.050
v 0.571 -0.012 0.050
v 1.306 -1.292 2.195
v 0.571 -0.012 2.195
v 4.369 -4.258 0.050
v 6.102 -4.231 0.050
v 6.102 -6.160 0.050
v 6.102 -6.160 0.050
v 4.084 -6.160 0.050
v 4.369 -4.258 0.050
v 4.369 -4.258 0.050
v 2.553 -6.160 0.050
v 2.296 -4.169 0.050
v 2.296 -4.169 0.050
v 2.676 -3.787 0.050
v 3.926 -3.780 0.050
v 2.553 -6.160 0.050
v 4.369 -4.258 0.050
v 4.084 -6.160 0.050
v 4.369 -4.258 0.050
v 2.296 -4.169 0.050
v 3.926 -3.780 0.050
v 4.369 -4.258 0.050
v 3.926 -3.780 0.050
v 4.477 -2.234 0.050
v 4.477 -2.234 0.050
v 6.102 -2.254 0.050
v 6.102 -4.231 0.050
v 6.102 -4.231 0.050
v 4.369 -4.258 0.050
v 4.477 -2.234 0.050
v 4.477 -2.234 0.050
v 2.676 -3.787 0.050
v 2.171 -2.058 0.050
v 4.477 -2.234 0.050
v 2.596 -1.580 0.050
v 3.979 -1.578 0.050
v 2.676 -3.787 0.050
v 4.477 -2.234 0.050
v 3.926 -3.780 0.050
v 2.596 -1.580 0.050
v 4.477 -2.234 0.050
v 2.171 -2.058 0.050
v 4.477 -2.234 0.050
v 3.979 -1.578 0.050
v 4.500 -0.153 0.050
v 4.477 -2.234 0.050
v 6.102 -0.171 0.050
v 6.102 -2.254 0.050
v 6.102 -0.171 0.050
v 4.477 -2.234 0.050
v 4.500 -0.153 0.050
v 2.296 -4.169 0.050
v 2.553 -6.160 0.050
v 0.571 -6.160 0.050
v 0.571 -6.160 0.050
v 0.571 -4.159 0.050
v 2.296 -4.169 0.050
v 2.443 0.398 0.050
v 2.596 -1.580 0.050
v 2.176 0.121 0.050
v 2.596 -1.580 0.050
v 2.443 0.398 0.050
v 4.102 0.369 0.050
v 4.102 0.369 0.050
v 4.500 -0.153 0.050
v 3.979 -1.578 0.050
v 2.596 -1.580 0.050
v 4.102 0.369 0.050
v 3.979 -1.578 0.050
v 0.571 -1.488 0.050
v 2.596 -1.580 0.050
v 2.171 -2.058 0.050
v 2.171 -2.058 0.050
v 0.571 -2.082 0.050
v 0.571 -1.488 0.050
v 0.571 -0.012 0.050
v 0.571 0.117 0.050
v 2.176 0.121 0.050
v 2.596 -1.580 0.050
v 0.571 -1.488 0.050
v 2.176 0.121 0.050
v 0.571 -1.488 0.050
v 0.571 -0.012 0.050
v 2.176 0.121 0.050
v 2.171 -2.058 0.050
v 2.676 -3.787 0.050
v 2.296 -4.169 0.050
v 2.171 -2.058 0.050
v 0.571 -4.159 0.050
v 0.571 -2.082 0.050
v 0.571 -4.159 0.050
v 2.171 -2.058 0.050
v 2.296 -4.169 0.050
v 6.102 1.903 0.050
v 4.102 0.369 0.050
v 4.476 2.052 0.050
v 4.500 -0.153 0.050
v 6.102 1.903 0.050
v 6.102 -0.171 0.050
v 6.102 1.903 0.050
v 4.500 -0.153 0.050
v 4.102 0.369 0.050
v 4.102 0.369 0.050
v 2.443 0.398 0.050
v 2.369 2.246 0.050
v 2.369 2.246 0.050
v 4.476 2.052 0.050
v 4.102 0.369 0.050
v 2.443 0.398 0.050
v 2.176 0.121 0.050
v 0.571 0.117 0.050
v 2.443 0.398 0.050
v 0.571 2.411 0.050
v 2.369 2.246 0.050
v 0.571 2.411 0.050
v 2.443 0.398 0.050
v 0.571 0.117 0.050
v -2.390 2.524 0.000
v -1.677 2.676 0.000
v -1.741 1.715 0.000
v -2.390 2.524 0.000
v -2.546 2.529 0.000
v -2.486 2.750 0.000
v -1.677 2.676 0.000
v -2.390 2.524 0.000
v -2.486 2.750 0.000
v -3.583 2.543 0.000
v -4.510 1.985 0.000
v -4.416 2.926 0.000
v -4.416 2.926 0.000
v -3.622 2.854 0.000
v -3.583 2.543 0.000
v -3.556 2.559 0.000
v -3.583 2.543 0.000
v -3.622 2.854 0.000
v -3.556 2.559 0.000
v -2.486 2.750 0.000
v -2.546 2.529 0.000
v -2.486 2.750 0.000
v -3.556 2.559 0.000
v -3.622 2.854 0.000
v 0.571 -4.004 1.114
v 0.571 -3.126 2.495
v 0.571 -1.488 0.928
v 0.571 -1.488 0.928
v 0.571 -1.488 0.050
v 0.571 -3.935 0.050
v 0.571 -3.935 0.050
v 0.571 -4.004 1.114
v 0.571 -1.488 0.928
v 0.571 -1.488 2.193
v 0.571 -3.136 2.736
v 0.571 0.499 2.736
v 0.571 0.499 2.736
v 0.571 -0.012 2.195
v 0.571 -1.488 2.193
v 0.571 -1.488 2.193
v 0.571 -1.488 0.928
v 0.571 -3.126 2.495
v 0.571 -3.136 2.736
v 0.571 -1.488 2.193
v 0.571 -3.126 2.495
v 0.571 -6.160 2.736
v 0.571 -4.004 1.114
v 0.571 -6.160 1.948
v 0.571 -3.126 2.495
v 0.571 -6.160 2.736
v 0.571 -3.136 2.736
v 0.571 -4.004 1.114
v 0.571 -6.160 2.736
v 0.571 -3.126 2.495
v 0.571 -4.004 1.114
v 0.571 -3.935 0.050
v 0.571 -6.160 0.050
v 0.571 -6.160 0.050
v 0.571 -6.160 1.948
v 0.571 -4.004 1.114
v 0.571 2.411 1.267
v 0.571 2.411 0.050
v 0.571 -0.012 0.050
v 0.571 -0.012 0.050
v 0.571 -0.012 1.488
v 0.571 2.411 1.267
v 0.571 -0.012 1.488
v 0.571 -0.012 2.195
v 0.571 0.499 2.736
v 0.571 0.499 2.736
v 0.571 2.411 2.736
v 0.571 2.411 1.267
v 0.571 2.411 1.267
v 0.571 -0.012 1.488
v 0.571 0.499 2.736
v 0.000 -0.012 0.000
v 0.571 -1.488 0.050
v 0.000 -1.488 -0.000
v 0.571 -1.488 0.050
v 0.000 -0.012 0.000
v 0.571 -0.012 0.050
v -0.000 -0.012 1.115
v 0.571 -0.012 0.050
v -0.000 -0.012 0.000
v 0.571 -0.012 0.050
v -0.000 -0.012 1.115
v 0.571 -0.012 1.115
v 0.571 -0.012 1.115
v -0.000 -0.012 2.195
v 0.571 -0.012 2.195
v -0.000 -0.012 2.195
v 0.571 -0.012 1.115
v -0.000 -0.012 1.115
v 0.571 -0.012 2.195
v 1.306 -1.292 0.050
v 0.571 -0.012 0.050
v 1.306 -1.292 0.050
v 0.571 -0.012 2.195
v 1.306 -1.292 2.195
v -5.442 -0.091 0.000
v -5.442 1.479 0.000
v -5.442 1.479 1.000
v -5.442 1.479 1.000
v -5.442 -0.091 1.000
v -5.442 -0.091 0.000
v -3.556 2.559 0.000
v -2.390 2.524 0.000
v -2.390 2.524 1.000
v -2.390 2.524 1.000
v -3.556 2.559 1.000
v -3.556 2.559 0.000
v -1.741 1.715 1.000
v -2.390 2.524 1.000
v -2.390 2.524 0.000
v -2.390 2.524 0.000
v -1.741 1.715 0.000
v -1.741 1.715 1.000
v -4.510 1.985 0.000
v -4.510 1.985 1.000
v -5.442 1.479 1.000
v -5.442 1.479 1.000
v -5.442 1.479 0.000
v -4.510 1.985 0.000
v -3.556 2.559 1.000
v -4.510 1.985 0.000
v -3.556 2.559 0.000
v -4.510 1.985 0.000
v -3.556 2.559 1.000
v -4.510 1.985 1.000

usemtl Patch_1_Mat_CR1_paintedConcrete
f 3 2 1
f 6 5 4

usemtl Patch_2_Mat_CR1_paintedConcrete
f 9 8 7
f 12 11 10
f 15 14 13
f 18 17 16

usemtl Patch_3_Mat_CR1_paintedConcrete
f 21 20 19
f 24 23 22
f 27 26 25

usemtl Patch_4_Mat_CR1_paintedConcrete
f 30 29 28
f 33 32 31
f 36 35 34
f 39 38 37

usemtl Patch_5_Mat_CR1_paintedConcrete
f 42 41 40
f 45 44 43
f 48 47 46

usemtl Patch_6_Mat_CR1_paintedConcrete
f 51 50 49
f 54 53 52
f 57 56 55

usemtl Patch_7_Mat_CR1_paintedConcrete
f 60 59 58
f 63 62 61
f 66 65 64

usemtl Patch_8_Mat_CR1_paintedConcrete
f 69 68 67
f 72 71 70
f 75 74 73

usemtl Patch_9_Mat_CR1_paintedConcrete
f 78 77 76
f 81 80 79
f 84 83 82
f 87 86 85

usemtl Patch_10_Mat_CR1_paintedConcrete
f 90 89 88
f 93 92 91
f 96 95 94

usemtl Patch_11_Mat_CR1_paintedConcrete
f 99 98 97
f 102 101 100

usemtl Patch_12_Mat_CR1_paintedConcrete
f 105 104 103
f 108 107 106
f 111 110 109

usemtl Patch_13_Mat_CR1_concrete
f 114 113 112
f 117 116 115
f 120 119 118

usemtl Patch_14_Mat_CR1_concrete
f 123 122 121
f 126 125 124
f 129 128 127
f 132 131 130
f 135 134 133

usemtl Patch_15_Mat_CR1_concrete
f 138 137 136
f 141 140 139

usemtl Patch_16_Mat_CR1_concrete
f 144 143 142
f 147 146 145
f 150 149 148

usemtl Patch_17_Mat_CR1_tablesEquipment
f 153 152 151
f 156 155 154
f 159 158 157

usemtl Patch_18_Mat_CR1_tablesEquipment
f 162 161 160
f 165 164 163

usemtl Patch_19_Mat_CR1_tablesEquipment
f 168 167 166
f 171 170 169

usemtl Patch_20_Mat_CR1_tablesEquipment
f 174 173 172
f 177 176 175
f 180 179 178
f 183 182 181

usemtl Patch_21_Mat_CR1_tablesEquipment
f 186 185 184
f 189 188 187
f 192 191 190
f 195 194 193

usemtl Patch_22_Mat_CR1_tablesEquipment
f 198 197 196
f 201 200 199
f 204 203 202
f 207 206 205

usemtl Patch_23_Mat_CR1_tablesEquipment
f 210 209 208
f 213 212 211
f 216 215 214

usemtl Patch_24_Mat_CR1_tablesEquipment
f 219 218 217
f 222 221 220
f 225 224 223

usemtl Patch_25_Mat_CR1_tablesEquipment
f 228 227 226
f 231 230 229

usemtl Patch_26_Mat_CR1_tablesEquipment
f 234 233 232
f 237 236 235
f 240 239 238

usemtl Patch_27_Mat_CR1_tablesEquipment
f 243 242 241
f 246 245 244
f 249 248 247

usemtl Patch_28_Mat_CR1_tablesEquipment
f 252 251 250
f 255 254 253
f 258 257 256
f 261 260 259

usemtl Patch_29_Mat_CR1_tablesEquipment
f 264 263 262
f 267 266 265
f 270 269 268

usemtl Patch_30_Mat_CR1_tablesEquipment
f 273 272 271
f 276 275 274
f 279 278 277

usemtl Patch_31_Mat_CR1_tablesEquipment
f 282 281 280
f 285 284 283
f 288 287 286

usemtl Patch_32_Mat_CR1_tablesEquipment
f 291 290 289
f 294 293 292
f 297 296 295
f 300 299 298

usemtl Patch_33_Mat_CR1_tablesEquipment
f 303 302 301
f 306 305 304
f 309 308 307
f 312 311 310

usemtl Patch_34_Mat_CR1_tablesEquipment
f 315 314 313
f 318 317 316
f 321 320 319
f 324 323 322

usemtl Patch_35_Mat_CR1_tablesEquipment
f 327 326 325
f 330 329 328
f 333 332 331
f 336 335 334

usemtl Patch_36_Mat_CR1_tablesEquipment
f 339 338 337
f 342 341 340

usemtl Patch_37_Mat_CR1_tablesEquipment
f 345 344 343
f 348 347 346
f 351 350 349
f 354 353 352
f 357 356 355
f 360 359 358

usemtl Patch_38_Mat_CR1_tablesEquipment
f 363 362 361
f 366 365 364
f 369 368 367

usemtl Patch_39_Mat_CR1_tablesEquipment
f 372 371 370
f 375 374 373
f 378 377 376
f 381 380 379
f 384 383 382

usemtl Patch_40_Mat_CR1_paintedConcrete
f 387 386 385
f 390 389 388

usemtl Patch_41_Mat_CR1_paintedConcrete
f 393 392 391
f 396 395 394

usemtl Patch_42_Mat_CR1_paintedConcrete
f 399 398 397
f 402 401 400

usemtl Patch_43_Mat_CR1_paintedConcrete
f 405 404 403
f 408 407 406
f 411 410 409

usemtl Patch_44_Mat_CR1_paintedConcrete
f 414 413 412
f 417 416 415
f 420 419 418

usemtl Patch_45_Mat_CR1_paintedConcrete
f 423 422 421
f 426 425 424

usemtl Patch_46_Mat_CR1_paintedConcrete
f 429 428 427
f 432 431 430
f 435 434 433

usemtl Patch_47_Mat_CR1_paintedConcrete
f 438 437 436
f 441 440 439
f 444 443 442

usemtl Patch_48_Mat_CR1_paintedConcrete
f 447 446 445
f 450 449 448

usemtl Patch_49_Mat_CR1_paintedConcrete
f 453 452 451
f 456 455 454
f 459 458 457

usemtl Patch_50_Mat_CR1_paintedConcrete
f 462 461 460
f 465 464 463

usemtl Patch_51_Mat_CR1_paintedConcrete
f 468 467 466
f 471 470 469

usemtl Patch_52_Mat_CR1_paintedConcrete
f 474 473 472
f 477 476 475

usemtl Patch_53_Mat_CR1_paintedConcrete
f 480 479 478
f 483 482 481
f 486 485 484

usemtl Patch_54_Mat_CR1_absorber
f 489 488 487
f 492 491 490

usemtl Patch_55_Mat_CR1_absorber
f 495 494 493
f 498 497 496
f 501 500 499

usemtl Patch_56_Mat_CR1_absorber
f 504 503 502
f 507 506 505
f 510 509 508

usemtl Patch_57_Mat_CR1_absorber
f 513 512 511
f 516 515 514

usemtl Patch_58_Mat_CR1_absorber
f 519 518 517
f 522 521 520

usemtl Patch_59_Mat_CR1_absorber
f 525 524 523
f 528 527 526

usemtl Patch_60_Mat_CR1_absorber
f 531 530 529
f 534 533 532

usemtl Patch_61_Mat_CR1_absorber
f 537 536 535
f 540 539 538

usemtl Patch_62_Mat_CR1_absorber
f 543 542 541
f 546 545 544
f 549 548 547

usemtl Patch_63_Mat_CR1_absorber
f 552 551 550
f 555 554 553
f 558 557 556

usemtl Patch_64_Mat_CR1_unknown
f 561 560 559
f 564 563 562

usemtl Patch_65_Mat_CR1_unknown
f 567 566 565
f 570 569 568

usemtl Patch_66_Mat_CR1_unknown
f 573 572 571
f 576 575 574

usemtl Patch_67_Mat_CR1_unknown
f 579 578 577
f 582 581 580

usemtl Patch_68_Mat_CR1_absorber
f 585 584 583
f 588 587 586

usemtl Patch_69_Mat_CR1_absorber
f 591 590 589
f 594 593 592

usemtl Patch_70_Mat_CR1_absorber
f 597 596 595
f 600 599 598
f 603 602 601
f 606 605 604

usemtl Patch_71_Mat_CR1_absorber
f 609 608 607
f 612 611 610

usemtl Patch_72_Mat_CR1_absorber
f 615 614 613
f 618 617 616

usemtl Patch_73_Mat_CR1_absorber
f 621 620 619
f 624 623 622

usemtl Patch_74_Mat_CR1_tablesEquipment
f 627 626 625
f 630 629 628
f 633 632 631
f 636 635 634
f 639 638 637

usemtl Patch_75_Mat_CR1_tablesEquipment
f 642 641 640
f 645 644 643
f 648 647 646
f 651 650 649

usemtl Patch_76_Mat_CR1_tablesEquipment
f 654 653 652
f 657 656 655
f 660 659 658
f 663 662 661
f 666 665 664

usemtl Patch_77_Mat_CR1_tablesEquipment
f 669 668 667
f 672 671 670
f 675 674 673
f 678 677 676

usemtl Patch_78_Mat_CR1_tablesEquipment
f 681 680 679
f 684 683 682
f 687 686 685
f 690 689 688
f 693 692 691
f 696 695 694

usemtl Patch_79_Mat_CR1_tablesEquipment
f 699 698 697
f 702 701 700
f 705 704 703

usemtl Patch_80_Mat_CR1_tablesEquipment
f 708 707 706
f 711 710 709
f 714 713 712

usemtl Patch_81_Mat_CR1_tablesEquipment
f 717 716 715
f 720 719 718
f 723 722 721
f 726 725 724

usemtl Patch_82_Mat_CR1_unknown
f 729 728 727
f 732 731 730

usemtl Patch_83_Mat_CR1_tablesEquipment
f 735 734 733
f 738 737 736

usemtl Patch_84_Mat_CR1_tablesEquipment
f 741 740 739
f 744 743 742

usemtl Patch_85_Mat_CR1_paintedConcrete
f 747 746 745
f 750 749 748

usemtl Patch_86_Mat_CR1_paintedConcrete
f 753 752 751
f 756 755 754

usemtl Patch_87_Mat_CR1_paintedConcrete
f 759 758 757
f 762 761 760
f 765 764 763
f 768 767 766

usemtl Patch_88_Mat_CR1_paintedConcrete
f 771 770 769
f 774 773 772
f 777 776 775

usemtl Patch_89_Mat_CR1_paintedConcrete
f 780 779 778
f 783 782 781
f 786 785 784
f 789 788 787

usemtl Patch_90_Mat_CR1_paintedConcrete
f 792 791 790
f 795 794 793
f 798 797 796

usemtl Patch_91_Mat_CR1_paintedConcrete
f 801 800 799
f 804 803 802

usemtl Patch_92_Mat_CR1_paintedConcrete
f 807 806 805
f 810 809 808
f 813 812 811
f 816 815 814

usemtl Patch_93_Mat_CR1_paintedConcrete
f 819 818 817
f 822 821 820
f 825 824 823
f 828 827 826
f 831 830 829

usemtl Patch_94_Mat_CR1_paintedConcrete
f 834 833 832
f 837 836 835
f 840 839 838

usemtl Patch_95_Mat_CR1_paintedConcrete
f 843 842 841
f 846 845 844
f 849 848 847

usemtl Patch_96_Mat_CR1_paintedConcrete
f 852 851 850
f 855 854 853

usemtl Patch_97_Mat_CR1_paintedConcrete
f 858 857 856
f 861 860 859
f 864 863 862

usemtl Patch_98_Mat_CR1_tablesEquipment
f 867 866 865
f 870 869 868
f 873 872 871

usemtl Patch_99_Mat_CR1_tablesEquipment
f 876 875 874
f 879 878 877

usemtl Patch_100_Mat_CR1_tablesEquipment
f 882 881 880
f 885 884 883
f 888 887 886

usemtl Patch_101_Mat_CR1_paintedConcrete
f 891 890 889
f 894 893 892
f 897 896 895

usemtl Patch_102_Mat_CR1_paintedConcrete
f 900 899 898
f 903 902 901
f 906 905 904
f 909 908 907

usemtl Patch_103_Mat_CR1_paintedConcrete
f 912 911 910
f 915 914 913
f 918 917 916

usemtl Patch_104_Mat_CR1_paintedConcrete
f 921 920 919
f 924 923 922

usemtl Patch_105_Mat_CR1_paintedConcrete
f 927 926 925
f 930 929 928

usemtl Patch_106_Mat_CR1_paintedConcrete
f 933 932 931
f 936 935 934
f 939 938 937

usemtl Patch_107_Mat_CR1_tablesEquipment
f 942 941 940
f 945 944 943

usemtl Patch_108_Mat_CR1_tablesEquipment
f 948 947 946
f 951 950 949

usemtl Patch_109_Mat_CR1_tablesEquipment
f 954 953 952
f 957 956 955

usemtl Patch_110_Mat_CR1_absorber
f 960 959 958
f 963 962 961

usemtl Patch_111_Mat_CR1_unknown
f 966 965 964
f 969 968 967

usemtl Patch_112_Mat_CR1_unknown
f 972 971 970
f 975 974 973

usemtl Patch_113_Mat_CR1_unknown
f 978 977 976
f 981 980 979

usemtl Patch_114_Mat_CR1_unknown
f 984 983 982
f 987 986 985

usemtl Patch_115_Mat_CR1_unknown
f 990 989 988
f 993 992 991

