mtllib mesh.mtl

v 6.102 -3.906 2.736
v 4.790 -5.131 2.736
v 6.102 -4.775 2.736
v 4.790 -5.131 2.736
v 6.102 -3.906 2.736
v 4.232 -3.906 2.736
v 4.790 -5.131 2.736
v 4.232 -3.906 2.736
v 4.232 -4.570 2.736
v 4.790 -5.131 2.736
v 4.232 -4.570 2.736
v 3.333 -5.218 2.736
v 3.333 -5.218 2.736
v 3.343 -6.160 2.736
v 4.751 -6.160 2.736
v 4.751 -6.160 2.736
v 4.790 -5.131 2.736
v 3.333 -5.218 2.736
v 4.790 -5.131 2.736
v 4.751 -6.160 2.736
v 6.102 -6.160 2.736
v 6.102 -6.160 2.736
v 6.102 -4.775 2.736
v 4.790 -5.131 2.736
v 4.232 -3.906 2.736
v 3.333 -5.218 2.736
v 4.232 -4.570 2.736
v 3.333 -5.218 2.736
v 4.232 -3.906 2.736
v 2.385 -3.906 2.736
v 3.333 -5.218 2.736
v 2.385 -3.906 2.736
v 2.389 -4.610 2.736
v 3.333 -5.218 2.736
v 2.389 -4.610 2.736
v 1.887 -5.128 2.736
v 3.333 -5.218 2.736
v 1.923 -6.160 2.736
v 3.343 -6.160 2.736
v 1.923 -6.160 2.736
v 3.333 -5.218 2.736
v 1.887 -5.128 2.736
v 1.887 -5.128 2.736
v 2.389 -4.610 2.736
v 2.385 -3.906 2.736
v 1.887 -5.128 2.736
v 0.571 -3.906 2.736
v 0.571 -4.817 2.736
v 0.571 -3.906 2.736
v 1.887 -5.128 2.736
v 2.385 -3.906 2.736
v 1.887 -5.128 2.736
v 0.571 -4.817 2.736
v 0.571 -6.160 2.736
v 0.571 -6.160 2.736
v 1.923 -6.160 2.736
v 1.887 -5.128 2.736
v 1.930 0.930 2.736
v 0.571 0.930 2.736
v 0.571 0.930 2.276
v 0.571 0.930 2.276
v 1.931 0.930 2.276
v 1.930 0.930 2.736
v 1.931 0.930 2.276
v 3.301 0.930 2.276
v 3.301 0.930 2.736
v 3.301 0.930 2.736
v 1.930 0.930 2.736
v 1.931 0.930 2.276
v 3.301 0.930 2.736
v 4.691 0.930 2.276
v 4.693 0.930 2.736
v 4.691 0.930 2.276
v 3.301 0.930 2.736
v 3.301 0.930 2.276
v 4.693 0.930 2.736
v 6.102 0.930 2.276
v 6.102 0.930 2.736
v 6.102 0.930 2.276
v 4.693 0.930 2.736
v 4.691 0.930 2.276
v 5.039 0.499 2.276
v 6.102 0.499 2.276
v 6.102 0.930 2.276
v 6.102 0.930 2.276
v 5.038 0.930 2.276
v 5.039 0.499 2.276
v 5.038 0.930 2.276
v 3.969 0.930 2.276
v 3.968 0.499 2.276
v 3.968 0.499 2.276
v 5.039 0.499 2.276
v 5.038 0.930 2.276
v 3.968 0.499 2.276
v 2.858 0.930 2.276
v 2.856 0.499 2.276
v 2.858 0.930 2.276
v 3.968 0.499 2.276
v 3.969 0.930 2.276
v 2.856 0.499 2.276
v 1.722 0.930 2.276
v 1.723 0.499 2.276
v 1.722 0.930 2.276
v 2.856 0.499 2.276
v 2.858 0.930 2.276
v 1.722 0.930 2.276
v 0.571 0.930 2.276
v 0.571 0.499 2.276
v 0.571 0.499 2.276
v 1.723 0.499 2.276
v 1.722 0.930 2.276
v 4.745 0.499 2.736
v 6.102 0.499 2.736
v 6.102 0.499 2.276
v 6.102 0.499 2.276
v 4.743 0.499 2.276
v 4.745 0.499 2.736
v 4.743 0.499 2.276
v 3.375 0.499 2.276
v 3.374 0.499 2.736
v 3.374 0.499 2.736
v 4.745 0.499 2.736
v 4.743 0.499 2.276
v 3.374 0.499 2.736
v 1.983 0.499 2.276
v 1.982 0.499 2.736
v 1.983 0.499 2.276
v 3.374 0.499 2.736
v 3.375 0.499 2.276
v 1.982 0.499 2.736
v 0.571 0.499 2.276
v 0.571 0.499 2.736
v 0.571 0.499 2.276
v 1.982 0.499 2.736
v 1.983 0.499 2.276
v 4.581 0.930 2.736
v 6.102 0.930 2.736
v 6.102 1.903 2.736
v 6.102 1.903 2.736
v 4.636 2.038 2.736
v 4.581 0.930 2.736
v 4.581 0.930 2.736
v 3.222 2.168 2.736
v 3.167 0.930 2.736
v 3.222 2.168 2.736
v 4.581 0.930 2.736
v 4.636 2.038 2.736
v 3.167 0.930 2.736
v 1.890 2.290 2.736
v 1.818 0.930 2.736
v 1.890 2.290 2.736
v 3.167 0.930 2.736
v 3.222 2.168 2.736
v 1.890 2.290 2.736
v 0.571 2.411 2.736
v 0.571 0.930 2.736
v 0.571 0.930 2.736
v 1.818 0.930 2.736
v 1.890 2.290 2.736
v 1.946 -3.483 2.736
v 0.571 -3.483 2.736
v 0.571 -3.483 2.276
v 0.571 -3.483 2.276
v 1.947 -3.483 2.276
v 1.946 -3.483 2.736
v 1.947 -3.483 2.276
v 3.336 -3.483 2.276
v 3.337 -3.483 2.736
v 3.337 -3.483 2.736
v 1.946 -3.483 2.736
v 1.947 -3.483 2.276
v 3.337 -3.483 2.736
v 4.725 -3.483 2.276
v 4.725 -3.483 2.736
v 4.725 -3.483 2.276
v 3.337 -3.483 2.736
v 3.336 -3.483 2.276
v 4.725 -3.483 2.736
v 6.102 -3.483 2.276
v 6.102 -3.483 2.736
v 6.102 -3.483 2.276
v 4.725 -3.483 2.736
v 4.725 -3.483 2.276
v 4.943 -3.906 2.276
v 6.102 -3.906 2.276
v 6.102 -3.483 2.276
v 6.102 -3.483 2.276
v 4.942 -3.483 2.276
v 4.943 -3.906 2.276
v 4.943 -3.906 2.276
v 3.810 -3.483 2.276
v 3.808 -3.906 2.276
v 3.810 -3.483 2.276
v 4.943 -3.906 2.276
v 4.942 -3.483 2.276
v 3.808 -3.906 2.276
v 2.698 -3.483 2.276
v 2.698 -3.906 2.276
v 2.698 -3.483 2.276
v 3.808 -3.906 2.276
v 3.810 -3.483 2.276
v 2.698 -3.483 2.276
v 1.630 -3.483 2.276
v 1.630 -3.906 2.276
v 1.630 -3.906 2.276
v 2.698 -3.906 2.276
v 2.698 -3.483 2.276
v 1.630 -3.483 2.276
v 0.571 -3.483 2.276
v 0.571 -3.906 2.276
v 0.571 -3.906 2.276
v 1.630 -3.906 2.276
v 1.630 -3.483 2.276
v 4.691 -3.906 2.736
v 6.102 -3.906 2.736
v 6.102 -3.906 2.276
v 6.102 -3.906 2.276
v 4.690 -3.906 2.276
v 4.691 -3.906 2.736
v 4.690 -3.906 2.276
v 3.301 -3.906 2.276
v 3.301 -3.906 2.736
v 3.301 -3.906 2.736
v 4.691 -3.906 2.736
v 4.690 -3.906 2.276
v 3.301 -3.906 2.736
v 1.935 -3.906 2.276
v 1.934 -3.906 2.736
v 1.935 -3.906 2.276
v 3.301 -3.906 2.736
v 3.301 -3.906 2.276
v 1.934 -3.906 2.736
v 0.571 -3.906 2.276
v 0.571 -3.906 2.736
v 0.571 -3.906 2.276
v 1.934 -3.906 2.736
v 1.935 -3.906 2.276
v 6.102 0.499 2.736
v 4.835 -0.877 2.736
v 6.102 -0.784 2.736
v 4.835 -0.877 2.736
v 6.102 0.499 2.736
v 4.673 0.499 2.736
v 4.835 -0.877 2.736
v 4.673 0.499 2.736
v 4.680 -0.739 2.736
v 3.278 -0.740 2.736
v 3.505 -0.938 2.736
v 4.680 -0.739 2.736
v 3.278 -0.740 2.736
v 4.673 0.499 2.736
v 3.276 0.499 2.736
v 4.673 0.499 2.736
v 3.278 -0.740 2.736
v 4.680 -0.739 2.736
v 6.102 -0.784 2.736
v 4.843 -2.113 2.736
v 6.102 -2.224 2.736
v 4.843 -2.113 2.736
v 6.102 -0.784 2.736
v 4.835 -0.877 2.736
v 4.835 -0.877 2.736
v 4.680 -0.739 2.736
v 3.505 -0.938 2.736
v 4.843 -2.113 2.736
v 3.496 -2.049 2.736
v 4.643 -2.291 2.736
v 3.505 -0.938 2.736
v 4.843 -2.113 2.736
v 4.835 -0.877 2.736
v 4.843 -2.113 2.736
v 3.505 -0.938 2.736
v 3.496 -2.049 2.736
v 1.906 -0.781 2.736
v 2.072 -0.940 2.736
v 3.278 -0.740 2.736
v 3.278 -0.740 2.736
v 3.276 0.499 2.736
v 1.917 0.499 2.736
v 1.917 0.499 2.736
v 1.906 -0.781 2.736
v 3.278 -0.740 2.736
v 4.843 -2.113 2.736
v 4.643 -2.291 2.736
v 4.641 -3.483 2.736
v 4.843 -2.113 2.736
v 6.102 -3.483 2.736
v 6.102 -2.224 2.736
v 6.102 -3.483 2.736
v 4.843 -2.113 2.736
v 4.641 -3.483 2.736
v 4.643 -2.291 2.736
v 3.496 -2.049 2.736
v 3.229 -2.273 2.736
v 4.643 -2.291 2.736
v 3.216 -3.483 2.736
v 4.641 -3.483 2.736
v 3.216 -3.483 2.736
v 4.643 -2.291 2.736
v 3.229 -2.273 2.736
v 3.278 -0.740 2.736
v 2.072 -0.940 2.736
v 2.063 -2.027 2.736
v 3.278 -0.740 2.736
v 3.229 -2.273 2.736
v 3.496 -2.049 2.736
v 3.496 -2.049 2.736
v 3.505 -0.938 2.736
v 3.278 -0.740 2.736
v 3.229 -2.273 2.736
v 3.278 -0.740 2.736
v 2.063 -2.027 2.736
v 1.906 -0.781 2.736
v 1.917 0.499 2.736
v 0.571 0.499 2.736
v 0.571 0.499 2.736
v 0.571 -0.874 2.736
v 1.906 -0.781 2.736
v 3.229 -2.273 2.736
v 2.063 -2.027 2.736
v 1.867 -2.204 2.736
v 3.229 -2.273 2.736
v 1.871 -3.483 2.736
v 3.216 -3.483 2.736
v 1.871 -3.483 2.736
v 3.229 -2.273 2.736
v 1.867 -2.204 2.736
v 1.906 -0.781 2.736
v 2.063 -2.027 2.736
v 2.072 -0.940 2.736
v 1.867 -2.204 2.736
v 1.906 -0.781 2.736
v 0.571 -0.874 2.736
v 0.571 -0.874 2.736
v 0.571 -2.088 2.736
v 1.867 -2.204 2.736
v 2.063 -2.027 2.736
v 1.906 -0.781 2.736
v 1.867 -2.204 2.736
v 1.867 -2.204 2.736
v 0.571 -2.088 2.736
v 0.571 -3.483 2.736
v 0.571 -3.483 2.736
v 1.871 -3.483 2.736
v 1.867 -2.204 2.736
v -4.874 -3.648 1.906
v -5.111 -3.648 2.768
v -6.251 -3.648 2.768
v -4.874 -3.648 1.906
v -6.251 -3.648 1.100
v -5.248 -3.648 1.100
v -6.251 -3.648 1.100
v -4.874 -3.648 1.906
v -6.251 -3.648 2.768
v -3.683 -3.648 1.767
v -3.804 -3.648 1.100
v -3.518 -3.648 1.381
v -4.522 -3.648 1.100
v -3.683 -3.648 1.767
v -4.874 -3.648 1.906
v -4.874 -3.648 1.906
v -5.248 -3.648 1.100
v -4.522 -3.648 1.100
v -3.683 -3.648 1.767
v -4.522 -3.648 1.100
v -3.804 -3.648 1.100
v -3.804 -3.648 1.100
v -4.522 -3.648 1.100
v -4.522 -3.648 0.394
v -4.874 -3.648 1.906
v -3.683 -3.648 1.767
v -3.406 -3.648 2.768
v -3.406 -3.648 2.768
v -5.111 -3.648 2.768
v -4.874 -3.648 1.906
v -2.293 -3.648 2.768
v -1.134 -3.648 1.100
v -1.161 -3.648 2.768
v -1.134 -3.648 1.100
v -2.293 -3.648 2.768
v -2.355 -3.648 1.100
v -2.803 -3.648 -0.000
v -3.804 -3.648 1.100
v -4.522 -3.648 0.394
v -4.522 -3.648 0.394
v -4.522 -3.648 0.000
v -2.803 -3.648 -0.000
v -2.803 -3.648 -0.000
v -2.803 -3.648 1.054
v -2.903 -3.648 1.100
v -3.804 -3.648 1.100
v -2.803 -3.648 -0.000
v -2.903 -3.648 1.100
v -3.518 -3.648 1.381
v -3.804 -3.648 1.100
v -2.903 -3.648 1.100
v -1.134 -3.648 1.100
v -0.000 -3.648 1.100
v -0.000 -3.648 2.768
v -0.000 -3.648 2.768
v -1.161 -3.648 2.768
v -1.134 -3.648 1.100
v -2.293 -3.648 2.768
v -2.903 -3.648 1.100
v -2.355 -3.648 1.100
v -3.683 -3.648 1.767
v -2.293 -3.648 2.768
v -3.406 -3.648 2.768
v -2.903 -3.648 1.100
v -3.683 -3.648 1.767
v -3.518 -3.648 1.381
v -2.293 -3.648 2.768
v -3.683 -3.648 1.767
v -2.903 -3.648 1.100
v -2.803 -3.648 1.054
v -2.803 -3.648 1.100
v -2.903 -3.648 1.100
v -1.359 2.647 2.768
v 0.000 0.930 2.768
v -0.000 2.523 2.768
v 0.000 0.930 2.768
v -1.359 2.647 2.768
v -1.547 0.930 2.768
v -4.809 2.110 2.768
v -4.387 1.530 2.768
v -3.038 2.304 2.768
v -3.038 2.304 2.768
v -2.914 2.789 2.768
v -4.751 2.957 2.768
v -4.751 2.957 2.768
v -4.809 2.110 2.768
v -3.038 2.304 2.768
v -1.359 2.647 2.768
v -2.559 0.930 2.768
v -1.547 0.930 2.768
v -3.038 2.304 2.768
v -1.359 2.647 2.768
v -2.914 2.789 2.768
v -2.559 0.930 2.768
v -1.359 2.647 2.768
v -3.038 2.304 2.768
v -2.559 0.930 2.768
v -4.387 1.530 2.768
v -4.381 0.930 2.768
v -4.387 1.530 2.768
v -2.559 0.930 2.768
v -3.038 2.304 2.768
v -6.251 0.930 2.768
v -4.809 2.110 2.768
v -6.251 1.737 2.768
v -4.387 1.530 2.768
v -6.251 0.930 2.768
v -4.381 0.930 2.768
v -4.809 2.110 2.768
v -6.251 0.930 2.768
v -4.387 1.530 2.768
v -4.809 2.110 2.768
v -4.751 2.957 2.768
v -6.251 3.094 2.768
v -6.251 3.094 2.768
v -6.251 1.737 2.768
v -4.809 2.110 2.768
v -6.251 1.864 1.430
v -6.251 1.929 2.768
v -6.251 3.094 2.768
v -6.251 3.094 2.768
v -6.251 3.094 1.100
v -6.251 2.296 1.100
v -6.251 2.296 1.100
v -6.251 1.864 1.430
v -6.251 3.094 2.768
v -6.251 2.156 1.100
v -6.251 1.864 1.430
v -6.251 2.296 1.100
v -6.251 2.156 1.100
v -6.251 2.156 0.000
v -6.251 0.867 0.000
v -6.251 1.864 1.430
v -6.251 2.156 1.100
v -6.251 0.902 1.245
v -6.251 2.156 1.100
v -6.251 0.867 0.000
v -6.251 0.902 1.245
v -6.251 -0.405 1.255
v -6.251 0.517 1.547
v -6.251 0.902 1.245
v -6.251 -0.405 1.255
v -6.251 0.867 0.000
v -6.251 -0.411 0.000
v -6.251 0.867 0.000
v -6.251 -0.405 1.255
v -6.251 0.902 1.245
v -6.251 0.930 2.276
v -6.251 0.902 1.245
v -6.251 0.517 1.547
v -6.251 0.517 1.547
v -6.251 0.549 2.276
v -6.251 0.930 2.276
v -6.251 0.930 2.276
v -6.251 0.930 2.768
v -6.251 1.929 2.768
v -6.251 0.902 1.245
v -6.251 0.930 2.276
v -6.251 1.864 1.430
v -6.251 1.864 1.430
v -6.251 0.930 2.276
v -6.251 1.929 2.768
v -6.251 -1.726 1.244
v -6.251 -0.906 1.573
v -6.251 -0.405 1.255
v -6.251 -0.405 1.255
v -6.251 -0.411 0.000
v -6.251 -1.708 -0.000
v -6.251 -1.708 -0.000
v -6.251 -1.726 1.244
v -6.251 -0.405 1.255
v -6.251 0.499 2.276
v -6.251 -0.405 1.255
v -6.251 -0.906 1.573
v -6.251 0.499 2.276
v -6.251 -0.895 2.768
v -6.251 0.499 2.768
v -6.251 0.499 2.276
v -6.251 0.549 2.276
v -6.251 0.517 1.547
v -6.251 -0.895 2.768
v -6.251 0.499 2.276
v -6.251 -0.906 1.573
v -6.251 -0.405 1.255
v -6.251 0.499 2.276
v -6.251 0.517 1.547
v -6.251 -3.053 1.100
v -6.251 -1.726 1.244
v -6.251 -1.708 -0.000
v -6.251 -1.708 -0.000
v -6.251 -3.053 0.000
v -6.251 -3.053 1.100
v -6.251 -3.053 1.100
v -6.251 -3.189 1.100
v -6.251 -2.279 1.548
v -6.251 -1.726 1.244
v -6.251 -3.053 1.100
v -6.251 -2.279 1.548
v -6.251 -0.906 1.573
v -6.251 -1.726 1.244
v -6.251 -2.279 1.548
v -6.251 -2.279 1.548
v -6.251 -2.366 2.768
v -6.251 -0.895 2.768
v -6.251 -0.895 2.768
v -6.251 -0.906 1.573
v -6.251 -2.279 1.548
v -6.251 -3.648 2.768
v -6.251 -3.189 1.100
v -6.251 -3.648 1.100
v -6.251 -2.279 1.548
v -6.251 -3.648 2.768
v -6.251 -2.366 2.768
v -6.251 -3.648 2.768
v -6.251 -2.279 1.548
v -6.251 -3.189 1.100
v -1.173 0.499 2.768
v 0.000 0.499 2.768
v 0.000 0.499 2.276
v 0.000 0.499 2.276
v -1.174 0.499 2.276
v -1.173 0.499 2.768
v -1.174 0.499 2.276
v -2.380 0.499 2.276
v -2.381 0.499 2.768
v -2.381 0.499 2.768
v -1.173 0.499 2.768
v -1.174 0.499 2.276
v -2.380 0.499 2.276
v -3.635 0.499 2.276
v -3.634 0.499 2.768
v -3.634 0.499 2.768
v -2.381 0.499 2.768
v -2.380 0.499 2.276
v -3.634 0.499 2.768
v -4.927 0.499 2.276
v -4.928 0.499 2.768
v -4.927 0.499 2.276
v -3.634 0.499 2.768
v -3.635 0.499 2.276
v -4.928 0.499 2.768
v -6.251 0.499 2.276
v -6.251 0.499 2.768
v -6.251 0.499 2.276
v -4.928 0.499 2.768
v -4.927 0.499 2.276
v -1.214 0.499 2.276
v 0.000 0.499 2.276
v -0.000 0.930 2.276
v -0.000 0.930 2.276
v -1.215 0.930 2.276
v -1.214 0.499 2.276
v -1.215 0.930 2.276
v -2.435 0.930 2.276
v -2.435 0.499 2.276
v -2.435 0.499 2.276
v -1.214 0.499 2.276
v -1.215 0.930 2.276
v -2.435 0.499 2.276
v -3.696 0.930 2.276
v -3.698 0.499 2.276
v -3.696 0.930 2.276
v -2.435 0.499 2.276
v -2.435 0.930 2.276
v -3.696 0.930 2.276
v -4.976 0.930 2.276
v -4.974 0.499 2.276
v -4.974 0.499 2.276
v -3.698 0.499 2.276
v -3.696 0.930 2.276
v -4.976 0.930 2.276
v -6.251 0.930 2.276
v -6.251 0.499 2.276
v -6.251 0.499 2.276
v -4.974 0.499 2.276
v -4.976 0.930 2.276
v -5.001 0.930 2.276
v -6.251 0.930 2.768
v -6.251 0.930 2.276
v -6.251 0.930 2.768
v -5.001 0.930 2.276
v -5.001 0.930 2.768
v -5.001 0.930 2.768
v -3.769 0.930 2.276
v -3.769 0.930 2.768
v -3.769 0.930 2.276
v -5.001 0.930 2.768
v -5.001 0.930 2.276
v -3.769 0.930 2.276
v -2.529 0.930 2.276
v -2.530 0.930 2.768
v -2.530 0.930 2.768
v -3.769 0.930 2.768
v -3.769 0.930 2.276
v -2.529 0.930 2.276
v -1.272 0.930 2.276
v -1.273 0.930 2.768
v -1.273 0.930 2.768
v -2.530 0.930 2.768
v -2.529 0.930 2.276
v -1.272 0.930 2.276
v -0.000 0.930 2.276
v -0.000 0.930 2.768
v -0.000 0.930 2.768
v -1.273 0.930 2.768
v -1.272 0.930 2.276
v -1.208 -0.905 2.768
v -0.000 -0.975 2.768
v -0.000 0.499 2.768
v -0.000 0.499 2.768
v -1.199 0.499 2.768
v -1.208 -0.905 2.768
v -2.421 -0.832 2.768
v -1.402 -1.058 2.768
v -1.208 -0.905 2.768
v -2.421 -0.832 2.768
v -1.199 0.499 2.768
v -2.464 0.499 2.768
v -1.199 0.499 2.768
v -2.421 -0.832 2.768
v -1.208 -0.905 2.768
v -1.208 -0.905 2.768
v -1.402 -1.058 2.768
v -1.405 -2.236 2.768
v -1.405 -2.236 2.768
v 0.000 -2.428 2.768
v -0.000 -0.975 2.768
v -0.000 -0.975 2.768
v -1.208 -0.905 2.768
v -1.405 -2.236 2.768
v -2.913 -2.131 2.768
v -2.421 -0.832 2.768
v -2.913 -1.168 2.768
v -1.405 -2.236 2.768
v -2.913 -2.131 2.768
v -1.702 -2.514 2.768
v -2.421 -0.832 2.768
v -1.405 -2.236 2.768
v -1.402 -1.058 2.768
v -2.913 -2.131 2.768
v -1.405 -2.236 2.768
v -2.421 -0.832 2.768
v -1.405 -2.236 2.768
v -1.702 -2.514 2.768
v -1.712 -3.648 2.768
v -1.405 -2.236 2.768
v 0.000 -3.648 2.768
v 0.000 -2.428 2.768
v 0.000 -3.648 2.768
v -1.405 -2.236 2.768
v -1.712 -3.648 2.768
v -3.721 -0.802 2.768
v -2.913 -1.168 2.768
v -2.421 -0.832 2.768
v -3.721 -0.802 2.768
v -2.464 0.499 2.768
v -3.727 0.499 2.768
v -2.464 0.499 2.768
v -3.721 -0.802 2.768
v -2.421 -0.832 2.768
v -1.702 -2.514 2.768
v -2.913 -2.131 2.768
v -3.329 -2.491 2.768
v -3.329 -2.491 2.768
v -3.345 -3.648 2.768
v -1.712 -3.648 2.768
v -1.712 -3.648 2.768
v -1.702 -2.514 2.768
v -3.329 -2.491 2.768
v -5.034 -0.820 2.768
v -4.976 0.499 2.768
v -6.251 0.499 2.768
v -6.251 0.499 2.768
v -6.251 -1.038 2.768
v -5.034 -0.820 2.768
v -5.034 -0.820 2.768
v -4.536 -1.199 2.768
v -3.721 -0.802 2.768
v -3.721 -0.802 2.768
v -3.727 0.499 2.768
v -4.976 0.499 2.768
v -4.976 0.499 2.768
v -5.034 -0.820 2.768
v -3.721 -0.802 2.768
v -3.721 -0.802 2.768
v -4.536 -1.199 2.768
v -4.559 -2.094 2.768
v -3.721 -0.802 2.768
v -3.329 -2.491 2.768
v -2.913 -2.131 2.768
v -2.913 -2.131 2.768
v -2.913 -1.168 2.768
v -3.721 -0.802 2.768
v -3.329 -2.491 2.768
v -3.721 -0.802 2.768
v -4.559 -2.094 2.768
v -5.034 -0.820 2.768
v -6.251 -1.038 2.768
v -6.251 -2.181 2.768
v -5.034 -0.820 2.768
v -4.846 -2.362 2.768
v -4.559 -2.094 2.768
v -4.559 -2.094 2.768
v -4.536 -1.199 2.768
v -5.034 -0.820 2.768
v -4.846 -2.362 2.768
v -5.034 -0.820 2.768
v -6.251 -2.181 2.768
v -3.329 -2.491 2.768
v -4.559 -2.094 2.768
v -4.846 -2.362 2.768
v -3.329 -2.491 2.768
v -4.846 -3.648 2.768
v -3.345 -3.648 2.768
v -4.846 -3.648 2.768
v -3.329 -2.491 2.768
v -4.846 -2.362 2.768
v -4.846 -2.362 2.768
v -6.251 -2.181 2.768
v -6.251 -3.648 2.768
v -6.251 -3.648 2.768
v -4.846 -3.648 2.768
v -4.846 -2.362 2.768
v -1.621 2.671 1.895
v -1.525 2.662 2.768
v 0.000 2.523 2.768
v 0.000 2.523 2.768
v 0.000 2.523 1.100
v -0.974 2.612 1.100
v -0.974 2.612 1.100
v -1.621 2.671 1.895
v 0.000 2.523 2.768
v -1.677 2.676 1.100
v -1.621 2.671 1.895
v -0.974 2.612 1.100
v -1.677 2.676 1.100
v -1.677 2.676 0.000
v -2.050 2.710 0.000
v -1.621 2.671 1.895
v -1.677 2.676 1.100
v -2.589 2.759 1.399
v -1.677 2.676 1.100
v -2.050 2.710 0.000
v -2.589 2.759 1.399
v -3.273 2.822 2.768
v -3.330 2.827 1.493
v -4.699 2.952 1.415
v -4.699 2.952 1.415
v -4.889 2.969 2.768
v -3.273 2.822 2.768
v -3.330 2.827 1.493
v -3.273 2.822 2.768
v -3.233 2.818 1.571
v -3.273 2.822 2.768
v -2.589 2.759 1.399
v -3.233 2.818 1.571
v -1.621 2.671 1.895
v -3.273 2.822 2.768
v -1.525 2.662 2.768
v -3.273 2.822 2.768
v -1.621 2.671 1.895
v -2.589 2.759 1.399
v -3.330 2.827 1.493
v -3.233 2.818 1.571
v -2.589 2.759 1.399
v -2.589 2.759 1.399
v -2.050 2.710 0.000
v -3.495 2.842 0.000
v -3.495 2.842 0.000
v -3.330 2.827 1.493
v -2.589 2.759 1.399
v -4.699 2.952 1.415
v -4.924 2.972 1.100
v -6.251 3.093 1.100
v -4.699 2.952 1.415
v -6.251 3.093 2.768
v -4.889 2.969 2.768
v -6.251 3.093 2.768
v -4.699 2.952 1.415
v -6.251 3.093 1.100
v -4.416 2.926 1.100
v -3.495 2.842 0.000
v -4.416 2.926 0.000
v -4.416 2.926 1.100
v -4.924 2.972 1.100
v -4.699 2.952 1.415
v -3.495 2.842 0.000
v -4.416 2.926 1.100
v -3.330 2.827 1.493
v -4.416 2.926 1.100
v -4.699 2.952 1.415
v -3.330 2.827 1.493
v 0.000 0.930 2.276
v 0.000 2.523 1.861
v 0.000 2.523 2.768
v 0.000 2.523 2.768
v 0.000 0.930 2.768
v 0.000 0.930 2.276
v 0.000 0.930 2.276
v 0.000 0.843 2.276
v 0.000 0.862 1.944
v 0.000 2.523 1.861
v 0.000 0.930 2.276
v 0.000 0.862 1.944
v 0.000 1.598 1.100
v 0.000 0.725 1.635
v 0.000 1.598 0.592
v 0.000 1.598 1.100
v 0.000 2.523 1.100
v 0.000 2.523 1.861
v 0.000 0.725 1.635
v 0.000 1.598 1.100
v 0.000 0.862 1.944
v 0.000 1.598 1.100
v 0.000 2.523 1.861
v 0.000 0.862 1.944
v 0.000 -0.012 2.195
v 0.000 -0.012 1.280
v 0.000 0.725 1.635
v 0.000 0.499 2.276
v 0.000 0.862 1.944
v 0.000 0.843 2.276
v 0.000 -0.012 2.195
v 0.000 0.499 2.768
v 0.000 -1.249 2.768
v 0.000 -1.249 2.768
v 0.000 -1.039 2.194
v 0.000 -0.012 2.195
v 0.000 0.499 2.276
v 0.000 0.725 1.635
v 0.000 0.862 1.944
v 0.000 0.499 2.768
v 0.000 -0.012 2.195
v 0.000 0.499 2.276
v 0.000 0.725 1.635
v 0.000 0.499 2.276
v 0.000 -0.012 2.195
v 0.000 1.598 0.592
v 0.000 -0.012 1.280
v 0.000 -0.012 0.000
v 0.000 -0.012 0.000
v 0.000 1.598 0.000
v 0.000 1.598 0.592
v 0.000 -0.012 1.280
v 0.000 1.598 0.592
v 0.000 0.725 1.635
v 0.000 -1.488 2.193
v 0.000 -2.663 1.100
v 0.000 -1.983 1.100
v 0.000 -1.983 1.100
v 0.000 -1.983 0.000
v 0.000 -1.488 0.000
v 0.000 -1.488 2.193
v 0.000 -1.039 2.194
v 0.000 -1.249 2.768
v 0.000 -2.663 1.100
v 0.000 -1.488 2.193
v 0.000 -2.051 2.768
v 0.000 -1.983 1.100
v 0.000 -1.488 0.000
v 0.000 -1.488 2.193
v 0.000 -2.051 2.768
v 0.000 -1.488 2.193
v 0.000 -1.249 2.768
v 0.000 -2.663 1.100
v 0.000 -3.648 2.768
v 0.000 -3.648 1.100
v 0.000 -3.648 2.768
v 0.000 -2.663 1.100
v 0.000 -2.051 2.768
v 4.828 2.020 1.346
v 4.624 2.039 1.528
v 4.622 2.039 2.736
v 4.828 2.020 1.346
v 6.102 1.903 2.736
v 6.102 1.903 1.462
v 6.102 1.903 2.736
v 4.828 2.020 1.346
v 4.622 2.039 2.736
v 4.624 2.039 1.528
v 3.472 2.145 1.284
v 3.202 2.169 1.507
v 4.624 2.039 1.528
v 3.188 2.171 2.736
v 4.622 2.039 2.736
v 3.188 2.171 2.736
v 4.624 2.039 1.528
v 3.202 2.169 1.507
v 4.828 2.020 1.346
v 6.102 1.903 1.462
v 6.102 1.903 0.050
v 6.102 1.903 0.050
v 4.819 2.021 0.050
v 4.828 2.020 1.346
v 3.472 2.145 1.284
v 4.624 2.039 1.528
v 4.828 2.020 1.346
v 3.472 2.145 1.284
v 4.819 2.021 0.050
v 3.485 2.143 0.050
v 4.819 2.021 0.050
v 3.472 2.145 1.284
v 4.828 2.020 1.346
v 1.846 2.294 1.439
v 0.571 2.411 1.321
v 0.571 2.411 2.736
v 0.571 2.411 2.736
v 1.851 2.293 2.736
v 1.846 2.294 1.439
v 2.049 2.275 1.259
v 3.202 2.169 1.507
v 3.472 2.145 1.284
v 2.049 2.275 1.259
v 3.485 2.143 0.050
v 2.057 2.275 0.050
v 3.485 2.143 0.050
v 2.049 2.275 1.259
v 3.472 2.145 1.284
v 3.202 2.169 1.507
v 2.049 2.275 1.259
v 1.846 2.294 1.439
v 3.202 2.169 1.507
v 1.851 2.293 2.736
v 3.188 2.171 2.736
v 1.851 2.293 2.736
v 3.202 2.169 1.507
v 1.846 2.294 1.439
v 1.846 2.294 1.439
v 2.049 2.275 1.259
v 2.057 2.275 0.050
v 1.846 2.294 1.439
v 0.571 2.411 0.050
v 0.571 2.411 1.321
v 0.571 2.411 0.050
v 1.846 2.294 1.439
v 2.057 2.275 0.050
v 6.102 0.930 2.276
v 6.102 1.903 1.182
v 6.102 1.903 2.736
v 6.102 1.903 2.736
v 6.102 0.930 2.736
v 6.102 0.930 2.276
v 6.102 0.930 2.276
v 6.102 0.612 2.276
v 6.102 0.589 1.455
v 6.102 1.903 1.182
v 6.102 0.930 2.276
v 6.102 0.589 1.455
v 6.102 0.499 2.276
v 6.102 0.228 1.143
v 6.102 0.589 1.455
v 6.102 0.589 1.455
v 6.102 0.612 2.276
v 6.102 0.499 2.276
v 6.102 0.499 2.276
v 6.102 0.499 2.736
v 6.102 -0.801 2.736
v 6.102 0.228 1.143
v 6.102 0.499 2.276
v 6.102 -0.818 1.534
v 6.102 -0.818 1.534
v 6.102 0.499 2.276
v 6.102 -0.801 2.736
v 6.102 0.589 1.455
v 6.102 0.228 1.143
v 6.102 0.217 0.050
v 6.102 0.589 1.455
v 6.102 1.903 0.050
v 6.102 1.903 1.182
v 6.102 1.903 0.050
v 6.102 0.589 1.455
v 6.102 0.217 0.050
v 6.102 -1.392 0.050
v 6.102 -0.818 1.534
v 6.102 -1.394 1.140
v 6.102 -0.818 1.534
v 6.102 -1.392 0.050
v 6.102 0.217 0.050
v 6.102 -0.818 1.534
v 6.102 0.217 0.050
v 6.102 0.228 1.143
v 6.102 -2.204 1.546
v 6.102 -1.394 1.140
v 6.102 -0.818 1.534
v 6.102 -2.204 1.546
v 6.102 -0.801 2.736
v 6.102 -2.232 2.736
v 6.102 -0.801 2.736
v 6.102 -2.204 1.546
v 6.102 -0.818 1.534
v 6.102 -1.392 0.050
v 6.102 -2.204 1.546
v 6.102 -2.978 1.115
v 6.102 -2.978 1.115
v 6.102 -2.976 0.050
v 6.102 -1.392 0.050
v 6.102 -2.204 1.546
v 6.102 -1.392 0.050
v 6.102 -1.394 1.140
v 6.102 -3.483 2.276
v 6.102 -2.978 1.115
v 6.102 -2.204 1.546
v 6.102 -3.483 2.276
v 6.102 -2.232 2.736
v 6.102 -3.483 2.736
v 6.102 -3.483 2.276
v 6.102 -3.646 2.276
v 6.102 -3.631 1.539
v 6.102 -2.232 2.736
v 6.102 -3.483 2.276
v 6.102 -2.204 1.546
v 6.102 -2.978 1.115
v 6.102 -3.483 2.276
v 6.102 -3.631 1.539
v 6.102 -5.007 1.446
v 6.102 -4.927 2.736
v 6.102 -6.160 2.736
v 6.102 -6.160 2.736
v 6.102 -6.160 1.267
v 6.102 -5.007 1.446
v 6.102 -2.978 1.115
v 6.102 -3.631 1.539
v 6.102 -4.567 1.103
v 6.102 -4.567 1.103
v 6.102 -4.567 0.050
v 6.102 -2.976 0.050
v 6.102 -2.976 0.050
v 6.102 -2.978 1.115
v 6.102 -4.567 1.103
v 6.102 -3.906 2.276
v 6.102 -4.567 1.103
v 6.102 -3.631 1.539
v 6.102 -3.631 1.539
v 6.102 -3.646 2.276
v 6.102 -3.906 2.276
v 6.102 -3.906 2.276
v 6.102 -3.906 2.736
v 6.102 -4.927 2.736
v 6.102 -4.567 1.103
v 6.102 -3.906 2.276
v 6.102 -5.007 1.446
v 6.102 -5.007 1.446
v 6.102 -3.906 2.276
v 6.102 -4.927 2.736
v 6.102 -6.160 0.050
v 6.102 -5.007 1.446
v 6.102 -6.160 1.267
v 6.102 -5.007 1.446
v 6.102 -6.160 0.050
v 6.102 -4.567 0.050
v 6.102 -5.007 1.446
v 6.102 -4.567 0.050
v 6.102 -4.567 1.103
v 1.825 -6.160 1.347
v 2.046 -6.160 1.539
v 2.046 -6.160 2.736
v 1.825 -6.160 1.347
v 0.571 -6.160 2.736
v 0.571 -6.160 1.467
v 0.571 -6.160 2.736
v 1.825 -6.160 1.347
v 2.046 -6.160 2.736
v 2.046 -6.160 1.539
v 3.178 -6.160 1.282
v 3.462 -6.160 1.509
v 2.046 -6.160 1.539
v 3.484 -6.160 2.736
v 2.046 -6.160 2.736
v 3.484 -6.160 2.736
v 2.046 -6.160 1.539
v 3.462 -6.160 1.509
v 1.825 -6.160 1.347
v 0.571 -6.160 1.467
v 0.571 -6.160 0.050
v 0.571 -6.160 0.050
v 1.836 -6.160 0.050
v 1.825 -6.160 1.347
v 3.178 -6.160 1.282
v 2.046 -6.160 1.539
v 1.825 -6.160 1.347
v 3.178 -6.160 1.282
v 1.836 -6.160 0.050
v 3.157 -6.160 0.050
v 1.836 -6.160 0.050
v 3.178 -6.160 1.282
v 1.825 -6.160 1.347
v 4.821 -6.160 1.439
v 6.102 -6.160 1.321
v 6.102 -6.160 2.736
v 6.102 -6.160 2.736
v 4.814 -6.160 2.736
v 4.821 -6.160 1.439
v 4.605 -6.160 1.248
v 3.462 -6.160 1.509
v 3.178 -6.160 1.282
v 4.605 -6.160 1.248
v 3.157 -6.160 0.050
v 4.602 -6.160 0.050
v 3.157 -6.160 0.050
v 4.605 -6.160 1.248
v 3.178 -6.160 1.282
v 3.462 -6.160 1.509
v 4.605 -6.160 1.248
v 4.821 -6.160 1.439
v 3.462 -6.160 1.509
v 4.814 -6.160 2.736
v 3.484 -6.160 2.736
v 4.814 -6.160 2.736
v 3.462 -6.160 1.509
v 4.821 -6.160 1.439
v 4.821 -6.160 1.439
v 4.605 -6.160 1.248
v 4.602 -6.160 0.050
v 4.821 -6.160 1.439
v 6.102 -6.160 0.050
v 6.102 -6.160 1.321
v 6.102 -6.160 0.050
v 4.821 -6.160 1.439
v 4.602 -6.160 0.050
v -4.416 2.926 1.100
v -4.510 1.985 1.100
v -6.251 2.156 1.100
v -6.251 2.156 1.100
v -6.251 3.094 1.100
v -4.416 2.926 1.100
v -4.510 1.985 1.100
v -4.416 2.926 0.000
v -4.510 1.985 -0.000
v -4.416 2.926 0.000
v -4.510 1.985 1.100
v -4.416 2.926 1.100
v -6.251 2.156 1.100
v -4.510 1.985 1.100
v -4.510 1.985 -0.000
v -4.510 1.985 -0.000
v -6.251 2.156 -0.000
v -6.251 2.156 1.100
v -4.522 -3.053 0.000
v -6.251 -3.053 1.100
v -6.251 -3.053 -0.000
v -6.251 -3.053 1.100
v -4.522 -3.053 0.000
v -4.522 -3.053 1.100
v -5.388 -3.053 1.100
v -4.522 -3.053 1.100
v -4.522 -3.648 1.100
v -4.522 -3.648 1.100
v -5.389 -3.648 1.100
v -5.388 -3.053 1.100
v -5.389 -3.648 1.100
v -6.251 -3.648 1.100
v -6.251 -3.053 1.100
v -6.251 -3.053 1.100
v -5.388 -3.053 1.100
v -5.389 -3.648 1.100
v -4.522 -3.648 1.100
v -4.522 -3.053 0.000
v -4.522 -3.648 -0.000
v -4.522 -3.053 0.000
v -4.522 -3.648 1.100
v -4.522 -3.053 1.100
v 0.000 2.523 1.100
v -0.000 1.598 1.100
v -1.741 1.715 1.100
v -1.741 1.715 1.100
v -1.677 2.676 1.100
v 0.000 2.523 1.100
v -1.741 1.715 0.000
v 0.000 1.598 1.100
v 0.000 1.598 0.000
v 0.000 1.598 1.100
v -1.741 1.715 0.000
v -1.741 1.715 1.100
v -1.741 1.715 0.000
v -1.677 2.676 1.100
v -1.741 1.715 1.100
v -1.677 2.676 1.100
v -1.741 1.715 0.000
v -1.677 2.676 -0.000
v -5.442 1.479 1.000
v -5.442 1.479 0.000
v -5.442 -0.091 0.000
v -5.442 -0.091 0.000
v -5.442 -0.091 1.000
v -5.442 1.479 1.000
v -3.509 2.562 0.000
v -2.509 2.562 1.000
v -2.509 2.562 0.000
v -2.509 2.562 1.000
v -3.509 2.562 0.000
v -3.509 2.562 1.000
v -1.784 1.729 0.000
v -2.390 2.524 1.000
v -1.784 1.729 1.000
v -2.390 2.524 1.000
v -1.784 1.729 0.000
v -2.390 2.524 -0.000
v -5.318 1.607 -0.000
v -4.389 1.977 1.000
v -4.389 1.977 -0.000
v -4.389 1.977 1.000
v -5.318 1.607 -0.000
v -5.318 1.607 1.000
v -2.803 -3.648 0.000
v -2.803 -2.798 1.100
v -2.803 -3.648 1.100
v -2.803 -2.798 1.100
v -2.803 -3.648 0.000
v -2.803 -2.798 0.000
v -1.863 -2.798 -0.000
v -2.803 -2.798 1.100
v -2.803 -2.798 -0.000
v -2.803 -2.798 1.100
v -1.863 -2.798 -0.000
v -1.858 -2.798 1.100
v -1.858 -2.798 1.100
v -0.913 -2.798 0.000
v -0.913 -2.798 1.100
v -0.913 -2.798 0.000
v -1.858 -2.798 1.100
v -1.863 -2.798 -0.000
v -0.913 -2.798 1.100
v -0.913 -1.983 1.100
v 0.000 -1.983 1.100
v -0.913 -2.798 1.100
v -0.000 -3.648 1.100
v -1.148 -3.648 1.100
v -1.148 -3.648 1.100
v -1.354 -2.798 1.100
v -0.913 -2.798 1.100
v -0.000 -3.648 1.100
v -0.913 -2.798 1.100
v 0.000 -1.983 1.100
v -1.354 -2.798 1.100
v -2.803 -3.648 1.100
v -2.803 -2.798 1.100
v -2.803 -3.648 1.100
v -1.354 -2.798 1.100
v -1.148 -3.648 1.100
v -0.913 -2.798 0.000
v -0.913 -1.983 1.100
v -0.913 -2.798 1.100
v -0.913 -1.983 1.100
v -0.913 -2.798 0.000
v -0.913 -1.983 -0.000
v 0.000 -1.983 -0.000
v -0.913 -1.983 1.100
v -0.913 -1.983 -0.000
v -0.913 -1.983 1.100
v 0.000 -1.983 -0.000
v 0.000 -1.983 1.100
v -2.803 -2.798 0.000
v -3.676 -2.228 0.000
v -2.633 -2.798 0.000
v -4.522 -3.053 0.000
v -2.803 -3.648 0.000
v -4.522 -3.648 0.000
v -4.522 -3.053 0.000
v -4.702 -3.053 0.000
v -4.599 -2.734 0.000
v -4.522 -3.053 0.000
v -3.676 -2.228 0.000
v -2.803 -2.798 0.000
v -2.803 -3.648 0.000
v -4.522 -3.053 0.000
v -2.803 -2.798 0.000
v -3.676 -2.228 0.000
v -4.522 -3.053 0.000
v -4.599 -2.734 0.000
v -2.202 -1.508 0.000
v -3.680 -1.283 0.000
v -3.018 -0.871 0.000
v -2.633 -2.798 0.000
v -2.202 -1.508 0.000
v -2.614 -2.798 0.000
v -2.202 -1.508 0.000
v -2.633 -2.798 0.000
v -3.676 -2.228 0.000
v -3.680 -1.283 0.000
v -2.202 -1.508 0.000
v -3.676 -2.228 0.000
v -2.202 -1.508 0.000
v -1.553 -1.336 0.000
v -0.913 -2.098 0.000
v -0.913 -2.098 0.000
v -0.913 -2.798 0.000
v -2.614 -2.798 0.000
v -2.614 -2.798 0.000
v -2.202 -1.508 0.000
v -0.913 -2.098 0.000
v -2.202 -1.508 0.000
v -3.018 -0.871 0.000
v -2.928 -0.199 0.000
v -2.928 -0.199 0.000
v -1.659 0.160 0.000
v -1.275 -0.718 0.000
v -1.275 -0.718 0.000
v -1.553 -1.336 0.000
v -2.202 -1.508 0.000
v -2.202 -1.508 0.000
v -2.928 -0.199 0.000
v -1.275 -0.718 0.000
v -6.251 -3.053 0.000
v -4.599 -2.734 0.000
v -4.702 -3.053 0.000
v -5.153 -1.747 0.000
v -6.251 -3.053 0.000
v -6.251 -1.761 0.000
v -4.599 -2.734 0.000
v -6.251 -3.053 0.000
v -5.153 -1.747 0.000
v -4.780 -0.492 0.000
v -4.631 -0.907 0.000
v -5.153 -1.747 0.000
v -5.153 -1.747 0.000
v -6.251 -1.761 0.000
v -6.251 -0.375 0.000
v -6.251 -0.375 0.000
v -4.780 -0.492 0.000
v -5.153 -1.747 0.000
v -3.680 -1.283 0.000
v -5.153 -1.747 0.000
v -4.631 -0.907 0.000
v -5.153 -1.747 0.000
v -3.680 -1.283 0.000
v -3.676 -2.228 0.000
v -5.153 -1.747 0.000
v -3.676 -2.228 0.000
v -4.599 -2.734 0.000
v -1.275 -0.718 0.000
v -1.659 0.160 0.000
v -1.562 0.408 0.000
v -1.562 0.408 0.000
v 0.000 0.618 0.000
v 0.000 -0.012 0.000
v 0.000 -0.012 0.000
v 0.000 -0.661 0.000
v -1.275 -0.718 0.000
v -1.275 -0.718 0.000
v -1.562 0.408 0.000
v 0.000 -0.012 0.000
v -0.913 -1.983 0.000
v -1.275 -0.718 0.000
v 0.000 -0.661 0.000
v 0.000 -0.661 0.000
v 0.000 -1.983 0.000
v -0.913 -1.983 0.000
v -0.913 -1.983 0.000
v -0.913 -2.098 0.000
v -1.553 -1.336 0.000
v -1.275 -0.718 0.000
v -0.913 -1.983 0.000
v -1.553 -1.336 0.000
v -4.631 -0.907 0.000
v -4.780 -0.492 0.000
v -4.529 0.150 0.000
v -3.680 -1.283 0.000
v -3.346 0.324 0.000
v -2.928 -0.199 0.000
v -2.928 -0.199 0.000
v -3.018 -0.871 0.000
v -3.680 -1.283 0.000
v -3.680 -1.283 0.000
v -4.631 -0.907 0.000
v -4.529 0.150 0.000
v -3.346 0.324 0.000
v -3.680 -1.283 0.000
v -4.529 0.150 0.000
v -4.894 0.856 0.000
v -4.529 0.150 0.000
v -4.780 -0.492 0.000
v -4.894 0.856 0.000
v -6.251 -0.375 0.000
v -6.251 0.794 0.000
v -6.251 -0.375 0.000
v -4.894 0.856 0.000
v -4.780 -0.492 0.000
v -1.562 0.408 0.000
v -1.810 1.280 0.000
v -1.551 1.702 0.000
v -1.551 1.702 0.000
v 0.000 1.598 0.000
v 0.000 0.618 0.000
v 0.000 0.618 0.000
v -1.562 0.408 0.000
v -1.551 1.702 0.000
v -1.810 1.280 0.000
v -3.346 0.324 0.000
v -3.147 1.364 0.000
v -3.346 0.324 0.000
v -1.810 1.280 0.000
v -1.562 0.408 0.000
v -3.346 0.324 0.000
v -1.659 0.160 0.000
v -2.928 -0.199 0.000
v -1.659 0.160 0.000
v -3.346 0.324 0.000
v -1.562 0.408 0.000
v -3.346 0.324 0.000
v -4.529 0.150 0.000
v -4.894 0.856 0.000
v -4.894 0.856 0.000
v -4.584 1.687 0.000
v -3.192 1.430 0.000
v -3.192 1.430 0.000
v -3.147 1.364 0.000
v -3.346 0.324 0.000
v -3.346 0.324 0.000
v -4.894 0.856 0.000
v -3.192 1.430 0.000
v -6.251 2.156 0.000
v -4.894 0.856 0.000
v -6.251 0.794 0.000
v -4.894 0.856 0.000
v -6.251 2.156 0.000
v -4.721 2.006 0.000
v -4.894 0.856 0.000
v -4.721 2.006 0.000
v -4.584 1.687 0.000
v -1.741 1.715 0.000
v -3.147 1.364 0.000
v -3.192 1.430 0.000
v -1.741 1.715 0.000
v -3.004 2.797 0.000
v -1.677 2.676 0.000
v -1.741 1.715 0.000
v -1.551 1.702 0.000
v -1.810 1.280 0.000
v -1.741 1.715 0.000
v -3.192 1.430 0.000
v -3.004 2.797 0.000
v -3.147 1.364 0.000
v -1.741 1.715 0.000
v -1.810 1.280 0.000
v -4.510 1.985 0.000
v -4.584 1.687 0.000
v -4.721 2.006 0.000
v -4.510 1.985 0.000
v -4.416 2.926 0.000
v -3.004 2.797 0.000
v -4.584 1.687 0.000
v -4.510 1.985 0.000
v -3.192 1.430 0.000
v -4.510 1.985 0.000
v -3.004 2.797 0.000
v -3.192 1.430 0.000
v -4.422 2.059 0.000
v -3.556 2.559 1.000
v -3.556 2.559 0.000
v -3.556 2.559 1.000
v -4.422 2.059 0.000
v -4.422 2.059 1.000
v 0.571 -1.488 1.109
v 0.571 -1.488 2.193
v 0.000 -1.488 2.193
v 0.000 -1.488 2.193
v 0.000 -1.488 1.108
v 0.571 -1.488 1.109
v 0.000 -1.488 1.108
v 0.000 -1.488 -0.000
v 0.571 -1.488 0.050
v 0.571 -1.488 0.050
v 0.571 -1.488 1.109
v 0.000 -1.488 1.108
v 0.571 -1.488 0.050
v 0.571 -2.910 1.455
v 0.571 -1.488 1.329
v 0.571 -3.132 1.208
v 0.571 -1.488 0.050
v 0.571 -3.116 0.050
v 0.571 -2.910 1.455
v 0.571 -1.488 0.050
v 0.571 -3.132 1.208
v 0.571 -1.506 2.736
v 0.571 0.499 2.736
v 0.571 -0.012 2.195
v 0.571 -0.012 2.195
v 0.571 -1.368 2.193
v 0.571 -1.506 2.736
v 0.571 -4.671 1.344
v 0.571 -4.550 1.465
v 0.571 -3.132 1.208
v 0.571 -3.132 1.208
v 0.571 -3.116 0.050
v 0.571 -4.704 0.050
v 0.571 -4.704 0.050
v 0.571 -4.671 1.344
v 0.571 -3.132 1.208
v 0.571 -3.906 2.276
v 0.571 -3.132 1.208
v 0.571 -4.550 1.465
v 0.571 -3.906 2.276
v 0.571 -4.466 2.736
v 0.571 -3.906 2.736
v 0.571 -3.483 2.276
v 0.571 -3.483 2.736
v 0.571 -2.999 2.736
v 0.571 -4.466 2.736
v 0.571 -3.906 2.276
v 0.571 -4.550 1.465
v 0.571 -3.483 2.276
v 0.571 -2.999 2.736
v 0.571 -2.910 1.455
v 0.571 -3.483 2.276
v 0.571 -3.132 1.208
v 0.571 -3.906 2.276
v 0.571 -3.132 1.208
v 0.571 -3.483 2.276
v 0.571 -2.910 1.455
v 0.571 -1.488 2.193
v 0.571 -1.488 1.329
v 0.571 -2.910 1.455
v 0.571 -1.488 2.193
v 0.571 -2.999 2.736
v 0.571 -1.506 2.736
v 0.571 -1.506 2.736
v 0.571 -1.368 2.193
v 0.571 -1.488 2.193
v 0.571 -2.999 2.736
v 0.571 -1.488 2.193
v 0.571 -2.910 1.455
v 0.571 -4.671 1.344
v 0.571 -4.704 0.050
v 0.571 -6.160 0.050
v 0.571 -6.160 0.050
v 0.571 -6.160 1.474
v 0.571 -4.671 1.344
v 0.571 -6.160 2.736
v 0.571 -4.671 1.344
v 0.571 -6.160 1.474
v 0.571 -4.550 1.465
v 0.571 -6.160 2.736
v 0.571 -4.466 2.736
v 0.571 -4.671 1.344
v 0.571 -6.160 2.736
v 0.571 -4.550 1.465
v 0.571 -0.012 1.124
v 0.571 -0.012 0.050
v 1.306 -1.292 0.050
v 1.306 -1.292 0.050
v 1.306 -1.292 1.125
v 0.571 -0.012 1.124
v 1.306 -1.292 1.125
v 1.306 -1.292 2.195
v 0.571 -0.012 2.195
v 0.571 -0.012 2.195
v 0.571 -0.012 1.124
v 1.306 -1.292 1.125
v 6.102 -6.160 0.050
v 5.034 -4.522 0.050
v 6.102 -4.537 0.050
v 4.647 -4.950 0.050
v 6.102 -6.160 0.050
v 4.803 -6.160 0.050
v 5.034 -4.522 0.050
v 6.102 -6.160 0.050
v 4.647 -4.950 0.050
v 3.614 -3.508 0.050
v 3.394 -4.787 0.050
v 3.303 -4.664 0.050
v 4.647 -4.950 0.050
v 3.614 -3.508 0.050
v 4.599 -3.441 0.050
v 4.599 -3.441 0.050
v 5.034 -4.522 0.050
v 4.647 -4.950 0.050
v 3.614 -3.508 0.050
v 4.647 -4.950 0.050
v 3.394 -4.787 0.050
v 3.227 -6.160 0.050
v 4.647 -4.950 0.050
v 4.803 -6.160 0.050
v 4.647 -4.950 0.050
v 3.227 -6.160 0.050
v 3.394 -4.787 0.050
v 3.227 -6.160 0.050
v 2.027 -6.160 0.050
v 1.878 -4.921 0.050
v 3.394 -4.787 0.050
v 2.195 -4.556 0.050
v 3.303 -4.664 0.050
v 1.878 -4.921 0.050
v 3.394 -4.787 0.050
v 3.227 -6.160 0.050
v 2.195 -4.556 0.050
v 3.394 -4.787 0.050
v 1.878 -4.921 0.050
v 6.102 -2.958 0.050
v 4.599 -3.441 0.050
v 4.975 -2.907 0.050
v 5.034 -4.522 0.050
v 6.102 -2.958 0.050
v 6.102 -4.537 0.050
v 4.599 -3.441 0.050
v 6.102 -2.958 0.050
v 5.034 -4.522 0.050
v 4.673 -2.144 0.050
v 3.614 -3.508 0.050
v 3.217 -3.049 0.050
v 3.217 -3.049 0.050
v 3.439 -2.088 0.050
v 3.965 -1.867 0.050
v 4.599 -3.441 0.050
v 4.673 -2.144 0.050
v 4.975 -2.907 0.050
v 3.614 -3.508 0.050
v 4.673 -2.144 0.050
v 4.599 -3.441 0.050
v 4.673 -2.144 0.050
v 3.217 -3.049 0.050
v 3.965 -1.867 0.050
v 6.102 -2.958 0.050
v 4.673 -2.144 0.050
v 5.529 -1.252 0.050
v 5.529 -1.252 0.050
v 6.102 -1.260 0.050
v 6.102 -2.958 0.050
v 4.673 -2.144 0.050
v 6.102 -2.958 0.050
v 4.975 -2.907 0.050
v 4.673 -2.144 0.050
v 3.965 -1.867 0.050
v 4.073 -0.688 0.050
v 4.673 -2.144 0.050
v 4.745 -0.498 0.050
v 5.529 -1.252 0.050
v 4.745 -0.498 0.050
v 4.673 -2.144 0.050
v 4.073 -0.688 0.050
v 1.878 -4.921 0.050
v 2.027 -6.160 0.050
v 0.571 -6.160 0.050
v 0.571 -6.160 0.050
v 0.571 -4.845 0.050
v 1.878 -4.921 0.050
v 3.614 -3.508 0.050
v 1.921 -3.560 0.050
v 3.217 -3.049 0.050
v 1.921 -3.560 0.050
v 2.152 -3.185 0.050
v 3.217 -3.049 0.050
v 2.195 -4.556 0.050
v 3.614 -3.508 0.050
v 3.303 -4.664 0.050
v 1.921 -3.560 0.050
v 3.614 -3.508 0.050
v 2.195 -4.556 0.050
v 2.694 -1.575 0.050
v 2.152 -3.185 0.050
v 1.736 -2.164 0.050
v 1.736 -2.164 0.050
v 1.982 -1.767 0.050
v 2.694 -1.575 0.050
v 2.694 -1.575 0.050
v 3.439 -2.088 0.050
v 3.217 -3.049 0.050
v 2.152 -3.185 0.050
v 2.694 -1.575 0.050
v 3.217 -3.049 0.050
v 1.878 -4.921 0.050
v 0.571 -4.845 0.050
v 0.571 -3.610 0.050
v 1.878 -4.921 0.050
v 1.921 -3.560 0.050
v 2.195 -4.556 0.050
v 1.921 -3.560 0.050
v 1.878 -4.921 0.050
v 0.571 -3.610 0.050
v 1.736 -2.164 0.050
v 2.152 -3.185 0.050
v 1.921 -3.560 0.050
v 1.736 -2.164 0.050
v 0.571 -3.610 0.050
v 0.571 -2.268 0.050
v 0.571 -3.610 0.050
v 1.736 -2.164 0.050
v 1.921 -3.560 0.050
v 6.102 1.903 0.050
v 4.585 0.904 0.050
v 4.768 2.025 0.050
v 5.063 0.397 0.050
v 6.102 1.903 0.050
v 6.102 0.500 0.050
v 6.102 1.903 0.050
v 5.063 0.397 0.050
v 4.585 0.904 0.050
v 6.102 0.500 0.050
v 4.745 -0.498 0.050
v 5.063 0.397 0.050
v 5.529 -1.252 0.050
v 6.102 0.500 0.050
v 6.102 -1.260 0.050
v 4.745 -0.498 0.050
v 6.102 0.500 0.050
v 5.529 -1.252 0.050
v 4.073 -0.688 0.050
v 2.694 -1.575 0.050
v 2.924 -0.525 0.050
v 2.924 -0.525 0.050
v 3.444 -0.304 0.050
v 4.073 -0.688 0.050
v 2.694 -1.575 0.050
v 3.965 -1.867 0.050
v 3.439 -2.088 0.050
v 3.965 -1.867 0.050
v 2.694 -1.575 0.050
v 4.073 -0.688 0.050
v 0.571 -1.488 0.050
v 1.982 -1.767 0.050
v 1.736 -2.164 0.050
v 1.736 -2.164 0.050
v 0.571 -2.268 0.050
v 0.571 -1.488 0.050
v 0.571 -1.488 0.050
v 0.571 -0.637 0.050
v 1.385 -0.684 0.050
v 1.982 -1.767 0.050
v 0.571 -1.488 0.050
v 1.385 -0.684 0.050
v 2.694 -1.575 0.050
v 1.385 -0.684 0.050
v 2.048 -0.097 0.050
v 2.048 -0.097 0.050
v 2.924 -0.525 0.050
v 2.694 -1.575 0.050
v 1.385 -0.684 0.050
v 2.694 -1.575 0.050
v 1.982 -1.767 0.050
v 4.073 -0.688 0.050
v 3.444 -0.304 0.050
v 3.561 0.677 0.050
v 4.745 -0.498 0.050
v 4.585 0.904 0.050
v 5.063 0.397 0.050
v 3.561 0.677 0.050
v 4.745 -0.498 0.050
v 4.073 -0.688 0.050
v 4.745 -0.498 0.050
v 3.561 0.677 0.050
v 4.585 0.904 0.050
v 4.585 0.904 0.050
v 3.561 0.677 0.050
v 3.174 1.054 0.050
v 4.585 0.904 0.050
v 3.262 2.164 0.050
v 4.768 2.025 0.050
v 3.262 2.164 0.050
v 4.585 0.904 0.050
v 3.174 1.054 0.050
v 2.924 -0.525 0.050
v 3.174 1.054 0.050
v 3.561 0.677 0.050
v 3.561 0.677 0.050
v 3.444 -0.304 0.050
v 2.924 -0.525 0.050
v 3.174 1.054 0.050
v 2.048 -0.097 0.050
v 1.967 0.778 0.050
v 2.048 -0.097 0.050
v 3.174 1.054 0.050
v 2.924 -0.525 0.050
v 1.819 0.908 0.050
v 1.967 0.778 0.050
v 2.048 -0.097 0.050
v 0.571 -0.012 0.050
v 1.385 -0.684 0.050
v 0.571 -0.637 0.050
v 0.571 -0.012 0.050
v 0.571 0.864 0.050
v 1.819 0.908 0.050
v 0.571 -0.012 0.050
v 2.048 -0.097 0.050
v 1.385 -0.684 0.050
v 2.048 -0.097 0.050
v 0.571 -0.012 0.050
v 1.819 0.908 0.050
v 3.174 1.054 0.050
v 1.967 0.778 0.050
v 1.819 0.908 0.050
v 3.174 1.054 0.050
v 1.874 2.291 0.050
v 3.262 2.164 0.050
v 1.874 2.291 0.050
v 3.174 1.054 0.050
v 1.819 0.908 0.050
v 1.874 2.291 0.050
v 0.571 0.864 0.050
v 0.571 2.411 0.050
v 0.571 0.864 0.050
v 1.874 2.291 0.050
v 1.819 0.908 0.050
v 0.000 -0.012 0.000
v 0.571 -1.488 0.050
v 0.000 -1.488 -0.000
v 0.571 -1.488 0.050
v 0.000 -0.012 0.000
v 0.571 -0.012 0.050
v -0.000 -0.012 1.108
v 0.571 -0.012 0.050
v -0.000 -0.012 0.000
v 0.571 -0.012 0.050
v -0.000 -0.012 1.108
v 0.571 -0.012 1.108
v -0.000 -0.012 1.108
v -0.000 -0.012 2.195
v 0.571 -0.012 2.195
v 0.571 -0.012 2.195
v 0.571 -0.012 1.108
v -0.000 -0.012 1.108
v 0.571 1.156 1.209
v 0.571 1.337 1.420
v 0.571 2.411 1.458
v 0.571 1.156 1.209
v 0.571 2.411 0.050
v 0.571 1.284 0.050
v 0.571 2.411 0.050
v 0.571 1.156 1.209
v 0.571 2.411 1.458
v 0.571 1.337 1.420
v 0.571 0.975 2.736
v 0.571 2.411 2.736
v 0.571 2.411 2.736
v 0.571 2.411 1.458
v 0.571 1.337 1.420
v 0.571 1.156 1.209
v 0.571 1.284 0.050
v 0.571 -0.012 0.050
v 0.571 -0.012 0.050
v 0.571 -0.012 1.207
v 0.571 1.156 1.209
v 0.571 0.499 2.276
v 0.571 1.156 1.209
v 0.571 -0.012 1.207
v 0.571 0.499 2.276
v 0.571 -0.012 2.195
v 0.571 0.499 2.736
v 0.571 0.930 2.276
v 0.571 0.930 2.736
v 0.571 0.975 2.736
v 0.571 -0.012 2.195
v 0.571 0.499 2.276
v 0.571 -0.012 1.207
v 0.571 0.930 2.276
v 0.571 0.975 2.736
v 0.571 1.337 1.420
v 0.571 0.930 2.276
v 0.571 1.156 1.209
v 0.571 0.499 2.276
v 0.571 1.156 1.209
v 0.571 0.930 2.276
v 0.571 1.337 1.420
v 1.306 -1.292 1.125
v 1.306 -1.292 0.050
v 0.571 -0.012 0.050
v 0.571 -0.012 0.050
v 0.571 -0.012 1.125
v 1.306 -1.292 1.125
v 0.571 -0.012 1.125
v 0.571 -0.012 2.195
v 1.306 -1.292 2.195
v 1.306 -1.292 2.195
v 1.306 -1.292 1.125
v 0.571 -0.012 1.125
v -5.442 -0.091 0.000
v -5.442 1.479 0.000
v -5.442 1.479 1.000
v -5.442 1.479 1.000
v -5.442 -0.091 1.000
v -5.442 -0.091 0.000
v -2.509 2.562 0.000
v -2.509 2.562 1.000
v -3.509 2.562 1.000
v -3.509 2.562 1.000
v -3.509 2.562 0.000
v -2.509 2.562 0.000
v -1.784 1.729 1.000
v -2.390 2.524 1.000
v -2.390 2.524 0.000
v -2.390 2.524 0.000
v -1.784 1.729 0.000
v -1.784 1.729 1.000
v -5.318 1.607 1.000
v -4.389 1.977 0.000
v -4.389 1.977 1.000
v -4.389 1.977 0.000
v -5.318 1.607 1.000
v -5.318 1.607 0.000
v -4.422 2.059 1.000
v -3.556 2.559 0.000
v -3.556 2.559 1.000
v -3.556 2.559 0.000
v -4.422 2.059 1.000
v -4.422 2.059 0.000

usemtl Patch_1_Mat_CR1_paintedConcrete
f 3 2 1
f 6 5 4
f 9 8 7

usemtl Patch_2_Mat_CR1_paintedConcrete
f 12 11 10
f 15 14 13
f 18 17 16

usemtl Patch_3_Mat_CR1_paintedConcrete
f 21 20 19
f 24 23 22

usemtl Patch_4_Mat_CR1_paintedConcrete
f 27 26 25
f 30 29 28
f 33 32 31

usemtl Patch_5_Mat_CR1_paintedConcrete
f 36 35 34
f 39 38 37
f 42 41 40

usemtl Patch_6_Mat_CR1_paintedConcrete
f 45 44 43
f 48 47 46
f 51 50 49

usemtl Patch_7_Mat_CR1_paintedConcrete
f 54 53 52
f 57 56 55

usemtl Patch_8_Mat_CR1_paintedConcrete
f 60 59 58
f 63 62 61

usemtl Patch_9_Mat_CR1_paintedConcrete
f 66 65 64
f 69 68 67

usemtl Patch_10_Mat_CR1_paintedConcrete
f 72 71 70
f 75 74 73

usemtl Patch_11_Mat_CR1_paintedConcrete
f 78 77 76
f 81 80 79

usemtl Patch_12_Mat_CR1_paintedConcrete
f 84 83 82
f 87 86 85

usemtl Patch_13_Mat_CR1_paintedConcrete
f 90 89 88
f 93 92 91

usemtl Patch_14_Mat_CR1_paintedConcrete
f 96 95 94
f 99 98 97

usemtl Patch_15_Mat_CR1_paintedConcrete
f 102 101 100
f 105 104 103

usemtl Patch_16_Mat_CR1_paintedConcrete
f 108 107 106
f 111 110 109

usemtl Patch_17_Mat_CR1_paintedConcrete
f 114 113 112
f 117 116 115

usemtl Patch_18_Mat_CR1_paintedConcrete
f 120 119 118
f 123 122 121

usemtl Patch_19_Mat_CR1_paintedConcrete
f 126 125 124
f 129 128 127

usemtl Patch_20_Mat_CR1_paintedConcrete
f 132 131 130
f 135 134 133

usemtl Patch_21_Mat_CR1_paintedConcrete
f 138 137 136
f 141 140 139

usemtl Patch_22_Mat_CR1_paintedConcrete
f 144 143 142
f 147 146 145

usemtl Patch_23_Mat_CR1_paintedConcrete
f 150 149 148
f 153 152 151

usemtl Patch_24_Mat_CR1_paintedConcrete
f 156 155 154
f 159 158 157

usemtl Patch_25_Mat_CR1_paintedConcrete
f 162 161 160
f 165 164 163

usemtl Patch_26_Mat_CR1_paintedConcrete
f 168 167 166
f 171 170 169

usemtl Patch_27_Mat_CR1_paintedConcrete
f 174 173 172
f 177 176 175

usemtl Patch_28_Mat_CR1_paintedConcrete
f 180 179 178
f 183 182 181

usemtl Patch_29_Mat_CR1_paintedConcrete
f 186 185 184
f 189 188 187

usemtl Patch_30_Mat_CR1_paintedConcrete
f 192 191 190
f 195 194 193

usemtl Patch_31_Mat_CR1_paintedConcrete
f 198 197 196
f 201 200 199

usemtl Patch_32_Mat_CR1_paintedConcrete
f 204 203 202
f 207 206 205

usemtl Patch_33_Mat_CR1_paintedConcrete
f 210 209 208
f 213 212 211

usemtl Patch_34_Mat_CR1_paintedConcrete
f 216 215 214
f 219 218 217

usemtl Patch_35_Mat_CR1_paintedConcrete
f 222 221 220
f 225 224 223

usemtl Patch_36_Mat_CR1_paintedConcrete
f 228 227 226
f 231 230 229

usemtl Patch_37_Mat_CR1_paintedConcrete
f 234 233 232
f 237 236 235

usemtl Patch_38_Mat_CR1_paintedConcrete
f 240 239 238
f 243 242 241
f 246 245 244

usemtl Patch_39_Mat_CR1_paintedConcrete
f 249 248 247
f 252 251 250
f 255 254 253

usemtl Patch_40_Mat_CR1_paintedConcrete
f 258 257 256
f 261 260 259

usemtl Patch_41_Mat_CR1_paintedConcrete
f 264 263 262
f 267 266 265
f 270 269 268
f 273 272 271

usemtl Patch_42_Mat_CR1_paintedConcrete
f 276 275 274
f 279 278 277
f 282 281 280

usemtl Patch_43_Mat_CR1_paintedConcrete
f 285 284 283
f 288 287 286
f 291 290 289

usemtl Patch_44_Mat_CR1_paintedConcrete
f 294 293 292
f 297 296 295
f 300 299 298

usemtl Patch_45_Mat_CR1_paintedConcrete
f 303 302 301
f 306 305 304
f 309 308 307
f 312 311 310

usemtl Patch_46_Mat_CR1_paintedConcrete
f 315 314 313
f 318 317 316

usemtl Patch_47_Mat_CR1_paintedConcrete
f 321 320 319
f 324 323 322
f 327 326 325

usemtl Patch_48_Mat_CR1_paintedConcrete
f 330 329 328
f 333 332 331
f 336 335 334
f 339 338 337

usemtl Patch_49_Mat_CR1_paintedConcrete
f 342 341 340
f 345 344 343

usemtl Patch_50_Mat_CR1_paintedConcrete
f 348 347 346
f 351 350 349
f 354 353 352

usemtl Patch_51_Mat_CR1_paintedConcrete
f 357 356 355
f 360 359 358
f 363 362 361
f 366 365 364
f 369 368 367

usemtl Patch_52_Mat_CR1_paintedConcrete
f 372 371 370
f 375 374 373

usemtl Patch_53_Mat_CR1_paintedConcrete
f 378 377 376
f 381 380 379

usemtl Patch_54_Mat_CR1_paintedConcrete
f 384 383 382
f 387 386 385
f 390 389 388
f 393 392 391
f 396 395 394

usemtl Patch_55_Mat_CR1_paintedConcrete
f 399 398 397
f 402 401 400

usemtl Patch_56_Mat_CR1_paintedConcrete
f 405 404 403
f 408 407 406
f 411 410 409
f 414 413 412
f 417 416 415

usemtl Patch_57_Mat_CR1_concrete
f 420 419 418
f 423 422 421

usemtl Patch_58_Mat_CR1_concrete
f 426 425 424
f 429 428 427
f 432 431 430

usemtl Patch_59_Mat_CR1_concrete
f 435 434 433
f 438 437 436
f 441 440 439

usemtl Patch_60_Mat_CR1_concrete
f 444 443 442
f 447 446 445

usemtl Patch_61_Mat_CR1_concrete
f 450 449 448
f 453 452 451
f 456 455 454

usemtl Patch_62_Mat_CR1_concrete
f 459 458 457
f 462 461 460

usemtl Patch_63_Mat_CR1_concrete
f 465 464 463
f 468 467 466
f 471 470 469

usemtl Patch_64_Mat_CR1_concrete
f 474 473 472
f 477 476 475
f 480 479 478
f 483 482 481

usemtl Patch_65_Mat_CR1_concrete
f 486 485 484
f 489 488 487
f 492 491 490

usemtl Patch_66_Mat_CR1_concrete
f 495 494 493
f 498 497 496
f 501 500 499
f 504 503 502
f 507 506 505

usemtl Patch_67_Mat_CR1_concrete
f 510 509 508
f 513 512 511
f 516 515 514

usemtl Patch_68_Mat_CR1_concrete
f 519 518 517
f 522 521 520
f 525 524 523
f 528 527 526
f 531 530 529

usemtl Patch_69_Mat_CR1_concrete
f 534 533 532
f 537 536 535
f 540 539 538
f 543 542 541

usemtl Patch_70_Mat_CR1_concrete
f 546 545 544
f 549 548 547
f 552 551 550

usemtl Patch_71_Mat_CR1_concrete
f 555 554 553
f 558 557 556
f 561 560 559

usemtl Patch_72_Mat_CR1_concrete
f 564 563 562
f 567 566 565

usemtl Patch_73_Mat_CR1_concrete
f 570 569 568
f 573 572 571

usemtl Patch_74_Mat_CR1_concrete
f 576 575 574
f 579 578 577

usemtl Patch_75_Mat_CR1_concrete
f 582 581 580
f 585 584 583

usemtl Patch_76_Mat_CR1_concrete
f 588 587 586
f 591 590 589

usemtl Patch_77_Mat_CR1_concrete
f 594 593 592
f 597 596 595

usemtl Patch_78_Mat_CR1_concrete
f 600 599 598
f 603 602 601

usemtl Patch_79_Mat_CR1_concrete
f 606 605 604
f 609 608 607

usemtl Patch_80_Mat_CR1_concrete
f 612 611 610
f 615 614 613

usemtl Patch_81_Mat_CR1_concrete
f 618 617 616
f 621 620 619

usemtl Patch_82_Mat_CR1_concrete
f 624 623 622
f 627 626 625

usemtl Patch_83_Mat_CR1_concrete
f 630 629 628
f 633 632 631

usemtl Patch_84_Mat_CR1_concrete
f 636 635 634
f 639 638 637

usemtl Patch_85_Mat_CR1_concrete
f 642 641 640
f 645 644 643

usemtl Patch_86_Mat_CR1_concrete
f 648 647 646
f 651 650 649

usemtl Patch_87_Mat_CR1_concrete
f 654 653 652
f 657 656 655

usemtl Patch_88_Mat_CR1_concrete
f 660 659 658
f 663 662 661
f 666 665 664

usemtl Patch_89_Mat_CR1_concrete
f 669 668 667
f 672 671 670
f 675 674 673

usemtl Patch_90_Mat_CR1_concrete
f 678 677 676
f 681 680 679
f 684 683 682
f 687 686 685

usemtl Patch_91_Mat_CR1_concrete
f 690 689 688
f 693 692 691
f 696 695 694

usemtl Patch_92_Mat_CR1_concrete
f 699 698 697
f 702 701 700
f 705 704 703

usemtl Patch_93_Mat_CR1_concrete
f 708 707 706
f 711 710 709
f 714 713 712

usemtl Patch_94_Mat_CR1_concrete
f 717 716 715
f 720 719 718

usemtl Patch_95_Mat_CR1_concrete
f 723 722 721
f 726 725 724
f 729 728 727

usemtl Patch_96_Mat_CR1_concrete
f 732 731 730
f 735 734 733
f 738 737 736
f 741 740 739

usemtl Patch_97_Mat_CR1_concrete
f 744 743 742
f 747 746 745
f 750 749 748
f 753 752 751

usemtl Patch_98_Mat_CR1_concrete
f 756 755 754
f 759 758 757
f 762 761 760

usemtl Patch_99_Mat_CR1_concrete
f 765 764 763
f 768 767 766

usemtl Patch_100_Mat_CR1_concrete
f 771 770 769
f 774 773 772
f 777 776 775

usemtl Patch_101_Mat_CR1_concrete
f 780 779 778
f 783 782 781
f 786 785 784
f 789 788 787

usemtl Patch_102_Mat_CR1_concrete
f 792 791 790
f 795 794 793
f 798 797 796

usemtl Patch_103_Mat_CR1_concrete
f 801 800 799
f 804 803 802
f 807 806 805

usemtl Patch_104_Mat_CR1_concrete
f 810 809 808
f 813 812 811
f 816 815 814

usemtl Patch_105_Mat_CR1_concrete
f 819 818 817
f 822 821 820
f 825 824 823

usemtl Patch_106_Mat_CR1_concrete
f 828 827 826
f 831 830 829
f 834 833 832
f 837 836 835

usemtl Patch_107_Mat_CR1_concrete
f 840 839 838
f 843 842 841
f 846 845 844
f 849 848 847

usemtl Patch_108_Mat_CR1_concrete
f 852 851 850
f 855 854 853
f 858 857 856
f 861 860 859

usemtl Patch_109_Mat_CR1_concrete
f 864 863 862
f 867 866 865
f 870 869 868
f 873 872 871
f 876 875 874
f 879 878 877
f 882 881 880

usemtl Patch_110_Mat_CR1_concrete
f 885 884 883
f 888 887 886
f 891 890 889

usemtl Patch_111_Mat_CR1_concrete
f 894 893 892
f 897 896 895
f 900 899 898
f 903 902 901
f 906 905 904
f 909 908 907

usemtl Patch_112_Mat_CR1_concrete
f 912 911 910
f 915 914 913

usemtl Patch_113_Mat_CR1_paintedConcrete
f 918 917 916
f 921 920 919
f 924 923 922

usemtl Patch_114_Mat_CR1_paintedConcrete
f 927 926 925
f 930 929 928
f 933 932 931

usemtl Patch_115_Mat_CR1_paintedConcrete
f 936 935 934
f 939 938 937

usemtl Patch_116_Mat_CR1_paintedConcrete
f 942 941 940
f 945 944 943
f 948 947 946

usemtl Patch_117_Mat_CR1_paintedConcrete
f 951 950 949
f 954 953 952

usemtl Patch_118_Mat_CR1_paintedConcrete
f 957 956 955
f 960 959 958
f 963 962 961

usemtl Patch_119_Mat_CR1_paintedConcrete
f 966 965 964
f 969 968 967
f 972 971 970

usemtl Patch_120_Mat_CR1_paintedConcrete
f 975 974 973
f 978 977 976
f 981 980 979

usemtl Patch_121_Mat_CR1_paintedConcrete
f 984 983 982
f 987 986 985
f 990 989 988
f 993 992 991

usemtl Patch_122_Mat_CR1_paintedConcrete
f 996 995 994
f 999 998 997
f 1002 1001 1000
f 1005 1004 1003
f 1008 1007 1006

usemtl Patch_123_Mat_CR1_paintedConcrete
f 1011 1010 1009
f 1014 1013 1012
f 1017 1016 1015

usemtl Patch_124_Mat_CR1_paintedConcrete
f 1020 1019 1018
f 1023 1022 1021
f 1026 1025 1024

usemtl Patch_125_Mat_CR1_paintedConcrete
f 1029 1028 1027
f 1032 1031 1030
f 1035 1034 1033

usemtl Patch_126_Mat_CR1_paintedConcrete
f 1038 1037 1036
f 1041 1040 1039
f 1044 1043 1042

usemtl Patch_127_Mat_CR1_paintedConcrete
f 1047 1046 1045
f 1050 1049 1048
f 1053 1052 1051
f 1056 1055 1054
f 1059 1058 1057

usemtl Patch_128_Mat_CR1_paintedConcrete
f 1062 1061 1060
f 1065 1064 1063

usemtl Patch_129_Mat_CR1_paintedConcrete
f 1068 1067 1066
f 1071 1070 1069
f 1074 1073 1072

usemtl Patch_130_Mat_CR1_paintedConcrete
f 1077 1076 1075
f 1080 1079 1078
f 1083 1082 1081
f 1086 1085 1084
f 1089 1088 1087

usemtl Patch_131_Mat_CR1_paintedConcrete
f 1092 1091 1090
f 1095 1094 1093
f 1098 1097 1096

usemtl Patch_132_Mat_CR1_paintedConcrete
f 1101 1100 1099
f 1104 1103 1102
f 1107 1106 1105

usemtl Patch_133_Mat_CR1_paintedConcrete
f 1110 1109 1108
f 1113 1112 1111
f 1116 1115 1114

usemtl Patch_134_Mat_CR1_paintedConcrete
f 1119 1118 1117
f 1122 1121 1120

usemtl Patch_135_Mat_CR1_paintedConcrete
f 1125 1124 1123
f 1128 1127 1126
f 1131 1130 1129

usemtl Patch_136_Mat_CR1_paintedConcrete
f 1134 1133 1132
f 1137 1136 1135

usemtl Patch_137_Mat_CR1_paintedConcrete
f 1140 1139 1138
f 1143 1142 1141
f 1146 1145 1144

usemtl Patch_138_Mat_CR1_paintedConcrete
f 1149 1148 1147
f 1152 1151 1150
f 1155 1154 1153

usemtl Patch_139_Mat_CR1_paintedConcrete
f 1158 1157 1156
f 1161 1160 1159
f 1164 1163 1162

usemtl Patch_140_Mat_CR1_tablesEquipment
f 1167 1166 1165
f 1170 1169 1168

usemtl Patch_141_Mat_CR1_tablesEquipment
f 1173 1172 1171
f 1176 1175 1174

usemtl Patch_142_Mat_CR1_tablesEquipment
f 1179 1178 1177
f 1182 1181 1180

usemtl Patch_143_Mat_CR1_tablesEquipment
f 1185 1184 1183
f 1188 1187 1186

usemtl Patch_144_Mat_CR1_tablesEquipment
f 1191 1190 1189
f 1194 1193 1192

usemtl Patch_145_Mat_CR1_tablesEquipment
f 1197 1196 1195
f 1200 1199 1198

usemtl Patch_146_Mat_CR1_tablesEquipment
f 1203 1202 1201
f 1206 1205 1204

usemtl Patch_147_Mat_CR1_tablesEquipment
f 1209 1208 1207
f 1212 1211 1210

usemtl Patch_148_Mat_CR1_tablesEquipment
f 1215 1214 1213
f 1218 1217 1216

usemtl Patch_149_Mat_CR1_tablesEquipment
f 1221 1220 1219
f 1224 1223 1222

usemtl Patch_150_Mat_CR1_absorber
f 1227 1226 1225
f 1230 1229 1228

usemtl Patch_151_Mat_CR1_absorber
f 1233 1232 1231
f 1236 1235 1234

usemtl Patch_152_Mat_CR1_absorber
f 1239 1238 1237
f 1242 1241 1240

usemtl Patch_153_Mat_CR1_absorber
f 1245 1244 1243
f 1248 1247 1246

usemtl Patch_154_Mat_CR1_tablesEquipment
f 1251 1250 1249
f 1254 1253 1252

usemtl Patch_155_Mat_CR1_tablesEquipment
f 1257 1256 1255
f 1260 1259 1258

usemtl Patch_156_Mat_CR1_tablesEquipment
f 1263 1262 1261
f 1266 1265 1264

usemtl Patch_157_Mat_CR1_tablesEquipment
f 1269 1268 1267
f 1272 1271 1270
f 1275 1274 1273
f 1278 1277 1276

usemtl Patch_158_Mat_CR1_tablesEquipment
f 1281 1280 1279
f 1284 1283 1282

usemtl Patch_159_Mat_CR1_tablesEquipment
f 1287 1286 1285
f 1290 1289 1288

usemtl Patch_160_Mat_CR1_tablesEquipment
f 1293 1292 1291
f 1296 1295 1294

usemtl Patch_161_Mat_CR1_concrete
f 1299 1298 1297
f 1302 1301 1300
f 1305 1304 1303
f 1308 1307 1306
f 1311 1310 1309
f 1314 1313 1312

usemtl Patch_162_Mat_CR1_concrete
f 1317 1316 1315
f 1320 1319 1318
f 1323 1322 1321
f 1326 1325 1324

usemtl Patch_163_Mat_CR1_concrete
f 1329 1328 1327
f 1332 1331 1330
f 1335 1334 1333

usemtl Patch_164_Mat_CR1_concrete
f 1338 1337 1336
f 1341 1340 1339
f 1344 1343 1342
f 1347 1346 1345

usemtl Patch_165_Mat_CR1_concrete
f 1350 1349 1348
f 1353 1352 1351
f 1356 1355 1354

usemtl Patch_166_Mat_CR1_concrete
f 1359 1358 1357
f 1362 1361 1360
f 1365 1364 1363

usemtl Patch_167_Mat_CR1_concrete
f 1368 1367 1366
f 1371 1370 1369
f 1374 1373 1372

usemtl Patch_168_Mat_CR1_concrete
f 1377 1376 1375
f 1380 1379 1378
f 1383 1382 1381
f 1386 1385 1384

usemtl Patch_169_Mat_CR1_concrete
f 1389 1388 1387
f 1392 1391 1390
f 1395 1394 1393
f 1398 1397 1396

usemtl Patch_170_Mat_CR1_concrete
f 1401 1400 1399
f 1404 1403 1402
f 1407 1406 1405
f 1410 1409 1408
f 1413 1412 1411

usemtl Patch_171_Mat_CR1_concrete
f 1416 1415 1414
f 1419 1418 1417
f 1422 1421 1420

usemtl Patch_172_Mat_CR1_concrete
f 1425 1424 1423
f 1428 1427 1426
f 1431 1430 1429

usemtl Patch_173_Mat_CR1_concrete
f 1434 1433 1432
f 1437 1436 1435
f 1440 1439 1438
f 1443 1442 1441

usemtl Patch_174_Mat_CR1_concrete
f 1446 1445 1444
f 1449 1448 1447
f 1452 1451 1450
f 1455 1454 1453

usemtl Patch_175_Mat_CR1_concrete
f 1458 1457 1456
f 1461 1460 1459
f 1464 1463 1462

usemtl Patch_176_Mat_CR1_concrete
f 1467 1466 1465
f 1470 1469 1468
f 1473 1472 1471
f 1476 1475 1474
f 1479 1478 1477

usemtl Patch_177_Mat_CR1_concrete
f 1482 1481 1480
f 1485 1484 1483
f 1488 1487 1486
f 1491 1490 1489

usemtl Patch_178_Mat_CR1_absorber
f 1494 1493 1492
f 1497 1496 1495

usemtl Patch_179_Mat_CR1_concrete
f 1500 1499 1498
f 1503 1502 1501

usemtl Patch_180_Mat_CR1_concrete
f 1506 1505 1504
f 1509 1508 1507

usemtl Patch_181_Mat_CR1_paintedConcrete
f 1512 1511 1510
f 1515 1514 1513
f 1518 1517 1516

usemtl Patch_182_Mat_CR1_paintedConcrete
f 1521 1520 1519
f 1524 1523 1522

usemtl Patch_183_Mat_CR1_paintedConcrete
f 1527 1526 1525
f 1530 1529 1528
f 1533 1532 1531

usemtl Patch_184_Mat_CR1_paintedConcrete
f 1536 1535 1534
f 1539 1538 1537
f 1542 1541 1540
f 1545 1544 1543
f 1548 1547 1546
f 1551 1550 1549
f 1554 1553 1552

usemtl Patch_185_Mat_CR1_paintedConcrete
f 1557 1556 1555
f 1560 1559 1558
f 1563 1562 1561
f 1566 1565 1564

usemtl Patch_186_Mat_CR1_paintedConcrete
f 1569 1568 1567
f 1572 1571 1570

usemtl Patch_187_Mat_CR1_paintedConcrete
f 1575 1574 1573
f 1578 1577 1576
f 1581 1580 1579

usemtl Patch_188_Mat_CR1_paintedConcrete
f 1584 1583 1582
f 1587 1586 1585

usemtl Patch_189_Mat_CR1_paintedConcrete
f 1590 1589 1588
f 1593 1592 1591

usemtl Patch_190_Mat_CR1_paintedConcrete
f 1596 1595 1594
f 1599 1598 1597
f 1602 1601 1600

usemtl Patch_191_Mat_CR1_paintedConcrete
f 1605 1604 1603
f 1608 1607 1606
f 1611 1610 1609
f 1614 1613 1612

usemtl Patch_192_Mat_CR1_paintedConcrete
f 1617 1616 1615
f 1620 1619 1618

usemtl Patch_193_Mat_CR1_paintedConcrete
f 1623 1622 1621
f 1626 1625 1624
f 1629 1628 1627
f 1632 1631 1630

usemtl Patch_194_Mat_CR1_paintedConcrete
f 1635 1634 1633
f 1638 1637 1636
f 1641 1640 1639

usemtl Patch_195_Mat_CR1_paintedConcrete
f 1644 1643 1642
f 1647 1646 1645
f 1650 1649 1648
f 1653 1652 1651
f 1656 1655 1654

usemtl Patch_196_Mat_CR1_paintedConcrete
f 1659 1658 1657
f 1662 1661 1660
f 1665 1664 1663

usemtl Patch_197_Mat_CR1_paintedConcrete
f 1668 1667 1666
f 1671 1670 1669
f 1674 1673 1672

usemtl Patch_198_Mat_CR1_paintedConcrete
f 1677 1676 1675
f 1680 1679 1678

usemtl Patch_199_Mat_CR1_paintedConcrete
f 1683 1682 1681
f 1686 1685 1684
f 1689 1688 1687
f 1692 1691 1690

usemtl Patch_200_Mat_CR1_paintedConcrete
f 1695 1694 1693
f 1698 1697 1696
f 1701 1700 1699
f 1704 1703 1702

usemtl Patch_201_Mat_CR1_paintedConcrete
f 1707 1706 1705
f 1710 1709 1708
f 1713 1712 1711

usemtl Patch_202_Mat_CR1_paintedConcrete
f 1716 1715 1714
f 1719 1718 1717
f 1722 1721 1720

usemtl Patch_203_Mat_CR1_paintedConcrete
f 1725 1724 1723
f 1728 1727 1726
f 1731 1730 1729

usemtl Patch_204_Mat_CR1_paintedConcrete
f 1734 1733 1732
f 1737 1736 1735
f 1740 1739 1738

usemtl Patch_205_Mat_CR1_paintedConcrete
f 1743 1742 1741
f 1746 1745 1744
f 1749 1748 1747
f 1752 1751 1750

usemtl Patch_206_Mat_CR1_paintedConcrete
f 1755 1754 1753
f 1758 1757 1756
f 1761 1760 1759
f 1764 1763 1762

usemtl Patch_207_Mat_CR1_paintedConcrete
f 1767 1766 1765
f 1770 1769 1768
f 1773 1772 1771

usemtl Patch_208_Mat_CR1_paintedConcrete
f 1776 1775 1774
f 1779 1778 1777
f 1782 1781 1780
f 1785 1784 1783

usemtl Patch_209_Mat_CR1_paintedConcrete
f 1788 1787 1786
f 1791 1790 1789
f 1794 1793 1792

usemtl Patch_210_Mat_CR1_paintedConcrete
f 1797 1796 1795
f 1800 1799 1798
f 1803 1802 1801
f 1806 1805 1804

usemtl Patch_211_Mat_CR1_paintedConcrete
f 1809 1808 1807
f 1812 1811 1810
f 1815 1814 1813
f 1818 1817 1816
f 1821 1820 1819

usemtl Patch_212_Mat_CR1_paintedConcrete
f 1824 1823 1822
f 1827 1826 1825
f 1830 1829 1828

usemtl Patch_213_Mat_CR1_paintedConcrete
f 1833 1832 1831
f 1836 1835 1834

usemtl Patch_214_Mat_CR1_concrete
f 1839 1838 1837
f 1842 1841 1840

usemtl Patch_215_Mat_CR1_concrete
f 1845 1844 1843
f 1848 1847 1846

usemtl Patch_216_Mat_CR1_concrete
f 1851 1850 1849
f 1854 1853 1852

usemtl Patch_217_Mat_CR1_paintedConcrete
f 1857 1856 1855
f 1860 1859 1858
f 1863 1862 1861

usemtl Patch_218_Mat_CR1_paintedConcrete
f 1866 1865 1864
f 1869 1868 1867

usemtl Patch_219_Mat_CR1_paintedConcrete
f 1872 1871 1870
f 1875 1874 1873

usemtl Patch_220_Mat_CR1_paintedConcrete
f 1878 1877 1876
f 1881 1880 1879
f 1884 1883 1882
f 1887 1886 1885
f 1890 1889 1888
f 1893 1892 1891
f 1896 1895 1894

usemtl Patch_221_Mat_CR1_tablesEquipment
f 1899 1898 1897
f 1902 1901 1900

usemtl Patch_222_Mat_CR1_tablesEquipment
f 1905 1904 1903
f 1908 1907 1906

usemtl Patch_223_Mat_CR1_absorber
f 1911 1910 1909
f 1914 1913 1912

usemtl Patch_224_Mat_CR1_absorber
f 1917 1916 1915
f 1920 1919 1918

usemtl Patch_225_Mat_CR1_absorber
f 1923 1922 1921
f 1926 1925 1924

usemtl Patch_226_Mat_CR1_absorber
f 1929 1928 1927
f 1932 1931 1930

usemtl Patch_227_Mat_CR1_absorber
f 1935 1934 1933
f 1938 1937 1936

