mtllib mesh.mtl

v 6.10173802 1.90299993 2.73600005
v 4.516348035640646 -0.15045267333851076 2.73600005
v 6.10173802 -0.12230581276240315 2.73600005
v 4.0752705324693235 0.35563793189057713 2.73600005
v 6.10173802 1.90299993 2.73600005
v 4.3793845785858085 2.061191128655577 2.73600005
v 4.516348035640646 -0.15045267333851076 2.73600005
v 6.10173802 1.90299993 2.73600005
v 4.0752705324693235 0.35563793189057713 2.73600005
v 4.516348035640646 -0.15045267333851076 2.73600005
v 4.036450043569468 -1.692770874755861 2.73600005
v 4.4504794354264625 -2.2083776507257387 2.73600005
v 4.516348035640646 -0.15045267333851076 2.73600005
v 6.101738019999999 -2.2462086743659744 2.73600005
v 6.10173802 -0.12230581276240315 2.73600005
v 6.101738019999999 -2.2462086743659744 2.73600005
v 4.516348035640646 -0.15045267333851076 2.73600005
v 4.4504794354264625 -2.2083776507257387 2.73600005
v 2.3309893622763544 2.249327945871374 2.73600005
v 4.0752705324693235 0.35563793189057713 2.73600005
v 4.3793845785858085 2.061191128655577 2.73600005
v 4.0752705324693235 0.35563793189057713 2.73600005
v 2.3309893622763544 2.249327945871374 2.73600005
v 2.3717467277859896 0.2597116027978357 2.73600005
v 2.3717467277859896 0.2597116027978357 2.73600005
v 2.2509840999402835 0.13421177268145934 2.73600005
v 2.602269640147863 -1.6496900570893422 2.73600005
v 4.0752705324693235 0.35563793189057713 2.73600005
v 4.036450043569468 -1.692770874755861 2.73600005
v 4.516348035640646 -0.15045267333851076 2.73600005
v 2.602269640147863 -1.6496900570893422 2.73600005
v 4.0752705324693235 0.35563793189057713 2.73600005
v 2.3717467277859896 0.2597116027978357 2.73600005
v 4.036450043569468 -1.692770874755861 2.73600005
v 4.0752705324693235 0.35563793189057713 2.73600005
v 2.602269640147863 -1.6496900570893422 2.73600005
v 4.364168783636778 -4.244503904104358 2.73600005
v 4.120918198772051 -6.159999970000002 2.73600005
v 6.101738019999999 -6.159999970000003 2.73600005
v 6.101738019999999 -6.159999970000003 2.73600005
v 6.101738019999999 -4.215481114387131 2.73600005
v 4.364168783636778 -4.244503904104358 2.73600005
v 0.57073784 0.49900001999999954 2.73600005
v 2.3717467277859896 0.2597116027978357 2.73600005
v 2.3309893622763544 2.249327945871374 2.73600005
v 2.3309893622763544 2.249327945871374 2.73600005
v 0.5707378399999996 2.4109999300000005 2.73600005
v 0.57073784 0.49900001999999954 2.73600005
v 0.57073784 0.49900001999999954 2.73600005
v 0.57073784 0.08406250375903324 2.73600005
v 2.2509840999402835 0.13421177268145934 2.73600005
v 2.3717467277859896 0.2597116027978357 2.73600005
v 0.57073784 0.49900001999999954 2.73600005
v 2.2509840999402835 0.13421177268145934 2.73600005
v 3.9722834023941136 -3.835576618511097 2.73600005
v 2.1905145655495155 -2.081950064878151 2.73600005
v 2.623830924453954 -3.8548772350236535 2.73600005
v 2.1905145655495155 -2.081950064878151 2.73600005
v 3.9722834023941136 -3.835576618511097 2.73600005
v 4.4504794354264625 -2.2083776507257387 2.73600005
v 2.1905145655495155 -2.081950064878151 2.73600005
v 4.036450043569468 -1.692770874755861 2.73600005
v 2.602269640147863 -1.6496900570893422 2.73600005
v 4.036450043569468 -1.692770874755861 2.73600005
v 2.1905145655495155 -2.081950064878151 2.73600005
v 4.4504794354264625 -2.2083776507257387 2.73600005
v 0.57073784 0.08406250375903324 2.73600005
v 2.602269640147863 -1.6496900570893422 2.73600005
v 2.2509840999402835 0.13421177268145934 2.73600005
v 2.1905145655495155 -2.081950064878151 2.73600005
v 0.57073784 0.08406250375903324 2.73600005
v 0.5707378400000003 -2.0693567890840434 2.73600005
v 2.602269640147863 -1.6496900570893422 2.73600005
v 0.57073784 0.08406250375903324 2.73600005
v 2.1905145655495155 -2.081950064878151 2.73600005
v 4.4504794354264625 -2.2083776507257387 2.73600005
v 3.9722834023941136 -3.835576618511097 2.73600005
v 4.364168783636778 -4.244503904104358 2.73600005
v 4.4504794354264625 -2.2083776507257387 2.73600005
v 6.101738019999999 -4.215481114387131 2.73600005
v 6.101738019999999 -2.2462086743659744 2.73600005
v 6.101738019999999 -4.215481114387131 2.73600005
v 4.4504794354264625 -2.2083776507257387 2.73600005
v 4.364168783636778 -4.244503904104358 2.73600005
v 2.319767260819723 -4.162646172568712 2.73600005
v 2.623830924453954 -3.8548772350236535 2.73600005
v 2.1905145655495155 -2.081950064878151 2.73600005
v 2.1905145655495155 -2.081950064878151 2.73600005
v 0.5707378400000003 -2.0693567890840434 2.73600005
v 0.5707378400000004 -4.175455233194514 2.73600005
v 0.5707378400000004 -4.175455233194514 2.73600005
v 2.319767260819723 -4.162646172568712 2.73600005
v 2.1905145655495155 -2.081950064878151 2.73600005
v 4.364168783636778 -4.244503904104358 2.73600005
v 2.319767260819723 -4.162646172568712 2.73600005
v 2.5423528408469327 -6.159999970000001 2.73600005
v 2.5423528408469327 -6.159999970000001 2.73600005
v 4.120918198772051 -6.159999970000002 2.73600005
v 4.364168783636778 -4.244503904104358 2.73600005
v 2.319767260819723 -4.162646172568712 2.73600005
v 3.9722834023941136 -3.835576618511097 2.73600005
v 2.623830924453954 -3.8548772350236535 2.73600005
v 3.9722834023941136 -3.835576618511097 2.73600005
v 2.319767260819723 -4.162646172568712 2.73600005
v 4.364168783636778 -4.244503904104358 2.73600005
v 2.319767260819723 -4.162646172568712 2.73600005
v 0.5707378400000004 -4.175455233194514 2.73600005
v 0.5707378400000008 -6.159999970000001 2.73600005
v 0.5707378400000008 -6.159999970000001 2.73600005
v 2.5423528408469327 -6.159999970000001 2.73600005
v 2.319767260819723 -4.162646172568712 2.73600005
v -4.022418647575452 -3.6479998099999995 1.954554039376954
v -4.04115699637664 -3.647999809999999 2.7680000399999996
v -6.25126223 -3.6479998099999986 2.7680000399999996
v -6.25126223 -3.6479998099999986 2.7680000399999996
v -6.25126223 -3.6479998099999995 1.10000001
v -4.697974962937596 -3.64799981 1.10000001
v -4.697974962937596 -3.64799981 1.10000001
v -4.022418647575452 -3.6479998099999995 1.954554039376954
v -6.25126223 -3.6479998099999986 2.7680000399999996
v -4.022418647575452 -3.6479998099999995 1.954554039376954
v -4.697974962937596 -3.64799981 1.10000001
v -4.52168292 -3.64799981 1.10000001
v -2.8374229454240196 -3.6479998100000004 1.10000001
v -4.52168292 -3.6479998100000004 0.0
v -2.8027147800000005 -3.647999810000001 -2.220446049250313e-16
v -2.8027147800000005 -3.647999810000001 -2.220446049250313e-16
v -2.8027147800000005 -3.6479998100000004 1.0749703811485802
v -2.8374229454240196 -3.6479998100000004 1.10000001
v -2.8374229454240196 -3.6479998100000004 1.10000001
v -4.022418647575452 -3.6479998099999995 1.954554039376954
v -4.52168292 -3.64799981 1.10000001
v -4.52168292 -3.6479998100000004 0.0
v -2.8374229454240196 -3.6479998100000004 1.10000001
v -4.52168292 -3.64799981 1.10000001
v -1.8475955216595012 -3.6479998099999995 2.7680000399999996
v -2.8374229454240196 -3.6479998100000004 1.10000001
v -1.9414974578343058 -3.6479998100000004 1.10000001
v -4.022418647575452 -3.6479998099999995 1.954554039376954
v -1.8475955216595012 -3.6479998099999995 2.7680000399999996
v -4.04115699637664 -3.647999809999999 2.7680000399999996
v -1.8475955216595012 -3.6479998099999995 2.7680000399999996
v -4.022418647575452 -3.6479998099999995 1.954554039376954
v -2.8374229454240196 -3.6479998100000004 1.10000001
v -2.8027147800000005 -3.6479998100000004 1.0749703811485802
v -2.8027147800000005 -3.6479998100000004 1.10000001
v -2.8374229454240196 -3.6479998100000004 1.10000001
v -1.8475955216595012 -3.6479998099999995 2.7680000399999996
v -0.00026214000000068793 -3.647999810000001 1.10000001
v -0.00026214000000115756 -3.64799981 2.7680000399999996
v -0.00026214000000068793 -3.647999810000001 1.10000001
v -1.8475955216595012 -3.6479998099999995 2.7680000399999996
v -1.9414974578343058 -3.6479998100000004 1.10000001
v -0.00026214 2.52300007 2.76800004
v -1.3664724398850936 0.4939393614694712 2.76800004
v -0.00026213999999968873 0.6326618088557557 2.76800004
v -2.208692498105657 1.2293495430194488 2.76800004
v -0.00026214 2.52300007 2.76800004
v -2.11778728622055 2.71642616218998 2.76800004
v -0.00026214 2.52300007 2.76800004
v -2.208692498105657 1.2293495430194488 2.76800004
v -1.3664724398850936 0.4939393614694712 2.76800004
v -4.423832633785289 1.00693782235727 2.76800004
v -4.068693592563538 0.5816907047621251 2.76800004
v -3.7028354548680515 0.49553589248426255 2.76800004
v -4.163466373365019 2.9032894504051687 2.76800004
v -2.208692498105657 1.2293495430194488 2.76800004
v -2.11778728622055 2.71642616218998 2.76800004
v -2.208692498105657 1.2293495430194488 2.76800004
v -4.163466373365019 2.9032894504051687 2.76800004
v -4.423832633785289 1.00693782235727 2.76800004
v -2.208692498105657 1.2293495430194488 2.76800004
v -4.423832633785289 1.00693782235727 2.76800004
v -3.7028354548680515 0.49553589248426255 2.76800004
v -1.3664724398850936 0.4939393614694712 2.76800004
v -1.9566973394035823 -1.1456267813613752 2.76800004
v -1.3925529744486904 -1.620717992659788 2.76800004
v -1.3664724398850936 0.4939393614694712 2.76800004
v -0.00026213999999935567 -1.605838403800314 2.76800004
v -0.00026213999999968873 0.6326618088557557 2.76800004
v -0.00026213999999935567 -1.605838403800314 2.76800004
v -1.3664724398850936 0.4939393614694712 2.76800004
v -1.3925529744486904 -1.620717992659788 2.76800004
v -1.3925529744486904 -1.620717992659788 2.76800004
v -2.733498247417192 -1.1813547588522875 2.76800004
v -3.34812969073857 -1.8122168935888432 2.76800004
v -3.34812969073857 -1.8122168935888432 2.76800004
v -2.820094414664417 -3.647999809999999 2.76800004
v -1.803859621277009 -3.64799981 2.76800004
v -2.733498247417192 -1.1813547588522875 2.76800004
v -1.3925529744486904 -1.620717992659788 2.76800004
v -1.9566973394035823 -1.1456267813613752 2.76800004
v -1.3925529744486904 -1.620717992659788 2.76800004
v -3.34812969073857 -1.8122168935888432 2.76800004
v -1.803859621277009 -3.64799981 2.76800004
v -4.423832633785289 1.00693782235727 2.76800004
v -4.163466373365019 2.9032894504051687 2.76800004
v -6.25126223 3.0939999100000013 2.7680000399999996
v -6.25126223 3.0939999100000013 2.7680000399999996
v -6.25126223 1.0838426126341099 2.7680000399999996
v -4.423832633785289 1.00693782235727 2.76800004
v -2.208692498105657 1.2293495430194488 2.76800004
v -3.7028354548680515 0.49553589248426255 2.76800004
v -2.733498247417192 -1.1813547588522875 2.76800004
v -2.733498247417192 -1.1813547588522875 2.76800004
v -1.9566973394035823 -1.1456267813613752 2.76800004
v -1.3664724398850936 0.4939393614694712 2.76800004
v -1.3664724398850936 0.4939393614694712 2.76800004
v -2.208692498105657 1.2293495430194488 2.76800004
v -2.733498247417192 -1.1813547588522875 2.76800004
v -3.7028354548680515 0.49553589248426255 2.76800004
v -5.119102383632479 -1.1769027540704835 2.76800004
v -4.482668505245896 -1.8185065730257894 2.76800004
v -3.7028354548680515 0.49553589248426255 2.76800004
v -3.34812969073857 -1.8122168935888432 2.76800004
v -2.733498247417192 -1.1813547588522875 2.76800004
v -5.119102383632479 -1.1769027540704835 2.76800004
v -3.7028354548680515 0.49553589248426255 2.76800004
v -4.068693592563538 0.5816907047621251 2.76800004
v -3.7028354548680515 0.49553589248426255 2.76800004
v -4.482668505245896 -1.8185065730257894 2.76800004
v -3.34812969073857 -1.8122168935888432 2.76800004
v -5.119102383632479 -1.1769027540704835 2.76800004
v -4.068693592563538 0.5816907047621251 2.76800004
v -4.423832633785289 1.00693782235727 2.76800004
v -5.119102383632479 -1.1769027540704835 2.76800004
v -6.25126223 1.0838426126341099 2.7680000399999996
v -6.25126223 -1.125779481585724 2.76800004
v -6.25126223 1.0838426126341099 2.7680000399999996
v -5.119102383632479 -1.1769027540704835 2.76800004
v -4.423832633785289 1.00693782235727 2.76800004
v -1.3925529744486904 -1.620717992659788 2.76800004
v -1.803859621277009 -3.64799981 2.76800004
v -0.0002621399999989116 -3.6479998100000004 2.7680000400000004
v -0.0002621399999989116 -3.6479998100000004 2.7680000400000004
v -0.00026213999999935567 -1.605838403800314 2.76800004
v -1.3925529744486904 -1.620717992659788 2.76800004
v -3.34812969073857 -1.8122168935888432 2.76800004
v -4.482668505245896 -1.8185065730257894 2.76800004
v -4.989558386173216 -3.6479998099999995 2.76800004
v -4.989558386173216 -3.6479998099999995 2.76800004
v -2.820094414664417 -3.647999809999999 2.76800004
v -3.34812969073857 -1.8122168935888432 2.76800004
v -6.251262229999999 -3.647999809999999 2.76800004
v -5.119102383632479 -1.1769027540704835 2.76800004
v -6.25126223 -1.125779481585724 2.76800004
v -4.482668505245896 -1.8185065730257894 2.76800004
v -6.251262229999999 -3.647999809999999 2.76800004
v -4.989558386173216 -3.6479998099999995 2.76800004
v -5.119102383632479 -1.1769027540704835 2.76800004
v -6.251262229999999 -3.647999809999999 2.76800004
v -4.482668505245896 -1.8185065730257894 2.76800004
v -6.25126223 -1.5053151220598981 1.813487991747926
v -6.25126223 -3.05310105 0.6547632530973685
v -6.25126223 -3.05310105 1.10000001
v -6.25126223 -3.05310105 1.10000001
v -6.25126223 -3.64799981 1.10000001
v -6.25126223 -3.64799981 2.76800004
v -6.25126223 -3.64799981 2.76800004
v -6.25126223 -1.518045744303996 2.7680000399999996
v -6.25126223 -1.5053151220598981 1.813487991747926
v -6.25126223 -1.5053151220598981 1.813487991747926
v -6.25126223 -3.05310105 1.10000001
v -6.25126223 -3.64799981 2.76800004
v -6.25126223 0.8504338194524997 1.9001305419795373
v -6.25126223 -0.42030726255284984 0.712223338305253
v -6.25126223 -1.5053151220598981 1.813487991747926
v -6.25126223 0.8504338194524997 1.9001305419795373
v -6.25126223 -1.518045744303996 2.7680000399999996
v -6.25126223 0.8596063390438631 2.7680000399999996
v -6.25126223 -1.518045744303996 2.7680000399999996
v -6.25126223 0.8504338194524997 1.9001305419795373
v -6.25126223 -1.5053151220598981 1.813487991747926
v -6.25126223 -0.42030726255284984 0.712223338305253
v -6.25126223 0.8504338194524997 1.9001305419795373
v -6.25126223 2.1558492200000012 0.6634603320537746
v -6.25126223 2.1558492200000012 0.6634603320537746
v -6.25126223 2.1558492200000012 0.0
v -6.25126223 -0.41203964594809084 -2.220446049250313e-16
v -6.25126223 -0.41203964594809084 -2.220446049250313e-16
v -6.25126223 -0.42030726255284984 0.712223338305253
v -6.25126223 2.1558492200000012 0.6634603320537746
v -6.25126223 -3.05310105 0.6547632530973685
v -6.25126223 -0.42030726255284984 0.712223338305253
v -6.25126223 -0.41203964594809084 -2.220446049250313e-16
v -6.25126223 -0.41203964594809084 -2.220446049250313e-16
v -6.25126223 -3.05310105 0.0
v -6.25126223 -3.05310105 0.6547632530973685
v -6.25126223 -0.42030726255284984 0.712223338305253
v -6.25126223 -3.05310105 0.6547632530973685
v -6.25126223 -1.5053151220598981 1.813487991747926
v -6.25126223 0.8504338194524997 1.9001305419795373
v -6.25126223 0.8596063390438631 2.7680000399999996
v -6.25126223 3.0939999099999995 2.7680000399999996
v -6.25126223 3.0939999099999995 2.7680000399999996
v -6.25126223 3.09399991 1.10000001
v -6.25126223 2.1558492200000003 1.10000001
v -6.25126223 2.1558492200000003 1.10000001
v -6.25126223 2.1558492200000012 0.6634603320537746
v -6.25126223 0.8504338194524997 1.9001305419795373
v -6.25126223 0.8504338194524997 1.9001305419795373
v -6.25126223 3.0939999099999995 2.7680000399999996
v -6.25126223 2.1558492200000003 1.10000001
v -1.67695229 2.67615797 1.10000001
v -2.0336349930559026 2.70873924085886 2.7680000400000004
v -0.00026214000000024384 2.5230000699999993 2.7680000400000004
v -0.00026214000000024384 2.5230000699999993 2.7680000400000004
v -0.00026213653199794185 2.5230001079658297 1.100000010000001
v -1.67695229 2.67615797 1.10000001
v -1.67695229 2.67615797 1.10000001
v -1.6769522891363977 2.6761579794542563 0.6846344356518944
v -2.1362738705424666 2.718114856831803 1.4180958499754799
v -2.0336349930559026 2.70873924085886 2.7680000400000004
v -1.67695229 2.67615797 1.10000001
v -2.1362738705424666 2.718114856831803 1.4180958499754799
v -1.6769522877129481 2.676157995037418 3.3306690738754696e-16
v -2.1362738705424666 2.718114856831803 1.4180958499754799
v -1.6769522891363977 2.6761579794542563 0.6846344356518944
v -2.1362738705424666 2.718114856831803 1.4180958499754799
v -1.6769522877129481 2.676157995037418 3.3306690738754696e-16
v -4.416042841614031 2.9263612018050944 1.9984014443252818e-15
v -4.416042841614031 2.9263612018050944 1.9984014443252818e-15
v -4.4160428432683725 2.9263611836942554 0.7956860113329678
v -4.119315691014991 2.899256524211266 1.300378661385408
v -2.1362738705424666 2.718114856831803 1.4180958499754799
v -4.416042841614031 2.9263612018050944 1.9984014443252818e-15
v -4.119315691014991 2.899256524211266 1.300378661385408
v -4.119315691014991 2.899256524211266 1.300378661385408
v -4.4160428432683725 2.9263611836942554 0.7956860113329678
v -4.416042843901082 2.9263611767676765 1.1000000100000003
v -4.416042843901082 2.9263611767676765 1.1000000100000003
v -6.251262226531997 3.0939999479658304 1.1000000100000007
v -6.251262229999999 3.09399991 2.76800004
v -4.416042843901082 2.9263611767676765 1.1000000100000003
v -4.22725286184555 2.909116050019973 2.76800004
v -4.119315691014991 2.899256524211266 1.300378661385408
v -4.22725286184555 2.909116050019973 2.76800004
v -4.416042843901082 2.9263611767676765 1.1000000100000003
v -6.251262229999999 3.09399991 2.76800004
v -2.1362738705424666 2.718114856831803 1.4180958499754799
v -4.119315691014991 2.899256524211266 1.300378661385408
v -4.22725286184555 2.909116050019973 2.76800004
v -4.22725286184555 2.909116050019973 2.76800004
v -2.0336349930559026 2.70873924085886 2.7680000400000004
v -2.1362738705424666 2.718114856831803 1.4180958499754799
v -0.00026214 1.59804907 1.1000000100000003
v -0.00026214 2.52300007 1.10000001
v -0.00026214 2.52300007 2.76800004
v -0.00026214 0.4308010136887602 2.7680000399999996
v -0.00026214 1.59804907 0.9145987779000437
v -0.00026214 1.59804907 1.1000000100000003
v -0.00026214 1.59804907 1.1000000100000003
v -0.00026214 2.52300007 2.76800004
v -0.00026214 0.4308010136887602 2.7680000399999996
v -0.00026214 -0.012000000000000354 2.19499993
v -0.00026214 -0.6647868419661567 2.76800004
v -0.00026214 -0.7710389938437912 2.193971488710385
v -0.00026214 1.59804907 0.9145987779000437
v -0.00026214 -0.01200000000000001 0.0
v -0.00026214 1.59804907 0.0
v -0.00026214 -0.012000000000000354 2.19499993
v -0.00026214 1.59804907 0.9145987779000437
v -0.00026214 0.4308010136887602 2.7680000399999996
v -0.00026214 -0.6647868419661567 2.76800004
v -0.00026214 -0.012000000000000354 2.19499993
v -0.00026214 0.4308010136887602 2.7680000399999996
v -0.00026214 -0.01200000000000001 0.0
v -0.00026214 1.59804907 0.9145987779000437
v -0.00026214 -0.012000000000000354 2.19499993
v -0.00026214 -1.9833576199999996 1.10000001
v -0.00026214 -3.64799981 2.7680000399999996
v -0.00026214 -3.64799981 1.1000000099999998
v -0.00026214 -1.9833576199999996 1.10000001
v -0.00026214 -1.9833576199999998 0.0
v -0.00026214 -1.4879999699999997 0.0
v -0.00026214 -1.48799997 2.19300006
v -0.00026214 -0.7710389938437912 2.193971488710385
v -0.00026214 -0.6647868419661567 2.76800004
v -0.00026214 -1.9833576199999996 1.10000001
v -0.00026214 -1.4879999699999997 0.0
v -0.00026214 -1.48799997 2.19300006
v -0.00026214 -3.64799981 2.7680000399999996
v -0.00026214 -1.48799997 2.19300006
v -0.00026214 -0.6647868419661567 2.76800004
v -0.00026214 -3.64799981 2.7680000399999996
v -0.00026214 -1.9833576199999996 1.10000001
v -0.00026214 -1.48799997 2.19300006
v 4.1498028569578205 2.0822772813931487 1.497299304072845
v 4.566127493540824 2.044039547077225 2.73600005
v 6.10173802 1.90299993 2.73600005
v 4.1498028569578205 2.0822772813931487 1.497299304072845
v 6.101738020000001 1.90299993 0.04999999999999982
v 4.763451261725054 2.025916156917149 0.04999999999999982
v 6.101738020000001 1.90299993 0.04999999999999982
v 4.1498028569578205 2.0822772813931487 1.497299304072845
v 6.10173802 1.90299993 2.73600005
v 4.1498028569578205 2.0822772813931487 1.497299304072845
v 2.5268431411857715 2.2313395682817743 1.2787803465643786
v 1.9250281633857675 2.2866138403434326 2.7360000500000003
v 1.9250281633857675 2.2866138403434326 2.7360000500000003
v 4.566127493540824 2.044039547077225 2.73600005
v 4.1498028569578205 2.0822772813931487 1.497299304072845
v 2.5268431411857715 2.2313395682817743 1.2787803465643786
v 4.1498028569578205 2.0822772813931487 1.497299304072845
v 4.763451261725054 2.025916156917149 0.04999999999999982
v 4.763451261725054 2.025916156917149 0.04999999999999982
v 2.104760027778645 2.270106195407579 0.04999999999999982
v 2.5268431411857715 2.2313395682817743 1.2787803465643786
v 2.5268431411857715 2.2313395682817743 1.2787803465643786
v 2.104760027778645 2.270106195407579 0.04999999999999982
v 0.5707378400000004 2.41099993 0.05000000000000015
v 2.5268431411857715 2.2313395682817743 1.2787803465643786
v 0.5707378400000007 2.41099993 2.7360000500000003
v 1.9250281633857675 2.2866138403434326 2.7360000500000003
v 0.5707378400000007 2.41099993 2.7360000500000003
v 2.5268431411857715 2.2313395682817743 1.2787803465643786
v 0.5707378400000004 2.41099993 0.05000000000000015
v 6.10173802 -0.13162988822319294 1.4131607476544121
v 6.10173802 1.90299993 1.3478162181502957
v 6.10173802 1.90299993 2.73600005
v 6.10173802 1.90299993 2.73600005
v 6.10173802 -0.5588344178723533 2.7360000500000003
v 6.10173802 -0.13162988822319294 1.4131607476544121
v 6.10173802 -0.13162988822319294 1.4131607476544121
v 6.10173802 -2.2114100037160167 2.7360000500000003
v 6.10173802 -2.1105108925510074 0.050000000000000266
v 6.10173802 -2.1105108925510074 0.050000000000000266
v 6.10173802 -0.6299154403906847 0.050000000000000266
v 6.10173802 -0.13162988822319294 1.4131607476544121
v 6.10173802 -2.2114100037160167 2.7360000500000003
v 6.10173802 -0.13162988822319294 1.4131607476544121
v 6.10173802 -0.5588344178723533 2.7360000500000003
v 6.10173802 -0.13162988822319294 1.4131607476544121
v 6.10173802 -0.6299154403906847 0.050000000000000266
v 6.10173802 1.9029999300000002 0.04999999999999982
v 6.10173802 1.9029999300000002 0.04999999999999982
v 6.10173802 1.90299993 1.3478162181502957
v 6.10173802 -0.13162988822319294 1.4131607476544121
v 6.10173802 -4.177551528461554 1.339749696614026
v 6.10173802 -3.63753606519764 2.736000050000001
v 6.10173802 -6.15999997 2.736000050000001
v 6.10173802 -6.15999997 2.736000050000001
v 6.10173802 -6.15999997 1.493434968160301
v 6.10173802 -4.177551528461554 1.339749696614026
v 6.10173802 -2.2114100037160167 2.7360000500000003
v 6.10173802 -3.63753606519764 2.736000050000001
v 6.10173802 -4.177551528461554 1.339749696614026
v 6.10173802 -4.177551528461554 1.339749696614026
v 6.10173802 -3.7744271813772827 0.05000000000000049
v 6.10173802 -2.1105108925510074 0.050000000000000266
v 6.10173802 -2.1105108925510074 0.050000000000000266
v 6.10173802 -2.2114100037160167 2.7360000500000003
v 6.10173802 -4.177551528461554 1.339749696614026
v 6.10173802 -4.177551528461554 1.339749696614026
v 6.10173802 -6.15999997 1.493434968160301
v 6.10173802 -6.159999969999999 0.05000000000000103
v 6.10173802 -6.159999969999999 0.05000000000000103
v 6.10173802 -3.7744271813772827 0.05000000000000049
v 6.10173802 -4.177551528461554 1.339749696614026
v 2.484074743402062 -6.15999997 1.4066933009334774
v 2.9789711338509943 -6.15999997 2.73600005
v 0.57073784 -6.15999997 2.73600005
v 0.57073784 -6.15999997 2.73600005
v 0.5707378399999998 -6.15999997 1.3922680384160904
v 2.484074743402062 -6.15999997 1.4066933009334774
v 4.428978556536146 -6.15999997 0.04999999999999971
v 6.101738019999999 -6.15999997 0.049999999999999996
v 6.101738019999999 -6.15999997 2.7360000500000003
v 6.101738019999999 -6.15999997 2.7360000500000003
v 4.399221877383229 -6.15999997 2.7360000500000003
v 4.428978556536146 -6.15999997 0.04999999999999971
v 2.484074743402062 -6.15999997 1.4066933009334774
v 0.5707378399999998 -6.15999997 1.3922680384160904
v 0.5707378399999996 -6.15999997 0.04999999999999938
v 0.5707378399999996 -6.15999997 0.04999999999999938
v 2.966550688876519 -6.15999997 0.04999999999999982
v 2.484074743402062 -6.15999997 1.4066933009334774
v 2.484074743402062 -6.15999997 1.4066933009334774
v 2.966550688876519 -6.15999997 0.04999999999999982
v 4.428978556536146 -6.15999997 0.04999999999999971
v 2.484074743402062 -6.15999997 1.4066933009334774
v 4.399221877383229 -6.15999997 2.7360000500000003
v 2.9789711338509943 -6.15999997 2.73600005
v 4.399221877383229 -6.15999997 2.7360000500000003
v 2.484074743402062 -6.15999997 1.4066933009334774
v 4.428978556536146 -6.15999997 0.04999999999999971
v -4.41604285 2.92636111 1.10000001
v -4.51011812 1.98546776 1.10000001
v -6.251262230000001 2.15584922 1.10000001
v -6.251262230000001 2.15584922 1.10000001
v -6.25126223 3.09399991 1.10000001
v -4.41604285 2.92636111 1.10000001
v -4.51011812 1.98546776 1.0000000100000002
v -4.41604285 2.92636111 0.0
v -4.51011812 1.9854677599999997 -5.551115123125783e-17
v -4.51011812 1.98546776 1.0000000100000002
v -4.51011812 1.9854677599999997 1.1000000100000003
v -4.41604285 2.92636111 1.1000000100000003
v -4.41604285 2.92636111 0.0
v -4.51011812 1.98546776 1.0000000100000002
v -4.41604285 2.92636111 1.1000000100000003
v -4.51011812 1.98546776 1.00000001
v -4.51011812 1.98546776 -1.1102230246251565e-16
v -6.25126223 2.15584922 -1.6623471656375042e-16
v -4.51011812 1.98546776 1.00000001
v -6.25126223 2.15584922 1.10000001
v -4.51011812 1.98546776 1.10000001
v -6.25126223 2.15584922 1.10000001
v -4.51011812 1.98546776 1.00000001
v -6.25126223 2.15584922 -1.6623471656375042e-16
v -4.52168292 -3.05310105 1.10000001
v -6.25126223 -3.05310105 1.10000001
v -6.25126223 -3.05310105 -1.1102230246251565e-16
v -6.25126223 -3.05310105 -1.1102230246251565e-16
v -4.52168292 -3.05310105 -8.177322744583182e-17
v -4.52168292 -3.05310105 1.10000001
v -4.52168292 -3.0531010499999995 1.10000001
v -4.52168292 -3.64799981 1.10000001
v -6.251262230000001 -3.64799981 1.10000001
v -6.251262230000001 -3.64799981 1.10000001
v -6.25126223 -3.05310105 1.10000001
v -4.52168292 -3.0531010499999995 1.10000001
v -4.52168292 -3.05310105 1.1000000100000003
v -4.52168292 -3.05310105 0.0
v -4.52168292 -3.64799981 0.0
v -4.52168292 -3.64799981 0.0
v -4.52168292 -3.64799981 1.1000000100000003
v -4.52168292 -3.05310105 1.1000000100000003
v -0.00026213999999985527 2.52300007 1.10000001
v -0.00026214 1.59804907 1.10000001
v -1.7412999100000002 1.7145899199999999 1.10000001
v -1.7412999100000002 1.7145899199999999 1.10000001
v -1.6769522899999998 2.67615797 1.10000001
v -0.00026213999999985527 2.52300007 1.10000001
v -1.7412999100000004 1.71458992 1.00000001
v -0.00026214 1.59804907 1.10000001
v -0.0002621399999999663 1.59804907 -2.220446049250313e-16
v -0.0002621399999999663 1.59804907 -2.220446049250313e-16
v -1.7412999100000004 1.71458992 -2.0269728106123305e-16
v -1.7412999100000004 1.71458992 1.00000001
v -0.00026214 1.59804907 1.10000001
v -1.7412999100000004 1.71458992 1.00000001
v -1.7412999100000004 1.71458992 1.10000001
v -1.7412999100000002 1.7145899199999999 1.00000001
v -1.67695229 2.67615797 1.10000001
v -1.7412999100000002 1.71458992 1.10000001
v -1.6769522899999998 2.6761579700000007 -1.6653345369377348e-16
v -1.7412999100000002 1.7145899199999999 1.00000001
v -1.74129991 1.71458992 -4.567339452123481e-17
v -1.7412999100000002 1.7145899199999999 1.00000001
v -1.6769522899999998 2.6761579700000007 -1.6653345369377348e-16
v -1.67695229 2.67615797 1.10000001
v -5.44190039 1.4788138000000002 1.00000001
v -5.44190039 1.4788138 0.0
v -5.44190039 -0.09118618000000017 -1.1102230246251565e-16
v -5.44190039 -0.09118618000000017 -1.1102230246251565e-16
v -5.44190039 -0.09118618000000006 1.0000000100000002
v -5.44190039 1.4788138000000002 1.00000001
v -3.55628642 2.55879575 1.00000001
v -2.39004694 2.52444417 0.0
v -3.55628642 2.55879575 -1.1102230246251565e-16
v -2.39004694 2.52444417 0.0
v -3.55628642 2.55879575 1.00000001
v -2.39004694 2.52444417 1.0000000100000002
v -1.74129991 1.7145899199999999 -3.0490106068438855e-16
v -2.39004694 2.52444417 1.00000001
v -1.74129991 1.7145899199999999 1.00000001
v -2.39004694 2.52444417 1.00000001
v -1.74129991 1.7145899199999999 -3.0490106068438855e-16
v -2.39004694 2.52444417 -3.3306690738754696e-16
v -5.44190039 1.4788138 1.4343640221042545e-17
v -4.51011812 1.98546776 1.00000001
v -4.51011812 1.9854677599999997 0.0
v -4.51011812 1.98546776 1.00000001
v -5.44190039 1.4788138 1.4343640221042545e-17
v -5.44190039 1.4788138000000002 1.00000001
v -2.80271478 -3.64799981 -7.01321664137976e-18
v -2.80271478 -2.79835749 1.10000001
v -2.80271478 -3.64799981 1.10000001
v -2.80271478 -2.79835749 1.10000001
v -2.80271478 -3.64799981 -7.01321664137976e-18
v -2.80271478 -2.79835749 -1.6653345369377348e-16
v -0.9127148300000004 -2.79835749 4.070404603785277e-16
v -2.80271478 -2.79835749 1.10000001
v -2.8027147800000005 -2.79835749 0.0
v -2.80271478 -2.79835749 1.10000001
v -0.9127148300000004 -2.79835749 4.070404603785277e-16
v -0.9127148300000003 -2.79835749 1.1000000100000005
v -0.9127148299999999 -2.79835749 1.10000001
v -2.80271478 -3.64799981 1.10000001
v -2.80271478 -2.79835749 1.10000001
v -0.9127148299999999 -2.79835749 1.10000001
v -0.9127148299999999 -1.98335762 1.10000001
v -0.0002621399999999108 -1.9833576199999998 1.10000001
v -2.80271478 -3.64799981 1.10000001
v -0.9127148299999999 -2.79835749 1.10000001
v -0.00026214 -3.64799981 1.10000001
v -0.9127148299999999 -2.79835749 1.10000001
v -0.0002621399999999108 -1.9833576199999998 1.10000001
v -0.00026214 -3.64799981 1.10000001
v -0.91271483 -1.98335762 -2.220446049250313e-16
v -0.91271483 -1.98335762 1.10000001
v -0.91271483 -2.79835749 1.10000001
v -0.91271483 -2.79835749 1.10000001
v -0.91271483 -2.79835749 -2.4019741118320573e-16
v -0.91271483 -1.98335762 -2.220446049250313e-16
v -0.00026214000000016367 -1.98335762 6.652804067786237e-17
v -0.91271483 -1.98335762 1.10000001
v -0.9127148300000001 -1.98335762 -5.551115123125783e-17
v -0.91271483 -1.98335762 1.10000001
v -0.00026214000000016367 -1.98335762 6.652804067786237e-17
v -0.0002621399999999108 -1.98335762 1.1000000100000003
v -0.9127148299999999 -1.9833576200000003 0.0
v -1.7617917566804375 -0.4242472174291081 0.0
v -0.00026214000000004956 -0.6046987868281173 0.0
v -0.00026214000000004956 -0.6046987868281173 0.0
v -0.00026214 -1.98335762 0.0
v -0.9127148299999999 -1.9833576200000003 0.0
v -0.9127148299999999 -1.9833576200000003 0.0
v -0.9127148299999996 -2.79835749 0.0
v -2.025017116591683 -2.79835749 0.0
v -0.9127148299999999 -1.9833576200000003 0.0
v -2.5142149162648053 -1.7078739406207606 0.0
v -1.7617917566804375 -0.4242472174291081 0.0
v -2.5142149162648053 -1.7078739406207606 0.0
v -0.9127148299999999 -1.9833576200000003 0.0
v -2.025017116591683 -2.79835749 0.0
v -1.74129991 1.7145899200000008 0.0
v -2.2833499626674927 0.5284234547776325 0.0
v -1.7435866560139484 1.7174445472929638 0.0
v -1.74129991 1.7145899200000008 0.0
v -0.0002621400000001328 1.5980490700000007 0.0
v -0.0002621400000001328 -0.011999999999999567 0.0
v -0.0002621400000001328 -0.011999999999999567 0.0
v -0.00026214000000004956 -0.6046987868281173 0.0
v -1.7617917566804375 -0.4242472174291081 0.0
v -0.0002621400000001328 -0.011999999999999567 0.0
v -2.2833499626674927 0.5284234547776325 0.0
v -1.74129991 1.7145899200000008 0.0
v -2.2833499626674927 0.5284234547776325 0.0
v -0.0002621400000001328 -0.011999999999999567 0.0
v -1.7617917566804375 -0.4242472174291081 0.0
v -2.2833499626674927 0.5284234547776325 0.0
v -4.00136388781804 0.46270328936203287 0.0
v -4.0437832124697985 0.5049891476321129 0.0
v -4.0437832124697985 0.5049891476321129 0.0
v -4.280916089215017 2.1232362359416905 0.0
v -3.55628642 2.55879575 0.0
v -2.2833499626674927 0.5284234547776325 0.0
v -2.39004694 2.524444170000001 0.0
v -1.7435866560139484 1.7174445472929638 0.0
v -3.55628642 2.55879575 0.0
v -2.2833499626674927 0.5284234547776325 0.0
v -4.0437832124697985 0.5049891476321129 0.0
v -2.39004694 2.524444170000001 0.0
v -2.2833499626674927 0.5284234547776325 0.0
v -3.55628642 2.55879575 0.0
v -2.2833499626674927 0.5284234547776325 0.0
v -4.051276224498158 -1.351003000648824 0.0
v -4.00136388781804 0.46270328936203287 0.0
v -4.051276224498158 -1.351003000648824 0.0
v -2.2833499626674927 0.5284234547776325 0.0
v -1.7617917566804375 -0.4242472174291081 0.0
v -4.051276224498158 -1.351003000648824 0.0
v -1.7617917566804375 -0.4242472174291081 0.0
v -2.5142149162648053 -1.7078739406207606 0.0
v -4.510118119999999 1.9854677600000006 0.0
v -6.251262229999999 0.23281255019401037 0.0
v -6.251262229999999 2.155849220000001 0.0
v -4.510118119999999 1.9854677600000006 0.0
v -4.280916089215017 2.1232362359416905 0.0
v -4.0437832124697985 0.5049891476321129 0.0
v -6.251262229999999 0.23281255019401037 0.0
v -4.510118119999999 1.9854677600000006 0.0
v -4.0437832124697985 0.5049891476321129 0.0
v -2.8027147799999996 -2.79835749 0.0
v -4.051276224498158 -1.351003000648824 0.0
v -2.5142149162648053 -1.7078739406207606 0.0
v -2.5142149162648053 -1.7078739406207606 0.0
v -2.025017116591683 -2.79835749 0.0
v -2.8027147799999996 -2.79835749 0.0
v -4.521682919999999 -3.05310105 0.0
v -2.8027147799999996 -3.64799981 0.0
v -4.521682919999999 -3.64799981 0.0
v -4.521682919999999 -3.05310105 0.0
v -4.580587593670935 -3.05310105 0.0
v -4.220542047199498 -1.4772046476602942 0.0
v -4.051276224498158 -1.351003000648824 0.0
v -2.8027147799999996 -2.79835749 0.0
v -4.220542047199498 -1.4772046476602942 0.0
v -2.8027147799999996 -3.64799981 0.0
v -4.521682919999999 -3.05310105 0.0
v -2.8027147799999996 -2.79835749 0.0
v -4.521682919999999 -3.05310105 0.0
v -4.220542047199498 -1.4772046476602942 0.0
v -2.8027147799999996 -2.79835749 0.0
v -4.220542047199498 -1.4772046476602942 0.0
v -4.00136388781804 0.46270328936203287 0.0
v -4.051276224498158 -1.351003000648824 0.0
v -6.251262229999999 0.23281255019401037 0.0
v -4.220542047199498 -1.4772046476602942 0.0
v -6.251262229999998 -1.1030203293887875 0.0
v -4.220542047199498 -1.4772046476602942 0.0
v -6.251262229999999 0.23281255019401037 0.0
v -4.0437832124697985 0.5049891476321129 0.0
v -4.00136388781804 0.46270328936203287 0.0
v -4.220542047199498 -1.4772046476602942 0.0
v -4.0437832124697985 0.5049891476321129 0.0
v -6.251262229999998 -1.1030203293887875 0.0
v -4.580587593670935 -3.05310105 0.0
v -6.251262229999999 -3.0531010499999995 0.0
v -4.580587593670935 -3.05310105 0.0
v -6.251262229999998 -1.1030203293887875 0.0
v -4.220542047199498 -1.4772046476602942 0.0
v -4.51011812 1.98546776 1.00000001
v -3.55628642 2.55879575 0.0
v -4.51011812 1.98546776 0.0
v -3.55628642 2.55879575 0.0
v -4.51011812 1.98546776 1.00000001
v -3.55628642 2.55879575 1.00000001
v 0.57073784 -1.48799997 0.04999999999999983
v -0.00026214 -1.48799997 2.19300006
v -0.0002621400000000218 -1.48799997 1.6653345369377348e-16
v -0.00026214 -1.48799997 2.19300006
v 0.57073784 -1.48799997 0.04999999999999983
v 0.57073784 -1.48799997 2.19300006
v 0.57073784 -0.011999999999999972 2.19499993
v 0.6757168 -1.48499143 0.05
v 0.6757168 -1.4849914300000002 2.1949999300000003
v 0.6757168 -1.48499143 0.05
v 0.57073784 -0.011999999999999972 2.19499993
v 0.57073784 -0.011999999999999678 0.04999999999999993
v 4.151128036304332 -4.369057471163604 0.05
v 4.497066252532033 -3.950705431274712 0.05
v 6.10173802 -3.9239192928561524 0.05
v 4.151128036304332 -4.369057471163604 0.05
v 6.10173802 -6.15999997 0.05
v 4.429791411827378 -6.15999997 0.05
v 6.10173802 -6.15999997 0.05
v 4.151128036304332 -4.369057471163604 0.05
v 6.10173802 -3.9239192928561524 0.05
v 4.300145165213186 0.1634402505330499 0.05000000000000001
v 4.196376788322215 2.0779996541353034 0.05000000000000001
v 6.101738020000001 1.9029999300000005 0.05000000000000001
v 6.101738020000001 1.9029999300000005 0.05000000000000001
v 6.101738020000001 0.11529319922725279 0.05000000000000001
v 4.300145165213186 0.1634402505330499 0.05000000000000001
v 2.5395414838291184 -4.414178967829357 0.05
v 4.151128036304332 -4.369057471163604 0.05
v 4.429791411827378 -6.15999997 0.05
v 4.429791411827378 -6.15999997 0.05
v 2.2556690555240873 -6.159999970000001 0.049999999999999996
v 2.5395414838291184 -4.414178967829357 0.05
v 2.654881708788686 -2.416496557092376 0.05
v 4.151128036304332 -4.369057471163604 0.05
v 2.5395414838291184 -4.414178967829357 0.05
v 2.5395414838291184 -4.414178967829357 0.05
v 2.0890136705797158 -3.884808559646886 0.05
v 2.654881708788686 -2.416496557092376 0.05
v 4.151128036304332 -4.369057471163604 0.05
v 3.985839033048383 -2.4129539069268686 0.05
v 4.497066252532033 -3.950705431274712 0.05
v 3.985839033048383 -2.4129539069268686 0.05
v 4.151128036304332 -4.369057471163604 0.05
v 2.654881708788686 -2.416496557092376 0.05
v 4.497066252532033 -3.950705431274712 0.05
v 3.985839033048383 -2.4129539069268686 0.05
v 4.445159824174753 -1.8339406433462968 0.05
v 4.445159824174753 -1.8339406433462968 0.05
v 6.101738020000001 -1.8024744438455647 0.05000000000000001
v 6.10173802 -3.9239192928561524 0.05
v 6.10173802 -3.9239192928561524 0.05
v 4.497066252532033 -3.950705431274712 0.05
v 4.445159824174753 -1.8339406433462968 0.05
v 0.5707378400000009 -6.159999970000001 0.049999999999999996
v 2.5395414838291184 -4.414178967829357 0.05
v 2.2556690555240873 -6.159999970000001 0.049999999999999996
v 2.5395414838291184 -4.414178967829357 0.05
v 0.5707378400000009 -6.159999970000001 0.049999999999999996
v 0.5707378400000016 -3.8902228592098007 0.049999999999999996
v 2.5395414838291184 -4.414178967829357 0.05
v 0.5707378400000016 -3.8902228592098007 0.049999999999999996
v 2.0890136705797158 -3.884808559646886 0.05
v 4.445159824174753 -1.8339406433462968 0.05
v 2.1071360953841 -1.6991688052537217 0.05
v 2.7568139524963557 -0.18537728797659936 0.05
v 2.7568139524963557 -0.18537728797659936 0.05
v 3.936840700471842 -0.20355452748609237 0.05000000000000001
v 4.445159824174753 -1.8339406433462968 0.05
v 4.445159824174753 -1.8339406433462968 0.05
v 3.985839033048383 -2.4129539069268686 0.05
v 2.654881708788686 -2.416496557092376 0.05
v 2.1071360953841 -1.6991688052537217 0.05
v 4.445159824174753 -1.8339406433462968 0.05
v 2.654881708788686 -2.416496557092376 0.05
v 2.1071360953841 -1.6991688052537217 0.05
v 2.654881708788686 -2.416496557092376 0.05
v 2.0890136705797158 -3.884808559646886 0.05
v 2.1071360953841 -1.6991688052537217 0.05
v 0.5707378400000016 -3.8902228592098007 0.049999999999999996
v 0.5707378400000013 -1.6578978613465618 0.05
v 0.5707378400000016 -3.8902228592098007 0.049999999999999996
v 2.1071360953841 -1.6991688052537217 0.05
v 2.0890136705797158 -3.884808559646886 0.05
v 4.445159824174753 -1.8339406433462968 0.05
v 3.936840700471842 -0.20355452748609237 0.05000000000000001
v 4.300145165213186 0.1634402505330499 0.05000000000000001
v 4.445159824174753 -1.8339406433462968 0.05
v 6.101738020000001 0.11529319922725279 0.05000000000000001
v 6.101738020000001 -1.8024744438455647 0.05000000000000001
v 6.101738020000001 0.11529319922725279 0.05000000000000001
v 4.445159824174753 -1.8339406433462968 0.05
v 4.300145165213186 0.1634402505330499 0.05000000000000001
v 4.196376788322215 2.0779996541353034 0.05000000000000001
v 2.2393636824934706 0.40352622696320917 0.05
v 2.6433361844765204 2.2206401533358684 0.05000000000000001
v 2.2393636824934706 0.40352622696320917 0.05
v 4.196376788322215 2.0779996541353034 0.05000000000000001
v 4.300145165213186 0.1634402505330499 0.05000000000000001
v 4.300145165213186 0.1634402505330499 0.05000000000000001
v 3.936840700471842 -0.20355452748609237 0.05000000000000001
v 2.7568139524963557 -0.18537728797659936 0.05
v 2.2393636824934706 0.40352622696320917 0.05
v 4.300145165213186 0.1634402505330499 0.05000000000000001
v 2.7568139524963557 -0.18537728797659936 0.05
v 2.2393636824934706 0.40352622696320917 0.05
v 2.7568139524963557 -0.18537728797659936 0.05
v 2.1071360953841 -1.6991688052537217 0.05
v 2.1071360953841 -1.6991688052537217 0.05
v 0.5707378400000013 -1.6578978613465618 0.05
v 0.5707378400000018 -1.4879999700000006 0.05
v 2.2393636824934706 0.40352622696320917 0.05
v 0.5707378400000019 -0.012000000000000854 0.05
v 0.5707378400000027 0.3721294707867155 0.05
v 0.5707378400000019 -0.012000000000000854 0.05
v 2.2393636824934706 0.40352622696320917 0.05
v 2.1071360953841 -1.6991688052537217 0.05
v 0.5707378400000019 -0.012000000000000854 0.05
v 2.1071360953841 -1.6991688052537217 0.05
v 0.5707378400000018 -1.4879999700000006 0.05
v 2.2393636824934706 0.40352622696320917 0.05
v 0.5707378400000027 0.3721294707867155 0.05
v 0.5707378400000016 2.410999929999999 0.05
v 0.5707378400000016 2.410999929999999 0.05
v 2.6433361844765204 2.2206401533358684 0.05000000000000001
v 2.2393636824934706 0.40352622696320917 0.05
v -3.5562864200000006 2.55879575 0.0
v -4.51011812 1.9854677600000001 0.0
v -4.416042850000001 2.9263611100000007 0.0
v -1.67695229 2.67615797 0.0
v -1.74129991 1.71458992 0.0
v -2.39004694 2.52444417 0.0
v -2.39004694 2.52444417 0.0
v -3.5562864200000006 2.55879575 0.0
v -4.416042850000001 2.9263611100000007 0.0
v -4.416042850000001 2.9263611100000007 0.0
v -1.67695229 2.67615797 0.0
v -2.39004694 2.52444417 0.0
v 0.57073784 -0.012000000000000177 0.05
v 0.57073784 -1.48799997 0.05
v -0.0002621400000000773 -1.48799997 -6.938893903907228e-18
v -0.0002621400000000773 -1.48799997 -6.938893903907228e-18
v -0.0002621400000000043 -0.012000000000000004 1.5333097274868078e-18
v 0.57073784 -0.012000000000000177 0.05
v 0.57073784 -0.01200000000000001 1.4993369218175707
v 0.57073784 -0.012000000000000233 2.19499993
v 0.57073784 0.49900002 2.73600005
v 0.57073784 0.49900002 2.73600005
v 0.57073784 2.41099993 2.73600005
v 0.57073784 2.41099993 1.2547855483721042
v 0.57073784 2.41099993 1.2547855483721042
v 0.57073784 -0.01200000000000001 1.4993369218175707
v 0.57073784 0.49900002 2.73600005
v 0.57073784 2.41099993 1.2547855483721042
v 0.57073784 2.41099993 0.04999999999999982
v 0.57073784 -0.011999999999999908 0.04999999999999973
v 0.57073784 -0.011999999999999908 0.04999999999999973
v 0.57073784 -0.01200000000000001 1.4993369218175707
v 0.57073784 2.41099993 1.2547855483721042
v -0.0002621399999999113 -0.012 2.19499993
v 0.57073784 -0.012 0.05
v -0.0002621400000000218 -0.012 0.0
v 0.57073784 -0.012 0.05
v -0.0002621399999999113 -0.012 2.19499993
v 0.57073784 -0.012 2.19499993
v 0.57073784 -3.986190396299187 1.195940259954503
v 0.57073784 -3.151532833785473 2.7360000500000003
v 0.57073784 -3.0707385530663465 2.7360000500000003
v 0.57073784 -3.8380782606313626 0.0499999999999996
v 0.57073784 -1.48799997 0.9841060947759894
v 0.57073784 -1.48799997 0.05
v 0.57073784 -1.48799997 0.9841060947759894
v 0.57073784 -3.8380782606313626 0.0499999999999996
v 0.57073784 -3.986190396299187 1.195940259954503
v 0.57073784 -1.48799997 0.9841060947759894
v 0.57073784 -3.986190396299187 1.195940259954503
v 0.57073784 -3.0707385530663465 2.7360000500000003
v 0.57073784 -1.48799997 2.1930000600000006
v 0.57073784 0.4990000200000002 2.736000050000001
v 0.57073784 -0.011999999999999789 2.1949999300000003
v 0.57073784 -1.48799997 2.1930000600000006
v 0.57073784 -1.48799997 0.9841060947759894
v 0.57073784 -3.0707385530663465 2.7360000500000003
v 0.57073784 0.4990000200000002 2.736000050000001
v 0.57073784 -1.48799997 2.1930000600000006
v 0.57073784 -3.0707385530663465 2.7360000500000003
v 0.57073784 -3.986190396299187 1.195940259954503
v 0.57073784 -6.15999997 1.782916636215493
v 0.57073784 -6.15999997 2.7360000499999995
v 0.57073784 -6.15999997 2.7360000499999995
v 0.57073784 -3.151532833785473 2.7360000500000003
v 0.57073784 -3.986190396299187 1.195940259954503
v 0.57073784 -3.986190396299187 1.195940259954503
v 0.57073784 -3.8380782606313626 0.0499999999999996
v 0.57073784 -6.159999970000001 0.049999999999998934
v 0.57073784 -6.159999970000001 0.049999999999998934
v 0.57073784 -6.15999997 1.782916636215493
v 0.57073784 -3.986190396299187 1.195940259954503
v 0.6757168 -1.48499143 2.19499993
v 0.6757168 -1.48499143 0.05
v 0.57073784 -0.011999999999999789 0.05
v 0.57073784 -0.011999999999999789 0.05
v 0.57073784 -0.011999999999999789 2.19499993
v 0.6757168 -1.48499143 2.19499993
v -5.44190039 -0.09118618 0.0
v -5.44190039 1.4788138 0.0
v -5.44190039 1.4788138 1.00000001
v -5.44190039 1.4788138 1.00000001
v -5.44190039 -0.09118618 1.00000001
v -5.44190039 -0.09118618 0.0
v -2.39004694 2.52444417 1.00000001
v -3.55628642 2.55879575 0.0
v -2.39004694 2.52444417 0.0
v -3.55628642 2.55879575 0.0
v -2.39004694 2.52444417 1.00000001
v -3.55628642 2.55879575 1.00000001
v -1.7412999100000002 1.7145899200000003 1.00000001
v -2.39004694 2.52444417 1.00000001
v -2.39004694 2.52444417 0.0
v -2.39004694 2.52444417 0.0
v -1.7412999100000002 1.7145899200000003 0.0
v -1.7412999100000002 1.7145899200000003 1.00000001
v -4.51011812 1.98546776 0.0
v -4.51011812 1.98546776 1.00000001
v -5.44190039 1.4788138 1.00000001
v -5.44190039 1.4788138 1.00000001
v -5.44190039 1.4788138 0.0
v -4.51011812 1.98546776 0.0
v -4.51011812 1.9854677600000001 0.0
v -3.55628642 2.55879575 0.0
v -3.55628642 2.55879575 1.00000001
v -3.55628642 2.55879575 1.00000001
v -4.51011812 1.9854677600000001 1.00000001
v -4.51011812 1.9854677600000001 0.0

usemtl Patch_1_Mat_CR1_paintedConcrete
f 3 2 1
f 6 5 4
f 9 8 7

usemtl Patch_2_Mat_CR1_paintedConcrete
f 12 11 10
f 15 14 13
f 18 17 16

usemtl Patch_3_Mat_CR1_paintedConcrete
f 21 20 19
f 24 23 22

usemtl Patch_4_Mat_CR1_paintedConcrete
f 27 26 25
f 30 29 28
f 33 32 31
f 36 35 34

usemtl Patch_5_Mat_CR1_paintedConcrete
f 39 38 37
f 42 41 40

usemtl Patch_6_Mat_CR1_paintedConcrete
f 45 44 43
f 48 47 46
f 51 50 49
f 54 53 52

usemtl Patch_7_Mat_CR1_paintedConcrete
f 57 56 55
f 60 59 58
f 63 62 61
f 66 65 64

usemtl Patch_8_Mat_CR1_paintedConcrete
f 69 68 67
f 72 71 70
f 75 74 73

usemtl Patch_9_Mat_CR1_paintedConcrete
f 78 77 76
f 81 80 79
f 84 83 82

usemtl Patch_10_Mat_CR1_paintedConcrete
f 87 86 85
f 90 89 88
f 93 92 91

usemtl Patch_11_Mat_CR1_paintedConcrete
f 96 95 94
f 99 98 97
f 102 101 100
f 105 104 103

usemtl Patch_12_Mat_CR1_paintedConcrete
f 108 107 106
f 111 110 109

usemtl Patch_13_Mat_CR1_paintedConcrete
f 114 113 112
f 117 116 115
f 120 119 118

usemtl Patch_14_Mat_CR1_paintedConcrete
f 123 122 121
f 126 125 124
f 129 128 127
f 132 131 130
f 135 134 133

usemtl Patch_15_Mat_CR1_paintedConcrete
f 138 137 136
f 141 140 139
f 144 143 142
f 147 146 145

usemtl Patch_16_Mat_CR1_paintedConcrete
f 150 149 148
f 153 152 151

usemtl Patch_17_Mat_CR1_concrete
f 156 155 154
f 159 158 157
f 162 161 160

usemtl Patch_18_Mat_CR1_concrete
f 165 164 163
f 168 167 166
f 171 170 169
f 174 173 172

usemtl Patch_19_Mat_CR1_concrete
f 177 176 175
f 180 179 178
f 183 182 181

usemtl Patch_20_Mat_CR1_concrete
f 186 185 184
f 189 188 187
f 192 191 190
f 195 194 193

usemtl Patch_21_Mat_CR1_concrete
f 198 197 196
f 201 200 199

usemtl Patch_22_Mat_CR1_concrete
f 204 203 202
f 207 206 205
f 210 209 208

usemtl Patch_23_Mat_CR1_concrete
f 213 212 211
f 216 215 214
f 219 218 217
f 222 221 220

usemtl Patch_24_Mat_CR1_concrete
f 225 224 223
f 228 227 226
f 231 230 229

usemtl Patch_25_Mat_CR1_concrete
f 234 233 232
f 237 236 235

usemtl Patch_26_Mat_CR1_concrete
f 240 239 238
f 243 242 241

usemtl Patch_27_Mat_CR1_concrete
f 246 245 244
f 249 248 247
f 252 251 250

usemtl Patch_28_Mat_CR1_concrete
f 255 254 253
f 258 257 256
f 261 260 259
f 264 263 262

usemtl Patch_29_Mat_CR1_concrete
f 267 266 265
f 270 269 268
f 273 272 271

usemtl Patch_30_Mat_CR1_concrete
f 276 275 274
f 279 278 277
f 282 281 280

usemtl Patch_31_Mat_CR1_concrete
f 285 284 283
f 288 287 286
f 291 290 289

usemtl Patch_32_Mat_CR1_concrete
f 294 293 292
f 297 296 295
f 300 299 298
f 303 302 301

usemtl Patch_33_Mat_CR1_concrete
f 306 305 304
f 309 308 307
f 312 311 310
f 315 314 313

usemtl Patch_34_Mat_CR1_concrete
f 318 317 316
f 321 320 319
f 324 323 322
f 327 326 325

usemtl Patch_35_Mat_CR1_concrete
f 330 329 328
f 333 332 331
f 336 335 334
f 339 338 337

usemtl Patch_36_Mat_CR1_concrete
f 342 341 340
f 345 344 343

usemtl Patch_37_Mat_CR1_concrete
f 348 347 346
f 351 350 349
f 354 353 352

usemtl Patch_38_Mat_CR1_concrete
f 357 356 355
f 360 359 358
f 363 362 361
f 366 365 364
f 369 368 367

usemtl Patch_39_Mat_CR1_concrete
f 372 371 370
f 375 374 373
f 378 377 376
f 381 380 379
f 384 383 382
f 387 386 385

usemtl Patch_40_Mat_CR1_paintedConcrete
f 390 389 388
f 393 392 391
f 396 395 394

usemtl Patch_41_Mat_CR1_paintedConcrete
f 399 398 397
f 402 401 400

usemtl Patch_42_Mat_CR1_paintedConcrete
f 405 404 403
f 408 407 406

usemtl Patch_43_Mat_CR1_paintedConcrete
f 411 410 409
f 414 413 412
f 417 416 415

usemtl Patch_44_Mat_CR1_paintedConcrete
f 420 419 418
f 423 422 421

usemtl Patch_45_Mat_CR1_paintedConcrete
f 426 425 424
f 429 428 427
f 432 431 430

usemtl Patch_46_Mat_CR1_paintedConcrete
f 435 434 433
f 438 437 436

usemtl Patch_47_Mat_CR1_paintedConcrete
f 441 440 439
f 444 443 442

usemtl Patch_48_Mat_CR1_paintedConcrete
f 447 446 445
f 450 449 448
f 453 452 451

usemtl Patch_49_Mat_CR1_paintedConcrete
f 456 455 454
f 459 458 457

usemtl Patch_50_Mat_CR1_paintedConcrete
f 462 461 460
f 465 464 463

usemtl Patch_51_Mat_CR1_paintedConcrete
f 468 467 466
f 471 470 469

usemtl Patch_52_Mat_CR1_paintedConcrete
f 474 473 472
f 477 476 475

usemtl Patch_53_Mat_CR1_paintedConcrete
f 480 479 478
f 483 482 481
f 486 485 484

usemtl Patch_54_Mat_CR1_tablesEquipment
f 489 488 487
f 492 491 490

usemtl Patch_55_Mat_CR1_tablesEquipment
f 495 494 493
f 498 497 496
f 501 500 499

usemtl Patch_56_Mat_CR1_tablesEquipment
f 504 503 502
f 507 506 505
f 510 509 508

usemtl Patch_57_Mat_CR1_tablesEquipment
f 513 512 511
f 516 515 514

usemtl Patch_58_Mat_CR1_tablesEquipment
f 519 518 517
f 522 521 520

usemtl Patch_59_Mat_CR1_tablesEquipment
f 525 524 523
f 528 527 526

usemtl Patch_60_Mat_CR1_tablesEquipment
f 531 530 529
f 534 533 532

usemtl Patch_61_Mat_CR1_tablesEquipment
f 537 536 535
f 540 539 538
f 543 542 541

usemtl Patch_62_Mat_CR1_tablesEquipment
f 546 545 544
f 549 548 547
f 552 551 550

usemtl Patch_63_Mat_CR1_absorber
f 555 554 553
f 558 557 556

usemtl Patch_64_Mat_CR1_absorber
f 561 560 559
f 564 563 562

usemtl Patch_65_Mat_CR1_absorber
f 567 566 565
f 570 569 568

usemtl Patch_66_Mat_CR1_absorber
f 573 572 571
f 576 575 574

usemtl Patch_67_Mat_CR1_tablesEquipment
f 579 578 577
f 582 581 580

usemtl Patch_68_Mat_CR1_tablesEquipment
f 585 584 583
f 588 587 586

usemtl Patch_69_Mat_CR1_tablesEquipment
f 591 590 589
f 594 593 592
f 597 596 595
f 600 599 598

usemtl Patch_70_Mat_CR1_tablesEquipment
f 603 602 601
f 606 605 604

usemtl Patch_71_Mat_CR1_tablesEquipment
f 609 608 607
f 612 611 610

usemtl Patch_72_Mat_CR1_concrete
f 615 614 613
f 618 617 616
f 621 620 619
f 624 623 622
f 627 626 625

usemtl Patch_73_Mat_CR1_concrete
f 630 629 628
f 633 632 631
f 636 635 634
f 639 638 637
f 642 641 640

usemtl Patch_74_Mat_CR1_concrete
f 645 644 643
f 648 647 646
f 651 650 649
f 654 653 652
f 657 656 655

usemtl Patch_75_Mat_CR1_concrete
f 660 659 658
f 663 662 661
f 666 665 664

usemtl Patch_76_Mat_CR1_concrete
f 669 668 667
f 672 671 670
f 675 674 673

usemtl Patch_77_Mat_CR1_concrete
f 678 677 676
f 681 680 679
f 684 683 682
f 687 686 685
f 690 689 688
f 693 692 691
f 696 695 694

usemtl Patch_78_Mat_CR1_concrete
f 699 698 697
f 702 701 700
f 705 704 703
f 708 707 706

usemtl Patch_79_Mat_CR1_concrete
f 711 710 709
f 714 713 712

usemtl Patch_80_Mat_CR1_absorber
f 717 716 715
f 720 719 718

usemtl Patch_81_Mat_CR1_concrete
f 723 722 721
f 726 725 724

usemtl Patch_82_Mat_CR1_paintedConcrete
f 729 728 727
f 732 731 730

usemtl Patch_83_Mat_CR1_paintedConcrete
f 735 734 733
f 738 737 736
f 741 740 739

usemtl Patch_84_Mat_CR1_paintedConcrete
f 744 743 742
f 747 746 745

usemtl Patch_85_Mat_CR1_paintedConcrete
f 750 749 748
f 753 752 751

usemtl Patch_86_Mat_CR1_paintedConcrete
f 756 755 754
f 759 758 757
f 762 761 760
f 765 764 763

usemtl Patch_87_Mat_CR1_paintedConcrete
f 768 767 766
f 771 770 769
f 774 773 772

usemtl Patch_88_Mat_CR1_paintedConcrete
f 777 776 775
f 780 779 778
f 783 782 781

usemtl Patch_89_Mat_CR1_paintedConcrete
f 786 785 784
f 789 788 787
f 792 791 790
f 795 794 793

usemtl Patch_90_Mat_CR1_paintedConcrete
f 798 797 796
f 801 800 799
f 804 803 802

usemtl Patch_91_Mat_CR1_paintedConcrete
f 807 806 805
f 810 809 808
f 813 812 811

usemtl Patch_92_Mat_CR1_paintedConcrete
f 816 815 814
f 819 818 817
f 822 821 820
f 825 824 823

usemtl Patch_93_Mat_CR1_paintedConcrete
f 828 827 826
f 831 830 829
f 834 833 832
f 837 836 835
f 840 839 838

usemtl Patch_94_Mat_CR1_paintedConcrete
f 843 842 841
f 846 845 844

usemtl Patch_95_Mat_CR1_concrete
f 849 848 847
f 852 851 850
f 855 854 853
f 858 857 856

usemtl Patch_96_Mat_CR1_concrete
f 861 860 859
f 864 863 862

usemtl Patch_97_Mat_CR1_paintedConcrete
f 867 866 865
f 870 869 868
f 873 872 871

usemtl Patch_98_Mat_CR1_paintedConcrete
f 876 875 874
f 879 878 877

usemtl Patch_99_Mat_CR1_concrete
f 882 881 880
f 885 884 883

usemtl Patch_100_Mat_CR1_paintedConcrete
f 888 887 886
f 891 890 889
f 894 893 892
f 897 896 895

usemtl Patch_101_Mat_CR1_paintedConcrete
f 900 899 898
f 903 902 901
f 906 905 904

usemtl Patch_102_Mat_CR1_paintedConcrete
f 909 908 907
f 912 911 910

usemtl Patch_103_Mat_CR1_paintedConcrete
f 915 914 913
f 918 917 916

usemtl Patch_104_Mat_CR1_tablesEquipment
f 921 920 919
f 924 923 922

usemtl Patch_105_Mat_CR1_absorber
f 927 926 925
f 930 929 928

usemtl Patch_106_Mat_CR1_absorber
f 933 932 931
f 936 935 934

usemtl Patch_107_Mat_CR1_absorber
f 939 938 937
f 942 941 940

usemtl Patch_108_Mat_CR1_absorber
f 945 944 943
f 948 947 946

usemtl Patch_109_Mat_CR1_absorber
f 951 950 949
f 954 953 952

