mtllib mesh.mtl

v 4.726 -6.160 2.736
v 6.102 -6.160 2.736
v 6.102 -3.906 2.736
v 6.102 -3.906 2.736
v 4.687 -3.906 2.736
v 4.726 -6.160 2.736
v 3.289 -6.160 2.736
v 1.920 -3.906 2.736
v 1.962 -6.160 2.736
v 1.920 -3.906 2.736
v 3.289 -6.160 2.736
v 3.348 -3.906 2.736
v 4.726 -6.160 2.736
v 3.348 -3.906 2.736
v 3.289 -6.160 2.736
v 3.348 -3.906 2.736
v 4.726 -6.160 2.736
v 4.687 -3.906 2.736
v 1.920 -3.906 2.736
v 0.571 -3.906 2.736
v 0.571 -6.160 2.736
v 0.571 -6.160 2.736
v 1.962 -6.160 2.736
v 1.920 -3.906 2.736
v 1.930 0.930 2.736
v 0.571 0.930 2.736
v 0.571 0.930 2.276
v 0.571 0.930 2.276
v 1.931 0.930 2.276
v 1.930 0.930 2.736
v 1.931 0.930 2.276
v 3.301 0.930 2.276
v 3.301 0.930 2.736
v 3.301 0.930 2.736
v 1.930 0.930 2.736
v 1.931 0.930 2.276
v 3.301 0.930 2.736
v 4.691 0.930 2.276
v 4.693 0.930 2.736
v 4.691 0.930 2.276
v 3.301 0.930 2.736
v 3.301 0.930 2.276
v 4.693 0.930 2.736
v 6.102 0.930 2.276
v 6.102 0.930 2.736
v 6.102 0.930 2.276
v 4.693 0.930 2.736
v 4.691 0.930 2.276
v 5.039 0.499 2.276
v 6.102 0.499 2.276
v 6.102 0.930 2.276
v 6.102 0.930 2.276
v 5.038 0.930 2.276
v 5.039 0.499 2.276
v 5.038 0.930 2.276
v 3.969 0.930 2.276
v 3.968 0.499 2.276
v 3.968 0.499 2.276
v 5.039 0.499 2.276
v 5.038 0.930 2.276
v 3.968 0.499 2.276
v 2.858 0.930 2.276
v 2.856 0.499 2.276
v 2.858 0.930 2.276
v 3.968 0.499 2.276
v 3.969 0.930 2.276
v 2.856 0.499 2.276
v 1.722 0.930 2.276
v 1.723 0.499 2.276
v 1.722 0.930 2.276
v 2.856 0.499 2.276
v 2.858 0.930 2.276
v 1.722 0.930 2.276
v 0.571 0.930 2.276
v 0.571 0.499 2.276
v 0.571 0.499 2.276
v 1.723 0.499 2.276
v 1.722 0.930 2.276
v 4.691 0.499 2.736
v 6.102 0.499 2.736
v 6.102 0.499 2.276
v 6.102 0.499 2.276
v 4.690 0.499 2.276
v 4.691 0.499 2.736
v 4.690 0.499 2.276
v 3.301 0.499 2.276
v 3.301 0.499 2.736
v 3.301 0.499 2.736
v 4.691 0.499 2.736
v 4.690 0.499 2.276
v 3.301 0.499 2.736
v 1.935 0.499 2.276
v 1.934 0.499 2.736
v 1.935 0.499 2.276
v 3.301 0.499 2.736
v 3.301 0.499 2.276
v 1.934 0.499 2.736
v 0.571 0.499 2.276
v 0.571 0.499 2.736
v 0.571 0.499 2.276
v 1.934 0.499 2.736
v 1.935 0.499 2.276
v 3.212 0.930 2.736
v 6.102 0.930 2.736
v 6.102 1.903 2.736
v 6.102 1.903 2.736
v 3.272 2.163 2.736
v 3.212 0.930 2.736
v 3.272 2.163 2.736
v 0.571 2.411 2.736
v 0.571 0.930 2.736
v 0.571 0.930 2.736
v 3.212 0.930 2.736
v 3.272 2.163 2.736
v 1.982 -3.483 2.736
v 0.571 -3.483 2.736
v 0.571 -3.483 2.276
v 0.571 -3.483 2.276
v 1.983 -3.483 2.276
v 1.982 -3.483 2.736
v 1.983 -3.483 2.276
v 3.372 -3.483 2.276
v 3.372 -3.483 2.736
v 3.372 -3.483 2.736
v 1.982 -3.483 2.736
v 1.983 -3.483 2.276
v 3.372 -3.483 2.736
v 4.738 -3.483 2.276
v 4.739 -3.483 2.736
v 4.738 -3.483 2.276
v 3.372 -3.483 2.736
v 3.372 -3.483 2.276
v 4.739 -3.483 2.736
v 6.102 -3.483 2.276
v 6.102 -3.483 2.736
v 6.102 -3.483 2.276
v 4.739 -3.483 2.736
v 4.738 -3.483 2.276
v 5.075 -3.483 2.276
v 6.102 -3.906 2.276
v 6.102 -3.483 2.276
v 6.102 -3.906 2.276
v 5.075 -3.483 2.276
v 5.074 -3.906 2.276
v 5.074 -3.906 2.276
v 4.018 -3.483 2.276
v 4.018 -3.906 2.276
v 4.018 -3.483 2.276
v 5.074 -3.906 2.276
v 5.075 -3.483 2.276
v 4.018 -3.483 2.276
v 2.916 -3.483 2.276
v 2.916 -3.906 2.276
v 2.916 -3.906 2.276
v 4.018 -3.906 2.276
v 4.018 -3.483 2.276
v 2.916 -3.483 2.276
v 1.772 -3.483 2.276
v 1.772 -3.906 2.276
v 1.772 -3.906 2.276
v 2.916 -3.906 2.276
v 2.916 -3.483 2.276
v 1.772 -3.483 2.276
v 0.571 -3.483 2.276
v 0.571 -3.906 2.276
v 0.571 -3.906 2.276
v 1.772 -3.906 2.276
v 1.772 -3.483 2.276
v 4.743 -3.906 2.736
v 6.102 -3.906 2.736
v 6.102 -3.906 2.276
v 6.102 -3.906 2.276
v 4.742 -3.906 2.276
v 4.743 -3.906 2.736
v 4.742 -3.906 2.276
v 3.372 -3.906 2.276
v 3.372 -3.906 2.736
v 3.372 -3.906 2.736
v 4.743 -3.906 2.736
v 4.742 -3.906 2.276
v 3.372 -3.906 2.736
v 1.982 -3.906 2.276
v 1.980 -3.906 2.736
v 1.982 -3.906 2.276
v 3.372 -3.906 2.736
v 3.372 -3.906 2.276
v 1.980 -3.906 2.736
v 0.571 -3.906 2.276
v 0.571 -3.906 2.736
v 0.571 -3.906 2.276
v 1.980 -3.906 2.736
v 1.982 -3.906 2.276
v 6.102 0.499 2.736
v 4.291 -1.511 2.736
v 6.102 -1.463 2.736
v 4.291 -1.511 2.736
v 6.102 0.499 2.736
v 4.210 0.499 2.736
v 4.291 -1.511 2.736
v 4.210 0.499 2.736
v 4.219 -1.447 2.736
v 2.370 -1.471 2.736
v 2.449 -1.541 2.736
v 4.219 -1.447 2.736
v 4.219 -1.447 2.736
v 4.210 0.499 2.736
v 2.372 0.499 2.736
v 2.372 0.499 2.736
v 2.370 -1.471 2.736
v 4.219 -1.447 2.736
v 4.291 -1.511 2.736
v 4.297 -3.483 2.736
v 6.102 -3.483 2.736
v 6.102 -3.483 2.736
v 6.102 -1.463 2.736
v 4.291 -1.511 2.736
v 4.291 -1.511 2.736
v 4.219 -1.447 2.736
v 2.449 -1.541 2.736
v 2.449 -1.541 2.736
v 2.451 -3.483 2.736
v 4.297 -3.483 2.736
v 4.297 -3.483 2.736
v 4.291 -1.511 2.736
v 2.449 -1.541 2.736
v 2.370 -1.471 2.736
v 2.372 0.499 2.736
v 0.571 0.499 2.736
v 0.571 0.499 2.736
v 0.571 -1.518 2.736
v 2.370 -1.471 2.736
v 0.571 -3.483 2.736
v 2.370 -1.471 2.736
v 0.571 -1.518 2.736
v 2.370 -1.471 2.736
v 0.571 -3.483 2.736
v 2.451 -3.483 2.736
v 2.370 -1.471 2.736
v 2.451 -3.483 2.736
v 2.449 -1.541 2.736
v -4.076 -3.648 1.873
v -4.101 -3.648 2.768
v -6.251 -3.648 2.768
v -6.251 -3.648 2.768
v -6.251 -3.648 1.100
v -4.691 -3.648 1.100
v -4.691 -3.648 1.100
v -4.076 -3.648 1.873
v -6.251 -3.648 2.768
v -2.847 -3.648 1.100
v -4.522 -3.648 1.100
v -4.522 -3.648 0.000
v -2.847 -3.648 1.100
v -2.803 -3.648 -0.000
v -2.803 -3.648 1.072
v -2.803 -3.648 -0.000
v -2.847 -3.648 1.100
v -4.522 -3.648 0.000
v -4.076 -3.648 1.873
v -4.691 -3.648 1.100
v -4.522 -3.648 1.100
v -4.522 -3.648 1.100
v -2.847 -3.648 1.100
v -4.076 -3.648 1.873
v -1.908 -3.648 2.768
v -0.000 -3.648 1.100
v -0.000 -3.648 2.768
v -0.000 -3.648 1.100
v -1.908 -3.648 2.768
v -2.002 -3.648 1.100
v -1.908 -3.648 2.768
v -2.847 -3.648 1.100
v -2.002 -3.648 1.100
v -4.076 -3.648 1.873
v -1.908 -3.648 2.768
v -4.101 -3.648 2.768
v -1.908 -3.648 2.768
v -4.076 -3.648 1.873
v -2.847 -3.648 1.100
v -2.182 0.930 2.768
v 0.000 0.930 2.768
v -0.000 2.523 2.768
v -0.000 2.523 2.768
v -2.096 2.714 2.768
v -2.182 0.930 2.768
v -2.182 0.930 2.768
v -4.167 2.904 2.768
v -4.267 0.930 2.768
v -4.167 2.904 2.768
v -2.182 0.930 2.768
v -2.096 2.714 2.768
v -4.167 2.904 2.768
v -6.251 3.094 2.768
v -6.251 0.930 2.768
v -6.251 0.930 2.768
v -4.267 0.930 2.768
v -4.167 2.904 2.768
v -6.251 0.784 1.989
v -6.251 0.786 2.276
v -6.251 0.930 2.276
v -6.251 0.930 2.276
v -6.251 0.930 2.768
v -6.251 3.094 2.768
v -6.251 3.094 2.768
v -6.251 3.094 1.100
v -6.251 2.156 1.100
v -6.251 2.156 1.100
v -6.251 2.156 0.615
v -6.251 0.784 1.989
v -6.251 2.156 1.100
v -6.251 0.930 2.276
v -6.251 3.094 2.768
v -6.251 0.930 2.276
v -6.251 2.156 1.100
v -6.251 0.784 1.989
v -6.251 -0.453 0.687
v -6.251 0.784 1.989
v -6.251 2.156 0.615
v -6.251 2.156 0.615
v -6.251 2.156 0.000
v -6.251 -0.436 0.000
v -6.251 -0.436 0.000
v -6.251 -0.453 0.687
v -6.251 2.156 0.615
v -6.251 0.499 2.276
v -6.251 -0.453 0.687
v -6.251 -1.593 1.766
v -6.251 0.499 2.276
v -6.251 -1.597 2.768
v -6.251 0.499 2.768
v -6.251 0.499 2.276
v -6.251 0.786 2.276
v -6.251 0.784 1.989
v -6.251 -1.597 2.768
v -6.251 0.499 2.276
v -6.251 -1.593 1.766
v -6.251 -0.453 0.687
v -6.251 0.499 2.276
v -6.251 0.784 1.989
v -6.251 -3.053 0.000
v -6.251 -0.453 0.687
v -6.251 -0.436 0.000
v -6.251 -0.453 0.687
v -6.251 -3.053 0.000
v -6.251 -3.053 0.679
v -6.251 -0.453 0.687
v -6.251 -3.053 0.679
v -6.251 -1.593 1.766
v -6.251 -1.593 1.766
v -6.251 -3.053 0.679
v -6.251 -3.053 1.100
v -6.251 -3.053 1.100
v -6.251 -3.648 1.100
v -6.251 -3.648 2.768
v -6.251 -3.648 2.768
v -6.251 -1.597 2.768
v -6.251 -1.593 1.766
v -6.251 -1.593 1.766
v -6.251 -3.053 1.100
v -6.251 -3.648 2.768
v -1.265 0.499 2.768
v 0.000 0.499 2.768
v 0.000 0.499 2.276
v 0.000 0.499 2.276
v -1.266 0.499 2.276
v -1.265 0.499 2.768
v -1.266 0.499 2.276
v -2.519 0.499 2.276
v -2.519 0.499 2.768
v -2.519 0.499 2.768
v -1.265 0.499 2.768
v -1.266 0.499 2.276
v -2.519 0.499 2.768
v -3.762 0.499 2.276
v -3.763 0.499 2.768
v -3.762 0.499 2.276
v -2.519 0.499 2.768
v -2.519 0.499 2.276
v -3.763 0.499 2.768
v -5.002 0.499 2.276
v -5.000 0.499 2.768
v -5.002 0.499 2.276
v -3.763 0.499 2.768
v -3.762 0.499 2.276
v -5.002 0.499 2.276
v -6.251 0.499 2.276
v -6.251 0.499 2.768
v -6.251 0.499 2.768
v -5.000 0.499 2.768
v -5.002 0.499 2.276
v -1.214 0.499 2.276
v 0.000 0.499 2.276
v -0.000 0.930 2.276
v -0.000 0.930 2.276
v -1.215 0.930 2.276
v -1.214 0.499 2.276
v -1.215 0.930 2.276
v -2.435 0.930 2.276
v -2.435 0.499 2.276
v -2.435 0.499 2.276
v -1.214 0.499 2.276
v -1.215 0.930 2.276
v -2.435 0.499 2.276
v -3.696 0.930 2.276
v -3.698 0.499 2.276
v -3.696 0.930 2.276
v -2.435 0.499 2.276
v -2.435 0.930 2.276
v -3.696 0.930 2.276
v -4.976 0.930 2.276
v -4.974 0.499 2.276
v -4.974 0.499 2.276
v -3.698 0.499 2.276
v -3.696 0.930 2.276
v -4.976 0.930 2.276
v -6.251 0.930 2.276
v -6.251 0.499 2.276
v -6.251 0.499 2.276
v -4.974 0.499 2.276
v -4.976 0.930 2.276
v -5.014 0.930 2.276
v -6.251 0.930 2.768
v -6.251 0.930 2.276
v -6.251 0.930 2.768
v -5.014 0.930 2.276
v -5.012 0.930 2.768
v -5.012 0.930 2.768
v -3.776 0.930 2.276
v -3.777 0.930 2.768
v -3.776 0.930 2.276
v -5.012 0.930 2.768
v -5.014 0.930 2.276
v -3.776 0.930 2.276
v -2.529 0.930 2.276
v -2.530 0.930 2.768
v -2.530 0.930 2.768
v -3.777 0.930 2.768
v -3.776 0.930 2.276
v -2.529 0.930 2.276
v -1.269 0.930 2.276
v -1.270 0.930 2.768
v -1.270 0.930 2.768
v -2.530 0.930 2.768
v -2.529 0.930 2.276
v -1.269 0.930 2.276
v -0.000 0.930 2.276
v -0.000 0.930 2.768
v -0.000 0.930 2.768
v -1.270 0.930 2.768
v -1.269 0.930 2.276
v -1.493 -1.510 2.768
v 0.000 -1.713 2.768
v -0.000 0.499 2.768
v -0.000 0.499 2.768
v -1.550 0.499 2.768
v -1.493 -1.510 2.768
v -3.087 -1.478 2.768
v -2.078 -1.873 2.768
v -1.493 -1.510 2.768
v -3.087 -1.478 2.768
v -1.550 0.499 2.768
v -3.104 0.499 2.768
v -1.550 0.499 2.768
v -3.087 -1.478 2.768
v -1.493 -1.510 2.768
v -1.493 -1.510 2.768
v -2.078 -1.873 2.768
v -2.050 -3.648 2.768
v -1.493 -1.510 2.768
v 0.000 -3.648 2.768
v 0.000 -1.713 2.768
v 0.000 -3.648 2.768
v -1.493 -1.510 2.768
v -2.050 -3.648 2.768
v -4.721 -1.514 2.768
v -4.647 0.499 2.768
v -6.251 0.499 2.768
v -6.251 0.499 2.768
v -6.251 -1.717 2.768
v -4.721 -1.514 2.768
v -4.163 -3.648 2.768
v -3.087 -1.478 2.768
v -4.142 -1.886 2.768
v -3.087 -1.478 2.768
v -4.163 -3.648 2.768
v -2.050 -3.648 2.768
v -3.087 -1.478 2.768
v -2.050 -3.648 2.768
v -2.078 -1.873 2.768
v -4.721 -1.514 2.768
v -4.142 -1.886 2.768
v -3.087 -1.478 2.768
v -3.087 -1.478 2.768
v -3.104 0.499 2.768
v -4.647 0.499 2.768
v -4.647 0.499 2.768
v -4.721 -1.514 2.768
v -3.087 -1.478 2.768
v -6.251 -3.648 2.768
v -4.721 -1.514 2.768
v -6.251 -1.717 2.768
v -4.721 -1.514 2.768
v -6.251 -3.648 2.768
v -4.163 -3.648 2.768
v -4.721 -1.514 2.768
v -4.163 -3.648 2.768
v -4.142 -1.886 2.768
v -1.677 2.676 1.100
v -2.036 2.709 2.768
v 0.000 2.523 2.768
v 0.000 2.523 2.768
v 0.000 2.523 1.100
v -1.677 2.676 1.100
v -1.677 2.676 1.100
v -1.677 2.676 0.700
v -2.136 2.718 1.428
v -2.036 2.709 2.768
v -1.677 2.676 1.100
v -2.136 2.718 1.428
v -1.677 2.676 0.000
v -2.136 2.718 1.428
v -1.677 2.676 0.700
v -2.136 2.718 1.428
v -1.677 2.676 0.000
v -4.416 2.926 0.000
v -4.416 2.926 0.000
v -4.416 2.926 0.788
v -4.118 2.899 1.299
v -2.136 2.718 1.428
v -4.416 2.926 0.000
v -4.118 2.899 1.299
v -4.118 2.899 1.299
v -4.416 2.926 0.788
v -4.416 2.926 1.100
v -4.416 2.926 1.100
v -6.251 3.093 1.100
v -6.251 3.093 2.768
v -4.416 2.926 1.100
v -4.235 2.909 2.768
v -4.118 2.899 1.299
v -4.235 2.909 2.768
v -4.416 2.926 1.100
v -6.251 3.093 2.768
v -2.136 2.718 1.428
v -4.118 2.899 1.299
v -4.235 2.909 2.768
v -4.235 2.909 2.768
v -2.036 2.709 2.768
v -2.136 2.718 1.428
v 0.000 1.598 1.100
v 0.000 2.523 1.100
v 0.000 2.523 2.768
v 0.000 2.523 2.768
v 0.000 0.930 2.768
v 0.000 0.930 2.276
v 0.000 1.598 1.100
v 0.000 0.798 2.276
v 0.000 1.598 0.880
v 0.000 1.598 1.100
v 0.000 2.523 2.768
v 0.000 0.930 2.276
v 0.000 0.798 2.276
v 0.000 1.598 1.100
v 0.000 0.930 2.276
v 0.000 -0.012 2.195
v 0.000 0.499 2.768
v 0.000 -0.659 2.768
v 0.000 -0.659 2.768
v 0.000 -0.767 2.194
v 0.000 -0.012 2.195
v 0.000 1.598 0.880
v 0.000 -0.012 0.000
v 0.000 1.598 0.000
v 0.000 0.499 2.276
v 0.000 1.598 0.880
v 0.000 0.798 2.276
v 0.000 0.499 2.768
v 0.000 -0.012 2.195
v 0.000 0.499 2.276
v 0.000 0.499 2.276
v 0.000 -0.012 0.000
v 0.000 1.598 0.880
v 0.000 -0.012 0.000
v 0.000 0.499 2.276
v 0.000 -0.012 2.195
v 0.000 -1.983 1.100
v 0.000 -3.648 2.768
v 0.000 -3.648 1.100
v 0.000 -1.983 1.100
v 0.000 -1.983 0.000
v 0.000 -1.488 0.000
v 0.000 -1.488 2.193
v 0.000 -0.767 2.194
v 0.000 -0.659 2.768
v 0.000 -1.983 1.100
v 0.000 -1.488 0.000
v 0.000 -1.488 2.193
v 0.000 -3.648 2.768
v 0.000 -1.488 2.193
v 0.000 -0.659 2.768
v 0.000 -3.648 2.768
v 0.000 -1.983 1.100
v 0.000 -1.488 2.193
v 4.432 2.056 0.050
v 6.102 1.903 2.736
v 6.102 1.903 0.050
v 6.102 1.903 2.736
v 4.432 2.056 0.050
v 4.402 2.059 2.736
v 2.490 2.235 1.379
v 0.571 2.411 1.428
v 0.571 2.411 2.736
v 0.571 2.411 2.736
v 2.999 2.188 2.736
v 2.490 2.235 1.379
v 2.490 2.235 1.379
v 2.950 2.192 0.050
v 0.571 2.411 0.050
v 0.571 2.411 0.050
v 0.571 2.411 1.428
v 2.490 2.235 1.379
v 2.490 2.235 1.379
v 2.999 2.188 2.736
v 4.402 2.059 2.736
v 2.490 2.235 1.379
v 4.432 2.056 0.050
v 2.950 2.192 0.050
v 4.432 2.056 0.050
v 2.490 2.235 1.379
v 4.402 2.059 2.736
v 6.102 0.930 2.276
v 6.102 -0.017 1.123
v 6.102 1.903 1.936
v 6.102 0.930 2.276
v 6.102 1.903 2.736
v 6.102 0.930 2.736
v 6.102 0.499 2.276
v 6.102 0.499 2.736
v 6.102 -0.831 2.736
v 6.102 1.903 2.736
v 6.102 0.930 2.276
v 6.102 1.903 1.936
v 6.102 0.499 2.276
v 6.102 -0.831 2.736
v 6.102 -0.830 2.141
v 6.102 0.499 2.276
v 6.102 -0.017 1.123
v 6.102 0.930 2.276
v 6.102 -0.017 1.123
v 6.102 0.499 2.276
v 6.102 -0.830 2.141
v 6.102 -0.017 1.123
v 6.102 -0.830 2.141
v 6.102 -2.262 0.906
v 6.102 -2.262 0.906
v 6.102 -2.300 0.050
v 6.102 -0.036 0.050
v 6.102 -0.036 0.050
v 6.102 -0.017 1.123
v 6.102 -2.262 0.906
v 6.102 -0.017 1.123
v 6.102 -0.036 0.050
v 6.102 1.903 0.050
v 6.102 1.903 0.050
v 6.102 1.903 1.936
v 6.102 -0.017 1.123
v 6.102 -3.483 2.306
v 6.102 -0.830 2.141
v 6.102 -0.831 2.736
v 6.102 -0.831 2.736
v 6.102 -3.483 2.736
v 6.102 -3.483 2.306
v 6.102 -0.830 2.141
v 6.102 -3.483 2.306
v 6.102 -2.262 0.906
v 6.102 -2.262 0.906
v 6.102 -3.483 2.306
v 6.102 -3.483 2.276
v 6.102 -3.906 2.276
v 6.102 -3.906 2.581
v 6.102 -4.683 0.050
v 6.102 -4.683 0.050
v 6.102 -2.300 0.050
v 6.102 -2.262 0.906
v 6.102 -4.683 0.050
v 6.102 -3.483 2.276
v 6.102 -3.906 2.276
v 6.102 -3.483 2.276
v 6.102 -4.683 0.050
v 6.102 -2.262 0.906
v 6.102 -3.906 2.581
v 6.102 -3.906 2.736
v 6.102 -6.160 2.736
v 6.102 -6.160 2.736
v 6.102 -6.160 0.050
v 6.102 -4.683 0.050
v 6.102 -4.683 0.050
v 6.102 -3.906 2.581
v 6.102 -6.160 2.736
v 2.526 -6.160 1.345
v 1.977 -6.160 2.736
v 0.571 -6.160 2.736
v 2.526 -6.160 1.345
v 0.571 -6.160 0.050
v 2.060 -6.160 0.050
v 0.571 -6.160 0.050
v 2.526 -6.160 1.345
v 0.571 -6.160 2.736
v 4.713 -6.160 0.050
v 2.526 -6.160 1.345
v 2.060 -6.160 0.050
v 2.526 -6.160 1.345
v 4.713 -6.160 0.050
v 4.164 -6.160 1.442
v 4.164 -6.160 1.442
v 4.713 -6.160 0.050
v 6.102 -6.160 0.050
v 4.164 -6.160 1.442
v 6.102 -6.160 2.736
v 4.636 -6.160 2.736
v 6.102 -6.160 2.736
v 4.164 -6.160 1.442
v 6.102 -6.160 0.050
v 1.977 -6.160 2.736
v 4.164 -6.160 1.442
v 4.636 -6.160 2.736
v 4.164 -6.160 1.442
v 1.977 -6.160 2.736
v 2.526 -6.160 1.345
v -4.416 2.926 1.100
v -4.510 1.985 1.100
v -6.251 2.156 1.100
v -6.251 2.156 1.100
v -6.251 3.094 1.100
v -4.416 2.926 1.100
v -4.510 1.985 1.100
v -4.416 2.926 0.000
v -4.510 1.985 -0.000
v -4.416 2.926 0.000
v -4.510 1.985 1.100
v -4.416 2.926 1.100
v -6.251 2.156 1.100
v -4.510 1.985 1.100
v -4.510 1.985 -0.000
v -4.510 1.985 -0.000
v -6.251 2.156 -0.000
v -6.251 2.156 1.100
v -4.522 -3.053 0.000
v -6.251 -3.053 1.100
v -6.251 -3.053 -0.000
v -6.251 -3.053 1.100
v -4.522 -3.053 0.000
v -4.522 -3.053 1.100
v -5.388 -3.053 1.100
v -4.522 -3.053 1.100
v -4.522 -3.648 1.100
v -4.522 -3.648 1.100
v -5.389 -3.648 1.100
v -5.388 -3.053 1.100
v -5.389 -3.648 1.100
v -6.251 -3.648 1.100
v -6.251 -3.053 1.100
v -6.251 -3.053 1.100
v -5.388 -3.053 1.100
v -5.389 -3.648 1.100
v -4.522 -3.648 1.100
v -4.522 -3.053 0.000
v -4.522 -3.648 -0.000
v -4.522 -3.053 0.000
v -4.522 -3.648 1.100
v -4.522 -3.053 1.100
v 0.000 2.523 1.100
v -0.000 1.598 1.100
v -1.741 1.715 1.100
v -1.741 1.715 1.100
v -1.677 2.676 1.100
v 0.000 2.523 1.100
v -1.741 1.715 0.000
v 0.000 1.598 1.100
v 0.000 1.598 0.000
v 0.000 1.598 1.100
v -1.741 1.715 0.000
v -1.741 1.715 1.100
v -1.741 1.715 0.000
v -1.677 2.676 1.100
v -1.741 1.715 1.100
v -1.677 2.676 1.100
v -1.741 1.715 0.000
v -1.677 2.676 -0.000
v -5.442 1.479 1.000
v -5.442 1.479 0.000
v -5.442 -0.091 0.000
v -5.442 -0.091 0.000
v -5.442 -0.091 1.000
v -5.442 1.479 1.000
v -3.509 2.562 0.000
v -2.509 2.562 1.000
v -2.509 2.562 0.000
v -2.509 2.562 1.000
v -3.509 2.562 0.000
v -3.509 2.562 1.000
v -1.784 1.729 0.000
v -2.390 2.524 1.000
v -1.784 1.729 1.000
v -2.390 2.524 1.000
v -1.784 1.729 0.000
v -2.390 2.524 -0.000
v -5.318 1.607 -0.000
v -4.389 1.977 1.000
v -4.389 1.977 -0.000
v -4.389 1.977 1.000
v -5.318 1.607 -0.000
v -5.318 1.607 1.000
v -2.803 -3.648 0.000
v -2.803 -2.798 1.100
v -2.803 -3.648 1.100
v -2.803 -2.798 1.100
v -2.803 -3.648 0.000
v -2.803 -2.798 0.000
v -0.913 -2.798 0.000
v -2.803 -2.798 1.100
v -2.803 -2.798 -0.000
v -2.803 -2.798 1.100
v -0.913 -2.798 0.000
v -0.913 -2.798 1.100
v -0.913 -2.798 1.100
v -0.913 -1.983 1.100
v 0.000 -1.983 1.100
v -0.913 -2.798 1.100
v -0.000 -3.648 1.100
v -1.151 -3.648 1.100
v -1.151 -3.648 1.100
v -1.356 -2.798 1.100
v -0.913 -2.798 1.100
v -0.000 -3.648 1.100
v -0.913 -2.798 1.100
v 0.000 -1.983 1.100
v -1.356 -2.798 1.100
v -2.803 -3.648 1.100
v -2.803 -2.798 1.100
v -2.803 -3.648 1.100
v -1.356 -2.798 1.100
v -1.151 -3.648 1.100
v -0.913 -2.798 0.000
v -0.913 -1.983 1.100
v -0.913 -2.798 1.100
v -0.913 -1.983 1.100
v -0.913 -2.798 0.000
v -0.913 -1.983 -0.000
v 0.000 -1.983 -0.000
v -0.913 -1.983 1.100
v -0.913 -1.983 -0.000
v -0.913 -1.983 1.100
v 0.000 -1.983 -0.000
v 0.000 -1.983 1.100
v -2.803 -2.798 0.000
v -3.215 -1.567 0.000
v -2.695 -2.798 0.000
v -4.522 -3.053 0.000
v -2.803 -3.648 0.000
v -4.522 -3.648 0.000
v -4.522 -3.053 0.000
v -5.073 -3.053 0.000
v -4.128 -1.429 0.000
v -4.522 -3.053 0.000
v -3.215 -1.567 0.000
v -2.803 -2.798 0.000
v -2.803 -3.648 0.000
v -4.522 -3.053 0.000
v -2.803 -2.798 0.000
v -3.215 -1.567 0.000
v -4.522 -3.053 0.000
v -4.128 -1.429 0.000
v -6.251 -0.519 0.000
v -4.128 -1.429 0.000
v -5.073 -3.053 0.000
v -5.073 -3.053 0.000
v -6.251 -3.053 0.000
v -6.251 -0.519 0.000
v -4.128 -1.429 0.000
v -6.251 -0.519 0.000
v -4.773 -0.491 0.000
v -4.128 -1.429 0.000
v -4.773 -0.491 0.000
v -4.194 0.592 0.000
v -2.143 -0.641 0.000
v -3.296 0.817 0.000
v -2.279 0.329 0.000
v -2.279 0.329 0.000
v -2.043 -0.214 0.000
v -2.143 -0.641 0.000
v -4.194 0.592 0.000
v -3.215 -1.567 0.000
v -4.128 -1.429 0.000
v -3.215 -1.567 0.000
v -4.194 0.592 0.000
v -3.296 0.817 0.000
v -3.296 0.817 0.000
v -2.143 -0.641 0.000
v -3.215 -1.567 0.000
v -2.695 -2.798 0.000
v -2.143 -0.641 0.000
v -0.913 -2.110 0.000
v -0.913 -2.110 0.000
v -0.913 -2.798 0.000
v -2.695 -2.798 0.000
v -2.143 -0.641 0.000
v -2.695 -2.798 0.000
v -3.215 -1.567 0.000
v -2.043 -0.214 0.000
v -2.279 0.329 0.000
v -1.376 1.690 0.000
v -1.376 1.690 0.000
v 0.000 1.598 0.000
v 0.000 -0.012 0.000
v 0.000 -0.012 0.000
v 0.000 -0.069 0.000
v -2.043 -0.214 0.000
v -2.043 -0.214 0.000
v -1.376 1.690 0.000
v 0.000 -0.012 0.000
v -2.143 -0.641 0.000
v -2.043 -0.214 0.000
v 0.000 -0.069 0.000
v 0.000 -0.069 0.000
v 0.000 -1.983 0.000
v -0.913 -1.983 0.000
v -0.913 -1.983 0.000
v -0.913 -2.110 0.000
v -2.143 -0.641 0.000
v -2.143 -0.641 0.000
v 0.000 -0.069 0.000
v -0.913 -1.983 0.000
v -4.194 0.592 0.000
v -4.773 -0.491 0.000
v -6.251 -0.519 0.000
v -6.251 -0.519 0.000
v -6.251 2.156 0.000
v -5.287 2.061 0.000
v -5.287 2.061 0.000
v -4.194 0.592 0.000
v -6.251 -0.519 0.000
v -1.741 1.715 0.000
v -3.296 0.817 0.000
v -3.090 2.805 0.000
v -3.090 2.805 0.000
v -1.677 2.676 0.000
v -1.741 1.715 0.000
v -1.741 1.715 0.000
v -1.376 1.690 0.000
v -2.279 0.329 0.000
v -3.296 0.817 0.000
v -1.741 1.715 0.000
v -2.279 0.329 0.000
v -4.510 1.985 0.000
v -4.194 0.592 0.000
v -5.287 2.061 0.000
v -4.510 1.985 0.000
v -4.416 2.926 0.000
v -3.090 2.805 0.000
v -4.194 0.592 0.000
v -4.510 1.985 0.000
v -3.296 0.817 0.000
v -4.510 1.985 0.000
v -3.090 2.805 0.000
v -3.296 0.817 0.000
v -4.422 2.059 0.000
v -3.556 2.559 1.000
v -3.556 2.559 0.000
v -3.556 2.559 1.000
v -4.422 2.059 0.000
v -4.422 2.059 1.000
v 0.571 -1.488 1.105
v 0.571 -1.488 2.193
v 0.000 -1.488 2.193
v 0.000 -1.488 2.193
v 0.000 -1.488 1.104
v 0.571 -1.488 1.105
v 0.000 -1.488 1.104
v 0.000 -1.488 -0.000
v 0.571 -1.488 0.050
v 0.571 -1.488 0.050
v 0.571 -1.488 1.105
v 0.000 -1.488 1.104
v 0.571 -1.488 2.193
v 0.571 0.499 2.736
v 0.571 -0.012 2.195
v 0.571 -1.488 2.193
v 0.571 -1.488 0.894
v 0.571 -2.972 2.736
v 0.571 0.499 2.736
v 0.571 -1.488 2.193
v 0.571 -2.972 2.736
v 0.571 -4.023 1.339
v 0.571 -3.615 2.276
v 0.571 -3.483 2.276
v 0.571 -2.972 2.736
v 0.571 -3.483 2.580
v 0.571 -3.415 2.736
v 0.571 -3.483 2.276
v 0.571 -2.972 2.736
v 0.571 -1.488 0.894
v 0.571 -1.488 0.894
v 0.571 -1.488 0.050
v 0.571 -3.776 0.050
v 0.571 -1.488 0.894
v 0.571 -4.023 1.339
v 0.571 -3.483 2.276
v 0.571 -3.483 2.580
v 0.571 -2.972 2.736
v 0.571 -3.483 2.276
v 0.571 -4.023 1.339
v 0.571 -1.488 0.894
v 0.571 -3.776 0.050
v 0.571 -3.483 2.580
v 0.571 -3.483 2.736
v 0.571 -3.415 2.736
v 0.571 -3.906 2.276
v 0.571 -6.160 1.443
v 0.571 -6.160 2.736
v 0.571 -6.160 2.736
v 0.571 -3.906 2.736
v 0.571 -3.906 2.276
v 0.571 -3.906 2.276
v 0.571 -3.615 2.276
v 0.571 -4.023 1.339
v 0.571 -6.160 1.443
v 0.571 -3.906 2.276
v 0.571 -4.023 1.339
v 0.571 -4.023 1.339
v 0.571 -3.776 0.050
v 0.571 -6.160 0.050
v 0.571 -6.160 0.050
v 0.571 -6.160 1.443
v 0.571 -4.023 1.339
v 0.571 -0.012 2.195
v 1.306 -1.292 0.050
v 1.306 -1.292 2.195
v 1.306 -1.292 0.050
v 0.571 -0.012 2.195
v 0.571 -0.012 0.050
v 4.136 -4.442 0.050
v 4.500 -3.992 0.050
v 6.102 -3.980 0.050
v 4.136 -4.442 0.050
v 6.102 -6.160 0.050
v 4.398 -6.160 0.050
v 6.102 -6.160 0.050
v 4.136 -4.442 0.050
v 6.102 -3.980 0.050
v 2.669 -2.500 0.050
v 2.518 -4.449 0.050
v 2.096 -3.927 0.050
v 4.136 -4.442 0.050
v 2.669 -2.500 0.050
v 3.995 -2.505 0.050
v 3.995 -2.505 0.050
v 4.500 -3.992 0.050
v 4.136 -4.442 0.050
v 2.669 -2.500 0.050
v 4.136 -4.442 0.050
v 2.518 -4.449 0.050
v 2.518 -4.449 0.050
v 4.136 -4.442 0.050
v 4.398 -6.160 0.050
v 4.398 -6.160 0.050
v 2.227 -6.160 0.050
v 2.518 -4.449 0.050
v 0.571 -6.160 0.050
v 2.518 -4.449 0.050
v 2.227 -6.160 0.050
v 2.518 -4.449 0.050
v 0.571 -6.160 0.050
v 0.571 -3.913 0.050
v 2.518 -4.449 0.050
v 0.571 -3.913 0.050
v 2.096 -3.927 0.050
v 4.500 -3.992 0.050
v 3.995 -2.505 0.050
v 4.476 -1.890 0.050
v 4.476 -1.890 0.050
v 6.102 -1.861 0.050
v 6.102 -3.980 0.050
v 6.102 -3.980 0.050
v 4.500 -3.992 0.050
v 4.476 -1.890 0.050
v 4.476 -1.890 0.050
v 2.669 -2.500 0.050
v 2.113 -1.743 0.050
v 4.476 -1.890 0.050
v 2.775 -0.277 0.050
v 3.929 -0.279 0.050
v 2.669 -2.500 0.050
v 4.476 -1.890 0.050
v 3.995 -2.505 0.050
v 4.476 -1.890 0.050
v 2.113 -1.743 0.050
v 2.775 -0.277 0.050
v 4.476 -1.890 0.050
v 3.929 -0.279 0.050
v 4.314 0.120 0.050
v 4.476 -1.890 0.050
v 6.102 0.109 0.050
v 6.102 -1.861 0.050
v 6.102 0.109 0.050
v 4.476 -1.890 0.050
v 4.314 0.120 0.050
v 4.314 0.120 0.050
v 2.775 -0.277 0.050
v 2.208 0.374 0.050
v 2.208 0.374 0.050
v 2.694 2.216 0.050
v 4.133 2.084 0.050
v 2.775 -0.277 0.050
v 4.314 0.120 0.050
v 3.929 -0.279 0.050
v 4.314 0.120 0.050
v 2.208 0.374 0.050
v 4.133 2.084 0.050
v 4.314 0.120 0.050
v 4.133 2.084 0.050
v 6.102 1.903 0.050
v 6.102 1.903 0.050
v 6.102 0.109 0.050
v 4.314 0.120 0.050
v 2.113 -1.743 0.050
v 2.669 -2.500 0.050
v 2.096 -3.927 0.050
v 2.113 -1.743 0.050
v 0.571 -3.913 0.050
v 0.571 -1.713 0.050
v 0.571 -3.913 0.050
v 2.113 -1.743 0.050
v 2.096 -3.927 0.050
v 2.208 0.374 0.050
v 0.571 0.355 0.050
v 0.571 2.411 0.050
v 0.571 2.411 0.050
v 2.694 2.216 0.050
v 2.208 0.374 0.050
v 2.208 0.374 0.050
v 2.775 -0.277 0.050
v 2.113 -1.743 0.050
v 2.113 -1.743 0.050
v 0.571 -1.713 0.050
v 0.571 -1.488 0.050
v 2.208 0.374 0.050
v 0.571 -0.012 0.050
v 0.571 0.355 0.050
v 0.571 -0.012 0.050
v 2.208 0.374 0.050
v 2.113 -1.743 0.050
v 0.571 -0.012 0.050
v 2.113 -1.743 0.050
v 0.571 -1.488 0.050
v 0.000 -0.012 0.000
v 0.571 -1.488 0.050
v 0.000 -1.488 -0.000
v 0.571 -1.488 0.050
v 0.000 -0.012 0.000
v 0.571 -0.012 0.050
v 0.000 -0.012 1.113
v 0.571 -0.012 0.050
v -0.000 -0.012 0.000
v 0.571 -0.012 0.050
v 0.000 -0.012 1.113
v 0.571 -0.012 1.112
v 0.000 -0.012 1.113
v -0.000 -0.012 2.195
v 0.571 -0.012 2.195
v 0.571 -0.012 2.195
v 0.571 -0.012 1.112
v 0.000 -0.012 1.113
v 0.571 2.411 1.173
v 0.571 2.411 0.050
v 0.571 -0.012 0.050
v 0.571 -0.012 0.050
v 0.571 -0.012 1.527
v 0.571 2.411 1.173
v 0.571 0.499 2.276
v 0.571 -0.012 2.195
v 0.571 0.499 2.736
v 0.571 0.930 2.276
v 0.571 0.930 2.736
v 0.571 2.411 2.736
v 0.571 0.930 2.276
v 0.571 2.411 1.173
v 0.571 -0.012 1.527
v 0.571 -0.012 2.195
v 0.571 0.499 2.276
v 0.571 -0.012 1.527
v 0.571 2.411 1.173
v 0.571 0.930 2.276
v 0.571 2.411 2.736
v 0.571 -0.012 1.527
v 0.571 0.499 2.276
v 0.571 0.930 2.276
v 1.306 -1.292 2.195
v 1.306 -1.292 0.050
v 0.571 -0.012 0.050
v 0.571 -0.012 0.050
v 0.571 -0.012 2.195
v 1.306 -1.292 2.195
v -5.442 -0.091 0.000
v -5.442 1.479 0.000
v -5.442 1.479 1.000
v -5.442 1.479 1.000
v -5.442 -0.091 1.000
v -5.442 -0.091 0.000
v -2.509 2.562 0.000
v -2.509 2.562 1.000
v -3.509 2.562 1.000
v -3.509 2.562 1.000
v -3.509 2.562 0.000
v -2.509 2.562 0.000
v -1.784 1.729 1.000
v -2.390 2.524 1.000
v -2.390 2.524 0.000
v -2.390 2.524 0.000
v -1.784 1.729 0.000
v -1.784 1.729 1.000
v -5.318 1.607 1.000
v -4.389 1.977 0.000
v -4.389 1.977 1.000
v -4.389 1.977 0.000
v -5.318 1.607 1.000
v -5.318 1.607 0.000
v -4.422 2.059 1.000
v -3.556 2.559 0.000
v -3.556 2.559 1.000
v -3.556 2.559 0.000
v -4.422 2.059 1.000
v -4.422 2.059 0.000

usemtl Patch_1_Mat_CR1_paintedConcrete
f 3 2 1
f 6 5 4

usemtl Patch_2_Mat_CR1_paintedConcrete
f 9 8 7
f 12 11 10

usemtl Patch_3_Mat_CR1_paintedConcrete
f 15 14 13
f 18 17 16

usemtl Patch_4_Mat_CR1_paintedConcrete
f 21 20 19
f 24 23 22

usemtl Patch_5_Mat_CR1_paintedConcrete
f 27 26 25
f 30 29 28

usemtl Patch_6_Mat_CR1_paintedConcrete
f 33 32 31
f 36 35 34

usemtl Patch_7_Mat_CR1_paintedConcrete
f 39 38 37
f 42 41 40

usemtl Patch_8_Mat_CR1_paintedConcrete
f 45 44 43
f 48 47 46

usemtl Patch_9_Mat_CR1_paintedConcrete
f 51 50 49
f 54 53 52

usemtl Patch_10_Mat_CR1_paintedConcrete
f 57 56 55
f 60 59 58

usemtl Patch_11_Mat_CR1_paintedConcrete
f 63 62 61
f 66 65 64

usemtl Patch_12_Mat_CR1_paintedConcrete
f 69 68 67
f 72 71 70

usemtl Patch_13_Mat_CR1_paintedConcrete
f 75 74 73
f 78 77 76

usemtl Patch_14_Mat_CR1_paintedConcrete
f 81 80 79
f 84 83 82

usemtl Patch_15_Mat_CR1_paintedConcrete
f 87 86 85
f 90 89 88

usemtl Patch_16_Mat_CR1_paintedConcrete
f 93 92 91
f 96 95 94

usemtl Patch_17_Mat_CR1_paintedConcrete
f 99 98 97
f 102 101 100

usemtl Patch_18_Mat_CR1_paintedConcrete
f 105 104 103
f 108 107 106

usemtl Patch_19_Mat_CR1_paintedConcrete
f 111 110 109
f 114 113 112

usemtl Patch_20_Mat_CR1_paintedConcrete
f 117 116 115
f 120 119 118

usemtl Patch_21_Mat_CR1_paintedConcrete
f 123 122 121
f 126 125 124

usemtl Patch_22_Mat_CR1_paintedConcrete
f 129 128 127
f 132 131 130

usemtl Patch_23_Mat_CR1_paintedConcrete
f 135 134 133
f 138 137 136

usemtl Patch_24_Mat_CR1_paintedConcrete
f 141 140 139
f 144 143 142

usemtl Patch_25_Mat_CR1_paintedConcrete
f 147 146 145
f 150 149 148

usemtl Patch_26_Mat_CR1_paintedConcrete
f 153 152 151
f 156 155 154

usemtl Patch_27_Mat_CR1_paintedConcrete
f 159 158 157
f 162 161 160

usemtl Patch_28_Mat_CR1_paintedConcrete
f 165 164 163
f 168 167 166

usemtl Patch_29_Mat_CR1_paintedConcrete
f 171 170 169
f 174 173 172

usemtl Patch_30_Mat_CR1_paintedConcrete
f 177 176 175
f 180 179 178

usemtl Patch_31_Mat_CR1_paintedConcrete
f 183 182 181
f 186 185 184

usemtl Patch_32_Mat_CR1_paintedConcrete
f 189 188 187
f 192 191 190

usemtl Patch_33_Mat_CR1_paintedConcrete
f 195 194 193
f 198 197 196
f 201 200 199

usemtl Patch_34_Mat_CR1_paintedConcrete
f 204 203 202
f 207 206 205
f 210 209 208

usemtl Patch_35_Mat_CR1_paintedConcrete
f 213 212 211
f 216 215 214

usemtl Patch_36_Mat_CR1_paintedConcrete
f 219 218 217
f 222 221 220
f 225 224 223

usemtl Patch_37_Mat_CR1_paintedConcrete
f 228 227 226
f 231 230 229

usemtl Patch_38_Mat_CR1_paintedConcrete
f 234 233 232
f 237 236 235
f 240 239 238

usemtl Patch_39_Mat_CR1_concrete
f 243 242 241
f 246 245 244
f 249 248 247

usemtl Patch_40_Mat_CR1_concrete
f 252 251 250
f 255 254 253
f 258 257 256
f 261 260 259
f 264 263 262

usemtl Patch_41_Mat_CR1_concrete
f 267 266 265
f 270 269 268

usemtl Patch_42_Mat_CR1_concrete
f 273 272 271
f 276 275 274
f 279 278 277

usemtl Patch_43_Mat_CR1_tablesEquipment
f 282 281 280
f 285 284 283

usemtl Patch_44_Mat_CR1_tablesEquipment
f 288 287 286
f 291 290 289

usemtl Patch_45_Mat_CR1_tablesEquipment
f 294 293 292
f 297 296 295

usemtl Patch_46_Mat_CR1_tablesEquipment
f 300 299 298
f 303 302 301
f 306 305 304
f 309 308 307
f 312 311 310
f 315 314 313

usemtl Patch_47_Mat_CR1_tablesEquipment
f 318 317 316
f 321 320 319
f 324 323 322

usemtl Patch_48_Mat_CR1_tablesEquipment
f 327 326 325
f 330 329 328
f 333 332 331
f 336 335 334
f 339 338 337

usemtl Patch_49_Mat_CR1_tablesEquipment
f 342 341 340
f 345 344 343
f 348 347 346

usemtl Patch_50_Mat_CR1_tablesEquipment
f 351 350 349
f 354 353 352
f 357 356 355
f 360 359 358

usemtl Patch_51_Mat_CR1_tablesEquipment
f 363 362 361
f 366 365 364

usemtl Patch_52_Mat_CR1_tablesEquipment
f 369 368 367
f 372 371 370

usemtl Patch_53_Mat_CR1_tablesEquipment
f 375 374 373
f 378 377 376

usemtl Patch_54_Mat_CR1_tablesEquipment
f 381 380 379
f 384 383 382

usemtl Patch_55_Mat_CR1_tablesEquipment
f 387 386 385
f 390 389 388

usemtl Patch_56_Mat_CR1_tablesEquipment
f 393 392 391
f 396 395 394

usemtl Patch_57_Mat_CR1_tablesEquipment
f 399 398 397
f 402 401 400

usemtl Patch_58_Mat_CR1_tablesEquipment
f 405 404 403
f 408 407 406

usemtl Patch_59_Mat_CR1_tablesEquipment
f 411 410 409
f 414 413 412

usemtl Patch_60_Mat_CR1_tablesEquipment
f 417 416 415
f 420 419 418

usemtl Patch_61_Mat_CR1_tablesEquipment
f 423 422 421
f 426 425 424

usemtl Patch_62_Mat_CR1_tablesEquipment
f 429 428 427
f 432 431 430

usemtl Patch_63_Mat_CR1_tablesEquipment
f 435 434 433
f 438 437 436

usemtl Patch_64_Mat_CR1_tablesEquipment
f 441 440 439
f 444 443 442

usemtl Patch_65_Mat_CR1_tablesEquipment
f 447 446 445
f 450 449 448

usemtl Patch_66_Mat_CR1_tablesEquipment
f 453 452 451
f 456 455 454

usemtl Patch_67_Mat_CR1_tablesEquipment
f 459 458 457
f 462 461 460
f 465 464 463

usemtl Patch_68_Mat_CR1_tablesEquipment
f 468 467 466
f 471 470 469
f 474 473 472

usemtl Patch_69_Mat_CR1_tablesEquipment
f 477 476 475
f 480 479 478

usemtl Patch_70_Mat_CR1_tablesEquipment
f 483 482 481
f 486 485 484
f 489 488 487

usemtl Patch_71_Mat_CR1_tablesEquipment
f 492 491 490
f 495 494 493
f 498 497 496

usemtl Patch_72_Mat_CR1_tablesEquipment
f 501 500 499
f 504 503 502
f 507 506 505

usemtl Patch_73_Mat_CR1_tablesEquipment
f 510 509 508
f 513 512 511
f 516 515 514
f 519 518 517

usemtl Patch_74_Mat_CR1_tablesEquipment
f 522 521 520
f 525 524 523
f 528 527 526
f 531 530 529

usemtl Patch_75_Mat_CR1_tablesEquipment
f 534 533 532
f 537 536 535
f 540 539 538
f 543 542 541

usemtl Patch_76_Mat_CR1_tablesEquipment
f 546 545 544
f 549 548 547

usemtl Patch_77_Mat_CR1_tablesEquipment
f 552 551 550
f 555 554 553
f 558 557 556
f 561 560 559
f 564 563 562

usemtl Patch_78_Mat_CR1_tablesEquipment
f 567 566 565
f 570 569 568
f 573 572 571
f 576 575 574
f 579 578 577
f 582 581 580
f 585 584 583

usemtl Patch_79_Mat_CR1_tablesEquipment
f 588 587 586
f 591 590 589
f 594 593 592
f 597 596 595
f 600 599 598
f 603 602 601

usemtl Patch_80_Mat_CR1_paintedConcrete
f 606 605 604
f 609 608 607

usemtl Patch_81_Mat_CR1_paintedConcrete
f 612 611 610
f 615 614 613

usemtl Patch_82_Mat_CR1_paintedConcrete
f 618 617 616
f 621 620 619

usemtl Patch_83_Mat_CR1_paintedConcrete
f 624 623 622
f 627 626 625
f 630 629 628

usemtl Patch_84_Mat_CR1_paintedConcrete
f 633 632 631
f 636 635 634
f 639 638 637
f 642 641 640
f 645 644 643
f 648 647 646
f 651 650 649

usemtl Patch_85_Mat_CR1_paintedConcrete
f 654 653 652
f 657 656 655
f 660 659 658

usemtl Patch_86_Mat_CR1_paintedConcrete
f 663 662 661
f 666 665 664

usemtl Patch_87_Mat_CR1_paintedConcrete
f 669 668 667
f 672 671 670
f 675 674 673

usemtl Patch_88_Mat_CR1_paintedConcrete
f 678 677 676
f 681 680 679
f 684 683 682
f 687 686 685
f 690 689 688

usemtl Patch_89_Mat_CR1_paintedConcrete
f 693 692 691
f 696 695 694
f 699 698 697

usemtl Patch_90_Mat_CR1_paintedConcrete
f 702 701 700
f 705 704 703
f 708 707 706

usemtl Patch_91_Mat_CR1_paintedConcrete
f 711 710 709
f 714 713 712

usemtl Patch_92_Mat_CR1_paintedConcrete
f 717 716 715
f 720 719 718
f 723 722 721

usemtl Patch_93_Mat_CR1_paintedConcrete
f 726 725 724
f 729 728 727

usemtl Patch_94_Mat_CR1_absorber
f 732 731 730
f 735 734 733

usemtl Patch_95_Mat_CR1_absorber
f 738 737 736
f 741 740 739

usemtl Patch_96_Mat_CR1_absorber
f 744 743 742
f 747 746 745

usemtl Patch_97_Mat_CR1_absorber
f 750 749 748
f 753 752 751

usemtl Patch_98_Mat_CR1_absorber
f 756 755 754
f 759 758 757

usemtl Patch_99_Mat_CR1_absorber
f 762 761 760
f 765 764 763

usemtl Patch_100_Mat_CR1_absorber
f 768 767 766
f 771 770 769

usemtl Patch_101_Mat_CR1_absorber
f 774 773 772
f 777 776 775

usemtl Patch_102_Mat_CR1_absorber
f 780 779 778
f 783 782 781

usemtl Patch_103_Mat_CR1_absorber
f 786 785 784
f 789 788 787

usemtl Patch_104_Mat_CR1_unknown
f 792 791 790
f 795 794 793

usemtl Patch_105_Mat_CR1_unknown
f 798 797 796
f 801 800 799

usemtl Patch_106_Mat_CR1_unknown
f 804 803 802
f 807 806 805

usemtl Patch_107_Mat_CR1_unknown
f 810 809 808
f 813 812 811

usemtl Patch_108_Mat_CR1_absorber
f 816 815 814
f 819 818 817

usemtl Patch_109_Mat_CR1_absorber
f 822 821 820
f 825 824 823

usemtl Patch_110_Mat_CR1_absorber
f 828 827 826
f 831 830 829
f 834 833 832
f 837 836 835

usemtl Patch_111_Mat_CR1_absorber
f 840 839 838
f 843 842 841

usemtl Patch_112_Mat_CR1_absorber
f 846 845 844
f 849 848 847

usemtl Patch_113_Mat_CR1_absorber
f 852 851 850
f 855 854 853

usemtl Patch_114_Mat_CR1_tablesEquipment
f 858 857 856
f 861 860 859
f 864 863 862
f 867 866 865
f 870 869 868
f 873 872 871

usemtl Patch_115_Mat_CR1_tablesEquipment
f 876 875 874
f 879 878 877
f 882 881 880

usemtl Patch_116_Mat_CR1_tablesEquipment
f 885 884 883
f 888 887 886
f 891 890 889
f 894 893 892
f 897 896 895
f 900 899 898

usemtl Patch_117_Mat_CR1_tablesEquipment
f 903 902 901
f 906 905 904
f 909 908 907

usemtl Patch_118_Mat_CR1_tablesEquipment
f 912 911 910
f 915 914 913
f 918 917 916
f 921 920 919

usemtl Patch_119_Mat_CR1_tablesEquipment
f 924 923 922
f 927 926 925
f 930 929 928
f 933 932 931

usemtl Patch_120_Mat_CR1_tablesEquipment
f 936 935 934
f 939 938 937
f 942 941 940

usemtl Patch_121_Mat_CR1_tablesEquipment
f 945 944 943
f 948 947 946
f 951 950 949
f 954 953 952

usemtl Patch_122_Mat_CR1_tablesEquipment
f 957 956 955
f 960 959 958
f 963 962 961
f 966 965 964

usemtl Patch_123_Mat_CR1_unknown
f 969 968 967
f 972 971 970

usemtl Patch_124_Mat_CR1_tablesEquipment
f 975 974 973
f 978 977 976

usemtl Patch_125_Mat_CR1_tablesEquipment
f 981 980 979
f 984 983 982

usemtl Patch_126_Mat_CR1_paintedConcrete
f 987 986 985
f 990 989 988
f 993 992 991

usemtl Patch_127_Mat_CR1_paintedConcrete
f 996 995 994
f 999 998 997
f 1002 1001 1000
f 1005 1004 1003
f 1008 1007 1006
f 1011 1010 1009
f 1014 1013 1012

usemtl Patch_128_Mat_CR1_paintedConcrete
f 1017 1016 1015
f 1020 1019 1018
f 1023 1022 1021
f 1026 1025 1024
f 1029 1028 1027

usemtl Patch_129_Mat_CR1_paintedConcrete
f 1032 1031 1030
f 1035 1034 1033

usemtl Patch_130_Mat_CR1_paintedConcrete
f 1038 1037 1036
f 1041 1040 1039

usemtl Patch_131_Mat_CR1_paintedConcrete
f 1044 1043 1042
f 1047 1046 1045
f 1050 1049 1048

usemtl Patch_132_Mat_CR1_paintedConcrete
f 1053 1052 1051
f 1056 1055 1054
f 1059 1058 1057
f 1062 1061 1060

usemtl Patch_133_Mat_CR1_paintedConcrete
f 1065 1064 1063
f 1068 1067 1066

usemtl Patch_134_Mat_CR1_paintedConcrete
f 1071 1070 1069
f 1074 1073 1072
f 1077 1076 1075

usemtl Patch_135_Mat_CR1_paintedConcrete
f 1080 1079 1078
f 1083 1082 1081
f 1086 1085 1084

usemtl Patch_136_Mat_CR1_paintedConcrete
f 1089 1088 1087
f 1092 1091 1090
f 1095 1094 1093
f 1098 1097 1096

usemtl Patch_137_Mat_CR1_paintedConcrete
f 1101 1100 1099
f 1104 1103 1102
f 1107 1106 1105

usemtl Patch_138_Mat_CR1_paintedConcrete
f 1110 1109 1108
f 1113 1112 1111
f 1116 1115 1114
f 1119 1118 1117

usemtl Patch_139_Mat_CR1_paintedConcrete
f 1122 1121 1120
f 1125 1124 1123

usemtl Patch_140_Mat_CR1_paintedConcrete
f 1128 1127 1126
f 1131 1130 1129
f 1134 1133 1132

usemtl Patch_141_Mat_CR1_paintedConcrete
f 1137 1136 1135
f 1140 1139 1138

usemtl Patch_142_Mat_CR1_paintedConcrete
f 1143 1142 1141
f 1146 1145 1144
f 1149 1148 1147
f 1152 1151 1150
f 1155 1154 1153

usemtl Patch_143_Mat_CR1_tablesEquipment
f 1158 1157 1156
f 1161 1160 1159

usemtl Patch_144_Mat_CR1_tablesEquipment
f 1164 1163 1162
f 1167 1166 1165

usemtl Patch_145_Mat_CR1_tablesEquipment
f 1170 1169 1168
f 1173 1172 1171

usemtl Patch_146_Mat_CR1_paintedConcrete
f 1176 1175 1174
f 1179 1178 1177

usemtl Patch_147_Mat_CR1_paintedConcrete
f 1182 1181 1180
f 1185 1184 1183
f 1188 1187 1186
f 1191 1190 1189
f 1194 1193 1192
f 1197 1196 1195

usemtl Patch_148_Mat_CR1_absorber
f 1200 1199 1198
f 1203 1202 1201

usemtl Patch_149_Mat_CR1_unknown
f 1206 1205 1204
f 1209 1208 1207

usemtl Patch_150_Mat_CR1_unknown
f 1212 1211 1210
f 1215 1214 1213

usemtl Patch_151_Mat_CR1_unknown
f 1218 1217 1216
f 1221 1220 1219

usemtl Patch_152_Mat_CR1_unknown
f 1224 1223 1222
f 1227 1226 1225

usemtl Patch_153_Mat_CR1_unknown
f 1230 1229 1228
f 1233 1232 1231

