mtllib mesh.mtl

v 4.301038472229627 0.1284377645703631 2.73600005
v 6.10173802 0.10547852179054917 2.73600005
v 6.10173802 1.90299993 2.73600005
v 6.10173802 1.90299993 2.73600005
v 4.142026026007015 2.082991551867645 2.73600005
v 4.301038472229627 0.1284377645703631 2.73600005
v 4.478561103914905 -1.8904351044241894 2.73600005
v 4.014368636815799 -2.4920367570121975 2.73600005
v 4.527160804300971 -3.984344894539725 2.73600005
v 4.478561103914905 -1.8904351044241894 2.73600005
v 6.10173802 -3.988282678904281 2.73600005
v 6.101738019999999 -1.839647643381155 2.73600005
v 6.10173802 -3.988282678904281 2.73600005
v 4.478561103914905 -1.8904351044241894 2.73600005
v 4.527160804300971 -3.984344894539725 2.73600005
v 2.206069510851604 0.35598585538176786 2.73600005
v 2.670408321306035 2.2181536870437277 2.73600005
v 0.5707378399999996 2.4109999300000005 2.73600005
v 2.206069510851604 0.35598585538176786 2.73600005
v 0.57073784 0.49900001999999954 2.73600005
v 0.5707378400000005 0.3302537189242951 2.73600005
v 0.57073784 0.49900001999999954 2.73600005
v 2.206069510851604 0.35598585538176786 2.73600005
v 0.5707378399999996 2.4109999300000005 2.73600005
v 4.142026026007015 2.082991551867645 2.73600005
v 2.670408321306035 2.2181536870437277 2.73600005
v 2.206069510851604 0.35598585538176786 2.73600005
v 4.301038472229627 0.1284377645703631 2.73600005
v 2.769434256321851 -0.2710339401215712 2.73600005
v 3.9169422330614614 -0.26832561948444644 2.73600005
v 2.206069510851604 0.35598585538176786 2.73600005
v 4.301038472229627 0.1284377645703631 2.73600005
v 4.142026026007015 2.082991551867645 2.73600005
v 2.769434256321851 -0.2710339401215712 2.73600005
v 4.301038472229627 0.1284377645703631 2.73600005
v 2.206069510851604 0.35598585538176786 2.73600005
v 4.478561103914905 -1.8904351044241894 2.73600005
v 2.118915356677966 -1.771562245303849 2.73600005
v 2.6747761722033916 -2.5068953528087135 2.73600005
v 2.6747761722033916 -2.5068953528087135 2.73600005
v 4.014368636815799 -2.4920367570121975 2.73600005
v 4.478561103914905 -1.8904351044241894 2.73600005
v 4.478561103914905 -1.8904351044241894 2.73600005
v 3.9169422330614614 -0.26832561948444644 2.73600005
v 2.769434256321851 -0.2710339401215712 2.73600005
v 2.118915356677966 -1.771562245303849 2.73600005
v 4.478561103914905 -1.8904351044241894 2.73600005
v 2.769434256321851 -0.2710339401215712 2.73600005
v 4.301038472229627 0.1284377645703631 2.73600005
v 3.9169422330614614 -0.26832561948444644 2.73600005
v 4.478561103914905 -1.8904351044241894 2.73600005
v 4.478561103914905 -1.8904351044241894 2.73600005
v 6.101738019999999 -1.839647643381155 2.73600005
v 6.10173802 0.10547852179054917 2.73600005
v 6.10173802 0.10547852179054917 2.73600005
v 4.301038472229627 0.1284377645703631 2.73600005
v 4.478561103914905 -1.8904351044241894 2.73600005
v 2.118915356677966 -1.771562245303849 2.73600005
v 2.769434256321851 -0.2710339401215712 2.73600005
v 2.206069510851604 0.35598585538176786 2.73600005
v 2.118915356677966 -1.771562245303849 2.73600005
v 0.5707378400000005 0.3302537189242951 2.73600005
v 0.5707378400000005 -1.746597329405961 2.73600005
v 0.5707378400000005 0.3302537189242951 2.73600005
v 2.118915356677966 -1.771562245303849 2.73600005
v 2.206069510851604 0.35598585538176786 2.73600005
v 2.6747761722033916 -2.5068953528087135 2.73600005
v 2.1302624133283343 -3.946077439765257 2.73600005
v 2.509266069980307 -4.422762657081497 2.73600005
v 4.014368636815799 -2.4920367570121975 2.73600005
v 4.133850936685878 -4.458642162286123 2.73600005
v 4.527160804300971 -3.984344894539725 2.73600005
v 4.133850936685878 -4.458642162286123 2.73600005
v 4.014368636815799 -2.4920367570121975 2.73600005
v 2.6747761722033916 -2.5068953528087135 2.73600005
v 4.133850936685878 -4.458642162286123 2.73600005
v 2.6747761722033916 -2.5068953528087135 2.73600005
v 2.509266069980307 -4.422762657081497 2.73600005
v 6.101738019999999 -6.159999970000003 2.73600005
v 4.133850936685878 -4.458642162286123 2.73600005
v 4.38154233276317 -6.159999970000002 2.73600005
v 4.133850936685878 -4.458642162286123 2.73600005
v 6.101738019999999 -6.159999970000003 2.73600005
v 6.10173802 -3.988282678904281 2.73600005
v 4.133850936685878 -4.458642162286123 2.73600005
v 6.10173802 -3.988282678904281 2.73600005
v 4.527160804300971 -3.984344894539725 2.73600005
v 2.1302624133283343 -3.946077439765257 2.73600005
v 2.6747761722033916 -2.5068953528087135 2.73600005
v 2.118915356677966 -1.771562245303849 2.73600005
v 2.118915356677966 -1.771562245303849 2.73600005
v 0.5707378400000005 -1.746597329405961 2.73600005
v 0.5707378400000007 -3.9240816426270286 2.73600005
v 0.5707378400000007 -3.9240816426270286 2.73600005
v 2.1302624133283343 -3.946077439765257 2.73600005
v 2.118915356677966 -1.771562245303849 2.73600005
v 4.133850936685878 -4.458642162286123 2.73600005
v 2.509266069980307 -4.422762657081497 2.73600005
v 2.2182243972665123 -6.159999970000002 2.73600005
v 2.2182243972665123 -6.159999970000002 2.73600005
v 4.38154233276317 -6.159999970000002 2.73600005
v 4.133850936685878 -4.458642162286123 2.73600005
v 2.509266069980307 -4.422762657081497 2.73600005
v 2.1302624133283343 -3.946077439765257 2.73600005
v 0.5707378400000007 -3.9240816426270286 2.73600005
v 2.509266069980307 -4.422762657081497 2.73600005
v 0.5707378400000008 -6.159999970000001 2.73600005
v 2.2182243972665123 -6.159999970000002 2.73600005
v 0.5707378400000008 -6.159999970000001 2.73600005
v 2.509266069980307 -4.422762657081497 2.73600005
v 0.5707378400000007 -3.9240816426270286 2.73600005
v -4.08652086165016 -3.6479998099999995 1.8664842370714765
v -4.110648967123954 -3.647999809999999 2.7680000399999996
v -6.25126223 -3.6479998099999986 2.7680000399999996
v -6.25126223 -3.6479998099999986 2.7680000399999996
v -6.25126223 -3.6479998099999995 1.10000001
v -4.698120718146992 -3.64799981 1.10000001
v -4.698120718146992 -3.64799981 1.10000001
v -4.08652086165016 -3.6479998099999995 1.8664842370714765
v -6.25126223 -3.6479998099999986 2.7680000399999996
v -4.08652086165016 -3.6479998099999995 1.8664842370714765
v -4.698120718146992 -3.64799981 1.10000001
v -4.52168292 -3.64799981 1.10000001
v -2.853912087430858 -3.6479998100000004 1.10000001
v -4.52168292 -3.6479998100000004 0.0
v -2.8027147800000005 -3.647999810000001 -2.220446049250313e-16
v -2.8027147800000005 -3.647999810000001 -2.220446049250313e-16
v -2.80271478 -3.6479998100000004 1.0681635267337368
v -2.853912087430858 -3.6479998100000004 1.10000001
v -2.853912087430858 -3.6479998100000004 1.10000001
v -4.08652086165016 -3.6479998099999995 1.8664842370714765
v -4.52168292 -3.64799981 1.10000001
v -4.52168292 -3.6479998100000004 0.0
v -2.853912087430858 -3.6479998100000004 1.10000001
v -4.52168292 -3.64799981 1.10000001
v -2.8027147800000005 -3.6479998100000004 1.10000001
v -2.853912087430858 -3.6479998100000004 1.10000001
v -2.80271478 -3.6479998100000004 1.0681635267337368
v -2.8027147800000005 -3.6479998100000004 1.10000001
v -2.0147293470120022 -3.6479998100000004 1.10000001
v -1.9247435949281224 -3.6479998099999995 2.7680000399999996
v -1.9247435949281224 -3.6479998099999995 2.7680000399999996
v -4.110648967123954 -3.647999809999999 2.7680000399999996
v -4.08652086165016 -3.6479998099999995 1.8664842370714765
v -1.9247435949281224 -3.6479998099999995 2.7680000399999996
v -2.853912087430858 -3.6479998100000004 1.10000001
v -2.8027147800000005 -3.6479998100000004 1.10000001
v -2.853912087430858 -3.6479998100000004 1.10000001
v -1.9247435949281224 -3.6479998099999995 2.7680000399999996
v -4.08652086165016 -3.6479998099999995 1.8664842370714765
v -1.9247435949281224 -3.6479998099999995 2.7680000399999996
v -0.00026214000000068793 -3.647999810000001 1.10000001
v -0.00026214000000115756 -3.64799981 2.7680000399999996
v -0.00026214000000068793 -3.647999810000001 1.10000001
v -1.9247435949281224 -3.6479998099999995 2.7680000399999996
v -2.0147293470120022 -3.6479998100000004 1.10000001
v -0.00026214 2.52300007 2.76800004
v -1.12488751734262 0.5565299203367664 2.76800004
v -0.0002621399999995777 0.6778113297074054 2.76800004
v -2.151394433855156 1.6715581145459795 2.76800004
v -0.00026214 2.52300007 2.76800004
v -2.0535276186497327 2.7105563398618555 2.76800004
v -1.12488751734262 0.5565299203367664 2.76800004
v -0.00026214 2.52300007 2.76800004
v -2.151394433855156 1.6715581145459795 2.76800004
v -4.290338419177031 2.9148786228281582 2.76800004
v -3.4575244311116333 0.7296784307229094 2.76800004
v -2.151394433855156 1.6715581145459795 2.76800004
v -2.151394433855156 1.6715581145459795 2.76800004
v -2.0535276186497327 2.7105563398618555 2.76800004
v -4.290338419177031 2.9148786228281582 2.76800004
v -3.4575244311116333 0.7296784307229094 2.76800004
v -4.290338419177031 2.9148786228281582 2.76800004
v -4.299896134589213 0.9647218764095775 2.76800004
v -0.0002621399999989116 -3.6479998100000004 2.7680000400000004
v -2.197458054969186 -2.536125443600705 2.76800004
v -2.1770804105846335 -3.6479998099999995 2.76800004
v -1.2239785328621107 -1.5765401582326974 2.76800004
v -0.0002621399999989116 -3.6479998100000004 2.7680000400000004
v -0.00026213999999935567 -1.7455031528316445 2.76800004
v -0.0002621399999989116 -3.6479998100000004 2.7680000400000004
v -1.2239785328621107 -1.5765401582326974 2.76800004
v -2.197458054969186 -2.536125443600705 2.76800004
v -1.12488751734262 0.5565299203367664 2.76800004
v -1.797238308394582 -0.4593941607742109 2.76800004
v -1.2239785328621107 -1.5765401582326974 2.76800004
v -1.12488751734262 0.5565299203367664 2.76800004
v -0.00026213999999935567 -1.7455031528316445 2.76800004
v -0.0002621399999995777 0.6778113297074054 2.76800004
v -0.00026213999999935567 -1.7455031528316445 2.76800004
v -1.12488751734262 0.5565299203367664 2.76800004
v -1.2239785328621107 -1.5765401582326974 2.76800004
v -2.151394433855156 1.6715581145459795 2.76800004
v -3.4575244311116333 0.7296784307229094 2.76800004
v -2.8657790391622555 -0.41092886272913365 2.76800004
v -2.151394433855156 1.6715581145459795 2.76800004
v -1.797238308394582 -0.4593941607742109 2.76800004
v -1.12488751734262 0.5565299203367664 2.76800004
v -1.797238308394582 -0.4593941607742109 2.76800004
v -2.151394433855156 1.6715581145459795 2.76800004
v -2.8657790391622555 -0.41092886272913365 2.76800004
v -2.8657790391622555 -0.41092886272913365 2.76800004
v -4.630667547053706 0.7722504933214371 2.76800004
v -4.817622374307214 -1.294749886193915 2.76800004
v -4.817622374307214 -1.294749886193915 2.76800004
v -4.1784416857727305 -1.6948819922513765 2.76800004
v -3.584351632149342 -1.5484928102761482 2.76800004
v -4.630667547053706 0.7722504933214371 2.76800004
v -2.8657790391622555 -0.41092886272913365 2.76800004
v -3.4575244311116333 0.7296784307229094 2.76800004
v -4.630667547053706 0.7722504933214371 2.76800004
v -3.4575244311116333 0.7296784307229094 2.76800004
v -4.299896134589213 0.9647218764095775 2.76800004
v -2.8657790391622555 -0.41092886272913365 2.76800004
v -4.817622374307214 -1.294749886193915 2.76800004
v -3.584351632149342 -1.5484928102761482 2.76800004
v -2.8657790391622555 -0.41092886272913365 2.76800004
v -3.584351632149342 -1.5484928102761482 2.76800004
v -2.197458054969186 -2.536125443600705 2.76800004
v -2.197458054969186 -2.536125443600705 2.76800004
v -1.2239785328621107 -1.5765401582326974 2.76800004
v -1.797238308394582 -0.4593941607742109 2.76800004
v -1.797238308394582 -0.4593941607742109 2.76800004
v -2.8657790391622555 -0.41092886272913365 2.76800004
v -2.197458054969186 -2.536125443600705 2.76800004
v -4.630667547053706 0.7722504933214371 2.76800004
v -4.299896134589213 0.9647218764095775 2.76800004
v -4.290338419177031 2.9148786228281582 2.76800004
v -4.290338419177031 2.9148786228281582 2.76800004
v -6.25126223 3.0939999100000013 2.7680000399999996
v -6.251262229999999 0.9415995959052355 2.76800004
v -6.251262229999999 0.9415995959052355 2.76800004
v -4.630667547053706 0.7722504933214371 2.76800004
v -4.290338419177031 2.9148786228281582 2.76800004
v -4.817622374307214 -1.294749886193915 2.76800004
v -4.630667547053706 0.7722504933214371 2.76800004
v -6.251262229999999 0.9415995959052355 2.76800004
v -6.251262229999999 0.9415995959052355 2.76800004
v -6.25126223 -1.446715723934403 2.76800004
v -4.817622374307214 -1.294749886193915 2.76800004
v -4.461602356373368 -3.6479998099999986 2.76800004
v -3.584351632149342 -1.5484928102761482 2.76800004
v -4.1784416857727305 -1.6948819922513765 2.76800004
v -2.197458054969186 -2.536125443600705 2.76800004
v -4.461602356373368 -3.6479998099999986 2.76800004
v -2.1770804105846335 -3.6479998099999995 2.76800004
v -3.584351632149342 -1.5484928102761482 2.76800004
v -4.461602356373368 -3.6479998099999986 2.76800004
v -2.197458054969186 -2.536125443600705 2.76800004
v -6.251262229999999 -3.647999809999999 2.76800004
v -4.817622374307214 -1.294749886193915 2.76800004
v -6.25126223 -1.446715723934403 2.76800004
v -4.817622374307214 -1.294749886193915 2.76800004
v -6.251262229999999 -3.647999809999999 2.76800004
v -4.461602356373368 -3.6479998099999986 2.76800004
v -4.817622374307214 -1.294749886193915 2.76800004
v -4.461602356373368 -3.6479998099999986 2.76800004
v -4.1784416857727305 -1.6948819922513765 2.76800004
v -6.25126223 -1.5185316627761045 1.82464672259646
v -6.25126223 -3.05310105 0.6615747911530363
v -6.25126223 -3.05310105 1.10000001
v -6.25126223 -3.05310105 1.10000001
v -6.25126223 -3.64799981 1.10000001
v -6.25126223 -3.64799981 2.76800004
v -6.25126223 -3.64799981 2.76800004
v -6.25126223 -1.5382108758390836 2.76800004
v -6.25126223 -1.5185316627761045 1.82464672259646
v -6.25126223 -1.5185316627761045 1.82464672259646
v -6.25126223 -3.05310105 1.10000001
v -6.25126223 -3.64799981 2.76800004
v -6.25126223 0.8398374929426032 1.9153703851678763
v -6.25126223 -0.4364565267176729 0.7467931632610146
v -6.25126223 -1.5185316627761045 1.82464672259646
v -6.25126223 0.8398374929426032 1.9153703851678763
v -6.25126223 -1.5382108758390836 2.76800004
v -6.25126223 0.8596431555603932 2.7680000399999996
v -6.25126223 -1.5382108758390836 2.76800004
v -6.25126223 0.8398374929426032 1.9153703851678763
v -6.25126223 -1.5185316627761045 1.82464672259646
v -6.25126223 -0.4364565267176729 0.7467931632610146
v -6.25126223 0.8398374929426032 1.9153703851678763
v -6.25126223 2.155849220000001 0.626907937265766
v -6.25126223 2.155849220000001 0.626907937265766
v -6.25126223 2.1558492200000012 0.0
v -6.25126223 -0.42830706665747514 0.0
v -6.25126223 -0.42830706665747514 0.0
v -6.25126223 -0.4364565267176729 0.7467931632610146
v -6.25126223 2.155849220000001 0.626907937265766
v -6.25126223 -3.05310105 0.6615747911530363
v -6.25126223 -0.4364565267176729 0.7467931632610146
v -6.25126223 -0.42830706665747514 0.0
v -6.25126223 -0.42830706665747514 0.0
v -6.25126223 -3.05310105 0.0
v -6.25126223 -3.05310105 0.6615747911530363
v -6.25126223 -0.4364565267176729 0.7467931632610146
v -6.25126223 -3.05310105 0.6615747911530363
v -6.25126223 -1.5185316627761045 1.82464672259646
v -6.25126223 0.8398374929426032 1.9153703851678763
v -6.25126223 0.8596431555603932 2.7680000399999996
v -6.25126223 3.0939999099999995 2.7680000399999996
v -6.25126223 3.0939999099999995 2.7680000399999996
v -6.25126223 3.09399991 1.10000001
v -6.25126223 2.1558492200000003 1.10000001
v -6.25126223 2.1558492200000003 1.10000001
v -6.25126223 2.155849220000001 0.626907937265766
v -6.25126223 0.8398374929426032 1.9153703851678763
v -6.25126223 0.8398374929426032 1.9153703851678763
v -6.25126223 3.0939999099999995 2.7680000399999996
v -6.25126223 2.1558492200000003 1.10000001
v -1.67695229 2.67615797 1.10000001
v -2.1323823821669796 2.7177593564517304 2.7680000400000004
v -0.00026214000000024384 2.5230000699999993 2.7680000400000004
v -0.00026214000000024384 2.5230000699999993 2.7680000400000004
v -0.00026213653199794185 2.5230001079658297 1.100000010000001
v -1.67695229 2.67615797 1.10000001
v -1.67695229 2.67615797 1.10000001
v -1.6769522891448496 2.6761579793617294 0.6886995232291908
v -2.213004328166336 2.725123825656498 1.5175771291755067
v -2.1323823821669796 2.7177593564517304 2.7680000400000004
v -1.67695229 2.67615797 1.10000001
v -2.213004328166336 2.725123825656498 1.5175771291755067
v -4.211595879691272 2.907685893918103 1.1761227001122718
v -2.213004328166336 2.725123825656498 1.5175771291755067
v -1.6769522891448496 2.6761579793617294 0.6886995232291908
v -1.6769522891448496 2.6761579793617294 0.6886995232291908
v -1.6769522877129481 2.676157995037418 3.3306690738754696e-16
v -4.416042841614031 2.9263612018050944 1.9984014443252818e-15
v -4.416042841614031 2.9263612018050944 1.9984014443252818e-15
v -4.416042843309307 2.926361183246121 0.8153744561840459
v -4.211595879691272 2.907685893918103 1.1761227001122718
v -4.211595879691272 2.907685893918103 1.1761227001122718
v -1.6769522891448496 2.6761579793617294 0.6886995232291908
v -4.416042841614031 2.9263612018050944 1.9984014443252818e-15
v -4.211595879691272 2.907685893918103 1.1761227001122718
v -4.416042843309307 2.926361183246121 0.8153744561840459
v -4.416042843901082 2.9263611767676765 1.1000000100000003
v -4.416042843901082 2.9263611767676765 1.1000000100000003
v -6.251262226531997 3.0939999479658304 1.1000000100000007
v -6.251262229999999 3.09399991 2.76800004
v -4.416042843901082 2.9263611767676765 1.1000000100000003
v -4.32459212293032 2.918007539654414 2.7680000400000004
v -4.211595879691272 2.907685893918103 1.1761227001122718
v -4.32459212293032 2.918007539654414 2.7680000400000004
v -4.416042843901082 2.9263611767676765 1.1000000100000003
v -6.251262229999999 3.09399991 2.76800004
v -2.213004328166336 2.725123825656498 1.5175771291755067
v -4.211595879691272 2.907685893918103 1.1761227001122718
v -4.32459212293032 2.918007539654414 2.7680000400000004
v -4.32459212293032 2.918007539654414 2.7680000400000004
v -2.1323823821669796 2.7177593564517304 2.7680000400000004
v -2.213004328166336 2.725123825656498 1.5175771291755067
v -0.00026214 1.59804907 1.1000000100000003
v -0.00026214 2.52300007 1.10000001
v -0.00026214 2.52300007 2.76800004
v -0.00026214 0.34498054732092687 2.76800004
v -0.00026214 1.5980490700000003 0.9480831445095796
v -0.00026214 1.59804907 1.1000000100000003
v -0.00026214 1.59804907 1.1000000100000003
v -0.00026214 2.52300007 2.76800004
v -0.00026214 0.34498054732092687 2.76800004
v -0.00026214 -0.012000000000000354 2.19499993
v -0.00026214 -0.6411977000178456 2.76800004
v -0.00026214 -0.7544300311766866 2.193993992617461
v -0.00026214 1.5980490700000003 0.9480831445095796
v -0.00026214 -0.01200000000000001 0.0
v -0.00026214 1.59804907 0.0
v -0.00026214 -0.012000000000000354 2.19499993
v -0.00026214 1.5980490700000003 0.9480831445095796
v -0.00026214 0.34498054732092687 2.76800004
v -0.00026214 -0.6411977000178456 2.76800004
v -0.00026214 -0.012000000000000354 2.19499993
v -0.00026214 0.34498054732092687 2.76800004
v -0.00026214 -0.01200000000000001 0.0
v -0.00026214 1.5980490700000003 0.9480831445095796
v -0.00026214 -0.012000000000000354 2.19499993
v -0.00026214 -1.9833576199999996 1.10000001
v -0.00026214 -3.64799981 2.7680000399999996
v -0.00026214 -3.64799981 1.1000000099999998
v -0.00026214 -1.9833576199999996 1.10000001
v -0.00026214 -1.9833576199999998 0.0
v -0.00026214 -1.4879999699999997 0.0
v -0.00026214 -1.48799997 2.19300006
v -0.00026214 -0.7544300311766866 2.193993992617461
v -0.00026214 -0.6411977000178456 2.76800004
v -0.00026214 -1.9833576199999996 1.10000001
v -0.00026214 -1.4879999699999997 0.0
v -0.00026214 -1.48799997 2.19300006
v -0.00026214 -3.64799981 2.7680000399999996
v -0.00026214 -1.48799997 2.19300006
v -0.00026214 -0.6411977000178456 2.76800004
v -0.00026214 -3.64799981 2.7680000399999996
v -0.00026214 -1.9833576199999996 1.10000001
v -0.00026214 -1.48799997 2.19300006
v 4.441514452198107 2.055484751008153 0.04999999999999982
v 6.10173802 1.90299993 2.73600005
v 6.101738020000001 1.90299993 0.04999999999999982
v 6.10173802 1.90299993 2.73600005
v 4.441514452198107 2.055484751008153 0.04999999999999982
v 4.40264614906814 2.0590546474730673 2.73600005
v 2.49885887877476 2.2339098096200765 1.3861247251814302
v 0.5707378400000005 2.41099993 1.413824364622885
v 0.5707378400000007 2.41099993 2.7360000500000003
v 0.5707378400000007 2.41099993 2.7360000500000003
v 2.9986542409196786 2.1880056267043533 2.7360000500000003
v 2.49885887877476 2.2339098096200765 1.3861247251814302
v 2.49885887877476 2.2339098096200765 1.3861247251814302
v 2.9668956619772633 2.1909225237532968 0.050000000000000044
v 0.5707378400000004 2.41099993 0.05000000000000015
v 0.5707378400000004 2.41099993 0.05000000000000015
v 0.5707378400000005 2.41099993 1.413824364622885
v 2.49885887877476 2.2339098096200765 1.3861247251814302
v 2.49885887877476 2.2339098096200765 1.3861247251814302
v 2.9986542409196786 2.1880056267043533 2.7360000500000003
v 4.40264614906814 2.0590546474730673 2.73600005
v 2.49885887877476 2.2339098096200765 1.3861247251814302
v 4.441514452198107 2.055484751008153 0.04999999999999982
v 2.9668956619772633 2.1909225237532968 0.050000000000000044
v 4.441514452198107 2.055484751008153 0.04999999999999982
v 2.49885887877476 2.2339098096200765 1.3861247251814302
v 4.40264614906814 2.0590546474730673 2.73600005
v 6.10173802 -0.1531032779595757 1.5878725778667788
v 6.10173802 0.4580153677037009 0.050000000000000044
v 6.10173802 1.9029999300000002 0.04999999999999982
v 6.10173802 -0.1531032779595757 1.5878725778667788
v 6.10173802 1.90299993 2.73600005
v 6.10173802 0.20416176712029718 2.7360000500000003
v 6.10173802 1.90299993 2.73600005
v 6.10173802 -0.1531032779595757 1.5878725778667788
v 6.10173802 1.9029999300000002 0.04999999999999982
v 6.10173802 0.4580153677037009 0.050000000000000044
v 6.10173802 -1.9027761490484953 1.2141594785478083
v 6.10173802 -2.235216829478853 0.05000000000000049
v 6.10173802 -1.9027761490484953 1.2141594785478083
v 6.10173802 0.4580153677037009 0.050000000000000044
v 6.10173802 -0.1531032779595757 1.5878725778667788
v 6.10173802 -2.5601518543335633 2.7360000500000003
v 6.10173802 -0.1531032779595757 1.5878725778667788
v 6.10173802 0.20416176712029718 2.7360000500000003
v 6.10173802 -0.1531032779595757 1.5878725778667788
v 6.10173802 -2.5601518543335633 2.7360000500000003
v 6.10173802 -1.9027761490484953 1.2141594785478083
v 6.10173802 -4.168094378126822 1.3307134116207169
v 6.10173802 -2.5601518543335633 2.7360000500000003
v 6.10173802 -3.587543169301829 2.7360000500000003
v 6.10173802 -1.9027761490484953 1.2141594785478083
v 6.10173802 -4.168094378126822 1.3307134116207169
v 6.10173802 -3.800305029662105 0.0500000000000006
v 6.10173802 -3.800305029662105 0.0500000000000006
v 6.10173802 -2.235216829478853 0.05000000000000049
v 6.10173802 -1.9027761490484953 1.2141594785478083
v 6.10173802 -2.5601518543335633 2.7360000500000003
v 6.10173802 -4.168094378126822 1.3307134116207169
v 6.10173802 -1.9027761490484953 1.2141594785478083
v 6.10173802 -4.168094378126822 1.3307134116207169
v 6.10173802 -3.587543169301829 2.7360000500000003
v 6.10173802 -6.15999997 2.736000050000001
v 6.10173802 -6.15999997 2.736000050000001
v 6.10173802 -6.15999997 1.512255590294616
v 6.10173802 -4.168094378126822 1.3307134116207169
v 6.10173802 -4.168094378126822 1.3307134116207169
v 6.10173802 -6.15999997 1.512255590294616
v 6.10173802 -6.159999969999999 0.05000000000000103
v 6.10173802 -6.159999969999999 0.05000000000000103
v 6.10173802 -3.800305029662105 0.0500000000000006
v 6.10173802 -4.168094378126822 1.3307134116207169
v 2.216953783755031 -6.15999997 2.7360000500000003
v 0.57073784 -6.15999997 2.73600005
v 0.5707378399999996 -6.15999997 0.04999999999999938
v 0.5707378399999996 -6.15999997 0.04999999999999938
v 2.298589551000923 -6.15999997 0.0499999999999996
v 2.216953783755031 -6.15999997 2.7360000500000003
v 4.187536880674598 -6.15999997 1.4434433758949399
v 6.101738019999999 -6.15999997 1.2739769401181054
v 6.101738019999999 -6.15999997 2.7360000500000003
v 6.101738019999999 -6.15999997 2.7360000500000003
v 3.776296986820353 -6.15999997 2.7360000500000003
v 4.187536880674598 -6.15999997 1.4434433758949399
v 4.187536880674598 -6.15999997 1.4434433758949399
v 3.6128934990528734 -6.15999997 0.0499999999999996
v 6.101738019999999 -6.15999997 0.049999999999999996
v 6.101738019999999 -6.15999997 0.049999999999999996
v 6.101738019999999 -6.15999997 1.2739769401181054
v 4.187536880674598 -6.15999997 1.4434433758949399
v 2.298589551000923 -6.15999997 0.0499999999999996
v 3.6128934990528734 -6.15999997 0.0499999999999996
v 4.187536880674598 -6.15999997 1.4434433758949399
v 4.187536880674598 -6.15999997 1.4434433758949399
v 3.776296986820353 -6.15999997 2.7360000500000003
v 2.216953783755031 -6.15999997 2.7360000500000003
v 2.216953783755031 -6.15999997 2.7360000500000003
v 2.298589551000923 -6.15999997 0.0499999999999996
v 4.187536880674598 -6.15999997 1.4434433758949399
v -4.41604285 2.92636111 1.10000001
v -4.51011812 1.98546776 1.10000001
v -6.251262230000001 2.15584922 1.10000001
v -6.251262230000001 2.15584922 1.10000001
v -6.25126223 3.09399991 1.10000001
v -4.41604285 2.92636111 1.10000001
v -4.51011812 1.98546776 1.0000000100000002
v -4.41604285 2.92636111 0.0
v -4.51011812 1.9854677599999997 -5.551115123125783e-17
v -4.51011812 1.98546776 1.0000000100000002
v -4.51011812 1.9854677599999997 1.1000000100000003
v -4.41604285 2.92636111 1.1000000100000003
v -4.41604285 2.92636111 0.0
v -4.51011812 1.98546776 1.0000000100000002
v -4.41604285 2.92636111 1.1000000100000003
v -4.51011812 1.98546776 1.00000001
v -4.51011812 1.98546776 -1.1102230246251565e-16
v -6.25126223 2.15584922 -1.6623471656375042e-16
v -4.51011812 1.98546776 1.00000001
v -6.25126223 2.15584922 1.10000001
v -4.51011812 1.98546776 1.10000001
v -6.25126223 2.15584922 1.10000001
v -4.51011812 1.98546776 1.00000001
v -6.25126223 2.15584922 -1.6623471656375042e-16
v -4.52168292 -3.05310105 1.10000001
v -6.25126223 -3.05310105 1.10000001
v -6.25126223 -3.05310105 -1.1102230246251565e-16
v -6.25126223 -3.05310105 -1.1102230246251565e-16
v -4.52168292 -3.05310105 -8.177322744583182e-17
v -4.52168292 -3.05310105 1.10000001
v -4.52168292 -3.0531010499999995 1.10000001
v -4.52168292 -3.64799981 1.10000001
v -6.251262230000001 -3.64799981 1.10000001
v -6.251262230000001 -3.64799981 1.10000001
v -6.25126223 -3.05310105 1.10000001
v -4.52168292 -3.0531010499999995 1.10000001
v -4.52168292 -3.05310105 1.1000000100000003
v -4.52168292 -3.05310105 0.0
v -4.52168292 -3.64799981 0.0
v -4.52168292 -3.64799981 0.0
v -4.52168292 -3.64799981 1.1000000100000003
v -4.52168292 -3.05310105 1.1000000100000003
v -0.00026213999999985527 2.52300007 1.10000001
v -0.00026214 1.59804907 1.10000001
v -1.7412999100000002 1.7145899199999999 1.10000001
v -1.7412999100000002 1.7145899199999999 1.10000001
v -1.6769522899999998 2.67615797 1.10000001
v -0.00026213999999985527 2.52300007 1.10000001
v -1.7412999100000004 1.71458992 1.00000001
v -0.00026214 1.59804907 1.10000001
v -0.0002621399999999663 1.59804907 -2.220446049250313e-16
v -0.0002621399999999663 1.59804907 -2.220446049250313e-16
v -1.7412999100000004 1.71458992 -2.0269728106123305e-16
v -1.7412999100000004 1.71458992 1.00000001
v -0.00026214 1.59804907 1.10000001
v -1.7412999100000004 1.71458992 1.00000001
v -1.7412999100000004 1.71458992 1.10000001
v -1.7412999100000002 1.7145899199999999 1.00000001
v -1.67695229 2.67615797 1.10000001
v -1.7412999100000002 1.71458992 1.10000001
v -1.6769522899999998 2.6761579700000007 -1.6653345369377348e-16
v -1.7412999100000002 1.7145899199999999 1.00000001
v -1.74129991 1.71458992 -4.567339452123481e-17
v -1.7412999100000002 1.7145899199999999 1.00000001
v -1.6769522899999998 2.6761579700000007 -1.6653345369377348e-16
v -1.67695229 2.67615797 1.10000001
v -5.44190039 1.4788138000000002 1.00000001
v -5.44190039 1.4788138 0.0
v -5.44190039 -0.09118618000000017 -1.1102230246251565e-16
v -5.44190039 -0.09118618000000017 -1.1102230246251565e-16
v -5.44190039 -0.09118618000000006 1.0000000100000002
v -5.44190039 1.4788138000000002 1.00000001
v -3.55628642 2.55879575 1.00000001
v -2.39004694 2.52444417 0.0
v -3.55628642 2.55879575 -1.1102230246251565e-16
v -2.39004694 2.52444417 0.0
v -3.55628642 2.55879575 1.00000001
v -2.39004694 2.52444417 1.0000000100000002
v -1.74129991 1.7145899199999999 -3.0490106068438855e-16
v -2.39004694 2.52444417 1.00000001
v -1.74129991 1.7145899199999999 1.00000001
v -2.39004694 2.52444417 1.00000001
v -1.74129991 1.7145899199999999 -3.0490106068438855e-16
v -2.39004694 2.52444417 -3.3306690738754696e-16
v -5.44190039 1.4788138 1.4343640221042545e-17
v -4.51011812 1.98546776 1.00000001
v -4.51011812 1.9854677599999997 0.0
v -4.51011812 1.98546776 1.00000001
v -5.44190039 1.4788138 1.4343640221042545e-17
v -5.44190039 1.4788138000000002 1.00000001
v -2.80271478 -3.64799981 -7.01321664137976e-18
v -2.80271478 -2.79835749 1.10000001
v -2.80271478 -3.64799981 1.10000001
v -2.80271478 -2.79835749 1.10000001
v -2.80271478 -3.64799981 -7.01321664137976e-18
v -2.80271478 -2.79835749 -1.6653345369377348e-16
v -0.9127148300000004 -2.79835749 4.070404603785277e-16
v -2.80271478 -2.79835749 1.10000001
v -2.8027147800000005 -2.79835749 0.0
v -2.80271478 -2.79835749 1.10000001
v -0.9127148300000004 -2.79835749 4.070404603785277e-16
v -0.9127148300000003 -2.79835749 1.1000000100000005
v -0.9127148299999999 -2.79835749 1.10000001
v -2.80271478 -3.64799981 1.10000001
v -2.80271478 -2.79835749 1.10000001
v -0.9127148299999999 -2.79835749 1.10000001
v -0.9127148299999999 -1.98335762 1.10000001
v -0.0002621399999999108 -1.9833576199999998 1.10000001
v -2.80271478 -3.64799981 1.10000001
v -0.9127148299999999 -2.79835749 1.10000001
v -0.00026214 -3.64799981 1.10000001
v -0.9127148299999999 -2.79835749 1.10000001
v -0.0002621399999999108 -1.9833576199999998 1.10000001
v -0.00026214 -3.64799981 1.10000001
v -0.91271483 -1.98335762 -2.220446049250313e-16
v -0.91271483 -1.98335762 1.10000001
v -0.91271483 -2.79835749 1.10000001
v -0.91271483 -2.79835749 1.10000001
v -0.91271483 -2.79835749 -2.4019741118320573e-16
v -0.91271483 -1.98335762 -2.220446049250313e-16
v -0.00026214000000016367 -1.98335762 6.652804067786237e-17
v -0.91271483 -1.98335762 1.10000001
v -0.9127148300000001 -1.98335762 -5.551115123125783e-17
v -0.91271483 -1.98335762 1.10000001
v -0.00026214000000016367 -1.98335762 6.652804067786237e-17
v -0.0002621399999999108 -1.98335762 1.1000000100000003
v -0.0002621400000001328 -0.011999999999999567 0.0
v -2.1590293695235 -0.008544289928043458 0.0
v -1.175569563288081 1.676721301287265 0.0
v -1.175569563288081 1.676721301287265 0.0
v -0.0002621400000001328 1.5980490700000007 0.0
v -0.0002621400000001328 -0.011999999999999567 0.0
v -0.0002621400000001328 -0.011999999999999567 0.0
v -0.00026214000000004956 -0.8715271275408643 0.0
v -2.017021999037042 -0.37322959490029306 0.0
v -2.1590293695235 -0.008544289928043458 0.0
v -0.0002621400000001328 -0.011999999999999567 0.0
v -2.017021999037042 -0.37322959490029306 0.0
v -1.74129991 1.7145899200000008 0.0
v -3.290883317198488 0.5580999585588642 0.0
v -3.124124502938306 2.546066422171981 0.0
v -3.124124502938306 2.546066422171981 0.0
v -2.39004694 2.524444170000001 0.0
v -1.74129991 1.7145899200000008 0.0
v -1.74129991 1.7145899200000008 0.0
v -1.175569563288081 1.676721301287265 0.0
v -2.1590293695235 -0.008544289928043458 0.0
v -3.290883317198488 0.5580999585588642 0.0
v -1.74129991 1.7145899200000008 0.0
v -2.1590293695235 -0.008544289928043458 0.0
v -0.9127148299999999 -1.9833576200000003 0.0
v -2.017021999037042 -0.37322959490029306 0.0
v -0.00026214000000004956 -0.8715271275408643 0.0
v -0.00026214000000004956 -0.8715271275408643 0.0
v -0.00026214 -1.98335762 0.0
v -0.9127148299999999 -1.9833576200000003 0.0
v -0.9127148299999999 -1.9833576200000003 0.0
v -0.9127148299999996 -2.79835749 0.0
v -2.1208860024239544 -2.79835749 0.0
v -2.017021999037042 -0.37322959490029306 0.0
v -0.9127148299999999 -1.9833576200000003 0.0
v -2.6641646300765447 -1.6612949082980193 0.0
v -2.6641646300765447 -1.6612949082980193 0.0
v -0.9127148299999999 -1.9833576200000003 0.0
v -2.1208860024239544 -2.79835749 0.0
v -2.1590293695235 -0.008544289928043458 0.0
v -2.017021999037042 -0.37322959490029306 0.0
v -2.6641646300765447 -1.6612949082980193 0.0
v -4.301751261620118 0.2426997226978309 0.0
v -4.137942885559317 -1.548274683609183 0.0
v -4.7593272452113675 -0.5454813932683944 0.0
v -4.137942885559317 -1.548274683609183 0.0
v -4.301751261620118 0.2426997226978309 0.0
v -3.290883317198488 0.5580999585588642 0.0
v -3.290883317198488 0.5580999585588642 0.0
v -2.1590293695235 -0.008544289928043458 0.0
v -2.6641646300765447 -1.6612949082980193 0.0
v -4.137942885559317 -1.548274683609183 0.0
v -3.290883317198488 0.5580999585588642 0.0
v -2.6641646300765447 -1.6612949082980193 0.0
v -4.510118119999999 1.9854677600000006 0.0
v -4.301751261620118 0.2426997226978309 0.0
v -5.302559138568446 2.063012896518068 0.0
v -3.290883317198488 0.5580999585588642 0.0
v -3.55628642 2.55879575 0.0
v -3.124124502938306 2.546066422171981 0.0
v -4.301751261620118 0.2426997226978309 0.0
v -4.510118119999999 1.9854677600000006 0.0
v -3.290883317198488 0.5580999585588642 0.0
v -3.55628642 2.55879575 0.0
v -3.290883317198488 0.5580999585588642 0.0
v -4.510118119999999 1.9854677600000006 0.0
v -2.8027147799999996 -2.79835749 0.0
v -2.6641646300765447 -1.6612949082980193 0.0
v -2.1208860024239544 -2.79835749 0.0
v -4.521682919999999 -3.05310105 0.0
v -2.8027147799999996 -3.64799981 0.0
v -4.521682919999999 -3.64799981 0.0
v -4.521682919999999 -3.05310105 0.0
v -4.8280825217416545 -3.05310105 0.0
v -4.137942885559317 -1.548274683609183 0.0
v -2.6641646300765447 -1.6612949082980193 0.0
v -2.8027147799999996 -2.79835749 0.0
v -4.137942885559317 -1.548274683609183 0.0
v -2.8027147799999996 -3.64799981 0.0
v -4.521682919999999 -3.05310105 0.0
v -2.8027147799999996 -2.79835749 0.0
v -4.521682919999999 -3.05310105 0.0
v -4.137942885559317 -1.548274683609183 0.0
v -2.8027147799999996 -2.79835749 0.0
v -4.301751261620118 0.2426997226978309 0.0
v -4.7593272452113675 -0.5454813932683944 0.0
v -6.251262229999999 -0.6218170328435022 0.0
v -6.251262229999999 -0.6218170328435022 0.0
v -6.251262229999999 2.155849220000001 0.0
v -5.302559138568446 2.063012896518068 0.0
v -5.302559138568446 2.063012896518068 0.0
v -4.301751261620118 0.2426997226978309 0.0
v -6.251262229999999 -0.6218170328435022 0.0
v -6.251262229999999 -0.6218170328435022 0.0
v -4.137942885559317 -1.548274683609183 0.0
v -4.8280825217416545 -3.05310105 0.0
v -4.8280825217416545 -3.05310105 0.0
v -6.251262229999999 -3.0531010499999995 0.0
v -6.251262229999999 -0.6218170328435022 0.0
v -4.137942885559317 -1.548274683609183 0.0
v -6.251262229999999 -0.6218170328435022 0.0
v -4.7593272452113675 -0.5454813932683944 0.0
v -4.51011812 1.98546776 1.00000001
v -3.55628642 2.55879575 0.0
v -4.51011812 1.98546776 0.0
v -3.55628642 2.55879575 0.0
v -4.51011812 1.98546776 1.00000001
v -3.55628642 2.55879575 1.00000001
v 0.57073784 -1.48799997 0.04999999999999983
v -0.00026214 -1.48799997 2.19300006
v -0.0002621400000000218 -1.48799997 1.6653345369377348e-16
v -0.00026214 -1.48799997 2.19300006
v 0.57073784 -1.48799997 0.04999999999999983
v 0.57073784 -1.48799997 2.19300006
v 1.3063439999999997 -1.2924716899999997 2.1949999299999994
v 0.57073784 -0.012 0.05
v 1.306344 -1.29247169 0.04999999999999993
v 0.57073784 -0.012 0.05
v 1.3063439999999997 -1.2924716899999997 2.1949999299999994
v 0.57073784 -0.0119999999999999 2.19499993
v 4.40111262145581 -4.25817499003426 0.05
v 6.10173802 -4.2560711499578545 0.05
v 6.10173802 -6.15999997 0.05
v 6.10173802 -6.15999997 0.05
v 4.034793459404184 -6.15999997 0.05
v 4.40111262145581 -4.25817499003426 0.05
v 4.40111262145581 -4.25817499003426 0.05
v 3.909558373494176 -3.710730906287031 0.05
v 4.5057028228823315 -2.2341241177722884 0.05
v 4.5057028228823315 -2.2341241177722884 0.05
v 6.101738020000001 -2.2276274530317766 0.05000000000000001
v 6.10173802 -4.2560711499578545 0.05
v 6.10173802 -4.2560711499578545 0.05
v 4.40111262145581 -4.25817499003426 0.05
v 4.5057028228823315 -2.2341241177722884 0.05
v 2.6266193950644725 -1.5115704668110008 0.05
v 4.5057028228823315 -2.2341241177722884 0.05
v 2.133636047017227 -2.1481668225713806 0.05
v 4.5057028228823315 -2.2341241177722884 0.05
v 2.6266193950644725 -1.5115704668110008 0.05
v 3.9430713604159977 -1.4713181781028195 0.05
v 2.7636858992336713 -3.717723944084244 0.05
v 4.5057028228823315 -2.2341241177722884 0.05
v 3.909558373494176 -3.710730906287031 0.05
v 2.133636047017227 -2.1481668225713806 0.05
v 4.5057028228823315 -2.2341241177722884 0.05
v 2.7636858992336713 -3.717723944084244 0.05
v 6.101738020000001 1.9029999300000005 0.05000000000000001
v 4.098869686622564 0.4083212922999553 0.05000000000000001
v 4.488327337054095 2.0511851768383975 0.05000000000000001
v 4.098869686622564 0.4083212922999553 0.05000000000000001
v 6.101738020000001 1.9029999300000005 0.05000000000000001
v 6.101738020000001 -0.1671029443334251 0.05000000000000001
v 4.098869686622564 0.4083212922999553 0.05000000000000001
v 6.101738020000001 -0.1671029443334251 0.05000000000000001
v 4.474637755734346 -0.12765786613268282 0.05000000000000001
v 2.2731104931407717 -4.253597997103869 0.05
v 2.6236508408270494 -6.15999997 0.049999999999999996
v 0.5707378400000009 -6.159999970000001 0.049999999999999996
v 0.5707378400000009 -6.159999970000001 0.049999999999999996
v 0.5707378400000014 -4.224487678194346 0.049999999999999996
v 2.2731104931407717 -4.253597997103869 0.05
v 4.034793459404184 -6.15999997 0.05
v 2.6236508408270494 -6.15999997 0.049999999999999996
v 2.2731104931407717 -4.253597997103869 0.05
v 4.40111262145581 -4.25817499003426 0.05
v 2.7636858992336713 -3.717723944084244 0.05
v 3.909558373494176 -3.710730906287031 0.05
v 2.2731104931407717 -4.253597997103869 0.05
v 4.40111262145581 -4.25817499003426 0.05
v 4.034793459404184 -6.15999997 0.05
v 2.7636858992336713 -3.717723944084244 0.05
v 4.40111262145581 -4.25817499003426 0.05
v 2.2731104931407717 -4.253597997103869 0.05
v 2.133636047017227 -2.1481668225713806 0.05
v 2.7636858992336713 -3.717723944084244 0.05
v 2.2731104931407717 -4.253597997103869 0.05
v 2.133636047017227 -2.1481668225713806 0.05
v 0.5707378400000014 -4.224487678194346 0.049999999999999996
v 0.5707378400000018 -2.2037453854045306 0.05
v 0.5707378400000014 -4.224487678194346 0.049999999999999996
v 2.133636047017227 -2.1481668225713806 0.05
v 2.2731104931407717 -4.253597997103869 0.05
v 4.5057028228823315 -2.2341241177722884 0.05
v 3.9430713604159977 -1.4713181781028195 0.05
v 4.474637755734346 -0.12765786613268282 0.05000000000000001
v 4.5057028228823315 -2.2341241177722884 0.05
v 6.101738020000001 -0.1671029443334251 0.05000000000000001
v 6.101738020000001 -2.2276274530317766 0.05000000000000001
v 6.101738020000001 -0.1671029443334251 0.05000000000000001
v 4.5057028228823315 -2.2341241177722884 0.05
v 4.474637755734346 -0.12765786613268282 0.05000000000000001
v 2.465857123234762 0.4861587621100585 0.05
v 2.6266193950644725 -1.5115704668110008 0.05
v 2.067312352083993 0.05213367908726796 0.05
v 2.6266193950644725 -1.5115704668110008 0.05
v 2.465857123234762 0.4861587621100585 0.05
v 4.098869686622564 0.4083212922999553 0.05000000000000001
v 4.098869686622564 0.4083212922999553 0.05000000000000001
v 4.474637755734346 -0.12765786613268282 0.05000000000000001
v 3.9430713604159977 -1.4713181781028195 0.05
v 2.6266193950644725 -1.5115704668110008 0.05
v 4.098869686622564 0.4083212922999553 0.05000000000000001
v 3.9430713604159977 -1.4713181781028195 0.05
v 0.5707378400000018 -1.4879999700000006 0.05
v 2.6266193950644725 -1.5115704668110008 0.05
v 2.133636047017227 -2.1481668225713806 0.05
v 2.133636047017227 -2.1481668225713806 0.05
v 0.5707378400000018 -2.2037453854045306 0.05
v 0.5707378400000018 -1.4879999700000006 0.05
v 2.067312352083993 0.05213367908726796 0.05
v 0.5707378400000019 -0.012000000000000854 0.05
v 0.5707378400000029 0.0540410303017492 0.05
v 2.6266193950644725 -1.5115704668110008 0.05
v 0.5707378400000018 -1.4879999700000006 0.05
v 2.067312352083993 0.05213367908726796 0.05
v 2.067312352083993 0.05213367908726796 0.05
v 0.5707378400000018 -1.4879999700000006 0.05
v 0.5707378400000019 -0.012000000000000854 0.05
v 4.098869686622564 0.4083212922999553 0.05000000000000001
v 2.465857123234762 0.4861587621100585 0.05
v 2.330764146000111 2.2493486310756055 0.05000000000000001
v 2.330764146000111 2.2493486310756055 0.05000000000000001
v 4.488327337054095 2.0511851768383975 0.05000000000000001
v 4.098869686622564 0.4083212922999553 0.05000000000000001
v 2.465857123234762 0.4861587621100585 0.05
v 2.067312352083993 0.05213367908726796 0.05
v 0.5707378400000029 0.0540410303017492 0.05
v 2.465857123234762 0.4861587621100585 0.05
v 0.5707378400000016 2.410999929999999 0.05
v 2.330764146000111 2.2493486310756055 0.05000000000000001
v 0.5707378400000016 2.410999929999999 0.05
v 2.465857123234762 0.4861587621100585 0.05
v 0.5707378400000029 0.0540410303017492 0.05
v -3.5562864200000006 2.55879575 0.0
v -4.51011812 1.9854677600000001 0.0
v -4.416042850000001 2.9263611100000007 0.0
v -1.67695229 2.67615797 0.0
v -1.74129991 1.71458992 0.0
v -2.39004694 2.52444417 0.0
v -2.39004694 2.52444417 0.0
v -3.5562864200000006 2.55879575 0.0
v -4.416042850000001 2.9263611100000007 0.0
v -4.416042850000001 2.9263611100000007 0.0
v -1.67695229 2.67615797 0.0
v -2.39004694 2.52444417 0.0
v 0.57073784 -4.053286680547298 0.6367837332502163
v 0.57073784 -2.5721678155409067 1.910518342626039
v 0.57073784 -1.48799997 1.0128853201693904
v 0.57073784 -4.053286680547298 0.6367837332502163
v 0.57073784 -1.48799997 0.05
v 0.57073784 -4.170095673456667 0.0499999999999996
v 0.57073784 -1.48799997 0.05
v 0.57073784 -4.053286680547298 0.6367837332502163
v 0.57073784 -1.48799997 1.0128853201693904
v 0.57073784 -1.48799997 2.1930000600000006
v 0.57073784 -2.6683777664110426 2.7360000500000003
v 0.57073784 0.4990000200000002 2.736000050000001
v 0.57073784 0.4990000200000002 2.736000050000001
v 0.57073784 -0.011999999999999789 2.1949999300000003
v 0.57073784 -1.48799997 2.1930000600000006
v 0.57073784 -1.48799997 2.1930000600000006
v 0.57073784 -1.48799997 1.0128853201693904
v 0.57073784 -2.5721678155409067 1.910518342626039
v 0.57073784 -2.6683777664110426 2.7360000500000003
v 0.57073784 -1.48799997 2.1930000600000006
v 0.57073784 -2.5721678155409067 1.910518342626039
v 0.57073784 -2.5721678155409067 1.910518342626039
v 0.57073784 -4.053286680547298 0.6367837332502163
v 0.57073784 -5.035574454801906 2.7360000499999995
v 0.57073784 -5.035574454801906 2.7360000499999995
v 0.57073784 -2.6683777664110426 2.7360000500000003
v 0.57073784 -2.5721678155409067 1.910518342626039
v 0.57073784 -4.053286680547298 0.6367837332502163
v 0.57073784 -4.170095673456667 0.0499999999999996
v 0.57073784 -6.159999970000001 0.049999999999998934
v 0.57073784 -6.159999970000001 0.049999999999998934
v 0.57073784 -6.15999997 2.7360000499999995
v 0.57073784 -5.035574454801906 2.7360000499999995
v 0.57073784 -5.035574454801906 2.7360000499999995
v 0.57073784 -4.053286680547298 0.6367837332502163
v 0.57073784 -6.159999970000001 0.049999999999998934
v 0.57073784 2.41099993 1.2828873663032971
v 0.57073784 2.41099993 0.05
v 0.57073784 -0.012000000000000233 0.050000000000000044
v 0.57073784 -0.012000000000000233 0.050000000000000044
v 0.57073784 -0.01200000000000001 1.4636000432395164
v 0.57073784 2.41099993 1.2828873663032971
v 0.57073784 -0.01200000000000001 1.4636000432395164
v 0.57073784 -0.012000000000000122 2.19499993
v 0.57073784 0.4990000199999997 2.73600005
v 0.57073784 0.4990000199999997 2.73600005
v 0.57073784 2.41099993 2.7360000500000003
v 0.57073784 2.41099993 1.2828873663032971
v 0.57073784 2.41099993 1.2828873663032971
v 0.57073784 -0.01200000000000001 1.4636000432395164
v 0.57073784 0.4990000199999997 2.73600005
v 0.57073784 -0.012000000000000177 0.05
v 0.57073784 -1.48799997 0.05
v -0.0002621400000000773 -1.48799997 -6.938893903907228e-18
v -0.0002621400000000773 -1.48799997 -6.938893903907228e-18
v -0.0002621400000000043 -0.012000000000000004 1.5333097274868078e-18
v 0.57073784 -0.012000000000000177 0.05
v -0.0002621399999999113 -0.012 2.19499993
v 0.57073784 -0.012 0.05
v -0.0002621400000000218 -0.012 0.0
v 0.57073784 -0.012 0.05
v -0.0002621399999999113 -0.012 2.19499993
v 0.57073784 -0.012 2.19499993
v 1.306344 -1.29247169 0.05
v 0.5707378399999998 -0.011999999999999789 0.05
v 0.5707378399999998 -0.011999999999999789 2.19499993
v 0.5707378399999998 -0.011999999999999789 2.19499993
v 1.306344 -1.29247169 2.19499993
v 1.306344 -1.29247169 0.05
v -5.44190039 -0.09118618 0.0
v -5.44190039 1.4788138 0.0
v -5.44190039 1.4788138 1.00000001
v -5.44190039 1.4788138 1.00000001
v -5.44190039 -0.09118618 1.00000001
v -5.44190039 -0.09118618 0.0
v -2.39004694 2.52444417 1.00000001
v -3.55628642 2.55879575 0.0
v -2.39004694 2.52444417 0.0
v -3.55628642 2.55879575 0.0
v -2.39004694 2.52444417 1.00000001
v -3.55628642 2.55879575 1.00000001
v -1.7412999100000002 1.7145899200000003 1.00000001
v -2.39004694 2.52444417 1.00000001
v -2.39004694 2.52444417 0.0
v -2.39004694 2.52444417 0.0
v -1.7412999100000002 1.7145899200000003 0.0
v -1.7412999100000002 1.7145899200000003 1.00000001
v -4.51011812 1.98546776 0.0
v -4.51011812 1.98546776 1.00000001
v -5.44190039 1.4788138 1.00000001
v -5.44190039 1.4788138 1.00000001
v -5.44190039 1.4788138 0.0
v -4.51011812 1.98546776 0.0
v -4.51011812 1.9854677600000001 0.0
v -3.55628642 2.55879575 0.0
v -3.55628642 2.55879575 1.00000001
v -3.55628642 2.55879575 1.00000001
v -4.51011812 1.9854677600000001 1.00000001
v -4.51011812 1.9854677600000001 0.0

usemtl Patch_1_Mat_CR1_paintedConcrete
f 3 2 1
f 6 5 4

usemtl Patch_2_Mat_CR1_paintedConcrete
f 9 8 7
f 12 11 10
f 15 14 13

usemtl Patch_3_Mat_CR1_paintedConcrete
f 18 17 16
f 21 20 19
f 24 23 22

usemtl Patch_4_Mat_CR1_paintedConcrete
f 27 26 25
f 30 29 28
f 33 32 31
f 36 35 34

usemtl Patch_5_Mat_CR1_paintedConcrete
f 39 38 37
f 42 41 40
f 45 44 43
f 48 47 46

usemtl Patch_6_Mat_CR1_paintedConcrete
f 51 50 49
f 54 53 52
f 57 56 55

usemtl Patch_7_Mat_CR1_paintedConcrete
f 60 59 58
f 63 62 61
f 66 65 64

usemtl Patch_8_Mat_CR1_paintedConcrete
f 69 68 67
f 72 71 70
f 75 74 73
f 78 77 76

usemtl Patch_9_Mat_CR1_paintedConcrete
f 81 80 79
f 84 83 82
f 87 86 85

usemtl Patch_10_Mat_CR1_paintedConcrete
f 90 89 88
f 93 92 91
f 96 95 94

usemtl Patch_11_Mat_CR1_paintedConcrete
f 99 98 97
f 102 101 100

usemtl Patch_12_Mat_CR1_paintedConcrete
f 105 104 103
f 108 107 106
f 111 110 109

usemtl Patch_13_Mat_CR1_paintedConcrete
f 114 113 112
f 117 116 115
f 120 119 118

usemtl Patch_14_Mat_CR1_paintedConcrete
f 123 122 121
f 126 125 124
f 129 128 127
f 132 131 130
f 135 134 133

usemtl Patch_15_Mat_CR1_paintedConcrete
f 138 137 136
f 141 140 139
f 144 143 142
f 147 146 145
f 150 149 148

usemtl Patch_16_Mat_CR1_paintedConcrete
f 153 152 151
f 156 155 154

usemtl Patch_17_Mat_CR1_concrete
f 159 158 157
f 162 161 160
f 165 164 163

usemtl Patch_18_Mat_CR1_concrete
f 168 167 166
f 171 170 169
f 174 173 172

usemtl Patch_19_Mat_CR1_concrete
f 177 176 175
f 180 179 178
f 183 182 181

usemtl Patch_20_Mat_CR1_concrete
f 186 185 184
f 189 188 187
f 192 191 190

usemtl Patch_21_Mat_CR1_concrete
f 195 194 193
f 198 197 196
f 201 200 199

usemtl Patch_22_Mat_CR1_concrete
f 204 203 202
f 207 206 205
f 210 209 208
f 213 212 211
f 216 215 214

usemtl Patch_23_Mat_CR1_concrete
f 219 218 217
f 222 221 220
f 225 224 223

usemtl Patch_24_Mat_CR1_concrete
f 228 227 226
f 231 230 229
f 234 233 232

usemtl Patch_25_Mat_CR1_concrete
f 237 236 235
f 240 239 238

usemtl Patch_26_Mat_CR1_concrete
f 243 242 241
f 246 245 244
f 249 248 247

usemtl Patch_27_Mat_CR1_concrete
f 252 251 250
f 255 254 253
f 258 257 256

usemtl Patch_28_Mat_CR1_concrete
f 261 260 259
f 264 263 262
f 267 266 265
f 270 269 268

usemtl Patch_29_Mat_CR1_concrete
f 273 272 271
f 276 275 274
f 279 278 277

usemtl Patch_30_Mat_CR1_concrete
f 282 281 280
f 285 284 283
f 288 287 286

usemtl Patch_31_Mat_CR1_concrete
f 291 290 289
f 294 293 292
f 297 296 295

usemtl Patch_32_Mat_CR1_concrete
f 300 299 298
f 303 302 301
f 306 305 304
f 309 308 307

usemtl Patch_33_Mat_CR1_concrete
f 312 311 310
f 315 314 313
f 318 317 316
f 321 320 319

usemtl Patch_34_Mat_CR1_concrete
f 324 323 322
f 327 326 325
f 330 329 328
f 333 332 331

usemtl Patch_35_Mat_CR1_concrete
f 336 335 334
f 339 338 337
f 342 341 340
f 345 344 343

usemtl Patch_36_Mat_CR1_concrete
f 348 347 346
f 351 350 349

usemtl Patch_37_Mat_CR1_concrete
f 354 353 352
f 357 356 355
f 360 359 358

usemtl Patch_38_Mat_CR1_concrete
f 363 362 361
f 366 365 364
f 369 368 367
f 372 371 370
f 375 374 373

usemtl Patch_39_Mat_CR1_concrete
f 378 377 376
f 381 380 379
f 384 383 382
f 387 386 385
f 390 389 388
f 393 392 391

usemtl Patch_40_Mat_CR1_paintedConcrete
f 396 395 394
f 399 398 397

usemtl Patch_41_Mat_CR1_paintedConcrete
f 402 401 400
f 405 404 403

usemtl Patch_42_Mat_CR1_paintedConcrete
f 408 407 406
f 411 410 409

usemtl Patch_43_Mat_CR1_paintedConcrete
f 414 413 412
f 417 416 415
f 420 419 418

usemtl Patch_44_Mat_CR1_paintedConcrete
f 423 422 421
f 426 425 424
f 429 428 427

usemtl Patch_45_Mat_CR1_paintedConcrete
f 432 431 430
f 435 434 433

usemtl Patch_46_Mat_CR1_paintedConcrete
f 438 437 436
f 441 440 439

usemtl Patch_47_Mat_CR1_paintedConcrete
f 444 443 442
f 447 446 445
f 450 449 448
f 453 452 451

usemtl Patch_48_Mat_CR1_paintedConcrete
f 456 455 454
f 459 458 457

usemtl Patch_49_Mat_CR1_paintedConcrete
f 462 461 460
f 465 464 463

usemtl Patch_50_Mat_CR1_paintedConcrete
f 468 467 466
f 471 470 469

usemtl Patch_51_Mat_CR1_paintedConcrete
f 474 473 472
f 477 476 475

usemtl Patch_52_Mat_CR1_paintedConcrete
f 480 479 478
f 483 482 481

usemtl Patch_53_Mat_CR1_paintedConcrete
f 486 485 484
f 489 488 487
f 492 491 490

usemtl Patch_54_Mat_CR1_tablesEquipment
f 495 494 493
f 498 497 496

usemtl Patch_55_Mat_CR1_tablesEquipment
f 501 500 499
f 504 503 502
f 507 506 505

usemtl Patch_56_Mat_CR1_tablesEquipment
f 510 509 508
f 513 512 511
f 516 515 514

usemtl Patch_57_Mat_CR1_tablesEquipment
f 519 518 517
f 522 521 520

usemtl Patch_58_Mat_CR1_tablesEquipment
f 525 524 523
f 528 527 526

usemtl Patch_59_Mat_CR1_tablesEquipment
f 531 530 529
f 534 533 532

usemtl Patch_60_Mat_CR1_tablesEquipment
f 537 536 535
f 540 539 538

usemtl Patch_61_Mat_CR1_tablesEquipment
f 543 542 541
f 546 545 544
f 549 548 547

usemtl Patch_62_Mat_CR1_tablesEquipment
f 552 551 550
f 555 554 553
f 558 557 556

usemtl Patch_63_Mat_CR1_absorber
f 561 560 559
f 564 563 562

usemtl Patch_64_Mat_CR1_absorber
f 567 566 565
f 570 569 568

usemtl Patch_65_Mat_CR1_absorber
f 573 572 571
f 576 575 574

usemtl Patch_66_Mat_CR1_absorber
f 579 578 577
f 582 581 580

usemtl Patch_67_Mat_CR1_tablesEquipment
f 585 584 583
f 588 587 586

usemtl Patch_68_Mat_CR1_tablesEquipment
f 591 590 589
f 594 593 592

usemtl Patch_69_Mat_CR1_tablesEquipment
f 597 596 595
f 600 599 598
f 603 602 601
f 606 605 604

usemtl Patch_70_Mat_CR1_tablesEquipment
f 609 608 607
f 612 611 610

usemtl Patch_71_Mat_CR1_tablesEquipment
f 615 614 613
f 618 617 616

usemtl Patch_72_Mat_CR1_concrete
f 621 620 619
f 624 623 622
f 627 626 625
f 630 629 628

usemtl Patch_73_Mat_CR1_concrete
f 633 632 631
f 636 635 634
f 639 638 637
f 642 641 640

usemtl Patch_74_Mat_CR1_concrete
f 645 644 643
f 648 647 646
f 651 650 649
f 654 653 652
f 657 656 655

usemtl Patch_75_Mat_CR1_concrete
f 660 659 658
f 663 662 661
f 666 665 664
f 669 668 667
f 672 671 670

usemtl Patch_76_Mat_CR1_concrete
f 675 674 673
f 678 677 676
f 681 680 679
f 684 683 682

usemtl Patch_77_Mat_CR1_concrete
f 687 686 685
f 690 689 688
f 693 692 691
f 696 695 694
f 699 698 697
f 702 701 700

usemtl Patch_78_Mat_CR1_concrete
f 705 704 703
f 708 707 706
f 711 710 709

usemtl Patch_79_Mat_CR1_concrete
f 714 713 712
f 717 716 715
f 720 719 718

usemtl Patch_80_Mat_CR1_absorber
f 723 722 721
f 726 725 724

usemtl Patch_81_Mat_CR1_concrete
f 729 728 727
f 732 731 730

usemtl Patch_82_Mat_CR1_paintedConcrete
f 735 734 733
f 738 737 736

usemtl Patch_83_Mat_CR1_paintedConcrete
f 741 740 739
f 744 743 742

usemtl Patch_84_Mat_CR1_paintedConcrete
f 747 746 745
f 750 749 748
f 753 752 751

usemtl Patch_85_Mat_CR1_paintedConcrete
f 756 755 754
f 759 758 757
f 762 761 760
f 765 764 763

usemtl Patch_86_Mat_CR1_paintedConcrete
f 768 767 766
f 771 770 769
f 774 773 772

usemtl Patch_87_Mat_CR1_paintedConcrete
f 777 776 775
f 780 779 778

usemtl Patch_88_Mat_CR1_paintedConcrete
f 783 782 781
f 786 785 784
f 789 788 787
f 792 791 790

usemtl Patch_89_Mat_CR1_paintedConcrete
f 795 794 793
f 798 797 796
f 801 800 799

usemtl Patch_90_Mat_CR1_paintedConcrete
f 804 803 802
f 807 806 805
f 810 809 808

usemtl Patch_91_Mat_CR1_paintedConcrete
f 813 812 811
f 816 815 814
f 819 818 817
f 822 821 820

usemtl Patch_92_Mat_CR1_paintedConcrete
f 825 824 823
f 828 827 826
f 831 830 829
f 834 833 832
f 837 836 835

usemtl Patch_93_Mat_CR1_paintedConcrete
f 840 839 838
f 843 842 841

usemtl Patch_94_Mat_CR1_paintedConcrete
f 846 845 844
f 849 848 847
f 852 851 850

usemtl Patch_95_Mat_CR1_concrete
f 855 854 853
f 858 857 856
f 861 860 859
f 864 863 862

usemtl Patch_96_Mat_CR1_paintedConcrete
f 867 866 865
f 870 869 868
f 873 872 871

usemtl Patch_97_Mat_CR1_paintedConcrete
f 876 875 874
f 879 878 877
f 882 881 880
f 885 884 883

usemtl Patch_98_Mat_CR1_paintedConcrete
f 888 887 886
f 891 890 889

usemtl Patch_99_Mat_CR1_paintedConcrete
f 894 893 892
f 897 896 895
f 900 899 898

usemtl Patch_100_Mat_CR1_paintedConcrete
f 903 902 901
f 906 905 904

usemtl Patch_101_Mat_CR1_paintedConcrete
f 909 908 907
f 912 911 910
f 915 914 913

usemtl Patch_102_Mat_CR1_concrete
f 918 917 916
f 921 920 919

usemtl Patch_103_Mat_CR1_concrete
f 924 923 922
f 927 926 925

usemtl Patch_104_Mat_CR1_tablesEquipment
f 930 929 928
f 933 932 931

usemtl Patch_105_Mat_CR1_absorber
f 936 935 934
f 939 938 937

usemtl Patch_106_Mat_CR1_absorber
f 942 941 940
f 945 944 943

usemtl Patch_107_Mat_CR1_absorber
f 948 947 946
f 951 950 949

usemtl Patch_108_Mat_CR1_absorber
f 954 953 952
f 957 956 955

usemtl Patch_109_Mat_CR1_absorber
f 960 959 958
f 963 962 961

