mtllib mesh.mtl

v 6.102 1.903 2.736
v 5.120 0.454 2.736
v 6.102 0.546 2.736
v 4.401 1.380 2.736
v 6.102 1.903 2.736
v 4.523 2.048 2.736
v 5.120 0.454 2.736
v 6.102 1.903 2.736
v 4.401 1.380 2.736
v 6.102 -2.854 2.736
v 4.655 -2.024 2.736
v 5.079 -2.838 2.736
v 5.214 -1.181 2.736
v 6.102 -2.854 2.736
v 6.102 -1.175 2.736
v 4.655 -2.024 2.736
v 6.102 -2.854 2.736
v 5.214 -1.181 2.736
v 5.214 -1.181 2.736
v 4.580 -0.385 2.736
v 4.198 -0.401 2.736
v 4.655 -2.024 2.736
v 3.456 -1.269 2.736
v 3.725 -1.929 2.736
v 4.198 -0.401 2.736
v 4.655 -2.024 2.736
v 5.214 -1.181 2.736
v 4.655 -2.024 2.736
v 4.198 -0.401 2.736
v 3.456 -1.269 2.736
v 5.120 0.454 2.736
v 4.580 -0.385 2.736
v 5.214 -1.181 2.736
v 5.120 0.454 2.736
v 6.102 -1.175 2.736
v 6.102 0.546 2.736
v 6.102 -1.175 2.736
v 5.120 0.454 2.736
v 5.214 -1.181 2.736
v 5.120 0.454 2.736
v 4.401 1.380 2.736
v 3.402 0.735 2.736
v 3.402 0.735 2.736
v 3.350 0.499 2.736
v 4.198 -0.401 2.736
v 4.198 -0.401 2.736
v 4.580 -0.385 2.736
v 5.120 0.454 2.736
v 5.120 0.454 2.736
v 3.402 0.735 2.736
v 4.198 -0.401 2.736
v 4.655 -2.024 2.736
v 3.725 -1.929 2.736
v 3.327 -2.566 2.736
v 3.327 -2.566 2.736
v 3.624 -3.424 2.736
v 4.636 -3.440 2.736
v 4.636 -3.440 2.736
v 5.079 -2.838 2.736
v 4.655 -2.024 2.736
v 4.655 -2.024 2.736
v 3.327 -2.566 2.736
v 4.636 -3.440 2.736
v 6.102 -4.511 2.736
v 4.636 -3.440 2.736
v 5.028 -4.488 2.736
v 4.636 -3.440 2.736
v 6.102 -4.511 2.736
v 6.102 -2.854 2.736
v 4.636 -3.440 2.736
v 6.102 -2.854 2.736
v 5.079 -2.838 2.736
v 2.462 1.917 2.736
v 3.402 0.735 2.736
v 4.401 1.380 2.736
v 2.462 1.917 2.736
v 4.523 2.048 2.736
v 2.477 2.236 2.736
v 4.523 2.048 2.736
v 2.462 1.917 2.736
v 4.401 1.380 2.736
v 4.198 -0.401 2.736
v 2.651 0.035 2.736
v 2.843 -1.053 2.736
v 2.843 -1.053 2.736
v 3.456 -1.269 2.736
v 4.198 -0.401 2.736
v 2.651 0.035 2.736
v 4.198 -0.401 2.736
v 3.350 0.499 2.736
v 6.102 -6.160 2.736
v 4.665 -4.882 2.736
v 4.826 -6.160 2.736
v 4.665 -4.882 2.736
v 6.102 -6.160 2.736
v 6.102 -4.511 2.736
v 4.665 -4.882 2.736
v 6.102 -4.511 2.736
v 5.028 -4.488 2.736
v 2.651 0.035 2.736
v 1.679 0.939 2.736
v 1.985 0.197 2.736
v 3.402 0.735 2.736
v 2.651 0.035 2.736
v 3.350 0.499 2.736
v 1.679 0.939 2.736
v 3.402 0.735 2.736
v 2.462 1.917 2.736
v 2.651 0.035 2.736
v 3.402 0.735 2.736
v 1.679 0.939 2.736
v 3.327 -2.566 2.736
v 3.456 -1.269 2.736
v 2.843 -1.053 2.736
v 2.208 -2.505 2.736
v 2.038 -1.480 2.736
v 1.896 -1.907 2.736
v 2.843 -1.053 2.736
v 2.208 -2.505 2.736
v 3.327 -2.566 2.736
v 3.456 -1.269 2.736
v 3.327 -2.566 2.736
v 3.725 -1.929 2.736
v 2.208 -2.505 2.736
v 2.843 -1.053 2.736
v 2.038 -1.480 2.736
v 4.636 -3.440 2.736
v 3.624 -3.424 2.736
v 3.336 -3.853 2.736
v 4.636 -3.440 2.736
v 3.530 -4.780 2.736
v 4.665 -4.882 2.736
v 4.665 -4.882 2.736
v 5.028 -4.488 2.736
v 4.636 -3.440 2.736
v 3.530 -4.780 2.736
v 4.636 -3.440 2.736
v 3.336 -3.853 2.736
v 2.123 -3.810 2.736
v 2.208 -2.505 2.736
v 1.871 -3.354 2.736
v 3.327 -2.566 2.736
v 2.123 -3.810 2.736
v 3.336 -3.853 2.736
v 3.336 -3.853 2.736
v 3.624 -3.424 2.736
v 3.327 -2.566 2.736
v 2.208 -2.505 2.736
v 2.123 -3.810 2.736
v 3.327 -2.566 2.736
v 0.571 2.411 2.736
v 2.462 1.917 2.736
v 2.477 2.236 2.736
v 1.679 0.939 2.736
v 0.571 2.411 2.736
v 0.571 1.123 2.736
v 0.571 2.411 2.736
v 1.679 0.939 2.736
v 2.462 1.917 2.736
v 4.665 -4.882 2.736
v 3.530 -4.780 2.736
v 3.284 -5.090 2.736
v 4.665 -4.882 2.736
v 3.358 -6.160 2.736
v 4.826 -6.160 2.736
v 3.358 -6.160 2.736
v 4.665 -4.882 2.736
v 3.284 -5.090 2.736
v 2.651 0.035 2.736
v 1.985 0.197 2.736
v 1.345 -0.516 2.736
v 1.345 -0.516 2.736
v 2.038 -1.480 2.736
v 2.843 -1.053 2.736
v 2.843 -1.053 2.736
v 2.651 0.035 2.736
v 1.345 -0.516 2.736
v 0.571 -2.061 2.736
v 2.038 -1.480 2.736
v 1.345 -0.516 2.736
v 1.345 -0.516 2.736
v 0.571 -0.526 2.736
v 0.571 -2.061 2.736
v 2.038 -1.480 2.736
v 0.571 -2.061 2.736
v 1.896 -1.907 2.736
v 0.571 0.499 2.736
v 1.985 0.197 2.736
v 1.679 0.939 2.736
v 1.679 0.939 2.736
v 0.571 1.123 2.736
v 0.571 0.499 2.736
v 0.571 0.499 2.736
v 0.571 -0.526 2.736
v 1.345 -0.516 2.736
v 1.985 0.197 2.736
v 0.571 0.499 2.736
v 1.345 -0.516 2.736
v 1.990 -4.972 2.736
v 2.123 -3.810 2.736
v 1.837 -4.743 2.736
v 2.123 -3.810 2.736
v 1.990 -4.972 2.736
v 3.284 -5.090 2.736
v 3.284 -5.090 2.736
v 3.530 -4.780 2.736
v 3.336 -3.853 2.736
v 2.123 -3.810 2.736
v 3.284 -5.090 2.736
v 3.336 -3.853 2.736
v 2.208 -2.505 2.736
v 1.896 -1.907 2.736
v 0.571 -2.061 2.736
v 0.571 -2.061 2.736
v 0.571 -3.302 2.736
v 1.871 -3.354 2.736
v 1.871 -3.354 2.736
v 2.208 -2.505 2.736
v 0.571 -2.061 2.736
v 3.284 -5.090 2.736
v 1.990 -4.972 2.736
v 1.837 -6.160 2.736
v 1.837 -6.160 2.736
v 3.358 -6.160 2.736
v 3.284 -5.090 2.736
v 0.571 -4.707 2.736
v 2.123 -3.810 2.736
v 1.871 -3.354 2.736
v 1.871 -3.354 2.736
v 0.571 -3.302 2.736
v 0.571 -4.707 2.736
v 2.123 -3.810 2.736
v 0.571 -4.707 2.736
v 1.837 -4.743 2.736
v 1.990 -4.972 2.736
v 1.837 -4.743 2.736
v 0.571 -4.707 2.736
v 1.990 -4.972 2.736
v 0.571 -6.160 2.736
v 1.837 -6.160 2.736
v 0.571 -6.160 2.736
v 1.990 -4.972 2.736
v 0.571 -4.707 2.736
v -5.144 -3.648 2.768
v -6.251 -3.648 2.768
v -6.251 -3.648 1.100
v -6.251 -3.648 1.100
v -5.094 -3.648 1.100
v -5.144 -3.648 2.768
v -2.738 -3.648 1.100
v -3.866 -3.648 1.463
v -4.400 -3.648 1.100
v -3.866 -3.648 1.463
v -2.738 -3.648 1.100
v -2.818 -3.648 1.199
v -4.400 -3.648 1.100
v -4.522 -3.648 0.000
v -2.803 -3.648 -0.000
v -2.803 -3.648 -0.000
v -2.803 -3.648 1.100
v -4.400 -3.648 1.100
v -4.522 -3.648 0.000
v -4.400 -3.648 1.100
v -4.522 -3.648 1.017
v -4.522 -3.648 1.100
v -4.400 -3.648 1.100
v -3.866 -3.648 1.463
v -3.866 -3.648 1.463
v -3.993 -3.648 2.768
v -5.144 -3.648 2.768
v -5.144 -3.648 2.768
v -5.094 -3.648 1.100
v -4.522 -3.648 1.100
v -4.522 -3.648 1.100
v -3.866 -3.648 1.463
v -5.144 -3.648 2.768
v -4.400 -3.648 1.100
v -4.522 -3.648 1.100
v -4.522 -3.648 1.017
v -3.866 -3.648 1.463
v -2.818 -3.648 1.199
v -2.577 -3.648 2.768
v -2.577 -3.648 2.768
v -3.993 -3.648 2.768
v -3.866 -3.648 1.463
v -1.354 -3.648 1.899
v -0.000 -3.648 1.995
v -0.000 -3.648 2.768
v -0.000 -3.648 2.768
v -1.665 -3.648 2.768
v -1.354 -3.648 1.899
v -1.354 -3.648 1.899
v -1.576 -3.648 1.100
v -0.000 -3.648 1.100
v -0.000 -3.648 1.100
v -0.000 -3.648 1.995
v -1.354 -3.648 1.899
v -1.354 -3.648 1.899
v -1.665 -3.648 2.768
v -2.577 -3.648 2.768
v -1.576 -3.648 1.100
v -2.818 -3.648 1.199
v -2.738 -3.648 1.100
v -2.818 -3.648 1.199
v -1.576 -3.648 1.100
v -1.354 -3.648 1.899
v -2.818 -3.648 1.199
v -1.354 -3.648 1.899
v -2.577 -3.648 2.768
v -0.000 2.523 2.768
v -1.251 1.287 2.768
v 0.000 1.616 2.768
v -1.251 1.287 2.768
v -0.000 2.523 2.768
v -1.671 2.676 2.768
v -1.251 1.287 2.768
v -1.671 2.676 2.768
v -1.725 1.693 2.768
v -3.344 1.774 2.768
v -2.646 1.270 2.768
v -1.725 1.693 2.768
v -1.725 1.693 2.768
v -1.671 2.676 2.768
v -3.240 2.819 2.768
v -3.240 2.819 2.768
v -3.344 1.774 2.768
v -1.725 1.693 2.768
v 0.000 1.616 2.768
v -1.242 0.345 2.768
v 0.000 0.012 2.768
v -1.242 0.345 2.768
v 0.000 1.616 2.768
v -1.251 1.287 2.768
v -1.383 -1.132 2.768
v -1.430 -2.146 2.768
v -1.182 -2.359 2.768
v -1.383 -1.132 2.768
v 0.000 -2.264 2.768
v 0.000 -0.899 2.768
v 0.000 -2.264 2.768
v -1.383 -1.132 2.768
v -1.182 -2.359 2.768
v -4.842 1.927 2.768
v -4.063 1.426 2.768
v -3.344 1.774 2.768
v -4.842 1.927 2.768
v -3.240 2.819 2.768
v -4.865 2.967 2.768
v -3.240 2.819 2.768
v -4.842 1.927 2.768
v -3.344 1.774 2.768
v -1.251 1.287 2.768
v -2.689 0.452 2.768
v -1.242 0.345 2.768
v -2.689 0.452 2.768
v -1.780 -0.109 2.768
v -1.242 0.345 2.768
v -2.646 1.270 2.768
v -1.251 1.287 2.768
v -1.725 1.693 2.768
v -2.689 0.452 2.768
v -1.251 1.287 2.768
v -2.646 1.270 2.768
v -2.689 0.452 2.768
v -3.469 -0.001 2.768
v -3.492 -0.740 2.768
v -2.689 0.452 2.768
v -2.931 -1.234 2.768
v -1.785 -0.715 2.768
v -1.785 -0.715 2.768
v -1.780 -0.109 2.768
v -2.689 0.452 2.768
v -2.931 -1.234 2.768
v -2.689 0.452 2.768
v -3.492 -0.740 2.768
v -2.646 1.270 2.768
v -3.344 1.774 2.768
v -4.063 1.426 2.768
v -2.689 0.452 2.768
v -4.192 0.516 2.768
v -3.469 -0.001 2.768
v -4.063 1.426 2.768
v -2.689 0.452 2.768
v -2.646 1.270 2.768
v -2.689 0.452 2.768
v -4.063 1.426 2.768
v -4.192 0.516 2.768
v -1.780 -0.109 2.768
v -1.785 -0.715 2.768
v -1.383 -1.132 2.768
v -1.383 -1.132 2.768
v 0.000 -0.899 2.768
v 0.000 0.012 2.768
v -1.383 -1.132 2.768
v -1.242 0.345 2.768
v -1.780 -0.109 2.768
v -1.242 0.345 2.768
v -1.383 -1.132 2.768
v 0.000 0.012 2.768
v -6.251 3.094 2.768
v -4.842 1.927 2.768
v -4.865 2.967 2.768
v -5.868 1.228 2.768
v -6.251 3.094 2.768
v -6.251 1.246 2.768
v -4.842 1.927 2.768
v -6.251 3.094 2.768
v -5.868 1.228 2.768
v -1.383 -1.132 2.768
v -1.785 -0.715 2.768
v -2.931 -1.234 2.768
v -2.931 -1.234 2.768
v -2.926 -2.032 2.768
v -2.427 -2.384 2.768
v -2.427 -2.384 2.768
v -1.430 -2.146 2.768
v -1.383 -1.132 2.768
v -1.383 -1.132 2.768
v -2.931 -1.234 2.768
v -2.427 -2.384 2.768
v -1.182 -2.359 2.768
v -1.200 -3.648 2.768
v 0.000 -3.648 2.768
v 0.000 -3.648 2.768
v 0.000 -2.264 2.768
v -1.182 -2.359 2.768
v -4.879 0.255 2.768
v -4.842 1.927 2.768
v -5.868 1.228 2.768
v -4.063 1.426 2.768
v -4.879 0.255 2.768
v -4.192 0.516 2.768
v -4.879 0.255 2.768
v -4.063 1.426 2.768
v -4.842 1.927 2.768
v -6.251 -0.707 2.768
v -4.879 0.255 2.768
v -5.868 1.228 2.768
v -5.868 1.228 2.768
v -6.251 1.246 2.768
v -6.251 -0.707 2.768
v -4.879 0.255 2.768
v -6.251 -0.707 2.768
v -5.182 -0.536 2.768
v -1.182 -2.359 2.768
v -1.430 -2.146 2.768
v -2.427 -2.384 2.768
v -2.427 -2.384 2.768
v -2.446 -3.648 2.768
v -1.200 -3.648 2.768
v -1.200 -3.648 2.768
v -1.182 -2.359 2.768
v -2.427 -2.384 2.768
v -4.562 -1.217 2.768
v -4.879 0.255 2.768
v -5.182 -0.536 2.768
v -4.879 0.255 2.768
v -4.562 -1.217 2.768
v -3.492 -0.740 2.768
v -4.879 0.255 2.768
v -3.469 -0.001 2.768
v -4.192 0.516 2.768
v -3.469 -0.001 2.768
v -4.879 0.255 2.768
v -3.492 -0.740 2.768
v -3.718 -2.425 2.768
v -4.562 -1.217 2.768
v -4.647 -1.950 2.768
v -2.931 -1.234 2.768
v -3.718 -2.425 2.768
v -2.926 -2.032 2.768
v -3.718 -2.425 2.768
v -3.492 -0.740 2.768
v -4.562 -1.217 2.768
v -3.492 -0.740 2.768
v -3.718 -2.425 2.768
v -2.931 -1.234 2.768
v -6.251 -2.060 2.768
v -5.182 -0.536 2.768
v -6.251 -0.707 2.768
v -5.182 -0.536 2.768
v -6.251 -2.060 2.768
v -5.012 -2.209 2.768
v -5.012 -2.209 2.768
v -4.647 -1.950 2.768
v -4.562 -1.217 2.768
v -5.182 -0.536 2.768
v -5.012 -2.209 2.768
v -4.562 -1.217 2.768
v -2.427 -2.384 2.768
v -2.926 -2.032 2.768
v -3.718 -2.425 2.768
v -3.718 -2.425 2.768
v -3.756 -3.648 2.768
v -2.446 -3.648 2.768
v -2.446 -3.648 2.768
v -2.427 -2.384 2.768
v -3.718 -2.425 2.768
v -5.012 -2.209 2.768
v -6.251 -2.060 2.768
v -6.251 -3.648 2.768
v -6.251 -3.648 2.768
v -5.020 -3.648 2.768
v -5.012 -2.209 2.768
v -3.718 -2.425 2.768
v -4.647 -1.950 2.768
v -5.012 -2.209 2.768
v -3.718 -2.425 2.768
v -5.020 -3.648 2.768
v -3.756 -3.648 2.768
v -5.020 -3.648 2.768
v -3.718 -2.425 2.768
v -5.012 -2.209 2.768
v -6.251 1.851 1.363
v -6.251 2.098 2.768
v -6.251 3.094 2.768
v -6.251 3.094 2.768
v -6.251 3.094 1.100
v -6.251 2.156 1.100
v -6.251 2.156 1.100
v -6.251 2.156 1.065
v -6.251 1.851 1.363
v -6.251 1.851 1.363
v -6.251 3.094 2.768
v -6.251 2.156 1.100
v -6.251 0.483 0.000
v -6.251 1.851 1.363
v -6.251 2.156 0.000
v -6.251 1.851 1.363
v -6.251 2.156 1.065
v -6.251 2.156 0.000
v -6.251 0.883 1.421
v -6.251 0.483 0.000
v -6.251 0.450 1.072
v -6.251 1.851 1.363
v -6.251 0.483 0.000
v -6.251 0.883 1.421
v -6.251 0.883 1.421
v -6.251 0.450 1.072
v -6.251 -0.326 1.424
v -6.251 -0.326 1.424
v -6.251 -0.394 2.768
v -6.251 0.749 2.768
v -6.251 0.749 2.768
v -6.251 0.883 1.421
v -6.251 -0.326 1.424
v -6.251 1.851 1.363
v -6.251 0.883 1.421
v -6.251 0.749 2.768
v -6.251 0.749 2.768
v -6.251 2.098 2.768
v -6.251 1.851 1.363
v -6.251 0.483 0.000
v -6.251 -0.326 1.424
v -6.251 0.450 1.072
v -6.251 -0.326 1.424
v -6.251 0.483 0.000
v -6.251 -1.277 0.000
v -6.251 -0.326 1.424
v -6.251 -1.277 0.000
v -6.251 -1.260 1.028
v -6.251 -1.353 2.768
v -6.251 -2.448 1.423
v -6.251 -2.729 2.768
v -6.251 -2.448 1.423
v -6.251 -1.353 2.768
v -6.251 -1.614 1.357
v -6.251 -1.277 0.000
v -6.251 -1.614 1.357
v -6.251 -1.260 1.028
v -6.251 -2.448 1.423
v -6.251 -1.277 0.000
v -6.251 -3.053 0.000
v -6.251 -3.053 0.000
v -6.251 -3.053 0.957
v -6.251 -2.448 1.423
v -6.251 -1.614 1.357
v -6.251 -1.277 0.000
v -6.251 -2.448 1.423
v -6.251 -0.326 1.424
v -6.251 -1.614 1.357
v -6.251 -1.353 2.768
v -6.251 -1.353 2.768
v -6.251 -0.394 2.768
v -6.251 -0.326 1.424
v -6.251 -1.614 1.357
v -6.251 -0.326 1.424
v -6.251 -1.260 1.028
v -6.251 -2.448 1.423
v -6.251 -3.053 0.957
v -6.251 -3.053 1.100
v -6.251 -3.053 1.100
v -6.251 -3.648 1.100
v -6.251 -3.648 2.768
v -6.251 -3.053 1.100
v -6.251 -2.729 2.768
v -6.251 -2.448 1.423
v -6.251 -2.729 2.768
v -6.251 -3.053 1.100
v -6.251 -3.648 2.768
v -1.577 2.667 2.008
v -1.698 2.678 2.768
v 0.000 2.523 2.768
v 0.000 2.523 2.768
v 0.000 2.523 1.851
v -1.577 2.667 2.008
v -3.224 2.817 1.538
v -4.658 2.948 1.268
v -4.853 2.966 2.768
v -4.853 2.966 2.768
v -3.211 2.816 2.768
v -3.224 2.817 1.538
v -1.620 2.671 1.100
v -1.577 2.667 2.008
v 0.000 2.523 1.851
v 0.000 2.523 1.851
v 0.000 2.523 1.100
v -1.620 2.671 1.100
v -1.577 2.667 2.008
v -1.620 2.671 1.100
v -1.793 2.687 1.417
v -1.677 2.676 1.100
v -1.793 2.687 1.417
v -1.620 2.671 1.100
v -1.677 2.676 1.100
v -1.677 2.676 0.000
v -3.077 2.804 0.000
v -1.793 2.687 1.417
v -1.677 2.676 1.100
v -3.044 2.801 1.363
v -1.677 2.676 1.100
v -3.077 2.804 0.000
v -3.044 2.801 1.363
v -1.577 2.667 2.008
v -1.793 2.687 1.417
v -3.044 2.801 1.363
v -1.577 2.667 2.008
v -3.224 2.817 1.538
v -3.211 2.816 2.768
v -3.211 2.816 2.768
v -1.698 2.678 2.768
v -1.577 2.667 2.008
v -3.224 2.817 1.538
v -1.577 2.667 2.008
v -3.044 2.801 1.363
v -4.416 2.926 1.100
v -3.224 2.817 1.538
v -3.044 2.801 1.363
v -4.416 2.926 1.100
v -3.077 2.804 0.000
v -4.416 2.926 0.000
v -4.416 2.926 1.100
v -4.771 2.958 1.100
v -4.658 2.948 1.268
v -3.077 2.804 0.000
v -4.416 2.926 1.100
v -3.044 2.801 1.363
v -3.224 2.817 1.538
v -4.416 2.926 1.100
v -4.658 2.948 1.268
v -4.658 2.948 1.268
v -4.771 2.958 1.100
v -6.251 3.093 1.100
v -6.251 3.093 1.100
v -6.251 3.093 2.768
v -4.853 2.966 2.768
v -4.853 2.966 2.768
v -4.658 2.948 1.268
v -6.251 3.093 1.100
v 0.000 -2.170 1.810
v 0.000 -2.423 2.768
v 0.000 -3.648 2.768
v 0.000 -3.648 2.768
v 0.000 -3.648 1.100
v 0.000 -2.788 1.100
v 0.000 -2.788 1.100
v 0.000 -2.170 1.810
v 0.000 -3.648 2.768
v 0.000 -2.170 1.810
v 0.000 -1.488 1.623
v 0.000 -1.488 2.193
v 0.000 -1.488 2.193
v 0.000 -0.555 2.194
v 0.000 -0.497 2.768
v 0.000 -1.488 2.193
v 0.000 -2.423 2.768
v 0.000 -2.170 1.810
v 0.000 -2.423 2.768
v 0.000 -1.488 2.193
v 0.000 -0.497 2.768
v 0.000 -2.170 1.810
v 0.000 -2.788 1.100
v 0.000 -1.983 1.100
v 0.000 -1.983 1.100
v 0.000 -1.983 0.000
v 0.000 -1.488 -0.000
v 0.000 -1.983 1.100
v 0.000 -1.488 1.623
v 0.000 -2.170 1.810
v 0.000 -1.488 1.623
v 0.000 -1.983 1.100
v 0.000 -1.488 -0.000
v 0.000 -0.012 2.195
v 0.000 -0.012 1.276
v 0.000 1.069 1.539
v 0.000 -0.012 2.195
v 0.000 1.251 2.768
v 0.000 -0.497 2.768
v 0.000 -0.497 2.768
v 0.000 -0.555 2.194
v 0.000 -0.012 2.195
v 0.000 1.251 2.768
v 0.000 -0.012 2.195
v 0.000 1.069 1.539
v 0.000 1.069 1.539
v 0.000 -0.012 1.276
v 0.000 -0.012 -0.000
v 0.000 -0.012 -0.000
v 0.000 1.598 -0.000
v 0.000 1.598 1.088
v 0.000 1.598 1.088
v 0.000 1.069 1.539
v 0.000 -0.012 -0.000
v 0.000 1.069 1.539
v 0.000 1.598 1.088
v 0.000 1.598 1.100
v 0.000 1.598 1.100
v 0.000 2.523 1.100
v 0.000 2.523 2.768
v 0.000 2.523 2.768
v 0.000 1.251 2.768
v 0.000 1.069 1.539
v 0.000 1.069 1.539
v 0.000 1.598 1.100
v 0.000 2.523 2.768
v 4.793 2.023 1.437
v 4.789 2.024 2.736
v 6.102 1.903 2.736
v 6.102 1.903 2.736
v 6.102 1.903 1.325
v 4.793 2.023 1.437
v 3.423 2.149 1.497
v 3.180 2.171 1.293
v 2.018 2.278 1.517
v 2.018 2.278 1.517
v 2.016 2.278 2.736
v 3.440 2.148 2.736
v 3.440 2.148 2.736
v 3.423 2.149 1.497
v 2.018 2.278 1.517
v 6.102 1.903 0.050
v 4.793 2.023 1.437
v 6.102 1.903 1.325
v 4.793 2.023 1.437
v 6.102 1.903 0.050
v 4.603 2.041 0.050
v 4.793 2.023 1.437
v 4.603 2.041 0.050
v 4.604 2.041 1.264
v 3.180 2.171 1.293
v 3.423 2.149 1.497
v 4.604 2.041 1.264
v 4.604 2.041 1.264
v 4.603 2.041 0.050
v 3.162 2.173 0.050
v 3.162 2.173 0.050
v 3.180 2.171 1.293
v 4.604 2.041 1.264
v 4.793 2.023 1.437
v 4.604 2.041 1.264
v 3.423 2.149 1.497
v 3.423 2.149 1.497
v 3.440 2.148 2.736
v 4.789 2.024 2.736
v 4.789 2.024 2.736
v 4.793 2.023 1.437
v 3.423 2.149 1.497
v 1.833 2.295 1.352
v 2.018 2.278 1.517
v 3.180 2.171 1.293
v 3.180 2.171 1.293
v 3.162 2.173 0.050
v 1.841 2.294 0.050
v 1.841 2.294 0.050
v 1.833 2.295 1.352
v 3.180 2.171 1.293
v 0.571 2.411 2.736
v 1.833 2.295 1.352
v 0.571 2.411 1.452
v 1.833 2.295 1.352
v 0.571 2.411 2.736
v 2.016 2.278 2.736
v 1.833 2.295 1.352
v 2.016 2.278 2.736
v 2.018 2.278 1.517
v 1.833 2.295 1.352
v 1.841 2.294 0.050
v 0.571 2.411 0.050
v 0.571 2.411 0.050
v 0.571 2.411 1.452
v 1.833 2.295 1.352
v 6.102 1.903 2.736
v 6.102 0.652 1.328
v 6.102 1.903 1.536
v 6.102 0.652 1.328
v 6.102 1.903 2.736
v 6.102 0.241 2.736
v 6.102 0.652 1.328
v 6.102 0.241 2.736
v 6.102 0.241 1.665
v 6.102 0.652 1.328
v 6.102 0.241 1.665
v 6.102 -0.705 1.251
v 6.102 -0.705 1.251
v 6.102 -0.688 0.050
v 6.102 0.628 0.050
v 6.102 0.628 0.050
v 6.102 0.652 1.328
v 6.102 -0.705 1.251
v 6.102 0.652 1.328
v 6.102 0.628 0.050
v 6.102 1.903 0.050
v 6.102 1.903 0.050
v 6.102 1.903 1.536
v 6.102 0.652 1.328
v 6.102 0.241 2.736
v 6.102 -0.705 1.251
v 6.102 0.241 1.665
v 6.102 -0.705 1.251
v 6.102 0.241 2.736
v 6.102 -1.389 2.736
v 6.102 -0.705 1.251
v 6.102 -1.389 2.736
v 6.102 -1.382 1.655
v 6.102 -0.705 1.251
v 6.102 -1.382 1.655
v 6.102 -2.090 1.231
v 6.102 -0.705 1.251
v 6.102 -2.086 0.050
v 6.102 -0.688 0.050
v 6.102 -2.086 0.050
v 6.102 -0.705 1.251
v 6.102 -2.090 1.231
v 6.102 -2.974 2.736
v 6.102 -2.090 1.231
v 6.102 -1.382 1.655
v 6.102 -1.382 1.655
v 6.102 -1.389 2.736
v 6.102 -2.974 2.736
v 6.102 -2.090 1.231
v 6.102 -2.974 2.736
v 6.102 -2.974 1.634
v 6.102 -2.974 2.736
v 6.102 -3.483 1.262
v 6.102 -2.974 1.634
v 6.102 -3.483 1.262
v 6.102 -2.974 2.736
v 6.102 -4.565 2.736
v 6.102 -3.483 1.262
v 6.102 -4.565 2.736
v 6.102 -4.560 1.588
v 6.102 -2.090 1.231
v 6.102 -2.974 1.634
v 6.102 -3.483 1.262
v 6.102 -2.090 1.231
v 6.102 -3.478 0.050
v 6.102 -2.086 0.050
v 6.102 -3.478 0.050
v 6.102 -2.090 1.231
v 6.102 -3.483 1.262
v 6.102 -4.845 1.334
v 6.102 -4.560 1.588
v 6.102 -4.565 2.736
v 6.102 -4.845 1.334
v 6.102 -6.160 2.736
v 6.102 -6.160 1.475
v 6.102 -6.160 2.736
v 6.102 -4.845 1.334
v 6.102 -4.565 2.736
v 6.102 -3.483 1.262
v 6.102 -4.560 1.588
v 6.102 -4.845 1.334
v 6.102 -3.483 1.262
v 6.102 -4.829 0.050
v 6.102 -3.478 0.050
v 6.102 -4.829 0.050
v 6.102 -3.483 1.262
v 6.102 -4.845 1.334
v 6.102 -4.845 1.334
v 6.102 -6.160 1.475
v 6.102 -6.160 0.050
v 6.102 -6.160 0.050
v 6.102 -4.829 0.050
v 6.102 -4.845 1.334
v 1.825 -6.160 1.349
v 2.032 -6.160 1.531
v 2.031 -6.160 2.736
v 1.825 -6.160 1.349
v 0.571 -6.160 2.736
v 0.571 -6.160 1.459
v 0.571 -6.160 2.736
v 1.825 -6.160 1.349
v 2.031 -6.160 2.736
v 2.032 -6.160 1.531
v 3.176 -6.160 1.287
v 3.448 -6.160 1.507
v 2.032 -6.160 1.531
v 3.469 -6.160 2.736
v 2.031 -6.160 2.736
v 3.469 -6.160 2.736
v 2.032 -6.160 1.531
v 3.448 -6.160 1.507
v 1.825 -6.160 1.349
v 0.571 -6.160 1.459
v 0.571 -6.160 0.050
v 0.571 -6.160 0.050
v 1.836 -6.160 0.050
v 1.825 -6.160 1.349
v 3.176 -6.160 1.287
v 2.032 -6.160 1.531
v 1.825 -6.160 1.349
v 3.176 -6.160 1.287
v 1.836 -6.160 0.050
v 3.155 -6.160 0.050
v 1.836 -6.160 0.050
v 3.176 -6.160 1.287
v 1.825 -6.160 1.349
v 4.813 -6.160 1.438
v 6.102 -6.160 1.319
v 6.102 -6.160 2.736
v 6.102 -6.160 2.736
v 4.810 -6.160 2.736
v 4.813 -6.160 1.438
v 4.601 -6.160 1.250
v 3.448 -6.160 1.507
v 3.176 -6.160 1.287
v 4.601 -6.160 1.250
v 3.155 -6.160 0.050
v 4.600 -6.160 0.050
v 3.155 -6.160 0.050
v 4.601 -6.160 1.250
v 3.176 -6.160 1.287
v 3.448 -6.160 1.507
v 4.601 -6.160 1.250
v 4.813 -6.160 1.438
v 3.448 -6.160 1.507
v 4.810 -6.160 2.736
v 3.469 -6.160 2.736
v 4.810 -6.160 2.736
v 3.448 -6.160 1.507
v 4.813 -6.160 1.438
v 4.813 -6.160 1.438
v 4.601 -6.160 1.250
v 4.600 -6.160 0.050
v 4.813 -6.160 1.438
v 6.102 -6.160 0.050
v 6.102 -6.160 1.319
v 6.102 -6.160 0.050
v 4.813 -6.160 1.438
v 4.600 -6.160 0.050
v -4.416 2.926 1.100
v -4.510 1.985 1.100
v -6.251 2.156 1.100
v -6.251 2.156 1.100
v -6.251 3.094 1.100
v -4.416 2.926 1.100
v -4.510 1.985 1.000
v -4.416 2.926 0.000
v -4.510 1.985 0.000
v -4.510 1.985 1.000
v -4.510 1.985 1.100
v -4.416 2.926 1.100
v -4.416 2.926 0.000
v -4.510 1.985 1.000
v -4.416 2.926 1.100
v -6.251 2.156 -0.000
v -4.510 1.985 1.000
v -4.510 1.985 0.000
v -4.510 1.985 1.000
v -6.251 2.156 -0.000
v -6.251 2.156 1.100
v -4.510 1.985 1.000
v -6.251 2.156 1.100
v -4.510 1.985 1.100
v -4.522 -3.053 0.000
v -6.251 -3.053 1.100
v -6.251 -3.053 -0.000
v -6.251 -3.053 1.100
v -4.522 -3.053 0.000
v -4.522 -3.053 1.100
v -5.379 -3.053 1.100
v -4.522 -3.053 1.100
v -4.522 -3.648 1.100
v -4.522 -3.648 1.100
v -5.381 -3.648 1.100
v -5.379 -3.053 1.100
v -5.381 -3.648 1.100
v -6.251 -3.648 1.100
v -6.251 -3.053 1.100
v -6.251 -3.053 1.100
v -5.379 -3.053 1.100
v -5.381 -3.648 1.100
v -4.522 -3.648 1.100
v -4.522 -3.053 0.000
v -4.522 -3.648 -0.000
v -4.522 -3.053 0.000
v -4.522 -3.648 1.100
v -4.522 -3.053 1.100
v 0.000 2.523 1.100
v -0.000 1.598 1.100
v -1.741 1.715 1.100
v -1.741 1.715 1.100
v -1.677 2.676 1.100
v 0.000 2.523 1.100
v -1.741 1.715 1.000
v 0.000 1.598 1.100
v 0.000 1.598 0.000
v 0.000 1.598 0.000
v -1.741 1.715 0.000
v -1.741 1.715 1.000
v 0.000 1.598 1.100
v -1.741 1.715 1.000
v -1.741 1.715 1.100
v -1.741 1.715 1.000
v -1.677 2.676 1.100
v -1.741 1.715 1.100
v -1.741 1.715 1.000
v -1.741 1.715 -0.000
v -1.677 2.676 -0.000
v -1.677 2.676 1.100
v -1.741 1.715 1.000
v -1.677 2.676 -0.000
v -5.442 1.479 1.000
v -5.442 1.479 0.000
v -5.442 -0.091 0.000
v -5.442 -0.091 0.000
v -5.442 -0.091 1.000
v -5.442 1.479 1.000
v -3.556 2.559 1.000
v -2.390 2.524 0.000
v -3.556 2.559 -0.000
v -2.390 2.524 0.000
v -3.556 2.559 1.000
v -2.390 2.524 1.000
v -1.741 1.715 0.000
v -2.390 2.524 1.000
v -1.741 1.715 1.000
v -2.390 2.524 1.000
v -1.741 1.715 0.000
v -2.390 2.524 0.000
v -5.442 1.479 1.000
v -4.510 1.985 1.000
v -4.510 1.985 -0.000
v -4.510 1.985 -0.000
v -5.442 1.479 -0.000
v -5.442 1.479 1.000
v -2.803 -3.648 0.000
v -2.803 -2.798 1.100
v -2.803 -3.648 1.100
v -2.803 -2.798 1.100
v -2.803 -3.648 0.000
v -2.803 -2.798 0.000
v -1.863 -2.798 -0.000
v -2.803 -2.798 1.100
v -2.803 -2.798 -0.000
v -2.803 -2.798 1.100
v -1.863 -2.798 -0.000
v -1.858 -2.798 1.100
v -1.858 -2.798 1.100
v -0.913 -2.798 0.000
v -0.913 -2.798 1.100
v -0.913 -2.798 0.000
v -1.858 -2.798 1.100
v -1.863 -2.798 -0.000
v -0.913 -2.798 1.100
v -0.913 -1.983 1.100
v 0.000 -1.983 1.100
v -0.913 -2.798 1.100
v -0.000 -3.648 1.100
v -1.149 -3.648 1.100
v -1.149 -3.648 1.100
v -1.355 -2.798 1.100
v -0.913 -2.798 1.100
v -0.000 -3.648 1.100
v -0.913 -2.798 1.100
v 0.000 -1.983 1.100
v -1.355 -2.798 1.100
v -2.803 -3.648 1.100
v -2.803 -2.798 1.100
v -2.803 -3.648 1.100
v -1.355 -2.798 1.100
v -1.149 -3.648 1.100
v -0.913 -2.798 0.000
v -0.913 -1.983 1.100
v -0.913 -2.798 1.100
v -0.913 -1.983 1.100
v -0.913 -2.798 0.000
v -0.913 -1.983 -0.000
v 0.000 -1.983 -0.000
v -0.913 -1.983 1.100
v -0.913 -1.983 -0.000
v -0.913 -1.983 1.100
v 0.000 -1.983 -0.000
v 0.000 -1.983 1.100
v -0.913 -1.983 0.000
v -1.201 -0.760 0.000
v 0.000 -0.758 0.000
v 0.000 -0.758 0.000
v 0.000 -1.983 0.000
v -0.913 -1.983 0.000
v -0.913 -1.983 0.000
v -0.913 -2.326 0.000
v -1.556 -1.403 0.000
v -1.201 -0.760 0.000
v -0.913 -1.983 0.000
v -1.556 -1.403 0.000
v -0.913 -2.326 0.000
v -2.315 -1.467 0.000
v -1.556 -1.403 0.000
v -2.682 -2.798 0.000
v -0.913 -2.326 0.000
v -0.913 -2.798 0.000
v -2.315 -1.467 0.000
v -2.682 -2.798 0.000
v -2.855 -2.371 0.000
v -2.682 -2.798 0.000
v -2.315 -1.467 0.000
v -0.913 -2.326 0.000
v -1.201 -0.760 0.000
v -1.550 0.095 0.000
v -1.229 0.484 0.000
v -1.229 0.484 0.000
v 0.000 0.451 0.000
v 0.000 -0.012 0.000
v 0.000 -0.012 0.000
v 0.000 -0.758 0.000
v -1.201 -0.760 0.000
v -1.201 -0.760 0.000
v -1.229 0.484 0.000
v 0.000 -0.012 0.000
v -1.201 -0.760 0.000
v -1.556 -1.403 0.000
v -2.315 -1.467 0.000
v -1.201 -0.760 0.000
v -2.868 -0.614 0.000
v -2.339 0.128 0.000
v -2.339 0.128 0.000
v -1.550 0.095 0.000
v -1.201 -0.760 0.000
v -2.868 -0.614 0.000
v -1.201 -0.760 0.000
v -2.315 -1.467 0.000
v -1.229 0.484 0.000
v -1.401 1.692 0.000
v 0.000 1.598 0.000
v 0.000 1.598 0.000
v 0.000 0.451 0.000
v -1.229 0.484 0.000
v -3.556 2.559 0.000
v -3.326 1.086 0.000
v -3.758 2.438 0.000
v -3.326 1.086 0.000
v -3.556 2.559 0.000
v -2.390 2.524 0.000
v -2.390 2.524 0.000
v -1.877 1.884 0.000
v -2.816 0.987 0.000
v -3.326 1.086 0.000
v -2.390 2.524 0.000
v -2.816 0.987 0.000
v -2.803 -2.798 0.000
v -3.791 -2.059 0.000
v -2.855 -2.371 0.000
v -2.855 -2.371 0.000
v -2.682 -2.798 0.000
v -2.803 -2.798 0.000
v -4.522 -3.053 0.000
v -2.803 -3.648 0.000
v -4.522 -3.648 0.000
v -4.522 -3.053 0.000
v -4.736 -3.053 0.000
v -4.552 -2.487 0.000
v -4.522 -3.053 0.000
v -3.791 -2.059 0.000
v -2.803 -2.798 0.000
v -2.803 -3.648 0.000
v -4.522 -3.053 0.000
v -2.803 -2.798 0.000
v -3.791 -2.059 0.000
v -4.522 -3.053 0.000
v -4.552 -2.487 0.000
v -2.315 -1.467 0.000
v -2.855 -2.371 0.000
v -3.791 -2.059 0.000
v -2.868 -0.614 0.000
v -3.875 -0.728 0.000
v -3.765 -0.627 0.000
v -3.791 -2.059 0.000
v -2.868 -0.614 0.000
v -2.315 -1.467 0.000
v -2.868 -0.614 0.000
v -3.791 -2.059 0.000
v -3.875 -0.728 0.000
v -1.229 0.484 0.000
v -2.339 0.128 0.000
v -2.816 0.987 0.000
v -2.816 0.987 0.000
v -1.877 1.884 0.000
v -1.741 1.715 0.000
v -1.741 1.715 0.000
v -1.401 1.692 0.000
v -1.229 0.484 0.000
v -2.339 0.128 0.000
v -1.229 0.484 0.000
v -1.550 0.095 0.000
v -2.816 0.987 0.000
v -1.741 1.715 0.000
v -1.229 0.484 0.000
v -4.799 0.861 0.000
v -4.857 -0.751 0.000
v -5.413 0.314 0.000
v -4.857 -0.751 0.000
v -4.799 0.861 0.000
v -3.925 0.639 0.000
v -4.857 -0.751 0.000
v -3.765 -0.627 0.000
v -3.875 -0.728 0.000
v -3.765 -0.627 0.000
v -4.857 -0.751 0.000
v -3.925 0.639 0.000
v -3.791 -2.059 0.000
v -4.552 -2.487 0.000
v -5.383 -1.441 0.000
v -3.791 -2.059 0.000
v -4.857 -0.751 0.000
v -3.875 -0.728 0.000
v -4.857 -0.751 0.000
v -3.791 -2.059 0.000
v -5.383 -1.441 0.000
v -2.868 -0.614 0.000
v -3.765 -0.627 0.000
v -3.925 0.639 0.000
v -3.925 0.639 0.000
v -3.326 1.086 0.000
v -2.816 0.987 0.000
v -3.925 0.639 0.000
v -2.339 0.128 0.000
v -2.868 -0.614 0.000
v -2.339 0.128 0.000
v -3.925 0.639 0.000
v -2.816 0.987 0.000
v -6.251 -3.053 0.000
v -4.552 -2.487 0.000
v -4.736 -3.053 0.000
v -5.383 -1.441 0.000
v -6.251 -3.053 0.000
v -6.251 -1.523 0.000
v -4.552 -2.487 0.000
v -6.251 -3.053 0.000
v -5.383 -1.441 0.000
v -5.413 0.314 0.000
v -4.857 -0.751 0.000
v -5.383 -1.441 0.000
v -5.383 -1.441 0.000
v -6.251 -1.523 0.000
v -6.251 0.354 0.000
v -6.251 0.354 0.000
v -5.413 0.314 0.000
v -5.383 -1.441 0.000
v -4.510 1.985 0.000
v -3.925 0.639 0.000
v -4.799 0.861 0.000
v -4.799 0.861 0.000
v -4.980 2.031 0.000
v -4.510 1.985 0.000
v -4.510 1.985 0.000
v -3.758 2.438 0.000
v -3.326 1.086 0.000
v -3.925 0.639 0.000
v -4.510 1.985 0.000
v -3.326 1.086 0.000
v -6.251 2.156 0.000
v -5.413 0.314 0.000
v -6.251 0.354 0.000
v -4.799 0.861 0.000
v -6.251 2.156 0.000
v -4.980 2.031 0.000
v -6.251 2.156 0.000
v -4.799 0.861 0.000
v -5.413 0.314 0.000
v -4.510 1.985 1.000
v -3.556 2.559 0.000
v -4.510 1.985 -0.000
v -3.556 2.559 0.000
v -4.510 1.985 1.000
v -3.556 2.559 1.000
v 0.571 -1.488 1.109
v 0.571 -1.488 2.193
v 0.000 -1.488 2.193
v 0.000 -1.488 2.193
v 0.000 -1.488 1.108
v 0.571 -1.488 1.109
v 0.000 -1.488 1.108
v 0.000 -1.488 -0.000
v 0.571 -1.488 0.050
v 0.571 -1.488 0.050
v 0.571 -1.488 1.109
v 0.000 -1.488 1.108
v 1.306 -1.292 1.118
v 0.571 -0.012 0.050
v 1.306 -1.292 0.050
v 0.571 -0.012 0.050
v 1.306 -1.292 1.118
v 0.571 -0.012 1.120
v 0.571 -0.012 1.120
v 1.306 -1.292 2.195
v 0.571 -0.012 2.195
v 1.306 -1.292 2.195
v 0.571 -0.012 1.120
v 1.306 -1.292 1.118
v 4.878 -4.866 0.050
v 5.179 -4.460 0.050
v 6.102 -4.399 0.050
v 4.878 -4.866 0.050
v 6.102 -6.160 0.050
v 5.308 -6.160 0.050
v 6.102 -6.160 0.050
v 4.878 -4.866 0.050
v 6.102 -4.399 0.050
v 3.641 -3.709 0.050
v 4.031 -5.027 0.050
v 3.481 -4.579 0.050
v 4.031 -5.027 0.050
v 3.641 -3.709 0.050
v 4.652 -3.551 0.050
v 4.652 -3.551 0.050
v 5.179 -4.460 0.050
v 4.878 -4.866 0.050
v 4.031 -5.027 0.050
v 4.652 -3.551 0.050
v 4.878 -4.866 0.050
v 4.031 -5.027 0.050
v 4.878 -4.866 0.050
v 5.308 -6.160 0.050
v 5.308 -6.160 0.050
v 3.864 -6.160 0.050
v 4.031 -5.027 0.050
v 6.102 -2.818 0.050
v 4.652 -3.551 0.050
v 4.981 -2.864 0.050
v 4.652 -3.551 0.050
v 6.102 -2.818 0.050
v 6.102 -4.399 0.050
v 4.652 -3.551 0.050
v 6.102 -4.399 0.050
v 5.179 -4.460 0.050
v 4.652 -3.551 0.050
v 3.641 -3.709 0.050
v 3.264 -3.269 0.050
v 3.264 -3.269 0.050
v 3.483 -2.255 0.050
v 4.556 -2.214 0.050
v 4.556 -2.214 0.050
v 4.981 -2.864 0.050
v 4.652 -3.551 0.050
v 4.652 -3.551 0.050
v 3.264 -3.269 0.050
v 4.556 -2.214 0.050
v 6.102 -1.317 0.050
v 4.615 -0.844 0.050
v 5.015 0.291 0.050
v 5.015 0.291 0.050
v 6.102 0.314 0.050
v 6.102 -1.317 0.050
v 4.615 -0.844 0.050
v 6.102 -1.317 0.050
v 4.926 -1.289 0.050
v 1.663 -4.717 0.050
v 2.026 -4.500 0.050
v 2.808 -4.844 0.050
v 2.808 -4.844 0.050
v 2.774 -6.160 0.050
v 1.658 -6.160 0.050
v 1.658 -6.160 0.050
v 1.663 -4.717 0.050
v 2.808 -4.844 0.050
v 3.864 -6.160 0.050
v 2.774 -6.160 0.050
v 2.808 -4.844 0.050
v 2.808 -4.844 0.050
v 3.481 -4.579 0.050
v 4.031 -5.027 0.050
v 4.031 -5.027 0.050
v 3.864 -6.160 0.050
v 2.808 -4.844 0.050
v 2.808 -4.844 0.050
v 2.026 -4.500 0.050
v 2.115 -3.408 0.050
v 2.808 -4.844 0.050
v 3.264 -3.269 0.050
v 3.641 -3.709 0.050
v 3.641 -3.709 0.050
v 3.481 -4.579 0.050
v 2.808 -4.844 0.050
v 3.264 -3.269 0.050
v 2.808 -4.844 0.050
v 2.115 -3.408 0.050
v 6.102 -1.317 0.050
v 4.556 -2.214 0.050
v 4.926 -1.289 0.050
v 4.981 -2.864 0.050
v 6.102 -1.317 0.050
v 6.102 -2.818 0.050
v 4.556 -2.214 0.050
v 6.102 -1.317 0.050
v 4.981 -2.864 0.050
v 4.556 -2.214 0.050
v 3.483 -2.255 0.050
v 3.208 -1.915 0.050
v 3.208 -1.915 0.050
v 3.467 -0.738 0.050
v 4.615 -0.844 0.050
v 4.615 -0.844 0.050
v 4.926 -1.289 0.050
v 4.556 -2.214 0.050
v 4.556 -2.214 0.050
v 3.208 -1.915 0.050
v 4.615 -0.844 0.050
v 1.663 -4.717 0.050
v 1.658 -6.160 0.050
v 0.571 -6.160 0.050
v 0.571 -6.160 0.050
v 0.571 -4.561 0.050
v 1.663 -4.717 0.050
v 1.663 -4.717 0.050
v 0.571 -4.561 0.050
v 0.571 -3.208 0.050
v 1.663 -4.717 0.050
v 1.872 -3.154 0.050
v 2.115 -3.408 0.050
v 2.115 -3.408 0.050
v 2.026 -4.500 0.050
v 1.663 -4.717 0.050
v 1.872 -3.154 0.050
v 1.663 -4.717 0.050
v 0.571 -3.208 0.050
v 3.264 -3.269 0.050
v 2.115 -3.408 0.050
v 1.872 -3.154 0.050
v 3.264 -3.269 0.050
v 2.037 -1.934 0.050
v 3.208 -1.915 0.050
v 3.208 -1.915 0.050
v 3.483 -2.255 0.050
v 3.264 -3.269 0.050
v 2.037 -1.934 0.050
v 3.264 -3.269 0.050
v 1.872 -3.154 0.050
v 4.615 -0.844 0.050
v 3.467 -0.738 0.050
v 3.361 -0.596 0.050
v 4.615 -0.844 0.050
v 3.570 0.609 0.050
v 4.615 0.709 0.050
v 4.615 0.709 0.050
v 5.015 0.291 0.050
v 4.615 -0.844 0.050
v 3.570 0.609 0.050
v 4.615 -0.844 0.050
v 3.361 -0.596 0.050
v 1.857 -1.734 0.050
v 2.037 -1.934 0.050
v 1.872 -3.154 0.050
v 1.872 -3.154 0.050
v 0.571 -3.208 0.050
v 0.571 -1.741 0.050
v 0.571 -1.741 0.050
v 1.857 -1.734 0.050
v 1.872 -3.154 0.050
v 3.208 -1.915 0.050
v 2.037 -1.934 0.050
v 1.857 -1.734 0.050
v 3.208 -1.915 0.050
v 2.030 -0.446 0.050
v 3.361 -0.596 0.050
v 3.361 -0.596 0.050
v 3.467 -0.738 0.050
v 3.208 -1.915 0.050
v 2.030 -0.446 0.050
v 3.208 -1.915 0.050
v 1.857 -1.734 0.050
v 0.571 -1.488 0.050
v 2.030 -0.446 0.050
v 1.857 -1.734 0.050
v 1.857 -1.734 0.050
v 0.571 -1.741 0.050
v 0.571 -1.488 0.050
v 0.571 -1.488 0.050
v 0.571 -0.307 0.050
v 1.979 -0.380 0.050
v 2.030 -0.446 0.050
v 0.571 -1.488 0.050
v 1.979 -0.380 0.050
v 6.102 1.903 0.050
v 4.615 0.709 0.050
v 4.863 2.017 0.050
v 5.015 0.291 0.050
v 6.102 1.903 0.050
v 6.102 0.314 0.050
v 6.102 1.903 0.050
v 5.015 0.291 0.050
v 4.615 0.709 0.050
v 4.615 0.709 0.050
v 3.570 0.609 0.050
v 3.255 0.928 0.050
v 4.615 0.709 0.050
v 3.384 2.153 0.050
v 4.863 2.017 0.050
v 3.384 2.153 0.050
v 4.615 0.709 0.050
v 3.255 0.928 0.050
v 2.030 -0.446 0.050
v 1.979 -0.380 0.050
v 2.114 0.778 0.050
v 2.114 0.778 0.050
v 3.255 0.928 0.050
v 3.570 0.609 0.050
v 2.114 0.778 0.050
v 3.361 -0.596 0.050
v 2.030 -0.446 0.050
v 3.361 -0.596 0.050
v 2.114 0.778 0.050
v 3.570 0.609 0.050
v 1.855 1.054 0.050
v 0.571 0.966 0.050
v 0.571 2.411 0.050
v 0.571 2.411 0.050
v 1.988 2.281 0.050
v 1.855 1.054 0.050
v 3.255 0.928 0.050
v 2.114 0.778 0.050
v 1.855 1.054 0.050
v 3.255 0.928 0.050
v 1.988 2.281 0.050
v 3.384 2.153 0.050
v 1.988 2.281 0.050
v 3.255 0.928 0.050
v 1.855 1.054 0.050
v 1.979 -0.380 0.050
v 0.571 -0.307 0.050
v 0.571 -0.012 0.050
v 0.571 -0.012 0.050
v 0.571 0.966 0.050
v 1.855 1.054 0.050
v 0.571 -0.012 0.050
v 2.114 0.778 0.050
v 1.979 -0.380 0.050
v 2.114 0.778 0.050
v 0.571 -0.012 0.050
v 1.855 1.054 0.050
v -2.390 2.524 0.000
v -1.677 2.676 0.000
v -1.741 1.715 0.000
v -2.390 2.524 0.000
v -2.551 2.529 0.000
v -2.491 2.750 0.000
v -1.677 2.676 0.000
v -2.390 2.524 0.000
v -2.491 2.750 0.000
v -3.589 2.539 0.000
v -4.510 1.985 0.000
v -4.416 2.926 0.000
v -4.416 2.926 0.000
v -3.630 2.854 0.000
v -3.589 2.539 0.000
v -3.556 2.559 0.000
v -3.589 2.539 0.000
v -3.630 2.854 0.000
v -3.556 2.559 0.000
v -2.491 2.750 0.000
v -2.551 2.529 0.000
v -2.491 2.750 0.000
v -3.556 2.559 0.000
v -3.630 2.854 0.000
v 0.571 -1.488 0.050
v 0.571 -2.947 1.456
v 0.571 -1.488 1.322
v 0.571 -3.113 1.284
v 0.571 -1.488 0.050
v 0.571 -3.119 0.050
v 0.571 -1.488 0.050
v 0.571 -3.113 1.284
v 0.571 -2.947 1.456
v 0.571 -1.508 2.736
v 0.571 0.499 2.736
v 0.571 -0.012 2.195
v 0.571 -0.012 2.195
v 0.571 -1.367 2.193
v 0.571 -1.508 2.736
v 0.571 -4.672 1.346
v 0.571 -4.520 1.506
v 0.571 -3.113 1.284
v 0.571 -3.113 1.284
v 0.571 -3.119 0.050
v 0.571 -4.674 0.050
v 0.571 -4.674 0.050
v 0.571 -4.672 1.346
v 0.571 -3.113 1.284
v 0.571 -2.947 1.456
v 0.571 -3.113 1.284
v 0.571 -4.520 1.506
v 0.571 -4.520 1.506
v 0.571 -4.516 2.736
v 0.571 -2.950 2.736
v 0.571 -2.950 2.736
v 0.571 -2.947 1.456
v 0.571 -4.520 1.506
v 0.571 -1.488 2.193
v 0.571 -2.950 2.736
v 0.571 -1.508 2.736
v 0.571 -1.508 2.736
v 0.571 -1.367 2.193
v 0.571 -1.488 2.193
v 0.571 -1.488 2.193
v 0.571 -1.488 1.322
v 0.571 -2.947 1.456
v 0.571 -2.950 2.736
v 0.571 -1.488 2.193
v 0.571 -2.947 1.456
v 0.571 -4.672 1.346
v 0.571 -4.674 0.050
v 0.571 -6.160 0.050
v 0.571 -6.160 0.050
v 0.571 -6.160 1.456
v 0.571 -4.672 1.346
v 0.571 -6.160 2.736
v 0.571 -4.672 1.346
v 0.571 -6.160 1.456
v 0.571 -4.672 1.346
v 0.571 -6.160 2.736
v 0.571 -4.516 2.736
v 0.571 -4.672 1.346
v 0.571 -4.516 2.736
v 0.571 -4.520 1.506
v 0.571 2.411 0.050
v 0.571 1.292 1.409
v 0.571 2.411 1.381
v 0.571 1.177 1.306
v 0.571 2.411 0.050
v 0.571 1.204 0.050
v 0.571 2.411 0.050
v 0.571 1.177 1.306
v 0.571 1.292 1.409
v 0.571 1.177 1.306
v 0.571 1.204 0.050
v 0.571 -0.012 0.050
v 0.571 -0.012 0.050
v 0.571 -0.012 1.382
v 0.571 1.177 1.306
v 0.571 1.292 1.409
v 0.571 1.198 2.736
v 0.571 2.411 2.736
v 0.571 2.411 2.736
v 0.571 2.411 1.381
v 0.571 1.292 1.409
v 0.571 -0.012 2.195
v 0.571 1.177 1.306
v 0.571 -0.012 1.382
v 0.571 1.292 1.409
v 0.571 -0.012 2.195
v 0.571 0.499 2.736
v 0.571 0.499 2.736
v 0.571 1.198 2.736
v 0.571 1.292 1.409
v 0.571 -0.012 2.195
v 0.571 1.292 1.409
v 0.571 1.177 1.306
v 0.000 -0.012 0.000
v 0.571 -1.488 0.050
v 0.000 -1.488 -0.000
v 0.571 -1.488 0.050
v 0.000 -0.012 0.000
v 0.571 -0.012 0.050
v -0.000 -0.012 1.108
v 0.571 -0.012 0.050
v -0.000 -0.012 0.000
v 0.571 -0.012 0.050
v -0.000 -0.012 1.108
v 0.571 -0.012 1.108
v -0.000 -0.012 1.108
v -0.000 -0.012 2.195
v 0.571 -0.012 2.195
v 0.571 -0.012 2.195
v 0.571 -0.012 1.108
v -0.000 -0.012 1.108
v 0.571 -0.012 1.125
v 0.571 -0.012 2.195
v 1.306 -1.292 2.195
v 1.306 -1.292 2.195
v 1.306 -1.292 1.125
v 0.571 -0.012 1.125
v 1.306 -1.292 1.125
v 1.306 -1.292 0.050
v 0.571 -0.012 0.050
v 0.571 -0.012 0.050
v 0.571 -0.012 1.125
v 1.306 -1.292 1.125
v -5.442 -0.091 0.000
v -5.442 1.479 0.000
v -5.442 1.479 1.000
v -5.442 1.479 1.000
v -5.442 -0.091 1.000
v -5.442 -0.091 0.000
v -3.556 2.559 0.000
v -2.390 2.524 0.000
v -2.390 2.524 1.000
v -2.390 2.524 1.000
v -3.556 2.559 1.000
v -3.556 2.559 0.000
v -1.741 1.715 1.000
v -2.390 2.524 1.000
v -2.390 2.524 0.000
v -2.390 2.524 0.000
v -1.741 1.715 0.000
v -1.741 1.715 1.000
v -4.510 1.985 0.000
v -4.510 1.985 1.000
v -5.442 1.479 1.000
v -5.442 1.479 1.000
v -5.442 1.479 0.000
v -4.510 1.985 0.000
v -3.556 2.559 1.000
v -4.510 1.985 0.000
v -3.556 2.559 0.000
v -4.510 1.985 0.000
v -3.556 2.559 1.000
v -4.510 1.985 1.000

usemtl Patch_1_Mat_CR1_paintedConcrete
f 3 2 1
f 6 5 4
f 9 8 7

usemtl Patch_2_Mat_CR1_paintedConcrete
f 12 11 10
f 15 14 13
f 18 17 16

usemtl Patch_3_Mat_CR1_paintedConcrete
f 21 20 19
f 24 23 22
f 27 26 25
f 30 29 28

usemtl Patch_4_Mat_CR1_paintedConcrete
f 33 32 31
f 36 35 34
f 39 38 37

usemtl Patch_5_Mat_CR1_paintedConcrete
f 42 41 40
f 45 44 43
f 48 47 46
f 51 50 49

usemtl Patch_6_Mat_CR1_paintedConcrete
f 54 53 52
f 57 56 55
f 60 59 58
f 63 62 61

usemtl Patch_7_Mat_CR1_paintedConcrete
f 66 65 64
f 69 68 67
f 72 71 70

usemtl Patch_8_Mat_CR1_paintedConcrete
f 75 74 73
f 78 77 76
f 81 80 79

usemtl Patch_9_Mat_CR1_paintedConcrete
f 84 83 82
f 87 86 85
f 90 89 88

usemtl Patch_10_Mat_CR1_paintedConcrete
f 93 92 91
f 96 95 94
f 99 98 97

usemtl Patch_11_Mat_CR1_paintedConcrete
f 102 101 100
f 105 104 103
f 108 107 106
f 111 110 109

usemtl Patch_12_Mat_CR1_paintedConcrete
f 114 113 112
f 117 116 115
f 120 119 118
f 123 122 121
f 126 125 124

usemtl Patch_13_Mat_CR1_paintedConcrete
f 129 128 127
f 132 131 130
f 135 134 133
f 138 137 136

usemtl Patch_14_Mat_CR1_paintedConcrete
f 141 140 139
f 144 143 142
f 147 146 145
f 150 149 148

usemtl Patch_15_Mat_CR1_paintedConcrete
f 153 152 151
f 156 155 154
f 159 158 157

usemtl Patch_16_Mat_CR1_paintedConcrete
f 162 161 160
f 165 164 163
f 168 167 166

usemtl Patch_17_Mat_CR1_paintedConcrete
f 171 170 169
f 174 173 172
f 177 176 175

usemtl Patch_18_Mat_CR1_paintedConcrete
f 180 179 178
f 183 182 181
f 186 185 184

usemtl Patch_19_Mat_CR1_paintedConcrete
f 189 188 187
f 192 191 190
f 195 194 193
f 198 197 196

usemtl Patch_20_Mat_CR1_paintedConcrete
f 201 200 199
f 204 203 202
f 207 206 205
f 210 209 208

usemtl Patch_21_Mat_CR1_paintedConcrete
f 213 212 211
f 216 215 214
f 219 218 217

usemtl Patch_22_Mat_CR1_paintedConcrete
f 222 221 220
f 225 224 223

usemtl Patch_23_Mat_CR1_paintedConcrete
f 228 227 226
f 231 230 229
f 234 233 232

usemtl Patch_24_Mat_CR1_paintedConcrete
f 237 236 235
f 240 239 238
f 243 242 241

usemtl Patch_25_Mat_CR1_paintedConcrete
f 246 245 244
f 249 248 247

usemtl Patch_26_Mat_CR1_paintedConcrete
f 252 251 250
f 255 254 253
f 258 257 256
f 261 260 259
f 264 263 262

usemtl Patch_27_Mat_CR1_paintedConcrete
f 267 266 265
f 270 269 268
f 273 272 271
f 276 275 274
f 279 278 277

usemtl Patch_28_Mat_CR1_paintedConcrete
f 282 281 280
f 285 284 283

usemtl Patch_29_Mat_CR1_paintedConcrete
f 288 287 286
f 291 290 289

usemtl Patch_30_Mat_CR1_paintedConcrete
f 294 293 292
f 297 296 295

usemtl Patch_31_Mat_CR1_paintedConcrete
f 300 299 298
f 303 302 301
f 306 305 304
f 309 308 307

usemtl Patch_32_Mat_CR1_concrete
f 312 311 310
f 315 314 313
f 318 317 316

usemtl Patch_33_Mat_CR1_concrete
f 321 320 319
f 324 323 322
f 327 326 325

usemtl Patch_34_Mat_CR1_concrete
f 330 329 328
f 333 332 331

usemtl Patch_35_Mat_CR1_concrete
f 336 335 334
f 339 338 337
f 342 341 340

usemtl Patch_36_Mat_CR1_concrete
f 345 344 343
f 348 347 346
f 351 350 349

usemtl Patch_37_Mat_CR1_concrete
f 354 353 352
f 357 356 355
f 360 359 358
f 363 362 361

usemtl Patch_38_Mat_CR1_concrete
f 366 365 364
f 369 368 367
f 372 371 370
f 375 374 373

usemtl Patch_39_Mat_CR1_concrete
f 378 377 376
f 381 380 379
f 384 383 382
f 387 386 385

usemtl Patch_40_Mat_CR1_concrete
f 390 389 388
f 393 392 391
f 396 395 394
f 399 398 397

usemtl Patch_41_Mat_CR1_concrete
f 402 401 400
f 405 404 403
f 408 407 406

usemtl Patch_42_Mat_CR1_concrete
f 411 410 409
f 414 413 412
f 417 416 415
f 420 419 418

usemtl Patch_43_Mat_CR1_concrete
f 423 422 421
f 426 425 424

usemtl Patch_44_Mat_CR1_concrete
f 429 428 427
f 432 431 430
f 435 434 433

usemtl Patch_45_Mat_CR1_concrete
f 438 437 436
f 441 440 439
f 444 443 442

usemtl Patch_46_Mat_CR1_concrete
f 447 446 445
f 450 449 448
f 453 452 451

usemtl Patch_47_Mat_CR1_concrete
f 456 455 454
f 459 458 457
f 462 461 460
f 465 464 463

usemtl Patch_48_Mat_CR1_concrete
f 468 467 466
f 471 470 469
f 474 473 472
f 477 476 475

usemtl Patch_49_Mat_CR1_concrete
f 480 479 478
f 483 482 481
f 486 485 484
f 489 488 487

usemtl Patch_50_Mat_CR1_concrete
f 492 491 490
f 495 494 493
f 498 497 496

usemtl Patch_51_Mat_CR1_concrete
f 501 500 499
f 504 503 502

usemtl Patch_52_Mat_CR1_concrete
f 507 506 505
f 510 509 508
f 513 512 511

usemtl Patch_53_Mat_CR1_concrete
f 516 515 514
f 519 518 517
f 522 521 520
f 525 524 523

usemtl Patch_54_Mat_CR1_concrete
f 528 527 526
f 531 530 529
f 534 533 532
f 537 536 535

usemtl Patch_55_Mat_CR1_concrete
f 540 539 538
f 543 542 541
f 546 545 544

usemtl Patch_56_Mat_CR1_concrete
f 549 548 547
f 552 551 550

usemtl Patch_57_Mat_CR1_concrete
f 555 554 553
f 558 557 556
f 561 560 559

usemtl Patch_58_Mat_CR1_concrete
f 564 563 562
f 567 566 565

usemtl Patch_59_Mat_CR1_concrete
f 570 569 568
f 573 572 571
f 576 575 574
f 579 578 577

usemtl Patch_60_Mat_CR1_concrete
f 582 581 580
f 585 584 583
f 588 587 586

usemtl Patch_61_Mat_CR1_concrete
f 591 590 589
f 594 593 592
f 597 596 595
f 600 599 598

usemtl Patch_62_Mat_CR1_concrete
f 603 602 601
f 606 605 604

usemtl Patch_63_Mat_CR1_concrete
f 609 608 607
f 612 611 610

usemtl Patch_64_Mat_CR1_concrete
f 615 614 613
f 618 617 616
f 621 620 619

usemtl Patch_65_Mat_CR1_concrete
f 624 623 622
f 627 626 625
f 630 629 628
f 633 632 631

usemtl Patch_66_Mat_CR1_concrete
f 636 635 634
f 639 638 637
f 642 641 640
f 645 644 643

usemtl Patch_67_Mat_CR1_concrete
f 648 647 646
f 651 650 649
f 654 653 652
f 657 656 655
f 660 659 658

usemtl Patch_68_Mat_CR1_concrete
f 663 662 661
f 666 665 664
f 669 668 667

usemtl Patch_69_Mat_CR1_concrete
f 672 671 670
f 675 674 673
f 678 677 676

usemtl Patch_70_Mat_CR1_concrete
f 681 680 679
f 684 683 682
f 687 686 685
f 690 689 688

usemtl Patch_71_Mat_CR1_concrete
f 693 692 691
f 696 695 694
f 699 698 697
f 702 701 700

usemtl Patch_72_Mat_CR1_concrete
f 705 704 703
f 708 707 706
f 711 710 709
f 714 713 712

usemtl Patch_73_Mat_CR1_concrete
f 717 716 715
f 720 719 718
f 723 722 721

usemtl Patch_74_Mat_CR1_concrete
f 726 725 724
f 729 728 727
f 732 731 730
f 735 734 733

usemtl Patch_75_Mat_CR1_paintedConcrete
f 738 737 736
f 741 740 739

usemtl Patch_76_Mat_CR1_paintedConcrete
f 744 743 742
f 747 746 745
f 750 749 748

usemtl Patch_77_Mat_CR1_paintedConcrete
f 753 752 751
f 756 755 754
f 759 758 757

usemtl Patch_78_Mat_CR1_paintedConcrete
f 762 761 760
f 765 764 763
f 768 767 766

usemtl Patch_79_Mat_CR1_paintedConcrete
f 771 770 769
f 774 773 772
f 777 776 775

usemtl Patch_80_Mat_CR1_paintedConcrete
f 780 779 778
f 783 782 781
f 786 785 784

usemtl Patch_81_Mat_CR1_paintedConcrete
f 789 788 787
f 792 791 790
f 795 794 793

usemtl Patch_82_Mat_CR1_paintedConcrete
f 798 797 796
f 801 800 799

usemtl Patch_83_Mat_CR1_paintedConcrete
f 804 803 802
f 807 806 805
f 810 809 808

usemtl Patch_84_Mat_CR1_paintedConcrete
f 813 812 811
f 816 815 814
f 819 818 817

usemtl Patch_85_Mat_CR1_paintedConcrete
f 822 821 820
f 825 824 823

usemtl Patch_86_Mat_CR1_paintedConcrete
f 828 827 826
f 831 830 829
f 834 833 832

usemtl Patch_87_Mat_CR1_paintedConcrete
f 837 836 835
f 840 839 838
f 843 842 841

usemtl Patch_88_Mat_CR1_paintedConcrete
f 846 845 844
f 849 848 847
f 852 851 850

usemtl Patch_89_Mat_CR1_paintedConcrete
f 855 854 853
f 858 857 856
f 861 860 859

usemtl Patch_90_Mat_CR1_paintedConcrete
f 864 863 862
f 867 866 865
f 870 869 868

usemtl Patch_91_Mat_CR1_paintedConcrete
f 873 872 871
f 876 875 874
f 879 878 877

usemtl Patch_92_Mat_CR1_paintedConcrete
f 882 881 880
f 885 884 883
f 888 887 886

usemtl Patch_93_Mat_CR1_paintedConcrete
f 891 890 889
f 894 893 892

usemtl Patch_94_Mat_CR1_paintedConcrete
f 897 896 895
f 900 899 898
f 903 902 901

usemtl Patch_95_Mat_CR1_paintedConcrete
f 906 905 904
f 909 908 907
f 912 911 910

usemtl Patch_96_Mat_CR1_paintedConcrete
f 915 914 913
f 918 917 916

usemtl Patch_97_Mat_CR1_paintedConcrete
f 921 920 919
f 924 923 922
f 927 926 925

usemtl Patch_98_Mat_CR1_paintedConcrete
f 930 929 928
f 933 932 931

usemtl Patch_99_Mat_CR1_paintedConcrete
f 936 935 934
f 939 938 937
f 942 941 940

usemtl Patch_100_Mat_CR1_paintedConcrete
f 945 944 943
f 948 947 946
f 951 950 949

usemtl Patch_101_Mat_CR1_paintedConcrete
f 954 953 952
f 957 956 955
f 960 959 958

usemtl Patch_102_Mat_CR1_tablesEquipment
f 963 962 961
f 966 965 964

usemtl Patch_103_Mat_CR1_tablesEquipment
f 969 968 967
f 972 971 970
f 975 974 973

usemtl Patch_104_Mat_CR1_tablesEquipment
f 978 977 976
f 981 980 979
f 984 983 982

usemtl Patch_105_Mat_CR1_tablesEquipment
f 987 986 985
f 990 989 988

usemtl Patch_106_Mat_CR1_tablesEquipment
f 993 992 991
f 996 995 994

usemtl Patch_107_Mat_CR1_tablesEquipment
f 999 998 997
f 1002 1001 1000

usemtl Patch_108_Mat_CR1_tablesEquipment
f 1005 1004 1003
f 1008 1007 1006

usemtl Patch_109_Mat_CR1_tablesEquipment
f 1011 1010 1009
f 1014 1013 1012

usemtl Patch_110_Mat_CR1_tablesEquipment
f 1017 1016 1015
f 1020 1019 1018
f 1023 1022 1021

usemtl Patch_111_Mat_CR1_tablesEquipment
f 1026 1025 1024
f 1029 1028 1027
f 1032 1031 1030

usemtl Patch_112_Mat_CR1_absorber
f 1035 1034 1033
f 1038 1037 1036

usemtl Patch_113_Mat_CR1_absorber
f 1041 1040 1039
f 1044 1043 1042

usemtl Patch_114_Mat_CR1_absorber
f 1047 1046 1045
f 1050 1049 1048

usemtl Patch_115_Mat_CR1_absorber
f 1053 1052 1051
f 1056 1055 1054

usemtl Patch_116_Mat_CR1_tablesEquipment
f 1059 1058 1057
f 1062 1061 1060

usemtl Patch_117_Mat_CR1_tablesEquipment
f 1065 1064 1063
f 1068 1067 1066

usemtl Patch_118_Mat_CR1_tablesEquipment
f 1071 1070 1069
f 1074 1073 1072

usemtl Patch_119_Mat_CR1_tablesEquipment
f 1077 1076 1075
f 1080 1079 1078
f 1083 1082 1081
f 1086 1085 1084

usemtl Patch_120_Mat_CR1_tablesEquipment
f 1089 1088 1087
f 1092 1091 1090

usemtl Patch_121_Mat_CR1_tablesEquipment
f 1095 1094 1093
f 1098 1097 1096

usemtl Patch_122_Mat_CR1_tablesEquipment
f 1101 1100 1099
f 1104 1103 1102

usemtl Patch_123_Mat_CR1_concrete
f 1107 1106 1105
f 1110 1109 1108
f 1113 1112 1111
f 1116 1115 1114

usemtl Patch_124_Mat_CR1_concrete
f 1119 1118 1117
f 1122 1121 1120
f 1125 1124 1123
f 1128 1127 1126

usemtl Patch_125_Mat_CR1_concrete
f 1131 1130 1129
f 1134 1133 1132
f 1137 1136 1135
f 1140 1139 1138

usemtl Patch_126_Mat_CR1_concrete
f 1143 1142 1141
f 1146 1145 1144
f 1149 1148 1147
f 1152 1151 1150

usemtl Patch_127_Mat_CR1_concrete
f 1155 1154 1153
f 1158 1157 1156

usemtl Patch_128_Mat_CR1_concrete
f 1161 1160 1159
f 1164 1163 1162
f 1167 1166 1165
f 1170 1169 1168

usemtl Patch_129_Mat_CR1_concrete
f 1173 1172 1171
f 1176 1175 1174
f 1179 1178 1177
f 1182 1181 1180
f 1185 1184 1183
f 1188 1187 1186
f 1191 1190 1189

usemtl Patch_130_Mat_CR1_concrete
f 1194 1193 1192
f 1197 1196 1195
f 1200 1199 1198
f 1203 1202 1201

usemtl Patch_131_Mat_CR1_concrete
f 1206 1205 1204
f 1209 1208 1207
f 1212 1211 1210
f 1215 1214 1213
f 1218 1217 1216

usemtl Patch_132_Mat_CR1_concrete
f 1221 1220 1219
f 1224 1223 1222
f 1227 1226 1225
f 1230 1229 1228

usemtl Patch_133_Mat_CR1_concrete
f 1233 1232 1231
f 1236 1235 1234
f 1239 1238 1237

usemtl Patch_134_Mat_CR1_concrete
f 1242 1241 1240
f 1245 1244 1243
f 1248 1247 1246
f 1251 1250 1249

usemtl Patch_135_Mat_CR1_concrete
f 1254 1253 1252
f 1257 1256 1255
f 1260 1259 1258

usemtl Patch_136_Mat_CR1_concrete
f 1263 1262 1261
f 1266 1265 1264
f 1269 1268 1267

usemtl Patch_137_Mat_CR1_concrete
f 1272 1271 1270
f 1275 1274 1273
f 1278 1277 1276
f 1281 1280 1279

usemtl Patch_138_Mat_CR1_concrete
f 1284 1283 1282
f 1287 1286 1285
f 1290 1289 1288

usemtl Patch_139_Mat_CR1_absorber
f 1293 1292 1291
f 1296 1295 1294

usemtl Patch_140_Mat_CR1_concrete
f 1299 1298 1297
f 1302 1301 1300

usemtl Patch_141_Mat_CR1_concrete
f 1305 1304 1303
f 1308 1307 1306

usemtl Patch_142_Mat_CR1_paintedConcrete
f 1311 1310 1309
f 1314 1313 1312

usemtl Patch_143_Mat_CR1_paintedConcrete
f 1317 1316 1315
f 1320 1319 1318

usemtl Patch_144_Mat_CR1_paintedConcrete
f 1323 1322 1321
f 1326 1325 1324
f 1329 1328 1327

usemtl Patch_145_Mat_CR1_paintedConcrete
f 1332 1331 1330
f 1335 1334 1333
f 1338 1337 1336
f 1341 1340 1339

usemtl Patch_146_Mat_CR1_paintedConcrete
f 1344 1343 1342
f 1347 1346 1345

usemtl Patch_147_Mat_CR1_paintedConcrete
f 1350 1349 1348
f 1353 1352 1351
f 1356 1355 1354

usemtl Patch_148_Mat_CR1_paintedConcrete
f 1359 1358 1357
f 1362 1361 1360
f 1365 1364 1363
f 1368 1367 1366

usemtl Patch_149_Mat_CR1_paintedConcrete
f 1371 1370 1369
f 1374 1373 1372
f 1377 1376 1375

usemtl Patch_150_Mat_CR1_paintedConcrete
f 1380 1379 1378
f 1383 1382 1381
f 1386 1385 1384

usemtl Patch_151_Mat_CR1_paintedConcrete
f 1389 1388 1387
f 1392 1391 1390
f 1395 1394 1393

usemtl Patch_152_Mat_CR1_paintedConcrete
f 1398 1397 1396
f 1401 1400 1399
f 1404 1403 1402
f 1407 1406 1405

usemtl Patch_153_Mat_CR1_paintedConcrete
f 1410 1409 1408
f 1413 1412 1411
f 1416 1415 1414

usemtl Patch_154_Mat_CR1_paintedConcrete
f 1419 1418 1417
f 1422 1421 1420
f 1425 1424 1423
f 1428 1427 1426

usemtl Patch_155_Mat_CR1_paintedConcrete
f 1431 1430 1429
f 1434 1433 1432

usemtl Patch_156_Mat_CR1_paintedConcrete
f 1437 1436 1435
f 1440 1439 1438
f 1443 1442 1441
f 1446 1445 1444

usemtl Patch_157_Mat_CR1_paintedConcrete
f 1449 1448 1447
f 1452 1451 1450
f 1455 1454 1453
f 1458 1457 1456

usemtl Patch_158_Mat_CR1_paintedConcrete
f 1461 1460 1459
f 1464 1463 1462
f 1467 1466 1465
f 1470 1469 1468

usemtl Patch_159_Mat_CR1_paintedConcrete
f 1473 1472 1471
f 1476 1475 1474
f 1479 1478 1477

usemtl Patch_160_Mat_CR1_paintedConcrete
f 1482 1481 1480
f 1485 1484 1483
f 1488 1487 1486
f 1491 1490 1489

usemtl Patch_161_Mat_CR1_paintedConcrete
f 1494 1493 1492
f 1497 1496 1495
f 1500 1499 1498
f 1503 1502 1501

usemtl Patch_162_Mat_CR1_paintedConcrete
f 1506 1505 1504
f 1509 1508 1507
f 1512 1511 1510

usemtl Patch_163_Mat_CR1_paintedConcrete
f 1515 1514 1513
f 1518 1517 1516
f 1521 1520 1519

usemtl Patch_164_Mat_CR1_paintedConcrete
f 1524 1523 1522
f 1527 1526 1525
f 1530 1529 1528
f 1533 1532 1531

usemtl Patch_165_Mat_CR1_paintedConcrete
f 1536 1535 1534
f 1539 1538 1537

usemtl Patch_166_Mat_CR1_paintedConcrete
f 1542 1541 1540
f 1545 1544 1543
f 1548 1547 1546

usemtl Patch_167_Mat_CR1_paintedConcrete
f 1551 1550 1549
f 1554 1553 1552
f 1557 1556 1555
f 1560 1559 1558

usemtl Patch_168_Mat_CR1_concrete
f 1563 1562 1561
f 1566 1565 1564
f 1569 1568 1567

usemtl Patch_169_Mat_CR1_concrete
f 1572 1571 1570
f 1575 1574 1573

usemtl Patch_170_Mat_CR1_concrete
f 1578 1577 1576
f 1581 1580 1579
f 1584 1583 1582

usemtl Patch_171_Mat_CR1_paintedConcrete
f 1587 1586 1585
f 1590 1589 1588
f 1593 1592 1591

usemtl Patch_172_Mat_CR1_paintedConcrete
f 1596 1595 1594
f 1599 1598 1597

usemtl Patch_173_Mat_CR1_paintedConcrete
f 1602 1601 1600
f 1605 1604 1603
f 1608 1607 1606

usemtl Patch_174_Mat_CR1_paintedConcrete
f 1611 1610 1609
f 1614 1613 1612
f 1617 1616 1615

usemtl Patch_175_Mat_CR1_paintedConcrete
f 1620 1619 1618
f 1623 1622 1621
f 1626 1625 1624
f 1629 1628 1627

usemtl Patch_176_Mat_CR1_paintedConcrete
f 1632 1631 1630
f 1635 1634 1633

usemtl Patch_177_Mat_CR1_paintedConcrete
f 1638 1637 1636
f 1641 1640 1639
f 1644 1643 1642

usemtl Patch_178_Mat_CR1_paintedConcrete
f 1647 1646 1645
f 1650 1649 1648
f 1653 1652 1651

usemtl Patch_179_Mat_CR1_paintedConcrete
f 1656 1655 1654
f 1659 1658 1657

usemtl Patch_180_Mat_CR1_paintedConcrete
f 1662 1661 1660
f 1665 1664 1663

usemtl Patch_181_Mat_CR1_paintedConcrete
f 1668 1667 1666
f 1671 1670 1669
f 1674 1673 1672
f 1677 1676 1675

usemtl Patch_182_Mat_CR1_concrete
f 1680 1679 1678
f 1683 1682 1681

usemtl Patch_183_Mat_CR1_concrete
f 1686 1685 1684
f 1689 1688 1687

usemtl Patch_184_Mat_CR1_concrete
f 1692 1691 1690
f 1695 1694 1693

usemtl Patch_185_Mat_CR1_tablesEquipment
f 1698 1697 1696
f 1701 1700 1699

usemtl Patch_186_Mat_CR1_tablesEquipment
f 1704 1703 1702
f 1707 1706 1705

usemtl Patch_187_Mat_CR1_absorber
f 1710 1709 1708
f 1713 1712 1711

usemtl Patch_188_Mat_CR1_absorber
f 1716 1715 1714
f 1719 1718 1717

usemtl Patch_189_Mat_CR1_absorber
f 1722 1721 1720
f 1725 1724 1723

usemtl Patch_190_Mat_CR1_absorber
f 1728 1727 1726
f 1731 1730 1729

usemtl Patch_191_Mat_CR1_absorber
f 1734 1733 1732
f 1737 1736 1735

