mtllib mesh.mtl

# obj1
v 6.102 -3.906 2.736
v 0.571 -6.16 2.736
v 0.571 -3.906 2.736
v 6.102 -6.16 2.736
usemtl Patch_1_Mat_CR1_paintedConcrete
f 1 2 3
f 2 1 4

# obj2
v 0.571 0.93 2.736
v 6.102 0.93 2.276
v 0.571 0.93 2.276
v 6.102 0.93 2.736
usemtl Patch_2_Mat_CR1_paintedConcrete
f 5 6 7
f 6 5 8

# obj3
v 6.102 0.93 2.276
v 0.571 0.499 2.276
v 0.571 0.93 2.276
v 6.102 0.499 2.276
usemtl Patch_3_Mat_CR1_paintedConcrete
f 9 10 11
f 10 9 12

# obj4
v 6.102 0.499 2.736
v 0.571 0.499 2.276
v 6.102 0.499 2.276
v 0.571 0.499 2.736
usemtl Patch_4_Mat_CR1_paintedConcrete
f 13 14 15
f 14 13 16

# obj5
v 6.102 1.903 2.736
v 0.571 0.93 2.736
v 0.571 2.411 2.736
v 6.102 0.93 2.736
usemtl Patch_5_Mat_CR1_paintedConcrete
f 17 18 19
f 18 17 20

# obj6
v 0.571 -3.483 2.736
v 6.102 -3.483 2.276
v 0.571 -3.483 2.276
v 6.102 -3.483 2.736
usemtl Patch_6_Mat_CR1_paintedConcrete
f 21 22 23
f 22 21 24

# obj7
v 6.102 -3.483 2.276
v 0.571 -3.906 2.276
v 0.571 -3.483 2.276
v 6.102 -3.906 2.276
usemtl Patch_7_Mat_CR1_paintedConcrete
f 25 26 27
f 26 25 28

# obj8
v 6.102 -3.906 2.736
v 0.571 -3.906 2.276
v 6.102 -3.906 2.276
v 0.571 -3.906 2.736
usemtl Patch_8_Mat_CR1_paintedConcrete
f 29 30 31
f 30 29 32

# obj9
v 6.102 0.499 2.736
v 0.571 -3.483 2.736
v 0.571 0.499 2.736
v 6.102 -3.483 2.736
usemtl Patch_9_Mat_CR1_paintedConcrete
f 33 34 35
f 34 33 36

# obj10
v -6.251 -3.648 2.768
v -4.522 -3.648 1.1
v -6.251 -3.648 1.1
v -4.522 -3.648 0.0
v -2.803 -3.648 1.1
v -2.803 -3.648 0.0
v -0.0 -3.648 1.1
v -0.0 -3.648 2.768
usemtl Patch_10_Mat_CR1_paintedConcrete
f 37 38 39
f 40 41 42
f 41 40 38
f 43 38 44
f 44 38 37

# obj11
v -0.0 2.523 2.768
v -6.251 0.93 2.768
v -6.251 3.094 2.768
v -0.0 0.93 2.768
usemtl Patch_11_Mat_CR1_concrete
f 45 46 47
f 46 45 48

# obj12
v -6.251 2.156 -0.0
v -6.251 -3.053 1.1
v -6.251 -3.053 0.0
v -6.251 0.499 2.276
v -6.251 0.93 2.276
v -6.251 0.93 2.768
v -6.251 2.156 1.1
v -6.251 3.094 2.768
v -6.251 3.094 1.1
v -6.251 -3.648 2.768
v -6.251 -3.648 1.1
v -6.251 0.499 2.768
usemtl Patch_12_Mat_CR1_concrete
f 49 50 51
f 50 49 52
f 52 49 53
f 53 49 54
f 54 49 55
f 54 55 56
f 56 55 57
f 50 58 59
f 58 50 60
f 60 50 52

# obj13
v -0.0 0.499 2.768
v -6.251 0.499 2.276
v -0.0 0.499 2.276
v -6.251 0.499 2.768
usemtl Patch_13_Mat_CR1_concrete
f 61 62 63
f 62 61 64

# obj14
v -0.0 0.93 2.276
v -6.251 0.499 2.276
v -6.251 0.93 2.276
v -0.0 0.499 2.276
usemtl Patch_14_Mat_CR1_concrete
f 65 66 67
f 66 65 68

# obj15
v -6.251 0.93 2.276
v -0.0 0.93 2.768
v -0.0 0.93 2.276
v -6.251 0.93 2.768
usemtl Patch_15_Mat_CR1_concrete
f 69 70 71
f 70 69 72

# obj16
v -0.0 0.499 2.768
v -6.251 -3.648 2.768
v -6.251 0.499 2.768
v -0.0 -3.648 2.768
usemtl Patch_16_Mat_CR1_concrete
f 73 74 75
f 74 73 76

# obj17
v -0.0 2.523 2.768
v -1.677 2.676 1.1
v -0.0 2.523 1.1
v -1.677 2.676 0.0
v -4.416 2.926 1.1
v -4.416 2.926 -0.0
v -6.251 3.094 1.1
v -6.251 3.094 2.768
usemtl Patch_17_Mat_CR1_concrete
f 77 78 79
f 80 81 82
f 81 80 78
f 81 78 83
f 83 78 84
f 84 78 77

# obj18
v 6.102 1.903 2.736
v 6.102 0.93 2.276
v 6.102 0.93 2.736
v 6.102 -3.906 2.736
v 6.102 -6.16 0.05
v 6.102 -6.16 2.736
v 6.102 -3.906 2.276
v 6.102 1.903 0.05
v 6.102 -3.483 2.276
v 6.102 -3.483 2.736
v 6.102 0.499 2.276
v 6.102 0.499 2.736
usemtl Patch_18_Mat_CR1_paintedConcrete
f 85 86 87
f 88 89 90
f 89 88 91
f 89 91 92
f 92 91 93
f 92 93 94
f 92 94 95
f 95 94 96
f 92 95 86
f 92 86 85

# obj19
v 0.571 -6.16 2.736
v 6.102 -6.16 0.05
v 0.571 -6.16 0.05
v 6.102 -6.16 2.736
usemtl Patch_19_Mat_CR1_paintedConcrete
f 97 98 99
f 98 97 100

# obj20
v -4.51 1.985 1.1
v -6.251 3.094 1.1
v -6.251 2.156 1.1
v -4.416 2.926 1.1
usemtl Patch_20_Mat_CR1_tablesEquipment
f 101 102 103
f 102 101 104

# obj21
v -4.416 2.926 -0.0
v -4.51 1.985 1.1
v -4.51 1.985 -0.0
v -4.416 2.926 1.1
usemtl Patch_21_Mat_CR1_tablesEquipment
f 105 106 107
f 106 105 108

# obj22
v -4.51 1.985 1.1
v -6.251 2.156 -0.0
v -4.51 1.985 -0.0
v -6.251 2.156 1.1
usemtl Patch_22_Mat_CR1_tablesEquipment
f 109 110 111
f 110 109 112

# obj23
v -6.251 -3.053 1.1
v -4.522 -3.053 0.0
v -6.251 -3.053 0.0
v -4.522 -3.053 1.1
usemtl Patch_23_Mat_CR1_tablesEquipment
f 113 114 115
f 114 113 116

# obj24
v -4.522 -3.648 1.1
v -6.251 -3.053 1.1
v -6.251 -3.648 1.1
v -4.522 -3.053 1.1
usemtl Patch_24_Mat_CR1_tablesEquipment
f 117 118 119
f 118 117 120

# obj25
v -4.522 -3.053 0.0
v -4.522 -3.648 1.1
v -4.522 -3.648 0.0
v -4.522 -3.053 1.1
usemtl Patch_25_Mat_CR1_tablesEquipment
f 121 122 123
f 122 121 124

# obj26
v -0.0 1.598 1.1
v -1.677 2.676 1.1
v -1.741 1.715 1.1
v -0.0 2.523 1.1
usemtl Patch_26_Mat_CR1_tablesEquipment
f 125 126 127
f 126 125 128

# obj27
v -0.0 1.598 1.1
v -1.741 1.715 0.0
v -0.0 1.598 0.0
v -1.741 1.715 1.1
usemtl Patch_27_Mat_CR1_tablesEquipment
f 129 130 131
f 130 129 132

# obj28
v -1.677 2.676 1.1
v -1.741 1.715 0.0
v -1.741 1.715 1.1
v -1.677 2.676 0.0
usemtl Patch_28_Mat_CR1_tablesEquipment
f 133 134 135
f 134 133 136

# obj29
v -5.442 1.479 0.0
v -5.442 -0.091 1.0
v -5.442 -0.091 0.0
v -5.442 1.479 1.0
usemtl Patch_29_Mat_CR1_absorber
f 137 138 139
f 138 137 140

# obj30
v -2.509 2.562 1.0
v -3.509 2.562 0.0
v -2.509 2.562 0.0
v -3.509 2.562 1.0
usemtl Patch_30_Mat_CR1_absorber
f 141 142 143
f 142 141 144

# obj31
v -2.39 2.524 1.0
v -1.784 1.729 0.0
v -1.784 1.729 1.0
v -2.39 2.524 0.0
usemtl Patch_31_Mat_CR1_absorber
f 145 146 147
f 146 145 148

# obj32
v -4.389 1.977 1.0
v -5.318 1.607 0.0
v -4.389 1.977 0.0
v -5.318 1.607 1.0
usemtl Patch_32_Mat_CR1_absorber
f 149 150 151
f 150 149 152

# obj33
v -2.803 -2.798 1.1
v -2.803 -3.648 0.0
v -2.803 -3.648 1.1
v -2.803 -2.798 0.0
usemtl Patch_33_Mat_CR1_tablesEquipment
f 153 154 155
f 154 153 156

# obj34
v -2.803 -2.798 1.1
v -0.913 -2.798 0.0
v -2.803 -2.798 0.0
v -0.913 -2.798 1.1
usemtl Patch_34_Mat_CR1_tablesEquipment
f 157 158 159
f 158 157 160

# obj35
v -0.0 -3.648 1.1
v -2.803 -2.798 1.1
v -2.803 -3.648 1.1
v -0.913 -2.798 1.1
v -0.913 -1.983 1.1
v -0.0 -1.983 1.1
usemtl Patch_35_Mat_CR1_tablesEquipment
f 161 162 163
f 162 161 164
f 164 161 165
f 165 161 166

# obj36
v -0.913 -1.983 1.1
v -0.913 -2.798 0.0
v -0.913 -2.798 1.1
v -0.913 -1.983 0.0
usemtl Patch_36_Mat_CR1_tablesEquipment
f 167 168 169
f 168 167 170

# obj37
v -0.913 -1.983 1.1
v -0.0 -1.983 0.0
v -0.913 -1.983 0.0
v -0.0 -1.983 1.1
usemtl Patch_37_Mat_CR1_tablesEquipment
f 171 172 173
f 172 171 174

# obj38
v -0.913 -2.798 0.0
v -1.741 1.715 0.0
v -2.803 -2.798 0.0
v -0.913 -1.983 0.0
v -0.0 1.598 0.0
v -0.0 -0.012 0.0
v -0.0 -1.983 0.0
v -0.0 -1.488 0.0
v -2.803 -3.648 0.0
v -4.522 -3.053 0.0
v -4.522 -3.648 0.0
v -4.51 1.985 -0.0
v -4.416 2.926 -0.0
v -1.677 2.676 0.0
v -6.251 -3.053 0.0
v -6.251 2.156 -0.0
usemtl Patch_38_Mat_CR1_concrete
f 175 176 177
f 176 175 178
f 176 178 179
f 179 178 180
f 180 178 181
f 183 184 185
f 184 183 186
f 186 183 187
f 187 183 177
f 187 177 188
f 188 177 176
f 189 186 190
f 186 189 184

# obj39
v -3.556 2.559 1.0
v -4.422 2.059 0.0
v -3.556 2.559 0.0
v -4.422 2.059 1.0
usemtl Patch_39_Mat_CR1_absorber
f 191 192 193
f 192 191 194

# obj40
v -0.0 -1.488 2.193
v 0.571 -1.488 0.05
v -0.0 -1.488 0.0
v 0.571 -1.488 2.193
usemtl Patch_40_Mat_CR1_concrete
f 195 196 197
f 196 195 198

# obj41
v 0.676 -1.485 0.05
v 0.571 -0.012 2.195
v 0.676 -1.485 2.195
v 0.571 -0.012 0.05
usemtl Patch_41_Mat_CR1_paintedConcrete
f 199 200 201
f 200 199 202

# obj42
v -0.0 2.523 2.768
v -0.0 0.93 2.276
v -0.0 0.93 2.768
v -0.0 1.598 1.1
v -0.0 2.523 1.1
v -0.0 -3.648 2.768
v -0.0 -1.488 2.193
v -0.0 -3.648 1.1
v -0.0 0.499 2.768
v -0.0 -1.983 1.1
v -0.0 -1.983 0.0
v -0.0 -0.012 2.195
v -0.0 -0.012 0.0
v -0.0 0.499 2.276
v -0.0 1.598 0.0
v -0.0 -1.488 0.0
usemtl Patch_42_Mat_CR1_concrete
f 203 204 205
f 204 203 206
f 206 203 207
f 208 209 210
f 209 208 211
f 210 209 212
f 212 209 213
f 209 211 214
f 214 211 215
f 215 211 216
f 215 216 217
f 217 216 204
f 217 204 206
f 218 213 209

# obj43
v 6.102 1.903 2.736
v 0.571 2.411 0.05
v 6.102 1.903 0.05
v 0.571 2.411 2.736
usemtl Patch_43_Mat_CR1_paintedConcrete
f 219 220 221
f 220 219 222

# obj44
v 6.102 -6.16 0.05
v 0.571 -1.488 0.05
v 0.571 -6.16 0.05
v 0.571 -0.012 0.05
v 6.102 1.903 0.05
v 0.571 2.411 0.05
usemtl Patch_44_Mat_CR1_paintedConcrete
f 223 224 225
f 224 223 226
f 226 227 228
f 227 226 223

# obj45
v 0.571 -1.488 0.05
v -0.0 -0.012 0.0
v -0.0 -1.488 0.0
v 0.571 -0.012 0.05
usemtl Patch_45_Mat_CR1_concrete
f 229 230 231
f 230 229 232

# obj46
v 0.571 -1.488 0.05
v 0.571 -6.16 2.736
v 0.571 -6.16 0.05
v 0.571 -3.906 2.276
v 0.571 -3.483 2.276
v 0.571 -3.483 2.736
v 0.571 -1.488 2.193
v 0.571 0.499 2.736
v 0.571 -0.012 2.195
v 0.571 -3.906 2.736
usemtl Patch_46_Mat_CR1_paintedConcrete
f 233 234 235
f 234 233 236
f 236 233 237
f 237 233 238
f 238 233 239
f 238 239 240
f 240 239 241
f 242 234 236

# obj47
v 0.571 2.411 0.05
v 0.571 0.499 2.276
v 0.571 -0.012 0.05
v 0.571 0.93 2.276
v 0.571 0.93 2.736
v 0.571 2.411 2.736
v 0.571 0.499 2.736
v 0.571 -0.012 2.195
usemtl Patch_47_Mat_CR1_paintedConcrete
f 243 244 245
f 244 243 246
f 246 243 247
f 247 243 248
f 245 249 250
f 249 245 244

# obj48
v 0.571 -0.012 0.05
v -0.0 -0.012 2.195
v -0.0 -0.012 0.0
v 0.571 -0.012 2.195
usemtl Patch_48_Mat_CR1_concrete
f 251 252 253
f 252 251 254

# obj49
usemtl Patch_49_Mat_CR1_tablesEquipment
f 199 201 200
f 200 202 199

# obj50
usemtl Patch_50_Mat_CR1_absorber
f 137 139 138
f 138 140 137

# obj51
usemtl Patch_51_Mat_CR1_absorber
f 141 143 142
f 142 144 141

# obj52
usemtl Patch_52_Mat_CR1_absorber
f 145 147 146
f 146 148 145

# obj53
usemtl Patch_53_Mat_CR1_absorber
f 149 151 150
f 150 152 149

# obj54
usemtl Patch_54_Mat_CR1_absorber
f 191 193 192
f 192 194 191
