mtllib mesh.mtl

# obj1
v 6.102 -3.906 2.736
v 0.571 -6.16 2.736
v 0.571 -3.906 2.736
v 6.102 -6.16 2.736
usemtl Patch_1_Mat_CR1_paintedConcrete
f 1 2 3
f 2 1 4

# obj2
v 0.571 0.93 2.736
v 6.102 0.93 2.276
v 0.571 0.93 2.276
v 6.102 0.93 2.736
usemtl Patch_2_Mat_CR1_paintedConcrete
f 5 6 7
f 6 5 8

# obj3
v 6.102 0.93 2.276
v 0.571 0.499 2.276
v 0.571 0.93 2.276
v 6.102 0.499 2.276
usemtl Patch_3_Mat_CR1_paintedConcrete
f 9 10 11
f 10 9 12

# obj4
v 6.102 0.499 2.736
v 0.571 0.499 2.276
v 6.102 0.499 2.276
v 0.571 0.499 2.736
usemtl Patch_4_Mat_CR1_paintedConcrete
f 13 14 15
f 14 13 16

# obj5
v 6.102 1.903 2.736
v 0.571 0.93 2.736
v 0.571 2.411 2.736
v 6.102 0.93 2.736
usemtl Patch_5_Mat_CR1_paintedConcrete
f 17 18 19
f 18 17 20

# obj6
v 0.571 -3.483 2.736
v 6.102 -3.483 2.276
v 0.571 -3.483 2.276
v 6.102 -3.483 2.736
usemtl Patch_6_Mat_CR1_paintedConcrete
f 21 22 23
f 22 21 24

# obj7
v 6.102 -3.483 2.276
v 0.571 -3.906 2.276
v 0.571 -3.483 2.276
v 6.102 -3.906 2.276
usemtl Patch_7_Mat_CR1_paintedConcrete
f 25 26 27
f 26 25 28

# obj8
v 6.102 -3.906 2.736
v 0.571 -3.906 2.276
v 6.102 -3.906 2.276
v 0.571 -3.906 2.736
usemtl Patch_8_Mat_CR1_paintedConcrete
f 29 30 31
f 30 29 32

# obj9
v 6.102 0.499 2.736
v 0.571 -3.483 2.736
v 0.571 0.499 2.736
v 6.102 -3.483 2.736
usemtl Patch_9_Mat_CR1_paintedConcrete
f 33 34 35
f 34 33 36

# obj10
v -6.251 -3.648 2.768
v -4.522 -3.648 1.1
v -6.251 -3.648 1.1
v -4.522 -3.648 0.0
v -2.803 -3.648 1.1
v -2.803 -3.648 0.0
v -0.0 -3.648 1.1
v -0.0 -3.648 2.768
usemtl Patch_10_Mat_CR1_concrete
f 37 38 39
f 40 41 42
f 41 40 38
f 43 38 44
f 44 38 37

# obj11
v -0.0 2.523 2.768
v -6.251 0.93 2.768
v -6.251 3.094 2.768
v -0.0 0.93 2.768
usemtl Patch_11_Mat_CR1_tablesEquipment
f 45 46 47
f 46 45 48

# obj12
v -6.251 2.156 -0.0
v -6.251 -3.053 1.1
v -6.251 -3.053 0.0
v -6.251 0.499 2.276
v -6.251 0.93 2.276
v -6.251 0.93 2.768
v -6.251 2.156 1.1
v -6.251 3.094 2.768
v -6.251 3.094 1.1
v -6.251 -3.648 2.768
v -6.251 -3.648 1.1
v -6.251 0.499 2.768
usemtl Patch_12_Mat_CR1_tablesEquipment
f 49 50 51
f 50 49 52
f 52 49 53
f 53 49 54
f 54 49 55
f 54 55 56
f 56 55 57
f 50 58 59
f 58 50 60
f 60 50 52

# obj13
v -0.0 0.499 2.768
v -6.251 0.499 2.276
v -0.0 0.499 2.276
v -6.251 0.499 2.768
usemtl Patch_13_Mat_CR1_tablesEquipment
f 61 62 63
f 62 61 64

# obj14
v -0.0 0.93 2.276
v -6.251 0.499 2.276
v -6.251 0.93 2.276
v -0.0 0.499 2.276
usemtl Patch_14_Mat_CR1_tablesEquipment
f 65 66 67
f 66 65 68

# obj15
v -6.251 0.93 2.276
v -0.0 0.93 2.768
v -0.0 0.93 2.276
v -6.251 0.93 2.768
usemtl Patch_15_Mat_CR1_tablesEquipment
f 69 70 71
f 70 69 72

# obj16
v -0.0 0.499 2.768
v -6.251 -3.648 2.768
v -6.251 0.499 2.768
v -0.0 -3.648 2.768
usemtl Patch_16_Mat_CR1_tablesEquipment
f 73 74 75
f 74 73 76

# obj17
v -0.0 2.523 2.768
v -1.677 2.676 1.1
v -0.0 2.523 1.1
v -1.677 2.676 0.0
v -4.416 2.926 1.1
v -4.416 2.926 -0.0
v -6.251 3.094 1.1
v -6.251 3.094 2.768
usemtl Patch_17_Mat_CR1_tablesEquipment
f 77 78 79
f 80 81 82
f 81 80 78
f 81 78 83
f 83 78 84
f 84 78 77

# obj18
v -0.0 2.523 2.768
v -0.0 0.93 2.276
v -0.0 0.93 2.768
v -0.0 1.598 1.1
v -0.0 2.523 1.1
v -0.0 -3.648 2.768
v -0.0 -1.488 2.193
v -0.0 -3.648 1.1
v -0.0 0.499 2.768
v -0.0 -1.983 1.1
v -0.0 -1.983 0.0
v -0.0 -0.012 2.195
v -0.0 -0.012 0.0
v -0.0 0.499 2.276
v -0.0 1.598 0.0
v -0.0 -1.488 0.0
usemtl Patch_18_Mat_CR1_tablesEquipment
f 85 86 87
f 86 85 88
f 88 85 89
f 90 91 92
f 91 90 93
f 92 91 94
f 94 91 95
f 91 93 96
f 96 93 97
f 97 93 98
f 97 98 99
f 99 98 86
f 99 86 88
f 100 95 91

# obj19
v 6.102 1.903 2.736
v 0.571 2.411 0.05
v 6.102 1.903 0.05
v 0.571 2.411 2.736
usemtl Patch_19_Mat_CR1_paintedConcrete
f 101 102 103
f 102 101 104

# obj20
v 6.102 1.903 2.736
v 6.102 0.93 2.276
v 6.102 0.93 2.736
v 6.102 -3.906 2.736
v 6.102 -6.16 0.05
v 6.102 -6.16 2.736
v 6.102 -3.906 2.276
v 6.102 1.903 0.05
v 6.102 -3.483 2.276
v 6.102 -3.483 2.736
v 6.102 0.499 2.276
v 6.102 0.499 2.736
usemtl Patch_20_Mat_CR1_paintedConcrete
f 105 106 107
f 108 109 110
f 109 108 111
f 109 111 112
f 112 111 113
f 112 113 114
f 112 114 115
f 115 114 116
f 112 115 106
f 112 106 105

# obj21
v 0.571 -6.16 2.736
v 6.102 -6.16 0.05
v 0.571 -6.16 0.05
v 6.102 -6.16 2.736
usemtl Patch_21_Mat_CR1_paintedConcrete
f 117 118 119
f 118 117 120

# obj22
v -4.51 1.985 1.1
v -6.251 3.094 1.1
v -6.251 2.156 1.1
v -4.416 2.926 1.1
usemtl Patch_22_Mat_CR1_absorber
f 121 122 123
f 122 121 124

# obj23
v -4.416 2.926 -0.0
v -4.51 1.985 1.1
v -4.51 1.985 -0.0
v -4.416 2.926 1.1
usemtl Patch_23_Mat_CR1_absorber
f 125 126 127
f 126 125 128

# obj24
v -4.51 1.985 1.1
v -6.251 2.156 -0.0
v -4.51 1.985 -0.0
v -6.251 2.156 1.1
usemtl Patch_24_Mat_CR1_absorber
f 129 130 131
f 130 129 132

# obj25
v -6.251 -3.053 1.1
v -4.522 -3.053 0.0
v -6.251 -3.053 0.0
v -4.522 -3.053 1.1
usemtl Patch_25_Mat_CR1_absorber
f 133 134 135
f 134 133 136

# obj26
v -4.522 -3.648 1.1
v -6.251 -3.053 1.1
v -6.251 -3.648 1.1
v -4.522 -3.053 1.1
usemtl Patch_26_Mat_CR1_absorber
f 137 138 139
f 138 137 140

# obj27
v -4.522 -3.053 0.0
v -4.522 -3.648 1.1
v -4.522 -3.648 0.0
v -4.522 -3.053 1.1
usemtl Patch_27_Mat_CR1_absorber
f 141 142 143
f 142 141 144

# obj28
v -0.0 1.598 1.1
v -1.677 2.676 1.1
v -1.741 1.715 1.1
v -0.0 2.523 1.1
usemtl Patch_28_Mat_CR1_absorber
f 145 146 147
f 146 145 148

# obj29
v -0.0 1.598 1.1
v -1.741 1.715 0.0
v -0.0 1.598 0.0
v -1.741 1.715 1.1
usemtl Patch_29_Mat_CR1_absorber
f 149 150 151
f 150 149 152

# obj30
v -1.677 2.676 1.1
v -1.741 1.715 0.0
v -1.741 1.715 1.1
v -1.677 2.676 0.0
usemtl Patch_30_Mat_CR1_absorber
f 153 154 155
f 154 153 156

# obj31
v -5.442 1.479 0.0
v -5.442 -0.091 1.0
v -5.442 -0.091 0.0
v -5.442 1.479 1.0
usemtl Patch_31_Mat_CR1_unknown
f 157 158 159
f 158 157 160

# obj32
v -2.509 2.562 1.0
v -3.509 2.562 0.0
v -2.509 2.562 0.0
v -3.509 2.562 1.0
usemtl Patch_32_Mat_CR1_unknown
f 161 162 163
f 162 161 164

# obj33
v -2.39 2.524 1.0
v -1.784 1.729 0.0
v -1.784 1.729 1.0
v -2.39 2.524 0.0
usemtl Patch_33_Mat_CR1_unknown
f 165 166 167
f 166 165 168

# obj34
v -4.389 1.977 1.0
v -5.318 1.607 0.0
v -4.389 1.977 0.0
v -5.318 1.607 1.0
usemtl Patch_34_Mat_CR1_unknown
f 169 170 171
f 170 169 172

# obj35
v -2.803 -2.798 1.1
v -2.803 -3.648 0.0
v -2.803 -3.648 1.1
v -2.803 -2.798 0.0
usemtl Patch_35_Mat_CR1_absorber
f 173 174 175
f 174 173 176

# obj36
v -2.803 -2.798 1.1
v -0.913 -2.798 0.0
v -2.803 -2.798 0.0
v -0.913 -2.798 1.1
usemtl Patch_36_Mat_CR1_absorber
f 177 178 179
f 178 177 180

# obj37
v -0.0 -3.648 1.1
v -2.803 -2.798 1.1
v -2.803 -3.648 1.1
v -0.913 -2.798 1.1
v -0.913 -1.983 1.1
v -0.0 -1.983 1.1
usemtl Patch_37_Mat_CR1_absorber
f 181 182 183
f 182 181 184
f 184 181 185
f 185 181 186

# obj38
v -0.913 -1.983 1.1
v -0.913 -2.798 0.0
v -0.913 -2.798 1.1
v -0.913 -1.983 0.0
usemtl Patch_38_Mat_CR1_absorber
f 187 188 189
f 188 187 190

# obj39
v -0.913 -1.983 1.1
v -0.0 -1.983 0.0
v -0.913 -1.983 0.0
v -0.0 -1.983 1.1
usemtl Patch_39_Mat_CR1_absorber
f 191 192 193
f 192 191 194

# obj40
v -0.913 -2.798 0.0
v -1.741 1.715 0.0
v -2.803 -2.798 0.0
v -0.913 -1.983 0.0
v -0.0 1.598 0.0
v -0.0 -0.012 0.0
v -0.0 -1.983 0.0
v -0.0 -1.488 0.0
v -2.803 -3.648 0.0
v -4.522 -3.053 0.0
v -4.522 -3.648 0.0
v -4.51 1.985 -0.0
v -4.416 2.926 -0.0
v -1.677 2.676 0.0
v -6.251 -3.053 0.0
v -6.251 2.156 -0.0
usemtl Patch_40_Mat_CR1_tablesEquipment
f 195 196 197
f 196 195 198
f 196 198 199
f 199 198 200
f 200 198 201
f 203 204 205
f 204 203 206
f 206 203 207
f 207 203 197
f 207 197 208
f 208 197 196
f 209 206 210
f 206 209 204

# obj41
v -3.556 2.559 1.0
v -4.422 2.059 0.0
v -3.556 2.559 0.0
v -4.422 2.059 1.0
usemtl Patch_41_Mat_CR1_unknown
f 211 212 213
f 212 211 214

# obj42
v -0.0 -1.488 2.193
v 0.571 -1.488 0.05
v -0.0 -1.488 0.0
v 0.571 -1.488 2.193
usemtl Patch_42_Mat_CR1_tablesEquipment
f 215 216 217
f 216 215 218

# obj43
v 0.571 -1.488 0.05
v 0.571 -6.16 2.736
v 0.571 -6.16 0.05
v 0.571 -3.906 2.276
v 0.571 -3.483 2.276
v 0.571 -3.483 2.736
v 0.571 -1.488 2.193
v 0.571 0.499 2.736
v 0.571 -0.012 2.195
v 0.571 -3.906 2.736
usemtl Patch_43_Mat_CR1_paintedConcrete
f 219 220 221
f 220 219 222
f 222 219 223
f 223 219 224
f 224 219 225
f 224 225 226
f 226 225 227
f 228 220 222

# obj44
v 1.306 -1.292 0.05
v 0.571 -0.012 2.195
v 1.306 -1.292 2.195
v 0.571 -0.012 0.05
usemtl Patch_44_Mat_CR1_paintedConcrete
f 229 230 231
f 230 229 232

# obj45
v 6.102 -6.16 0.05
v 0.571 -1.488 0.05
v 0.571 -6.16 0.05
v 0.571 -0.012 0.05
v 6.102 1.903 0.05
v 0.571 2.411 0.05
usemtl Patch_45_Mat_CR1_paintedConcrete
f 233 234 235
f 234 233 236
f 236 237 238
f 237 236 233

# obj46
v 0.571 -1.488 0.05
v -0.0 -0.012 0.0
v -0.0 -1.488 0.0
v 0.571 -0.012 0.05
usemtl Patch_46_Mat_CR1_tablesEquipment
f 239 240 241
f 240 239 242

# obj47
v 0.571 -0.012 0.05
v -0.0 -0.012 2.195
v -0.0 -0.012 0.0
v 0.571 -0.012 2.195
usemtl Patch_47_Mat_CR1_tablesEquipment
f 243 244 245
f 244 243 246

# obj48
v 0.571 2.411 0.05
v 0.571 0.499 2.276
v 0.571 -0.012 0.05
v 0.571 0.93 2.276
v 0.571 0.93 2.736
v 0.571 2.411 2.736
v 0.571 0.499 2.736
v 0.571 -0.012 2.195
usemtl Patch_48_Mat_CR1_paintedConcrete
f 247 248 249
f 248 247 250
f 250 247 251
f 251 247 252
f 249 253 254
f 253 249 248

# obj49
usemtl Patch_49_Mat_CR1_absorber
f 229 231 230
f 230 232 229

# obj50
usemtl Patch_50_Mat_CR1_unknown
f 157 159 158
f 158 160 157

# obj51
usemtl Patch_51_Mat_CR1_unknown
f 161 163 162
f 162 164 161

# obj52
usemtl Patch_52_Mat_CR1_unknown
f 165 167 166
f 166 168 165

# obj53
usemtl Patch_53_Mat_CR1_unknown
f 169 171 170
f 170 172 169

# obj54
usemtl Patch_54_Mat_CR1_unknown
f 211 213 212
f 212 214 211
