mtllib mesh.mtl

# obj1
v -1.303 4.242 0.15
v -2.823 4.082 0.15
v -2.823 4.242 0.15
v -1.303 4.082 0.15
usemtl Patch_1_Mat_CR2_concrete
f 1 2 3
f 2 1 4

# obj2
v -1.303 4.082 0.595
v -2.823 4.242 0.595
v -2.823 4.082 0.595
v -1.303 4.242 0.595
usemtl Patch_2_Mat_CR2_concrete
f 5 6 7
f 6 5 8

# obj3
v -1.303 4.242 0.15
v -1.303 4.082 0.595
v -1.303 4.082 0.15
v -1.303 4.242 0.595
usemtl Patch_3_Mat_CR2_concrete
f 9 10 11
f 10 9 12

# obj4
v -2.823 4.242 0.595
v -1.303 4.242 0.15
v -2.823 4.242 0.15
v -1.303 4.242 0.595
usemtl Patch_4_Mat_CR2_concrete
f 13 14 15
f 14 13 16

# obj5
v -2.823 4.242 0.595
v -2.823 4.082 0.15
v -2.823 4.082 0.595
v -2.823 4.242 0.15
usemtl Patch_5_Mat_CR2_concrete
f 17 18 19
f 18 17 20

# obj6
v -1.303 4.082 0.595
v -2.823 4.082 0.15
v -1.303 4.082 0.15
v -2.823 4.082 0.595
usemtl Patch_6_Mat_CR2_concrete
f 21 22 23
f 22 21 24

# obj7
v 0.757 4.242 0.15
v -0.763 4.082 0.15
v -0.763 4.242 0.15
v 0.757 4.082 0.15
usemtl Patch_7_Mat_CR2_concrete
f 25 26 27
f 26 25 28

# obj8
v 0.757 4.082 0.595
v -0.763 4.242 0.595
v -0.763 4.082 0.595
v 0.757 4.242 0.595
usemtl Patch_8_Mat_CR2_concrete
f 29 30 31
f 30 29 32

# obj9
v 0.757 4.082 0.595
v -0.763 4.082 0.15
v 0.757 4.082 0.15
v -0.763 4.082 0.595
usemtl Patch_9_Mat_CR2_concrete
f 33 34 35
f 34 33 36

# obj10
v 0.757 4.242 0.15
v 0.757 4.082 0.595
v 0.757 4.082 0.15
v 0.757 4.242 0.595
usemtl Patch_10_Mat_CR2_concrete
f 37 38 39
f 38 37 40

# obj11
v -0.763 4.242 0.595
v -0.763 4.082 0.15
v -0.763 4.082 0.595
v -0.763 4.242 0.15
usemtl Patch_11_Mat_CR2_concrete
f 41 42 43
f 42 41 44

# obj12
v -0.763 4.242 0.595
v 0.757 4.242 0.15
v -0.763 4.242 0.15
v 0.757 4.242 0.595
usemtl Patch_12_Mat_CR2_concrete
f 45 46 47
f 46 45 48

# obj13
v 2.804 4.337 2.568
v 1.261 4.189 2.568
v 1.261 4.337 2.568
v 2.804 4.189 2.568
usemtl Patch_13_Mat_CR2_concrete
f 49 50 51
f 50 49 52

# obj14
v 2.804 4.337 0.45
v 1.261 4.337 2.568
v 1.261 4.337 0.45
v 2.804 4.337 2.568
usemtl Patch_14_Mat_CR2_windows
f 53 54 55
f 54 53 56

# obj15
v 2.869 3.815 1.126
v 2.869 3.446 0.916
v 2.869 3.446 1.126
v 2.869 3.815 0.61
usemtl Patch_15_Mat_CR2_concrete
f 57 58 59
f 58 57 60

# obj16
v 3.132 -1.695 0.0
v 3.152 3.446 0.916
v 3.154 3.811 0.0
v 3.152 3.446 1.126
v 3.154 3.811 0.61
v 3.154 3.811 2.988
v 3.132 -1.695 2.988
v 3.154 3.811 1.126
usemtl Patch_16_Mat_CR2_concrete
f 61 62 63
f 62 61 64
f 63 62 65
f 66 61 67
f 61 66 64
f 64 66 68

# obj17
v 3.152 3.446 1.126
v 2.869 3.815 1.126
v 2.869 3.446 1.126
v 3.154 3.811 1.126
usemtl Patch_17_Mat_CR2_concrete
f 69 70 71
f 70 69 72

# obj18
v 3.154 3.811 0.61
v 2.869 3.815 0.0
v 3.154 3.811 0.0
v 2.869 3.815 0.61
usemtl Patch_18_Mat_CR2_concrete
f 73 74 75
f 74 73 76

# obj19
v 3.154 3.811 0.61
v 2.869 3.446 0.916
v 2.869 3.815 0.61
usemtl Patch_19_Mat_CR2_concrete
f 77 78 79

# obj20
v 3.152 3.446 1.126
v 2.869 3.446 0.916
v 3.152 3.446 0.916
v 2.869 3.446 1.126
usemtl Patch_20_Mat_CR2_concrete
f 80 81 82
f 81 80 83

# obj21
v 2.649 2.203 2.888
v 2.649 2.003 2.988
v 2.649 2.003 2.888
v 2.649 2.203 2.988
usemtl Patch_21_Mat_CR2_concrete
f 84 85 86
f 85 84 87

# obj22
v 3.154 3.811 0.61
v 3.152 3.446 0.916
v 2.869 3.446 0.916
usemtl Patch_22_Mat_CR2_concrete
f 88 89 90

# obj23
v -2.584 2.203 2.988
v -1.284 2.203 2.888
v -2.584 2.203 2.888
v 0.016 2.203 2.888
v 1.316 2.203 2.888
v 2.649 2.203 2.888
v 2.649 2.203 2.988
usemtl Patch_23_Mat_CR2_ceiling
f 91 92 93
f 92 91 94
f 94 91 95
f 95 91 96
f 96 91 97

# obj24
v -2.584 2.203 2.988
v -2.584 2.003 2.888
v -2.584 2.003 2.988
v -2.584 2.203 2.888
usemtl Patch_24_Mat_CR2_concrete
f 98 99 100
f 99 98 101

# obj25
v 2.869 4.189 2.988
v 2.869 3.815 1.126
v 2.869 3.815 2.988
v 2.869 3.815 0.61
v 2.869 3.815 0.0
v 2.869 4.189 0.0
usemtl Patch_25_Mat_CR2_concrete
f 102 103 104
f 103 102 105
f 105 102 106
f 106 102 107

# obj26
v 2.649 2.003 2.988
v 1.316 2.003 2.888
v 2.649 2.003 2.888
v 0.016 2.003 2.888
v -1.284 2.003 2.888
v -2.584 2.003 2.888
v -2.584 2.003 2.988
usemtl Patch_26_Mat_CR2_ceiling
f 108 109 110
f 109 108 111
f 111 108 112
f 112 108 113
f 113 108 114

# obj27
v 3.024 -3.695 0.658
v 3.024 -3.92 0.78
v 3.024 -3.92 0.658
v 3.024 -3.695 0.78
usemtl Patch_27_Mat_CR2_concrete
f 115 116 117
f 116 115 118

# obj28
v 3.154 3.811 2.988
v 2.869 3.815 1.126
v 3.154 3.811 1.126
v 2.869 3.815 2.988
usemtl Patch_28_Mat_CR2_concrete
f 119 120 121
f 120 119 122

# obj29
v -2.884 3.785 0.0
v -3.036 3.785 2.5
v -3.036 3.785 0.0
v -2.884 3.785 2.5
usemtl Patch_29_Mat_CR2_concrete
f 123 124 125
f 124 123 126

# obj30
v -2.884 3.785 2.5
v -3.036 -2.891 2.5
v -3.036 3.785 2.5
v -2.884 -2.891 2.5
usemtl Patch_30_Mat_CR2_concrete
f 127 128 129
f 128 127 130

# obj31
v -3.036 3.785 0.0
v -3.036 -2.891 2.5
v -3.036 -2.891 0.0
v -3.036 3.785 2.5
usemtl Patch_31_Mat_CR2_plaster
f 131 132 133
f 132 131 134

# obj32
v -1.616 -2.891 0.0
v -1.815 -2.871 0.0
v -1.815 -2.891 0.0
v 3.094 -4.255 0.0
v -1.616 -4.255 0.0
v 2.489 -3.695 0.0
v -1.297 4.189 0.0
v -0.769 4.189 0.0
v -0.769 4.307 0.0
v 0.758 4.189 -0.0
v 1.261 4.189 0.0
v 1.261 4.307 0.0
v 2.564 -3.695 0.0
v 3.094 -3.695 0.0
v 3.132 -1.695 0.0
v 2.804 4.189 0.0
v 2.519 -1.695 0.0
v 2.869 3.815 0.0
v 3.154 3.811 0.0
v 2.869 4.189 0.0
v 2.804 4.307 0.0
v 0.758 4.307 -0.0
v -2.875 -2.891 0.0
v -3.036 3.785 0.0
v -3.036 -2.891 0.0
v -2.884 3.785 0.0
v -2.884 4.189 0.0
v -2.875 -2.871 0.0
v -2.829 4.189 0.0
v -2.829 4.307 0.0
v -1.297 4.307 0.0
usemtl Patch_32_Mat_CR2_floor
f 135 136 137
f 138 135 139
f 135 138 140
f 135 140 141
f 141 140 142
f 142 140 143
f 143 140 144
f 144 140 145
f 145 140 146
f 140 138 147
f 147 138 148
f 149 150 151
f 150 149 152
f 152 149 153
f 154 150 152
f 146 151 155
f 151 146 140
f 155 151 150
f 156 143 144
f 157 158 159
f 158 157 160
f 160 157 161
f 161 157 162
f 161 162 163
f 163 162 136
f 163 136 164
f 164 136 165
f 165 136 135
f 165 135 141

# obj33
v 3.094 -3.695 2.988
v 3.094 -4.255 1.111
v 3.094 -4.255 2.988
v 3.094 -3.942 1.111
v 3.094 -3.942 0.907
v 3.094 -4.255 0.0
v 3.094 -4.255 0.578
v 3.094 -3.695 0.0
usemtl Patch_33_Mat_CR2_concrete
f 166 167 168
f 167 166 169
f 169 166 170
f 170 171 172
f 171 170 173
f 173 170 166

# obj34
v -2.584 -0.046 2.988
v -1.284 -0.046 2.888
v -2.584 -0.046 2.888
v 0.016 -0.046 2.888
v 1.316 -0.046 2.888
v 2.649 -0.046 2.888
v 2.649 -0.046 2.988
usemtl Patch_34_Mat_CR2_ceiling
f 174 175 176
f 175 174 177
f 177 174 178
f 178 174 179
f 179 174 180

# obj35
v 1.316 -0.046 2.888
v 0.016 -0.246 2.888
v 0.016 -0.046 2.888
v 1.316 -0.246 2.888
usemtl Patch_35_Mat_CR2_ceiling
f 181 182 183
f 182 181 184

# obj36
v 3.094 -3.695 0.0
v 3.024 -3.695 0.658
v 2.564 -3.695 0.0
v 3.094 -3.695 2.988
v 2.489 -3.695 0.0
v 3.024 -3.695 0.78
v 2.564 -3.695 0.78
v 2.564 -3.695 0.658
v 2.489 -3.695 2.988
usemtl Patch_36_Mat_CR2_concrete
f 185 186 187
f 186 185 188
f 187 186 189
f 186 188 190
f 190 188 191
f 189 192 193
f 192 189 186
f 193 192 191
f 193 191 188

# obj37
v 2.519 -1.695 2.988
v 2.489 -3.695 0.0
v 2.489 -3.695 2.988
v 2.519 -1.695 0.0
usemtl Patch_37_Mat_CR2_concrete
f 194 195 196
f 195 194 197

# obj38
v 2.519 -1.695 2.988
v 3.132 -1.695 0.0
v 2.519 -1.695 0.0
v 3.132 -1.695 2.988
usemtl Patch_38_Mat_CR2_concrete
f 198 199 200
f 199 198 201

# obj39
v -1.616 -4.255 2.988
v 3.094 -4.255 0.0
v -1.616 -4.255 0.0
v 2.902 -4.255 0.578
v 2.902 -4.255 1.111
v 3.094 -4.255 1.111
v 3.094 -4.255 2.988
v 3.094 -4.255 0.578
usemtl Patch_39_Mat_CR2_plaster
f 202 203 204
f 203 202 205
f 205 202 206
f 206 202 207
f 207 202 208
f 209 203 205

# obj40
v -1.616 -2.891 0.0
v -1.616 -4.255 2.988
v -1.616 -4.255 0.0
v -1.616 -2.881 2.988
usemtl Patch_40_Mat_CR2_concrete
f 210 211 212
f 211 210 213

# obj41
v -2.884 4.189 0.0
v -2.884 3.785 2.5
v -2.884 3.785 0.0
v -2.884 -2.881 2.988
v -2.884 -2.891 2.5
v -2.884 4.189 2.988
usemtl Patch_41_Mat_CR2_concrete
f 214 215 216
f 215 217 218
f 217 215 219
f 219 215 214

# obj42
v -1.284 -0.046 2.888
v -2.584 -0.246 2.888
v -2.584 -0.046 2.888
v -1.284 -0.246 2.888
usemtl Patch_42_Mat_CR2_ceiling
f 220 221 222
f 221 220 223

# obj43
v -2.584 -0.046 2.988
v -2.584 -0.246 2.888
v -2.584 -0.246 2.988
v -2.584 -0.046 2.888
usemtl Patch_43_Mat_CR2_concrete
f 224 225 226
f 225 224 227

# obj44
v 2.499 -2.495 2.988
v 1.166 -2.495 2.888
v 2.499 -2.495 2.888
v -0.084 -2.495 2.888
v -1.334 -2.495 2.888
v -2.584 -2.495 2.888
v -2.584 -2.495 2.988
usemtl Patch_44_Mat_CR2_ceiling
f 228 229 230
f 229 228 231
f 231 228 232
f 232 228 233
f 233 228 234

# obj45
v 2.499 -2.295 2.888
v 2.499 -2.495 2.988
v 2.499 -2.495 2.888
v 2.499 -2.295 2.988
usemtl Patch_45_Mat_CR2_concrete
f 235 236 237
f 236 235 238

# obj46
v 2.649 -0.246 2.988
v 1.316 -0.246 2.888
v 2.649 -0.246 2.888
v 0.016 -0.246 2.888
v -1.284 -0.246 2.888
v -2.584 -0.246 2.888
v -2.584 -0.246 2.988
usemtl Patch_46_Mat_CR2_ceiling
f 239 240 241
f 240 239 242
f 242 239 243
f 243 239 244
f 244 239 245

# obj47
v -2.584 -2.295 2.988
v -2.584 -2.495 2.888
v -2.584 -2.495 2.988
v -2.584 -2.295 2.888
usemtl Patch_47_Mat_CR2_concrete
f 246 247 248
f 247 246 249

# obj48
v -2.584 -2.295 2.988
v -1.334 -2.295 2.888
v -2.584 -2.295 2.888
v -0.084 -2.295 2.888
v 1.166 -2.295 2.888
v 2.499 -2.295 2.888
v 2.499 -2.295 2.988
usemtl Patch_48_Mat_CR2_ceiling
f 250 251 252
f 251 250 253
f 253 250 254
f 254 250 255
f 255 250 256

# obj49
v 1.166 -2.295 2.888
v -0.084 -2.495 2.888
v -0.084 -2.295 2.888
v 1.166 -2.495 2.888
usemtl Patch_49_Mat_CR2_ceiling
f 257 258 259
f 258 257 260

# obj50
v 3.024 -3.695 0.658
v 2.564 -3.92 0.658
v 2.564 -3.695 0.658
v 2.564 -3.93 0.658
v 2.566 -3.94 0.658
v 2.57 -3.95 0.658
v 2.574 -3.96 0.658
v 2.58 -3.968 0.658
v 2.587 -3.976 0.658
v 2.595 -3.983 0.658
v 2.604 -3.989 0.658
v 2.613 -3.994 0.658
v 2.623 -3.997 0.658
v 2.633 -3.999 0.658
v 2.644 -4.0 0.658
v 2.944 -4.0 0.658
v 2.954 -3.999 0.658
v 2.964 -3.997 0.658
v 2.974 -3.994 0.658
v 2.984 -3.989 0.658
v 2.992 -3.983 0.658
v 3.0 -3.976 0.658
v 3.007 -3.968 0.658
v 3.013 -3.96 0.658
v 3.017 -3.95 0.658
v 3.021 -3.94 0.658
v 3.023 -3.93 0.658
v 3.024 -3.92 0.658
usemtl Patch_50_Mat_CR2_concrete
f 261 262 263
f 262 261 264
f 264 261 265
f 265 261 266
f 266 261 267
f 267 261 268
f 268 261 269
f 269 261 270
f 270 261 271
f 271 261 272
f 272 261 273
f 273 261 274
f 274 261 275
f 275 261 276
f 276 261 277
f 277 261 278
f 278 261 279
f 279 261 280
f 280 261 281
f 281 261 282
f 282 261 283
f 283 261 284
f 284 261 285
f 285 261 286
f 286 261 287
f 287 261 288

# obj51
v 0.016 -0.046 2.888
v -1.284 -0.246 2.888
v -1.284 -0.046 2.888
v 0.016 -0.246 2.888
usemtl Patch_51_Mat_CR2_ceiling
f 289 290 291
f 290 289 292

# obj52
v 3.094 -4.255 1.111
v 2.902 -3.942 1.111
v 2.902 -4.255 1.111
v 3.094 -3.942 1.111
usemtl Patch_52_Mat_CR2_concrete
f 293 294 295
f 294 293 296

# obj53
v 2.902 -3.942 1.111
v 2.902 -4.255 0.578
v 2.902 -4.255 1.111
v 2.902 -3.942 0.907
usemtl Patch_53_Mat_CR2_concrete
f 297 298 299
f 298 297 300

# obj54
v 2.902 -3.942 1.111
v 3.094 -3.942 0.907
v 2.902 -3.942 0.907
v 3.094 -3.942 1.111
usemtl Patch_54_Mat_CR2_concrete
f 301 302 303
f 302 301 304

# obj55
v 2.564 -3.695 0.78
v 2.564 -3.92 0.658
v 2.564 -3.92 0.78
v 2.564 -3.695 0.658
usemtl Patch_55_Mat_CR2_concrete
f 305 306 307
f 306 305 308

# obj56
v 2.564 -3.93 0.78
v 2.564 -3.695 0.78
v 2.564 -3.92 0.78
v 3.024 -3.695 0.78
v 2.566 -3.94 0.78
v 2.57 -3.95 0.78
v 2.574 -3.96 0.78
v 2.58 -3.968 0.78
v 2.587 -3.976 0.78
v 2.595 -3.983 0.78
v 2.604 -3.989 0.78
v 2.613 -3.994 0.78
v 2.623 -3.997 0.78
v 2.633 -3.999 0.78
v 2.644 -4.0 0.78
v 2.944 -4.0 0.78
v 2.954 -3.999 0.78
v 2.964 -3.997 0.78
v 2.974 -3.994 0.78
v 2.984 -3.989 0.78
v 2.992 -3.983 0.78
v 3.0 -3.976 0.78
v 3.007 -3.968 0.78
v 3.013 -3.96 0.78
v 3.017 -3.95 0.78
v 3.021 -3.94 0.78
v 3.023 -3.93 0.78
v 3.024 -3.92 0.78
usemtl Patch_56_Mat_CR2_concrete
f 310 309 312
f 312 309 313
f 312 313 314
f 312 314 315
f 312 315 316
f 312 316 317
f 312 317 318
f 312 318 319
f 312 319 320
f 312 320 321
f 312 321 322
f 312 322 323
f 312 323 324
f 312 324 325
f 312 325 326
f 312 326 327
f 312 327 328
f 312 328 329
f 312 329 330
f 312 330 331
f 312 331 332
f 312 332 333
f 312 333 334
f 312 334 335
f 312 335 336

# obj57
v 2.499 -2.295 2.888
v 1.166 -2.495 2.888
v 1.166 -2.295 2.888
v 2.499 -2.495 2.888
usemtl Patch_57_Mat_CR2_ceiling
f 337 338 339
f 338 337 340

# obj58
v 2.902 -3.942 0.907
v 3.094 -4.255 0.578
v 2.902 -4.255 0.578
v 3.094 -3.942 0.907
usemtl Patch_58_Mat_CR2_concrete
f 341 342 343
f 342 341 344

# obj59
v 2.649 -0.046 2.888
v 1.316 -0.246 2.888
v 1.316 -0.046 2.888
v 2.649 -0.246 2.888
usemtl Patch_59_Mat_CR2_ceiling
f 345 346 347
f 346 345 348

# obj60
v 2.649 -0.046 2.888
v 2.649 -0.246 2.988
v 2.649 -0.246 2.888
v 2.649 -0.046 2.988
usemtl Patch_60_Mat_CR2_concrete
f 349 350 351
f 350 349 352

# obj61
v 0.016 2.203 2.888
v -1.284 2.003 2.888
v -1.284 2.203 2.888
v 0.016 2.003 2.888
usemtl Patch_61_Mat_CR2_ceiling
f 353 354 355
f 354 353 356

# obj62
v 2.644 -4.0 0.78
v 2.633 -3.999 0.658
v 2.644 -4.0 0.658
v 2.633 -3.999 0.78
usemtl Patch_62_Mat_CR2_concrete
f 357 358 359
f 358 357 360

# obj63
v 2.604 -3.989 0.78
v 2.595 -3.983 0.658
v 2.604 -3.989 0.658
v 2.595 -3.983 0.78
usemtl Patch_63_Mat_CR2_concrete
f 361 362 363
f 362 361 364

# obj64
v 2.944 -4.0 0.78
v 2.644 -4.0 0.658
v 2.944 -4.0 0.658
v 2.644 -4.0 0.78
usemtl Patch_64_Mat_CR2_concrete
f 365 366 367
f 366 365 368

# obj65
v 2.613 -3.994 0.78
v 2.604 -3.989 0.658
v 2.613 -3.994 0.658
v 2.604 -3.989 0.78
usemtl Patch_65_Mat_CR2_concrete
f 369 370 371
f 370 369 372

# obj66
v 2.633 -3.999 0.78
v 2.623 -3.997 0.658
v 2.633 -3.999 0.658
v 2.623 -3.997 0.78
usemtl Patch_66_Mat_CR2_concrete
f 373 374 375
f 374 373 376

# obj67
v 2.623 -3.997 0.78
v 2.613 -3.994 0.658
v 2.623 -3.997 0.658
v 2.613 -3.994 0.78
usemtl Patch_67_Mat_CR2_concrete
f 377 378 379
f 378 377 380

# obj68
v 2.595 -3.983 0.78
v 2.587 -3.976 0.658
v 2.595 -3.983 0.658
v 2.587 -3.976 0.78
usemtl Patch_68_Mat_CR2_concrete
f 381 382 383
f 382 381 384

# obj69
v 2.58 -3.968 0.78
v 2.587 -3.976 0.658
v 2.587 -3.976 0.78
v 2.58 -3.968 0.658
usemtl Patch_69_Mat_CR2_concrete
f 385 386 387
f 386 385 388

# obj70
v 2.574 -3.96 0.78
v 2.58 -3.968 0.658
v 2.58 -3.968 0.78
v 2.574 -3.96 0.658
usemtl Patch_70_Mat_CR2_concrete
f 389 390 391
f 390 389 392

# obj71
v 2.57 -3.95 0.78
v 2.574 -3.96 0.658
v 2.574 -3.96 0.78
v 2.57 -3.95 0.658
usemtl Patch_71_Mat_CR2_concrete
f 393 394 395
f 394 393 396

# obj72
v 2.566 -3.94 0.78
v 2.57 -3.95 0.658
v 2.57 -3.95 0.78
v 2.566 -3.94 0.658
usemtl Patch_72_Mat_CR2_concrete
f 397 398 399
f 398 397 400

# obj73
v 2.564 -3.93 0.78
v 2.566 -3.94 0.658
v 2.566 -3.94 0.78
v 2.564 -3.93 0.658
usemtl Patch_73_Mat_CR2_concrete
f 401 402 403
f 402 401 404

# obj74
v 2.564 -3.92 0.78
v 2.564 -3.93 0.658
v 2.564 -3.93 0.78
v 2.564 -3.92 0.658
usemtl Patch_74_Mat_CR2_concrete
f 405 406 407
f 406 405 408

# obj75
v 1.261 4.307 0.0
v 1.261 4.189 2.568
v 1.261 4.189 0.0
v 1.261 4.307 0.45
v 1.261 4.337 2.568
v 1.261 4.337 0.45
usemtl Patch_75_Mat_CR2_concrete
f 409 410 411
f 410 409 412
f 410 412 413
f 413 412 414

# obj76
v 0.758 4.337 2.568
v -0.769 4.189 2.568
v -0.769 4.337 2.568
v 0.758 4.189 2.568
usemtl Patch_76_Mat_CR2_concrete
f 415 416 417
f 416 415 418

# obj77
v -2.829 4.307 0.0
v -2.829 4.189 2.568
v -2.829 4.189 0.0
v -2.829 4.307 0.45
v -2.829 4.337 2.568
v -2.829 4.337 0.45
usemtl Patch_77_Mat_CR2_concrete
f 419 420 421
f 420 419 422
f 420 422 423
f 423 422 424

# obj78
v 0.758 4.337 2.568
v 0.758 4.189 -0.0
v 0.758 4.189 2.568
v 0.758 4.307 0.45
v 0.758 4.337 0.45
v 0.758 4.307 -0.0
usemtl Patch_78_Mat_CR2_concrete
f 425 426 427
f 426 425 428
f 428 425 429
f 430 426 428

# obj79
v -1.297 4.337 2.568
v -1.297 4.189 0.0
v -1.297 4.189 2.568
v -1.297 4.307 0.45
v -1.297 4.337 0.45
v -1.297 4.307 0.0
usemtl Patch_79_Mat_CR2_concrete
f 431 432 433
f 432 431 434
f 434 431 435
f 436 432 434

# obj80
v -0.769 4.307 0.0
v -0.769 4.189 2.568
v -0.769 4.189 0.0
v -0.769 4.307 0.45
v -0.769 4.337 2.568
v -0.769 4.337 0.45
usemtl Patch_80_Mat_CR2_concrete
f 437 438 439
f 438 437 440
f 438 440 441
f 441 440 442

# obj81
v -1.297 4.337 2.568
v -2.829 4.189 2.568
v -2.829 4.337 2.568
v -1.297 4.189 2.568
usemtl Patch_81_Mat_CR2_concrete
f 443 444 445
f 444 443 446

# obj82
v 2.804 4.337 2.568
v 2.804 4.189 0.0
v 2.804 4.189 2.568
v 2.804 4.307 0.45
v 2.804 4.337 0.45
v 2.804 4.307 0.0
usemtl Patch_82_Mat_CR2_concrete
f 447 448 449
f 448 447 450
f 450 447 451
f 452 448 450

# obj83
v 0.758 4.337 2.568
v -0.769 4.337 0.45
v 0.758 4.337 0.45
v -0.769 4.337 2.568
usemtl Patch_83_Mat_CR2_windows
f 453 454 455
f 454 453 456

# obj84
v 2.869 4.189 2.988
v 2.804 4.189 0.0
v 2.869 4.189 0.0
v 2.804 4.189 2.568
v 1.261 4.189 2.568
v 0.758 4.189 2.568
v -0.769 4.189 2.568
v -1.297 4.189 2.568
v -2.829 4.189 2.568
v -2.884 4.189 0.0
v -2.829 4.189 0.0
v -2.884 4.189 2.988
v -0.769 4.189 0.0
v -1.297 4.189 0.0
v 1.261 4.189 0.0
v 0.758 4.189 -0.0
usemtl Patch_84_Mat_CR2_concrete
f 457 458 459
f 458 457 460
f 460 457 461
f 461 457 462
f 462 457 463
f 463 457 464
f 464 457 465
f 465 466 467
f 466 465 468
f 468 465 457
f 469 464 470
f 464 469 463
f 471 462 472
f 462 471 461

# obj85
v 2.992 -3.983 0.78
v 2.984 -3.989 0.658
v 2.992 -3.983 0.658
v 2.984 -3.989 0.78
usemtl Patch_85_Mat_CR2_concrete
f 473 474 475
f 474 473 476

# obj86
v 2.649 2.203 2.888
v 1.316 2.003 2.888
v 1.316 2.203 2.888
v 2.649 2.003 2.888
usemtl Patch_86_Mat_CR2_ceiling
f 477 478 479
f 478 477 480

# obj87
v -1.334 -2.295 2.888
v -2.584 -2.495 2.888
v -2.584 -2.295 2.888
v -1.334 -2.495 2.888
usemtl Patch_87_Mat_CR2_ceiling
f 481 482 483
f 482 481 484

# obj88
v -0.084 -2.295 2.888
v -1.334 -2.495 2.888
v -1.334 -2.295 2.888
v -0.084 -2.495 2.888
usemtl Patch_88_Mat_CR2_ceiling
f 485 486 487
f 486 485 488

# obj89
v -1.284 2.203 2.888
v -2.584 2.003 2.888
v -2.584 2.203 2.888
v -1.284 2.003 2.888
usemtl Patch_89_Mat_CR2_ceiling
f 489 490 491
f 490 489 492

# obj90
v 3.017 -3.95 0.658
v 3.013 -3.96 0.78
v 3.013 -3.96 0.658
v 3.017 -3.95 0.78
usemtl Patch_90_Mat_CR2_concrete
f 493 494 495
f 494 493 496

# obj91
v 2.964 -3.997 0.78
v 2.954 -3.999 0.658
v 2.964 -3.997 0.658
v 2.954 -3.999 0.78
usemtl Patch_91_Mat_CR2_concrete
f 497 498 499
f 498 497 500

# obj92
v 2.984 -3.989 0.78
v 2.974 -3.994 0.658
v 2.984 -3.989 0.658
v 2.974 -3.994 0.78
usemtl Patch_92_Mat_CR2_concrete
f 501 502 503
f 502 501 504

# obj93
v 3.013 -3.96 0.658
v 3.007 -3.968 0.78
v 3.007 -3.968 0.658
v 3.013 -3.96 0.78
usemtl Patch_93_Mat_CR2_concrete
f 505 506 507
f 506 505 508

# obj94
v 3.0 -3.976 0.78
v 2.992 -3.983 0.658
v 3.0 -3.976 0.658
v 2.992 -3.983 0.78
usemtl Patch_94_Mat_CR2_concrete
f 509 510 511
f 510 509 512

# obj95
v 3.023 -3.93 0.658
v 3.021 -3.94 0.78
v 3.021 -3.94 0.658
v 3.023 -3.93 0.78
usemtl Patch_95_Mat_CR2_concrete
f 513 514 515
f 514 513 516

# obj96
v 3.021 -3.94 0.658
v 3.017 -3.95 0.78
v 3.017 -3.95 0.658
v 3.021 -3.94 0.78
usemtl Patch_96_Mat_CR2_concrete
f 517 518 519
f 518 517 520

# obj97
v 1.316 2.203 2.888
v 0.016 2.003 2.888
v 0.016 2.203 2.888
v 1.316 2.003 2.888
usemtl Patch_97_Mat_CR2_ceiling
f 521 522 523
f 522 521 524

# obj98
v 2.974 -3.994 0.78
v 2.964 -3.997 0.658
v 2.974 -3.994 0.658
v 2.964 -3.997 0.78
usemtl Patch_98_Mat_CR2_concrete
f 525 526 527
f 526 525 528

# obj99
v 3.007 -3.968 0.658
v 3.0 -3.976 0.78
v 3.0 -3.976 0.658
v 3.007 -3.968 0.78
usemtl Patch_99_Mat_CR2_concrete
f 529 530 531
f 530 529 532

# obj100
v 3.024 -3.92 0.658
v 3.023 -3.93 0.78
v 3.023 -3.93 0.658
v 3.024 -3.92 0.78
usemtl Patch_100_Mat_CR2_concrete
f 533 534 535
f 534 533 536

# obj101
v 2.954 -3.999 0.78
v 2.944 -4.0 0.658
v 2.954 -3.999 0.658
v 2.944 -4.0 0.78
usemtl Patch_101_Mat_CR2_concrete
f 537 538 539
f 538 537 540

# obj102
v -1.297 4.337 2.568
v -2.829 4.337 0.45
v -1.297 4.337 0.45
v -2.829 4.337 2.568
usemtl Patch_102_Mat_CR2_windows
f 541 542 543
f 542 541 544

# obj103
v -2.584 2.003 2.988
v -1.514 1.112 2.988
v -2.584 -0.046 2.988
v 2.649 2.003 2.988
v -1.234 1.112 2.988
v -1.234 0.832 2.988
v 0.028 1.112 2.988
v 0.308 1.112 2.988
v 0.308 0.832 2.988
v 1.576 1.112 2.988
v 1.856 1.112 2.988
v 1.856 0.832 2.988
v -2.584 -2.295 2.988
v -1.514 -1.435 2.988
v 2.499 -2.295 2.988
v -1.514 -1.155 2.988
v -1.234 -1.435 2.988
v 0.028 -1.435 2.988
v 0.028 -1.155 2.988
v 0.308 -1.435 2.988
v 1.576 -1.435 2.988
v 1.576 -1.155 2.988
v 1.856 -1.435 2.988
v 2.869 4.189 2.988
v -2.584 2.203 2.988
v -2.884 4.189 2.988
v 2.649 2.203 2.988
v 2.649 -0.046 2.988
v 2.649 -0.246 2.988
v -2.584 -0.246 2.988
v -1.234 -1.155 2.988
v 0.308 -1.155 2.988
v 1.856 -1.155 2.988
v 2.519 -1.695 2.988
v 2.499 -2.495 2.988
v 3.132 -1.695 2.988
v 2.869 3.815 2.988
v 3.154 3.811 2.988
v -1.514 0.832 2.988
v 0.028 0.832 2.988
v 1.576 0.832 2.988
v -2.884 -2.881 2.988
v -2.584 -2.495 2.988
v -1.616 -2.881 2.988
v -1.616 -4.255 2.988
v 2.489 -3.695 2.988
v 3.094 -4.255 2.988
v 3.094 -3.695 2.988
usemtl Patch_103_Mat_CR2_ceiling
f 545 546 547
f 546 545 548
f 546 548 549
f 549 548 550
f 550 548 551
f 551 548 552
f 552 548 553
f 553 548 554
f 554 548 555
f 555 548 556
f 557 558 559
f 558 557 560
f 559 558 561
f 559 561 562
f 562 561 563
f 559 562 564
f 559 564 565
f 565 564 566
f 559 565 567
f 568 569 570
f 569 568 571
f 571 568 548
f 548 568 572
f 572 568 573
f 574 560 557
f 560 574 573
f 560 573 575
f 575 573 561
f 561 573 563
f 563 573 576
f 576 573 564
f 564 573 566
f 566 573 577
f 577 573 567
f 567 573 578
f 567 578 559
f 559 578 579
f 578 573 580
f 580 573 581
f 581 573 568
f 580 581 582
f 547 583 572
f 583 547 546
f 572 583 550
f 572 550 584
f 584 550 551
f 572 584 553
f 572 553 585
f 585 553 554
f 572 585 556
f 572 556 548
f 586 587 588
f 587 586 570
f 587 570 569
f 588 587 579
f 588 579 589
f 589 579 590
f 590 579 578
f 590 591 589
f 591 590 592

# obj104
v 1.856 1.112 2.863
v 1.576 0.832 2.863
v 1.576 1.112 2.863
v 1.856 0.832 2.863
usemtl Patch_104_Mat_CR2_ceiling
f 593 594 595
f 594 593 596

# obj105
v 1.856 0.832 2.988
v 1.576 0.832 2.863
v 1.856 0.832 2.863
v 1.576 0.832 2.988
usemtl Patch_105_Mat_CR2_ceiling
f 597 598 599
f 598 597 600

# obj106
v 1.576 1.112 2.988
v 1.576 0.832 2.863
v 1.576 0.832 2.988
v 1.576 1.112 2.863
usemtl Patch_106_Mat_CR2_ceiling
f 601 602 603
f 602 601 604

# obj107
v 1.576 1.112 2.988
v 1.856 1.112 2.863
v 1.576 1.112 2.863
v 1.856 1.112 2.988
usemtl Patch_107_Mat_CR2_ceiling
f 605 606 607
f 606 605 608

# obj108
v 1.856 1.112 2.863
v 1.856 0.832 2.988
v 1.856 0.832 2.863
v 1.856 1.112 2.988
usemtl Patch_108_Mat_CR2_concrete
f 609 610 611
f 610 609 612

# obj109
v 0.308 1.112 2.863
v 0.028 0.832 2.863
v 0.028 1.112 2.863
v 0.308 0.832 2.863
usemtl Patch_109_Mat_CR2_ceiling
f 613 614 615
f 614 613 616

# obj110
v 0.308 0.832 2.988
v 0.028 0.832 2.863
v 0.308 0.832 2.863
v 0.028 0.832 2.988
usemtl Patch_110_Mat_CR2_ceiling
f 617 618 619
f 618 617 620

# obj111
v 0.028 1.112 2.988
v 0.028 0.832 2.863
v 0.028 0.832 2.988
v 0.028 1.112 2.863
usemtl Patch_111_Mat_CR2_ceiling
f 621 622 623
f 622 621 624

# obj112
v 0.028 1.112 2.988
v 0.308 1.112 2.863
v 0.028 1.112 2.863
v 0.308 1.112 2.988
usemtl Patch_112_Mat_CR2_ceiling
f 625 626 627
f 626 625 628

# obj113
v 0.308 1.112 2.863
v 0.308 0.832 2.988
v 0.308 0.832 2.863
v 0.308 1.112 2.988
usemtl Patch_113_Mat_CR2_ceiling
f 629 630 631
f 630 629 632

# obj114
v -1.234 1.112 2.863
v -1.514 0.832 2.863
v -1.514 1.112 2.863
v -1.234 0.832 2.863
usemtl Patch_114_Mat_CR2_ceiling
f 633 634 635
f 634 633 636

# obj115
v -1.234 0.832 2.988
v -1.514 0.832 2.863
v -1.234 0.832 2.863
v -1.514 0.832 2.988
usemtl Patch_115_Mat_CR2_ceiling
f 637 638 639
f 638 637 640

# obj116
v -1.514 1.112 2.988
v -1.514 0.832 2.863
v -1.514 0.832 2.988
v -1.514 1.112 2.863
usemtl Patch_116_Mat_CR2_ceiling
f 641 642 643
f 642 641 644

# obj117
v -1.514 1.112 2.988
v -1.234 1.112 2.863
v -1.514 1.112 2.863
v -1.234 1.112 2.988
usemtl Patch_117_Mat_CR2_ceiling
f 645 646 647
f 646 645 648

# obj118
v -1.234 1.112 2.863
v -1.234 0.832 2.988
v -1.234 0.832 2.863
v -1.234 1.112 2.988
usemtl Patch_118_Mat_CR2_ceiling
f 649 650 651
f 650 649 652

# obj119
v 1.856 -1.155 2.863
v 1.576 -1.435 2.863
v 1.576 -1.155 2.863
v 1.856 -1.435 2.863
usemtl Patch_119_Mat_CR2_ceiling
f 653 654 655
f 654 653 656

# obj120
v 1.856 -1.435 2.988
v 1.576 -1.435 2.863
v 1.856 -1.435 2.863
v 1.576 -1.435 2.988
usemtl Patch_120_Mat_CR2_ceiling
f 657 658 659
f 658 657 660

# obj121
v 1.576 -1.155 2.988
v 1.576 -1.435 2.863
v 1.576 -1.435 2.988
v 1.576 -1.155 2.863
usemtl Patch_121_Mat_CR2_ceiling
f 661 662 663
f 662 661 664

# obj122
v 1.576 -1.155 2.988
v 1.856 -1.155 2.863
v 1.576 -1.155 2.863
v 1.856 -1.155 2.988
usemtl Patch_122_Mat_CR2_ceiling
f 665 666 667
f 666 665 668

# obj123
v 1.856 -1.155 2.863
v 1.856 -1.435 2.988
v 1.856 -1.435 2.863
v 1.856 -1.155 2.988
usemtl Patch_123_Mat_CR2_concrete
f 669 670 671
f 670 669 672

# obj124
v 0.308 -1.155 2.863
v 0.028 -1.435 2.863
v 0.028 -1.155 2.863
v 0.308 -1.435 2.863
usemtl Patch_124_Mat_CR2_ceiling
f 673 674 675
f 674 673 676

# obj125
v 0.308 -1.435 2.988
v 0.028 -1.435 2.863
v 0.308 -1.435 2.863
v 0.028 -1.435 2.988
usemtl Patch_125_Mat_CR2_ceiling
f 677 678 679
f 678 677 680

# obj126
v 0.028 -1.155 2.988
v 0.028 -1.435 2.863
v 0.028 -1.435 2.988
v 0.028 -1.155 2.863
usemtl Patch_126_Mat_CR2_ceiling
f 681 682 683
f 682 681 684

# obj127
v 0.028 -1.155 2.988
v 0.308 -1.155 2.863
v 0.028 -1.155 2.863
v 0.308 -1.155 2.988
usemtl Patch_127_Mat_CR2_ceiling
f 685 686 687
f 686 685 688

# obj128
v 0.308 -1.155 2.863
v 0.308 -1.435 2.988
v 0.308 -1.435 2.863
v 0.308 -1.155 2.988
usemtl Patch_128_Mat_CR2_ceiling
f 689 690 691
f 690 689 692

# obj129
v -1.234 -1.155 2.863
v -1.514 -1.435 2.863
v -1.514 -1.155 2.863
v -1.234 -1.435 2.863
usemtl Patch_129_Mat_CR2_ceiling
f 693 694 695
f 694 693 696

# obj130
v -1.234 -1.435 2.988
v -1.514 -1.435 2.863
v -1.234 -1.435 2.863
v -1.514 -1.435 2.988
usemtl Patch_130_Mat_CR2_ceiling
f 697 698 699
f 698 697 700

# obj131
v -1.514 -1.155 2.988
v -1.514 -1.435 2.863
v -1.514 -1.435 2.988
v -1.514 -1.155 2.863
usemtl Patch_131_Mat_CR2_ceiling
f 701 702 703
f 702 701 704

# obj132
v -1.514 -1.155 2.988
v -1.234 -1.155 2.863
v -1.514 -1.155 2.863
v -1.234 -1.155 2.988
usemtl Patch_132_Mat_CR2_ceiling
f 705 706 707
f 706 705 708

# obj133
v -1.234 -1.155 2.863
v -1.234 -1.435 2.988
v -1.234 -1.435 2.863
v -1.234 -1.155 2.988
usemtl Patch_133_Mat_CR2_ceiling
f 709 710 711
f 710 709 712

# obj134
v -1.297 4.307 0.45
v -2.829 4.307 0.0
v -1.297 4.307 0.0
v -2.829 4.307 0.45
usemtl Patch_134_Mat_CR2_concrete
f 713 714 715
f 714 713 716

# obj135
v -1.297 4.307 0.45
v -2.829 4.337 0.45
v -2.829 4.307 0.45
v -1.297 4.337 0.45
usemtl Patch_135_Mat_CR2_concrete
f 717 718 719
f 718 717 720

# obj136
v 0.758 4.307 0.45
v -0.769 4.307 0.0
v 0.758 4.307 -0.0
v -0.769 4.307 0.45
usemtl Patch_136_Mat_CR2_concrete
f 721 722 723
f 722 721 724

# obj137
v 0.758 4.307 0.45
v -0.769 4.337 0.45
v -0.769 4.307 0.45
v 0.758 4.337 0.45
usemtl Patch_137_Mat_CR2_concrete
f 725 726 727
f 726 725 728

# obj138
v 2.804 4.307 0.45
v 1.261 4.307 0.0
v 2.804 4.307 0.0
v 1.261 4.307 0.45
usemtl Patch_138_Mat_CR2_concrete
f 729 730 731
f 730 729 732

# obj139
v 2.804 4.307 0.45
v 1.261 4.337 0.45
v 1.261 4.307 0.45
v 2.804 4.337 0.45
usemtl Patch_139_Mat_CR2_concrete
f 733 734 735
f 734 733 736

# obj140
v 1.267 4.242 0.595
v 1.267 4.082 0.15
v 1.267 4.082 0.595
v 1.267 4.242 0.15
usemtl Patch_140_Mat_CR2_concrete
f 737 738 739
f 738 737 740

# obj141
v 2.787 4.242 0.15
v 1.267 4.082 0.15
v 1.267 4.242 0.15
v 2.787 4.082 0.15
usemtl Patch_141_Mat_CR2_concrete
f 741 742 743
f 742 741 744

# obj142
v 2.787 4.082 0.595
v 1.267 4.082 0.15
v 2.787 4.082 0.15
v 1.267 4.082 0.595
usemtl Patch_142_Mat_CR2_concrete
f 745 746 747
f 746 745 748

# obj143
v 2.787 4.082 0.595
v 1.267 4.242 0.595
v 1.267 4.082 0.595
v 2.787 4.242 0.595
usemtl Patch_143_Mat_CR2_concrete
f 749 750 751
f 750 749 752

# obj144
v 1.267 4.242 0.595
v 2.787 4.242 0.15
v 1.267 4.242 0.15
v 2.787 4.242 0.595
usemtl Patch_144_Mat_CR2_concrete
f 753 754 755
f 754 753 756

# obj145
v 2.787 4.242 0.15
v 2.787 4.082 0.595
v 2.787 4.082 0.15
v 2.787 4.242 0.595
usemtl Patch_145_Mat_CR2_concrete
f 757 758 759
f 758 757 760

# obj146
v -2.884 -2.881 2.988
v -2.866 -2.891 2.5
v -2.884 -2.891 2.5
v -1.616 -2.881 2.988
usemtl Patch_146_Mat_CR2_plaster
f 761 762 763
f 762 761 764

# obj147
v -1.815 -2.891 2.02
v -2.875 -2.871 2.02
v -2.875 -2.891 2.02
v -1.815 -2.871 2.02
usemtl Patch_147_Mat_CR2_plaster
f 765 766 767
f 766 765 768

# obj148
v -1.815 -2.871 0.0
v -1.815 -2.891 2.02
v -1.815 -2.891 0.0
v -1.815 -2.871 2.02
usemtl Patch_148_Mat_CR2_plaster
f 769 770 771
f 770 769 772

# obj149
v -2.875 -2.871 2.02
v -1.815 -2.871 0.0
v -2.875 -2.871 0.0
v -1.815 -2.871 2.02
usemtl Patch_149_Mat_CR2_plaster
f 773 774 775
f 774 773 776

# obj150
v -2.875 -2.871 2.02
v -2.875 -2.891 0.0
v -2.875 -2.891 2.02
v -2.875 -2.871 0.0
usemtl Patch_150_Mat_CR2_plaster
f 777 778 779
f 778 777 780

# obj151
v -3.036 -2.891 2.5
v -2.875 -2.891 0.0
v -3.036 -2.891 0.0
v -2.875 -2.891 2.02
v -2.884 -2.891 2.5
usemtl Patch_151_Mat_CR2_plaster
f 781 782 783
f 782 781 784
f 784 781 785

# obj152
v -2.884 -2.891 2.5
v -1.815 -2.891 2.02
v -2.875 -2.891 2.02
v -2.866 -2.891 2.5
usemtl Patch_152_Mat_CR2_plaster
f 786 787 788
f 787 786 789

# obj153
v -1.616 -2.881 2.988
v -1.815 -2.891 2.02
v -2.866 -2.891 2.5
usemtl Patch_153_Mat_CR2_plaster
f 790 791 792

# obj154
v -1.616 -2.881 2.988
v -1.616 -2.891 0.0
v -1.815 -2.891 2.02
usemtl Patch_154_Mat_CR2_plaster
f 793 794 795

# obj155
v -1.815 -2.891 2.02
v -1.616 -2.891 0.0
v -1.815 -2.891 0.0
usemtl Patch_155_Mat_CR2_plaster
f 796 797 798
