mtllib mesh.mtl

v 4.805 -4.938 2.736
v 6.102 -5.275 2.736
v 6.102 -3.906 2.736
v 6.102 -3.906 2.736
v 4.759 -3.906 2.736
v 4.805 -4.938 2.736
v 3.358 -4.853 2.736
v 4.251 -5.495 2.736
v 4.805 -4.938 2.736
v 3.358 -4.853 2.736
v 4.759 -3.906 2.736
v 3.368 -3.906 2.736
v 4.759 -3.906 2.736
v 3.358 -4.853 2.736
v 4.805 -4.938 2.736
v 4.805 -4.938 2.736
v 4.251 -5.495 2.736
v 4.253 -6.160 2.736
v 4.805 -4.938 2.736
v 6.102 -6.160 2.736
v 6.102 -5.275 2.736
v 6.102 -6.160 2.736
v 4.805 -4.938 2.736
v 4.253 -6.160 2.736
v 1.905 -4.934 2.736
v 2.407 -5.461 2.736
v 3.358 -4.853 2.736
v 3.358 -4.853 2.736
v 3.368 -3.906 2.736
v 1.944 -3.906 2.736
v 1.944 -3.906 2.736
v 1.905 -4.934 2.736
v 3.358 -4.853 2.736
v 2.401 -6.160 2.736
v 3.358 -4.853 2.736
v 2.407 -5.461 2.736
v 3.358 -4.853 2.736
v 2.401 -6.160 2.736
v 4.253 -6.160 2.736
v 3.358 -4.853 2.736
v 4.253 -6.160 2.736
v 4.251 -5.495 2.736
v 1.905 -4.934 2.736
v 1.944 -3.906 2.736
v 0.571 -3.906 2.736
v 0.571 -3.906 2.736
v 0.571 -5.250 2.736
v 1.905 -4.934 2.736
v 0.571 -6.160 2.736
v 1.905 -4.934 2.736
v 0.571 -5.250 2.736
v 1.905 -4.934 2.736
v 0.571 -6.160 2.736
v 2.401 -6.160 2.736
v 1.905 -4.934 2.736
v 2.401 -6.160 2.736
v 2.407 -5.461 2.736
v 1.930 0.930 2.736
v 0.571 0.930 2.736
v 0.571 0.930 2.276
v 0.571 0.930 2.276
v 1.931 0.930 2.276
v 1.930 0.930 2.736
v 1.931 0.930 2.276
v 3.301 0.930 2.276
v 3.301 0.930 2.736
v 3.301 0.930 2.736
v 1.930 0.930 2.736
v 1.931 0.930 2.276
v 3.301 0.930 2.736
v 4.691 0.930 2.276
v 4.693 0.930 2.736
v 4.691 0.930 2.276
v 3.301 0.930 2.736
v 3.301 0.930 2.276
v 4.693 0.930 2.736
v 6.102 0.930 2.276
v 6.102 0.930 2.736
v 6.102 0.930 2.276
v 4.693 0.930 2.736
v 4.691 0.930 2.276
v 4.950 0.499 2.276
v 6.102 0.499 2.276
v 6.102 0.930 2.276
v 6.102 0.930 2.276
v 4.950 0.930 2.276
v 4.950 0.499 2.276
v 4.950 0.930 2.276
v 3.840 0.930 2.276
v 3.840 0.499 2.276
v 3.840 0.499 2.276
v 4.950 0.499 2.276
v 4.950 0.930 2.276
v 3.840 0.499 2.276
v 2.735 0.930 2.276
v 2.734 0.499 2.276
v 2.735 0.930 2.276
v 3.840 0.499 2.276
v 3.840 0.930 2.276
v 2.734 0.499 2.276
v 1.639 0.930 2.276
v 1.639 0.499 2.276
v 1.639 0.930 2.276
v 2.734 0.499 2.276
v 2.735 0.930 2.276
v 1.639 0.499 2.276
v 0.571 0.930 2.276
v 0.571 0.499 2.276
v 0.571 0.930 2.276
v 1.639 0.499 2.276
v 1.639 0.930 2.276
v 4.691 0.499 2.736
v 6.102 0.499 2.736
v 6.102 0.499 2.276
v 6.102 0.499 2.276
v 4.690 0.499 2.276
v 4.691 0.499 2.736
v 4.690 0.499 2.276
v 3.301 0.499 2.276
v 3.301 0.499 2.736
v 3.301 0.499 2.736
v 4.691 0.499 2.736
v 4.690 0.499 2.276
v 3.301 0.499 2.736
v 1.935 0.499 2.276
v 1.934 0.499 2.736
v 1.935 0.499 2.276
v 3.301 0.499 2.736
v 3.301 0.499 2.276
v 1.934 0.499 2.736
v 0.571 0.499 2.276
v 0.571 0.499 2.736
v 0.571 0.499 2.276
v 1.934 0.499 2.736
v 1.935 0.499 2.276
v 4.586 0.930 2.736
v 6.102 0.930 2.736
v 6.102 1.903 2.736
v 6.102 1.903 2.736
v 4.640 2.037 2.736
v 4.586 0.930 2.736
v 4.586 0.930 2.736
v 3.227 2.167 2.736
v 3.172 0.930 2.736
v 3.227 2.167 2.736
v 4.586 0.930 2.736
v 4.640 2.037 2.736
v 3.172 0.930 2.736
v 1.894 2.290 2.736
v 1.821 0.930 2.736
v 1.894 2.290 2.736
v 3.172 0.930 2.736
v 3.227 2.167 2.736
v 1.894 2.290 2.736
v 0.571 2.411 2.736
v 0.571 0.930 2.736
v 0.571 0.930 2.736
v 1.821 0.930 2.736
v 1.894 2.290 2.736
v 1.981 -3.483 2.736
v 0.571 -3.483 2.736
v 0.571 -3.483 2.276
v 0.571 -3.483 2.276
v 1.981 -3.483 2.276
v 1.981 -3.483 2.736
v 1.981 -3.483 2.276
v 3.370 -3.483 2.276
v 3.369 -3.483 2.736
v 3.369 -3.483 2.736
v 1.981 -3.483 2.736
v 1.981 -3.483 2.276
v 3.369 -3.483 2.736
v 4.737 -3.483 2.276
v 4.738 -3.483 2.736
v 4.737 -3.483 2.276
v 3.369 -3.483 2.736
v 3.370 -3.483 2.276
v 4.738 -3.483 2.736
v 6.102 -3.483 2.276
v 6.102 -3.483 2.736
v 6.102 -3.483 2.276
v 4.738 -3.483 2.736
v 4.737 -3.483 2.276
v 4.990 -3.906 2.276
v 6.102 -3.906 2.276
v 6.102 -3.483 2.276
v 6.102 -3.483 2.276
v 4.990 -3.483 2.276
v 4.990 -3.906 2.276
v 4.990 -3.483 2.276
v 3.885 -3.483 2.276
v 3.886 -3.906 2.276
v 3.886 -3.906 2.276
v 4.990 -3.906 2.276
v 4.990 -3.483 2.276
v 3.886 -3.906 2.276
v 2.776 -3.483 2.276
v 2.775 -3.906 2.276
v 2.776 -3.483 2.276
v 3.886 -3.906 2.276
v 3.885 -3.483 2.276
v 2.775 -3.906 2.276
v 1.678 -3.483 2.276
v 1.679 -3.906 2.276
v 1.678 -3.483 2.276
v 2.775 -3.906 2.276
v 2.776 -3.483 2.276
v 1.678 -3.483 2.276
v 0.571 -3.483 2.276
v 0.571 -3.906 2.276
v 0.571 -3.906 2.276
v 1.679 -3.906 2.276
v 1.678 -3.483 2.276
v 4.743 -3.906 2.736
v 6.102 -3.906 2.736
v 6.102 -3.906 2.276
v 6.102 -3.906 2.276
v 4.742 -3.906 2.276
v 4.743 -3.906 2.736
v 4.742 -3.906 2.276
v 3.372 -3.906 2.276
v 3.372 -3.906 2.736
v 3.372 -3.906 2.736
v 4.743 -3.906 2.736
v 4.742 -3.906 2.276
v 3.372 -3.906 2.736
v 1.982 -3.906 2.276
v 1.980 -3.906 2.736
v 1.982 -3.906 2.276
v 3.372 -3.906 2.736
v 3.372 -3.906 2.276
v 1.980 -3.906 2.736
v 0.571 -3.906 2.276
v 0.571 -3.906 2.736
v 0.571 -3.906 2.276
v 1.980 -3.906 2.736
v 1.982 -3.906 2.276
v 5.066 -0.844 2.736
v 6.102 -0.929 2.736
v 6.102 0.499 2.736
v 6.102 0.499 2.736
v 4.977 0.499 2.736
v 5.066 -0.844 2.736
v 3.930 -0.881 2.736
v 4.708 -1.110 2.736
v 5.066 -0.844 2.736
v 3.930 -0.881 2.736
v 4.977 0.499 2.736
v 3.907 0.499 2.736
v 4.977 0.499 2.736
v 3.930 -0.881 2.736
v 5.066 -0.844 2.736
v 4.800 -2.122 2.736
v 4.269 -2.639 2.736
v 4.291 -3.483 2.736
v 4.800 -2.122 2.736
v 6.102 -3.483 2.736
v 6.102 -2.379 2.736
v 6.102 -3.483 2.736
v 4.800 -2.122 2.736
v 4.291 -3.483 2.736
v 5.066 -0.844 2.736
v 4.708 -1.110 2.736
v 4.800 -2.122 2.736
v 4.800 -2.122 2.736
v 6.102 -2.379 2.736
v 6.102 -0.929 2.736
v 6.102 -0.929 2.736
v 5.066 -0.844 2.736
v 4.800 -2.122 2.736
v 2.799 -0.922 2.736
v 3.305 -1.187 2.736
v 3.930 -0.881 2.736
v 3.930 -0.881 2.736
v 3.907 0.499 2.736
v 2.806 0.499 2.736
v 2.806 0.499 2.736
v 2.799 -0.922 2.736
v 3.930 -0.881 2.736
v 3.930 -0.881 2.736
v 3.305 -1.187 2.736
v 3.334 -2.101 2.736
v 3.334 -2.101 2.736
v 4.269 -2.639 2.736
v 4.800 -2.122 2.736
v 4.800 -2.122 2.736
v 4.708 -1.110 2.736
v 3.930 -0.881 2.736
v 3.930 -0.881 2.736
v 3.334 -2.101 2.736
v 4.800 -2.122 2.736
v 1.632 -0.833 2.736
v 1.755 0.499 2.736
v 0.571 0.499 2.736
v 0.571 0.499 2.736
v 0.571 -0.893 2.736
v 1.632 -0.833 2.736
v 2.799 -0.922 2.736
v 1.976 -1.112 2.736
v 1.830 -2.119 2.736
v 1.830 -2.119 2.736
v 2.415 -2.699 2.736
v 3.334 -2.101 2.736
v 3.334 -2.101 2.736
v 3.305 -1.187 2.736
v 2.799 -0.922 2.736
v 2.799 -0.922 2.736
v 1.830 -2.119 2.736
v 3.334 -2.101 2.736
v 1.632 -0.833 2.736
v 1.976 -1.112 2.736
v 2.799 -0.922 2.736
v 2.799 -0.922 2.736
v 2.806 0.499 2.736
v 1.755 0.499 2.736
v 1.755 0.499 2.736
v 1.632 -0.833 2.736
v 2.799 -0.922 2.736
v 1.830 -2.119 2.736
v 1.976 -1.112 2.736
v 1.632 -0.833 2.736
v 1.830 -2.119 2.736
v 0.571 -0.893 2.736
v 0.571 -2.363 2.736
v 0.571 -0.893 2.736
v 1.830 -2.119 2.736
v 1.632 -0.833 2.736
v 2.396 -3.483 2.736
v 3.334 -2.101 2.736
v 2.415 -2.699 2.736
v 3.334 -2.101 2.736
v 2.396 -3.483 2.736
v 4.291 -3.483 2.736
v 3.334 -2.101 2.736
v 4.291 -3.483 2.736
v 4.269 -2.639 2.736
v 0.571 -3.483 2.736
v 1.830 -2.119 2.736
v 0.571 -2.363 2.736
v 2.415 -2.699 2.736
v 0.571 -3.483 2.736
v 2.396 -3.483 2.736
v 0.571 -3.483 2.736
v 2.415 -2.699 2.736
v 1.830 -2.119 2.736
v -6.251 -3.648 1.100
v -5.196 -3.648 2.768
v -6.251 -3.648 2.768
v -4.955 -3.648 1.219
v -6.251 -3.648 1.100
v -5.044 -3.648 1.100
v -5.196 -3.648 2.768
v -6.251 -3.648 1.100
v -4.955 -3.648 1.219
v -5.196 -3.648 2.768
v -3.804 -3.648 1.545
v -3.869 -3.648 2.768
v -3.804 -3.648 1.545
v -5.196 -3.648 2.768
v -4.955 -3.648 1.219
v -3.663 -3.648 1.100
v -4.522 -3.648 1.100
v -4.522 -3.648 0.000
v -4.522 -3.648 0.000
v -3.564 -3.648 -0.000
v -3.663 -3.648 1.100
v -4.522 -3.648 1.100
v -3.804 -3.648 1.545
v -4.955 -3.648 1.219
v -4.955 -3.648 1.219
v -5.044 -3.648 1.100
v -4.522 -3.648 1.100
v -3.804 -3.648 1.545
v -3.663 -3.648 1.100
v -3.696 -3.648 1.475
v -3.663 -3.648 1.100
v -3.804 -3.648 1.545
v -4.522 -3.648 1.100
v -3.869 -3.648 2.768
v -3.696 -3.648 1.475
v -2.640 -3.648 1.490
v -2.640 -3.648 1.490
v -2.410 -3.648 2.768
v -3.869 -3.648 2.768
v -3.696 -3.648 1.475
v -3.869 -3.648 2.768
v -3.804 -3.648 1.545
v -1.258 -3.648 1.100
v -0.000 -3.648 1.100
v -0.000 -3.648 2.768
v -0.000 -3.648 2.768
v -1.279 -3.648 2.768
v -1.258 -3.648 1.100
v -2.640 -3.648 1.490
v -3.696 -3.648 1.475
v -3.663 -3.648 1.100
v -3.663 -3.648 1.100
v -2.298 -3.648 1.100
v -2.640 -3.648 1.490
v -3.564 -3.648 -0.000
v -2.803 -3.648 -0.000
v -2.803 -3.648 1.100
v -2.803 -3.648 1.100
v -3.663 -3.648 1.100
v -3.564 -3.648 -0.000
v -2.640 -3.648 1.490
v -2.298 -3.648 1.100
v -1.258 -3.648 1.100
v -2.640 -3.648 1.490
v -1.279 -3.648 2.768
v -2.410 -3.648 2.768
v -1.279 -3.648 2.768
v -2.640 -3.648 1.490
v -1.258 -3.648 1.100
v -1.318 0.930 2.768
v 0.000 0.930 2.768
v -0.000 2.523 2.768
v -0.000 2.523 2.768
v -1.173 2.630 2.768
v -1.318 0.930 2.768
v -4.912 2.112 2.768
v -3.878 1.678 2.768
v -3.211 2.816 2.768
v -3.211 2.816 2.768
v -5.105 2.989 2.768
v -4.912 2.112 2.768
v -1.173 2.630 2.768
v -2.523 2.753 2.768
v -2.407 0.930 2.768
v -2.407 0.930 2.768
v -1.318 0.930 2.768
v -1.173 2.630 2.768
v -3.878 1.678 2.768
v -4.912 2.112 2.768
v -5.716 0.930 2.768
v -5.716 0.930 2.768
v -3.694 0.930 2.768
v -3.878 1.678 2.768
v -2.523 2.753 2.768
v -3.211 2.816 2.768
v -3.878 1.678 2.768
v -3.878 1.678 2.768
v -3.694 0.930 2.768
v -2.407 0.930 2.768
v -2.407 0.930 2.768
v -2.523 2.753 2.768
v -3.878 1.678 2.768
v -4.912 2.112 2.768
v -5.105 2.989 2.768
v -6.251 3.094 2.768
v -4.912 2.112 2.768
v -6.251 0.930 2.768
v -5.716 0.930 2.768
v -6.251 0.930 2.768
v -4.912 2.112 2.768
v -6.251 3.094 2.768
v -6.251 1.864 1.440
v -6.251 1.927 2.768
v -6.251 3.094 2.768
v -6.251 3.094 2.768
v -6.251 3.094 1.100
v -6.251 2.323 1.100
v -6.251 2.323 1.100
v -6.251 1.864 1.440
v -6.251 3.094 2.768
v -6.251 2.156 1.100
v -6.251 1.864 1.440
v -6.251 2.323 1.100
v -6.251 2.156 1.100
v -6.251 2.156 0.000
v -6.251 0.911 0.000
v -6.251 1.864 1.440
v -6.251 2.156 1.100
v -6.251 0.950 1.243
v -6.251 2.156 1.100
v -6.251 0.911 0.000
v -6.251 0.950 1.243
v -6.251 -0.345 1.250
v -6.251 0.511 1.567
v -6.251 0.950 1.243
v -6.251 -0.345 1.250
v -6.251 0.911 0.000
v -6.251 -0.343 -0.000
v -6.251 0.911 0.000
v -6.251 -0.345 1.250
v -6.251 0.950 1.243
v -6.251 0.930 2.276
v -6.251 0.950 1.243
v -6.251 0.511 1.567
v -6.251 0.511 1.567
v -6.251 0.544 2.276
v -6.251 0.930 2.276
v -6.251 0.930 2.276
v -6.251 0.930 2.768
v -6.251 1.927 2.768
v -6.251 0.950 1.243
v -6.251 0.930 2.276
v -6.251 1.864 1.440
v -6.251 1.864 1.440
v -6.251 0.930 2.276
v -6.251 1.927 2.768
v -6.251 -1.683 1.225
v -6.251 -0.914 1.578
v -6.251 -0.345 1.250
v -6.251 -0.345 1.250
v -6.251 -0.343 -0.000
v -6.251 -1.661 0.000
v -6.251 -1.661 0.000
v -6.251 -1.683 1.225
v -6.251 -0.345 1.250
v -6.251 0.499 2.276
v -6.251 -0.345 1.250
v -6.251 -0.914 1.578
v -6.251 0.499 2.276
v -6.251 -0.914 2.768
v -6.251 0.499 2.768
v -6.251 0.499 2.276
v -6.251 0.544 2.276
v -6.251 0.511 1.567
v -6.251 -0.914 2.768
v -6.251 0.499 2.276
v -6.251 -0.914 1.578
v -6.251 -0.345 1.250
v -6.251 0.499 2.276
v -6.251 0.511 1.567
v -6.251 -3.053 1.100
v -6.251 -1.683 1.225
v -6.251 -1.661 0.000
v -6.251 -1.661 0.000
v -6.251 -3.053 0.000
v -6.251 -3.053 1.100
v -6.251 -3.053 1.100
v -6.251 -3.143 1.100
v -6.251 -2.289 1.539
v -6.251 -1.683 1.225
v -6.251 -3.053 1.100
v -6.251 -2.289 1.539
v -6.251 -0.914 1.578
v -6.251 -1.683 1.225
v -6.251 -2.289 1.539
v -6.251 -2.289 1.539
v -6.251 -2.375 2.768
v -6.251 -0.914 2.768
v -6.251 -0.914 2.768
v -6.251 -0.914 1.578
v -6.251 -2.289 1.539
v -6.251 -3.648 2.768
v -6.251 -3.143 1.100
v -6.251 -3.648 1.100
v -6.251 -2.289 1.539
v -6.251 -3.648 2.768
v -6.251 -2.375 2.768
v -6.251 -3.648 2.768
v -6.251 -2.289 1.539
v -6.251 -3.143 1.100
v -1.285 0.499 2.768
v 0.000 0.499 2.768
v 0.000 0.499 2.276
v 0.000 0.499 2.276
v -1.287 0.499 2.276
v -1.285 0.499 2.768
v -1.287 0.499 2.276
v -2.555 0.499 2.276
v -2.556 0.499 2.768
v -2.556 0.499 2.768
v -1.285 0.499 2.768
v -1.287 0.499 2.276
v -2.556 0.499 2.768
v -3.802 0.499 2.276
v -3.802 0.499 2.768
v -3.802 0.499 2.276
v -2.556 0.499 2.768
v -2.555 0.499 2.276
v -3.802 0.499 2.768
v -5.025 0.499 2.276
v -5.025 0.499 2.768
v -5.025 0.499 2.276
v -3.802 0.499 2.768
v -3.802 0.499 2.276
v -5.025 0.499 2.768
v -6.251 0.499 2.276
v -6.251 0.499 2.768
v -6.251 0.499 2.276
v -5.025 0.499 2.768
v -5.025 0.499 2.276
v -1.265 0.499 2.276
v 0.000 0.499 2.276
v -0.000 0.930 2.276
v -0.000 0.930 2.276
v -1.266 0.930 2.276
v -1.265 0.499 2.276
v -1.266 0.930 2.276
v -2.527 0.930 2.276
v -2.528 0.499 2.276
v -2.528 0.499 2.276
v -1.265 0.499 2.276
v -1.266 0.930 2.276
v -2.528 0.499 2.276
v -3.807 0.930 2.276
v -3.806 0.499 2.276
v -3.807 0.930 2.276
v -2.528 0.499 2.276
v -2.527 0.930 2.276
v -3.807 0.930 2.276
v -5.055 0.930 2.276
v -5.055 0.499 2.276
v -5.055 0.499 2.276
v -3.806 0.499 2.276
v -3.807 0.930 2.276
v -5.055 0.499 2.276
v -6.251 0.930 2.276
v -6.251 0.499 2.276
v -6.251 0.930 2.276
v -5.055 0.499 2.276
v -5.055 0.930 2.276
v -4.939 0.930 2.276
v -6.251 0.930 2.768
v -6.251 0.930 2.276
v -6.251 0.930 2.768
v -4.939 0.930 2.276
v -4.939 0.930 2.768
v -4.939 0.930 2.768
v -3.648 0.930 2.276
v -3.649 0.930 2.768
v -3.648 0.930 2.276
v -4.939 0.930 2.768
v -4.939 0.930 2.276
v -3.649 0.930 2.768
v -2.394 0.930 2.276
v -2.393 0.930 2.768
v -2.394 0.930 2.276
v -3.649 0.930 2.768
v -3.648 0.930 2.276
v -2.394 0.930 2.276
v -1.182 0.930 2.276
v -1.184 0.930 2.768
v -1.184 0.930 2.768
v -2.393 0.930 2.768
v -2.394 0.930 2.276
v -1.182 0.930 2.276
v -0.000 0.930 2.276
v -0.000 0.930 2.768
v -0.000 0.930 2.768
v -1.184 0.930 2.768
v -1.182 0.930 2.276
v -1.244 -0.844 2.768
v -0.501 -1.711 2.768
v 0.000 -1.756 2.768
v -1.244 -0.844 2.768
v -0.000 0.499 2.768
v -0.531 0.499 2.768
v -0.000 0.499 2.768
v -1.244 -0.844 2.768
v 0.000 -1.756 2.768
v -1.244 -0.844 2.768
v -2.090 -0.818 2.768
v -2.335 -1.055 2.768
v -1.244 -0.844 2.768
v -2.251 -2.123 2.768
v -1.490 -2.468 2.768
v -1.490 -2.468 2.768
v -0.501 -1.711 2.768
v -1.244 -0.844 2.768
v -2.251 -2.123 2.768
v -1.244 -0.844 2.768
v -2.335 -1.055 2.768
v -2.266 0.499 2.768
v -1.244 -0.844 2.768
v -0.531 0.499 2.768
v -1.244 -0.844 2.768
v -2.266 0.499 2.768
v -2.090 -0.818 2.768
v -2.266 0.499 2.768
v -3.478 0.499 2.768
v -3.534 -0.905 2.768
v -3.534 -0.905 2.768
v -2.335 -1.055 2.768
v -2.090 -0.818 2.768
v -2.090 -0.818 2.768
v -2.266 0.499 2.768
v -3.534 -0.905 2.768
v 0.000 -3.648 2.768
v -1.490 -2.468 2.768
v -1.316 -3.648 2.768
v -0.501 -1.711 2.768
v 0.000 -3.648 2.768
v 0.000 -1.756 2.768
v -1.490 -2.468 2.768
v 0.000 -3.648 2.768
v -0.501 -1.711 2.768
v -3.731 -2.157 2.768
v -3.534 -0.905 2.768
v -3.674 -1.014 2.768
v -2.251 -2.123 2.768
v -3.731 -2.157 2.768
v -3.020 -2.604 2.768
v -3.731 -2.157 2.768
v -2.335 -1.055 2.768
v -3.534 -0.905 2.768
v -2.335 -1.055 2.768
v -3.731 -2.157 2.768
v -2.251 -2.123 2.768
v -4.869 -0.831 2.768
v -3.674 -1.014 2.768
v -3.534 -0.905 2.768
v -4.869 -0.831 2.768
v -3.478 0.499 2.768
v -4.862 0.499 2.768
v -3.478 0.499 2.768
v -4.869 -0.831 2.768
v -3.534 -0.905 2.768
v -3.731 -2.157 2.768
v -4.869 -0.831 2.768
v -5.018 -0.952 2.768
v -3.731 -2.157 2.768
v -5.036 -2.219 2.768
v -4.636 -2.528 2.768
v -4.869 -0.831 2.768
v -3.731 -2.157 2.768
v -3.674 -1.014 2.768
v -3.731 -2.157 2.768
v -5.018 -0.952 2.768
v -5.036 -2.219 2.768
v -1.490 -2.468 2.768
v -2.251 -2.123 2.768
v -3.020 -2.604 2.768
v -1.490 -2.468 2.768
v -3.019 -3.648 2.768
v -1.316 -3.648 2.768
v -3.019 -3.648 2.768
v -1.490 -2.468 2.768
v -3.020 -2.604 2.768
v -5.018 -0.952 2.768
v -4.869 -0.831 2.768
v -4.862 0.499 2.768
v -5.018 -0.952 2.768
v -6.251 0.499 2.768
v -6.251 -0.860 2.768
v -6.251 0.499 2.768
v -5.018 -0.952 2.768
v -4.862 0.499 2.768
v -5.036 -2.219 2.768
v -5.018 -0.952 2.768
v -6.251 -0.860 2.768
v -6.251 -0.860 2.768
v -6.251 -2.409 2.768
v -5.036 -2.219 2.768
v -4.644 -3.648 2.768
v -3.731 -2.157 2.768
v -4.636 -2.528 2.768
v -3.020 -2.604 2.768
v -4.644 -3.648 2.768
v -3.019 -3.648 2.768
v -4.644 -3.648 2.768
v -3.020 -2.604 2.768
v -3.731 -2.157 2.768
v -6.251 -3.648 2.768
v -5.036 -2.219 2.768
v -6.251 -2.409 2.768
v -5.036 -2.219 2.768
v -6.251 -3.648 2.768
v -4.644 -3.648 2.768
v -5.036 -2.219 2.768
v -4.644 -3.648 2.768
v -4.636 -2.528 2.768
v -1.141 2.627 2.768
v 0.000 2.523 2.768
v 0.000 2.523 1.100
v 0.000 2.523 1.100
v -1.314 2.643 1.100
v -1.141 2.627 2.768
v -1.141 2.627 2.768
v -1.423 2.653 1.100
v -2.508 2.752 1.534
v -2.508 2.752 1.534
v -2.476 2.749 2.768
v -1.141 2.627 2.768
v -1.423 2.653 1.100
v -1.141 2.627 2.768
v -1.314 2.643 1.100
v -1.677 2.676 1.100
v -2.508 2.752 1.534
v -1.423 2.653 1.100
v -1.677 2.676 1.100
v -1.677 2.676 0.000
v -3.031 2.800 0.000
v -2.508 2.752 1.534
v -1.677 2.676 1.100
v -3.055 2.802 1.217
v -1.677 2.676 1.100
v -3.031 2.800 0.000
v -3.055 2.802 1.217
v -5.124 2.990 2.768
v -4.505 2.934 1.100
v -5.008 2.980 1.100
v -3.782 2.868 1.511
v -5.124 2.990 2.768
v -3.862 2.875 2.768
v -5.124 2.990 2.768
v -3.782 2.868 1.511
v -4.505 2.934 1.100
v -2.508 2.752 1.534
v -3.055 2.802 1.217
v -3.782 2.868 1.511
v -3.782 2.868 1.511
v -3.862 2.875 2.768
v -2.476 2.749 2.768
v -2.476 2.749 2.768
v -2.508 2.752 1.534
v -3.782 2.868 1.511
v -4.416 2.926 1.100
v -3.055 2.802 1.217
v -3.031 2.800 0.000
v -3.031 2.800 0.000
v -4.416 2.926 0.000
v -4.416 2.926 1.100
v -4.416 2.926 1.100
v -4.505 2.934 1.100
v -3.782 2.868 1.511
v -3.055 2.802 1.217
v -4.416 2.926 1.100
v -3.782 2.868 1.511
v -5.124 2.990 2.768
v -6.251 3.093 1.100
v -6.251 3.093 2.768
v -6.251 3.093 1.100
v -5.124 2.990 2.768
v -5.008 2.980 1.100
v 6.102 0.930 2.276
v 6.102 1.903 1.209
v 6.102 1.903 2.736
v 6.102 1.903 2.736
v 6.102 0.930 2.736
v 6.102 0.930 2.276
v 6.102 0.930 2.276
v 6.102 0.659 2.276
v 6.102 0.659 1.445
v 6.102 1.903 1.209
v 6.102 0.930 2.276
v 6.102 0.659 1.445
v 6.102 0.499 2.276
v 6.102 0.290 1.133
v 6.102 0.659 1.445
v 6.102 0.659 1.445
v 6.102 0.659 2.276
v 6.102 0.499 2.276
v 6.102 0.499 2.276
v 6.102 0.499 2.736
v 6.102 -0.673 2.736
v 6.102 0.290 1.133
v 6.102 0.499 2.276
v 6.102 -0.718 1.515
v 6.102 -0.718 1.515
v 6.102 0.499 2.276
v 6.102 -0.673 2.736
v 6.102 0.659 1.445
v 6.102 0.290 1.133
v 6.102 0.285 0.050
v 6.102 0.659 1.445
v 6.102 1.903 0.050
v 6.102 1.903 1.209
v 6.102 1.903 0.050
v 6.102 0.659 1.445
v 6.102 0.285 0.050
v 6.102 -2.090 1.567
v 6.102 -1.288 1.149
v 6.102 -0.718 1.515
v 6.102 -2.090 1.567
v 6.102 -0.673 2.736
v 6.102 -2.101 2.736
v 6.102 -0.673 2.736
v 6.102 -2.090 1.567
v 6.102 -0.718 1.515
v 6.102 -1.300 0.050
v 6.102 -0.718 1.515
v 6.102 -1.288 1.149
v 6.102 -0.718 1.515
v 6.102 -1.300 0.050
v 6.102 0.285 0.050
v 6.102 -0.718 1.515
v 6.102 0.285 0.050
v 6.102 0.290 1.133
v 6.102 -1.288 1.149
v 6.102 -2.090 1.567
v 6.102 -2.872 1.130
v 6.102 -2.872 1.130
v 6.102 -2.852 0.050
v 6.102 -1.300 0.050
v 6.102 -1.300 0.050
v 6.102 -1.288 1.149
v 6.102 -2.872 1.130
v 6.102 -3.483 2.276
v 6.102 -2.872 1.130
v 6.102 -2.090 1.567
v 6.102 -3.483 2.276
v 6.102 -2.101 2.736
v 6.102 -3.483 2.736
v 6.102 -3.483 2.276
v 6.102 -3.572 2.276
v 6.102 -3.523 1.538
v 6.102 -2.101 2.736
v 6.102 -3.483 2.276
v 6.102 -2.090 1.567
v 6.102 -2.872 1.130
v 6.102 -3.483 2.276
v 6.102 -3.523 1.538
v 6.102 -2.872 1.130
v 6.102 -3.523 1.538
v 6.102 -4.494 1.042
v 6.102 -4.494 1.042
v 6.102 -4.499 0.050
v 6.102 -2.852 0.050
v 6.102 -2.852 0.050
v 6.102 -2.872 1.130
v 6.102 -4.494 1.042
v 6.102 -4.976 1.446
v 6.102 -4.847 2.736
v 6.102 -6.160 2.736
v 6.102 -6.160 2.736
v 6.102 -6.160 1.262
v 6.102 -4.976 1.446
v 6.102 -3.906 2.276
v 6.102 -4.494 1.042
v 6.102 -3.523 1.538
v 6.102 -3.523 1.538
v 6.102 -3.572 2.276
v 6.102 -3.906 2.276
v 6.102 -3.906 2.276
v 6.102 -3.906 2.736
v 6.102 -4.847 2.736
v 6.102 -4.494 1.042
v 6.102 -3.906 2.276
v 6.102 -4.976 1.446
v 6.102 -4.976 1.446
v 6.102 -3.906 2.276
v 6.102 -4.847 2.736
v 6.102 -6.160 0.050
v 6.102 -4.976 1.446
v 6.102 -6.160 1.262
v 6.102 -4.976 1.446
v 6.102 -6.160 0.050
v 6.102 -4.499 0.050
v 6.102 -4.976 1.446
v 6.102 -4.499 0.050
v 6.102 -4.494 1.042
v 1.853 -6.160 1.361
v 1.993 -6.160 1.489
v 1.996 -6.160 2.736
v 1.853 -6.160 1.361
v 0.571 -6.160 2.736
v 0.571 -6.160 1.440
v 0.571 -6.160 2.736
v 1.853 -6.160 1.361
v 1.996 -6.160 2.736
v 1.993 -6.160 1.489
v 3.202 -6.160 1.310
v 3.393 -6.160 1.477
v 3.393 -6.160 1.477
v 3.403 -6.160 2.736
v 1.996 -6.160 2.736
v 1.996 -6.160 2.736
v 1.993 -6.160 1.489
v 3.393 -6.160 1.477
v 1.853 -6.160 1.361
v 0.571 -6.160 1.440
v 0.571 -6.160 0.050
v 0.571 -6.160 0.050
v 1.855 -6.160 0.050
v 1.853 -6.160 1.361
v 3.202 -6.160 1.310
v 1.993 -6.160 1.489
v 1.853 -6.160 1.361
v 3.202 -6.160 1.310
v 1.855 -6.160 0.050
v 3.192 -6.160 0.050
v 1.855 -6.160 0.050
v 3.202 -6.160 1.310
v 1.853 -6.160 1.361
v 3.393 -6.160 1.477
v 4.621 -6.160 1.291
v 4.764 -6.160 1.426
v 3.393 -6.160 1.477
v 4.761 -6.160 2.736
v 3.403 -6.160 2.736
v 4.761 -6.160 2.736
v 3.393 -6.160 1.477
v 4.764 -6.160 1.426
v 4.621 -6.160 1.291
v 3.393 -6.160 1.477
v 3.202 -6.160 1.310
v 4.621 -6.160 1.291
v 3.192 -6.160 0.050
v 4.622 -6.160 0.050
v 3.192 -6.160 0.050
v 4.621 -6.160 1.291
v 3.202 -6.160 1.310
v 4.764 -6.160 1.426
v 6.102 -6.160 1.347
v 6.102 -6.160 2.736
v 6.102 -6.160 2.736
v 4.761 -6.160 2.736
v 4.764 -6.160 1.426
v 4.764 -6.160 1.426
v 4.621 -6.160 1.291
v 4.622 -6.160 0.050
v 4.764 -6.160 1.426
v 6.102 -6.160 0.050
v 6.102 -6.160 1.347
v 6.102 -6.160 0.050
v 4.764 -6.160 1.426
v 4.622 -6.160 0.050
v -4.416 2.926 1.100
v -4.510 1.985 1.100
v -6.251 2.156 1.100
v -6.251 2.156 1.100
v -6.251 3.094 1.100
v -4.416 2.926 1.100
v -4.510 1.985 1.100
v -4.416 2.926 0.000
v -4.510 1.985 -0.000
v -4.416 2.926 0.000
v -4.510 1.985 1.100
v -4.416 2.926 1.100
v -6.251 2.156 1.100
v -4.510 1.985 1.100
v -4.510 1.985 -0.000
v -4.510 1.985 -0.000
v -6.251 2.156 -0.000
v -6.251 2.156 1.100
v -4.522 -3.053 0.000
v -6.251 -3.053 1.100
v -6.251 -3.053 -0.000
v -6.251 -3.053 1.100
v -4.522 -3.053 0.000
v -4.522 -3.053 1.100
v -5.388 -3.053 1.100
v -4.522 -3.053 1.100
v -4.522 -3.648 1.100
v -4.522 -3.648 1.100
v -5.389 -3.648 1.100
v -5.388 -3.053 1.100
v -5.389 -3.648 1.100
v -6.251 -3.648 1.100
v -6.251 -3.053 1.100
v -6.251 -3.053 1.100
v -5.388 -3.053 1.100
v -5.389 -3.648 1.100
v -4.522 -3.648 1.100
v -4.522 -3.053 0.000
v -4.522 -3.648 -0.000
v -4.522 -3.053 0.000
v -4.522 -3.648 1.100
v -4.522 -3.053 1.100
v 0.000 2.523 1.100
v -0.000 1.598 1.100
v -1.741 1.715 1.100
v -1.741 1.715 1.100
v -1.677 2.676 1.100
v 0.000 2.523 1.100
v -1.741 1.715 0.000
v 0.000 1.598 1.100
v 0.000 1.598 0.000
v 0.000 1.598 1.100
v -1.741 1.715 0.000
v -1.741 1.715 1.100
v -1.741 1.715 0.000
v -1.677 2.676 1.100
v -1.741 1.715 1.100
v -1.677 2.676 1.100
v -1.741 1.715 0.000
v -1.677 2.676 -0.000
v -5.442 1.479 1.000
v -5.442 1.479 0.000
v -5.442 -0.091 0.000
v -5.442 -0.091 0.000
v -5.442 -0.091 1.000
v -5.442 1.479 1.000
v -3.509 2.562 0.000
v -2.509 2.562 1.000
v -2.509 2.562 0.000
v -2.509 2.562 1.000
v -3.509 2.562 0.000
v -3.509 2.562 1.000
v -1.784 1.729 0.000
v -2.390 2.524 1.000
v -1.784 1.729 1.000
v -2.390 2.524 1.000
v -1.784 1.729 0.000
v -2.390 2.524 -0.000
v -5.318 1.607 -0.000
v -4.389 1.977 1.000
v -4.389 1.977 -0.000
v -4.389 1.977 1.000
v -5.318 1.607 -0.000
v -5.318 1.607 1.000
v -2.803 -3.648 0.000
v -2.803 -2.798 1.100
v -2.803 -3.648 1.100
v -2.803 -2.798 1.100
v -2.803 -3.648 0.000
v -2.803 -2.798 0.000
v -1.866 -2.798 -0.000
v -2.803 -2.798 1.100
v -2.803 -2.798 -0.000
v -2.803 -2.798 1.100
v -1.866 -2.798 -0.000
v -1.860 -2.798 1.100
v -1.860 -2.798 1.100
v -0.913 -2.798 0.000
v -0.913 -2.798 1.100
v -0.913 -2.798 0.000
v -1.860 -2.798 1.100
v -1.866 -2.798 -0.000
v -0.913 -2.798 1.100
v -0.913 -1.983 1.100
v 0.000 -1.983 1.100
v -0.913 -2.798 1.100
v -0.000 -3.648 1.100
v -1.149 -3.648 1.100
v -1.149 -3.648 1.100
v -1.355 -2.798 1.100
v -0.913 -2.798 1.100
v -0.000 -3.648 1.100
v -0.913 -2.798 1.100
v 0.000 -1.983 1.100
v -1.355 -2.798 1.100
v -2.803 -3.648 1.100
v -2.803 -2.798 1.100
v -2.803 -3.648 1.100
v -1.355 -2.798 1.100
v -1.149 -3.648 1.100
v -0.913 -2.798 0.000
v -0.913 -1.983 1.100
v -0.913 -2.798 1.100
v -0.913 -1.983 1.100
v -0.913 -2.798 0.000
v -0.913 -1.983 -0.000
v 0.000 -1.983 -0.000
v -0.913 -1.983 1.100
v -0.913 -1.983 -0.000
v -0.913 -1.983 1.100
v 0.000 -1.983 -0.000
v 0.000 -1.983 1.100
v -2.803 -2.798 0.000
v -2.709 -2.442 0.000
v -2.535 -2.798 0.000
v -4.522 -3.111 0.000
v -2.803 -3.648 0.000
v -4.522 -3.648 0.000
v -2.803 -2.798 0.000
v -4.522 -3.111 0.000
v -3.538 -2.165 0.000
v -2.709 -2.442 0.000
v -2.803 -2.798 0.000
v -3.538 -2.165 0.000
v -2.803 -3.648 0.000
v -4.522 -3.111 0.000
v -2.803 -2.798 0.000
v -4.522 -3.053 0.000
v -4.805 -3.053 0.000
v -5.127 -1.826 0.000
v -5.127 -1.826 0.000
v -4.676 -1.299 0.000
v -3.887 -1.426 0.000
v -4.522 -3.053 0.000
v -3.538 -2.165 0.000
v -4.522 -3.111 0.000
v -3.538 -2.165 0.000
v -5.127 -1.826 0.000
v -3.887 -1.426 0.000
v -5.127 -1.826 0.000
v -3.538 -2.165 0.000
v -4.522 -3.053 0.000
v -0.913 -1.983 0.000
v -2.142 -1.355 0.000
v -1.479 -1.298 0.000
v -1.479 -1.298 0.000
v -0.840 -1.983 0.000
v -0.913 -1.983 0.000
v -0.913 -1.983 0.000
v -0.913 -2.798 0.000
v -2.535 -2.798 0.000
v -0.913 -1.983 0.000
v -2.709 -2.442 0.000
v -2.142 -1.355 0.000
v -2.709 -2.442 0.000
v -0.913 -1.983 0.000
v -2.535 -2.798 0.000
v -3.183 -0.524 0.000
v -2.142 -1.355 0.000
v -3.887 -1.426 0.000
v -2.142 -1.355 0.000
v -3.183 -0.524 0.000
v -2.857 -0.521 0.000
v -3.538 -2.165 0.000
v -2.142 -1.355 0.000
v -2.709 -2.442 0.000
v -3.887 -1.426 0.000
v -2.142 -1.355 0.000
v -3.538 -2.165 0.000
v -5.127 -1.826 0.000
v -4.805 -3.053 0.000
v -6.251 -3.053 0.000
v -6.251 -3.053 0.000
v -6.251 -1.761 0.000
v -5.127 -1.826 0.000
v -3.887 -1.426 0.000
v -4.676 -1.299 0.000
v -4.995 -0.498 0.000
v -4.995 -0.498 0.000
v -4.688 0.089 0.000
v -3.839 0.185 0.000
v -3.839 0.185 0.000
v -3.183 -0.524 0.000
v -3.887 -1.426 0.000
v -3.887 -1.426 0.000
v -4.995 -0.498 0.000
v -3.839 0.185 0.000
v 0.000 -0.012 0.000
v -1.322 0.190 0.000
v -0.928 1.660 0.000
v -0.928 1.660 0.000
v 0.000 1.598 0.000
v 0.000 -0.012 0.000
v 0.000 -0.012 0.000
v -0.000 -0.221 0.000
v -0.971 -0.199 0.000
v -1.322 0.190 0.000
v 0.000 -0.012 0.000
v -0.971 -0.199 0.000
v -0.840 -1.983 0.000
v -0.971 -0.199 0.000
v -0.000 -0.221 0.000
v -0.000 -0.221 0.000
v 0.000 -1.983 0.000
v -0.840 -1.983 0.000
v -0.971 -0.199 0.000
v -0.840 -1.983 0.000
v -1.479 -1.298 0.000
v -4.995 -0.498 0.000
v -4.676 -1.299 0.000
v -5.127 -1.826 0.000
v -5.127 -1.826 0.000
v -6.251 -1.761 0.000
v -6.251 -0.518 0.000
v -6.251 -0.518 0.000
v -4.995 -0.498 0.000
v -5.127 -1.826 0.000
v -2.142 -1.355 0.000
v -2.857 -0.521 0.000
v -2.199 0.283 0.000
v -1.479 -1.298 0.000
v -1.322 0.190 0.000
v -0.971 -0.199 0.000
v -2.199 0.283 0.000
v -1.479 -1.298 0.000
v -2.142 -1.355 0.000
v -1.479 -1.298 0.000
v -2.199 0.283 0.000
v -1.322 0.190 0.000
v -2.857 -0.521 0.000
v -3.183 -0.524 0.000
v -3.839 0.185 0.000
v -2.582 1.187 0.000
v -3.461 1.274 0.000
v -3.195 1.396 0.000
v -3.839 0.185 0.000
v -2.582 1.187 0.000
v -2.199 0.283 0.000
v -2.199 0.283 0.000
v -2.857 -0.521 0.000
v -3.839 0.185 0.000
v -2.582 1.187 0.000
v -3.839 0.185 0.000
v -3.461 1.274 0.000
v -5.117 0.808 0.000
v -4.688 0.089 0.000
v -4.995 -0.498 0.000
v -5.117 0.808 0.000
v -6.251 -0.518 0.000
v -6.251 0.810 0.000
v -6.251 -0.518 0.000
v -5.117 0.808 0.000
v -4.995 -0.498 0.000
v -3.839 0.185 0.000
v -4.688 0.089 0.000
v -5.117 0.808 0.000
v -5.117 0.808 0.000
v -4.662 1.749 0.000
v -3.461 1.274 0.000
v -3.461 1.274 0.000
v -3.839 0.185 0.000
v -5.117 0.808 0.000
v -1.741 1.715 0.000
v -2.582 1.187 0.000
v -1.736 1.783 0.000
v -1.741 1.715 0.000
v -0.928 1.660 0.000
v -1.322 0.190 0.000
v -2.582 1.187 0.000
v -1.741 1.715 0.000
v -2.199 0.283 0.000
v -1.741 1.715 0.000
v -1.322 0.190 0.000
v -2.199 0.283 0.000
v -6.251 2.156 0.000
v -5.117 0.808 0.000
v -6.251 0.810 0.000
v -5.117 0.808 0.000
v -6.251 2.156 0.000
v -4.762 2.010 0.000
v -5.117 0.808 0.000
v -4.762 2.010 0.000
v -4.662 1.749 0.000
v -2.582 1.187 0.000
v -3.195 1.396 0.000
v -3.102 2.806 0.000
v -3.102 2.806 0.000
v -1.677 2.676 0.000
v -1.736 1.783 0.000
v -1.736 1.783 0.000
v -2.582 1.187 0.000
v -3.102 2.806 0.000
v -4.510 1.985 0.000
v -3.461 1.274 0.000
v -4.662 1.749 0.000
v -4.662 1.749 0.000
v -4.762 2.010 0.000
v -4.510 1.985 0.000
v -4.510 1.985 0.000
v -4.416 2.926 0.000
v -3.102 2.806 0.000
v -4.510 1.985 0.000
v -3.195 1.396 0.000
v -3.461 1.274 0.000
v -3.195 1.396 0.000
v -4.510 1.985 0.000
v -3.102 2.806 0.000
v -4.422 2.059 0.000
v -3.556 2.559 1.000
v -3.556 2.559 0.000
v -3.556 2.559 1.000
v -4.422 2.059 0.000
v -4.422 2.059 1.000
v 0.571 -1.488 1.109
v 0.571 -1.488 2.193
v 0.000 -1.488 2.193
v 0.000 -1.488 2.193
v 0.000 -1.488 1.108
v 0.571 -1.488 1.109
v 0.000 -1.488 1.108
v 0.000 -1.488 -0.000
v 0.571 -1.488 0.050
v 0.571 -1.488 0.050
v 0.571 -1.488 1.109
v 0.000 -1.488 1.108
v 0.571 -0.012 1.122
v 0.571 -0.012 0.050
v 0.676 -1.485 0.050
v 0.676 -1.485 0.050
v 0.676 -1.485 1.123
v 0.571 -0.012 1.122
v 0.676 -1.485 1.123
v 0.676 -1.485 2.195
v 0.571 -0.012 2.195
v 0.571 -0.012 2.195
v 0.571 -0.012 1.122
v 0.676 -1.485 1.123
v 0.000 2.523 2.768
v 0.000 2.351 1.100
v 0.000 2.523 1.100
v 0.000 0.930 2.276
v 0.000 2.523 2.768
v 0.000 0.930 2.768
v 0.000 0.930 2.276
v 0.000 0.846 2.276
v 0.000 0.794 1.848
v 0.000 2.351 1.100
v 0.000 2.523 2.768
v 0.000 0.930 2.276
v 0.000 2.351 1.100
v 0.000 0.930 2.276
v 0.000 0.794 1.848
v 0.000 1.598 1.100
v 0.000 0.602 1.656
v 0.000 1.066 0.000
v 0.000 1.066 0.000
v 0.000 1.598 0.000
v 0.000 1.598 1.100
v 0.000 1.598 1.100
v 0.000 2.351 1.100
v 0.000 0.794 1.848
v 0.000 0.602 1.656
v 0.000 1.598 1.100
v 0.000 0.794 1.848
v 0.000 -0.012 2.195
v 0.000 -0.012 1.447
v 0.000 0.602 1.656
v 0.000 0.499 2.276
v 0.000 0.794 1.848
v 0.000 0.846 2.276
v 0.000 -0.012 2.195
v 0.000 0.499 2.768
v 0.000 -1.341 2.768
v 0.000 -1.341 2.768
v 0.000 -1.095 2.194
v 0.000 -0.012 2.195
v 0.000 0.499 2.276
v 0.000 0.602 1.656
v 0.000 0.794 1.848
v 0.000 0.499 2.768
v 0.000 -0.012 2.195
v 0.000 0.499 2.276
v 0.000 0.602 1.656
v 0.000 0.499 2.276
v 0.000 -0.012 2.195
v 0.000 1.066 0.000
v 0.000 -0.012 1.447
v 0.000 -0.012 0.000
v 0.000 -0.012 1.447
v 0.000 1.066 0.000
v 0.000 0.602 1.656
v 0.000 -1.488 2.193
v 0.000 -2.689 1.100
v 0.000 -1.983 1.100
v 0.000 -1.983 1.100
v 0.000 -1.983 0.000
v 0.000 -1.488 0.000
v 0.000 -1.488 2.193
v 0.000 -1.095 2.194
v 0.000 -1.341 2.768
v 0.000 -2.689 1.100
v 0.000 -1.488 2.193
v 0.000 -2.017 2.768
v 0.000 -1.983 1.100
v 0.000 -1.488 0.000
v 0.000 -1.488 2.193
v 0.000 -2.017 2.768
v 0.000 -1.488 2.193
v 0.000 -1.341 2.768
v 0.000 -2.689 1.100
v 0.000 -3.648 2.768
v 0.000 -3.648 1.100
v 0.000 -3.648 2.768
v 0.000 -2.689 1.100
v 0.000 -2.017 2.768
v 4.751 2.027 1.400
v 4.765 2.026 2.736
v 6.102 1.903 2.736
v 6.102 1.903 2.736
v 6.102 1.903 1.376
v 4.751 2.027 1.400
v 4.751 2.027 1.400
v 4.722 2.030 1.372
v 3.399 2.151 1.432
v 3.399 2.151 1.432
v 3.385 2.153 2.736
v 4.765 2.026 2.736
v 4.765 2.026 2.736
v 4.751 2.027 1.400
v 3.399 2.151 1.432
v 6.102 1.903 0.050
v 4.751 2.027 1.400
v 6.102 1.903 1.376
v 4.751 2.027 1.400
v 6.102 1.903 0.050
v 4.709 2.031 0.050
v 4.751 2.027 1.400
v 4.709 2.031 0.050
v 4.722 2.030 1.372
v 3.324 2.158 1.357
v 3.399 2.151 1.432
v 4.722 2.030 1.372
v 3.324 2.158 1.357
v 4.709 2.031 0.050
v 3.340 2.157 0.050
v 4.709 2.031 0.050
v 3.324 2.158 1.357
v 4.722 2.030 1.372
v 0.571 2.411 2.736
v 1.958 2.284 1.385
v 0.571 2.411 1.407
v 1.958 2.284 1.385
v 0.571 2.411 2.736
v 1.997 2.280 2.736
v 1.958 2.284 1.385
v 1.997 2.280 2.736
v 1.990 2.281 1.417
v 1.958 2.284 1.385
v 1.990 2.281 1.417
v 3.324 2.158 1.357
v 3.324 2.158 1.357
v 3.340 2.157 0.050
v 1.948 2.285 0.050
v 1.948 2.285 0.050
v 1.958 2.284 1.385
v 3.324 2.158 1.357
v 3.399 2.151 1.432
v 3.324 2.158 1.357
v 1.990 2.281 1.417
v 3.399 2.151 1.432
v 1.997 2.280 2.736
v 3.385 2.153 2.736
v 1.997 2.280 2.736
v 3.399 2.151 1.432
v 1.990 2.281 1.417
v 1.958 2.284 1.385
v 1.948 2.285 0.050
v 0.571 2.411 0.050
v 0.571 2.411 0.050
v 0.571 2.411 1.407
v 1.958 2.284 1.385
v 4.812 -4.860 0.050
v 6.102 -4.838 0.050
v 6.102 -6.160 0.050
v 6.102 -6.160 0.050
v 4.602 -6.160 0.050
v 4.812 -4.860 0.050
v 4.602 -6.160 0.050
v 3.467 -6.160 0.050
v 3.274 -4.864 0.050
v 4.812 -4.860 0.050
v 3.670 -4.433 0.050
v 4.472 -4.452 0.050
v 3.274 -4.864 0.050
v 4.812 -4.860 0.050
v 4.602 -6.160 0.050
v 3.670 -4.433 0.050
v 4.812 -4.860 0.050
v 3.274 -4.864 0.050
v 4.812 -4.860 0.050
v 4.472 -4.452 0.050
v 4.928 -3.454 0.050
v 4.928 -3.454 0.050
v 6.102 -3.480 0.050
v 6.102 -4.838 0.050
v 6.102 -4.838 0.050
v 4.812 -4.860 0.050
v 4.928 -3.454 0.050
v 4.928 -3.454 0.050
v 3.670 -4.433 0.050
v 3.240 -3.412 0.050
v 3.240 -3.412 0.050
v 3.656 -2.785 0.050
v 4.512 -2.791 0.050
v 3.670 -4.433 0.050
v 4.928 -3.454 0.050
v 4.472 -4.452 0.050
v 4.928 -3.454 0.050
v 3.240 -3.412 0.050
v 4.512 -2.791 0.050
v 4.928 -3.454 0.050
v 4.512 -2.791 0.050
v 4.948 -2.033 0.050
v 4.928 -3.454 0.050
v 6.102 -2.027 0.050
v 6.102 -3.480 0.050
v 6.102 -2.027 0.050
v 4.928 -3.454 0.050
v 4.948 -2.033 0.050
v 1.944 -4.985 0.050
v 2.125 -4.773 0.050
v 3.274 -4.864 0.050
v 3.274 -4.864 0.050
v 3.467 -6.160 0.050
v 1.990 -6.160 0.050
v 1.990 -6.160 0.050
v 1.944 -4.985 0.050
v 3.274 -4.864 0.050
v 4.512 -2.791 0.050
v 3.656 -2.785 0.050
v 3.234 -1.988 0.050
v 4.948 -2.033 0.050
v 3.671 -1.193 0.050
v 4.506 -1.181 0.050
v 3.234 -1.988 0.050
v 4.948 -2.033 0.050
v 4.512 -2.791 0.050
v 3.671 -1.193 0.050
v 4.948 -2.033 0.050
v 3.234 -1.988 0.050
v 1.944 -4.985 0.050
v 1.990 -6.160 0.050
v 0.571 -6.160 0.050
v 0.571 -6.160 0.050
v 0.571 -4.925 0.050
v 1.944 -4.985 0.050
v 1.971 -3.740 0.050
v 3.274 -4.864 0.050
v 2.125 -4.773 0.050
v 3.240 -3.412 0.050
v 1.971 -3.740 0.050
v 2.185 -3.428 0.050
v 3.274 -4.864 0.050
v 3.240 -3.412 0.050
v 3.670 -4.433 0.050
v 1.971 -3.740 0.050
v 3.240 -3.412 0.050
v 3.274 -4.864 0.050
v 4.948 -2.033 0.050
v 4.506 -1.181 0.050
v 4.893 -0.626 0.050
v 4.948 -2.033 0.050
v 6.102 -0.616 0.050
v 6.102 -2.027 0.050
v 6.102 -0.616 0.050
v 4.948 -2.033 0.050
v 4.893 -0.626 0.050
v 4.893 -0.626 0.050
v 3.671 -1.193 0.050
v 3.230 -0.540 0.050
v 4.893 -0.626 0.050
v 3.626 0.428 0.050
v 4.522 0.459 0.050
v 3.671 -1.193 0.050
v 4.893 -0.626 0.050
v 4.506 -1.181 0.050
v 3.626 0.428 0.050
v 4.893 -0.626 0.050
v 3.230 -0.540 0.050
v 3.240 -3.412 0.050
v 2.185 -3.428 0.050
v 1.912 -2.519 0.050
v 1.912 -2.519 0.050
v 2.224 -1.976 0.050
v 3.234 -1.988 0.050
v 3.234 -1.988 0.050
v 3.656 -2.785 0.050
v 3.240 -3.412 0.050
v 3.240 -3.412 0.050
v 1.912 -2.519 0.050
v 3.234 -1.988 0.050
v 1.971 -3.740 0.050
v 2.125 -4.773 0.050
v 1.944 -4.985 0.050
v 1.971 -3.740 0.050
v 0.571 -4.925 0.050
v 0.571 -3.747 0.050
v 0.571 -4.925 0.050
v 1.971 -3.740 0.050
v 1.944 -4.985 0.050
v 1.912 -2.519 0.050
v 2.185 -3.428 0.050
v 1.971 -3.740 0.050
v 1.912 -2.519 0.050
v 0.571 -3.747 0.050
v 0.571 -2.499 0.050
v 0.571 -3.747 0.050
v 1.912 -2.519 0.050
v 1.971 -3.740 0.050
v 4.893 -0.626 0.050
v 4.522 0.459 0.050
v 4.734 0.702 0.050
v 4.893 -0.626 0.050
v 6.102 0.708 0.050
v 6.102 -0.616 0.050
v 6.102 0.708 0.050
v 4.893 -0.626 0.050
v 4.734 0.702 0.050
v 4.734 0.702 0.050
v 3.626 0.428 0.050
v 3.223 0.893 0.050
v 3.223 0.893 0.050
v 3.483 2.144 0.050
v 4.662 2.035 0.050
v 3.626 0.428 0.050
v 4.734 0.702 0.050
v 4.522 0.459 0.050
v 4.734 0.702 0.050
v 3.223 0.893 0.050
v 4.662 2.035 0.050
v 1.907 -0.028 0.050
v 2.211 -0.561 0.050
v 1.914 -1.261 0.050
v 1.914 -1.261 0.050
v 0.571 -1.273 0.050
v 0.571 -0.045 0.050
v 0.571 -0.045 0.050
v 1.907 -0.028 0.050
v 1.914 -1.261 0.050
v 1.876 1.200 0.050
v 0.571 1.142 0.050
v 0.571 2.411 0.050
v 0.571 2.411 0.050
v 2.045 2.276 0.050
v 1.876 1.200 0.050
v 1.914 -1.261 0.050
v 3.234 -1.988 0.050
v 2.224 -1.976 0.050
v 3.230 -0.540 0.050
v 1.914 -1.261 0.050
v 2.211 -0.561 0.050
v 3.234 -1.988 0.050
v 3.230 -0.540 0.050
v 3.671 -1.193 0.050
v 1.914 -1.261 0.050
v 3.230 -0.540 0.050
v 3.234 -1.988 0.050
v 4.734 0.702 0.050
v 4.662 2.035 0.050
v 6.102 1.903 0.050
v 6.102 1.903 0.050
v 6.102 0.708 0.050
v 4.734 0.702 0.050
v 1.914 -1.261 0.050
v 2.224 -1.976 0.050
v 1.912 -2.519 0.050
v 1.912 -2.519 0.050
v 0.571 -2.499 0.050
v 0.571 -1.488 0.050
v 0.571 -1.488 0.050
v 0.571 -1.273 0.050
v 1.914 -1.261 0.050
v 1.914 -1.261 0.050
v 1.912 -2.519 0.050
v 0.571 -1.488 0.050
v 3.223 0.893 0.050
v 2.151 0.821 0.050
v 1.876 1.200 0.050
v 3.223 0.893 0.050
v 2.045 2.276 0.050
v 3.483 2.144 0.050
v 2.045 2.276 0.050
v 3.223 0.893 0.050
v 1.876 1.200 0.050
v 3.230 -0.540 0.050
v 2.211 -0.561 0.050
v 1.907 -0.028 0.050
v 1.907 -0.028 0.050
v 2.151 0.821 0.050
v 3.223 0.893 0.050
v 3.223 0.893 0.050
v 3.626 0.428 0.050
v 3.230 -0.540 0.050
v 3.230 -0.540 0.050
v 1.907 -0.028 0.050
v 3.223 0.893 0.050
v 1.876 1.200 0.050
v 2.151 0.821 0.050
v 1.907 -0.028 0.050
v 1.907 -0.028 0.050
v 0.571 -0.045 0.050
v 0.571 -0.012 0.050
v 1.907 -0.028 0.050
v 0.571 1.142 0.050
v 1.876 1.200 0.050
v 0.571 1.142 0.050
v 1.907 -0.028 0.050
v 0.571 -0.012 0.050
v 0.000 -0.012 0.000
v 0.571 -1.488 0.050
v 0.000 -1.488 -0.000
v 0.571 -1.488 0.050
v 0.000 -0.012 0.000
v 0.571 -0.012 0.050
v 0.571 -1.488 0.050
v 0.571 -2.905 1.457
v 0.571 -1.488 1.322
v 0.571 -3.138 1.201
v 0.571 -1.488 0.050
v 0.571 -3.122 0.050
v 0.571 -2.905 1.457
v 0.571 -1.488 0.050
v 0.571 -3.138 1.201
v 0.571 -1.505 2.736
v 0.571 0.499 2.736
v 0.571 -0.012 2.195
v 0.571 -0.012 2.195
v 0.571 -1.366 2.193
v 0.571 -1.505 2.736
v 0.571 -4.676 1.343
v 0.571 -4.546 1.472
v 0.571 -3.138 1.201
v 0.571 -3.138 1.201
v 0.571 -3.122 0.050
v 0.571 -4.712 0.050
v 0.571 -4.712 0.050
v 0.571 -4.676 1.343
v 0.571 -3.138 1.201
v 0.571 -3.906 2.276
v 0.571 -3.138 1.201
v 0.571 -4.546 1.472
v 0.571 -3.906 2.276
v 0.571 -4.463 2.736
v 0.571 -3.906 2.736
v 0.571 -3.483 2.276
v 0.571 -3.483 2.736
v 0.571 -2.992 2.736
v 0.571 -4.463 2.736
v 0.571 -3.906 2.276
v 0.571 -4.546 1.472
v 0.571 -3.483 2.276
v 0.571 -2.992 2.736
v 0.571 -2.905 1.457
v 0.571 -3.483 2.276
v 0.571 -3.138 1.201
v 0.571 -3.906 2.276
v 0.571 -3.138 1.201
v 0.571 -3.483 2.276
v 0.571 -2.905 1.457
v 0.571 -1.488 2.193
v 0.571 -1.488 1.322
v 0.571 -2.905 1.457
v 0.571 -1.488 2.193
v 0.571 -2.992 2.736
v 0.571 -1.505 2.736
v 0.571 -1.505 2.736
v 0.571 -1.366 2.193
v 0.571 -1.488 2.193
v 0.571 -2.992 2.736
v 0.571 -1.488 2.193
v 0.571 -2.905 1.457
v 0.571 -4.676 1.343
v 0.571 -4.712 0.050
v 0.571 -6.160 0.050
v 0.571 -6.160 0.050
v 0.571 -6.160 1.477
v 0.571 -4.676 1.343
v 0.571 -6.160 2.736
v 0.571 -4.676 1.343
v 0.571 -6.160 1.477
v 0.571 -4.546 1.472
v 0.571 -6.160 2.736
v 0.571 -4.463 2.736
v 0.571 -4.676 1.343
v 0.571 -6.160 2.736
v 0.571 -4.546 1.472
v 0.571 1.156 1.209
v 0.571 1.337 1.420
v 0.571 2.411 1.458
v 0.571 1.156 1.209
v 0.571 2.411 0.050
v 0.571 1.284 0.050
v 0.571 2.411 0.050
v 0.571 1.156 1.209
v 0.571 2.411 1.458
v 0.571 1.337 1.420
v 0.571 0.975 2.736
v 0.571 2.411 2.736
v 0.571 2.411 2.736
v 0.571 2.411 1.458
v 0.571 1.337 1.420
v 0.571 1.156 1.209
v 0.571 1.284 0.050
v 0.571 -0.012 0.050
v 0.571 -0.012 0.050
v 0.571 -0.012 1.207
v 0.571 1.156 1.209
v 0.571 0.499 2.276
v 0.571 1.156 1.209
v 0.571 -0.012 1.207
v 0.571 0.499 2.276
v 0.571 -0.012 2.195
v 0.571 0.499 2.736
v 0.571 0.930 2.276
v 0.571 0.930 2.736
v 0.571 0.975 2.736
v 0.571 -0.012 2.195
v 0.571 0.499 2.276
v 0.571 -0.012 1.207
v 0.571 0.930 2.276
v 0.571 0.975 2.736
v 0.571 1.337 1.420
v 0.571 0.930 2.276
v 0.571 1.156 1.209
v 0.571 0.499 2.276
v 0.571 1.156 1.209
v 0.571 0.930 2.276
v 0.571 1.337 1.420
v -0.000 -0.012 1.115
v 0.571 -0.012 0.050
v -0.000 -0.012 0.000
v 0.571 -0.012 0.050
v -0.000 -0.012 1.115
v 0.571 -0.012 1.115
v 0.571 -0.012 1.115
v -0.000 -0.012 2.195
v 0.571 -0.012 2.195
v -0.000 -0.012 2.195
v 0.571 -0.012 1.115
v -0.000 -0.012 1.115
v 0.676 -1.485 1.125
v 0.676 -1.485 0.050
v 0.571 -0.012 0.050
v 0.571 -0.012 0.050
v 0.571 -0.012 1.125
v 0.676 -1.485 1.125
v 0.571 -0.012 1.125
v 0.571 -0.012 2.195
v 0.676 -1.485 2.195
v 0.676 -1.485 2.195
v 0.676 -1.485 1.125
v 0.571 -0.012 1.125
v -5.442 -0.091 0.000
v -5.442 1.479 0.000
v -5.442 1.479 1.000
v -5.442 1.479 1.000
v -5.442 -0.091 1.000
v -5.442 -0.091 0.000
v -2.509 2.562 0.000
v -2.509 2.562 1.000
v -3.509 2.562 1.000
v -3.509 2.562 1.000
v -3.509 2.562 0.000
v -2.509 2.562 0.000
v -1.784 1.729 1.000
v -2.390 2.524 1.000
v -2.390 2.524 0.000
v -2.390 2.524 0.000
v -1.784 1.729 0.000
v -1.784 1.729 1.000
v -5.318 1.607 1.000
v -4.389 1.977 0.000
v -4.389 1.977 1.000
v -4.389 1.977 0.000
v -5.318 1.607 1.000
v -5.318 1.607 0.000
v -4.422 2.059 1.000
v -3.556 2.559 0.000
v -3.556 2.559 1.000
v -3.556 2.559 0.000
v -4.422 2.059 1.000
v -4.422 2.059 0.000

usemtl Patch_1_Mat_CR1_paintedConcrete
f 3 2 1
f 6 5 4

usemtl Patch_2_Mat_CR1_paintedConcrete
f 9 8 7
f 12 11 10
f 15 14 13

usemtl Patch_3_Mat_CR1_paintedConcrete
f 18 17 16
f 21 20 19
f 24 23 22

usemtl Patch_4_Mat_CR1_paintedConcrete
f 27 26 25
f 30 29 28
f 33 32 31

usemtl Patch_5_Mat_CR1_paintedConcrete
f 36 35 34
f 39 38 37
f 42 41 40

usemtl Patch_6_Mat_CR1_paintedConcrete
f 45 44 43
f 48 47 46

usemtl Patch_7_Mat_CR1_paintedConcrete
f 51 50 49
f 54 53 52
f 57 56 55

usemtl Patch_8_Mat_CR1_paintedConcrete
f 60 59 58
f 63 62 61

usemtl Patch_9_Mat_CR1_paintedConcrete
f 66 65 64
f 69 68 67

usemtl Patch_10_Mat_CR1_paintedConcrete
f 72 71 70
f 75 74 73

usemtl Patch_11_Mat_CR1_paintedConcrete
f 78 77 76
f 81 80 79

usemtl Patch_12_Mat_CR1_paintedConcrete
f 84 83 82
f 87 86 85

usemtl Patch_13_Mat_CR1_paintedConcrete
f 90 89 88
f 93 92 91

usemtl Patch_14_Mat_CR1_paintedConcrete
f 96 95 94
f 99 98 97

usemtl Patch_15_Mat_CR1_paintedConcrete
f 102 101 100
f 105 104 103

usemtl Patch_16_Mat_CR1_paintedConcrete
f 108 107 106
f 111 110 109

usemtl Patch_17_Mat_CR1_paintedConcrete
f 114 113 112
f 117 116 115

usemtl Patch_18_Mat_CR1_paintedConcrete
f 120 119 118
f 123 122 121

usemtl Patch_19_Mat_CR1_paintedConcrete
f 126 125 124
f 129 128 127

usemtl Patch_20_Mat_CR1_paintedConcrete
f 132 131 130
f 135 134 133

usemtl Patch_21_Mat_CR1_paintedConcrete
f 138 137 136
f 141 140 139

usemtl Patch_22_Mat_CR1_paintedConcrete
f 144 143 142
f 147 146 145

usemtl Patch_23_Mat_CR1_paintedConcrete
f 150 149 148
f 153 152 151

usemtl Patch_24_Mat_CR1_paintedConcrete
f 156 155 154
f 159 158 157

usemtl Patch_25_Mat_CR1_paintedConcrete
f 162 161 160
f 165 164 163

usemtl Patch_26_Mat_CR1_paintedConcrete
f 168 167 166
f 171 170 169

usemtl Patch_27_Mat_CR1_paintedConcrete
f 174 173 172
f 177 176 175

usemtl Patch_28_Mat_CR1_paintedConcrete
f 180 179 178
f 183 182 181

usemtl Patch_29_Mat_CR1_paintedConcrete
f 186 185 184
f 189 188 187

usemtl Patch_30_Mat_CR1_paintedConcrete
f 192 191 190
f 195 194 193

usemtl Patch_31_Mat_CR1_paintedConcrete
f 198 197 196
f 201 200 199

usemtl Patch_32_Mat_CR1_paintedConcrete
f 204 203 202
f 207 206 205

usemtl Patch_33_Mat_CR1_paintedConcrete
f 210 209 208
f 213 212 211

usemtl Patch_34_Mat_CR1_paintedConcrete
f 216 215 214
f 219 218 217

usemtl Patch_35_Mat_CR1_paintedConcrete
f 222 221 220
f 225 224 223

usemtl Patch_36_Mat_CR1_paintedConcrete
f 228 227 226
f 231 230 229

usemtl Patch_37_Mat_CR1_paintedConcrete
f 234 233 232
f 237 236 235

usemtl Patch_38_Mat_CR1_paintedConcrete
f 240 239 238
f 243 242 241

usemtl Patch_39_Mat_CR1_paintedConcrete
f 246 245 244
f 249 248 247
f 252 251 250

usemtl Patch_40_Mat_CR1_paintedConcrete
f 255 254 253
f 258 257 256
f 261 260 259

usemtl Patch_41_Mat_CR1_paintedConcrete
f 264 263 262
f 267 266 265
f 270 269 268

usemtl Patch_42_Mat_CR1_paintedConcrete
f 273 272 271
f 276 275 274
f 279 278 277

usemtl Patch_43_Mat_CR1_paintedConcrete
f 282 281 280
f 285 284 283
f 288 287 286
f 291 290 289

usemtl Patch_44_Mat_CR1_paintedConcrete
f 294 293 292
f 297 296 295

usemtl Patch_45_Mat_CR1_paintedConcrete
f 300 299 298
f 303 302 301
f 306 305 304
f 309 308 307

usemtl Patch_46_Mat_CR1_paintedConcrete
f 312 311 310
f 315 314 313
f 318 317 316

usemtl Patch_47_Mat_CR1_paintedConcrete
f 321 320 319
f 324 323 322
f 327 326 325

usemtl Patch_48_Mat_CR1_paintedConcrete
f 330 329 328
f 333 332 331
f 336 335 334

usemtl Patch_49_Mat_CR1_paintedConcrete
f 339 338 337
f 342 341 340
f 345 344 343

usemtl Patch_50_Mat_CR1_paintedConcrete
f 348 347 346
f 351 350 349
f 354 353 352

usemtl Patch_51_Mat_CR1_paintedConcrete
f 357 356 355
f 360 359 358

usemtl Patch_52_Mat_CR1_paintedConcrete
f 363 362 361
f 366 365 364
f 369 368 367
f 372 371 370
f 375 374 373
f 378 377 376

usemtl Patch_53_Mat_CR1_paintedConcrete
f 381 380 379
f 384 383 382
f 387 386 385

usemtl Patch_54_Mat_CR1_paintedConcrete
f 390 389 388
f 393 392 391

usemtl Patch_55_Mat_CR1_paintedConcrete
f 396 395 394
f 399 398 397
f 402 401 400
f 405 404 403

usemtl Patch_56_Mat_CR1_paintedConcrete
f 408 407 406
f 411 410 409
f 414 413 412

usemtl Patch_57_Mat_CR1_concrete
f 417 416 415
f 420 419 418

usemtl Patch_58_Mat_CR1_concrete
f 423 422 421
f 426 425 424

usemtl Patch_59_Mat_CR1_concrete
f 429 428 427
f 432 431 430

usemtl Patch_60_Mat_CR1_concrete
f 435 434 433
f 438 437 436

usemtl Patch_61_Mat_CR1_concrete
f 441 440 439
f 444 443 442
f 447 446 445

usemtl Patch_62_Mat_CR1_concrete
f 450 449 448
f 453 452 451
f 456 455 454

usemtl Patch_63_Mat_CR1_concrete
f 459 458 457
f 462 461 460
f 465 464 463

usemtl Patch_64_Mat_CR1_concrete
f 468 467 466
f 471 470 469
f 474 473 472
f 477 476 475

usemtl Patch_65_Mat_CR1_concrete
f 480 479 478
f 483 482 481
f 486 485 484

usemtl Patch_66_Mat_CR1_concrete
f 489 488 487
f 492 491 490
f 495 494 493
f 498 497 496
f 501 500 499

usemtl Patch_67_Mat_CR1_concrete
f 504 503 502
f 507 506 505
f 510 509 508

usemtl Patch_68_Mat_CR1_concrete
f 513 512 511
f 516 515 514
f 519 518 517
f 522 521 520
f 525 524 523

usemtl Patch_69_Mat_CR1_concrete
f 528 527 526
f 531 530 529
f 534 533 532
f 537 536 535

usemtl Patch_70_Mat_CR1_concrete
f 540 539 538
f 543 542 541
f 546 545 544

usemtl Patch_71_Mat_CR1_concrete
f 549 548 547
f 552 551 550
f 555 554 553

usemtl Patch_72_Mat_CR1_concrete
f 558 557 556
f 561 560 559

usemtl Patch_73_Mat_CR1_concrete
f 564 563 562
f 567 566 565

usemtl Patch_74_Mat_CR1_concrete
f 570 569 568
f 573 572 571

usemtl Patch_75_Mat_CR1_concrete
f 576 575 574
f 579 578 577

usemtl Patch_76_Mat_CR1_concrete
f 582 581 580
f 585 584 583

usemtl Patch_77_Mat_CR1_concrete
f 588 587 586
f 591 590 589

usemtl Patch_78_Mat_CR1_concrete
f 594 593 592
f 597 596 595

usemtl Patch_79_Mat_CR1_concrete
f 600 599 598
f 603 602 601

usemtl Patch_80_Mat_CR1_concrete
f 606 605 604
f 609 608 607

usemtl Patch_81_Mat_CR1_concrete
f 612 611 610
f 615 614 613

usemtl Patch_82_Mat_CR1_concrete
f 618 617 616
f 621 620 619

usemtl Patch_83_Mat_CR1_concrete
f 624 623 622
f 627 626 625

usemtl Patch_84_Mat_CR1_concrete
f 630 629 628
f 633 632 631

usemtl Patch_85_Mat_CR1_concrete
f 636 635 634
f 639 638 637

usemtl Patch_86_Mat_CR1_concrete
f 642 641 640
f 645 644 643

usemtl Patch_87_Mat_CR1_concrete
f 648 647 646
f 651 650 649
f 654 653 652

usemtl Patch_88_Mat_CR1_concrete
f 657 656 655
f 660 659 658
f 663 662 661
f 666 665 664

usemtl Patch_89_Mat_CR1_concrete
f 669 668 667
f 672 671 670

usemtl Patch_90_Mat_CR1_concrete
f 675 674 673
f 678 677 676
f 681 680 679

usemtl Patch_91_Mat_CR1_concrete
f 684 683 682
f 687 686 685
f 690 689 688

usemtl Patch_92_Mat_CR1_concrete
f 693 692 691
f 696 695 694
f 699 698 697
f 702 701 700

usemtl Patch_93_Mat_CR1_concrete
f 705 704 703
f 708 707 706
f 711 710 709

usemtl Patch_94_Mat_CR1_concrete
f 714 713 712
f 717 716 715
f 720 719 718
f 723 722 721

usemtl Patch_95_Mat_CR1_concrete
f 726 725 724
f 729 728 727
f 732 731 730

usemtl Patch_96_Mat_CR1_concrete
f 735 734 733
f 738 737 736
f 741 740 739

usemtl Patch_97_Mat_CR1_concrete
f 744 743 742
f 747 746 745

usemtl Patch_98_Mat_CR1_concrete
f 750 749 748
f 753 752 751
f 756 755 754

usemtl Patch_99_Mat_CR1_concrete
f 759 758 757
f 762 761 760
f 765 764 763

usemtl Patch_100_Mat_CR1_concrete
f 768 767 766
f 771 770 769

usemtl Patch_101_Mat_CR1_concrete
f 774 773 772
f 777 776 775
f 780 779 778

usemtl Patch_102_Mat_CR1_concrete
f 783 782 781
f 786 785 784
f 789 788 787
f 792 791 790

usemtl Patch_103_Mat_CR1_concrete
f 795 794 793
f 798 797 796
f 801 800 799

usemtl Patch_104_Mat_CR1_concrete
f 804 803 802
f 807 806 805
f 810 809 808

usemtl Patch_105_Mat_CR1_concrete
f 813 812 811
f 816 815 814
f 819 818 817
f 822 821 820

usemtl Patch_106_Mat_CR1_concrete
f 825 824 823
f 828 827 826

usemtl Patch_107_Mat_CR1_paintedConcrete
f 831 830 829
f 834 833 832
f 837 836 835
f 840 839 838

usemtl Patch_108_Mat_CR1_paintedConcrete
f 843 842 841
f 846 845 844
f 849 848 847
f 852 851 850
f 855 854 853

usemtl Patch_109_Mat_CR1_paintedConcrete
f 858 857 856
f 861 860 859
f 864 863 862

usemtl Patch_110_Mat_CR1_paintedConcrete
f 867 866 865
f 870 869 868
f 873 872 871

usemtl Patch_111_Mat_CR1_paintedConcrete
f 876 875 874
f 879 878 877
f 882 881 880

usemtl Patch_112_Mat_CR1_paintedConcrete
f 885 884 883
f 888 887 886
f 891 890 889

usemtl Patch_113_Mat_CR1_paintedConcrete
f 894 893 892
f 897 896 895
f 900 899 898
f 903 902 901
f 906 905 904

usemtl Patch_114_Mat_CR1_paintedConcrete
f 909 908 907
f 912 911 910
f 915 914 913

usemtl Patch_115_Mat_CR1_paintedConcrete
f 918 917 916
f 921 920 919

usemtl Patch_116_Mat_CR1_paintedConcrete
f 924 923 922
f 927 926 925
f 930 929 928
f 933 932 931
f 936 935 934

usemtl Patch_117_Mat_CR1_paintedConcrete
f 939 938 937
f 942 941 940
f 945 944 943

usemtl Patch_118_Mat_CR1_paintedConcrete
f 948 947 946
f 951 950 949
f 954 953 952

usemtl Patch_119_Mat_CR1_paintedConcrete
f 957 956 955
f 960 959 958
f 963 962 961

usemtl Patch_120_Mat_CR1_paintedConcrete
f 966 965 964
f 969 968 967

usemtl Patch_121_Mat_CR1_paintedConcrete
f 972 971 970
f 975 974 973
f 978 977 976

usemtl Patch_122_Mat_CR1_paintedConcrete
f 981 980 979
f 984 983 982
f 987 986 985

usemtl Patch_123_Mat_CR1_paintedConcrete
f 990 989 988
f 993 992 991
f 996 995 994

usemtl Patch_124_Mat_CR1_paintedConcrete
f 999 998 997
f 1002 1001 1000

usemtl Patch_125_Mat_CR1_paintedConcrete
f 1005 1004 1003
f 1008 1007 1006
f 1011 1010 1009

usemtl Patch_126_Mat_CR1_tablesEquipment
f 1014 1013 1012
f 1017 1016 1015

usemtl Patch_127_Mat_CR1_tablesEquipment
f 1020 1019 1018
f 1023 1022 1021

usemtl Patch_128_Mat_CR1_tablesEquipment
f 1026 1025 1024
f 1029 1028 1027

usemtl Patch_129_Mat_CR1_tablesEquipment
f 1032 1031 1030
f 1035 1034 1033

usemtl Patch_130_Mat_CR1_tablesEquipment
f 1038 1037 1036
f 1041 1040 1039

usemtl Patch_131_Mat_CR1_tablesEquipment
f 1044 1043 1042
f 1047 1046 1045

usemtl Patch_132_Mat_CR1_tablesEquipment
f 1050 1049 1048
f 1053 1052 1051

usemtl Patch_133_Mat_CR1_tablesEquipment
f 1056 1055 1054
f 1059 1058 1057

usemtl Patch_134_Mat_CR1_tablesEquipment
f 1062 1061 1060
f 1065 1064 1063

usemtl Patch_135_Mat_CR1_tablesEquipment
f 1068 1067 1066
f 1071 1070 1069

usemtl Patch_136_Mat_CR1_absorber
f 1074 1073 1072
f 1077 1076 1075

usemtl Patch_137_Mat_CR1_absorber
f 1080 1079 1078
f 1083 1082 1081

usemtl Patch_138_Mat_CR1_absorber
f 1086 1085 1084
f 1089 1088 1087

usemtl Patch_139_Mat_CR1_absorber
f 1092 1091 1090
f 1095 1094 1093

usemtl Patch_140_Mat_CR1_tablesEquipment
f 1098 1097 1096
f 1101 1100 1099

usemtl Patch_141_Mat_CR1_tablesEquipment
f 1104 1103 1102
f 1107 1106 1105

usemtl Patch_142_Mat_CR1_tablesEquipment
f 1110 1109 1108
f 1113 1112 1111

usemtl Patch_143_Mat_CR1_tablesEquipment
f 1116 1115 1114
f 1119 1118 1117
f 1122 1121 1120
f 1125 1124 1123

usemtl Patch_144_Mat_CR1_tablesEquipment
f 1128 1127 1126
f 1131 1130 1129

usemtl Patch_145_Mat_CR1_tablesEquipment
f 1134 1133 1132
f 1137 1136 1135

usemtl Patch_146_Mat_CR1_tablesEquipment
f 1140 1139 1138
f 1143 1142 1141

usemtl Patch_147_Mat_CR1_concrete
f 1146 1145 1144
f 1149 1148 1147
f 1152 1151 1150
f 1155 1154 1153
f 1158 1157 1156

usemtl Patch_148_Mat_CR1_concrete
f 1161 1160 1159
f 1164 1163 1162
f 1167 1166 1165
f 1170 1169 1168
f 1173 1172 1171

usemtl Patch_149_Mat_CR1_concrete
f 1176 1175 1174
f 1179 1178 1177
f 1182 1181 1180
f 1185 1184 1183
f 1188 1187 1186

usemtl Patch_150_Mat_CR1_concrete
f 1191 1190 1189
f 1194 1193 1192
f 1197 1196 1195
f 1200 1199 1198

usemtl Patch_151_Mat_CR1_concrete
f 1203 1202 1201
f 1206 1205 1204

usemtl Patch_152_Mat_CR1_concrete
f 1209 1208 1207
f 1212 1211 1210
f 1215 1214 1213
f 1218 1217 1216

usemtl Patch_153_Mat_CR1_concrete
f 1221 1220 1219
f 1224 1223 1222
f 1227 1226 1225
f 1230 1229 1228

usemtl Patch_154_Mat_CR1_concrete
f 1233 1232 1231
f 1236 1235 1234
f 1239 1238 1237

usemtl Patch_155_Mat_CR1_concrete
f 1242 1241 1240
f 1245 1244 1243
f 1248 1247 1246

usemtl Patch_156_Mat_CR1_concrete
f 1251 1250 1249
f 1254 1253 1252
f 1257 1256 1255
f 1260 1259 1258

usemtl Patch_157_Mat_CR1_concrete
f 1263 1262 1261
f 1266 1265 1264
f 1269 1268 1267
f 1272 1271 1270
f 1275 1274 1273

usemtl Patch_158_Mat_CR1_concrete
f 1278 1277 1276
f 1281 1280 1279
f 1284 1283 1282

usemtl Patch_159_Mat_CR1_concrete
f 1287 1286 1285
f 1290 1289 1288
f 1293 1292 1291

usemtl Patch_160_Mat_CR1_concrete
f 1296 1295 1294
f 1299 1298 1297
f 1302 1301 1300
f 1305 1304 1303

usemtl Patch_161_Mat_CR1_concrete
f 1308 1307 1306
f 1311 1310 1309
f 1314 1313 1312

usemtl Patch_162_Mat_CR1_concrete
f 1317 1316 1315
f 1320 1319 1318
f 1323 1322 1321

usemtl Patch_163_Mat_CR1_concrete
f 1326 1325 1324
f 1329 1328 1327
f 1332 1331 1330
f 1335 1334 1333
f 1338 1337 1336

usemtl Patch_164_Mat_CR1_absorber
f 1341 1340 1339
f 1344 1343 1342

usemtl Patch_165_Mat_CR1_concrete
f 1347 1346 1345
f 1350 1349 1348

usemtl Patch_166_Mat_CR1_concrete
f 1353 1352 1351
f 1356 1355 1354

usemtl Patch_167_Mat_CR1_paintedConcrete
f 1359 1358 1357
f 1362 1361 1360

usemtl Patch_168_Mat_CR1_paintedConcrete
f 1365 1364 1363
f 1368 1367 1366

usemtl Patch_169_Mat_CR1_concrete
f 1371 1370 1369
f 1374 1373 1372
f 1377 1376 1375
f 1380 1379 1378
f 1383 1382 1381

usemtl Patch_170_Mat_CR1_concrete
f 1386 1385 1384
f 1389 1388 1387
f 1392 1391 1390
f 1395 1394 1393

usemtl Patch_171_Mat_CR1_concrete
f 1398 1397 1396
f 1401 1400 1399
f 1404 1403 1402
f 1407 1406 1405
f 1410 1409 1408
f 1413 1412 1411
f 1416 1415 1414

usemtl Patch_172_Mat_CR1_concrete
f 1419 1418 1417
f 1422 1421 1420

usemtl Patch_173_Mat_CR1_concrete
f 1425 1424 1423
f 1428 1427 1426
f 1431 1430 1429
f 1434 1433 1432
f 1437 1436 1435
f 1440 1439 1438

usemtl Patch_174_Mat_CR1_concrete
f 1443 1442 1441
f 1446 1445 1444

usemtl Patch_175_Mat_CR1_paintedConcrete
f 1449 1448 1447
f 1452 1451 1450

usemtl Patch_176_Mat_CR1_paintedConcrete
f 1455 1454 1453
f 1458 1457 1456
f 1461 1460 1459

usemtl Patch_177_Mat_CR1_paintedConcrete
f 1464 1463 1462
f 1467 1466 1465
f 1470 1469 1468

usemtl Patch_178_Mat_CR1_paintedConcrete
f 1473 1472 1471
f 1476 1475 1474
f 1479 1478 1477

usemtl Patch_179_Mat_CR1_paintedConcrete
f 1482 1481 1480
f 1485 1484 1483
f 1488 1487 1486

usemtl Patch_180_Mat_CR1_paintedConcrete
f 1491 1490 1489
f 1494 1493 1492
f 1497 1496 1495

usemtl Patch_181_Mat_CR1_paintedConcrete
f 1500 1499 1498
f 1503 1502 1501
f 1506 1505 1504

usemtl Patch_182_Mat_CR1_paintedConcrete
f 1509 1508 1507
f 1512 1511 1510

usemtl Patch_183_Mat_CR1_paintedConcrete
f 1515 1514 1513
f 1518 1517 1516

usemtl Patch_184_Mat_CR1_paintedConcrete
f 1521 1520 1519
f 1524 1523 1522
f 1527 1526 1525
f 1530 1529 1528

usemtl Patch_185_Mat_CR1_paintedConcrete
f 1533 1532 1531
f 1536 1535 1534
f 1539 1538 1537

usemtl Patch_186_Mat_CR1_paintedConcrete
f 1542 1541 1540
f 1545 1544 1543
f 1548 1547 1546
f 1551 1550 1549

usemtl Patch_187_Mat_CR1_paintedConcrete
f 1554 1553 1552
f 1557 1556 1555
f 1560 1559 1558

usemtl Patch_188_Mat_CR1_paintedConcrete
f 1563 1562 1561
f 1566 1565 1564
f 1569 1568 1567

usemtl Patch_189_Mat_CR1_paintedConcrete
f 1572 1571 1570
f 1575 1574 1573
f 1578 1577 1576
f 1581 1580 1579

usemtl Patch_190_Mat_CR1_paintedConcrete
f 1584 1583 1582
f 1587 1586 1585

usemtl Patch_191_Mat_CR1_paintedConcrete
f 1590 1589 1588
f 1593 1592 1591
f 1596 1595 1594
f 1599 1598 1597

usemtl Patch_192_Mat_CR1_paintedConcrete
f 1602 1601 1600
f 1605 1604 1603
f 1608 1607 1606

usemtl Patch_193_Mat_CR1_paintedConcrete
f 1611 1610 1609
f 1614 1613 1612
f 1617 1616 1615
f 1620 1619 1618

usemtl Patch_194_Mat_CR1_paintedConcrete
f 1623 1622 1621
f 1626 1625 1624
f 1629 1628 1627
f 1632 1631 1630

usemtl Patch_195_Mat_CR1_paintedConcrete
f 1635 1634 1633
f 1638 1637 1636
f 1641 1640 1639

usemtl Patch_196_Mat_CR1_paintedConcrete
f 1644 1643 1642
f 1647 1646 1645
f 1650 1649 1648

usemtl Patch_197_Mat_CR1_paintedConcrete
f 1653 1652 1651
f 1656 1655 1654
f 1659 1658 1657

usemtl Patch_198_Mat_CR1_paintedConcrete
f 1662 1661 1660
f 1665 1664 1663
f 1668 1667 1666
f 1671 1670 1669

usemtl Patch_199_Mat_CR1_paintedConcrete
f 1674 1673 1672
f 1677 1676 1675
f 1680 1679 1678

usemtl Patch_200_Mat_CR1_paintedConcrete
f 1683 1682 1681
f 1686 1685 1684

usemtl Patch_201_Mat_CR1_paintedConcrete
f 1689 1688 1687
f 1692 1691 1690
f 1695 1694 1693
f 1698 1697 1696

usemtl Patch_202_Mat_CR1_paintedConcrete
f 1701 1700 1699
f 1704 1703 1702

usemtl Patch_203_Mat_CR1_paintedConcrete
f 1707 1706 1705
f 1710 1709 1708
f 1713 1712 1711
f 1716 1715 1714

usemtl Patch_204_Mat_CR1_paintedConcrete
f 1719 1718 1717
f 1722 1721 1720
f 1725 1724 1723

usemtl Patch_205_Mat_CR1_paintedConcrete
f 1728 1727 1726
f 1731 1730 1729
f 1734 1733 1732
f 1737 1736 1735

usemtl Patch_206_Mat_CR1_paintedConcrete
f 1740 1739 1738
f 1743 1742 1741
f 1746 1745 1744
f 1749 1748 1747

usemtl Patch_207_Mat_CR1_concrete
f 1752 1751 1750
f 1755 1754 1753

usemtl Patch_208_Mat_CR1_paintedConcrete
f 1758 1757 1756
f 1761 1760 1759
f 1764 1763 1762

usemtl Patch_209_Mat_CR1_paintedConcrete
f 1767 1766 1765
f 1770 1769 1768

usemtl Patch_210_Mat_CR1_paintedConcrete
f 1773 1772 1771
f 1776 1775 1774
f 1779 1778 1777

usemtl Patch_211_Mat_CR1_paintedConcrete
f 1782 1781 1780
f 1785 1784 1783
f 1788 1787 1786
f 1791 1790 1789
f 1794 1793 1792
f 1797 1796 1795
f 1800 1799 1798

usemtl Patch_212_Mat_CR1_paintedConcrete
f 1803 1802 1801
f 1806 1805 1804
f 1809 1808 1807
f 1812 1811 1810

usemtl Patch_213_Mat_CR1_paintedConcrete
f 1815 1814 1813
f 1818 1817 1816

usemtl Patch_214_Mat_CR1_paintedConcrete
f 1821 1820 1819
f 1824 1823 1822
f 1827 1826 1825

usemtl Patch_215_Mat_CR1_paintedConcrete
f 1830 1829 1828
f 1833 1832 1831
f 1836 1835 1834

usemtl Patch_216_Mat_CR1_paintedConcrete
f 1839 1838 1837
f 1842 1841 1840

usemtl Patch_217_Mat_CR1_paintedConcrete
f 1845 1844 1843
f 1848 1847 1846

usemtl Patch_218_Mat_CR1_paintedConcrete
f 1851 1850 1849
f 1854 1853 1852
f 1857 1856 1855
f 1860 1859 1858
f 1863 1862 1861
f 1866 1865 1864
f 1869 1868 1867

usemtl Patch_219_Mat_CR1_concrete
f 1872 1871 1870
f 1875 1874 1873

usemtl Patch_220_Mat_CR1_concrete
f 1878 1877 1876
f 1881 1880 1879

usemtl Patch_221_Mat_CR1_tablesEquipment
f 1884 1883 1882
f 1887 1886 1885

usemtl Patch_222_Mat_CR1_tablesEquipment
f 1890 1889 1888
f 1893 1892 1891

usemtl Patch_223_Mat_CR1_absorber
f 1896 1895 1894
f 1899 1898 1897

usemtl Patch_224_Mat_CR1_absorber
f 1902 1901 1900
f 1905 1904 1903

usemtl Patch_225_Mat_CR1_absorber
f 1908 1907 1906
f 1911 1910 1909

usemtl Patch_226_Mat_CR1_absorber
f 1914 1913 1912
f 1917 1916 1915

usemtl Patch_227_Mat_CR1_absorber
f 1920 1919 1918
f 1923 1922 1921

