# File generated by ImageToStl.com - Free Image and 3D model conversion tools

mtllib CR1_DoorAngle1_simplified.mtl

o obj1
v 240.22590637 -153.77952576 107.71653748
v 22.46999359 -242.51968384 107.71653748
v 22.46999359 -153.77952576 107.71653748
v 240.22590637 -242.51968384 107.71653748
usemtl mat0
f 1 2 3
f 2 1 4
# Vertices: 4, normals: 0, texture coordinates: 0, faces: 2

o obj2
v 22.46999359 36.61417389 107.71653748
v 240.22590637 36.61417389 89.60630035
v 22.46999359 36.61417389 89.60630035
v 240.22590637 36.61417389 107.71653748
usemtl mat0
f 5 6 7
f 6 5 8
# Vertices: 4, normals: 0, texture coordinates: 0, faces: 2

o obj3
v 240.22590637 36.61417389 89.60630035
v 22.46999359 19.64566994 89.60630035
v 22.46999359 36.61417389 89.60630035
v 240.22590637 19.64566994 89.60630035
usemtl mat0
f 9 10 11
f 10 9 12
# Vertices: 4, normals: 0, texture coordinates: 0, faces: 2

o obj4
v 240.22590637 19.64566994 107.71653748
v 22.46999359 19.64566994 89.60630035
v 240.22590637 19.64566994 89.60630035
v 22.46999359 19.64566994 107.71653748
usemtl mat0
f 13 14 15
f 14 13 16
# Vertices: 4, normals: 0, texture coordinates: 0, faces: 2

o obj5
v 240.22590637 74.92125702 107.71653748
v 22.46999359 36.61417389 107.71653748
v 22.46999359 94.92125702 107.71653748
v 240.22590637 36.61417389 107.71653748
usemtl mat0
f 17 18 19
f 18 17 20
# Vertices: 4, normals: 0, texture coordinates: 0, faces: 2

o obj6
v 22.46999359 -137.12599182 107.71653748
v 240.22590637 -137.12599182 89.60630035
v 22.46999359 -137.12599182 89.60630035
v 240.22590637 -137.12599182 107.71653748
usemtl mat0
f 21 22 23
f 22 21 24
# Vertices: 4, normals: 0, texture coordinates: 0, faces: 2

o obj7
v 240.22590637 -137.12599182 89.60630035
v 22.46999359 -153.77952576 89.60630035
v 22.46999359 -137.12599182 89.60630035
v 240.22590637 -153.77952576 89.60630035
usemtl mat0
f 25 26 27
f 26 25 28
# Vertices: 4, normals: 0, texture coordinates: 0, faces: 2

o obj8
v 240.22590637 -153.77952576 107.71653748
v 22.46999359 -153.77952576 89.60630035
v 240.22590637 -153.77952576 89.60630035
v 22.46999359 -153.77952576 107.71653748
usemtl mat0
f 29 30 31
f 30 29 32
# Vertices: 4, normals: 0, texture coordinates: 0, faces: 2

o obj9
v 240.22590637 19.64566994 107.71653748
v 22.46999359 -137.12599182 107.71653748
v 22.46999359 19.64566994 107.71653748
v 240.22590637 -137.12599182 107.71653748
usemtl mat0
f 33 34 35
f 34 33 36
# Vertices: 4, normals: 0, texture coordinates: 0, faces: 2

o obj10
v -246.11268616 -143.62203979 108.97637939
v -178.01901245 -143.62203979 43.30708694
v -246.11268616 -143.62203979 43.30708694
v -178.01901245 -143.62203979 0
v -110.3431015 -143.62203979 43.30708694
v -110.3431015 -143.62203979 0
v -0.01032051 -143.62203979 43.30708694
v -0.01032051 -143.62203979 108.97637939
usemtl mat1
f 37 38 39
f 40 41 42
f 41 40 38
f 41 38 43
f 43 38 44
f 44 38 37
# Vertices: 8, normals: 0, texture coordinates: 0, faces: 6

o obj11
v -0.01032051 99.33071136 108.97637939
v -246.11268616 36.61417389 108.97637939
v -246.11268616 121.8110199 108.97637939
v -0.01032051 36.61417389 108.97637939
usemtl mat2
f 45 46 47
f 46 45 48
# Vertices: 4, normals: 0, texture coordinates: 0, faces: 2

o obj12
v -246.11268616 84.87595367 -0
v -246.11268616 -120.20082855 43.30708694
v -246.11268616 -120.20082855 0
v -246.11268616 19.64566994 89.60630035
v -246.11268616 36.61417389 89.60630035
v -246.11268616 36.61417389 108.97637939
v -246.11268616 84.87595367 43.30708694
v -246.11268616 121.8110199 108.97637939
v -246.11268616 121.8110199 43.30708694
v -246.11268616 -143.62203979 108.97637939
v -246.11268616 -143.62203979 43.30708694
v -246.11268616 19.64566994 108.97637939
usemtl mat2
f 49 50 51
f 50 49 52
f 52 49 53
f 53 49 54
f 54 49 55
f 54 55 56
f 56 55 57
f 50 58 59
f 58 50 60
f 60 50 52
# Vertices: 12, normals: 0, texture coordinates: 0, faces: 10

o obj13
v -0.01032051 19.64566994 108.97637939
v -246.11268616 19.64566994 89.60630035
v -0.01032051 19.64566994 89.60630035
v -246.11268616 19.64566994 108.97637939
usemtl mat2
f 61 62 63
f 62 61 64
# Vertices: 4, normals: 0, texture coordinates: 0, faces: 2

o obj14
v -0.01032051 36.61417389 89.60630035
v -246.11268616 19.64566994 89.60630035
v -246.11268616 36.61417389 89.60630035
v -0.01032051 19.64566994 89.60630035
usemtl mat2
f 65 66 67
f 66 65 68
# Vertices: 4, normals: 0, texture coordinates: 0, faces: 2

o obj15
v -246.11268616 36.61417389 89.60630035
v -0.01032051 36.61417389 108.97637939
v -0.01032051 36.61417389 89.60630035
v -246.11268616 36.61417389 108.97637939
usemtl mat2
f 69 70 71
f 70 69 72
# Vertices: 4, normals: 0, texture coordinates: 0, faces: 2

o obj16
v -0.01032051 19.64566994 108.97637939
v -246.11268616 -143.62203979 108.97637939
v -246.11268616 19.64566994 108.97637939
v -0.01032051 -143.62203979 108.97637939
usemtl mat2
f 73 74 75
f 74 73 76
# Vertices: 4, normals: 0, texture coordinates: 0, faces: 2

o obj17
v -0.01032051 99.33071136 108.97637939
v -66.02174377 105.36054993 43.30708694
v -0.01032051 99.33071136 43.30708694
v -66.02174377 105.36054993 0
v -173.85995483 115.2110672 43.30708694
v -173.85995483 115.2110672 -0
v -246.11268616 121.8110199 43.30708694
v -246.11268616 121.8110199 108.97637939
usemtl mat2
f 77 78 79
f 80 81 82
f 81 80 78
f 81 78 83
f 83 78 84
f 84 78 77
# Vertices: 8, normals: 0, texture coordinates: 0, faces: 6

o obj18
v 240.22590637 74.92125702 107.71653748
v 240.22590637 36.61417389 89.60630035
v 240.22590637 36.61417389 107.71653748
v 240.22590637 -153.77952576 107.71653748
v 240.22590637 -242.51968384 1.96850395
v 240.22590637 -242.51968384 107.71653748
v 240.22590637 -153.77952576 89.60630035
v 240.22590637 74.92125702 1.96850395
v 240.22590637 -137.12599182 89.60630035
v 240.22590637 -137.12599182 107.71653748
v 240.22590637 19.64566994 89.60630035
v 240.22590637 19.64566994 107.71653748
usemtl mat0
f 85 86 87
f 88 89 90
f 89 88 91
f 89 91 92
f 92 91 93
f 92 93 94
f 92 94 95
f 95 94 96
f 92 95 86
f 92 86 85
# Vertices: 12, normals: 0, texture coordinates: 0, faces: 10

o obj19
v 22.46999359 -242.51968384 107.71653748
v 240.22590637 -242.51968384 1.96850395
v 22.46999359 -242.51968384 1.96850395
v 240.22590637 -242.51968384 107.71653748
usemtl mat0
f 97 98 99
f 98 97 100
# Vertices: 4, normals: 0, texture coordinates: 0, faces: 2

o obj20
v -177.56370544 78.16802216 43.30708694
v -246.11268616 121.8110199 43.30708694
v -246.11268616 84.87595367 43.30708694
v -173.85995483 115.2110672 43.30708694
usemtl mat3
f 101 102 103
f 102 101 104
# Vertices: 4, normals: 0, texture coordinates: 0, faces: 2

o obj21
v -173.85995483 115.2110672 -0
v -177.56370544 78.16802216 43.30708694
v -177.56370544 78.16802216 -0
v -173.85995483 115.2110672 43.30708694
usemtl mat3
f 105 106 107
f 106 105 108
# Vertices: 4, normals: 0, texture coordinates: 0, faces: 2

o obj22
v -177.56370544 78.16802216 43.30708694
v -246.11268616 84.87595367 -0
v -177.56370544 78.16802216 -0
v -246.11268616 84.87595367 43.30708694
usemtl mat3
f 109 110 111
f 110 109 112
# Vertices: 4, normals: 0, texture coordinates: 0, faces: 2

o obj23
v -246.11268616 -120.20082855 43.30708694
v -178.01901245 -120.20082855 0
v -246.11268616 -120.20082855 0
v -178.01901245 -120.20082855 43.30708694
usemtl mat3
f 113 114 115
f 114 113 116
# Vertices: 4, normals: 0, texture coordinates: 0, faces: 2

o obj24
v -178.01901245 -143.62203979 43.30708694
v -246.11268616 -120.20082855 43.30708694
v -246.11268616 -143.62203979 43.30708694
v -178.01901245 -120.20082855 43.30708694
usemtl mat3
f 117 118 119
f 118 117 120
# Vertices: 4, normals: 0, texture coordinates: 0, faces: 2

o obj25
v -178.01901245 -120.20082855 0
v -178.01901245 -143.62203979 43.30708694
v -178.01901245 -143.62203979 0
v -178.01901245 -120.20082855 43.30708694
usemtl mat3
f 121 122 123
f 122 121 124
# Vertices: 4, normals: 0, texture coordinates: 0, faces: 2

o obj26
v -0.01032051 62.91531754 43.30708694
v -66.02174377 105.36054993 43.30708694
v -68.55511475 67.50354004 43.30708694
v -0.01032051 99.33071136 43.30708694
usemtl mat3
f 125 126 127
f 126 125 128
# Vertices: 4, normals: 0, texture coordinates: 0, faces: 2

o obj27
v -0.01032051 62.91531754 43.30708694
v -68.55511475 67.50354004 0
v -0.01032051 62.91531754 0
v -68.55511475 67.50354004 43.30708694
usemtl mat3
f 129 130 131
f 130 129 132
# Vertices: 4, normals: 0, texture coordinates: 0, faces: 2

o obj28
v -66.02174377 105.36054993 43.30708694
v -68.55511475 67.50354004 0
v -68.55511475 67.50354004 43.30708694
v -66.02174377 105.36054993 0
usemtl mat3
f 133 134 135
f 134 133 136
# Vertices: 4, normals: 0, texture coordinates: 0, faces: 2

o obj29
v -214.24804688 58.22101593 0
v -214.24804688 -3.59000707 39.37007904
v -214.24804688 -3.59000707 0
v -214.24804688 58.22101593 39.37007904
usemtl mat4
f 137 138 139
f 138 137 140
# Vertices: 4, normals: 0, texture coordinates: 0, faces: 2

o obj30
v -98.76934814 100.86607361 39.37007904
v -138.13943481 100.86607361 0
v -98.76934814 100.86607361 0
v -138.13943481 100.86607361 39.37007904
usemtl mat4
f 141 142 143
f 142 141 144
# Vertices: 4, normals: 0, texture coordinates: 0, faces: 2

o obj31
v -94.09633636 99.38756561 39.37007904
v -70.23852539 68.06970978 0
v -70.23852539 68.06970978 39.37007904
v -94.09633636 99.38756561 0
usemtl mat4
f 145 146 147
f 146 145 148
# Vertices: 4, normals: 0, texture coordinates: 0, faces: 2

o obj32
v -172.80020142 77.8259964 39.37007904
v -209.38021851 63.26903915 0
v -172.80020142 77.8259964 0
v -209.38021851 63.26903915 39.37007904
usemtl mat4
f 149 150 151
f 150 149 152
# Vertices: 4, normals: 0, texture coordinates: 0, faces: 2

o obj33
v -110.3431015 -110.17155457 43.30708694
v -110.3431015 -143.62203979 0
v -110.3431015 -143.62203979 43.30708694
v -110.3431015 -110.17155457 0
usemtl mat3
f 153 154 155
f 154 153 156
# Vertices: 4, normals: 0, texture coordinates: 0, faces: 2

o obj34
v -110.3431015 -110.17155457 43.30708694
v -35.93365479 -110.17155457 0
v -110.3431015 -110.17155457 0
v -35.93365479 -110.17155457 43.30708694
usemtl mat3
f 157 158 159
f 158 157 160
# Vertices: 4, normals: 0, texture coordinates: 0, faces: 2

o obj35
v -0.01032051 -143.62203979 43.30708694
v -110.3431015 -110.17155457 43.30708694
v -110.3431015 -143.62203979 43.30708694
v -35.93365479 -110.17155457 43.30708694
v -35.93365479 -78.08494568 43.30708694
v -0.01032051 -78.08494568 43.30708694
usemtl mat3
f 161 162 163
f 162 161 164
f 164 161 165
f 165 161 166
# Vertices: 6, normals: 0, texture coordinates: 0, faces: 4

o obj36
v -35.93365479 -78.08494568 43.30708694
v -35.93365479 -110.17155457 0
v -35.93365479 -110.17155457 43.30708694
v -35.93365479 -78.08494568 0
usemtl mat3
f 167 168 169
f 168 167 170
# Vertices: 4, normals: 0, texture coordinates: 0, faces: 2

o obj37
v -35.93365479 -78.08494568 43.30708694
v -0.01032051 -78.08494568 0
v -35.93365479 -78.08494568 0
v -0.01032051 -78.08494568 43.30708694
usemtl mat3
f 171 172 173
f 172 171 174
# Vertices: 4, normals: 0, texture coordinates: 0, faces: 2

o obj38
v -35.93365479 -110.17155457 0
v -68.55511475 67.50354004 0
v -110.3431015 -110.17155457 0
v -35.93365479 -78.08494568 0
v -0.01032051 62.91531754 0
v -0.01032051 -0.47244096 0
v -0.01032051 -78.08494568 0
v -0.01032051 -58.58267593 0
v -110.3431015 -143.62203979 0
v -178.01901245 -120.20082855 0
v -178.01901245 -143.62203979 0
v -177.56370544 78.16802216 -0
v -173.85995483 115.2110672 -0
v -66.02174377 105.36054993 0
v -246.11268616 -120.20082855 0
v -246.11268616 84.87595367 -0
usemtl mat2
f 175 176 177
f 176 175 178
f 176 178 179
f 179 178 180
f 180 178 181
f 180 181 182
f 183 184 185
f 184 183 186
f 186 183 187
f 187 183 177
f 187 177 188
f 188 177 176
f 189 186 190
f 186 189 184
# Vertices: 16, normals: 0, texture coordinates: 0, faces: 14

o obj39
v -140.01127625 100.73999023 39.37007904
v -174.10676575 81.05495453 0
v -140.01127625 100.73999023 0
v -174.10676575 81.05495453 39.37007904
usemtl mat4
f 191 192 193
f 192 191 194
# Vertices: 4, normals: 0, texture coordinates: 0, faces: 2

o obj40
v -0.01032051 -58.58267593 86.3385849
v 22.46999359 -58.58267593 1.96850395
v -0.01032051 -58.58267593 0
v 22.46999359 -58.58267593 86.3385849
usemtl mat2
f 195 196 197
f 196 195 198
# Vertices: 4, normals: 0, texture coordinates: 0, faces: 2

o obj41
v 26.60302353 -58.46422958 1.96850395
v 22.46999359 -0.47244096 86.41732025
v 26.60302353 -58.46422958 86.41732025
v 22.46999359 -0.47244096 1.96850395
usemtl mat0
f 199 200 201
f 200 199 202
# Vertices: 4, normals: 0, texture coordinates: 0, faces: 2

o obj42
v -0.01032051 99.33071136 108.97637939
v -0.01032051 36.61417389 89.60630035
v -0.01032051 36.61417389 108.97637939
v -0.01032051 62.91531754 43.30708694
v -0.01032051 99.33071136 43.30708694
v -0.01032051 -143.62203979 108.97637939
v -0.01032051 -58.58267593 86.3385849
v -0.01032051 -143.62203979 43.30708694
v -0.01032051 19.64566994 108.97637939
v -0.01032051 -78.08494568 43.30708694
v -0.01032051 -78.08494568 0
v -0.01032051 -0.47244096 86.41732025
v -0.01032051 -0.47244096 0
v -0.01032051 19.64566994 89.60630035
v -0.01032051 62.91531754 0
v -0.01032051 -58.58267593 0
usemtl mat2
f 203 204 205
f 204 203 206
f 206 203 207
f 208 209 210
f 209 208 211
f 210 209 212
f 212 209 213
f 209 211 214
f 214 211 215
f 215 211 216
f 215 216 217
f 217 216 204
f 217 204 206
f 218 213 209
# Vertices: 16, normals: 0, texture coordinates: 0, faces: 14

o obj43
v 240.22590637 74.92125702 107.71653748
v 22.46999359 94.92125702 1.96850395
v 240.22590637 74.92125702 1.96850395
v 22.46999359 94.92125702 107.71653748
usemtl mat0
f 219 220 221
f 220 219 222
# Vertices: 4, normals: 0, texture coordinates: 0, faces: 2

o obj44
v 240.22590637 -242.51968384 1.96850395
v 22.46999359 -58.58267593 1.96850395
v 22.46999359 -242.51968384 1.96850395
v 22.46999359 -0.47244096 1.96850395
v 240.22590637 74.92125702 1.96850395
v 22.46999359 94.92125702 1.96850395
usemtl mat0
f 223 224 225
f 224 223 226
f 226 227 228
f 227 226 223
# Vertices: 6, normals: 0, texture coordinates: 0, faces: 4

o obj45
v 22.46999359 -58.58267593 1.96850395
v -0.01032051 -0.47244096 0
v -0.01032051 -58.58267593 0
v 22.46999359 -0.47244096 1.96850395
usemtl mat2
f 229 230 231
f 230 229 232
# Vertices: 4, normals: 0, texture coordinates: 0, faces: 2

o obj46
v 22.46999359 -58.58267593 1.96850395
v 22.46999359 -242.51968384 107.71653748
v 22.46999359 -242.51968384 1.96850395
v 22.46999359 -153.77952576 89.60630035
v 22.46999359 -137.12599182 89.60630035
v 22.46999359 -137.12599182 107.71653748
v 22.46999359 -58.58267593 86.3385849
v 22.46999359 19.64566994 107.71653748
v 22.46999359 -0.47244096 86.41732025
v 22.46999359 -153.77952576 107.71653748
usemtl mat0
f 233 234 235
f 234 233 236
f 236 233 237
f 237 233 238
f 238 233 239
f 238 239 240
f 240 239 241
f 242 234 236
# Vertices: 10, normals: 0, texture coordinates: 0, faces: 8

o obj47
v 22.46999359 94.92125702 1.96850395
v 22.46999359 19.64566994 89.60630035
v 22.46999359 -0.47244096 1.96850395
v 22.46999359 36.61417389 89.60630035
v 22.46999359 36.61417389 107.71653748
v 22.46999359 94.92125702 107.71653748
v 22.46999359 19.64566994 107.71653748
v 22.46999359 -0.47244096 86.41732025
usemtl mat0
f 243 244 245
f 244 243 246
f 246 243 247
f 247 243 248
f 245 249 250
f 249 245 244
# Vertices: 8, normals: 0, texture coordinates: 0, faces: 6

o obj48
v 22.46999359 -0.47244096 1.96850395
v -0.01032051 -0.47244096 86.41732025
v -0.01032051 -0.47244096 0
v 22.46999359 -0.47244096 86.41732025
usemtl mat2
f 251 252 253
f 252 251 254
# Vertices: 4, normals: 0, texture coordinates: 0, faces: 2

o obj49
usemtl mat3
f 199 201 200
f 200 202 199
# Vertices: 4, normals: 0, texture coordinates: 0, faces: 2

o obj50
usemtl mat4
f 137 139 138
f 138 140 137
# Vertices: 4, normals: 0, texture coordinates: 0, faces: 2

o obj51
usemtl mat4
f 141 143 142
f 142 144 141
# Vertices: 4, normals: 0, texture coordinates: 0, faces: 2

o obj52
usemtl mat4
f 145 147 146
f 146 148 145
# Vertices: 4, normals: 0, texture coordinates: 0, faces: 2

o obj53
usemtl mat4
f 149 151 150
f 150 152 149
# Vertices: 4, normals: 0, texture coordinates: 0, faces: 2

o obj54
usemtl mat4
f 191 193 192
f 192 194 191
# Vertices: 4, normals: 0, texture coordinates: 0, faces: 2
