mtllib mesh.mtl

# obj1
v -2.8234923900 4.0823775600 0.5950000200
v -1.3034924300 4.0823775600 0.1500000000
v -2.8234923900 4.0823775600 0.1500000000
v -1.3034924300 4.0823775600 0.5950000200
usemtl Patch_1_Mat_CR2_concrete
f 1 2 3
f 2 1 4

# obj2
v 2.8035075600 4.1893776200 0.4500000000
v 1.2605076500 4.1893776200 2.5680000400
v 1.2605076500 4.1893776200 0.4500000000
v 2.8035075600 4.1893776200 2.5680000400
usemtl Patch_2_Mat_CR2_windows
f 5 6 7
f 6 5 8

# obj3
v 0.7575075900 4.1893776200 2.5680000400
v -0.7694923700 4.1893776200 0.4500000000
v 0.7575075900 4.1893776200 0.4500000000
v -0.7694923700 4.1893776200 2.5680000400
usemtl Patch_3_Mat_CR2_windows
f 9 10 11
f 10 9 12

# obj4
v -1.2974924100 4.1893776200 2.5680000400
v -2.8844923400 4.1893776200 0.4500000000
v -1.2974924100 4.1893776200 0.4500000000
v -2.8844923400 4.1893776200 2.5680000400
usemtl Patch_4_Mat_CR2_windows
f 13 14 15
f 14 13 16

# obj5
v -1.6164924200 -2.8906222000 0.0000000000
v -1.6164924200 -4.2546220900 2.9879999800
v -1.6164924200 -4.2546220900 0.0000000000
v -1.6164924200 -2.8906222000 2.9879999800
usemtl Patch_5_Mat_CR2_concrete
f 17 18 19
f 18 17 20

# obj6
v -0.7634924000 4.0823775600 0.5950000200
v 0.7565076000 4.0823775600 0.1500000000
v -0.7634924000 4.0823775600 0.1500000000
v 0.7565076000 4.0823775600 0.5950000200
usemtl Patch_6_Mat_CR2_concrete
f 21 22 23
f 22 21 24

# obj7
v 1.2665075800 4.0823775600 0.5950000200
v 2.7865076300 4.0823775600 0.1500000000
v 1.2665075800 4.0823775600 0.1500000000
v 2.7865076300 4.0823775600 0.5950000200
usemtl Patch_7_Mat_CR2_concrete
f 25 26 27
f 26 25 28

# obj8
v 3.1550136200 4.1893776200 -0.0000000000
v 2.8035075600 4.1893776200 0.4500000000
v -2.8844923400 4.1893776200 0.0000000000
v 3.1550136200 4.1893776200 2.9879999800
v 1.2605076500 4.1893776200 0.4500000000
v -1.2974924100 4.1893776200 0.4500000000
v 2.8035075600 4.1893776200 2.5680000400
v 1.2605076500 4.1893776200 2.5680000400
v 0.7575075900 4.1893776200 2.5680000400
v -0.7694923700 4.1893776200 2.5680000400
v -1.2974924100 4.1893776200 2.5680000400
v -2.8844923400 4.1893776200 2.5680000400
v -2.8844923400 4.1893776200 2.9879999800
v -0.7694923700 4.1893776200 0.4500000000
v 0.7575075900 4.1893776200 0.4500000000
v -2.8844923400 4.1893776200 0.4500000000
usemtl Patch_8_Mat_CR2_concrete
f 29 30 31
f 30 29 32
f 31 30 33
f 31 33 34
f 30 32 35
f 35 32 36
f 36 32 37
f 37 32 38
f 38 32 39
f 39 32 40
f 40 32 41
f 34 42 39
f 39 42 38
f 36 43 33
f 43 36 37
f 44 31 34

# obj9
v 3.1215075300 -4.1978054000 0.0000000000
v -1.6164924200 -2.8906222000 0.0000000000
v -1.6164924200 -4.2546220900 0.0000000000
v -2.8844923400 4.1893776200 0.0000000000
v -2.8844923400 -2.8906222000 0.0000000000
v 3.1550136200 4.1893776200 -0.0000000000
usemtl Patch_9_Mat_CR2_floor
f 45 46 47
f 46 48 49
f 48 46 50
f 50 46 45

# obj10
v -2.8844923400 4.1893776200 0.0000000000
v -2.8844923400 -2.8906222000 2.9879589000
v -2.8844923400 -2.8906222000 0.0000000000
v -2.8844923400 4.1893776200 2.9879999800
v -2.8844923400 -2.8906222000 2.9879999800
v -2.8844923400 4.1893776200 0.4500000000
v -2.8844923400 4.1893776200 2.5680000400
usemtl Patch_10_Mat_CR2_plaster
f 51 52 53
f 52 54 55
f 54 52 51

# obj11
v -2.8844923400 -2.8906222000 2.9879589000
v -1.6164924200 -2.8906222000 0.0000000000
v -2.8844923400 -2.8906222000 0.0000000000
v -1.6164924200 -2.8906222000 2.9879999800
usemtl Patch_11_Mat_CR2_plaster
f 58 59 60
f 59 58 61

# obj12
v -1.6164924200 -2.8906222000 2.9879999800
v -2.8844923400 -2.8906222000 2.9879589000
v -2.8844923400 -2.8906222000 2.9879999800

# obj13
v -1.6164924200 -4.2546220900 2.9879999800
v 3.1215075300 -4.1978054000 0.0000000000
v -1.6164924200 -4.2546220900 0.0000000000
v 3.1215075300 -4.1978054000 2.9879999800
usemtl Patch_12_Mat_CR2_plaster
f 65 66 67
f 66 65 68

# obj14
v -2.8844923400 4.1893776200 2.9879999800
v -1.6164924200 -2.8906222000 2.9879999800
v -2.8844923400 -2.8906222000 2.9879999800
v 3.1550136200 4.1893776200 2.9879999800
v -1.6164924200 -4.2546220900 2.9879999800
v 3.1215075300 -4.1978054000 2.9879999800
usemtl Patch_13_Mat_CR2_ceiling
f 69 70 71
f 70 69 72
f 70 72 73
f 73 72 74

# obj15
v 3.1550136200 4.1893776200 2.9879999800
v 3.1215075300 -4.1978054000 0.0000000000
v 3.1215075300 -4.1978054000 2.9879999800
v 3.1550136200 4.1893776200 -0.0000000000
usemtl Patch_14_Mat_CR2_concrete
f 75 76 77
f 76 75 78

# obj16
usemtl Patch_15_Mat_CR2_concrete
f 1 3 2
f 2 4 1

# obj17
usemtl Patch_16_Mat_CR2_concrete
f 21 23 22
f 22 24 21

# obj18
usemtl Patch_17_Mat_CR2_concrete
f 25 27 26
f 26 28 25
