mtllib mesh.mtl

v -2.823 4.082 0.150
v -1.303 4.242 0.150
v -2.823 4.242 0.150
v -1.303 4.242 0.150
v -2.823 4.082 0.150
v -1.303 4.082 0.150
v -2.823 4.242 0.595
v -1.303 4.082 0.595
v -2.823 4.082 0.595
v -1.303 4.082 0.595
v -2.823 4.242 0.595
v -1.303 4.242 0.595
v -1.303 4.082 0.595
v -1.303 4.242 0.150
v -1.303 4.082 0.150
v -1.303 4.242 0.150
v -1.303 4.082 0.595
v -1.303 4.242 0.595
v -1.303 4.242 0.150
v -2.823 4.242 0.595
v -2.823 4.242 0.150
v -2.823 4.242 0.595
v -1.303 4.242 0.150
v -1.303 4.242 0.595
v -2.823 4.082 0.150
v -2.823 4.242 0.595
v -2.823 4.082 0.595
v -2.823 4.242 0.595
v -2.823 4.082 0.150
v -2.823 4.242 0.150
v -2.823 4.082 0.150
v -1.303 4.082 0.595
v -1.303 4.082 0.150
v -1.303 4.082 0.595
v -2.823 4.082 0.150
v -2.823 4.082 0.595
v -0.763 4.082 0.150
v 0.757 4.242 0.150
v -0.763 4.242 0.150
v 0.757 4.242 0.150
v -0.763 4.082 0.150
v 0.757 4.082 0.150
v -0.763 4.242 0.595
v 0.757 4.082 0.595
v -0.763 4.082 0.595
v 0.757 4.082 0.595
v -0.763 4.242 0.595
v 0.757 4.242 0.595
v -0.763 4.082 0.150
v 0.757 4.082 0.595
v 0.757 4.082 0.150
v 0.757 4.082 0.595
v -0.763 4.082 0.150
v -0.763 4.082 0.595
v 0.757 4.082 0.595
v 0.757 4.242 0.150
v 0.757 4.082 0.150
v 0.757 4.242 0.150
v 0.757 4.082 0.595
v 0.757 4.242 0.595
v -0.763 4.082 0.150
v -0.763 4.242 0.595
v -0.763 4.082 0.595
v -0.763 4.242 0.595
v -0.763 4.082 0.150
v -0.763 4.242 0.150
v 0.757 4.242 0.150
v -0.763 4.242 0.595
v -0.763 4.242 0.150
v -0.763 4.242 0.595
v 0.757 4.242 0.150
v 0.757 4.242 0.595
v 1.261 4.189 2.568
v 2.804 4.337 2.568
v 1.261 4.337 2.568
v 2.804 4.337 2.568
v 1.261 4.189 2.568
v 2.804 4.189 2.568
v 1.261 4.337 1.506
v 2.804 4.337 0.450
v 1.261 4.337 0.450
v 2.804 4.337 0.450
v 1.261 4.337 1.506
v 2.804 4.337 1.510
v 2.804 4.337 1.510
v 1.261 4.337 2.568
v 2.804 4.337 2.568
v 1.261 4.337 2.568
v 2.804 4.337 1.510
v 1.261 4.337 1.506
v 2.869 3.446 0.916
v 2.869 3.815 1.126
v 2.869 3.446 1.126
v 2.869 3.815 1.126
v 2.869 3.446 0.916
v 2.869 3.815 0.610
v 3.137 -0.364 0.944
v 3.131 -1.695 1.053
v 3.132 -1.695 0.000
v 3.132 -1.695 0.000
v 3.138 -0.195 -0.000
v 3.137 -0.364 0.944
v 3.142 1.041 1.455
v 3.138 -0.029 1.520
v 3.137 -0.364 0.944
v 3.137 -0.364 0.944
v 3.138 -0.195 -0.000
v 3.143 1.056 -0.000
v 3.143 1.056 -0.000
v 3.142 1.041 1.455
v 3.137 -0.364 0.944
v 3.137 -0.364 0.944
v 3.138 -0.029 1.520
v 3.136 -0.301 2.028
v 3.137 -0.364 0.944
v 3.131 -1.695 1.963
v 3.131 -1.695 1.053
v 3.131 -1.695 1.963
v 3.137 -0.364 0.944
v 3.136 -0.301 2.028
v 3.136 -0.301 2.028
v 3.138 -0.029 1.520
v 3.142 1.041 1.455
v 3.136 -0.301 2.028
v 3.142 1.157 1.549
v 3.142 1.166 2.988
v 3.142 1.166 2.988
v 3.136 -0.132 2.988
v 3.136 -0.301 2.028
v 3.142 1.157 1.549
v 3.136 -0.301 2.028
v 3.142 1.041 1.455
v 3.136 -0.301 2.028
v 3.136 -0.132 2.988
v 3.130 -1.695 2.988
v 3.130 -1.695 2.988
v 3.131 -1.695 1.963
v 3.136 -0.301 2.028
v 3.147 2.393 1.438
v 3.142 1.157 1.549
v 3.142 1.041 1.455
v 3.142 1.041 1.455
v 3.143 1.056 -0.000
v 3.148 2.361 -0.000
v 3.148 2.361 -0.000
v 3.147 2.393 1.438
v 3.142 1.041 1.455
v 3.142 1.157 1.549
v 3.147 2.393 1.438
v 3.148 2.498 1.522
v 3.142 1.157 1.549
v 3.147 2.506 2.988
v 3.142 1.166 2.988
v 3.147 2.506 2.988
v 3.142 1.157 1.549
v 3.148 2.498 1.522
v 3.154 3.811 -0.000
v 3.152 3.446 0.916
v 3.148 2.361 -0.000
v 3.152 3.446 0.916
v 3.154 3.811 -0.000
v 3.154 3.811 0.610
v 3.152 3.446 1.126
v 3.153 3.811 1.126
v 3.153 3.811 1.421
v 3.148 2.361 -0.000
v 3.152 3.446 0.916
v 3.147 2.393 1.438
v 3.152 3.446 1.126
v 3.153 3.811 1.421
v 3.148 2.498 1.522
v 3.147 2.393 1.438
v 3.152 3.446 0.916
v 3.148 2.498 1.522
v 3.152 3.446 0.916
v 3.152 3.446 1.126
v 3.148 2.498 1.522
v 3.148 2.498 1.522
v 3.153 3.811 1.421
v 3.152 3.811 2.988
v 3.152 3.811 2.988
v 3.147 2.506 2.988
v 3.148 2.498 1.522
v 3.154 3.811 1.126
v 3.152 3.446 1.126
v 2.869 3.446 1.126
v 2.869 3.446 1.126
v 2.869 3.815 1.126
v 3.154 3.811 1.126
v 2.869 3.815 0.000
v 3.154 3.811 0.610
v 3.154 3.811 0.000
v 3.154 3.811 0.610
v 2.869 3.815 0.000
v 2.869 3.815 0.610
v 3.154 3.811 0.610
v 2.869 3.815 0.610
v 2.869 3.446 0.916
v 2.869 3.446 0.916
v 3.152 3.446 1.126
v 3.152 3.446 0.916
v 3.152 3.446 1.126
v 2.869 3.446 0.916
v 2.869 3.446 1.126
v 2.649 2.203 2.988
v 2.649 2.203 2.888
v 2.649 2.003 2.888
v 2.649 2.003 2.888
v 2.649 2.003 2.988
v 2.649 2.203 2.988
v 3.154 3.811 0.610
v 2.869 3.446 0.916
v 3.152 3.446 0.916
v -2.584 2.203 2.988
v -2.584 2.203 2.888
v -1.284 2.203 2.888
v 2.649 2.203 2.988
v 1.316 2.203 2.888
v 2.649 2.203 2.888
v 0.016 2.203 2.888
v 2.649 2.203 2.988
v -2.584 2.203 2.988
v -2.584 2.203 2.988
v -1.284 2.203 2.888
v 0.016 2.203 2.888
v 2.649 2.203 2.988
v 0.016 2.203 2.888
v 1.316 2.203 2.888
v -2.584 2.203 2.888
v -2.584 2.203 2.988
v -2.584 2.003 2.988
v -2.584 2.003 2.988
v -2.584 2.003 2.888
v -2.584 2.203 2.888
v 2.869 4.189 2.988
v 2.869 3.815 2.988
v 2.869 3.815 1.126
v 2.869 3.815 0.610
v 2.869 3.815 0.000
v 2.869 4.189 0.000
v 2.869 4.189 0.000
v 2.869 4.189 2.988
v 2.869 3.815 1.126
v 2.869 3.815 1.126
v 2.869 3.815 0.610
v 2.869 4.189 0.000
v 2.649 2.003 2.988
v 2.649 2.003 2.888
v 1.316 2.003 2.888
v -2.584 2.003 2.988
v -1.284 2.003 2.888
v -2.584 2.003 2.888
v 0.016 2.003 2.888
v -2.584 2.003 2.988
v 2.649 2.003 2.988
v 2.649 2.003 2.988
v 1.316 2.003 2.888
v 0.016 2.003 2.888
v -2.584 2.003 2.988
v 0.016 2.003 2.888
v -1.284 2.003 2.888
v 3.024 -3.920 0.780
v 3.024 -3.695 0.658
v 3.024 -3.920 0.658
v 3.024 -3.695 0.658
v 3.024 -3.920 0.780
v 3.024 -3.695 0.780
v 2.869 3.815 1.126
v 3.154 3.811 2.988
v 3.154 3.811 1.126
v 3.154 3.811 2.988
v 2.869 3.815 1.126
v 2.869 3.815 2.988
v -2.884 3.785 2.500
v -2.884 3.785 0.000
v -3.036 3.785 0.000
v -3.036 3.785 0.000
v -3.036 3.785 2.500
v -2.884 3.785 2.500
v -3.036 -2.891 2.500
v -2.884 3.785 2.500
v -3.036 3.785 2.500
v -2.884 3.785 2.500
v -3.036 -2.891 2.500
v -2.884 -2.891 2.500
v -3.036 2.543 1.180
v -3.036 3.785 1.394
v -3.036 3.785 0.000
v -3.036 3.785 0.000
v -3.036 2.521 0.000
v -3.036 2.543 1.180
v -3.036 1.193 1.093
v -3.036 2.142 1.529
v -3.036 2.543 1.180
v -3.036 1.193 1.093
v -3.036 2.521 0.000
v -3.036 1.192 0.000
v -3.036 2.521 0.000
v -3.036 1.193 1.093
v -3.036 2.543 1.180
v -3.036 2.543 1.180
v -3.036 2.142 1.529
v -3.036 2.142 2.500
v -3.036 2.543 1.180
v -3.036 3.785 2.500
v -3.036 3.785 1.394
v -3.036 3.785 2.500
v -3.036 2.543 1.180
v -3.036 2.142 2.500
v -3.036 -0.209 1.090
v -3.036 0.500 1.559
v -3.036 1.193 1.093
v -3.036 -0.209 1.090
v -3.036 1.192 0.000
v -3.036 -0.217 0.000
v -3.036 1.192 0.000
v -3.036 -0.209 1.090
v -3.036 1.193 1.093
v -3.036 0.503 2.500
v -3.036 1.193 1.093
v -3.036 0.500 1.559
v -3.036 1.193 1.093
v -3.036 0.503 2.500
v -3.036 2.142 2.500
v -3.036 1.193 1.093
v -3.036 2.142 2.500
v -3.036 2.142 1.529
v -3.036 -1.174 2.500
v -3.036 -0.209 1.090
v -3.036 -1.175 1.563
v -3.036 -0.209 1.090
v -3.036 -1.174 2.500
v -3.036 0.503 2.500
v -3.036 -0.209 1.090
v -3.036 0.503 2.500
v -3.036 0.500 1.559
v -3.036 -1.602 1.177
v -3.036 -1.175 1.563
v -3.036 -0.209 1.090
v -3.036 -0.209 1.090
v -3.036 -0.217 0.000
v -3.036 -1.573 0.000
v -3.036 -1.573 0.000
v -3.036 -1.602 1.177
v -3.036 -0.209 1.090
v -3.036 -1.602 1.177
v -3.036 -1.573 0.000
v -3.036 -2.891 0.000
v -3.036 -2.891 0.000
v -3.036 -2.891 1.414
v -3.036 -1.602 1.177
v -3.036 -2.891 2.500
v -3.036 -1.602 1.177
v -3.036 -2.891 1.414
v -3.036 -1.602 1.177
v -3.036 -2.891 2.500
v -3.036 -1.174 2.500
v -3.036 -1.602 1.177
v -3.036 -1.174 2.500
v -3.036 -1.175 1.563
v 2.489 -3.695 0.000
v 1.601 -2.642 0.000
v 2.504 -2.702 0.000
v 3.094 -4.255 0.000
v 2.564 -3.695 0.000
v 3.094 -3.695 0.000
v 2.489 -3.695 0.000
v 3.094 -4.255 0.000
v 1.314 -4.255 0.000
v 1.601 -2.642 0.000
v 2.489 -3.695 0.000
v 1.269 -2.988 0.000
v 3.094 -4.255 0.000
v 2.489 -3.695 0.000
v 2.564 -3.695 0.000
v 1.269 -2.988 0.000
v 2.489 -3.695 0.000
v 1.314 -4.255 0.000
v 2.077 -0.950 0.000
v 1.624 -0.003 0.000
v 2.056 0.626 0.000
v 2.077 -0.950 0.000
v 3.141 0.584 0.000
v 3.134 -1.179 0.000
v 3.141 0.584 0.000
v 2.077 -0.950 0.000
v 2.056 0.626 0.000
v 2.519 -1.695 0.000
v 1.308 -1.670 0.000
v 2.077 -0.950 0.000
v 2.519 -1.695 0.000
v 3.134 -1.179 0.000
v 3.132 -1.695 0.000
v 2.519 -1.695 0.000
v 2.504 -2.702 0.000
v 1.601 -2.642 0.000
v 3.134 -1.179 0.000
v 2.519 -1.695 0.000
v 2.077 -0.950 0.000
v 1.308 -1.670 0.000
v 2.519 -1.695 0.000
v 1.601 -2.642 0.000
v 3.141 0.584 0.000
v 1.702 1.373 0.000
v 2.538 2.392 0.000
v 2.538 2.392 0.000
v 3.148 2.415 0.000
v 3.141 0.584 0.000
v 1.702 1.373 0.000
v 3.141 0.584 0.000
v 2.056 0.626 0.000
v 1.702 1.373 0.000
v 0.917 1.622 0.000
v 0.945 2.785 0.000
v 1.702 1.373 0.000
v 1.708 3.058 0.000
v 2.538 2.392 0.000
v 1.708 3.058 0.000
v 1.702 1.373 0.000
v 0.945 2.785 0.000
v -0.253 -4.255 0.000
v 1.269 -2.988 0.000
v 1.314 -4.255 0.000
v 1.269 -2.988 0.000
v -0.253 -4.255 0.000
v -0.101 -2.858 0.000
v 1.308 -1.670 0.000
v 0.471 -1.338 0.000
v 0.794 -0.068 0.000
v 0.794 -0.068 0.000
v 1.624 -0.003 0.000
v 2.077 -0.950 0.000
v 2.077 -0.950 0.000
v 1.308 -1.670 0.000
v 0.794 -0.068 0.000
v 0.419 1.347 0.000
v 0.794 -0.068 0.000
v 0.251 0.394 0.000
v 0.794 -0.068 0.000
v 0.917 1.622 0.000
v 1.702 1.373 0.000
v 1.624 -0.003 0.000
v 1.702 1.373 0.000
v 2.056 0.626 0.000
v 1.702 1.373 0.000
v 1.624 -0.003 0.000
v 0.794 -0.068 0.000
v 0.917 1.622 0.000
v 0.794 -0.068 0.000
v 0.419 1.347 0.000
v 0.758 4.189 0.000
v 0.945 2.785 0.000
v 0.333 3.149 0.000
v 0.758 4.189 0.000
v 0.339 4.307 0.000
v 0.758 4.307 0.000
v 1.261 4.189 0.000
v 1.261 4.307 0.000
v 1.946 4.307 0.000
v 0.945 2.785 0.000
v 1.261 4.189 0.000
v 1.708 3.058 0.000
v 0.339 4.307 0.000
v 0.758 4.189 0.000
v 0.333 3.149 0.000
v 1.708 3.058 0.000
v 1.261 4.189 0.000
v 1.946 4.307 0.000
v 0.945 2.785 0.000
v 0.758 4.189 0.000
v 1.261 4.189 0.000
v 2.869 3.815 0.000
v 1.708 3.058 0.000
v 1.946 4.307 0.000
v 1.946 4.307 0.000
v 2.804 4.307 0.000
v 2.804 4.189 0.000
v 2.804 4.189 0.000
v 2.869 4.189 0.000
v 2.869 3.815 0.000
v 2.869 3.815 0.000
v 3.154 3.811 0.000
v 3.148 2.415 0.000
v 1.708 3.058 0.000
v 2.869 3.815 0.000
v 2.538 2.392 0.000
v 1.946 4.307 0.000
v 2.804 4.189 0.000
v 2.869 3.815 0.000
v 2.538 2.392 0.000
v 2.869 3.815 0.000
v 3.148 2.415 0.000
v 0.917 1.622 0.000
v 0.419 1.347 0.000
v -0.476 1.863 0.000
v 0.945 2.785 0.000
v -0.387 2.785 0.000
v 0.333 3.149 0.000
v -0.476 1.863 0.000
v 0.945 2.785 0.000
v 0.917 1.622 0.000
v 0.945 2.785 0.000
v -0.476 1.863 0.000
v -0.387 2.785 0.000
v 1.308 -1.670 0.000
v 1.601 -2.642 0.000
v 1.269 -2.988 0.000
v 0.104 -1.471 0.000
v -0.101 -2.858 0.000
v -0.238 -2.681 0.000
v 1.308 -1.670 0.000
v 0.104 -1.471 0.000
v 0.471 -1.338 0.000
v -0.101 -2.858 0.000
v 1.308 -1.670 0.000
v 1.269 -2.988 0.000
v 0.104 -1.471 0.000
v 1.308 -1.670 0.000
v -0.101 -2.858 0.000
v -0.730 -0.946 0.000
v 0.471 -1.338 0.000
v 0.104 -1.471 0.000
v 0.794 -0.068 0.000
v -0.730 -0.946 0.000
v -0.449 0.170 0.000
v -0.449 0.170 0.000
v 0.251 0.394 0.000
v 0.794 -0.068 0.000
v -0.730 -0.946 0.000
v 0.794 -0.068 0.000
v 0.471 -1.338 0.000
v -0.238 -2.681 0.000
v -1.336 -2.609 0.000
v -1.638 -1.705 0.000
v -1.638 -1.705 0.000
v -1.367 -1.111 0.000
v -0.730 -0.946 0.000
v -1.638 -1.705 0.000
v 0.104 -1.471 0.000
v -0.238 -2.681 0.000
v 0.104 -1.471 0.000
v -1.638 -1.705 0.000
v -0.730 -0.946 0.000
v -0.449 0.170 0.000
v -1.333 0.730 0.000
v -1.221 1.488 0.000
v -0.449 0.170 0.000
v -0.476 1.863 0.000
v 0.419 1.347 0.000
v 0.419 1.347 0.000
v 0.251 0.394 0.000
v -0.449 0.170 0.000
v -0.476 1.863 0.000
v -0.449 0.170 0.000
v -1.221 1.488 0.000
v -1.336 -2.609 0.000
v -0.238 -2.681 0.000
v -0.101 -2.858 0.000
v -1.616 -2.943 0.000
v -0.253 -4.255 0.000
v -1.616 -4.255 0.000
v -0.101 -2.858 0.000
v -1.616 -2.943 0.000
v -1.336 -2.609 0.000
v -1.616 -2.943 0.000
v -0.101 -2.858 0.000
v -0.253 -4.255 0.000
v -0.476 1.863 0.000
v -1.221 1.488 0.000
v -1.845 2.018 0.000
v -0.387 2.785 0.000
v -1.779 2.924 0.000
v -1.263 3.297 0.000
v -1.845 2.018 0.000
v -0.387 2.785 0.000
v -0.476 1.863 0.000
v -0.387 2.785 0.000
v -1.845 2.018 0.000
v -1.779 2.924 0.000
v -1.947 -0.446 0.000
v -1.367 -1.111 0.000
v -1.638 -1.705 0.000
v -1.947 -0.446 0.000
v -3.036 -1.764 0.000
v -3.036 -0.601 0.000
v -3.036 -1.764 0.000
v -1.947 -0.446 0.000
v -1.638 -1.705 0.000
v -1.947 -0.446 0.000
v -0.730 -0.946 0.000
v -1.367 -1.111 0.000
v -0.449 0.170 0.000
v -1.947 -0.446 0.000
v -1.705 0.502 0.000
v -1.705 0.502 0.000
v -1.333 0.730 0.000
v -0.449 0.170 0.000
v -1.947 -0.446 0.000
v -0.449 0.170 0.000
v -0.730 -0.946 0.000
v -1.336 -2.609 0.000
v -1.616 -2.943 0.000
v -1.616 -2.891 0.000
v -1.616 -2.891 0.000
v -1.815 -2.891 0.000
v -1.815 -2.871 0.000
v -2.875 -2.871 0.000
v -2.875 -2.891 0.000
v -3.036 -2.891 0.000
v -1.815 -2.871 0.000
v -3.036 -1.764 0.000
v -1.638 -1.705 0.000
v -1.815 -2.871 0.000
v -1.336 -2.609 0.000
v -1.616 -2.891 0.000
v -3.036 -1.764 0.000
v -2.875 -2.871 0.000
v -3.036 -2.891 0.000
v -1.336 -2.609 0.000
v -1.815 -2.871 0.000
v -1.638 -1.705 0.000
v -3.036 -1.764 0.000
v -1.815 -2.871 0.000
v -2.875 -2.871 0.000
v -2.884 3.785 0.000
v -1.779 2.924 0.000
v -3.036 3.352 0.000
v -3.036 3.352 0.000
v -3.036 3.785 0.000
v -2.884 3.785 0.000
v -2.884 3.785 0.000
v -2.884 4.189 0.000
v -2.829 4.189 0.000
v -2.829 4.189 0.000
v -2.829 4.307 0.000
v -1.297 4.307 0.000
v -1.297 4.189 0.000
v -1.228 4.189 0.000
v -1.263 3.297 0.000
v -1.297 4.189 0.000
v -1.779 2.924 0.000
v -2.884 3.785 0.000
v -1.297 4.189 0.000
v -2.829 4.189 0.000
v -1.297 4.307 0.000
v -1.779 2.924 0.000
v -1.297 4.189 0.000
v -1.263 3.297 0.000
v -2.829 4.189 0.000
v -1.297 4.189 0.000
v -2.884 3.785 0.000
v -0.769 4.189 0.000
v -0.387 2.785 0.000
v -1.263 3.297 0.000
v -1.263 3.297 0.000
v -1.228 4.189 0.000
v -0.769 4.189 0.000
v -0.769 4.189 0.000
v -0.769 4.307 0.000
v 0.339 4.307 0.000
v -0.769 4.189 0.000
v 0.333 3.149 0.000
v -0.387 2.785 0.000
v 0.333 3.149 0.000
v -0.769 4.189 0.000
v 0.339 4.307 0.000
v -1.845 2.018 0.000
v -1.705 0.502 0.000
v -3.036 0.938 0.000
v -3.036 0.938 0.000
v -3.036 1.647 0.000
v -1.845 2.018 0.000
v -1.705 0.502 0.000
v -1.221 1.488 0.000
v -1.333 0.730 0.000
v -1.221 1.488 0.000
v -1.705 0.502 0.000
v -1.845 2.018 0.000
v -3.036 0.938 0.000
v -1.947 -0.446 0.000
v -3.036 -0.601 0.000
v -1.947 -0.446 0.000
v -3.036 0.938 0.000
v -1.705 0.502 0.000
v -3.036 3.352 0.000
v -1.845 2.018 0.000
v -3.036 1.647 0.000
v -1.845 2.018 0.000
v -3.036 3.352 0.000
v -1.779 2.924 0.000
v 3.094 -3.942 1.111
v 3.094 -4.255 2.988
v 3.094 -4.255 1.111
v 3.094 -3.695 0.000
v 3.094 -4.255 0.578
v 3.094 -4.255 -0.000
v 3.094 -4.255 2.988
v 3.094 -3.942 1.111
v 3.094 -3.695 2.988
v 3.094 -4.255 0.578
v 3.094 -3.695 0.000
v 3.094 -3.942 0.907
v 3.094 -3.695 0.000
v 3.094 -3.695 2.988
v 3.094 -3.942 1.111
v 3.094 -3.942 1.111
v 3.094 -3.942 0.907
v 3.094 -3.695 0.000
v -2.584 -0.046 2.988
v -2.584 -0.046 2.888
v -1.284 -0.046 2.888
v 2.649 -0.046 2.988
v 1.316 -0.046 2.888
v 2.649 -0.046 2.888
v 0.016 -0.046 2.888
v 2.649 -0.046 2.988
v -2.584 -0.046 2.988
v -2.584 -0.046 2.988
v -1.284 -0.046 2.888
v 0.016 -0.046 2.888
v 2.649 -0.046 2.988
v 0.016 -0.046 2.888
v 1.316 -0.046 2.888
v 0.016 -0.246 2.888
v 1.316 -0.046 2.888
v 0.016 -0.046 2.888
v 1.316 -0.046 2.888
v 0.016 -0.246 2.888
v 1.316 -0.246 2.888
v 2.564 -3.695 0.658
v 2.564 -3.695 -0.000
v 2.489 -3.695 -0.000
v 2.564 -3.695 -0.000
v 2.564 -3.695 0.658
v 3.024 -3.695 0.658
v 2.564 -3.695 -0.000
v 3.024 -3.695 0.658
v 3.094 -3.695 0.000
v 2.564 -3.695 0.780
v 2.564 -3.695 0.658
v 2.489 -3.695 -0.000
v 3.024 -3.695 0.780
v 3.094 -3.695 0.000
v 3.024 -3.695 0.658
v 2.564 -3.695 0.780
v 2.489 -3.695 -0.000
v 2.489 -3.695 2.988
v 3.094 -3.695 0.000
v 3.024 -3.695 0.780
v 3.094 -3.695 2.988
v 3.094 -3.695 2.988
v 2.564 -3.695 0.780
v 2.489 -3.695 2.988
v 2.564 -3.695 0.780
v 3.094 -3.695 2.988
v 3.024 -3.695 0.780
v 2.504 -2.707 1.501
v 2.519 -1.695 1.132
v 2.519 -1.695 2.988
v 2.519 -1.695 2.988
v 2.505 -2.655 2.988
v 2.504 -2.707 1.501
v 2.504 -2.707 1.501
v 2.489 -3.695 1.174
v 2.489 -3.695 -0.000
v 2.504 -2.707 1.501
v 2.519 -1.695 -0.000
v 2.519 -1.695 1.132
v 2.519 -1.695 -0.000
v 2.504 -2.707 1.501
v 2.489 -3.695 -0.000
v 2.504 -2.707 1.501
v 2.505 -2.655 2.988
v 2.489 -3.695 2.988
v 2.489 -3.695 2.988
v 2.489 -3.695 1.174
v 2.504 -2.707 1.501
v 3.132 -1.695 0.000
v 2.519 -1.695 2.988
v 2.519 -1.695 0.000
v 2.519 -1.695 2.988
v 3.132 -1.695 0.000
v 3.132 -1.695 2.988
v -1.616 -4.255 2.988
v 0.023 -4.255 2.425
v 0.025 -4.255 2.988
v -0.831 -4.255 1.498
v -1.616 -4.255 2.988
v -1.616 -4.255 1.506
v -1.616 -4.255 2.988
v -0.831 -4.255 1.498
v 0.023 -4.255 2.425
v 1.613 -4.255 1.525
v 0.846 -4.255 1.487
v 1.541 -4.255 1.463
v 0.846 -4.255 1.487
v 1.613 -4.255 1.525
v 1.713 -4.255 2.988
v 1.713 -4.255 2.988
v 0.025 -4.255 2.988
v 0.023 -4.255 2.425
v 0.846 -4.255 1.487
v 1.713 -4.255 2.988
v 0.023 -4.255 2.425
v -1.616 -4.255 0.000
v -0.831 -4.255 1.498
v -1.616 -4.255 1.506
v -0.015 -4.255 0.595
v -1.616 -4.255 0.000
v -0.023 -4.255 0.000
v -1.616 -4.255 0.000
v -0.015 -4.255 0.595
v -0.831 -4.255 1.498
v 1.645 -4.255 -0.000
v 0.846 -4.255 1.487
v -0.015 -4.255 0.595
v -0.015 -4.255 0.595
v -0.023 -4.255 0.000
v 1.645 -4.255 -0.000
v 0.846 -4.255 1.487
v 1.645 -4.255 -0.000
v 1.541 -4.255 1.463
v 0.846 -4.255 1.487
v 0.023 -4.255 2.425
v -0.831 -4.255 1.498
v -0.831 -4.255 1.498
v -0.015 -4.255 0.595
v 0.846 -4.255 1.487
v 1.713 -4.255 2.988
v 3.094 -4.255 1.445
v 3.094 -4.255 2.988
v 3.094 -4.255 1.445
v 1.713 -4.255 2.988
v 1.613 -4.255 1.525
v 2.902 -4.255 0.578
v 1.541 -4.255 1.463
v 1.645 -4.255 -0.000
v 2.902 -4.255 0.578
v 3.094 -4.255 -0.000
v 3.094 -4.255 0.578
v 2.902 -4.255 1.111
v 3.094 -4.255 1.111
v 3.094 -4.255 1.445
v 1.541 -4.255 1.463
v 2.902 -4.255 1.111
v 1.613 -4.255 1.525
v 3.094 -4.255 -0.000
v 2.902 -4.255 0.578
v 1.645 -4.255 -0.000
v 1.613 -4.255 1.525
v 2.902 -4.255 1.111
v 3.094 -4.255 1.445
v 1.541 -4.255 1.463
v 2.902 -4.255 0.578
v 2.902 -4.255 1.111
v -1.616 -2.888 0.984
v -1.616 -2.891 0.000
v -1.616 -4.255 0.000
v -1.616 -4.255 0.000
v -1.616 -4.255 1.009
v -1.616 -2.888 0.984
v -1.616 -4.255 1.009
v -1.616 -4.255 1.985
v -1.616 -2.884 1.999
v -1.616 -2.884 1.999
v -1.616 -2.888 0.984
v -1.616 -4.255 1.009
v -1.616 -2.884 1.999
v -1.616 -4.255 2.988
v -1.616 -2.881 2.988
v -1.616 -4.255 2.988
v -1.616 -2.884 1.999
v -1.616 -4.255 1.985
v -2.884 3.785 2.500
v -2.884 4.189 0.000
v -2.884 3.785 -0.000
v -2.884 3.785 2.500
v -2.884 2.552 2.500
v -2.884 2.720 2.988
v -2.884 4.189 0.000
v -2.884 3.785 2.500
v -2.884 4.189 2.988
v -2.884 3.785 2.500
v -2.884 2.720 2.988
v -2.884 4.189 2.988
v -2.884 -0.135 2.500
v -2.884 -2.891 2.500
v -2.884 -2.881 2.988
v -2.884 -2.881 2.988
v -2.884 -0.135 2.988
v -2.884 -0.135 2.500
v -2.884 2.552 2.500
v -2.884 -0.135 2.500
v -2.884 -0.135 2.988
v -2.884 -0.135 2.988
v -2.884 2.720 2.988
v -2.884 2.552 2.500
v -2.584 -0.246 2.888
v -1.284 -0.046 2.888
v -2.584 -0.046 2.888
v -1.284 -0.046 2.888
v -2.584 -0.246 2.888
v -1.284 -0.246 2.888
v -2.584 -0.246 2.888
v -2.584 -0.046 2.988
v -2.584 -0.246 2.988
v -2.584 -0.046 2.988
v -2.584 -0.246 2.888
v -2.584 -0.046 2.888
v 2.499 -2.495 2.988
v 2.499 -2.495 2.888
v 1.166 -2.495 2.888
v -1.334 -2.495 2.888
v -2.584 -2.495 2.888
v -2.584 -2.495 2.988
v -0.084 -2.495 2.888
v 2.499 -2.495 2.988
v 1.166 -2.495 2.888
v -0.084 -2.495 2.888
v -1.334 -2.495 2.888
v -2.584 -2.495 2.988
v 2.499 -2.495 2.988
v -0.084 -2.495 2.888
v -2.584 -2.495 2.988
v 2.499 -2.295 2.988
v 2.499 -2.295 2.888
v 2.499 -2.495 2.888
v 2.499 -2.495 2.888
v 2.499 -2.495 2.988
v 2.499 -2.295 2.988
v 2.649 -0.246 2.988
v 2.649 -0.246 2.888
v 1.316 -0.246 2.888
v -2.584 -0.246 2.988
v -1.284 -0.246 2.888
v -2.584 -0.246 2.888
v 0.016 -0.246 2.888
v -2.584 -0.246 2.988
v 2.649 -0.246 2.988
v 2.649 -0.246 2.988
v 1.316 -0.246 2.888
v 0.016 -0.246 2.888
v -2.584 -0.246 2.988
v 0.016 -0.246 2.888
v -1.284 -0.246 2.888
v -2.584 -2.295 2.888
v -2.584 -2.295 2.988
v -2.584 -2.495 2.988
v -2.584 -2.495 2.988
v -2.584 -2.495 2.888
v -2.584 -2.295 2.888
v -2.584 -2.295 2.988
v -2.584 -2.295 2.888
v -1.334 -2.295 2.888
v 2.499 -2.295 2.988
v -0.084 -2.295 2.888
v 1.166 -2.295 2.888
v 1.166 -2.295 2.888
v 2.499 -2.295 2.888
v 2.499 -2.295 2.988
v -0.084 -2.295 2.888
v -2.584 -2.295 2.988
v -1.334 -2.295 2.888
v -2.584 -2.295 2.988
v -0.084 -2.295 2.888
v 2.499 -2.295 2.988
v -0.084 -2.495 2.888
v 1.166 -2.295 2.888
v -0.084 -2.295 2.888
v 1.166 -2.295 2.888
v -0.084 -2.495 2.888
v 1.166 -2.495 2.888
v 2.644 -4.000 0.658
v 3.024 -3.695 0.658
v 2.564 -3.695 0.658
v 2.644 -4.000 0.658
v 2.564 -3.695 0.658
v 2.564 -3.920 0.658
v 3.024 -3.695 0.658
v 2.944 -4.000 0.658
v 3.024 -3.920 0.658
v 3.024 -3.695 0.658
v 2.644 -4.000 0.658
v 2.944 -4.000 0.658
v -1.284 -0.246 2.888
v 0.016 -0.046 2.888
v -1.284 -0.046 2.888
v 0.016 -0.046 2.888
v -1.284 -0.246 2.888
v 0.016 -0.246 2.888
v 2.902 -3.942 1.111
v 3.094 -4.255 1.111
v 2.902 -4.255 1.111
v 3.094 -4.255 1.111
v 2.902 -3.942 1.111
v 3.094 -3.942 1.111
v 2.902 -3.942 0.907
v 2.902 -3.942 1.111
v 2.902 -4.255 1.111
v 2.902 -4.255 1.111
v 2.902 -4.255 0.578
v 2.902 -3.942 0.907
v 3.094 -3.942 0.907
v 2.902 -3.942 1.111
v 2.902 -3.942 0.907
v 2.902 -3.942 1.111
v 3.094 -3.942 0.907
v 3.094 -3.942 1.111
v 2.564 -3.920 0.658
v 2.564 -3.695 0.780
v 2.564 -3.920 0.780
v 2.564 -3.695 0.780
v 2.564 -3.920 0.658
v 2.564 -3.695 0.658
v 2.644 -4.000 0.780
v 2.564 -3.695 0.780
v 3.024 -3.695 0.780
v 2.644 -4.000 0.780
v 2.564 -3.930 0.780
v 2.564 -3.695 0.780
v 2.644 -4.000 0.780
v 3.024 -3.695 0.780
v 2.944 -4.000 0.780
v 3.024 -3.920 0.780
v 2.944 -4.000 0.780
v 3.024 -3.695 0.780
v 1.166 -2.495 2.888
v 2.499 -2.295 2.888
v 1.166 -2.295 2.888
v 2.499 -2.295 2.888
v 1.166 -2.495 2.888
v 2.499 -2.495 2.888
v 3.094 -4.255 0.578
v 2.902 -3.942 0.907
v 2.902 -4.255 0.578
v 2.902 -3.942 0.907
v 3.094 -4.255 0.578
v 3.094 -3.942 0.907
v 2.649 -0.246 2.888
v 2.649 -0.046 2.888
v 1.316 -0.046 2.888
v 1.316 -0.046 2.888
v 1.316 -0.246 2.888
v 2.649 -0.246 2.888
v 2.649 -0.246 2.988
v 2.649 -0.046 2.888
v 2.649 -0.246 2.888
v 2.649 -0.046 2.888
v 2.649 -0.246 2.988
v 2.649 -0.046 2.988
v 0.016 2.003 2.888
v 0.016 2.203 2.888
v -1.284 2.203 2.888
v -1.284 2.203 2.888
v -1.284 2.003 2.888
v 0.016 2.003 2.888
v 2.644 -4.000 0.658
v 2.944 -4.000 0.780
v 2.944 -4.000 0.658
v 2.944 -4.000 0.780
v 2.644 -4.000 0.658
v 2.644 -4.000 0.780
v 1.261 4.307 0.450
v 1.261 4.307 0.000
v 1.261 4.189 0.000
v 1.261 4.307 0.450
v 1.261 4.189 2.568
v 1.261 4.337 2.568
v 1.261 4.337 2.568
v 1.261 4.337 0.450
v 1.261 4.307 0.450
v 1.261 4.189 2.568
v 1.261 4.307 0.450
v 1.261 4.189 0.000
v -0.769 4.189 2.568
v 0.758 4.337 2.568
v -0.769 4.337 2.568
v 0.758 4.337 2.568
v -0.769 4.189 2.568
v 0.758 4.189 2.568
v -2.829 4.307 0.450
v -2.829 4.307 0.000
v -2.829 4.189 0.000
v -2.829 4.307 0.450
v -2.829 4.189 2.568
v -2.829 4.337 2.568
v -2.829 4.337 2.568
v -2.829 4.337 0.450
v -2.829 4.307 0.450
v -2.829 4.189 2.568
v -2.829 4.307 0.450
v -2.829 4.189 0.000
v 0.758 4.307 0.450
v 0.758 4.189 2.568
v 0.758 4.189 -0.000
v 0.758 4.189 -0.000
v 0.758 4.307 -0.000
v 0.758 4.307 0.450
v 0.758 4.307 0.450
v 0.758 4.337 0.450
v 0.758 4.337 2.568
v 0.758 4.189 2.568
v 0.758 4.307 0.450
v 0.758 4.337 2.568
v -1.297 4.307 0.450
v -1.297 4.189 2.568
v -1.297 4.189 -0.000
v -1.297 4.189 -0.000
v -1.297 4.307 -0.000
v -1.297 4.307 0.450
v -1.297 4.307 0.450
v -1.297 4.337 0.450
v -1.297 4.337 2.568
v -1.297 4.189 2.568
v -1.297 4.307 0.450
v -1.297 4.337 2.568
v -0.769 4.307 0.450
v -0.769 4.307 0.000
v -0.769 4.189 0.000
v -0.769 4.307 0.450
v -0.769 4.189 2.568
v -0.769 4.337 2.568
v -0.769 4.337 2.568
v -0.769 4.337 0.450
v -0.769 4.307 0.450
v -0.769 4.189 2.568
v -0.769 4.307 0.450
v -0.769 4.189 0.000
v -2.829 4.189 2.568
v -1.297 4.337 2.568
v -2.829 4.337 2.568
v -1.297 4.337 2.568
v -2.829 4.189 2.568
v -1.297 4.189 2.568
v 2.804 4.307 0.450
v 2.804 4.189 2.568
v 2.804 4.189 -0.000
v 2.804 4.189 -0.000
v 2.804 4.307 -0.000
v 2.804 4.307 0.450
v 2.804 4.307 0.450
v 2.804 4.337 0.450
v 2.804 4.337 2.568
v 2.804 4.189 2.568
v 2.804 4.307 0.450
v 2.804 4.337 2.568
v -0.769 4.337 1.511
v -0.769 4.337 2.568
v 0.758 4.337 2.568
v 0.758 4.337 2.568
v 0.758 4.337 1.505
v -0.769 4.337 1.511
v 0.758 4.337 1.505
v 0.758 4.337 0.450
v -0.769 4.337 0.450
v -0.769 4.337 0.450
v -0.769 4.337 1.511
v 0.758 4.337 1.505
v 2.804 4.189 2.568
v 2.869 4.189 -0.000
v 2.804 4.189 -0.000
v 1.261 4.189 2.568
v 1.261 4.189 -0.000
v 0.758 4.189 0.000
v 0.758 4.189 2.568
v 0.087 4.189 2.568
v 0.194 4.189 2.988
v 2.869 4.189 -0.000
v 2.804 4.189 2.568
v 2.869 4.189 2.988
v 1.261 4.189 2.568
v 0.758 4.189 0.000
v 0.758 4.189 2.568
v 1.261 4.189 2.568
v 0.194 4.189 2.988
v 2.869 4.189 2.988
v 2.869 4.189 2.988
v 2.804 4.189 2.568
v 1.261 4.189 2.568
v 0.194 4.189 2.988
v 1.261 4.189 2.568
v 0.758 4.189 2.568
v -1.297 4.189 2.568
v -0.769 4.189 1.763
v -1.297 4.189 1.725
v -2.829 4.189 2.568
v -2.829 4.189 1.615
v -2.884 4.189 1.611
v -0.769 4.189 2.568
v 0.194 4.189 2.988
v 0.087 4.189 2.568
v -0.769 4.189 1.763
v -1.297 4.189 2.568
v -0.769 4.189 2.568
v -2.829 4.189 2.568
v -2.884 4.189 1.611
v -2.884 4.189 2.988
v -1.297 4.189 2.568
v 0.194 4.189 2.988
v -0.769 4.189 2.568
v -1.297 4.189 2.568
v -2.829 4.189 2.568
v -2.884 4.189 2.988
v 0.194 4.189 2.988
v -1.297 4.189 2.568
v -2.884 4.189 2.988
v -2.884 4.189 1.611
v -2.829 4.189 -0.000
v -2.884 4.189 0.000
v -2.829 4.189 -0.000
v -2.884 4.189 1.611
v -2.829 4.189 1.615
v -1.297 4.189 1.725
v -0.769 4.189 -0.000
v -1.297 4.189 0.000
v -0.769 4.189 -0.000
v -1.297 4.189 1.725
v -0.769 4.189 1.763
v 1.316 2.003 2.888
v 2.649 2.203 2.888
v 1.316 2.203 2.888
v 2.649 2.203 2.888
v 1.316 2.003 2.888
v 2.649 2.003 2.888
v -2.584 -2.495 2.888
v -1.334 -2.295 2.888
v -2.584 -2.295 2.888
v -1.334 -2.295 2.888
v -2.584 -2.495 2.888
v -1.334 -2.495 2.888
v -1.334 -2.495 2.888
v -0.084 -2.295 2.888
v -1.334 -2.295 2.888
v -0.084 -2.295 2.888
v -1.334 -2.495 2.888
v -0.084 -2.495 2.888
v -1.284 2.003 2.888
v -1.284 2.203 2.888
v -2.584 2.203 2.888
v -2.584 2.203 2.888
v -2.584 2.003 2.888
v -1.284 2.003 2.888
v 1.316 2.003 2.888
v 1.316 2.203 2.888
v 0.016 2.203 2.888
v 0.016 2.203 2.888
v 0.016 2.003 2.888
v 1.316 2.003 2.888
v -2.829 4.337 1.512
v -2.829 4.337 2.568
v -1.297 4.337 2.568
v -1.297 4.337 2.568
v -1.297 4.337 1.508
v -2.829 4.337 1.512
v -1.297 4.337 1.508
v -1.297 4.337 0.450
v -2.829 4.337 0.450
v -2.829 4.337 0.450
v -2.829 4.337 1.512
v -1.297 4.337 1.508
v -2.584 2.203 2.988
v -2.165 2.203 2.988
v -1.633 2.887 2.988
v -1.633 2.887 2.988
v -2.208 4.189 2.988
v -2.884 4.189 2.988
v -2.584 2.203 2.988
v -2.884 2.101 2.988
v -2.584 2.122 2.988
v -2.584 2.203 2.988
v -1.633 2.887 2.988
v -2.884 4.189 2.988
v -2.884 2.101 2.988
v -2.584 2.203 2.988
v -2.884 4.189 2.988
v -2.884 0.277 2.988
v -1.514 1.112 2.988
v -2.584 2.003 2.988
v -1.514 1.112 2.988
v -1.426 1.112 2.988
v -1.354 1.319 2.988
v -1.514 1.112 2.988
v -2.057 2.003 2.988
v -2.584 2.003 2.988
v -2.584 2.003 2.988
v -2.584 2.122 2.988
v -2.884 2.101 2.988
v -1.514 0.860 2.988
v -2.884 0.277 2.988
v -1.704 0.312 2.988
v -2.057 2.003 2.988
v -1.514 1.112 2.988
v -1.354 1.319 2.988
v -2.884 0.277 2.988
v -2.584 2.003 2.988
v -2.884 2.101 2.988
v -1.514 1.112 2.988
v -2.884 0.277 2.988
v -1.514 0.860 2.988
v 2.869 3.815 2.988
v 3.150 2.840 2.988
v 3.154 3.811 2.988
v 2.869 3.815 2.988
v 2.869 4.189 2.988
v 1.737 4.189 2.988
v 3.150 2.840 2.988
v 2.869 3.815 2.988
v 1.897 2.711 2.988
v 2.869 3.815 2.988
v 1.737 4.189 2.988
v 1.897 2.711 2.988
v -0.758 2.959 2.988
v -0.396 2.614 2.988
v 0.526 2.700 2.988
v 0.526 2.700 2.988
v 0.652 4.189 2.988
v -0.578 4.189 2.988
v -0.578 4.189 2.988
v -0.758 2.959 2.988
v 0.526 2.700 2.988
v -1.633 2.887 2.988
v -0.758 2.959 2.988
v -0.578 4.189 2.988
v -0.578 4.189 2.988
v -2.208 4.189 2.988
v -1.633 2.887 2.988
v -1.567 -1.259 2.988
v -1.336 -0.246 2.988
v -2.584 -0.246 2.988
v -2.584 -0.046 2.988
v -1.411 -0.046 2.988
v -1.704 0.312 2.988
v -2.884 -1.349 2.988
v -1.567 -1.259 2.988
v -2.584 -0.246 2.988
v -2.584 -0.046 2.988
v -1.704 0.312 2.988
v -2.884 0.277 2.988
v -2.884 0.277 2.988
v -2.884 -1.349 2.988
v -2.584 -0.246 2.988
v -2.584 -0.246 2.988
v -2.584 -0.046 2.988
v -2.884 0.277 2.988
v -0.758 2.959 2.988
v -0.503 2.203 2.988
v -0.396 2.614 2.988
v -0.503 2.203 2.988
v -0.758 2.959 2.988
v -1.633 2.887 2.988
v -0.503 2.203 2.988
v -1.633 2.887 2.988
v -2.165 2.203 2.988
v -1.354 1.319 2.988
v -0.687 1.500 2.988
v -0.556 2.003 2.988
v -0.556 2.003 2.988
v -2.057 2.003 2.988
v -1.354 1.319 2.988
v -1.354 1.319 2.988
v -1.426 1.112 2.988
v -1.234 1.112 2.988
v -1.514 0.832 2.988
v -1.514 0.860 2.988
v -1.704 0.312 2.988
v -1.234 0.832 2.988
v -0.008 -0.046 2.988
v 0.028 0.832 2.988
v -0.008 -0.046 2.988
v 0.049 0.832 2.988
v 0.028 0.832 2.988
v 0.028 0.832 2.988
v 0.028 1.000 2.988
v -0.687 1.500 2.988
v -0.687 1.500 2.988
v -1.354 1.319 2.988
v -1.234 1.112 2.988
v -1.234 0.832 2.988
v -1.514 0.832 2.988
v -1.704 0.312 2.988
v -0.008 -0.046 2.988
v -1.234 0.832 2.988
v -1.411 -0.046 2.988
v -1.234 0.832 2.988
v -0.687 1.500 2.988
v -1.234 1.112 2.988
v -1.411 -0.046 2.988
v -1.234 0.832 2.988
v -1.704 0.312 2.988
v -0.687 1.500 2.988
v -1.234 0.832 2.988
v 0.028 0.832 2.988
v 0.526 2.700 2.988
v -0.503 2.203 2.988
v 0.804 2.203 2.988
v 0.804 2.203 2.988
v 0.836 2.467 2.988
v 0.526 2.700 2.988
v -0.503 2.203 2.988
v 0.526 2.700 2.988
v -0.396 2.614 2.988
v -0.687 1.500 2.988
v 0.028 1.000 2.988
v 0.028 1.112 2.988
v 0.028 1.112 2.988
v 0.779 2.003 2.988
v -0.556 2.003 2.988
v -0.556 2.003 2.988
v -0.687 1.500 2.988
v 0.028 1.112 2.988
v 0.779 2.003 2.988
v 0.308 1.112 2.988
v 0.693 1.317 2.988
v 0.308 1.112 2.988
v 0.779 2.003 2.988
v 0.028 1.112 2.988
v -1.567 -1.259 2.988
v -1.514 -1.323 2.988
v -1.514 -1.155 2.988
v -1.234 -1.435 2.988
v -1.421 -1.435 2.988
v -1.142 -1.772 2.988
v -1.234 -1.155 2.988
v 0.028 -1.302 2.988
v 0.028 -1.155 2.988
v 0.028 -1.155 2.988
v 0.094 -1.155 2.988
v 0.112 -0.246 2.988
v -1.336 -0.246 2.988
v -1.567 -1.259 2.988
v -1.514 -1.155 2.988
v 0.028 -1.302 2.988
v -1.234 -1.435 2.988
v -1.142 -1.772 2.988
v -1.234 -1.155 2.988
v 0.028 -1.155 2.988
v 0.112 -0.246 2.988
v -1.234 -1.155 2.988
v -1.336 -0.246 2.988
v -1.514 -1.155 2.988
v 0.028 -1.302 2.988
v -1.234 -1.155 2.988
v -1.234 -1.435 2.988
v -1.336 -0.246 2.988
v -1.234 -1.155 2.988
v 0.112 -0.246 2.988
v 0.804 2.203 2.988
v 1.896 2.203 2.988
v 1.779 2.579 2.988
v 1.779 2.579 2.988
v 0.836 2.467 2.988
v 0.804 2.203 2.988
v 0.693 1.317 2.988
v 1.576 0.899 2.988
v 1.576 1.112 2.988
v 1.856 1.112 2.988
v 1.856 1.090 2.988
v 2.156 1.368 2.988
v 1.576 1.112 2.988
v 1.958 2.003 2.988
v 0.779 2.003 2.988
v 0.779 2.003 2.988
v 0.693 1.317 2.988
v 1.576 1.112 2.988
v 1.576 1.112 2.988
v 1.856 1.112 2.988
v 2.156 1.368 2.988
v 1.958 2.003 2.988
v 1.576 1.112 2.988
v 2.156 1.368 2.988
v 1.897 2.711 2.988
v 0.836 2.467 2.988
v 1.779 2.579 2.988
v 0.526 2.700 2.988
v 1.897 2.711 2.988
v 1.737 4.189 2.988
v 1.737 4.189 2.988
v 0.652 4.189 2.988
v 0.526 2.700 2.988
v 0.836 2.467 2.988
v 1.897 2.711 2.988
v 0.526 2.700 2.988
v 0.308 0.832 2.988
v 0.049 0.832 2.988
v -0.008 -0.046 2.988
v 1.576 0.832 2.988
v 1.662 -0.046 2.988
v 1.627 0.832 2.988
v 1.576 0.832 2.988
v 1.576 0.899 2.988
v 0.693 1.317 2.988
v 0.693 1.317 2.988
v 0.308 1.112 2.988
v 0.308 0.832 2.988
v 0.308 0.832 2.988
v 1.662 -0.046 2.988
v 1.576 0.832 2.988
v 1.576 0.832 2.988
v 0.693 1.317 2.988
v 0.308 0.832 2.988
v 1.662 -0.046 2.988
v 0.308 0.832 2.988
v -0.008 -0.046 2.988
v -1.514 -1.435 2.988
v -1.154 -2.295 2.988
v -1.142 -1.772 2.988
v -1.142 -1.772 2.988
v -1.421 -1.435 2.988
v -1.514 -1.435 2.988
v -1.514 -1.435 2.988
v -1.514 -1.323 2.988
v -1.567 -1.259 2.988
v -2.584 -2.495 2.988
v -1.643 -2.881 2.988
v -1.176 -2.495 2.988
v -1.154 -2.295 2.988
v -1.514 -1.435 2.988
v -2.584 -2.295 2.988
v -1.514 -1.435 2.988
v -1.567 -1.259 2.988
v -2.884 -1.349 2.988
v -1.643 -2.881 2.988
v -2.584 -2.495 2.988
v -2.884 -2.881 2.988
v -2.584 -2.295 2.988
v -1.514 -1.435 2.988
v -2.884 -1.349 2.988
v -2.584 -2.295 2.988
v -2.884 -2.881 2.988
v -2.584 -2.495 2.988
v -2.884 -2.881 2.988
v -2.584 -2.295 2.988
v -2.884 -1.349 2.988
v 0.733 -1.874 2.988
v 0.028 -1.435 2.988
v 0.708 -2.295 2.988
v 0.028 -1.435 2.988
v 0.733 -1.874 2.988
v 0.261 -1.435 2.988
v 0.028 -1.435 2.988
v 0.028 -1.302 2.988
v -1.142 -1.772 2.988
v 0.708 -2.295 2.988
v 0.028 -1.435 2.988
v -1.154 -2.295 2.988
v -1.154 -2.295 2.988
v 0.028 -1.435 2.988
v -1.142 -1.772 2.988
v -0.160 -2.992 2.988
v 0.695 -2.503 2.988
v 0.696 -2.495 2.988
v 0.696 -2.495 2.988
v -1.132 -2.495 2.988
v -0.160 -2.992 2.988
v 1.897 2.711 2.988
v 1.779 2.579 2.988
v 1.896 2.203 2.988
v 2.649 2.003 2.988
v 1.958 2.003 2.988
v 2.156 1.368 2.988
v 2.649 2.203 2.988
v 1.897 2.711 2.988
v 1.896 2.203 2.988
v 2.649 2.003 2.988
v 2.156 1.368 2.988
v 3.144 1.277 2.988
v 1.897 2.711 2.988
v 2.649 2.203 2.988
v 3.150 2.840 2.988
v 3.150 2.840 2.988
v 2.649 2.003 2.988
v 3.144 1.277 2.988
v 2.649 2.003 2.988
v 3.150 2.840 2.988
v 2.649 2.203 2.988
v 0.308 -1.435 2.988
v 0.261 -1.435 2.988
v 0.733 -1.874 2.988
v 0.733 -1.874 2.988
v 1.576 -1.383 2.988
v 1.576 -1.155 2.988
v 1.576 -1.155 2.988
v 1.669 -1.155 2.988
v 1.673 -0.246 2.988
v 0.308 -1.155 2.988
v 0.112 -0.246 2.988
v 0.094 -1.155 2.988
v 0.308 -1.155 2.988
v 0.308 -1.435 2.988
v 0.733 -1.874 2.988
v 0.308 -1.155 2.988
v 1.576 -1.155 2.988
v 1.673 -0.246 2.988
v 0.112 -0.246 2.988
v 0.308 -1.155 2.988
v 1.673 -0.246 2.988
v 1.576 -1.155 2.988
v 0.308 -1.155 2.988
v 0.733 -1.874 2.988
v 2.156 1.368 2.988
v 1.856 1.090 2.988
v 1.856 0.832 2.988
v 1.856 0.832 2.988
v 1.627 0.832 2.988
v 1.662 -0.046 2.988
v 2.649 -0.046 2.988
v 2.649 -0.170 2.988
v 3.138 -0.168 2.988
v 1.856 0.832 2.988
v 3.144 1.277 2.988
v 2.156 1.368 2.988
v 2.649 -0.046 2.988
v 1.856 0.832 2.988
v 1.662 -0.046 2.988
v 3.144 1.277 2.988
v 2.649 -0.046 2.988
v 3.138 -0.168 2.988
v 3.144 1.277 2.988
v 1.856 0.832 2.988
v 2.649 -0.046 2.988
v -1.616 -2.881 2.988
v -1.132 -2.495 2.988
v -1.176 -2.495 2.988
v -1.176 -2.495 2.988
v -1.643 -2.881 2.988
v -1.616 -2.881 2.988
v -0.160 -2.992 2.988
v -1.616 -4.255 2.988
v -0.166 -4.255 2.988
v -1.616 -2.881 2.988
v -0.160 -2.992 2.988
v -1.132 -2.495 2.988
v -1.616 -4.255 2.988
v -0.160 -2.992 2.988
v -1.616 -2.881 2.988
v 1.856 -1.155 2.988
v 1.673 -0.246 2.988
v 1.669 -1.155 2.988
v 1.856 -1.435 2.988
v 1.836 -1.435 2.988
v 2.516 -1.868 2.988
v 2.649 -0.246 2.988
v 3.132 -1.695 2.988
v 3.138 -0.168 2.988
v 3.138 -0.168 2.988
v 2.649 -0.170 2.988
v 2.649 -0.246 2.988
v 1.673 -0.246 2.988
v 1.856 -1.155 2.988
v 2.649 -0.246 2.988
v 2.519 -1.695 2.988
v 1.856 -1.435 2.988
v 2.516 -1.868 2.988
v 3.132 -1.695 2.988
v 2.649 -0.246 2.988
v 2.519 -1.695 2.988
v 1.856 -1.435 2.988
v 2.519 -1.695 2.988
v 1.856 -1.155 2.988
v 2.519 -1.695 2.988
v 2.649 -0.246 2.988
v 1.856 -1.155 2.988
v 1.576 -1.435 2.988
v 0.708 -2.295 2.988
v 2.499 -2.295 2.988
v 1.398 -3.081 2.988
v 0.696 -2.495 2.988
v 0.695 -2.503 2.988
v 2.499 -2.495 2.988
v 1.398 -3.081 2.988
v 2.503 -2.739 2.988
v 2.499 -2.295 2.988
v 1.836 -1.435 2.988
v 1.576 -1.435 2.988
v 1.576 -1.435 2.988
v 1.576 -1.383 2.988
v 0.733 -1.874 2.988
v 0.696 -2.495 2.988
v 1.398 -3.081 2.988
v 2.499 -2.495 2.988
v 0.708 -2.295 2.988
v 1.576 -1.435 2.988
v 0.733 -1.874 2.988
v 2.516 -1.868 2.988
v 2.499 -2.495 2.988
v 2.503 -2.739 2.988
v 1.836 -1.435 2.988
v 2.499 -2.295 2.988
v 2.516 -1.868 2.988
v 2.499 -2.495 2.988
v 2.516 -1.868 2.988
v 2.499 -2.295 2.988
v 1.398 -3.081 2.988
v 0.695 -2.503 2.988
v -0.160 -2.992 2.988
v -0.160 -2.992 2.988
v -0.166 -4.255 2.988
v 1.258 -4.255 2.988
v 1.258 -4.255 2.988
v 1.398 -3.081 2.988
v -0.160 -2.992 2.988
v 2.489 -3.695 2.988
v 1.258 -4.255 2.988
v 3.094 -4.255 2.988
v 3.094 -4.255 2.988
v 3.094 -3.695 2.988
v 2.489 -3.695 2.988
v 2.489 -3.695 2.988
v 2.503 -2.739 2.988
v 1.398 -3.081 2.988
v 1.258 -4.255 2.988
v 2.489 -3.695 2.988
v 1.398 -3.081 2.988
v 1.576 0.832 2.863
v 1.856 1.112 2.863
v 1.576 1.112 2.863
v 1.856 1.112 2.863
v 1.576 0.832 2.863
v 1.856 0.832 2.863
v 1.576 0.832 2.988
v 1.856 0.832 2.988
v 1.856 0.832 2.863
v 1.856 0.832 2.863
v 1.576 0.832 2.863
v 1.576 0.832 2.988
v 1.576 0.832 2.863
v 1.576 1.112 2.988
v 1.576 0.832 2.988
v 1.576 1.112 2.988
v 1.576 0.832 2.863
v 1.576 1.112 2.863
v 1.856 1.112 2.988
v 1.576 1.112 2.988
v 1.576 1.112 2.863
v 1.576 1.112 2.863
v 1.856 1.112 2.863
v 1.856 1.112 2.988
v 1.856 0.832 2.988
v 1.856 1.112 2.863
v 1.856 0.832 2.863
v 1.856 1.112 2.863
v 1.856 0.832 2.988
v 1.856 1.112 2.988
v 0.028 1.112 2.863
v 0.308 0.832 2.863
v 0.308 1.112 2.863
v 0.308 0.832 2.863
v 0.028 1.112 2.863
v 0.028 0.832 2.863
v 0.028 0.832 2.863
v 0.308 0.832 2.988
v 0.308 0.832 2.863
v 0.308 0.832 2.988
v 0.028 0.832 2.863
v 0.028 0.832 2.988
v 0.028 0.832 2.863
v 0.028 1.112 2.988
v 0.028 0.832 2.988
v 0.028 1.112 2.988
v 0.028 0.832 2.863
v 0.028 1.112 2.863
v 0.308 1.112 2.863
v 0.028 1.112 2.988
v 0.028 1.112 2.863
v 0.028 1.112 2.988
v 0.308 1.112 2.863
v 0.308 1.112 2.988
v 0.308 0.832 2.988
v 0.308 1.112 2.863
v 0.308 0.832 2.863
v 0.308 1.112 2.863
v 0.308 0.832 2.988
v 0.308 1.112 2.988
v -1.514 0.832 2.863
v -1.234 1.112 2.863
v -1.514 1.112 2.863
v -1.234 1.112 2.863
v -1.514 0.832 2.863
v -1.234 0.832 2.863
v -1.514 0.832 2.988
v -1.234 0.832 2.988
v -1.234 0.832 2.863
v -1.234 0.832 2.863
v -1.514 0.832 2.863
v -1.514 0.832 2.988
v -1.514 0.832 2.863
v -1.514 1.112 2.988
v -1.514 0.832 2.988
v -1.514 1.112 2.988
v -1.514 0.832 2.863
v -1.514 1.112 2.863
v -1.234 1.112 2.988
v -1.514 1.112 2.988
v -1.514 1.112 2.863
v -1.514 1.112 2.863
v -1.234 1.112 2.863
v -1.234 1.112 2.988
v -1.234 0.832 2.988
v -1.234 1.112 2.863
v -1.234 0.832 2.863
v -1.234 1.112 2.863
v -1.234 0.832 2.988
v -1.234 1.112 2.988
v 1.856 -1.435 2.863
v 1.856 -1.155 2.863
v 1.576 -1.155 2.863
v 1.576 -1.155 2.863
v 1.576 -1.435 2.863
v 1.856 -1.435 2.863
v 1.576 -1.435 2.988
v 1.856 -1.435 2.988
v 1.856 -1.435 2.863
v 1.856 -1.435 2.863
v 1.576 -1.435 2.863
v 1.576 -1.435 2.988
v 1.576 -1.155 2.863
v 1.576 -1.155 2.988
v 1.576 -1.435 2.988
v 1.576 -1.435 2.988
v 1.576 -1.435 2.863
v 1.576 -1.155 2.863
v 1.856 -1.155 2.988
v 1.576 -1.155 2.988
v 1.576 -1.155 2.863
v 1.576 -1.155 2.863
v 1.856 -1.155 2.863
v 1.856 -1.155 2.988
v 1.856 -1.155 2.988
v 1.856 -1.155 2.863
v 1.856 -1.435 2.863
v 1.856 -1.435 2.863
v 1.856 -1.435 2.988
v 1.856 -1.155 2.988
v 0.308 -1.435 2.863
v 0.308 -1.155 2.863
v 0.028 -1.155 2.863
v 0.028 -1.155 2.863
v 0.028 -1.435 2.863
v 0.308 -1.435 2.863
v 0.028 -1.435 2.863
v 0.308 -1.435 2.988
v 0.308 -1.435 2.863
v 0.308 -1.435 2.988
v 0.028 -1.435 2.863
v 0.028 -1.435 2.988
v 0.028 -1.155 2.863
v 0.028 -1.155 2.988
v 0.028 -1.435 2.988
v 0.028 -1.435 2.988
v 0.028 -1.435 2.863
v 0.028 -1.155 2.863
v 0.308 -1.155 2.863
v 0.028 -1.155 2.988
v 0.028 -1.155 2.863
v 0.028 -1.155 2.988
v 0.308 -1.155 2.863
v 0.308 -1.155 2.988
v 0.308 -1.155 2.988
v 0.308 -1.155 2.863
v 0.308 -1.435 2.863
v 0.308 -1.435 2.863
v 0.308 -1.435 2.988
v 0.308 -1.155 2.988
v -1.234 -1.435 2.863
v -1.234 -1.155 2.863
v -1.514 -1.155 2.863
v -1.514 -1.155 2.863
v -1.514 -1.435 2.863
v -1.234 -1.435 2.863
v -1.514 -1.435 2.988
v -1.234 -1.435 2.988
v -1.234 -1.435 2.863
v -1.234 -1.435 2.863
v -1.514 -1.435 2.863
v -1.514 -1.435 2.988
v -1.514 -1.155 2.863
v -1.514 -1.155 2.988
v -1.514 -1.435 2.988
v -1.514 -1.435 2.988
v -1.514 -1.435 2.863
v -1.514 -1.155 2.863
v -1.234 -1.155 2.988
v -1.514 -1.155 2.988
v -1.514 -1.155 2.863
v -1.514 -1.155 2.863
v -1.234 -1.155 2.863
v -1.234 -1.155 2.988
v -1.234 -1.155 2.988
v -1.234 -1.155 2.863
v -1.234 -1.435 2.863
v -1.234 -1.435 2.863
v -1.234 -1.435 2.988
v -1.234 -1.155 2.988
v -2.829 4.307 -0.000
v -1.297 4.307 0.450
v -1.297 4.307 -0.000
v -1.297 4.307 0.450
v -2.829 4.307 -0.000
v -2.829 4.307 0.450
v -1.297 4.337 0.450
v -1.297 4.307 0.450
v -2.829 4.307 0.450
v -2.829 4.307 0.450
v -2.829 4.337 0.450
v -1.297 4.337 0.450
v -0.769 4.307 0.000
v 0.758 4.307 0.450
v 0.758 4.307 0.000
v 0.758 4.307 0.450
v -0.769 4.307 0.000
v -0.769 4.307 0.450
v -0.769 4.337 0.450
v 0.758 4.307 0.450
v -0.769 4.307 0.450
v 0.758 4.307 0.450
v -0.769 4.337 0.450
v 0.758 4.337 0.450
v 1.261 4.307 0.000
v 2.804 4.307 0.450
v 2.804 4.307 -0.000
v 2.804 4.307 0.450
v 1.261 4.307 0.000
v 1.261 4.307 0.450
v 2.804 4.337 0.450
v 2.804 4.307 0.450
v 1.261 4.307 0.450
v 1.261 4.307 0.450
v 1.261 4.337 0.450
v 2.804 4.337 0.450
v 1.267 4.082 0.150
v 1.267 4.242 0.595
v 1.267 4.082 0.595
v 1.267 4.242 0.595
v 1.267 4.082 0.150
v 1.267 4.242 0.150
v 1.267 4.082 0.150
v 2.787 4.242 0.150
v 1.267 4.242 0.150
v 2.787 4.242 0.150
v 1.267 4.082 0.150
v 2.787 4.082 0.150
v 1.267 4.082 0.150
v 2.787 4.082 0.595
v 2.787 4.082 0.150
v 2.787 4.082 0.595
v 1.267 4.082 0.150
v 1.267 4.082 0.595
v 1.267 4.242 0.595
v 2.787 4.082 0.595
v 1.267 4.082 0.595
v 2.787 4.082 0.595
v 1.267 4.242 0.595
v 2.787 4.242 0.595
v 2.787 4.242 0.150
v 1.267 4.242 0.595
v 1.267 4.242 0.150
v 1.267 4.242 0.595
v 2.787 4.242 0.150
v 2.787 4.242 0.595
v 2.787 4.082 0.595
v 2.787 4.242 0.150
v 2.787 4.082 0.150
v 2.787 4.242 0.150
v 2.787 4.082 0.595
v 2.787 4.242 0.595
v -2.866 -2.891 2.500
v -2.884 -2.881 2.988
v -2.884 -2.891 2.500
v -2.884 -2.881 2.988
v -2.866 -2.891 2.500
v -1.616 -2.881 2.988
v -1.815 -2.871 2.020
v -1.815 -2.891 2.020
v -2.875 -2.891 2.020
v -2.875 -2.891 2.020
v -2.875 -2.871 2.020
v -1.815 -2.871 2.020
v -1.815 -2.871 2.020
v -1.815 -2.871 0.000
v -1.815 -2.891 0.000
v -1.815 -2.891 0.000
v -1.815 -2.891 2.020
v -1.815 -2.871 2.020
v -2.875 -2.871 1.010
v -1.815 -2.871 2.020
v -2.875 -2.871 2.020
v -1.815 -2.871 2.020
v -2.875 -2.871 1.010
v -1.815 -2.871 1.007
v -1.815 -2.871 1.007
v -2.875 -2.871 -0.000
v -1.815 -2.871 -0.000
v -2.875 -2.871 -0.000
v -1.815 -2.871 1.007
v -2.875 -2.871 1.010
v -2.875 -2.871 -0.000
v -2.875 -2.871 2.020
v -2.875 -2.891 2.020
v -2.875 -2.891 2.020
v -2.875 -2.891 -0.000
v -2.875 -2.871 -0.000
v -2.875 -2.891 2.020
v -3.036 -2.891 2.500
v -3.036 -2.891 -0.000
v -3.036 -2.891 -0.000
v -2.875 -2.891 -0.000
v -2.875 -2.891 2.020
v -3.036 -2.891 2.500
v -2.875 -2.891 2.020
v -2.884 -2.891 2.500
v -2.866 -2.891 2.500
v -2.884 -2.891 2.500
v -2.875 -2.891 2.020
v -2.875 -2.891 2.020
v -1.815 -2.891 2.020
v -2.866 -2.891 2.500
v -1.616 -2.881 2.988
v -2.866 -2.891 2.500
v -1.815 -2.891 2.020
v -1.616 -2.881 2.988
v -1.815 -2.891 2.020
v -1.616 -2.891 -0.000
v -1.815 -2.891 2.020
v -1.815 -2.891 0.000
v -1.616 -2.891 0.000

usemtl Patch_1_Mat_CR2_concrete
f 3 2 1
f 6 5 4

usemtl Patch_2_Mat_CR2_concrete
f 9 8 7
f 12 11 10

usemtl Patch_3_Mat_CR2_concrete
f 15 14 13
f 18 17 16

usemtl Patch_4_Mat_CR2_concrete
f 21 20 19
f 24 23 22

usemtl Patch_5_Mat_CR2_concrete
f 27 26 25
f 30 29 28

usemtl Patch_6_Mat_CR2_concrete
f 33 32 31
f 36 35 34

usemtl Patch_7_Mat_CR2_concrete
f 39 38 37
f 42 41 40

usemtl Patch_8_Mat_CR2_concrete
f 45 44 43
f 48 47 46

usemtl Patch_9_Mat_CR2_concrete
f 51 50 49
f 54 53 52

usemtl Patch_10_Mat_CR2_concrete
f 57 56 55
f 60 59 58

usemtl Patch_11_Mat_CR2_concrete
f 63 62 61
f 66 65 64

usemtl Patch_12_Mat_CR2_concrete
f 69 68 67
f 72 71 70

usemtl Patch_13_Mat_CR2_concrete
f 75 74 73
f 78 77 76

usemtl Patch_14_Mat_CR2_windows
f 81 80 79
f 84 83 82

usemtl Patch_15_Mat_CR2_windows
f 87 86 85
f 90 89 88

usemtl Patch_16_Mat_CR2_concrete
f 93 92 91
f 96 95 94

usemtl Patch_17_Mat_CR2_concrete
f 99 98 97
f 102 101 100

usemtl Patch_18_Mat_CR2_concrete
f 105 104 103
f 108 107 106
f 111 110 109

usemtl Patch_19_Mat_CR2_concrete
f 114 113 112
f 117 116 115
f 120 119 118

usemtl Patch_20_Mat_CR2_concrete
f 123 122 121
f 126 125 124
f 129 128 127
f 132 131 130

usemtl Patch_21_Mat_CR2_concrete
f 135 134 133
f 138 137 136

usemtl Patch_22_Mat_CR2_concrete
f 141 140 139
f 144 143 142
f 147 146 145

usemtl Patch_23_Mat_CR2_concrete
f 150 149 148
f 153 152 151
f 156 155 154

usemtl Patch_24_Mat_CR2_concrete
f 159 158 157
f 162 161 160
f 165 164 163
f 168 167 166
f 171 170 169
f 174 173 172
f 177 176 175

usemtl Patch_25_Mat_CR2_concrete
f 180 179 178
f 183 182 181

usemtl Patch_26_Mat_CR2_concrete
f 186 185 184
f 189 188 187

usemtl Patch_27_Mat_CR2_concrete
f 192 191 190
f 195 194 193

usemtl Patch_28_Mat_CR2_concrete
f 198 197 196

usemtl Patch_29_Mat_CR2_concrete
f 201 200 199
f 204 203 202

usemtl Patch_30_Mat_CR2_concrete
f 207 206 205
f 210 209 208

usemtl Patch_31_Mat_CR2_concrete
f 213 212 211

usemtl Patch_32_Mat_CR2_ceiling
f 216 215 214
f 219 218 217
f 222 221 220
f 225 224 223
f 228 227 226

usemtl Patch_33_Mat_CR2_concrete
f 231 230 229
f 234 233 232

usemtl Patch_34_Mat_CR2_concrete
f 237 236 235
f 240 239 238
f 243 242 241
f 246 245 244

usemtl Patch_35_Mat_CR2_ceiling
f 249 248 247
f 252 251 250
f 255 254 253
f 258 257 256
f 261 260 259

usemtl Patch_36_Mat_CR2_concrete
f 264 263 262
f 267 266 265

usemtl Patch_37_Mat_CR2_concrete
f 270 269 268
f 273 272 271

usemtl Patch_38_Mat_CR2_concrete
f 276 275 274
f 279 278 277

usemtl Patch_39_Mat_CR2_concrete
f 282 281 280
f 285 284 283

usemtl Patch_40_Mat_CR2_plaster
f 288 287 286
f 291 290 289

usemtl Patch_41_Mat_CR2_plaster
f 294 293 292
f 297 296 295
f 300 299 298

usemtl Patch_42_Mat_CR2_plaster
f 303 302 301
f 306 305 304
f 309 308 307

usemtl Patch_43_Mat_CR2_plaster
f 312 311 310
f 315 314 313
f 318 317 316

usemtl Patch_44_Mat_CR2_plaster
f 321 320 319
f 324 323 322
f 327 326 325

usemtl Patch_45_Mat_CR2_plaster
f 330 329 328
f 333 332 331
f 336 335 334

usemtl Patch_46_Mat_CR2_plaster
f 339 338 337
f 342 341 340
f 345 344 343

usemtl Patch_47_Mat_CR2_plaster
f 348 347 346
f 351 350 349

usemtl Patch_48_Mat_CR2_plaster
f 354 353 352
f 357 356 355
f 360 359 358

usemtl Patch_49_Mat_CR2_floor
f 363 362 361
f 366 365 364
f 369 368 367
f 372 371 370
f 375 374 373
f 378 377 376

usemtl Patch_50_Mat_CR2_floor
f 381 380 379
f 384 383 382
f 387 386 385

usemtl Patch_51_Mat_CR2_floor
f 390 389 388
f 393 392 391
f 396 395 394
f 399 398 397
f 402 401 400

usemtl Patch_52_Mat_CR2_floor
f 405 404 403
f 408 407 406
f 411 410 409

usemtl Patch_53_Mat_CR2_floor
f 414 413 412
f 417 416 415
f 420 419 418

usemtl Patch_54_Mat_CR2_floor
f 423 422 421
f 426 425 424

usemtl Patch_55_Mat_CR2_floor
f 429 428 427
f 432 431 430
f 435 434 433

usemtl Patch_56_Mat_CR2_floor
f 438 437 436
f 441 440 439
f 444 443 442
f 447 446 445
f 450 449 448

usemtl Patch_57_Mat_CR2_floor
f 453 452 451
f 456 455 454
f 459 458 457
f 462 461 460
f 465 464 463
f 468 467 466
f 471 470 469

usemtl Patch_58_Mat_CR2_floor
f 474 473 472
f 477 476 475
f 480 479 478
f 483 482 481
f 486 485 484
f 489 488 487
f 492 491 490

usemtl Patch_59_Mat_CR2_floor
f 495 494 493
f 498 497 496
f 501 500 499
f 504 503 502

usemtl Patch_60_Mat_CR2_floor
f 507 506 505
f 510 509 508
f 513 512 511
f 516 515 514
f 519 518 517

usemtl Patch_61_Mat_CR2_floor
f 522 521 520
f 525 524 523
f 528 527 526
f 531 530 529

usemtl Patch_62_Mat_CR2_floor
f 534 533 532
f 537 536 535
f 540 539 538
f 543 542 541

usemtl Patch_63_Mat_CR2_floor
f 546 545 544
f 549 548 547
f 552 551 550
f 555 554 553

usemtl Patch_64_Mat_CR2_floor
f 558 557 556
f 561 560 559
f 564 563 562
f 567 566 565

usemtl Patch_65_Mat_CR2_floor
f 570 569 568
f 573 572 571
f 576 575 574
f 579 578 577

usemtl Patch_66_Mat_CR2_floor
f 582 581 580
f 585 584 583
f 588 587 586

usemtl Patch_67_Mat_CR2_floor
f 591 590 589
f 594 593 592
f 597 596 595
f 600 599 598

usemtl Patch_68_Mat_CR2_floor
f 603 602 601
f 606 605 604
f 609 608 607
f 612 611 610
f 615 614 613
f 618 617 616
f 621 620 619
f 624 623 622

usemtl Patch_69_Mat_CR2_floor
f 627 626 625
f 630 629 628
f 633 632 631
f 636 635 634
f 639 638 637
f 642 641 640
f 645 644 643
f 648 647 646
f 651 650 649

usemtl Patch_70_Mat_CR2_floor
f 654 653 652
f 657 656 655
f 660 659 658
f 663 662 661
f 666 665 664

usemtl Patch_71_Mat_CR2_floor
f 669 668 667
f 672 671 670
f 675 674 673
f 678 677 676

usemtl Patch_72_Mat_CR2_floor
f 681 680 679
f 684 683 682

usemtl Patch_73_Mat_CR2_floor
f 687 686 685
f 690 689 688

usemtl Patch_74_Mat_CR2_concrete
f 693 692 691
f 696 695 694
f 699 698 697
f 702 701 700
f 705 704 703
f 708 707 706

usemtl Patch_75_Mat_CR2_ceiling
f 711 710 709
f 714 713 712
f 717 716 715
f 720 719 718
f 723 722 721

usemtl Patch_76_Mat_CR2_ceiling
f 726 725 724
f 729 728 727

usemtl Patch_77_Mat_CR2_concrete
f 732 731 730
f 735 734 733
f 738 737 736
f 741 740 739
f 744 743 742
f 747 746 745
f 750 749 748
f 753 752 751
f 756 755 754

usemtl Patch_78_Mat_CR2_concrete
f 759 758 757
f 762 761 760

usemtl Patch_79_Mat_CR2_concrete
f 765 764 763
f 768 767 766
f 771 770 769

usemtl Patch_80_Mat_CR2_concrete
f 774 773 772
f 777 776 775

usemtl Patch_81_Mat_CR2_concrete
f 780 779 778
f 783 782 781

usemtl Patch_82_Mat_CR2_plaster
f 786 785 784
f 789 788 787
f 792 791 790

usemtl Patch_83_Mat_CR2_plaster
f 795 794 793
f 798 797 796
f 801 800 799
f 804 803 802

usemtl Patch_84_Mat_CR2_plaster
f 807 806 805
f 810 809 808
f 813 812 811

usemtl Patch_85_Mat_CR2_plaster
f 816 815 814
f 819 818 817
f 822 821 820

usemtl Patch_86_Mat_CR2_plaster
f 825 824 823
f 828 827 826

usemtl Patch_87_Mat_CR2_plaster
f 831 830 829
f 834 833 832

usemtl Patch_88_Mat_CR2_plaster
f 837 836 835
f 840 839 838
f 843 842 841
f 846 845 844
f 849 848 847
f 852 851 850
f 855 854 853

usemtl Patch_89_Mat_CR2_concrete
f 858 857 856
f 861 860 859

usemtl Patch_90_Mat_CR2_concrete
f 864 863 862
f 867 866 865

usemtl Patch_91_Mat_CR2_concrete
f 870 869 868
f 873 872 871

usemtl Patch_92_Mat_CR2_concrete
f 876 875 874
f 879 878 877
f 882 881 880
f 885 884 883

usemtl Patch_93_Mat_CR2_concrete
f 888 887 886
f 891 890 889

usemtl Patch_94_Mat_CR2_concrete
f 894 893 892
f 897 896 895

usemtl Patch_95_Mat_CR2_ceiling
f 900 899 898
f 903 902 901

usemtl Patch_96_Mat_CR2_concrete
f 906 905 904
f 909 908 907

usemtl Patch_97_Mat_CR2_ceiling
f 912 911 910
f 915 914 913
f 918 917 916
f 921 920 919
f 924 923 922

usemtl Patch_98_Mat_CR2_concrete
f 927 926 925
f 930 929 928

usemtl Patch_99_Mat_CR2_ceiling
f 933 932 931
f 936 935 934
f 939 938 937
f 942 941 940
f 945 944 943

usemtl Patch_100_Mat_CR2_concrete
f 948 947 946
f 951 950 949

usemtl Patch_101_Mat_CR2_ceiling
f 954 953 952
f 957 956 955
f 960 959 958
f 963 962 961
f 966 965 964

usemtl Patch_102_Mat_CR2_ceiling
f 969 968 967
f 972 971 970

usemtl Patch_103_Mat_CR2_concrete
f 975 974 973
f 978 977 976
f 981 980 979
f 984 983 982

usemtl Patch_104_Mat_CR2_ceiling
f 987 986 985
f 990 989 988

usemtl Patch_105_Mat_CR2_concrete
f 993 992 991
f 996 995 994

usemtl Patch_106_Mat_CR2_concrete
f 999 998 997
f 1002 1001 1000

usemtl Patch_107_Mat_CR2_concrete
f 1005 1004 1003
f 1008 1007 1006

usemtl Patch_108_Mat_CR2_concrete
f 1011 1010 1009
f 1014 1013 1012

usemtl Patch_109_Mat_CR2_concrete
f 1017 1016 1015
f 1020 1019 1018
f 1023 1022 1021
f 1026 1025 1024

usemtl Patch_110_Mat_CR2_ceiling
f 1029 1028 1027
f 1032 1031 1030

usemtl Patch_111_Mat_CR2_concrete
f 1035 1034 1033
f 1038 1037 1036

usemtl Patch_112_Mat_CR2_ceiling
f 1041 1040 1039
f 1044 1043 1042

usemtl Patch_113_Mat_CR2_concrete
f 1047 1046 1045
f 1050 1049 1048

usemtl Patch_114_Mat_CR2_ceiling
f 1053 1052 1051
f 1056 1055 1054

usemtl Patch_115_Mat_CR2_concrete
f 1059 1058 1057
f 1062 1061 1060

usemtl Patch_116_Mat_CR2_concrete
f 1065 1064 1063
f 1068 1067 1066
f 1071 1070 1069
f 1074 1073 1072

usemtl Patch_117_Mat_CR2_concrete
f 1077 1076 1075
f 1080 1079 1078

usemtl Patch_118_Mat_CR2_concrete
f 1083 1082 1081
f 1086 1085 1084
f 1089 1088 1087
f 1092 1091 1090

usemtl Patch_119_Mat_CR2_concrete
f 1095 1094 1093
f 1098 1097 1096
f 1101 1100 1099
f 1104 1103 1102

usemtl Patch_120_Mat_CR2_concrete
f 1107 1106 1105
f 1110 1109 1108
f 1113 1112 1111
f 1116 1115 1114

usemtl Patch_121_Mat_CR2_concrete
f 1119 1118 1117
f 1122 1121 1120
f 1125 1124 1123
f 1128 1127 1126

usemtl Patch_122_Mat_CR2_concrete
f 1131 1130 1129
f 1134 1133 1132

usemtl Patch_123_Mat_CR2_concrete
f 1137 1136 1135
f 1140 1139 1138
f 1143 1142 1141
f 1146 1145 1144

usemtl Patch_124_Mat_CR2_windows
f 1149 1148 1147
f 1152 1151 1150

usemtl Patch_125_Mat_CR2_windows
f 1155 1154 1153
f 1158 1157 1156

usemtl Patch_126_Mat_CR2_concrete
f 1161 1160 1159
f 1164 1163 1162
f 1167 1166 1165
f 1170 1169 1168
f 1173 1172 1171
f 1176 1175 1174
f 1179 1178 1177
f 1182 1181 1180

usemtl Patch_127_Mat_CR2_concrete
f 1185 1184 1183
f 1188 1187 1186
f 1191 1190 1189
f 1194 1193 1192
f 1197 1196 1195
f 1200 1199 1198
f 1203 1202 1201
f 1206 1205 1204

usemtl Patch_128_Mat_CR2_concrete
f 1209 1208 1207
f 1212 1211 1210
f 1215 1214 1213
f 1218 1217 1216

usemtl Patch_129_Mat_CR2_ceiling
f 1221 1220 1219
f 1224 1223 1222

usemtl Patch_130_Mat_CR2_ceiling
f 1227 1226 1225
f 1230 1229 1228

usemtl Patch_131_Mat_CR2_ceiling
f 1233 1232 1231
f 1236 1235 1234

usemtl Patch_132_Mat_CR2_ceiling
f 1239 1238 1237
f 1242 1241 1240

usemtl Patch_133_Mat_CR2_ceiling
f 1245 1244 1243
f 1248 1247 1246

usemtl Patch_134_Mat_CR2_windows
f 1251 1250 1249
f 1254 1253 1252

usemtl Patch_135_Mat_CR2_windows
f 1257 1256 1255
f 1260 1259 1258

usemtl Patch_136_Mat_CR2_ceiling
f 1263 1262 1261
f 1266 1265 1264
f 1269 1268 1267
f 1272 1271 1270
f 1275 1274 1273

usemtl Patch_137_Mat_CR2_ceiling
f 1278 1277 1276
f 1281 1280 1279
f 1284 1283 1282
f 1287 1286 1285
f 1290 1289 1288
f 1293 1292 1291
f 1296 1295 1294
f 1299 1298 1297

usemtl Patch_138_Mat_CR2_ceiling
f 1302 1301 1300
f 1305 1304 1303
f 1308 1307 1306
f 1311 1310 1309

usemtl Patch_139_Mat_CR2_ceiling
f 1314 1313 1312
f 1317 1316 1315
f 1320 1319 1318

usemtl Patch_140_Mat_CR2_ceiling
f 1323 1322 1321
f 1326 1325 1324

usemtl Patch_141_Mat_CR2_ceiling
f 1329 1328 1327
f 1332 1331 1330
f 1335 1334 1333
f 1338 1337 1336
f 1341 1340 1339
f 1344 1343 1342

usemtl Patch_142_Mat_CR2_ceiling
f 1347 1346 1345
f 1350 1349 1348
f 1353 1352 1351
f 1356 1355 1354
f 1359 1358 1357

usemtl Patch_143_Mat_CR2_ceiling
f 1362 1361 1360
f 1365 1364 1363
f 1368 1367 1366
f 1371 1370 1369
f 1374 1373 1372
f 1377 1376 1375
f 1380 1379 1378
f 1383 1382 1381
f 1386 1385 1384
f 1389 1388 1387
f 1392 1391 1390

usemtl Patch_144_Mat_CR2_ceiling
f 1395 1394 1393
f 1398 1397 1396
f 1401 1400 1399
f 1404 1403 1402
f 1407 1406 1405
f 1410 1409 1408
f 1413 1412 1411
f 1416 1415 1414

usemtl Patch_145_Mat_CR2_ceiling
f 1419 1418 1417
f 1422 1421 1420
f 1425 1424 1423
f 1428 1427 1426
f 1431 1430 1429
f 1434 1433 1432
f 1437 1436 1435
f 1440 1439 1438
f 1443 1442 1441
f 1446 1445 1444

usemtl Patch_146_Mat_CR2_ceiling
f 1449 1448 1447
f 1452 1451 1450
f 1455 1454 1453
f 1458 1457 1456
f 1461 1460 1459
f 1464 1463 1462
f 1467 1466 1465
f 1470 1469 1468

usemtl Patch_147_Mat_CR2_ceiling
f 1473 1472 1471
f 1476 1475 1474
f 1479 1478 1477
f 1482 1481 1480

usemtl Patch_148_Mat_CR2_ceiling
f 1485 1484 1483
f 1488 1487 1486
f 1491 1490 1489
f 1494 1493 1492
f 1497 1496 1495
f 1500 1499 1498
f 1503 1502 1501

usemtl Patch_149_Mat_CR2_ceiling
f 1506 1505 1504
f 1509 1508 1507
f 1512 1511 1510
f 1515 1514 1513
f 1518 1517 1516
f 1521 1520 1519
f 1524 1523 1522
f 1527 1526 1525
f 1530 1529 1528
f 1533 1532 1531

usemtl Patch_150_Mat_CR2_ceiling
f 1536 1535 1534
f 1539 1538 1537
f 1542 1541 1540
f 1545 1544 1543
f 1548 1547 1546
f 1551 1550 1549
f 1554 1553 1552

usemtl Patch_151_Mat_CR2_ceiling
f 1557 1556 1555
f 1560 1559 1558
f 1563 1562 1561
f 1566 1565 1564
f 1569 1568 1567
f 1572 1571 1570
f 1575 1574 1573

usemtl Patch_152_Mat_CR2_ceiling
f 1578 1577 1576
f 1581 1580 1579
f 1584 1583 1582
f 1587 1586 1585
f 1590 1589 1588
f 1593 1592 1591
f 1596 1595 1594
f 1599 1598 1597

usemtl Patch_153_Mat_CR2_ceiling
f 1602 1601 1600
f 1605 1604 1603
f 1608 1607 1606
f 1611 1610 1609
f 1614 1613 1612
f 1617 1616 1615
f 1620 1619 1618

usemtl Patch_154_Mat_CR2_ceiling
f 1623 1622 1621
f 1626 1625 1624
f 1629 1628 1627
f 1632 1631 1630
f 1635 1634 1633

usemtl Patch_155_Mat_CR2_ceiling
f 1638 1637 1636
f 1641 1640 1639
f 1644 1643 1642
f 1647 1646 1645
f 1650 1649 1648
f 1653 1652 1651
f 1656 1655 1654
f 1659 1658 1657
f 1662 1661 1660

usemtl Patch_156_Mat_CR2_ceiling
f 1665 1664 1663
f 1668 1667 1666
f 1671 1670 1669
f 1674 1673 1672
f 1677 1676 1675
f 1680 1679 1678
f 1683 1682 1681
f 1686 1685 1684
f 1689 1688 1687
f 1692 1691 1690

usemtl Patch_157_Mat_CR2_ceiling
f 1695 1694 1693
f 1698 1697 1696
f 1701 1700 1699

usemtl Patch_158_Mat_CR2_ceiling
f 1704 1703 1702
f 1707 1706 1705
f 1710 1709 1708
f 1713 1712 1711

usemtl Patch_159_Mat_CR2_ceiling
f 1716 1715 1714
f 1719 1718 1717

usemtl Patch_160_Mat_CR2_ceiling
f 1722 1721 1720
f 1725 1724 1723

usemtl Patch_161_Mat_CR2_ceiling
f 1728 1727 1726
f 1731 1730 1729

usemtl Patch_162_Mat_CR2_ceiling
f 1734 1733 1732
f 1737 1736 1735

usemtl Patch_163_Mat_CR2_concrete
f 1740 1739 1738
f 1743 1742 1741

usemtl Patch_164_Mat_CR2_ceiling
f 1746 1745 1744
f 1749 1748 1747

usemtl Patch_165_Mat_CR2_ceiling
f 1752 1751 1750
f 1755 1754 1753

usemtl Patch_166_Mat_CR2_ceiling
f 1758 1757 1756
f 1761 1760 1759

usemtl Patch_167_Mat_CR2_ceiling
f 1764 1763 1762
f 1767 1766 1765

usemtl Patch_168_Mat_CR2_ceiling
f 1770 1769 1768
f 1773 1772 1771

usemtl Patch_169_Mat_CR2_ceiling
f 1776 1775 1774
f 1779 1778 1777

usemtl Patch_170_Mat_CR2_ceiling
f 1782 1781 1780
f 1785 1784 1783

usemtl Patch_171_Mat_CR2_ceiling
f 1788 1787 1786
f 1791 1790 1789

usemtl Patch_172_Mat_CR2_ceiling
f 1794 1793 1792
f 1797 1796 1795

usemtl Patch_173_Mat_CR2_ceiling
f 1800 1799 1798
f 1803 1802 1801

usemtl Patch_174_Mat_CR2_ceiling
f 1806 1805 1804
f 1809 1808 1807

usemtl Patch_175_Mat_CR2_ceiling
f 1812 1811 1810
f 1815 1814 1813

usemtl Patch_176_Mat_CR2_ceiling
f 1818 1817 1816
f 1821 1820 1819

usemtl Patch_177_Mat_CR2_ceiling
f 1824 1823 1822
f 1827 1826 1825

usemtl Patch_178_Mat_CR2_concrete
f 1830 1829 1828
f 1833 1832 1831

usemtl Patch_179_Mat_CR2_ceiling
f 1836 1835 1834
f 1839 1838 1837

usemtl Patch_180_Mat_CR2_ceiling
f 1842 1841 1840
f 1845 1844 1843

usemtl Patch_181_Mat_CR2_ceiling
f 1848 1847 1846
f 1851 1850 1849

usemtl Patch_182_Mat_CR2_ceiling
f 1854 1853 1852
f 1857 1856 1855

usemtl Patch_183_Mat_CR2_ceiling
f 1860 1859 1858
f 1863 1862 1861

usemtl Patch_184_Mat_CR2_ceiling
f 1866 1865 1864
f 1869 1868 1867

usemtl Patch_185_Mat_CR2_ceiling
f 1872 1871 1870
f 1875 1874 1873

usemtl Patch_186_Mat_CR2_ceiling
f 1878 1877 1876
f 1881 1880 1879

usemtl Patch_187_Mat_CR2_ceiling
f 1884 1883 1882
f 1887 1886 1885

usemtl Patch_188_Mat_CR2_ceiling
f 1890 1889 1888
f 1893 1892 1891

usemtl Patch_189_Mat_CR2_concrete
f 1896 1895 1894
f 1899 1898 1897

usemtl Patch_190_Mat_CR2_concrete
f 1902 1901 1900
f 1905 1904 1903

usemtl Patch_191_Mat_CR2_concrete
f 1908 1907 1906
f 1911 1910 1909

usemtl Patch_192_Mat_CR2_concrete
f 1914 1913 1912
f 1917 1916 1915

usemtl Patch_193_Mat_CR2_concrete
f 1920 1919 1918
f 1923 1922 1921

usemtl Patch_194_Mat_CR2_concrete
f 1926 1925 1924
f 1929 1928 1927

usemtl Patch_195_Mat_CR2_concrete
f 1932 1931 1930
f 1935 1934 1933

usemtl Patch_196_Mat_CR2_concrete
f 1938 1937 1936
f 1941 1940 1939

usemtl Patch_197_Mat_CR2_concrete
f 1944 1943 1942
f 1947 1946 1945

usemtl Patch_198_Mat_CR2_concrete
f 1950 1949 1948
f 1953 1952 1951

usemtl Patch_199_Mat_CR2_concrete
f 1956 1955 1954
f 1959 1958 1957

usemtl Patch_200_Mat_CR2_concrete
f 1962 1961 1960
f 1965 1964 1963

usemtl Patch_201_Mat_CR2_plaster
f 1968 1967 1966
f 1971 1970 1969

usemtl Patch_202_Mat_CR2_plaster
f 1974 1973 1972
f 1977 1976 1975

usemtl Patch_203_Mat_CR2_plaster
f 1980 1979 1978
f 1983 1982 1981

usemtl Patch_204_Mat_CR2_plaster
f 1986 1985 1984
f 1989 1988 1987

usemtl Patch_205_Mat_CR2_plaster
f 1992 1991 1990
f 1995 1994 1993

usemtl Patch_206_Mat_CR2_plaster
f 1998 1997 1996
f 2001 2000 1999

usemtl Patch_207_Mat_CR2_plaster
f 2004 2003 2002
f 2007 2006 2005
f 2010 2009 2008

usemtl Patch_208_Mat_CR2_plaster
f 2013 2012 2011
f 2016 2015 2014

usemtl Patch_209_Mat_CR2_plaster
f 2019 2018 2017

usemtl Patch_210_Mat_CR2_plaster
f 2022 2021 2020

usemtl Patch_211_Mat_CR2_plaster
f 2025 2024 2023

