mtllib mesh.mtl

# obj1
v 6.1017380200 1.9029999300 2.7360000500
v 0.5707378400 0.4990000200 2.7360000500
v 0.5707378400 2.4109999300 2.7360000500
v 0.5707378400 -6.1599999700 2.7360000500
v 6.1017380200 -6.1599999700 2.7360000500
usemtl Patch_1_Mat_CR1_paintedConcrete
f 1 2 3
usemtl Patch_2_Mat_CR1_paintedConcrete
f 2 1 4
usemtl Patch_3_Mat_CR1_paintedConcrete
f 4 1 5

# obj2
v -6.2512622300 -3.6479998100 2.7680000400
v -4.5216829200 -3.6479998100 1.1000000100
v -6.2512622300 -3.6479998100 1.1000000100
v -4.5216829200 -3.6479998100 0.0000000000
v -2.8027147800 -3.6479998100 1.1000000100
v -2.8027147800 -3.6479998100 0.0000000000
v -0.0002621400 -3.6479998100 1.1000000100
v -0.0002621400 -3.6479998100 2.7680000400
usemtl Patch_4_Mat_CR1_paintedConcrete
f 6 7 8
usemtl Patch_5_Mat_CR1_paintedConcrete
f 9 10 11
usemtl Patch_6_Mat_CR1_paintedConcrete
f 10 9 7
usemtl Patch_7_Mat_CR1_paintedConcrete
f 12 7 13
usemtl Patch_8_Mat_CR1_paintedConcrete
f 13 7 6

# obj3
v -0.0002621400 2.5230000700 2.7680000400
v -6.2512622300 -3.6479998100 2.7680000400
v -6.2512622300 3.0939999100 2.7680000400
v -0.0002621400 -3.6479998100 2.7680000400
usemtl Patch_9_Mat_CR1_concrete
f 14 15 16
usemtl Patch_10_Mat_CR1_concrete
f 15 14 17

# obj4
v -6.2512622300 2.1558492200 -0.0000000000
v -6.2512622300 -3.0531010500 1.1000000100
v -6.2512622300 -3.0531010500 0.0000000000
v -6.2512622300 -3.6479998100 2.7680000400
v -6.2512622300 -3.6479998100 1.1000000100
v -6.2512622300 3.0939999100 2.7680000400
v -6.2512622300 2.1558492200 1.1000000100
v -6.2512622300 3.0939999100 1.1000000100
usemtl Patch_11_Mat_CR1_concrete
f 18 19 20
usemtl Patch_12_Mat_CR1_concrete
f 19 21 22
usemtl Patch_13_Mat_CR1_concrete
f 21 19 23
usemtl Patch_14_Mat_CR1_concrete
f 23 19 24
usemtl Patch_15_Mat_CR1_concrete
f 24 19 18
usemtl Patch_16_Mat_CR1_concrete
f 23 24 25

# obj5
v -0.0002621400 2.5230000700 2.7680000400
v -1.6769522900 2.6761579700 1.1000000100
v -0.0002621400 2.5230000700 1.1000000100
v -1.6769522900 2.6761579700 0.0000000000
v -4.4160428500 2.9263611100 1.1000000100
v -4.4160428500 2.9263611100 -0.0000000000
v -6.2512622300 3.0939999100 1.1000000100
v -6.2512622300 3.0939999100 2.7680000400
usemtl Patch_17_Mat_CR1_concrete
f 26 27 28
usemtl Patch_18_Mat_CR1_concrete
f 29 30 31
usemtl Patch_19_Mat_CR1_concrete
f 30 29 27
usemtl Patch_20_Mat_CR1_concrete
f 30 27 32
usemtl Patch_21_Mat_CR1_concrete
f 32 27 33
usemtl Patch_22_Mat_CR1_concrete
f 33 27 26

# obj6
v -0.0002621400 -3.6479998100 2.7680000400
v -0.0002621400 -1.4879999700 2.1930000600
v -0.0002621400 -3.6479998100 1.1000000100
v -0.0002621400 2.5230000700 2.7680000400
v -0.0002621400 -1.9833576200 1.1000000100
v -0.0002621400 -1.9833576200 0.0000000000
v -0.0002621400 -0.0120000000 2.1949999300
v -0.0002621400 -0.0120000000 0.0000000000
v -0.0002621400 1.5980490700 1.1000000100
v -0.0002621400 2.5230000700 1.1000000100
v -0.0002621400 1.5980490700 0.0000000000
v -0.0002621400 -1.4879999700 0.0000000000
usemtl Patch_23_Mat_CR1_concrete
f 34 35 36
usemtl Patch_24_Mat_CR1_concrete
f 35 34 37
usemtl Patch_25_Mat_CR1_concrete
f 36 35 38
usemtl Patch_26_Mat_CR1_concrete
f 38 35 39
usemtl Patch_27_Mat_CR1_concrete
f 35 37 40
usemtl Patch_28_Mat_CR1_concrete
f 40 37 41
usemtl Patch_29_Mat_CR1_concrete
f 41 37 42
usemtl Patch_30_Mat_CR1_concrete
f 42 37 43
usemtl Patch_31_Mat_CR1_concrete
f 44 41 42
usemtl Patch_32_Mat_CR1_concrete
f 45 39 35

# obj7
v 6.1017380200 1.9029999300 2.7360000500
v 0.5707378400 2.4109999300 0.0500000000
v 6.1017380200 1.9029999300 0.0500000000
v 0.5707378400 2.4109999300 2.7360000500
usemtl Patch_33_Mat_CR1_paintedConcrete
f 46 47 48
usemtl Patch_34_Mat_CR1_paintedConcrete
f 47 46 49

# obj8
v 6.1017380200 1.9029999300 2.7360000500
v 6.1017380200 -6.1599999700 0.0500000000
v 6.1017380200 -6.1599999700 2.7360000500
v 6.1017380200 1.9029999300 0.0500000000
usemtl Patch_35_Mat_CR1_paintedConcrete
f 50 51 52
usemtl Patch_36_Mat_CR1_paintedConcrete
f 51 50 53

# obj9
v 0.5707378400 -6.1599999700 2.7360000500
v 6.1017380200 -6.1599999700 0.0500000000
v 0.5707378400 -6.1599999700 0.0500000000
v 6.1017380200 -6.1599999700 2.7360000500
usemtl Patch_37_Mat_CR1_paintedConcrete
f 54 55 56
usemtl Patch_38_Mat_CR1_paintedConcrete
f 55 54 57

# obj10
v -4.5101181200 1.9854677600 1.1000000100
v -6.2512622300 3.0939999100 1.1000000100
v -6.2512622300 2.1558492200 1.1000000100
v -4.4160428500 2.9263611100 1.1000000100
usemtl Patch_39_Mat_CR1_tablesEquipment
f 58 59 60
usemtl Patch_40_Mat_CR1_tablesEquipment
f 59 58 61

# obj11
v -4.4160428500 2.9263611100 -0.0000000000
v -4.5101181200 1.9854677600 1.0000000100
v -4.5101181200 1.9854677600 -0.0000000000
v -4.5101181200 1.9854677600 1.1000000100
v -4.4160428500 2.9263611100 1.1000000100
usemtl Patch_41_Mat_CR1_tablesEquipment
f 62 63 64
usemtl Patch_42_Mat_CR1_tablesEquipment
f 63 62 65
usemtl Patch_43_Mat_CR1_tablesEquipment
f 65 62 66

# obj12
v -4.5101181200 1.9854677600 1.0000000100
v -6.2512622300 2.1558492200 -0.0000000000
v -4.5101181200 1.9854677600 -0.0000000000
v -6.2512622300 2.1558492200 1.1000000100
v -4.5101181200 1.9854677600 1.1000000100
usemtl Patch_44_Mat_CR1_tablesEquipment
f 67 68 69
usemtl Patch_45_Mat_CR1_tablesEquipment
f 68 67 70
usemtl Patch_46_Mat_CR1_tablesEquipment
f 70 67 71

# obj13
v -6.2512622300 -3.0531010500 1.1000000100
v -4.5216829200 -3.0531010500 0.0000000000
v -6.2512622300 -3.0531010500 0.0000000000
v -4.5216829200 -3.0531010500 1.1000000100
usemtl Patch_47_Mat_CR1_tablesEquipment
f 72 73 74
usemtl Patch_48_Mat_CR1_tablesEquipment
f 73 72 75

# obj14
v -4.5216829200 -3.6479998100 1.1000000100
v -6.2512622300 -3.0531010500 1.1000000100
v -6.2512622300 -3.6479998100 1.1000000100
v -4.5216829200 -3.0531010500 1.1000000100
usemtl Patch_49_Mat_CR1_tablesEquipment
f 76 77 78
usemtl Patch_50_Mat_CR1_tablesEquipment
f 77 76 79

# obj15
v -4.5216829200 -3.0531010500 0.0000000000
v -4.5216829200 -3.6479998100 1.1000000100
v -4.5216829200 -3.6479998100 0.0000000000
v -4.5216829200 -3.0531010500 1.1000000100
usemtl Patch_51_Mat_CR1_tablesEquipment
f 80 81 82
usemtl Patch_52_Mat_CR1_tablesEquipment
f 81 80 83

# obj16
v -0.0002621400 1.5980490700 1.1000000100
v -1.6769522900 2.6761579700 1.1000000100
v -1.7412999100 1.7145899200 1.1000000100
v -0.0002621400 2.5230000700 1.1000000100
usemtl Patch_53_Mat_CR1_tablesEquipment
f 84 85 86
usemtl Patch_54_Mat_CR1_tablesEquipment
f 85 84 87

# obj17
v -0.0002621400 1.5980490700 1.1000000100
v -1.7412999100 1.7145899200 0.0000000000
v -0.0002621400 1.5980490700 0.0000000000
v -1.7412999100 1.7145899200 1.0000000100
v -1.7412999100 1.7145899200 1.1000000100
usemtl Patch_55_Mat_CR1_tablesEquipment
f 88 89 90
usemtl Patch_56_Mat_CR1_tablesEquipment
f 89 88 91
usemtl Patch_57_Mat_CR1_tablesEquipment
f 91 88 92

# obj18
v -1.6769522900 2.6761579700 1.1000000100
v -1.7412999100 1.7145899200 1.0000000100
v -1.7412999100 1.7145899200 1.1000000100
v -1.7412999100 1.7145899200 0.0000000000
v -1.6769522900 2.6761579700 0.0000000000
usemtl Patch_58_Mat_CR1_tablesEquipment
f 93 94 95
usemtl Patch_59_Mat_CR1_tablesEquipment
f 94 93 96
usemtl Patch_60_Mat_CR1_tablesEquipment
f 96 93 97

# obj19
v -5.4419003900 1.4788138000 0.0000000000
v -5.4419003900 -0.0911861800 1.0000000100
v -5.4419003900 -0.0911861800 0.0000000000
v -5.4419003900 1.4788138000 1.0000000100
usemtl Patch_61_Mat_CR1_absorber
f 98 99 100
usemtl Patch_62_Mat_CR1_absorber
f 99 98 101

# obj20
v -2.3900469400 2.5244441700 0.0000000000
v -3.5562864200 2.5587957500 1.0000000100
v -3.5562864200 2.5587957500 0.0000000000
v -2.3900469400 2.5244441700 1.0000000100
usemtl Patch_63_Mat_CR1_absorber
f 102 103 104
usemtl Patch_64_Mat_CR1_absorber
f 103 102 105

# obj21
v -2.3900469400 2.5244441700 1.0000000100
v -1.7412999100 1.7145899200 0.0000000000
v -1.7412999100 1.7145899200 1.0000000100
v -2.3900469400 2.5244441700 0.0000000000
usemtl Patch_65_Mat_CR1_absorber
f 106 107 108
usemtl Patch_66_Mat_CR1_absorber
f 107 106 109

# obj22
v -4.5101181200 1.9854677600 1.0000000100
v -5.4419003900 1.4788138000 0.0000000000
v -4.5101181200 1.9854677600 -0.0000000000
v -5.4419003900 1.4788138000 1.0000000100
usemtl Patch_67_Mat_CR1_absorber
f 110 111 112
usemtl Patch_68_Mat_CR1_absorber
f 111 110 113

# obj23
v -2.8027147800 -2.7983574900 1.1000000100
v -2.8027147800 -3.6479998100 0.0000000000
v -2.8027147800 -3.6479998100 1.1000000100
v -2.8027147800 -2.7983574900 0.0000000000
usemtl Patch_69_Mat_CR1_tablesEquipment
f 114 115 116
usemtl Patch_70_Mat_CR1_tablesEquipment
f 115 114 117

# obj24
v -2.8027147800 -2.7983574900 1.1000000100
v -0.9127148300 -2.7983574900 0.0000000000
v -2.8027147800 -2.7983574900 0.0000000000
v -0.9127148300 -2.7983574900 1.1000000100
usemtl Patch_71_Mat_CR1_tablesEquipment
f 118 119 120
usemtl Patch_72_Mat_CR1_tablesEquipment
f 119 118 121

# obj25
v -0.0002621400 -3.6479998100 1.1000000100
v -2.8027147800 -2.7983574900 1.1000000100
v -2.8027147800 -3.6479998100 1.1000000100
v -0.9127148300 -2.7983574900 1.1000000100
v -0.9127148300 -1.9833576200 1.1000000100
v -0.0002621400 -1.9833576200 1.1000000100
usemtl Patch_73_Mat_CR1_tablesEquipment
f 122 123 124
usemtl Patch_74_Mat_CR1_tablesEquipment
f 123 122 125
usemtl Patch_75_Mat_CR1_tablesEquipment
f 125 122 126
usemtl Patch_76_Mat_CR1_tablesEquipment
f 126 122 127

# obj26
v -0.9127148300 -1.9833576200 1.1000000100
v -0.9127148300 -2.7983574900 0.0000000000
v -0.9127148300 -2.7983574900 1.1000000100
v -0.9127148300 -1.9833576200 0.0000000000
usemtl Patch_77_Mat_CR1_tablesEquipment
f 128 129 130
usemtl Patch_78_Mat_CR1_tablesEquipment
f 129 128 131

# obj27
v -0.9127148300 -1.9833576200 1.1000000100
v -0.0002621400 -1.9833576200 0.0000000000
v -0.9127148300 -1.9833576200 0.0000000000
v -0.0002621400 -1.9833576200 1.1000000100
usemtl Patch_79_Mat_CR1_tablesEquipment
f 132 133 134
usemtl Patch_80_Mat_CR1_tablesEquipment
f 133 132 135

# obj28
v -2.8027147800 -3.6479998100 0.0000000000
v -4.5216829200 -3.0531010500 0.0000000000
v -4.5216829200 -3.6479998100 0.0000000000
v -4.5101181200 1.9854677600 -0.0000000000
v -3.5562864200 2.5587957500 0.0000000000
v -2.8027147800 -2.7983574900 0.0000000000
v -2.3900469400 2.5244441700 0.0000000000
v -0.9127148300 -2.7983574900 0.0000000000
v -1.7412999100 1.7145899200 0.0000000000
v -0.9127148300 -1.9833576200 0.0000000000
v -0.0002621400 1.5980490700 0.0000000000
v -0.0002621400 -0.0120000000 0.0000000000
v -0.0002621400 -1.9833576200 0.0000000000
v -0.0002621400 -1.4879999700 0.0000000000
v -6.2512622300 -3.0531010500 0.0000000000
v -6.2512622300 2.1558492200 -0.0000000000
usemtl Patch_81_Mat_CR1_concrete
f 136 137 138
usemtl Patch_82_Mat_CR1_concrete
f 137 136 139
usemtl Patch_83_Mat_CR1_concrete
f 139 136 140
usemtl Patch_84_Mat_CR1_concrete
f 140 136 141
usemtl Patch_85_Mat_CR1_concrete
f 140 141 142
usemtl Patch_86_Mat_CR1_concrete
f 142 141 143
usemtl Patch_87_Mat_CR1_concrete
f 142 143 144
usemtl Patch_88_Mat_CR1_concrete
f 144 143 145
usemtl Patch_89_Mat_CR1_concrete
f 144 145 146
usemtl Patch_90_Mat_CR1_concrete
f 146 145 147
usemtl Patch_91_Mat_CR1_concrete
f 147 145 148
usemtl Patch_92_Mat_CR1_concrete
f 150 139 151
usemtl Patch_93_Mat_CR1_concrete
f 139 150 137

# obj29
v -3.5562864200 2.5587957500 0.0000000000
v -4.5101181200 1.9854677600 1.0000000100
v -4.5101181200 1.9854677600 -0.0000000000
v -3.5562864200 2.5587957500 1.0000000100
usemtl Patch_94_Mat_CR1_absorber
f 152 153 154
usemtl Patch_95_Mat_CR1_absorber
f 153 152 155

# obj30
v -0.0002621400 -1.4879999700 2.1930000600
v 0.5707378400 -1.4879999700 0.0500000000
v -0.0002621400 -1.4879999700 0.0000000000
v 0.5707378400 -1.4879999700 2.1930000600
usemtl Patch_96_Mat_CR1_concrete
f 156 157 158
usemtl Patch_97_Mat_CR1_concrete
f 157 156 159

# obj31
v 0.5707378400 -0.0120000000 0.0500000000
v 1.3063440000 -1.2924716900 2.1949999300
v 1.3063440000 -1.2924716900 0.0500000000
v 0.5707378400 -0.0120000000 2.1949999300
usemtl Patch_98_Mat_CR1_paintedConcrete
f 160 161 162
usemtl Patch_99_Mat_CR1_paintedConcrete
f 161 160 163

# obj32
v 6.1017380200 -6.1599999700 0.0500000000
v 0.5707378400 -1.4879999700 0.0500000000
v 0.5707378400 -6.1599999700 0.0500000000
v 0.5707378400 -0.0120000000 0.0500000000
v 6.1017380200 1.9029999300 0.0500000000
v 0.5707378400 2.4109999300 0.0500000000
usemtl Patch_100_Mat_CR1_paintedConcrete
f 164 165 166
usemtl Patch_101_Mat_CR1_paintedConcrete
f 165 164 167
usemtl Patch_102_Mat_CR1_paintedConcrete
f 167 168 169
usemtl Patch_103_Mat_CR1_paintedConcrete
f 168 167 164

# obj33
v -3.5562864200 2.5587957500 0.0000000000
v -4.4160428500 2.9263611100 -0.0000000000
v -4.5101181200 1.9854677600 -0.0000000000
v -1.6769522900 2.6761579700 0.0000000000
v -2.3900469400 2.5244441700 0.0000000000
v -1.7412999100 1.7145899200 0.0000000000
usemtl Patch_104_Mat_CR1_concrete
f 170 171 172
usemtl Patch_105_Mat_CR1_concrete
f 171 170 173
usemtl Patch_106_Mat_CR1_concrete
f 173 170 174
usemtl Patch_107_Mat_CR1_concrete
f 173 174 175

# obj34
v 0.5707378400 -1.4879999700 0.0500000000
v 0.5707378400 -6.1599999700 2.7360000500
v 0.5707378400 -6.1599999700 0.0500000000
v 0.5707378400 -1.4879999700 2.1930000600
v 0.5707378400 0.4990000200 2.7360000500
v 0.5707378400 -0.0120000000 2.1949999300
usemtl Patch_108_Mat_CR1_paintedConcrete
f 176 177 178
usemtl Patch_109_Mat_CR1_paintedConcrete
f 177 176 179
usemtl Patch_110_Mat_CR1_paintedConcrete
f 177 179 180
usemtl Patch_111_Mat_CR1_paintedConcrete
f 180 179 181

# obj35
v 0.5707378400 2.4109999300 0.0500000000
v 0.5707378400 -0.0120000000 2.1949999300
v 0.5707378400 -0.0120000000 0.0500000000
v 0.5707378400 0.4990000200 2.7360000500
v 0.5707378400 2.4109999300 2.7360000500
usemtl Patch_112_Mat_CR1_paintedConcrete
f 182 183 184
usemtl Patch_113_Mat_CR1_paintedConcrete
f 183 182 185
usemtl Patch_114_Mat_CR1_paintedConcrete
f 185 182 186

# obj36
v 0.5707378400 -1.4879999700 0.0500000000
v -0.0002621400 -0.0120000000 0.0000000000
v -0.0002621400 -1.4879999700 0.0000000000
v 0.5707378400 -0.0120000000 0.0500000000
usemtl Patch_115_Mat_CR1_concrete
f 187 188 189
usemtl Patch_116_Mat_CR1_concrete
f 188 187 190

# obj37
v 0.5707378400 -0.0120000000 0.0500000000
v -0.0002621400 -0.0120000000 2.1949999300
v -0.0002621400 -0.0120000000 0.0000000000
v 0.5707378400 -0.0120000000 2.1949999300
usemtl Patch_117_Mat_CR1_concrete
f 191 192 193
usemtl Patch_118_Mat_CR1_concrete
f 192 191 194

# obj38
usemtl Patch_119_Mat_CR1_tablesEquipment
f 160 162 161
usemtl Patch_120_Mat_CR1_tablesEquipment
f 161 163 160

# obj39
usemtl Patch_121_Mat_CR1_absorber
f 98 100 99
usemtl Patch_122_Mat_CR1_absorber
f 99 101 98

# obj40
usemtl Patch_123_Mat_CR1_absorber
f 102 104 103
usemtl Patch_124_Mat_CR1_absorber
f 103 105 102

# obj41
usemtl Patch_125_Mat_CR1_absorber
f 106 108 107
usemtl Patch_126_Mat_CR1_absorber
f 107 109 106

# obj42
usemtl Patch_127_Mat_CR1_absorber
f 110 112 111
usemtl Patch_128_Mat_CR1_absorber
f 111 113 110

# obj43
usemtl Patch_129_Mat_CR1_absorber
f 152 154 153
usemtl Patch_130_Mat_CR1_absorber
f 153 155 152
