mtllib mesh.mtl

v -1.303 4.082 0.150
v -2.823 4.082 0.595
v -2.823 4.082 0.150
v -2.823 4.082 0.595
v -1.303 4.082 0.150
v -1.303 4.082 0.595
v 2.804 4.189 1.508
v 2.804 4.189 0.450
v 1.261 4.189 0.450
v 1.261 4.189 0.450
v 1.261 4.189 1.512
v 2.804 4.189 1.508
v 1.261 4.189 1.512
v 1.261 4.189 2.568
v 2.804 4.189 2.568
v 2.804 4.189 2.568
v 2.804 4.189 1.508
v 1.261 4.189 1.512
v 2.489 -3.695 -0.000
v 3.094 -3.695 2.988
v 3.094 -3.695 -0.000
v 3.094 -3.695 2.988
v 2.489 -3.695 -0.000
v 2.489 -3.695 2.988
v 2.504 -2.690 1.489
v 2.519 -1.695 1.825
v 2.519 -1.695 2.988
v 2.504 -2.690 1.489
v 2.489 -3.695 2.988
v 2.489 -3.695 1.847
v 2.489 -3.695 2.988
v 2.504 -2.690 1.489
v 2.519 -1.695 2.988
v 2.504 -2.690 1.489
v 2.489 -3.695 1.847
v 2.489 -3.695 -0.000
v 2.489 -3.695 -0.000
v 2.504 -2.710 -0.000
v 2.504 -2.690 1.489
v 2.504 -2.690 1.489
v 2.504 -2.710 -0.000
v 2.519 -1.695 -0.000
v 2.519 -1.695 -0.000
v 2.519 -1.695 1.825
v 2.504 -2.690 1.489
v 3.132 -1.695 0.000
v 2.519 -1.695 2.988
v 2.519 -1.695 0.000
v 2.519 -1.695 2.988
v 3.132 -1.695 0.000
v 3.132 -1.695 2.988
v -0.496 -4.255 1.516
v -0.416 -4.255 2.988
v -1.616 -4.255 2.988
v -1.616 -4.255 2.988
v -1.616 -4.255 1.505
v -0.496 -4.255 1.516
v 0.764 -4.255 1.521
v 1.863 -4.255 1.551
v 1.930 -4.255 2.988
v 1.930 -4.255 2.988
v 0.655 -4.255 2.988
v 0.764 -4.255 1.521
v -1.616 -4.255 0.000
v -0.496 -4.255 1.516
v -1.616 -4.255 1.505
v -0.496 -4.255 1.516
v -1.616 -4.255 0.000
v -0.465 -4.255 0.000
v -0.496 -4.255 1.516
v -0.465 -4.255 0.000
v -0.395 -4.255 1.436
v 0.805 -4.255 0.000
v -0.395 -4.255 1.436
v -0.465 -4.255 0.000
v -0.395 -4.255 1.436
v 0.805 -4.255 0.000
v 0.699 -4.255 1.466
v 0.764 -4.255 1.521
v -0.395 -4.255 1.436
v 0.699 -4.255 1.466
v -0.496 -4.255 1.516
v 0.764 -4.255 1.521
v 0.655 -4.255 2.988
v 0.655 -4.255 2.988
v -0.416 -4.255 2.988
v -0.496 -4.255 1.516
v -0.395 -4.255 1.436
v 0.764 -4.255 1.521
v -0.496 -4.255 1.516
v 0.699 -4.255 1.466
v 1.863 -4.255 1.551
v 0.764 -4.255 1.521
v 1.957 -4.255 1.476
v 0.699 -4.255 1.466
v 0.805 -4.255 0.000
v 0.805 -4.255 0.000
v 1.887 -4.255 0.000
v 1.957 -4.255 1.476
v 1.863 -4.255 1.551
v 0.699 -4.255 1.466
v 1.957 -4.255 1.476
v 3.094 -4.255 2.988
v 1.957 -4.255 1.476
v 3.094 -4.255 1.487
v 1.957 -4.255 1.476
v 3.094 -4.255 2.988
v 1.930 -4.255 2.988
v 1.957 -4.255 1.476
v 1.930 -4.255 2.988
v 1.863 -4.255 1.551
v 1.957 -4.255 1.476
v 1.887 -4.255 0.000
v 3.094 -4.255 -0.000
v 3.094 -4.255 -0.000
v 3.094 -4.255 1.487
v 1.957 -4.255 1.476
v -0.769 4.189 1.511
v -0.769 4.189 2.568
v 0.758 4.189 2.568
v 0.758 4.189 2.568
v 0.758 4.189 1.511
v -0.769 4.189 1.511
v 0.758 4.189 1.511
v 0.758 4.189 0.450
v -0.769 4.189 0.450
v -0.769 4.189 0.450
v -0.769 4.189 1.511
v 0.758 4.189 1.511
v -1.297 4.189 1.507
v -2.884 4.189 2.568
v -1.297 4.189 2.568
v -2.884 4.189 2.568
v -1.297 4.189 1.507
v -2.884 4.189 1.506
v -2.884 4.189 1.506
v -1.297 4.189 0.450
v -2.884 4.189 0.450
v -1.297 4.189 0.450
v -2.884 4.189 1.506
v -1.297 4.189 1.507
v -1.616 -4.255 1.003
v -1.616 -2.891 0.000
v -1.616 -4.255 0.000
v -1.616 -2.891 0.000
v -1.616 -4.255 1.003
v -1.616 -2.891 1.006
v -1.616 -2.891 1.006
v -1.616 -4.255 2.002
v -1.616 -2.891 2.001
v -1.616 -4.255 2.002
v -1.616 -2.891 1.006
v -1.616 -4.255 1.003
v -1.616 -4.255 2.002
v -1.616 -4.255 2.988
v -1.616 -2.891 2.988
v -1.616 -2.891 2.988
v -1.616 -2.891 2.001
v -1.616 -4.255 2.002
v 0.757 4.082 0.150
v -0.763 4.082 0.595
v -0.763 4.082 0.150
v -0.763 4.082 0.595
v 0.757 4.082 0.150
v 0.757 4.082 0.595
v 2.787 4.082 0.150
v 1.267 4.082 0.595
v 1.267 4.082 0.150
v 1.267 4.082 0.595
v 2.787 4.082 0.150
v 2.787 4.082 0.595
v 3.094 -4.255 0.000
v 3.094 -3.695 2.988
v 3.094 -4.255 2.988
v 3.094 -3.695 2.988
v 3.094 -4.255 0.000
v 3.094 -3.695 0.000
v 2.804 4.189 0.450
v 2.804 4.189 2.168
v 3.155 4.189 2.416
v 2.804 4.189 0.450
v 1.957 4.189 -0.000
v 1.880 4.189 0.450
v 2.804 4.189 0.450
v 3.155 4.189 2.416
v 3.155 4.189 0.000
v 1.957 4.189 -0.000
v 2.804 4.189 0.450
v 3.155 4.189 0.000
v 1.261 4.189 2.568
v 1.261 4.189 1.543
v 0.758 4.189 1.703
v 0.758 4.189 2.568
v 0.142 4.189 2.568
v 0.137 4.189 2.988
v 2.804 4.189 2.568
v 3.155 4.189 2.416
v 2.804 4.189 2.168
v 1.261 4.189 2.568
v 0.758 4.189 1.703
v 0.758 4.189 2.568
v 1.261 4.189 2.568
v 0.137 4.189 2.988
v 3.155 4.189 2.988
v 3.155 4.189 2.416
v 2.804 4.189 2.568
v 3.155 4.189 2.988
v 0.137 4.189 2.988
v 1.261 4.189 2.568
v 0.758 4.189 2.568
v 1.261 4.189 2.568
v 3.155 4.189 2.988
v 2.804 4.189 2.568
v 0.758 4.189 0.450
v 0.758 4.189 1.703
v 1.261 4.189 1.543
v 1.261 4.189 0.450
v 1.880 4.189 0.450
v 1.957 4.189 -0.000
v 0.758 4.189 0.450
v -0.235 4.189 -0.000
v -0.248 4.189 0.450
v 0.758 4.189 0.450
v 1.261 4.189 1.543
v 1.261 4.189 0.450
v 0.758 4.189 0.450
v 1.957 4.189 -0.000
v -0.235 4.189 -0.000
v 1.957 4.189 -0.000
v 0.758 4.189 0.450
v 1.261 4.189 0.450
v -0.769 4.189 0.450
v -0.248 4.189 0.450
v -0.235 4.189 -0.000
v -1.297 4.189 0.450
v -2.884 4.189 -0.000
v -2.884 4.189 0.450
v -1.297 4.189 0.450
v -1.297 4.189 1.499
v -0.769 4.189 1.466
v -1.297 4.189 0.450
v -0.235 4.189 -0.000
v -2.884 4.189 -0.000
v -1.297 4.189 0.450
v -0.769 4.189 1.466
v -0.769 4.189 0.450
v -0.235 4.189 -0.000
v -1.297 4.189 0.450
v -0.769 4.189 0.450
v -0.769 4.189 2.568
v -0.769 4.189 1.466
v -1.297 4.189 1.499
v -1.297 4.189 2.568
v -2.884 4.189 2.568
v -2.884 4.189 2.988
v -0.769 4.189 2.568
v 0.137 4.189 2.988
v 0.142 4.189 2.568
v -0.769 4.189 2.568
v -1.297 4.189 1.499
v -1.297 4.189 2.568
v 0.137 4.189 2.988
v -1.297 4.189 2.568
v -2.884 4.189 2.988
v 0.137 4.189 2.988
v -0.769 4.189 2.568
v -1.297 4.189 2.568
v 1.375 -3.301 0.000
v 2.500 -2.975 0.000
v 2.489 -3.695 0.000
v 2.489 -3.695 0.000
v 3.094 -3.695 0.000
v 3.094 -4.255 0.000
v 2.489 -3.695 0.000
v 1.205 -4.255 0.000
v 1.375 -3.301 0.000
v 1.205 -4.255 0.000
v 2.489 -3.695 0.000
v 3.094 -4.255 0.000
v 1.375 -3.301 0.000
v -0.142 -4.255 0.000
v -0.224 -2.996 0.000
v -0.224 -2.996 0.000
v 0.176 -2.608 0.000
v 0.843 -2.634 0.000
v -0.142 -4.255 0.000
v 1.375 -3.301 0.000
v 1.205 -4.255 0.000
v 1.375 -3.301 0.000
v -0.224 -2.996 0.000
v 0.843 -2.634 0.000
v 0.843 -2.634 0.000
v 0.176 -2.608 0.000
v -0.236 -1.442 0.000
v 1.483 -1.684 0.000
v 0.093 -0.996 0.000
v 1.320 -1.147 0.000
v -0.236 -1.442 0.000
v 1.483 -1.684 0.000
v 0.843 -2.634 0.000
v 0.093 -0.996 0.000
v 1.483 -1.684 0.000
v -0.236 -1.442 0.000
v 1.375 -3.301 0.000
v 2.513 -2.105 0.000
v 2.500 -2.975 0.000
v 1.483 -1.684 0.000
v 1.375 -3.301 0.000
v 0.843 -2.634 0.000
v 2.513 -2.105 0.000
v 1.375 -3.301 0.000
v 1.483 -1.684 0.000
v 2.519 -1.695 0.000
v 1.320 -1.147 0.000
v 1.639 -0.614 0.000
v 2.519 -1.695 0.000
v 3.136 -0.751 0.000
v 3.132 -1.695 0.000
v 2.519 -1.695 0.000
v 2.513 -2.105 0.000
v 1.483 -1.684 0.000
v 3.136 -0.751 0.000
v 2.519 -1.695 0.000
v 1.639 -0.614 0.000
v 1.320 -1.147 0.000
v 2.519 -1.695 0.000
v 1.483 -1.684 0.000
v 3.140 0.430 0.000
v 1.795 1.582 0.000
v 3.146 1.941 0.000
v 1.795 1.582 0.000
v 3.140 0.430 0.000
v 1.893 0.609 0.000
v 1.639 -0.614 0.000
v -0.101 -0.136 0.000
v 0.451 0.454 0.000
v 1.639 -0.614 0.000
v 0.451 0.454 0.000
v 1.496 0.170 0.000
v 0.093 -0.996 0.000
v 1.639 -0.614 0.000
v 1.320 -1.147 0.000
v -0.101 -0.136 0.000
v 1.639 -0.614 0.000
v 0.093 -0.996 0.000
v 1.639 -0.614 0.000
v 1.496 0.170 0.000
v 1.893 0.609 0.000
v 1.639 -0.614 0.000
v 3.140 0.430 0.000
v 3.136 -0.751 0.000
v 3.140 0.430 0.000
v 1.639 -0.614 0.000
v 1.893 0.609 0.000
v 1.795 1.582 0.000
v 0.451 0.454 0.000
v 0.293 1.319 0.000
v 0.293 1.319 0.000
v 1.396 1.905 0.000
v 1.795 1.582 0.000
v 0.451 0.454 0.000
v 1.893 0.609 0.000
v 1.496 0.170 0.000
v 1.893 0.609 0.000
v 0.451 0.454 0.000
v 1.795 1.582 0.000
v 1.795 1.582 0.000
v 1.396 1.905 0.000
v 1.343 2.645 0.000
v 3.146 1.941 0.000
v 1.739 3.060 0.000
v 3.150 2.787 0.000
v 1.739 3.060 0.000
v 3.146 1.941 0.000
v 1.795 1.582 0.000
v 1.739 3.060 0.000
v 1.795 1.582 0.000
v 1.343 2.645 0.000
v 1.739 3.060 0.000
v 1.705 4.189 0.000
v 3.155 4.189 0.000
v 3.155 4.189 0.000
v 3.150 2.787 0.000
v 1.739 3.060 0.000
v -1.616 -4.255 0.000
v -0.224 -2.996 0.000
v -0.142 -4.255 0.000
v -0.224 -2.996 0.000
v -1.616 -4.255 0.000
v -1.616 -2.943 0.000
v -0.224 -2.996 0.000
v -1.616 -2.943 0.000
v -1.444 -2.793 0.000
v -0.236 -1.442 0.000
v -1.444 -2.793 0.000
v -1.391 -1.519 0.000
v -0.224 -2.996 0.000
v -0.236 -1.442 0.000
v 0.176 -2.608 0.000
v -1.444 -2.793 0.000
v -0.236 -1.442 0.000
v -0.224 -2.996 0.000
v -0.101 -0.136 0.000
v -1.202 0.158 0.000
v -1.235 1.173 0.000
v 0.451 0.454 0.000
v -0.168 1.604 0.000
v 0.293 1.319 0.000
v -0.168 1.604 0.000
v 0.451 0.454 0.000
v -0.101 -0.136 0.000
v -0.168 1.604 0.000
v -0.101 -0.136 0.000
v -1.235 1.173 0.000
v -0.236 -1.442 0.000
v -1.391 -1.519 0.000
v -1.502 -1.414 0.000
v -0.101 -0.136 0.000
v -1.500 -0.108 0.000
v -1.202 0.158 0.000
v -0.236 -1.442 0.000
v -0.101 -0.136 0.000
v 0.093 -0.996 0.000
v -1.500 -0.108 0.000
v -0.236 -1.442 0.000
v -1.502 -1.414 0.000
v -0.101 -0.136 0.000
v -0.236 -1.442 0.000
v -1.500 -0.108 0.000
v 1.739 3.060 0.000
v 1.343 2.645 0.000
v 0.220 3.052 0.000
v 0.220 3.052 0.000
v 0.212 4.189 0.000
v 1.705 4.189 0.000
v 1.705 4.189 0.000
v 1.739 3.060 0.000
v 0.220 3.052 0.000
v -1.616 -2.891 0.000
v -1.391 -1.519 0.000
v -1.444 -2.793 0.000
v -1.444 -2.793 0.000
v -1.616 -2.943 0.000
v -1.616 -2.891 0.000
v -1.616 -2.891 0.000
v -2.884 -2.891 0.000
v -2.884 -1.477 0.000
v -1.391 -1.519 0.000
v -1.616 -2.891 0.000
v -1.502 -1.414 0.000
v -1.502 -1.414 0.000
v -1.616 -2.891 0.000
v -2.884 -1.477 0.000
v 0.220 3.052 0.000
v -0.262 2.653 0.000
v -1.325 2.948 0.000
v 0.220 3.052 0.000
v -1.329 4.189 0.000
v 0.212 4.189 0.000
v -1.329 4.189 0.000
v 0.220 3.052 0.000
v -1.325 2.948 0.000
v -0.262 2.653 0.000
v 0.293 1.319 0.000
v -0.168 1.604 0.000
v 0.293 1.319 0.000
v -0.262 2.653 0.000
v 0.220 3.052 0.000
v 0.220 3.052 0.000
v 1.343 2.645 0.000
v 1.396 1.905 0.000
v 0.293 1.319 0.000
v 0.220 3.052 0.000
v 1.396 1.905 0.000
v -1.612 1.465 0.000
v -2.884 0.065 0.000
v -2.884 1.256 0.000
v -1.500 -0.108 0.000
v -1.612 1.465 0.000
v -1.235 1.173 0.000
v -1.235 1.173 0.000
v -1.202 0.158 0.000
v -1.500 -0.108 0.000
v -2.884 0.065 0.000
v -1.612 1.465 0.000
v -1.500 -0.108 0.000
v -0.262 2.653 0.000
v -1.612 1.465 0.000
v -1.607 2.719 0.000
v -1.607 2.719 0.000
v -1.325 2.948 0.000
v -0.262 2.653 0.000
v -1.612 1.465 0.000
v -0.168 1.604 0.000
v -1.235 1.173 0.000
v -0.168 1.604 0.000
v -1.612 1.465 0.000
v -0.262 2.653 0.000
v -1.500 -0.108 0.000
v -1.502 -1.414 0.000
v -2.884 -1.477 0.000
v -2.884 -1.477 0.000
v -2.884 0.065 0.000
v -1.500 -0.108 0.000
v -2.884 4.189 0.000
v -1.607 2.719 0.000
v -2.884 2.874 0.000
v -1.607 2.719 0.000
v -2.884 4.189 0.000
v -1.329 4.189 0.000
v -1.607 2.719 0.000
v -1.329 4.189 0.000
v -1.325 2.948 0.000
v -2.884 2.874 0.000
v -1.612 1.465 0.000
v -2.884 1.256 0.000
v -1.612 1.465 0.000
v -2.884 2.874 0.000
v -1.607 2.719 0.000
v 3.155 4.189 2.988
v 3.150 2.811 1.474
v 3.155 4.189 1.525
v 3.150 2.811 1.474
v 3.155 4.189 2.988
v 3.149 2.731 2.988
v 3.150 2.811 1.474
v 3.149 2.731 2.988
v 3.149 2.727 1.549
v 3.144 1.277 1.547
v 3.144 1.397 1.440
v 3.149 2.727 1.549
v 3.149 2.727 1.549
v 3.149 2.731 2.988
v 3.144 1.283 2.988
v 3.144 1.283 2.988
v 3.144 1.277 1.547
v 3.149 2.727 1.549
v 3.150 2.811 1.474
v 3.150 2.825 -0.000
v 3.155 4.189 -0.000
v 3.155 4.189 -0.000
v 3.155 4.189 1.525
v 3.150 2.811 1.474
v 3.138 -0.248 2.060
v 3.138 -0.102 2.988
v 3.132 -1.695 2.988
v 3.132 -1.695 2.988
v 3.132 -1.695 1.885
v 3.138 -0.248 2.060
v 3.150 2.811 1.474
v 3.149 2.727 1.549
v 3.144 1.397 1.440
v 3.144 1.397 1.440
v 3.144 1.398 -0.000
v 3.150 2.825 -0.000
v 3.150 2.825 -0.000
v 3.150 2.811 1.474
v 3.144 1.397 1.440
v 3.138 -0.248 2.060
v 3.139 0.087 1.457
v 3.144 1.277 1.547
v 3.138 -0.248 2.060
v 3.144 1.283 2.988
v 3.138 -0.102 2.988
v 3.144 1.283 2.988
v 3.138 -0.248 2.060
v 3.144 1.277 1.547
v 3.138 -0.170 0.927
v 3.132 -1.695 1.041
v 3.132 -1.695 -0.000
v 3.132 -1.695 -0.000
v 3.139 -0.018 -0.000
v 3.138 -0.170 0.927
v 3.138 -0.170 0.927
v 3.144 1.277 1.547
v 3.139 0.087 1.457
v 3.144 1.398 -0.000
v 3.138 -0.170 0.927
v 3.139 -0.018 -0.000
v 3.138 -0.170 0.927
v 3.144 1.398 -0.000
v 3.144 1.397 1.440
v 3.144 1.277 1.547
v 3.138 -0.170 0.927
v 3.144 1.397 1.440
v 3.138 -0.248 2.060
v 3.132 -1.695 1.885
v 3.132 -1.695 1.041
v 3.138 -0.248 2.060
v 3.138 -0.170 0.927
v 3.139 0.087 1.457
v 3.138 -0.170 0.927
v 3.138 -0.248 2.060
v 3.132 -1.695 1.041
v -2.884 4.189 0.000
v -2.884 3.458 1.495
v -2.884 4.189 1.485
v -2.884 2.636 0.659
v -2.884 4.189 0.000
v -2.884 2.637 -0.000
v -2.884 4.189 0.000
v -2.884 2.636 0.659
v -2.884 3.458 1.495
v -2.884 3.458 1.495
v -2.884 1.777 1.516
v -2.884 2.665 2.375
v -2.884 1.777 1.516
v -2.884 3.458 1.495
v -2.884 2.636 0.659
v -2.884 4.189 2.988
v -2.884 2.665 2.375
v -2.884 2.682 2.988
v -2.884 3.458 1.495
v -2.884 4.189 2.988
v -2.884 4.189 1.485
v -2.884 4.189 2.988
v -2.884 3.458 1.495
v -2.884 2.665 2.375
v -2.884 1.127 1.426
v -2.884 1.247 1.526
v -2.884 1.777 1.516
v -2.884 1.058 -0.000
v -2.884 2.636 0.659
v -2.884 2.637 -0.000
v -2.884 1.777 1.516
v -2.884 1.058 -0.000
v -2.884 1.127 1.426
v -2.884 1.058 -0.000
v -2.884 1.777 1.516
v -2.884 2.636 0.659
v -2.884 1.055 2.988
v -2.884 1.777 1.516
v -2.884 1.247 1.526
v -2.884 2.665 2.375
v -2.884 1.055 2.988
v -2.884 2.682 2.988
v -2.884 1.777 1.516
v -2.884 1.055 2.988
v -2.884 2.665 2.375
v -2.884 1.058 -0.000
v -2.884 -0.223 1.498
v -2.884 1.127 1.426
v -2.884 -0.238 1.486
v -2.884 1.058 -0.000
v -2.884 -0.283 -0.000
v -2.884 1.058 -0.000
v -2.884 -0.238 1.486
v -2.884 -0.223 1.498
v -2.884 -1.601 1.474
v -2.884 -1.565 -0.000
v -2.884 -2.891 -0.000
v -2.884 -2.891 -0.000
v -2.884 -2.891 1.498
v -2.884 -1.601 1.474
v -2.884 1.055 2.988
v -2.884 -0.223 1.498
v -2.884 -0.142 2.988
v -2.884 1.127 1.426
v -2.884 1.055 2.988
v -2.884 1.247 1.526
v -2.884 -0.223 1.498
v -2.884 1.055 2.988
v -2.884 1.127 1.426
v -2.884 -1.601 1.474
v -2.884 -1.515 1.550
v -2.884 -0.238 1.486
v -2.884 -1.601 1.474
v -2.884 -0.283 -0.000
v -2.884 -1.565 -0.000
v -2.884 -0.283 -0.000
v -2.884 -1.601 1.474
v -2.884 -0.238 1.486
v -2.884 -0.223 1.498
v -2.884 -0.238 1.486
v -2.884 -1.515 1.550
v -2.884 -1.515 1.550
v -2.884 -1.551 2.988
v -2.884 -0.142 2.988
v -2.884 -0.142 2.988
v -2.884 -0.223 1.498
v -2.884 -1.515 1.550
v -2.884 -2.891 2.988
v -2.884 -1.601 1.474
v -2.884 -2.891 1.498
v -2.884 -1.601 1.474
v -2.884 -2.891 2.988
v -2.884 -1.551 2.988
v -2.884 -1.601 1.474
v -2.884 -1.551 2.988
v -2.884 -1.515 1.550
v -1.616 -2.891 1.492
v -1.616 -2.891 2.988
v -2.884 -2.891 2.988
v -2.884 -2.891 2.988
v -2.884 -2.891 1.492
v -1.616 -2.891 1.492
v -2.884 -2.891 1.492
v -2.884 -2.891 -0.000
v -1.616 -2.891 -0.000
v -1.616 -2.891 -0.000
v -1.616 -2.891 1.492
v -2.884 -2.891 1.492
v -2.884 4.189 2.988
v -1.262 3.190 2.988
v -1.296 4.189 2.988
v -1.700 2.730 2.988
v -2.884 4.189 2.988
v -2.884 2.839 2.988
v -2.884 4.189 2.988
v -1.700 2.730 2.988
v -1.262 3.190 2.988
v -1.262 3.190 2.988
v -0.048 2.725 2.988
v 0.267 2.966 2.988
v -1.262 3.190 2.988
v 0.322 4.189 2.988
v -1.296 4.189 2.988
v 0.322 4.189 2.988
v -1.262 3.190 2.988
v 0.267 2.966 2.988
v 1.399 2.654 2.988
v -0.189 1.847 2.988
v 0.257 1.312 2.988
v 0.257 1.312 2.988
v 1.441 1.511 2.988
v 1.544 1.705 2.988
v -0.189 1.847 2.988
v 1.399 2.654 2.988
v 0.267 2.966 2.988
v -0.189 1.847 2.988
v 0.267 2.966 2.988
v -0.048 2.725 2.988
v 1.399 2.654 2.988
v 0.257 1.312 2.988
v 1.544 1.705 2.988
v -0.189 1.847 2.988
v -1.700 2.730 2.988
v -1.410 1.572 2.988
v -1.262 3.190 2.988
v -0.189 1.847 2.988
v -0.048 2.725 2.988
v -0.189 1.847 2.988
v -1.262 3.190 2.988
v -1.700 2.730 2.988
v 0.267 2.966 2.988
v 1.399 2.654 2.988
v 1.780 3.072 2.988
v 1.780 3.072 2.988
v 1.719 4.189 2.988
v 0.322 4.189 2.988
v 0.322 4.189 2.988
v 0.267 2.966 2.988
v 1.780 3.072 2.988
v 1.780 3.072 2.988
v 3.150 2.834 2.988
v 3.155 4.189 2.988
v 3.155 4.189 2.988
v 1.719 4.189 2.988
v 1.780 3.072 2.988
v -2.884 1.271 2.988
v -1.410 1.572 2.988
v -1.700 2.730 2.988
v -1.700 2.730 2.988
v -2.884 2.839 2.988
v -2.884 1.271 2.988
v -1.410 1.572 2.988
v -2.884 1.271 2.988
v -1.510 1.405 2.988
v -1.410 1.572 2.988
v -1.510 1.405 2.988
v -1.205 0.334 2.988
v -0.189 1.847 2.988
v 0.019 0.386 2.988
v 0.257 1.312 2.988
v -1.205 0.334 2.988
v -0.189 1.847 2.988
v -1.410 1.572 2.988
v 0.019 0.386 2.988
v -0.189 1.847 2.988
v -1.205 0.334 2.988
v -2.884 1.271 2.988
v -1.205 0.334 2.988
v -1.510 1.405 2.988
v -1.464 -0.072 2.988
v -2.884 1.271 2.988
v -2.884 -0.008 2.988
v -1.205 0.334 2.988
v -2.884 1.271 2.988
v -1.464 -0.072 2.988
v 1.544 1.705 2.988
v 1.441 1.511 2.988
v 1.761 0.608 2.988
v 1.761 0.608 2.988
v 3.141 0.573 2.988
v 3.146 1.870 2.988
v 3.146 1.870 2.988
v 1.544 1.705 2.988
v 1.761 0.608 2.988
v 1.780 3.072 2.988
v 1.544 1.705 2.988
v 3.146 1.870 2.988
v 3.146 1.870 2.988
v 3.150 2.834 2.988
v 1.780 3.072 2.988
v 1.544 1.705 2.988
v 1.780 3.072 2.988
v 1.399 2.654 2.988
v 1.761 0.608 2.988
v 0.346 -0.077 2.988
v 1.438 -0.068 2.988
v 0.257 1.312 2.988
v 1.761 0.608 2.988
v 1.441 1.511 2.988
v 1.761 0.608 2.988
v 0.257 1.312 2.988
v 0.019 0.386 2.988
v 0.346 -0.077 2.988
v 1.761 0.608 2.988
v 0.019 0.386 2.988
v -1.800 -1.485 2.988
v -1.271 -0.885 2.988
v -1.464 -0.072 2.988
v -1.800 -1.485 2.988
v -2.884 -0.008 2.988
v -2.884 -1.437 2.988
v -2.884 -0.008 2.988
v -1.800 -1.485 2.988
v -1.464 -0.072 2.988
v 2.519 -1.695 2.988
v 1.525 -1.483 2.988
v 2.513 -2.101 2.988
v 2.519 -1.695 2.988
v 3.132 -1.695 2.988
v 3.136 -0.599 2.988
v 1.525 -1.483 2.988
v 2.519 -1.695 2.988
v 1.751 -0.632 2.988
v 2.519 -1.695 2.988
v 3.136 -0.599 2.988
v 1.751 -0.632 2.988
v 1.761 0.608 2.988
v 1.438 -0.068 2.988
v 1.751 -0.632 2.988
v 1.761 0.608 2.988
v 3.136 -0.599 2.988
v 3.141 0.573 2.988
v 3.136 -0.599 2.988
v 1.761 0.608 2.988
v 1.751 -0.632 2.988
v -1.205 0.334 2.988
v -1.464 -0.072 2.988
v -1.271 -0.885 2.988
v 0.346 -0.077 2.988
v -0.174 -1.238 2.988
v -0.011 -1.168 2.988
v -1.271 -0.885 2.988
v 0.346 -0.077 2.988
v 0.019 0.386 2.988
v 0.019 0.386 2.988
v -1.205 0.334 2.988
v -1.271 -0.885 2.988
v 0.346 -0.077 2.988
v -1.271 -0.885 2.988
v -0.174 -1.238 2.988
v 1.751 -0.632 2.988
v 1.026 -1.723 2.988
v 1.525 -1.483 2.988
v 0.346 -0.077 2.988
v 1.751 -0.632 2.988
v 1.438 -0.068 2.988
v 1.026 -1.723 2.988
v 0.346 -0.077 2.988
v -0.011 -1.168 2.988
v 1.751 -0.632 2.988
v 0.346 -0.077 2.988
v 1.026 -1.723 2.988
v -2.884 -2.891 2.988
v -1.800 -1.485 2.988
v -2.884 -1.437 2.988
v -1.800 -1.485 2.988
v -2.884 -2.891 2.988
v -1.617 -2.891 2.988
v -1.800 -1.485 2.988
v -1.617 -2.891 2.988
v -1.366 -2.624 2.988
v 0.855 -2.733 2.988
v -0.596 -2.578 2.988
v -0.121 -2.976 2.988
v -0.596 -2.578 2.988
v 0.855 -2.733 2.988
v 1.026 -1.723 2.988
v 1.026 -1.723 2.988
v -0.011 -1.168 2.988
v -0.174 -1.238 2.988
v -0.596 -2.578 2.988
v 1.026 -1.723 2.988
v -0.174 -1.238 2.988
v -0.596 -2.578 2.988
v -1.800 -1.485 2.988
v -1.366 -2.624 2.988
v -1.800 -1.485 2.988
v -0.596 -2.578 2.988
v -0.174 -1.238 2.988
v -1.800 -1.485 2.988
v -0.174 -1.238 2.988
v -1.271 -0.885 2.988
v 1.377 -3.207 2.988
v 0.855 -2.733 2.988
v -0.121 -2.976 2.988
v -0.121 -2.976 2.988
v -0.221 -4.255 2.988
v 1.283 -4.255 2.988
v 1.283 -4.255 2.988
v 1.377 -3.207 2.988
v -0.121 -2.976 2.988
v -1.616 -2.891 2.988
v -0.596 -2.578 2.988
v -1.366 -2.624 2.988
v -1.616 -2.891 2.988
v -1.616 -4.255 2.988
v -0.221 -4.255 2.988
v -0.596 -2.578 2.988
v -1.616 -2.891 2.988
v -0.121 -2.976 2.988
v -0.121 -2.976 2.988
v -1.616 -2.891 2.988
v -0.221 -4.255 2.988
v 2.513 -2.101 2.988
v 0.855 -2.733 2.988
v 1.377 -3.207 2.988
v 1.377 -3.207 2.988
v 2.502 -2.833 2.988
v 2.513 -2.101 2.988
v 0.855 -2.733 2.988
v 1.525 -1.483 2.988
v 1.026 -1.723 2.988
v 1.525 -1.483 2.988
v 0.855 -2.733 2.988
v 2.513 -2.101 2.988
v 2.489 -3.695 2.988
v 1.283 -4.255 2.988
v 3.094 -4.255 2.988
v 3.094 -4.255 2.988
v 3.094 -3.695 2.988
v 2.489 -3.695 2.988
v 2.489 -3.695 2.988
v 2.502 -2.833 2.988
v 1.377 -3.207 2.988
v 1.283 -4.255 2.988
v 2.489 -3.695 2.988
v 1.377 -3.207 2.988
v -2.823 4.082 0.150
v -2.823 4.082 0.595
v -1.303 4.082 0.595
v -1.303 4.082 0.595
v -1.303 4.082 0.150
v -2.823 4.082 0.150
v -0.763 4.082 0.150
v -0.763 4.082 0.595
v 0.757 4.082 0.595
v 0.757 4.082 0.595
v 0.757 4.082 0.150
v -0.763 4.082 0.150
v 1.267 4.082 0.150
v 1.267 4.082 0.595
v 2.787 4.082 0.595
v 2.787 4.082 0.595
v 2.787 4.082 0.150
v 1.267 4.082 0.150

usemtl Patch_1_Mat_CR2_concrete
f 3 2 1
f 6 5 4

usemtl Patch_2_Mat_CR2_windows
f 9 8 7
f 12 11 10

usemtl Patch_3_Mat_CR2_windows
f 15 14 13
f 18 17 16

usemtl Patch_4_Mat_CR2_concrete
f 21 20 19
f 24 23 22

usemtl Patch_5_Mat_CR2_concrete
f 27 26 25
f 30 29 28
f 33 32 31

usemtl Patch_6_Mat_CR2_concrete
f 36 35 34
f 39 38 37

usemtl Patch_7_Mat_CR2_concrete
f 42 41 40
f 45 44 43

usemtl Patch_8_Mat_CR2_concrete
f 48 47 46
f 51 50 49

usemtl Patch_9_Mat_CR2_plaster
f 54 53 52
f 57 56 55

usemtl Patch_10_Mat_CR2_plaster
f 60 59 58
f 63 62 61

usemtl Patch_11_Mat_CR2_plaster
f 66 65 64
f 69 68 67
f 72 71 70

usemtl Patch_12_Mat_CR2_plaster
f 75 74 73
f 78 77 76

usemtl Patch_13_Mat_CR2_plaster
f 81 80 79
f 84 83 82
f 87 86 85
f 90 89 88

usemtl Patch_14_Mat_CR2_plaster
f 93 92 91
f 96 95 94
f 99 98 97
f 102 101 100

usemtl Patch_15_Mat_CR2_plaster
f 105 104 103
f 108 107 106
f 111 110 109

usemtl Patch_16_Mat_CR2_plaster
f 114 113 112
f 117 116 115

usemtl Patch_17_Mat_CR2_windows
f 120 119 118
f 123 122 121

usemtl Patch_18_Mat_CR2_windows
f 126 125 124
f 129 128 127

usemtl Patch_19_Mat_CR2_windows
f 132 131 130
f 135 134 133

usemtl Patch_20_Mat_CR2_windows
f 138 137 136
f 141 140 139

usemtl Patch_21_Mat_CR2_concrete
f 144 143 142
f 147 146 145

usemtl Patch_22_Mat_CR2_concrete
f 150 149 148
f 153 152 151

usemtl Patch_23_Mat_CR2_concrete
f 156 155 154
f 159 158 157

usemtl Patch_24_Mat_CR2_concrete
f 162 161 160
f 165 164 163

usemtl Patch_25_Mat_CR2_concrete
f 168 167 166
f 171 170 169

usemtl Patch_26_Mat_CR2_concrete
f 174 173 172
f 177 176 175

usemtl Patch_27_Mat_CR2_concrete
f 180 179 178
f 183 182 181
f 186 185 184
f 189 188 187

usemtl Patch_28_Mat_CR2_concrete
f 192 191 190
f 195 194 193
f 198 197 196
f 201 200 199
f 204 203 202
f 207 206 205
f 210 209 208
f 213 212 211

usemtl Patch_29_Mat_CR2_concrete
f 216 215 214
f 219 218 217
f 222 221 220
f 225 224 223
f 228 227 226
f 231 230 229

usemtl Patch_30_Mat_CR2_concrete
f 234 233 232
f 237 236 235
f 240 239 238
f 243 242 241
f 246 245 244
f 249 248 247

usemtl Patch_31_Mat_CR2_concrete
f 252 251 250
f 255 254 253
f 258 257 256
f 261 260 259
f 264 263 262
f 267 266 265

usemtl Patch_32_Mat_CR2_floor
f 270 269 268
f 273 272 271
f 276 275 274
f 279 278 277

usemtl Patch_33_Mat_CR2_floor
f 282 281 280
f 285 284 283
f 288 287 286
f 291 290 289

usemtl Patch_34_Mat_CR2_floor
f 294 293 292
f 297 296 295
f 300 299 298
f 303 302 301

usemtl Patch_35_Mat_CR2_floor
f 306 305 304
f 309 308 307
f 312 311 310

usemtl Patch_36_Mat_CR2_floor
f 315 314 313
f 318 317 316
f 321 320 319
f 324 323 322
f 327 326 325

usemtl Patch_37_Mat_CR2_floor
f 330 329 328
f 333 332 331

usemtl Patch_38_Mat_CR2_floor
f 336 335 334
f 339 338 337
f 342 341 340
f 345 344 343

usemtl Patch_39_Mat_CR2_floor
f 348 347 346
f 351 350 349
f 354 353 352

usemtl Patch_40_Mat_CR2_floor
f 357 356 355
f 360 359 358
f 363 362 361
f 366 365 364

usemtl Patch_41_Mat_CR2_floor
f 369 368 367
f 372 371 370
f 375 374 373
f 378 377 376

usemtl Patch_42_Mat_CR2_floor
f 381 380 379
f 384 383 382

usemtl Patch_43_Mat_CR2_floor
f 387 386 385
f 390 389 388
f 393 392 391

usemtl Patch_44_Mat_CR2_floor
f 396 395 394
f 399 398 397
f 402 401 400

usemtl Patch_45_Mat_CR2_floor
f 405 404 403
f 408 407 406
f 411 410 409
f 414 413 412

usemtl Patch_46_Mat_CR2_floor
f 417 416 415
f 420 419 418
f 423 422 421
f 426 425 424
f 429 428 427

usemtl Patch_47_Mat_CR2_floor
f 432 431 430
f 435 434 433
f 438 437 436

usemtl Patch_48_Mat_CR2_floor
f 441 440 439
f 444 443 442
f 447 446 445
f 450 449 448
f 453 452 451

usemtl Patch_49_Mat_CR2_floor
f 456 455 454
f 459 458 457
f 462 461 460

usemtl Patch_50_Mat_CR2_floor
f 465 464 463
f 468 467 466
f 471 470 469
f 474 473 472

usemtl Patch_51_Mat_CR2_floor
f 477 476 475
f 480 479 478
f 483 482 481
f 486 485 484

usemtl Patch_52_Mat_CR2_floor
f 489 488 487
f 492 491 490
f 495 494 493
f 498 497 496

usemtl Patch_53_Mat_CR2_floor
f 501 500 499
f 504 503 502

usemtl Patch_54_Mat_CR2_floor
f 507 506 505
f 510 509 508
f 513 512 511

usemtl Patch_55_Mat_CR2_floor
f 516 515 514
f 519 518 517

usemtl Patch_56_Mat_CR2_concrete
f 522 521 520
f 525 524 523
f 528 527 526

usemtl Patch_57_Mat_CR2_concrete
f 531 530 529
f 534 533 532
f 537 536 535

usemtl Patch_58_Mat_CR2_concrete
f 540 539 538
f 543 542 541

usemtl Patch_59_Mat_CR2_concrete
f 546 545 544
f 549 548 547

usemtl Patch_60_Mat_CR2_concrete
f 552 551 550
f 555 554 553
f 558 557 556

usemtl Patch_61_Mat_CR2_concrete
f 561 560 559
f 564 563 562
f 567 566 565

usemtl Patch_62_Mat_CR2_concrete
f 570 569 568
f 573 572 571

usemtl Patch_63_Mat_CR2_concrete
f 576 575 574
f 579 578 577
f 582 581 580
f 585 584 583

usemtl Patch_64_Mat_CR2_concrete
f 588 587 586
f 591 590 589
f 594 593 592

usemtl Patch_65_Mat_CR2_plaster
f 597 596 595
f 600 599 598
f 603 602 601

usemtl Patch_66_Mat_CR2_plaster
f 606 605 604
f 609 608 607

usemtl Patch_67_Mat_CR2_plaster
f 612 611 610
f 615 614 613
f 618 617 616

usemtl Patch_68_Mat_CR2_plaster
f 621 620 619
f 624 623 622
f 627 626 625
f 630 629 628

usemtl Patch_69_Mat_CR2_plaster
f 633 632 631
f 636 635 634
f 639 638 637

usemtl Patch_70_Mat_CR2_plaster
f 642 641 640
f 645 644 643
f 648 647 646

usemtl Patch_71_Mat_CR2_plaster
f 651 650 649
f 654 653 652

usemtl Patch_72_Mat_CR2_plaster
f 657 656 655
f 660 659 658
f 663 662 661

usemtl Patch_73_Mat_CR2_plaster
f 666 665 664
f 669 668 667
f 672 671 670

usemtl Patch_74_Mat_CR2_plaster
f 675 674 673
f 678 677 676
f 681 680 679

usemtl Patch_75_Mat_CR2_plaster
f 684 683 682
f 687 686 685
f 690 689 688

usemtl Patch_76_Mat_CR2_plaster
f 693 692 691
f 696 695 694

usemtl Patch_77_Mat_CR2_plaster
f 699 698 697
f 702 701 700

usemtl Patch_78_Mat_CR2_ceiling
f 705 704 703
f 708 707 706
f 711 710 709

usemtl Patch_79_Mat_CR2_ceiling
f 714 713 712
f 717 716 715
f 720 719 718

usemtl Patch_80_Mat_CR2_ceiling
f 723 722 721
f 726 725 724
f 729 728 727
f 732 731 730
f 735 734 733

usemtl Patch_81_Mat_CR2_ceiling
f 738 737 736
f 741 740 739
f 744 743 742

usemtl Patch_82_Mat_CR2_ceiling
f 747 746 745
f 750 749 748
f 753 752 751

usemtl Patch_83_Mat_CR2_ceiling
f 756 755 754
f 759 758 757

usemtl Patch_84_Mat_CR2_ceiling
f 762 761 760
f 765 764 763
f 768 767 766

usemtl Patch_85_Mat_CR2_ceiling
f 771 770 769
f 774 773 772
f 777 776 775
f 780 779 778

usemtl Patch_86_Mat_CR2_ceiling
f 783 782 781
f 786 785 784
f 789 788 787

usemtl Patch_87_Mat_CR2_ceiling
f 792 791 790
f 795 794 793
f 798 797 796

usemtl Patch_88_Mat_CR2_ceiling
f 801 800 799
f 804 803 802
f 807 806 805

usemtl Patch_89_Mat_CR2_ceiling
f 810 809 808
f 813 812 811
f 816 815 814
f 819 818 817

usemtl Patch_90_Mat_CR2_ceiling
f 822 821 820
f 825 824 823
f 828 827 826

usemtl Patch_91_Mat_CR2_ceiling
f 831 830 829
f 834 833 832
f 837 836 835
f 840 839 838

usemtl Patch_92_Mat_CR2_ceiling
f 843 842 841
f 846 845 844
f 849 848 847

usemtl Patch_93_Mat_CR2_ceiling
f 852 851 850
f 855 854 853
f 858 857 856
f 861 860 859
f 864 863 862

usemtl Patch_94_Mat_CR2_ceiling
f 867 866 865
f 870 869 868
f 873 872 871
f 876 875 874

usemtl Patch_95_Mat_CR2_ceiling
f 879 878 877
f 882 881 880
f 885 884 883

usemtl Patch_96_Mat_CR2_ceiling
f 888 887 886
f 891 890 889
f 894 893 892
f 897 896 895

usemtl Patch_97_Mat_CR2_ceiling
f 900 899 898
f 903 902 901
f 906 905 904

usemtl Patch_98_Mat_CR2_ceiling
f 909 908 907
f 912 911 910
f 915 914 913

usemtl Patch_99_Mat_CR2_ceiling
f 918 917 916
f 921 920 919
f 924 923 922
f 927 926 925

usemtl Patch_100_Mat_CR2_ceiling
f 930 929 928
f 933 932 931
f 936 935 934
f 939 938 937

usemtl Patch_101_Mat_CR2_ceiling
f 942 941 940
f 945 944 943
f 948 947 946
f 951 950 949

usemtl Patch_102_Mat_CR2_concrete
f 954 953 952
f 957 956 955

usemtl Patch_103_Mat_CR2_concrete
f 960 959 958
f 963 962 961

usemtl Patch_104_Mat_CR2_concrete
f 966 965 964
f 969 968 967

