mtllib mesh.mtl

v 6.102 1.903 2.736
v 4.570 -0.216 2.736
v 6.102 -0.210 2.736
v 4.097 0.349 2.736
v 6.102 1.903 2.736
v 4.453 2.054 2.736
v 4.570 -0.216 2.736
v 6.102 1.903 2.736
v 4.097 0.349 2.736
v 4.570 -0.216 2.736
v 4.019 -1.687 2.736
v 4.475 -2.300 2.736
v 4.570 -0.216 2.736
v 6.102 -2.345 2.736
v 6.102 -0.210 2.736
v 6.102 -2.345 2.736
v 4.570 -0.216 2.736
v 4.475 -2.300 2.736
v 2.584 -1.629 2.736
v 4.097 0.349 2.736
v 2.392 0.277 2.736
v 2.392 0.277 2.736
v 2.303 0.186 2.736
v 2.584 -1.629 2.736
v 4.097 0.349 2.736
v 4.019 -1.687 2.736
v 4.570 -0.216 2.736
v 4.019 -1.687 2.736
v 4.097 0.349 2.736
v 2.584 -1.629 2.736
v 4.019 -1.687 2.736
v 2.584 -1.629 2.736
v 2.217 -2.000 2.736
v 4.475 -2.300 2.736
v 2.599 -3.831 2.736
v 3.931 -3.837 2.736
v 2.217 -2.000 2.736
v 4.475 -2.300 2.736
v 4.019 -1.687 2.736
v 2.599 -3.831 2.736
v 4.475 -2.300 2.736
v 2.217 -2.000 2.736
v 4.475 -2.300 2.736
v 3.931 -3.837 2.736
v 4.347 -4.303 2.736
v 4.475 -2.300 2.736
v 6.102 -4.286 2.736
v 6.102 -2.345 2.736
v 6.102 -4.286 2.736
v 4.475 -2.300 2.736
v 4.347 -4.303 2.736
v 4.347 -4.303 2.736
v 4.069 -6.160 2.736
v 6.102 -6.160 2.736
v 6.102 -6.160 2.736
v 6.102 -4.286 2.736
v 4.347 -4.303 2.736
v 2.386 2.244 2.736
v 4.097 0.349 2.736
v 4.453 2.054 2.736
v 4.097 0.349 2.736
v 2.386 2.244 2.736
v 2.392 0.277 2.736
v 0.571 0.150 2.736
v 2.584 -1.629 2.736
v 2.303 0.186 2.736
v 2.217 -2.000 2.736
v 0.571 0.150 2.736
v 0.571 -1.987 2.736
v 2.584 -1.629 2.736
v 0.571 0.150 2.736
v 2.217 -2.000 2.736
v 0.571 0.499 2.736
v 2.392 0.277 2.736
v 2.386 2.244 2.736
v 2.386 2.244 2.736
v 0.571 2.411 2.736
v 0.571 0.499 2.736
v 0.571 0.499 2.736
v 0.571 0.150 2.736
v 2.303 0.186 2.736
v 2.392 0.277 2.736
v 0.571 0.499 2.736
v 2.303 0.186 2.736
v 3.931 -3.837 2.736
v 2.599 -3.831 2.736
v 2.299 -4.116 2.736
v 4.347 -4.303 2.736
v 2.498 -6.160 2.736
v 4.069 -6.160 2.736
v 2.299 -4.116 2.736
v 4.347 -4.303 2.736
v 3.931 -3.837 2.736
v 2.498 -6.160 2.736
v 4.347 -4.303 2.736
v 2.299 -4.116 2.736
v 2.299 -4.116 2.736
v 0.571 -4.107 2.736
v 0.571 -6.160 2.736
v 0.571 -6.160 2.736
v 2.498 -6.160 2.736
v 2.299 -4.116 2.736
v 2.299 -4.116 2.736
v 2.599 -3.831 2.736
v 2.217 -2.000 2.736
v 2.217 -2.000 2.736
v 0.571 -1.987 2.736
v 0.571 -4.107 2.736
v 0.571 -4.107 2.736
v 2.299 -4.116 2.736
v 2.217 -2.000 2.736
v -4.081 -3.648 1.866
v -4.107 -3.648 2.768
v -6.251 -3.648 2.768
v -6.251 -3.648 2.768
v -6.251 -3.648 1.100
v -4.691 -3.648 1.100
v -4.691 -3.648 1.100
v -4.081 -3.648 1.866
v -6.251 -3.648 2.768
v -2.848 -3.648 1.100
v -4.522 -3.648 1.100
v -4.522 -3.648 0.000
v -2.848 -3.648 1.100
v -2.803 -3.648 -0.000
v -2.803 -3.648 1.072
v -2.803 -3.648 -0.000
v -2.848 -3.648 1.100
v -4.522 -3.648 0.000
v -4.081 -3.648 1.866
v -4.691 -3.648 1.100
v -4.522 -3.648 1.100
v -4.522 -3.648 1.100
v -2.848 -3.648 1.100
v -4.081 -3.648 1.866
v -1.914 -3.648 2.768
v -0.000 -3.648 1.100
v -0.000 -3.648 2.768
v -0.000 -3.648 1.100
v -1.914 -3.648 2.768
v -2.007 -3.648 1.100
v -1.914 -3.648 2.768
v -2.848 -3.648 1.100
v -2.007 -3.648 1.100
v -4.081 -3.648 1.866
v -1.914 -3.648 2.768
v -4.107 -3.648 2.768
v -1.914 -3.648 2.768
v -4.081 -3.648 1.866
v -2.848 -3.648 1.100
v -0.000 2.523 2.768
v -1.286 0.479 2.768
v 0.000 0.600 2.768
v -2.200 1.287 2.768
v -0.000 2.523 2.768
v -2.093 2.714 2.768
v -0.000 2.523 2.768
v -2.200 1.287 2.768
v -1.286 0.479 2.768
v -4.389 0.954 2.768
v -4.125 0.648 2.768
v -3.632 0.532 2.768
v -4.172 2.904 2.768
v -2.200 1.287 2.768
v -2.093 2.714 2.768
v -3.632 0.532 2.768
v -4.172 2.904 2.768
v -4.389 0.954 2.768
v -4.172 2.904 2.768
v -3.632 0.532 2.768
v -2.200 1.287 2.768
v -1.286 0.479 2.768
v -1.988 -1.098 2.768
v -1.362 -1.658 2.768
v -1.286 0.479 2.768
v 0.000 -1.649 2.768
v 0.000 0.600 2.768
v 0.000 -1.649 2.768
v -1.286 0.479 2.768
v -1.362 -1.658 2.768
v -1.362 -1.658 2.768
v -2.705 -1.113 2.768
v -3.375 -1.780 2.768
v -1.362 -1.658 2.768
v -2.744 -3.648 2.768
v -1.880 -3.648 2.768
v -2.705 -1.113 2.768
v -1.362 -1.658 2.768
v -1.988 -1.098 2.768
v -2.744 -3.648 2.768
v -1.362 -1.658 2.768
v -3.375 -1.780 2.768
v -6.251 1.062 2.768
v -4.172 2.904 2.768
v -6.251 3.094 2.768
v -4.172 2.904 2.768
v -6.251 1.062 2.768
v -4.389 0.954 2.768
v -2.200 1.287 2.768
v -3.632 0.532 2.768
v -2.705 -1.113 2.768
v -2.705 -1.113 2.768
v -1.988 -1.098 2.768
v -1.286 0.479 2.768
v -1.286 0.479 2.768
v -2.200 1.287 2.768
v -2.705 -1.113 2.768
v -3.632 0.532 2.768
v -4.458 -1.791 2.768
v -3.375 -1.780 2.768
v -3.632 0.532 2.768
v -3.375 -1.780 2.768
v -2.705 -1.113 2.768
v -5.062 -1.214 2.768
v -3.632 0.532 2.768
v -4.125 0.648 2.768
v -4.458 -1.791 2.768
v -3.632 0.532 2.768
v -5.062 -1.214 2.768
v -5.062 -1.214 2.768
v -4.125 0.648 2.768
v -4.389 0.954 2.768
v -5.062 -1.214 2.768
v -6.251 1.062 2.768
v -6.251 -1.171 2.768
v -6.251 1.062 2.768
v -5.062 -1.214 2.768
v -4.389 0.954 2.768
v -1.362 -1.658 2.768
v -1.880 -3.648 2.768
v 0.000 -3.648 2.768
v 0.000 -3.648 2.768
v 0.000 -1.649 2.768
v -1.362 -1.658 2.768
v -3.375 -1.780 2.768
v -4.458 -1.791 2.768
v -4.945 -3.648 2.768
v -4.945 -3.648 2.768
v -2.744 -3.648 2.768
v -3.375 -1.780 2.768
v -6.251 -3.648 2.768
v -5.062 -1.214 2.768
v -6.251 -1.171 2.768
v -4.458 -1.791 2.768
v -6.251 -3.648 2.768
v -4.945 -3.648 2.768
v -6.251 -3.648 2.768
v -4.458 -1.791 2.768
v -5.062 -1.214 2.768
v -6.251 0.843 1.901
v -6.251 0.861 2.768
v -6.251 3.094 2.768
v -6.251 3.094 2.768
v -6.251 3.094 1.100
v -6.251 2.156 1.100
v -6.251 2.156 1.100
v -6.251 2.156 0.634
v -6.251 0.843 1.901
v -6.251 0.843 1.901
v -6.251 3.094 2.768
v -6.251 2.156 1.100
v -6.251 -0.432 0.736
v -6.251 0.843 1.901
v -6.251 2.156 0.634
v -6.251 2.156 0.634
v -6.251 2.156 0.000
v -6.251 -0.426 0.000
v -6.251 -0.426 0.000
v -6.251 -0.432 0.736
v -6.251 2.156 0.634
v -6.251 0.843 1.901
v -6.251 -0.432 0.736
v -6.251 -1.515 1.826
v -6.251 0.843 1.901
v -6.251 -1.533 2.768
v -6.251 0.861 2.768
v -6.251 -1.533 2.768
v -6.251 0.843 1.901
v -6.251 -1.515 1.826
v -6.251 -3.053 0.656
v -6.251 -0.432 0.736
v -6.251 -0.426 0.000
v -6.251 -0.426 0.000
v -6.251 -3.053 0.000
v -6.251 -3.053 0.656
v -6.251 -0.432 0.736
v -6.251 -3.053 0.656
v -6.251 -1.515 1.826
v -6.251 -1.515 1.826
v -6.251 -3.053 0.656
v -6.251 -3.053 1.100
v -6.251 -3.053 1.100
v -6.251 -3.648 1.100
v -6.251 -3.648 2.768
v -6.251 -3.648 2.768
v -6.251 -1.533 2.768
v -6.251 -1.515 1.826
v -6.251 -1.515 1.826
v -6.251 -3.053 1.100
v -6.251 -3.648 2.768
v -1.677 2.676 1.100
v -2.120 2.716 2.768
v 0.000 2.523 2.768
v 0.000 2.523 2.768
v 0.000 2.523 1.100
v -1.677 2.676 1.100
v -1.677 2.676 1.100
v -1.677 2.676 0.708
v -2.202 2.724 1.513
v -2.120 2.716 2.768
v -1.677 2.676 1.100
v -2.202 2.724 1.513
v -4.190 2.905 1.192
v -2.202 2.724 1.513
v -1.677 2.676 0.708
v -1.677 2.676 0.708
v -1.677 2.676 0.000
v -4.416 2.926 0.000
v -4.416 2.926 0.000
v -4.416 2.926 0.793
v -4.190 2.905 1.192
v -4.190 2.905 1.192
v -1.677 2.676 0.708
v -4.416 2.926 0.000
v -4.190 2.905 1.192
v -4.416 2.926 0.793
v -4.416 2.926 1.100
v -4.416 2.926 1.100
v -6.251 3.093 1.100
v -6.251 3.093 2.768
v -4.416 2.926 1.100
v -4.315 2.917 2.768
v -4.190 2.905 1.192
v -4.315 2.917 2.768
v -4.416 2.926 1.100
v -6.251 3.093 2.768
v -2.202 2.724 1.513
v -4.190 2.905 1.192
v -4.315 2.917 2.768
v -4.315 2.917 2.768
v -2.120 2.716 2.768
v -2.202 2.724 1.513
v 0.000 -2.305 1.100
v 0.000 -3.648 2.768
v 0.000 -3.648 1.100
v 0.000 -3.648 2.768
v 0.000 -2.305 1.100
v 0.000 -2.120 2.768
v 0.000 -1.983 1.100
v 0.000 -1.983 0.000
v 0.000 -1.488 -0.000
v 0.000 -1.488 2.193
v 0.000 -0.148 2.195
v 0.000 -0.092 2.768
v 0.000 -1.488 2.193
v 0.000 -2.305 1.100
v 0.000 -1.983 1.100
v 0.000 -1.983 1.100
v 0.000 -1.488 -0.000
v 0.000 -1.488 2.193
v 0.000 -1.488 2.193
v 0.000 -0.092 2.768
v 0.000 -2.120 2.768
v 0.000 -2.305 1.100
v 0.000 -1.488 2.193
v 0.000 -2.120 2.768
v 0.000 1.598 1.100
v 0.000 -0.012 -0.000
v 0.000 1.598 -0.000
v 0.000 1.598 1.100
v 0.000 2.523 1.100
v 0.000 2.523 2.768
v 0.000 -0.012 2.195
v 0.000 -0.092 2.768
v 0.000 -0.148 2.195
v 0.000 -0.012 -0.000
v 0.000 1.598 1.100
v 0.000 -0.012 2.195
v 0.000 -0.092 2.768
v 0.000 -0.012 2.195
v 0.000 2.523 2.768
v 0.000 -0.012 2.195
v 0.000 1.598 1.100
v 0.000 2.523 2.768
v 4.153 2.082 1.322
v 4.719 2.030 2.736
v 6.102 1.903 2.736
v 4.153 2.082 1.322
v 6.102 1.903 0.050
v 4.600 2.041 0.050
v 6.102 1.903 0.050
v 4.153 2.082 1.322
v 6.102 1.903 2.736
v 1.950 2.284 0.050
v 4.153 2.082 1.322
v 4.600 2.041 0.050
v 4.153 2.082 1.322
v 1.950 2.284 0.050
v 2.515 2.232 1.466
v 2.515 2.232 1.466
v 1.950 2.284 0.050
v 0.571 2.411 0.050
v 2.515 2.232 1.466
v 0.571 2.411 2.736
v 2.067 2.274 2.736
v 0.571 2.411 2.736
v 2.515 2.232 1.466
v 0.571 2.411 0.050
v 4.719 2.030 2.736
v 2.515 2.232 1.466
v 2.067 2.274 2.736
v 2.515 2.232 1.466
v 4.719 2.030 2.736
v 4.153 2.082 1.322
v 6.102 -0.099 1.358
v 6.102 1.903 1.461
v 6.102 1.903 2.736
v 6.102 1.903 2.736
v 6.102 -0.632 2.736
v 6.102 -0.099 1.358
v 6.102 -0.099 1.358
v 6.102 -0.632 2.736
v 6.102 -1.766 2.736
v 6.102 -0.498 0.050
v 6.102 -2.359 1.266
v 6.102 -1.975 0.050
v 6.102 -2.359 1.266
v 6.102 -0.498 0.050
v 6.102 -0.099 1.358
v 6.102 -2.359 1.266
v 6.102 -0.099 1.358
v 6.102 -1.766 2.736
v 6.102 -0.099 1.358
v 6.102 -0.498 0.050
v 6.102 1.903 0.050
v 6.102 1.903 0.050
v 6.102 1.903 1.461
v 6.102 -0.099 1.358
v 6.102 -4.106 1.506
v 6.102 -2.359 1.266
v 6.102 -1.766 2.736
v 6.102 -1.766 2.736
v 6.102 -4.506 2.736
v 6.102 -4.106 1.506
v 6.102 -2.359 1.266
v 6.102 -4.106 1.506
v 6.102 -4.674 0.050
v 6.102 -4.674 0.050
v 6.102 -1.975 0.050
v 6.102 -2.359 1.266
v 6.102 -4.106 1.506
v 6.102 -4.506 2.736
v 6.102 -6.160 2.736
v 6.102 -4.106 1.506
v 6.102 -6.160 0.050
v 6.102 -4.674 0.050
v 6.102 -6.160 0.050
v 6.102 -4.106 1.506
v 6.102 -6.160 2.736
v 2.502 -6.160 1.349
v 1.951 -6.160 2.736
v 0.571 -6.160 2.736
v 2.502 -6.160 1.349
v 0.571 -6.160 0.050
v 2.030 -6.160 0.050
v 0.571 -6.160 0.050
v 2.502 -6.160 1.349
v 0.571 -6.160 2.736
v 4.682 -6.160 0.050
v 2.502 -6.160 1.349
v 2.030 -6.160 0.050
v 2.502 -6.160 1.349
v 4.682 -6.160 0.050
v 4.140 -6.160 1.441
v 4.140 -6.160 1.441
v 4.682 -6.160 0.050
v 6.102 -6.160 0.050
v 4.140 -6.160 1.441
v 6.102 -6.160 2.736
v 4.610 -6.160 2.736
v 6.102 -6.160 2.736
v 4.140 -6.160 1.441
v 6.102 -6.160 0.050
v 1.951 -6.160 2.736
v 4.140 -6.160 1.441
v 4.610 -6.160 2.736
v 4.140 -6.160 1.441
v 1.951 -6.160 2.736
v 2.502 -6.160 1.349
v -4.416 2.926 1.100
v -4.510 1.985 1.100
v -6.251 2.156 1.100
v -6.251 2.156 1.100
v -6.251 3.094 1.100
v -4.416 2.926 1.100
v -4.510 1.985 1.000
v -4.416 2.926 0.000
v -4.510 1.985 0.000
v -4.510 1.985 1.000
v -4.510 1.985 1.100
v -4.416 2.926 1.100
v -4.416 2.926 0.000
v -4.510 1.985 1.000
v -4.416 2.926 1.100
v -6.251 2.156 -0.000
v -4.510 1.985 1.000
v -4.510 1.985 0.000
v -4.510 1.985 1.000
v -6.251 2.156 -0.000
v -6.251 2.156 1.100
v -4.510 1.985 1.000
v -6.251 2.156 1.100
v -4.510 1.985 1.100
v -4.522 -3.053 0.000
v -6.251 -3.053 1.100
v -6.251 -3.053 -0.000
v -6.251 -3.053 1.100
v -4.522 -3.053 0.000
v -4.522 -3.053 1.100
v -5.379 -3.053 1.100
v -4.522 -3.053 1.100
v -4.522 -3.648 1.100
v -4.522 -3.648 1.100
v -5.381 -3.648 1.100
v -5.379 -3.053 1.100
v -5.381 -3.648 1.100
v -6.251 -3.648 1.100
v -6.251 -3.053 1.100
v -6.251 -3.053 1.100
v -5.379 -3.053 1.100
v -5.381 -3.648 1.100
v -4.522 -3.648 1.100
v -4.522 -3.053 0.000
v -4.522 -3.648 -0.000
v -4.522 -3.053 0.000
v -4.522 -3.648 1.100
v -4.522 -3.053 1.100
v 0.000 2.523 1.100
v -0.000 1.598 1.100
v -1.741 1.715 1.100
v -1.741 1.715 1.100
v -1.677 2.676 1.100
v 0.000 2.523 1.100
v -1.741 1.715 1.000
v 0.000 1.598 1.100
v 0.000 1.598 0.000
v 0.000 1.598 0.000
v -1.741 1.715 0.000
v -1.741 1.715 1.000
v 0.000 1.598 1.100
v -1.741 1.715 1.000
v -1.741 1.715 1.100
v -1.741 1.715 1.000
v -1.677 2.676 1.100
v -1.741 1.715 1.100
v -1.741 1.715 1.000
v -1.741 1.715 -0.000
v -1.677 2.676 -0.000
v -1.677 2.676 1.100
v -1.741 1.715 1.000
v -1.677 2.676 -0.000
v -5.442 1.479 1.000
v -5.442 1.479 0.000
v -5.442 -0.091 0.000
v -5.442 -0.091 0.000
v -5.442 -0.091 1.000
v -5.442 1.479 1.000
v -3.556 2.559 1.000
v -2.390 2.524 0.000
v -3.556 2.559 -0.000
v -2.390 2.524 0.000
v -3.556 2.559 1.000
v -2.390 2.524 1.000
v -1.741 1.715 0.000
v -2.390 2.524 1.000
v -1.741 1.715 1.000
v -2.390 2.524 1.000
v -1.741 1.715 0.000
v -2.390 2.524 0.000
v -5.442 1.479 1.000
v -4.510 1.985 1.000
v -4.510 1.985 -0.000
v -4.510 1.985 -0.000
v -5.442 1.479 -0.000
v -5.442 1.479 1.000
v -2.803 -3.648 0.000
v -2.803 -2.798 1.100
v -2.803 -3.648 1.100
v -2.803 -2.798 1.100
v -2.803 -3.648 0.000
v -2.803 -2.798 0.000
v -0.913 -2.798 0.000
v -2.803 -2.798 1.100
v -2.803 -2.798 -0.000
v -2.803 -2.798 1.100
v -0.913 -2.798 0.000
v -0.913 -2.798 1.100
v -0.913 -2.798 1.100
v -0.913 -1.983 1.100
v 0.000 -1.983 1.100
v -0.913 -2.798 1.100
v -0.000 -3.648 1.100
v -1.140 -3.648 1.100
v -1.140 -3.648 1.100
v -1.348 -2.798 1.100
v -0.913 -2.798 1.100
v -0.000 -3.648 1.100
v -0.913 -2.798 1.100
v 0.000 -1.983 1.100
v -1.348 -2.798 1.100
v -2.803 -3.648 1.100
v -2.803 -2.798 1.100
v -2.803 -3.648 1.100
v -1.348 -2.798 1.100
v -1.140 -3.648 1.100
v -0.913 -2.798 0.000
v -0.913 -1.983 1.100
v -0.913 -2.798 1.100
v -0.913 -1.983 1.100
v -0.913 -2.798 0.000
v -0.913 -1.983 -0.000
v 0.000 -1.983 -0.000
v -0.913 -1.983 1.100
v -0.913 -1.983 -0.000
v -0.913 -1.983 1.100
v 0.000 -1.983 -0.000
v 0.000 -1.983 1.100
v -0.913 -1.983 0.000
v -1.859 -0.409 0.000
v 0.000 -0.657 0.000
v 0.000 -0.657 0.000
v 0.000 -1.983 0.000
v -0.913 -1.983 0.000
v -0.913 -1.983 0.000
v -0.913 -2.798 0.000
v -2.033 -2.798 0.000
v -0.913 -1.983 0.000
v -2.574 -1.630 0.000
v -1.859 -0.409 0.000
v -2.574 -1.630 0.000
v -0.913 -1.983 0.000
v -2.033 -2.798 0.000
v -2.574 -1.630 0.000
v -4.163 -1.379 0.000
v -4.176 0.344 0.000
v -4.176 0.344 0.000
v -3.978 0.585 0.000
v -2.281 0.484 0.000
v -2.281 0.484 0.000
v -1.859 -0.409 0.000
v -2.574 -1.630 0.000
v -2.574 -1.630 0.000
v -4.176 0.344 0.000
v -2.281 0.484 0.000
v -3.556 2.559 0.000
v -3.978 0.585 0.000
v -4.214 2.163 0.000
v -2.281 0.484 0.000
v -3.556 2.559 0.000
v -2.390 2.524 0.000
v -1.741 1.715 0.000
v -1.681 1.711 0.000
v -2.281 0.484 0.000
v -3.556 2.559 0.000
v -2.281 0.484 0.000
v -3.978 0.585 0.000
v -2.390 2.524 0.000
v -1.741 1.715 0.000
v -2.281 0.484 0.000
v 0.000 -0.012 0.000
v -2.281 0.484 0.000
v -1.681 1.711 0.000
v -1.681 1.711 0.000
v 0.000 1.598 0.000
v 0.000 -0.012 0.000
v 0.000 -0.012 0.000
v 0.000 -0.657 0.000
v -1.859 -0.409 0.000
v -2.281 0.484 0.000
v 0.000 -0.012 0.000
v -1.859 -0.409 0.000
v -2.803 -2.798 0.000
v -4.163 -1.379 0.000
v -2.574 -1.630 0.000
v -2.574 -1.630 0.000
v -2.033 -2.798 0.000
v -2.803 -2.798 0.000
v -4.522 -3.053 0.000
v -2.803 -3.648 0.000
v -4.522 -3.648 0.000
v -4.522 -3.053 0.000
v -4.544 -3.053 0.000
v -4.181 -1.394 0.000
v -4.163 -1.379 0.000
v -2.803 -2.798 0.000
v -4.181 -1.394 0.000
v -2.803 -3.648 0.000
v -4.522 -3.053 0.000
v -2.803 -2.798 0.000
v -4.522 -3.053 0.000
v -4.181 -1.394 0.000
v -2.803 -2.798 0.000
v -4.176 0.344 0.000
v -4.163 -1.379 0.000
v -4.181 -1.394 0.000
v -4.176 0.344 0.000
v -6.251 -1.252 0.000
v -6.251 0.381 0.000
v -6.251 -1.252 0.000
v -4.176 0.344 0.000
v -4.181 -1.394 0.000
v -6.251 -1.252 0.000
v -4.544 -3.053 0.000
v -6.251 -3.053 0.000
v -4.544 -3.053 0.000
v -6.251 -1.252 0.000
v -4.181 -1.394 0.000
v -4.510 1.985 0.000
v -4.176 0.344 0.000
v -6.251 0.381 0.000
v -6.251 0.381 0.000
v -6.251 2.156 0.000
v -4.510 1.985 0.000
v -4.510 1.985 0.000
v -4.214 2.163 0.000
v -3.978 0.585 0.000
v -4.176 0.344 0.000
v -4.510 1.985 0.000
v -3.978 0.585 0.000
v -4.510 1.985 1.000
v -3.556 2.559 0.000
v -4.510 1.985 -0.000
v -3.556 2.559 0.000
v -4.510 1.985 1.000
v -3.556 2.559 1.000
v 0.571 -1.488 1.105
v 0.571 -1.488 2.193
v 0.000 -1.488 2.193
v 0.000 -1.488 2.193
v 0.000 -1.488 1.104
v 0.571 -1.488 1.105
v 0.000 -1.488 1.104
v 0.000 -1.488 -0.000
v 0.571 -1.488 0.050
v 0.571 -1.488 0.050
v 0.571 -1.488 1.105
v 0.000 -1.488 1.104
v 0.571 -0.012 2.195
v 0.676 -1.485 0.050
v 0.676 -1.485 2.195
v 0.676 -1.485 0.050
v 0.571 -0.012 2.195
v 0.571 -0.012 0.050
v 4.404 -4.173 0.050
v 6.102 -4.162 0.050
v 6.102 -6.160 0.050
v 6.102 -6.160 0.050
v 4.168 -6.160 0.050
v 4.404 -4.173 0.050
v 4.168 -6.160 0.050
v 2.659 -6.160 0.050
v 2.335 -4.481 0.050
v 2.335 -4.481 0.050
v 2.885 -3.772 0.050
v 4.014 -3.789 0.050
v 2.335 -4.481 0.050
v 4.404 -4.173 0.050
v 4.168 -6.160 0.050
v 4.404 -4.173 0.050
v 2.335 -4.481 0.050
v 4.014 -3.789 0.050
v 3.968 -1.421 0.050
v 2.289 -2.655 0.050
v 2.817 -1.488 0.050
v 2.289 -2.655 0.050
v 3.968 -1.421 0.050
v 4.565 -2.074 0.050
v 2.289 -2.655 0.050
v 4.014 -3.789 0.050
v 2.885 -3.772 0.050
v 4.014 -3.789 0.050
v 2.289 -2.655 0.050
v 4.565 -2.074 0.050
v 4.404 -4.173 0.050
v 4.014 -3.789 0.050
v 4.565 -2.074 0.050
v 4.565 -2.074 0.050
v 6.102 -2.075 0.050
v 6.102 -4.162 0.050
v 6.102 -4.162 0.050
v 4.404 -4.173 0.050
v 4.565 -2.074 0.050
v 2.335 -4.481 0.050
v 2.659 -6.160 0.050
v 0.571 -6.160 0.050
v 0.571 -6.160 0.050
v 0.571 -4.411 0.050
v 2.335 -4.481 0.050
v 2.289 -2.655 0.050
v 2.885 -3.772 0.050
v 2.335 -4.481 0.050
v 2.289 -2.655 0.050
v 0.571 -4.411 0.050
v 0.571 -2.674 0.050
v 0.571 -4.411 0.050
v 2.289 -2.655 0.050
v 2.335 -4.481 0.050
v 0.571 -0.012 0.050
v 2.216 -0.767 0.050
v 0.571 -0.955 0.050
v 0.571 -0.012 0.050
v 0.571 1.311 0.050
v 2.453 0.471 0.050
v 2.216 -0.767 0.050
v 0.571 -0.012 0.050
v 2.453 0.471 0.050
v 6.102 1.903 0.050
v 3.402 1.106 0.050
v 3.565 2.136 0.050
v 4.467 -0.029 0.050
v 6.102 1.903 0.050
v 6.102 0.243 0.050
v 3.402 1.106 0.050
v 6.102 1.903 0.050
v 4.467 -0.029 0.050
v 4.565 -2.074 0.050
v 3.968 -1.421 0.050
v 4.467 -0.029 0.050
v 4.467 -0.029 0.050
v 6.102 0.243 0.050
v 6.102 -2.075 0.050
v 6.102 -2.075 0.050
v 4.565 -2.074 0.050
v 4.467 -0.029 0.050
v 3.968 -1.421 0.050
v 2.817 -1.488 0.050
v 2.216 -0.767 0.050
v 4.467 -0.029 0.050
v 2.453 0.471 0.050
v 3.402 1.106 0.050
v 2.216 -0.767 0.050
v 4.467 -0.029 0.050
v 3.968 -1.421 0.050
v 4.467 -0.029 0.050
v 2.216 -0.767 0.050
v 2.453 0.471 0.050
v 2.216 -0.767 0.050
v 2.817 -1.488 0.050
v 2.289 -2.655 0.050
v 2.289 -2.655 0.050
v 0.571 -2.674 0.050
v 0.571 -1.488 0.050
v 0.571 -1.488 0.050
v 0.571 -0.955 0.050
v 2.216 -0.767 0.050
v 2.216 -0.767 0.050
v 2.289 -2.655 0.050
v 0.571 -1.488 0.050
v 0.571 2.411 0.050
v 2.453 0.471 0.050
v 0.571 1.311 0.050
v 2.453 0.471 0.050
v 0.571 2.411 0.050
v 3.565 2.136 0.050
v 2.453 0.471 0.050
v 3.565 2.136 0.050
v 3.402 1.106 0.050
v -2.390 2.524 0.000
v -1.677 2.676 0.000
v -1.741 1.715 0.000
v -2.390 2.524 0.000
v -2.546 2.529 0.000
v -2.486 2.750 0.000
v -1.677 2.676 0.000
v -2.390 2.524 0.000
v -2.486 2.750 0.000
v -3.583 2.543 0.000
v -4.510 1.985 0.000
v -4.416 2.926 0.000
v -4.416 2.926 0.000
v -3.622 2.854 0.000
v -3.583 2.543 0.000
v -3.556 2.559 0.000
v -3.583 2.543 0.000
v -3.622 2.854 0.000
v -3.556 2.559 0.000
v -2.486 2.750 0.000
v -2.546 2.529 0.000
v -2.486 2.750 0.000
v -3.556 2.559 0.000
v -3.622 2.854 0.000
v 0.000 -0.012 0.000
v 0.571 -1.488 0.050
v 0.000 -1.488 -0.000
v 0.571 -1.488 0.050
v 0.000 -0.012 0.000
v 0.571 -0.012 0.050
v 0.571 2.411 1.272
v 0.571 2.411 0.050
v 0.571 -0.012 0.050
v 0.571 -0.012 0.050
v 0.571 -0.012 1.478
v 0.571 2.411 1.272
v 0.571 -0.012 1.478
v 0.571 -0.012 2.195
v 0.571 0.499 2.736
v 0.571 0.499 2.736
v 0.571 2.411 2.736
v 0.571 2.411 1.272
v 0.571 2.411 1.272
v 0.571 -0.012 1.478
v 0.571 0.499 2.736
v -0.000 -0.012 1.108
v 0.571 -0.012 0.050
v -0.000 -0.012 0.000
v 0.571 -0.012 0.050
v -0.000 -0.012 1.108
v 0.571 -0.012 1.108
v -0.000 -0.012 1.108
v -0.000 -0.012 2.195
v 0.571 -0.012 2.195
v 0.571 -0.012 2.195
v 0.571 -0.012 1.108
v -0.000 -0.012 1.108
v 0.571 -4.058 0.642
v 0.571 -2.570 1.910
v 0.571 -1.488 1.005
v 0.571 -4.058 0.642
v 0.571 -1.488 0.050
v 0.571 -4.176 0.050
v 0.571 -1.488 0.050
v 0.571 -4.058 0.642
v 0.571 -1.488 1.005
v 0.571 -1.488 2.193
v 0.571 -2.665 2.736
v 0.571 0.499 2.736
v 0.571 0.499 2.736
v 0.571 -0.012 2.195
v 0.571 -1.488 2.193
v 0.571 -1.488 2.193
v 0.571 -1.488 1.005
v 0.571 -2.570 1.910
v 0.571 -2.665 2.736
v 0.571 -1.488 2.193
v 0.571 -2.570 1.910
v 0.571 -2.570 1.910
v 0.571 -4.058 0.642
v 0.571 -5.033 2.736
v 0.571 -5.033 2.736
v 0.571 -2.665 2.736
v 0.571 -2.570 1.910
v 0.571 -4.058 0.642
v 0.571 -4.176 0.050
v 0.571 -6.160 0.050
v 0.571 -6.160 0.050
v 0.571 -6.160 2.736
v 0.571 -5.033 2.736
v 0.571 -5.033 2.736
v 0.571 -4.058 0.642
v 0.571 -6.160 0.050
v 0.676 -1.485 2.195
v 0.676 -1.485 0.050
v 0.571 -0.012 0.050
v 0.571 -0.012 0.050
v 0.571 -0.012 2.195
v 0.676 -1.485 2.195
v -5.442 -0.091 0.000
v -5.442 1.479 0.000
v -5.442 1.479 1.000
v -5.442 1.479 1.000
v -5.442 -0.091 1.000
v -5.442 -0.091 0.000
v -3.556 2.559 0.000
v -2.390 2.524 0.000
v -2.390 2.524 1.000
v -2.390 2.524 1.000
v -3.556 2.559 1.000
v -3.556 2.559 0.000
v -1.741 1.715 1.000
v -2.390 2.524 1.000
v -2.390 2.524 0.000
v -2.390 2.524 0.000
v -1.741 1.715 0.000
v -1.741 1.715 1.000
v -4.510 1.985 0.000
v -4.510 1.985 1.000
v -5.442 1.479 1.000
v -5.442 1.479 1.000
v -5.442 1.479 0.000
v -4.510 1.985 0.000
v -3.556 2.559 1.000
v -4.510 1.985 0.000
v -3.556 2.559 0.000
v -4.510 1.985 0.000
v -3.556 2.559 1.000
v -4.510 1.985 1.000

usemtl Patch_1_Mat_CR1_paintedConcrete
f 3 2 1
f 6 5 4
f 9 8 7

usemtl Patch_2_Mat_CR1_paintedConcrete
f 12 11 10
f 15 14 13
f 18 17 16

usemtl Patch_3_Mat_CR1_paintedConcrete
f 21 20 19
f 24 23 22
f 27 26 25
f 30 29 28

usemtl Patch_4_Mat_CR1_paintedConcrete
f 33 32 31
f 36 35 34
f 39 38 37
f 42 41 40

usemtl Patch_5_Mat_CR1_paintedConcrete
f 45 44 43
f 48 47 46
f 51 50 49

usemtl Patch_6_Mat_CR1_paintedConcrete
f 54 53 52
f 57 56 55

usemtl Patch_7_Mat_CR1_paintedConcrete
f 60 59 58
f 63 62 61

usemtl Patch_8_Mat_CR1_paintedConcrete
f 66 65 64
f 69 68 67
f 72 71 70

usemtl Patch_9_Mat_CR1_paintedConcrete
f 75 74 73
f 78 77 76
f 81 80 79
f 84 83 82

usemtl Patch_10_Mat_CR1_paintedConcrete
f 87 86 85
f 90 89 88
f 93 92 91
f 96 95 94

usemtl Patch_11_Mat_CR1_paintedConcrete
f 99 98 97
f 102 101 100

usemtl Patch_12_Mat_CR1_paintedConcrete
f 105 104 103
f 108 107 106
f 111 110 109

usemtl Patch_13_Mat_CR1_paintedConcrete
f 114 113 112
f 117 116 115
f 120 119 118

usemtl Patch_14_Mat_CR1_paintedConcrete
f 123 122 121
f 126 125 124
f 129 128 127
f 132 131 130
f 135 134 133

usemtl Patch_15_Mat_CR1_paintedConcrete
f 138 137 136
f 141 140 139

usemtl Patch_16_Mat_CR1_paintedConcrete
f 144 143 142
f 147 146 145
f 150 149 148

usemtl Patch_17_Mat_CR1_concrete
f 153 152 151
f 156 155 154
f 159 158 157

usemtl Patch_18_Mat_CR1_concrete
f 162 161 160
f 165 164 163
f 168 167 166
f 171 170 169

usemtl Patch_19_Mat_CR1_concrete
f 174 173 172
f 177 176 175
f 180 179 178

usemtl Patch_20_Mat_CR1_concrete
f 183 182 181
f 186 185 184
f 189 188 187
f 192 191 190

usemtl Patch_21_Mat_CR1_concrete
f 195 194 193
f 198 197 196

usemtl Patch_22_Mat_CR1_concrete
f 201 200 199
f 204 203 202
f 207 206 205

usemtl Patch_23_Mat_CR1_concrete
f 210 209 208
f 213 212 211
f 216 215 214
f 219 218 217

usemtl Patch_24_Mat_CR1_concrete
f 222 221 220
f 225 224 223
f 228 227 226

usemtl Patch_25_Mat_CR1_concrete
f 231 230 229
f 234 233 232

usemtl Patch_26_Mat_CR1_concrete
f 237 236 235
f 240 239 238

usemtl Patch_27_Mat_CR1_concrete
f 243 242 241
f 246 245 244
f 249 248 247

usemtl Patch_28_Mat_CR1_concrete
f 252 251 250
f 255 254 253
f 258 257 256
f 261 260 259

usemtl Patch_29_Mat_CR1_concrete
f 264 263 262
f 267 266 265
f 270 269 268

usemtl Patch_30_Mat_CR1_concrete
f 273 272 271
f 276 275 274
f 279 278 277

usemtl Patch_31_Mat_CR1_concrete
f 282 281 280
f 285 284 283
f 288 287 286

usemtl Patch_32_Mat_CR1_concrete
f 291 290 289
f 294 293 292
f 297 296 295
f 300 299 298

usemtl Patch_33_Mat_CR1_concrete
f 303 302 301
f 306 305 304
f 309 308 307
f 312 311 310

usemtl Patch_34_Mat_CR1_concrete
f 315 314 313
f 318 317 316
f 321 320 319
f 324 323 322

usemtl Patch_35_Mat_CR1_concrete
f 327 326 325
f 330 329 328
f 333 332 331
f 336 335 334

usemtl Patch_36_Mat_CR1_concrete
f 339 338 337
f 342 341 340

usemtl Patch_37_Mat_CR1_concrete
f 345 344 343
f 348 347 346

usemtl Patch_38_Mat_CR1_concrete
f 351 350 349
f 354 353 352
f 357 356 355
f 360 359 358
f 363 362 361
f 366 365 364

usemtl Patch_39_Mat_CR1_concrete
f 369 368 367
f 372 371 370
f 375 374 373
f 378 377 376
f 381 380 379
f 384 383 382

usemtl Patch_40_Mat_CR1_paintedConcrete
f 387 386 385
f 390 389 388
f 393 392 391

usemtl Patch_41_Mat_CR1_paintedConcrete
f 396 395 394
f 399 398 397

usemtl Patch_42_Mat_CR1_paintedConcrete
f 402 401 400
f 405 404 403
f 408 407 406

usemtl Patch_43_Mat_CR1_paintedConcrete
f 411 410 409
f 414 413 412

usemtl Patch_44_Mat_CR1_paintedConcrete
f 417 416 415
f 420 419 418

usemtl Patch_45_Mat_CR1_paintedConcrete
f 423 422 421
f 426 425 424
f 429 428 427
f 432 431 430

usemtl Patch_46_Mat_CR1_paintedConcrete
f 435 434 433
f 438 437 436

usemtl Patch_47_Mat_CR1_paintedConcrete
f 441 440 439
f 444 443 442

usemtl Patch_48_Mat_CR1_paintedConcrete
f 447 446 445
f 450 449 448

usemtl Patch_49_Mat_CR1_paintedConcrete
f 453 452 451
f 456 455 454
f 459 458 457

usemtl Patch_50_Mat_CR1_paintedConcrete
f 462 461 460
f 465 464 463
f 468 467 466

usemtl Patch_51_Mat_CR1_paintedConcrete
f 471 470 469
f 474 473 472

usemtl Patch_52_Mat_CR1_paintedConcrete
f 477 476 475
f 480 479 478
f 483 482 481

usemtl Patch_53_Mat_CR1_paintedConcrete
f 486 485 484
f 489 488 487

usemtl Patch_54_Mat_CR1_tablesEquipment
f 492 491 490
f 495 494 493

usemtl Patch_55_Mat_CR1_tablesEquipment
f 498 497 496
f 501 500 499
f 504 503 502

usemtl Patch_56_Mat_CR1_tablesEquipment
f 507 506 505
f 510 509 508
f 513 512 511

usemtl Patch_57_Mat_CR1_tablesEquipment
f 516 515 514
f 519 518 517

usemtl Patch_58_Mat_CR1_tablesEquipment
f 522 521 520
f 525 524 523

usemtl Patch_59_Mat_CR1_tablesEquipment
f 528 527 526
f 531 530 529

usemtl Patch_60_Mat_CR1_tablesEquipment
f 534 533 532
f 537 536 535

usemtl Patch_61_Mat_CR1_tablesEquipment
f 540 539 538
f 543 542 541

usemtl Patch_62_Mat_CR1_tablesEquipment
f 546 545 544
f 549 548 547
f 552 551 550

usemtl Patch_63_Mat_CR1_tablesEquipment
f 555 554 553
f 558 557 556
f 561 560 559

usemtl Patch_64_Mat_CR1_absorber
f 564 563 562
f 567 566 565

usemtl Patch_65_Mat_CR1_absorber
f 570 569 568
f 573 572 571

usemtl Patch_66_Mat_CR1_absorber
f 576 575 574
f 579 578 577

usemtl Patch_67_Mat_CR1_absorber
f 582 581 580
f 585 584 583

usemtl Patch_68_Mat_CR1_tablesEquipment
f 588 587 586
f 591 590 589

usemtl Patch_69_Mat_CR1_tablesEquipment
f 594 593 592
f 597 596 595

usemtl Patch_70_Mat_CR1_tablesEquipment
f 600 599 598
f 603 602 601
f 606 605 604
f 609 608 607

usemtl Patch_71_Mat_CR1_tablesEquipment
f 612 611 610
f 615 614 613

usemtl Patch_72_Mat_CR1_tablesEquipment
f 618 617 616
f 621 620 619

usemtl Patch_73_Mat_CR1_tablesEquipment
f 624 623 622
f 627 626 625

usemtl Patch_74_Mat_CR1_concrete
f 630 629 628
f 633 632 631
f 636 635 634
f 639 638 637
f 642 641 640

usemtl Patch_75_Mat_CR1_concrete
f 645 644 643
f 648 647 646
f 651 650 649
f 654 653 652

usemtl Patch_76_Mat_CR1_concrete
f 657 656 655
f 660 659 658
f 663 662 661
f 666 665 664
f 669 668 667

usemtl Patch_77_Mat_CR1_concrete
f 672 671 670
f 675 674 673
f 678 677 676
f 681 680 679

usemtl Patch_78_Mat_CR1_concrete
f 684 683 682
f 687 686 685
f 690 689 688
f 693 692 691
f 696 695 694
f 699 698 697
f 702 701 700

usemtl Patch_79_Mat_CR1_concrete
f 705 704 703
f 708 707 706
f 711 710 709

usemtl Patch_80_Mat_CR1_concrete
f 714 713 712
f 717 716 715

usemtl Patch_81_Mat_CR1_concrete
f 720 719 718
f 723 722 721
f 726 725 724
f 729 728 727

usemtl Patch_82_Mat_CR1_absorber
f 732 731 730
f 735 734 733

usemtl Patch_83_Mat_CR1_concrete
f 738 737 736
f 741 740 739

usemtl Patch_84_Mat_CR1_concrete
f 744 743 742
f 747 746 745

usemtl Patch_85_Mat_CR1_paintedConcrete
f 750 749 748
f 753 752 751

usemtl Patch_86_Mat_CR1_paintedConcrete
f 756 755 754
f 759 758 757

usemtl Patch_87_Mat_CR1_paintedConcrete
f 762 761 760
f 765 764 763
f 768 767 766
f 771 770 769

usemtl Patch_88_Mat_CR1_paintedConcrete
f 774 773 772
f 777 776 775
f 780 779 778
f 783 782 781

usemtl Patch_89_Mat_CR1_paintedConcrete
f 786 785 784
f 789 788 787
f 792 791 790

usemtl Patch_90_Mat_CR1_paintedConcrete
f 795 794 793
f 798 797 796

usemtl Patch_91_Mat_CR1_paintedConcrete
f 801 800 799
f 804 803 802
f 807 806 805

usemtl Patch_92_Mat_CR1_paintedConcrete
f 810 809 808
f 813 812 811
f 816 815 814

usemtl Patch_93_Mat_CR1_paintedConcrete
f 819 818 817
f 822 821 820
f 825 824 823

usemtl Patch_94_Mat_CR1_paintedConcrete
f 828 827 826
f 831 830 829
f 834 833 832

usemtl Patch_95_Mat_CR1_paintedConcrete
f 837 836 835
f 840 839 838
f 843 842 841
f 846 845 844

usemtl Patch_96_Mat_CR1_paintedConcrete
f 849 848 847
f 852 851 850
f 855 854 853
f 858 857 856

usemtl Patch_97_Mat_CR1_paintedConcrete
f 861 860 859
f 864 863 862
f 867 866 865

usemtl Patch_98_Mat_CR1_concrete
f 870 869 868
f 873 872 871
f 876 875 874

usemtl Patch_99_Mat_CR1_concrete
f 879 878 877
f 882 881 880

usemtl Patch_100_Mat_CR1_concrete
f 885 884 883
f 888 887 886
f 891 890 889

usemtl Patch_101_Mat_CR1_concrete
f 894 893 892
f 897 896 895

usemtl Patch_102_Mat_CR1_paintedConcrete
f 900 899 898
f 903 902 901

usemtl Patch_103_Mat_CR1_paintedConcrete
f 906 905 904
f 909 908 907
f 912 911 910

usemtl Patch_104_Mat_CR1_concrete
f 915 914 913
f 918 917 916

usemtl Patch_105_Mat_CR1_concrete
f 921 920 919
f 924 923 922

usemtl Patch_106_Mat_CR1_paintedConcrete
f 927 926 925
f 930 929 928
f 933 932 931

usemtl Patch_107_Mat_CR1_paintedConcrete
f 936 935 934
f 939 938 937
f 942 941 940
f 945 944 943

usemtl Patch_108_Mat_CR1_paintedConcrete
f 948 947 946
f 951 950 949

usemtl Patch_109_Mat_CR1_paintedConcrete
f 954 953 952
f 957 956 955
f 960 959 958

usemtl Patch_110_Mat_CR1_tablesEquipment
f 963 962 961
f 966 965 964

usemtl Patch_111_Mat_CR1_absorber
f 969 968 967
f 972 971 970

usemtl Patch_112_Mat_CR1_absorber
f 975 974 973
f 978 977 976

usemtl Patch_113_Mat_CR1_absorber
f 981 980 979
f 984 983 982

usemtl Patch_114_Mat_CR1_absorber
f 987 986 985
f 990 989 988

usemtl Patch_115_Mat_CR1_absorber
f 993 992 991
f 996 995 994

