mtllib mesh.mtl

v 4.746 -6.160 2.736
v 6.102 -6.160 2.736
v 6.102 -3.906 2.736
v 6.102 -3.906 2.736
v 4.745 -3.906 2.736
v 4.746 -6.160 2.736
v 4.745 -3.906 2.736
v 3.374 -3.906 2.736
v 3.375 -6.160 2.736
v 3.375 -6.160 2.736
v 4.746 -6.160 2.736
v 4.745 -3.906 2.736
v 3.375 -6.160 2.736
v 1.983 -3.906 2.736
v 1.978 -6.160 2.736
v 1.983 -3.906 2.736
v 3.375 -6.160 2.736
v 3.374 -3.906 2.736
v 1.978 -6.160 2.736
v 0.571 -3.906 2.736
v 0.571 -6.160 2.736
v 0.571 -3.906 2.736
v 1.978 -6.160 2.736
v 1.983 -3.906 2.736
v 1.930 0.930 2.736
v 0.571 0.930 2.736
v 0.571 0.930 2.276
v 0.571 0.930 2.276
v 1.931 0.930 2.276
v 1.930 0.930 2.736
v 1.931 0.930 2.276
v 3.301 0.930 2.276
v 3.301 0.930 2.736
v 3.301 0.930 2.736
v 1.930 0.930 2.736
v 1.931 0.930 2.276
v 3.301 0.930 2.736
v 4.691 0.930 2.276
v 4.693 0.930 2.736
v 4.691 0.930 2.276
v 3.301 0.930 2.736
v 3.301 0.930 2.276
v 4.693 0.930 2.736
v 6.102 0.930 2.276
v 6.102 0.930 2.736
v 6.102 0.930 2.276
v 4.693 0.930 2.736
v 4.691 0.930 2.276
v 4.950 0.499 2.276
v 6.102 0.499 2.276
v 6.102 0.930 2.276
v 6.102 0.930 2.276
v 4.950 0.930 2.276
v 4.950 0.499 2.276
v 4.950 0.930 2.276
v 3.840 0.930 2.276
v 3.840 0.499 2.276
v 3.840 0.499 2.276
v 4.950 0.499 2.276
v 4.950 0.930 2.276
v 3.840 0.499 2.276
v 2.735 0.930 2.276
v 2.734 0.499 2.276
v 2.735 0.930 2.276
v 3.840 0.499 2.276
v 3.840 0.930 2.276
v 2.734 0.499 2.276
v 1.639 0.930 2.276
v 1.639 0.499 2.276
v 1.639 0.930 2.276
v 2.734 0.499 2.276
v 2.735 0.930 2.276
v 1.639 0.499 2.276
v 0.571 0.930 2.276
v 0.571 0.499 2.276
v 0.571 0.930 2.276
v 1.639 0.499 2.276
v 1.639 0.930 2.276
v 4.748 0.499 2.736
v 6.102 0.499 2.736
v 6.102 0.499 2.276
v 6.102 0.499 2.276
v 4.746 0.499 2.276
v 4.748 0.499 2.736
v 4.746 0.499 2.276
v 3.376 0.499 2.276
v 3.376 0.499 2.736
v 3.376 0.499 2.736
v 4.748 0.499 2.736
v 4.746 0.499 2.276
v 3.376 0.499 2.736
v 1.983 0.499 2.276
v 1.982 0.499 2.736
v 1.983 0.499 2.276
v 3.376 0.499 2.736
v 3.376 0.499 2.276
v 1.982 0.499 2.736
v 0.571 0.499 2.276
v 0.571 0.499 2.736
v 0.571 0.499 2.276
v 1.982 0.499 2.736
v 1.983 0.499 2.276
v 3.200 0.930 2.736
v 6.102 0.930 2.736
v 6.102 1.903 2.736
v 6.102 1.903 2.736
v 3.260 2.164 2.736
v 3.200 0.930 2.736
v 3.260 2.164 2.736
v 0.571 2.411 2.736
v 0.571 0.930 2.736
v 0.571 0.930 2.736
v 3.200 0.930 2.736
v 3.260 2.164 2.736
v 1.930 -3.483 2.736
v 0.571 -3.483 2.736
v 0.571 -3.483 2.276
v 0.571 -3.483 2.276
v 1.931 -3.483 2.276
v 1.930 -3.483 2.736
v 1.931 -3.483 2.276
v 3.301 -3.483 2.276
v 3.301 -3.483 2.736
v 3.301 -3.483 2.736
v 1.930 -3.483 2.736
v 1.931 -3.483 2.276
v 3.301 -3.483 2.736
v 4.691 -3.483 2.276
v 4.693 -3.483 2.736
v 4.691 -3.483 2.276
v 3.301 -3.483 2.736
v 3.301 -3.483 2.276
v 4.693 -3.483 2.736
v 6.102 -3.483 2.276
v 6.102 -3.483 2.736
v 6.102 -3.483 2.276
v 4.693 -3.483 2.736
v 4.691 -3.483 2.276
v 4.945 -3.906 2.276
v 6.102 -3.906 2.276
v 6.102 -3.483 2.276
v 6.102 -3.483 2.276
v 4.944 -3.483 2.276
v 4.945 -3.906 2.276
v 4.945 -3.906 2.276
v 3.814 -3.483 2.276
v 3.812 -3.906 2.276
v 3.814 -3.483 2.276
v 4.945 -3.906 2.276
v 4.944 -3.483 2.276
v 3.812 -3.906 2.276
v 2.702 -3.483 2.276
v 2.703 -3.906 2.276
v 2.702 -3.483 2.276
v 3.812 -3.906 2.276
v 3.814 -3.483 2.276
v 2.702 -3.483 2.276
v 1.631 -3.483 2.276
v 1.632 -3.906 2.276
v 1.632 -3.906 2.276
v 2.703 -3.906 2.276
v 2.702 -3.483 2.276
v 1.631 -3.483 2.276
v 0.571 -3.483 2.276
v 0.571 -3.906 2.276
v 0.571 -3.906 2.276
v 1.632 -3.906 2.276
v 1.631 -3.483 2.276
v 4.743 -3.906 2.736
v 6.102 -3.906 2.736
v 6.102 -3.906 2.276
v 6.102 -3.906 2.276
v 4.742 -3.906 2.276
v 4.743 -3.906 2.736
v 4.742 -3.906 2.276
v 3.372 -3.906 2.276
v 3.372 -3.906 2.736
v 3.372 -3.906 2.736
v 4.743 -3.906 2.736
v 4.742 -3.906 2.276
v 3.372 -3.906 2.736
v 1.982 -3.906 2.276
v 1.980 -3.906 2.736
v 1.982 -3.906 2.276
v 3.372 -3.906 2.736
v 3.372 -3.906 2.276
v 1.980 -3.906 2.736
v 0.571 -3.906 2.276
v 0.571 -3.906 2.736
v 0.571 -3.906 2.276
v 1.980 -3.906 2.736
v 1.982 -3.906 2.276
v 6.102 0.499 2.736
v 4.304 -1.513 2.736
v 6.102 -1.457 2.736
v 4.304 -1.513 2.736
v 6.102 0.499 2.736
v 4.209 0.499 2.736
v 4.304 -1.513 2.736
v 4.209 0.499 2.736
v 4.219 -1.439 2.736
v 2.373 -1.474 2.736
v 2.456 -1.547 2.736
v 4.219 -1.439 2.736
v 4.219 -1.439 2.736
v 4.209 0.499 2.736
v 2.368 0.499 2.736
v 2.368 0.499 2.736
v 2.373 -1.474 2.736
v 4.219 -1.439 2.736
v 4.304 -1.513 2.736
v 4.309 -3.483 2.736
v 6.102 -3.483 2.736
v 6.102 -3.483 2.736
v 6.102 -1.457 2.736
v 4.304 -1.513 2.736
v 4.304 -1.513 2.736
v 4.219 -1.439 2.736
v 2.456 -1.547 2.736
v 2.456 -1.547 2.736
v 2.467 -3.483 2.736
v 4.309 -3.483 2.736
v 4.309 -3.483 2.736
v 4.304 -1.513 2.736
v 2.456 -1.547 2.736
v 2.373 -1.474 2.736
v 2.368 0.499 2.736
v 0.571 0.499 2.736
v 0.571 0.499 2.736
v 0.571 -1.528 2.736
v 2.373 -1.474 2.736
v 0.571 -3.483 2.736
v 2.373 -1.474 2.736
v 0.571 -1.528 2.736
v 2.373 -1.474 2.736
v 0.571 -3.483 2.736
v 2.467 -3.483 2.736
v 2.373 -1.474 2.736
v 2.467 -3.483 2.736
v 2.456 -1.547 2.736
v -6.251 -2.187 0.000
v -4.720 -3.053 0.000
v -6.152 -3.053 0.000
v -6.152 -3.623 0.000
v -4.843 -3.623 0.000
v -4.848 -3.648 0.000
v -4.387 -1.509 0.000
v -6.251 -2.187 0.000
v -6.251 -1.150 0.000
v -6.251 -1.150 0.000
v -6.251 -1.118 0.000
v -4.387 -1.509 0.000
v -6.152 -3.623 0.000
v -4.848 -3.648 0.000
v -6.251 -3.648 0.000
v -4.720 -3.053 0.000
v -6.251 -2.187 0.000
v -4.387 -1.509 0.000
v -6.152 -3.053 0.000
v -6.152 -3.623 0.000
v -6.251 -3.648 0.000
v -6.251 -2.187 0.000
v -6.152 -3.053 0.000
v -6.251 -3.648 0.000
v -4.522 -3.053 0.000
v -4.720 -3.053 0.000
v -4.387 -1.509 0.000
v -4.387 -1.509 0.000
v -3.976 -1.228 0.000
v -3.034 -1.479 0.000
v -3.034 -1.479 0.000
v -2.661 -2.798 0.000
v -2.803 -2.798 0.000
v -2.803 -3.613 0.000
v -2.430 -3.613 0.000
v -2.421 -3.648 0.000
v -4.522 -3.623 0.000
v -4.848 -3.648 0.000
v -4.843 -3.623 0.000
v -2.803 -2.798 0.000
v -4.522 -3.053 0.000
v -4.387 -1.509 0.000
v -4.387 -1.509 0.000
v -3.034 -1.479 0.000
v -2.803 -2.798 0.000
v -4.848 -3.648 0.000
v -4.522 -3.623 0.000
v -2.421 -3.648 0.000
v -2.803 -3.613 0.000
v -4.522 -3.053 0.000
v -2.803 -2.798 0.000
v -2.803 -3.613 0.000
v -2.421 -3.648 0.000
v -4.522 -3.623 0.000
v -4.522 -3.053 0.000
v -2.803 -3.613 0.000
v -4.522 -3.623 0.000
v -2.372 0.850 0.000
v -4.190 0.506 0.000
v -3.982 0.802 0.000
v -2.044 -0.853 0.000
v -2.372 0.850 0.000
v -1.829 -0.068 0.000
v -4.190 0.506 0.000
v -2.044 -0.853 0.000
v -3.034 -1.479 0.000
v -4.190 0.506 0.000
v -3.034 -1.479 0.000
v -3.976 -1.228 0.000
v -2.044 -0.853 0.000
v -4.190 0.506 0.000
v -2.372 0.850 0.000
v -0.013 -3.613 0.000
v -0.013 -2.657 0.000
v 0.000 -2.668 0.000
v -0.013 -3.613 0.000
v -2.421 -3.648 0.000
v -2.430 -3.613 0.000
v -0.013 -3.613 0.000
v 0.000 -2.668 0.000
v 0.000 -3.648 0.000
v -2.421 -3.648 0.000
v -0.013 -3.613 0.000
v 0.000 -3.648 0.000
v -0.913 -1.983 0.000
v -2.044 -0.853 0.000
v -0.772 -1.983 0.000
v -0.913 -1.983 0.000
v -0.913 -2.798 0.000
v -2.661 -2.798 0.000
v -2.661 -2.798 0.000
v -2.044 -0.853 0.000
v -0.913 -1.983 0.000
v -2.044 -0.853 0.000
v -2.661 -2.798 0.000
v -3.034 -1.479 0.000
v -1.829 -0.068 0.000
v -0.772 -1.983 0.000
v -2.044 -0.853 0.000
v -0.772 -1.983 0.000
v -1.829 -0.068 0.000
v 0.000 0.189 0.000
v -0.013 -1.983 0.000
v 0.000 -2.668 0.000
v -0.013 -2.657 0.000
v -0.772 -1.983 0.000
v 0.000 0.189 0.000
v -0.013 -1.983 0.000
v 0.000 -2.668 0.000
v -0.013 -1.983 0.000
v 0.000 0.189 0.000
v -5.342 -0.091 0.000
v -5.342 0.405 0.000
v -4.190 0.506 0.000
v -5.342 -0.091 0.000
v -3.976 -1.228 0.000
v -4.387 -1.509 0.000
v -5.442 -0.091 0.000
v -6.251 -1.118 0.000
v -6.251 0.325 0.000
v -6.251 0.325 0.000
v -5.442 0.396 0.000
v -5.442 -0.091 0.000
v -3.976 -1.228 0.000
v -5.342 -0.091 0.000
v -4.190 0.506 0.000
v -5.342 -0.091 0.000
v -6.251 -1.118 0.000
v -5.442 -0.091 0.000
v -6.251 -1.118 0.000
v -5.342 -0.091 0.000
v -4.387 -1.509 0.000
v -4.450 2.556 0.000
v -4.331 2.111 0.000
v -4.422 2.059 0.000
v -4.352 1.884 0.000
v -4.305 2.011 0.000
v -3.982 0.802 0.000
v -5.281 1.514 0.000
v -4.190 0.506 0.000
v -5.342 0.405 0.000
v -5.342 0.405 0.000
v -5.342 1.479 0.000
v -5.281 1.514 0.000
v -5.318 1.607 0.000
v -5.281 1.514 0.000
v -5.342 1.479 0.000
v -5.442 1.479 0.000
v -5.442 0.396 0.000
v -6.251 0.325 0.000
v -6.037 3.051 0.000
v -4.552 2.939 0.000
v -4.540 2.894 0.000
v -4.510 1.985 0.000
v -4.450 2.556 0.000
v -4.422 2.059 0.000
v -4.190 0.506 0.000
v -5.281 1.514 0.000
v -3.982 0.802 0.000
v -5.318 1.607 0.000
v -5.342 1.479 0.000
v -5.442 1.479 0.000
v -4.552 2.939 0.000
v -6.037 3.051 0.000
v -6.251 3.094 0.000
v -3.982 0.802 0.000
v -5.281 1.514 0.000
v -4.352 1.884 0.000
v -6.251 3.094 0.000
v -6.037 3.051 0.000
v -6.131 2.156 0.000
v -4.305 2.011 0.000
v -4.352 1.884 0.000
v -4.372 1.972 0.000
v -6.251 0.325 0.000
v -6.251 3.094 0.000
v -6.131 2.156 0.000
v -4.372 1.972 0.000
v -4.352 1.884 0.000
v -4.389 1.977 0.000
v -5.442 1.479 0.000
v -6.251 0.325 0.000
v -6.131 2.156 0.000
v -4.422 2.059 0.000
v -4.372 1.972 0.000
v -4.389 1.977 0.000
v -5.318 1.607 0.000
v -5.442 1.479 0.000
v -6.131 2.156 0.000
v -4.510 1.985 0.000
v -4.422 2.059 0.000
v -4.389 1.977 0.000
v -5.318 1.607 0.000
v -6.131 2.156 0.000
v -4.510 1.985 0.000
v -4.510 1.985 0.000
v -4.389 1.977 0.000
v -5.318 1.607 0.000
v -1.864 1.668 0.000
v -2.372 0.850 0.000
v -1.946 1.776 0.000
v -1.741 1.715 0.000
v -1.898 1.879 0.000
v -1.698 2.313 0.000
v -0.051 2.496 0.000
v -1.564 2.604 0.000
v -1.537 2.663 0.000
v -1.741 1.715 0.000
v -2.372 0.850 0.000
v -1.864 1.668 0.000
v -1.898 1.879 0.000
v -1.741 1.715 0.000
v -1.784 1.729 0.000
v -0.051 2.496 0.000
v -1.537 2.663 0.000
v 0.000 2.523 0.000
v -2.372 0.850 0.000
v -1.741 1.715 0.000
v -1.829 -0.068 0.000
v -1.864 1.668 0.000
v -1.784 1.729 0.000
v -1.741 1.715 0.000
v -0.115 1.598 0.000
v -0.051 2.496 0.000
v 0.000 2.523 0.000
v -1.829 -0.068 0.000
v -1.741 1.715 0.000
v 0.000 0.189 0.000
v -0.115 1.598 0.000
v 0.000 2.523 0.000
v 0.000 0.189 0.000
v 0.000 0.189 0.000
v -1.741 1.715 0.000
v -0.115 1.598 0.000
v -2.390 2.524 0.000
v -1.698 2.313 0.000
v -1.898 1.879 0.000
v -2.509 2.462 0.000
v -1.946 1.776 0.000
v -2.372 0.850 0.000
v -3.509 2.462 0.000
v -3.982 0.802 0.000
v -4.305 2.011 0.000
v -4.305 2.011 0.000
v -3.509 2.471 0.000
v -3.509 2.462 0.000
v -3.509 2.562 0.000
v -3.509 2.471 0.000
v -3.556 2.559 0.000
v -3.556 2.559 0.000
v -4.331 2.111 0.000
v -4.450 2.556 0.000
v -4.416 2.881 0.000
v -4.540 2.894 0.000
v -4.552 2.939 0.000
v -1.677 2.612 0.000
v -1.537 2.663 0.000
v -1.564 2.604 0.000
v -1.698 2.313 0.000
v -2.390 2.524 0.000
v -1.677 2.612 0.000
v -3.509 2.462 0.000
v -2.372 0.850 0.000
v -3.982 0.802 0.000
v -2.372 0.850 0.000
v -3.509 2.462 0.000
v -2.509 2.462 0.000
v -4.416 2.881 0.000
v -3.556 2.559 0.000
v -4.450 2.556 0.000
v -2.509 2.562 0.000
v -4.552 2.939 0.000
v -1.537 2.663 0.000
v -1.946 1.776 0.000
v -2.509 2.462 0.000
v -2.470 2.464 0.000
v -3.556 2.559 0.000
v -4.416 2.881 0.000
v -3.509 2.562 0.000
v -2.509 2.562 0.000
v -1.537 2.663 0.000
v -1.677 2.612 0.000
v -2.509 2.562 0.000
v -2.470 2.464 0.000
v -2.509 2.462 0.000
v -2.509 2.562 0.000
v -3.509 2.562 0.000
v -4.416 2.881 0.000
v -2.470 2.464 0.000
v -2.509 2.562 0.000
v -2.390 2.524 0.000
v -4.552 2.939 0.000
v -2.509 2.562 0.000
v -4.416 2.881 0.000
v -1.677 2.612 0.000
v -2.390 2.524 0.000
v -2.509 2.562 0.000
v -4.843 -3.648 2.768
v -6.251 -3.648 2.768
v -6.251 -3.648 0.000
v -6.251 -3.648 0.000
v -4.817 -3.648 0.000
v -4.843 -3.648 2.768
v -3.105 -3.648 1.395
v -1.764 -3.648 1.368
v -1.124 -3.648 2.768
v -1.124 -3.648 2.768
v -3.716 -3.648 2.768
v -3.105 -3.648 1.395
v -1.157 -3.648 -0.000
v -3.105 -3.648 1.395
v -3.759 -3.648 -0.000
v -3.105 -3.648 1.395
v -1.157 -3.648 -0.000
v -1.764 -3.648 1.368
v -4.817 -3.648 0.000
v -3.759 -3.648 -0.000
v -3.105 -3.648 1.395
v -3.105 -3.648 1.395
v -3.716 -3.648 2.768
v -4.843 -3.648 2.768
v -4.843 -3.648 2.768
v -4.817 -3.648 0.000
v -3.105 -3.648 1.395
v -1.764 -3.648 1.368
v -1.157 -3.648 -0.000
v 0.000 -3.648 -0.000
v -1.764 -3.648 1.368
v 0.000 -3.648 2.768
v -1.124 -3.648 2.768
v 0.000 -3.648 2.768
v -1.764 -3.648 1.368
v 0.000 -3.648 -0.000
v -2.224 0.930 2.768
v 0.000 0.930 2.768
v -0.000 2.523 2.768
v -0.000 2.523 2.768
v -2.138 2.718 2.768
v -2.224 0.930 2.768
v -2.224 0.930 2.768
v -4.207 2.907 2.768
v -4.308 0.930 2.768
v -4.207 2.907 2.768
v -2.224 0.930 2.768
v -2.138 2.718 2.768
v -4.207 2.907 2.768
v -6.251 3.094 2.768
v -6.251 0.930 2.768
v -6.251 0.930 2.768
v -4.308 0.930 2.768
v -4.207 2.907 2.768
v -6.251 1.095 1.256
v -6.251 3.094 1.536
v -6.251 3.094 0.000
v -6.251 3.094 0.000
v -6.251 1.051 0.000
v -6.251 1.095 1.256
v -6.251 -1.150 1.054
v -6.251 1.095 1.256
v -6.251 1.051 0.000
v -6.251 1.051 0.000
v -6.251 -1.150 0.000
v -6.251 -1.150 1.054
v -6.251 1.095 1.256
v -6.251 -1.150 1.054
v -6.251 0.646 1.904
v -6.251 0.930 2.276
v -6.251 0.646 1.904
v -6.251 0.658 2.276
v -6.251 0.930 2.276
v -6.251 0.930 2.768
v -6.251 3.094 2.768
v -6.251 0.930 2.276
v -6.251 3.094 1.536
v -6.251 1.095 1.256
v -6.251 0.646 1.904
v -6.251 0.930 2.276
v -6.251 1.095 1.256
v -6.251 3.094 1.536
v -6.251 0.930 2.276
v -6.251 3.094 2.768
v -6.251 0.646 1.904
v -6.251 -1.150 1.054
v -6.251 -1.150 2.033
v -6.251 -1.150 2.033
v -6.251 -1.825 2.033
v -6.251 -2.062 2.768
v -6.251 -1.150 2.033
v -6.251 0.499 2.768
v -6.251 0.499 2.276
v -6.251 0.499 2.276
v -6.251 0.658 2.276
v -6.251 0.646 1.904
v -6.251 0.499 2.768
v -6.251 -1.150 2.033
v -6.251 -2.062 2.768
v -6.251 -1.150 2.033
v -6.251 0.499 2.276
v -6.251 0.646 1.904
v -6.251 -2.187 2.033
v -6.251 -2.187 0.000
v -6.251 -3.648 0.000
v -6.251 -2.187 2.033
v -6.251 -3.648 2.768
v -6.251 -2.062 2.768
v -6.251 -2.062 2.768
v -6.251 -1.825 2.033
v -6.251 -2.187 2.033
v -6.251 -3.648 2.768
v -6.251 -2.187 2.033
v -6.251 -3.648 0.000
v -6.251 -2.187 2.033
v -6.251 -1.150 0.000
v -6.251 -2.187 0.000
v -6.251 -1.150 0.000
v -6.251 -2.187 2.033
v -6.251 -1.150 2.033
v -1.288 0.499 2.768
v 0.000 0.499 2.768
v 0.000 0.499 2.276
v 0.000 0.499 2.276
v -1.289 0.499 2.276
v -1.288 0.499 2.768
v -1.288 0.499 2.768
v -2.552 0.499 2.276
v -2.554 0.499 2.768
v -2.552 0.499 2.276
v -1.288 0.499 2.768
v -1.289 0.499 2.276
v -3.794 0.499 2.276
v -5.018 0.499 2.276
v -5.020 0.499 2.768
v -5.020 0.499 2.768
v -3.792 0.499 2.768
v -3.794 0.499 2.276
v -2.552 0.499 2.276
v -3.794 0.499 2.276
v -3.792 0.499 2.768
v -3.792 0.499 2.768
v -2.554 0.499 2.768
v -2.552 0.499 2.276
v -5.020 0.499 2.768
v -6.251 0.499 2.276
v -6.251 0.499 2.768
v -6.251 0.499 2.276
v -5.020 0.499 2.768
v -5.018 0.499 2.276
v -1.264 0.499 2.276
v 0.000 0.499 2.276
v -0.000 0.930 2.276
v -0.000 0.930 2.276
v -1.265 0.930 2.276
v -1.264 0.499 2.276
v -1.265 0.930 2.276
v -2.524 0.930 2.276
v -2.525 0.499 2.276
v -2.525 0.499 2.276
v -1.264 0.499 2.276
v -1.265 0.930 2.276
v -2.525 0.499 2.276
v -3.805 0.930 2.276
v -3.805 0.499 2.276
v -3.805 0.930 2.276
v -2.525 0.499 2.276
v -2.524 0.930 2.276
v -3.805 0.930 2.276
v -5.055 0.930 2.276
v -5.055 0.499 2.276
v -5.055 0.499 2.276
v -3.805 0.499 2.276
v -3.805 0.930 2.276
v -5.055 0.499 2.276
v -6.251 0.930 2.276
v -6.251 0.499 2.276
v -6.251 0.930 2.276
v -5.055 0.499 2.276
v -5.055 0.930 2.276
v -5.037 0.930 2.768
v -6.251 0.930 2.768
v -6.251 0.930 2.276
v -6.251 0.930 2.276
v -5.036 0.930 2.276
v -5.037 0.930 2.768
v -5.037 0.930 2.768
v -3.819 0.930 2.276
v -3.818 0.930 2.768
v -3.819 0.930 2.276
v -5.037 0.930 2.768
v -5.036 0.930 2.276
v -3.819 0.930 2.276
v -2.572 0.930 2.276
v -2.574 0.930 2.768
v -2.574 0.930 2.768
v -3.818 0.930 2.768
v -3.819 0.930 2.276
v -2.572 0.930 2.276
v -1.295 0.930 2.276
v -1.295 0.930 2.768
v -1.295 0.930 2.768
v -2.574 0.930 2.768
v -2.572 0.930 2.276
v -1.295 0.930 2.768
v -0.000 0.930 2.276
v -0.000 0.930 2.768
v -0.000 0.930 2.276
v -1.295 0.930 2.768
v -1.295 0.930 2.276
v -0.000 0.499 2.768
v -1.541 -1.640 2.768
v 0.000 -1.445 2.768
v -1.541 -1.640 2.768
v -0.000 0.499 2.768
v -2.063 0.499 2.768
v -1.541 -1.640 2.768
v -2.063 0.499 2.768
v -2.085 -1.287 2.768
v -2.063 0.499 2.768
v -3.156 -1.676 2.768
v -2.085 -1.287 2.768
v -3.156 -1.676 2.768
v -2.063 0.499 2.768
v -4.163 0.499 2.768
v -3.156 -1.676 2.768
v -4.163 0.499 2.768
v -4.154 -1.262 2.768
v -1.541 -1.640 2.768
v -1.598 -3.648 2.768
v 0.000 -3.648 2.768
v 0.000 -3.648 2.768
v 0.000 -1.445 2.768
v -1.541 -1.640 2.768
v -1.541 -1.640 2.768
v -2.085 -1.287 2.768
v -3.156 -1.676 2.768
v -3.156 -1.676 2.768
v -3.173 -3.648 2.768
v -1.598 -3.648 2.768
v -1.598 -3.648 2.768
v -1.541 -1.640 2.768
v -3.156 -1.676 2.768
v -3.156 -1.676 2.768
v -4.154 -1.262 2.768
v -4.765 -1.633 2.768
v -3.156 -1.676 2.768
v -4.704 -3.648 2.768
v -3.173 -3.648 2.768
v -4.704 -3.648 2.768
v -3.156 -1.676 2.768
v -4.765 -1.633 2.768
v -4.765 -1.633 2.768
v -6.251 -1.415 2.768
v -6.251 -3.648 2.768
v -6.251 -3.648 2.768
v -4.704 -3.648 2.768
v -4.765 -1.633 2.768
v -4.765 -1.633 2.768
v -4.154 -1.262 2.768
v -4.163 0.499 2.768
v -4.765 -1.633 2.768
v -6.251 0.499 2.768
v -6.251 -1.415 2.768
v -6.251 0.499 2.768
v -4.765 -1.633 2.768
v -4.163 0.499 2.768
v -2.050 2.710 1.184
v 0.000 2.523 1.705
v 0.000 2.523 -0.000
v 0.000 2.523 -0.000
v -2.047 2.710 -0.000
v -2.050 2.710 1.184
v 0.000 2.523 2.768
v -2.510 2.752 1.802
v -2.504 2.752 2.768
v -2.050 2.710 1.184
v 0.000 2.523 2.768
v 0.000 2.523 1.705
v 0.000 2.523 2.768
v -2.050 2.710 1.184
v -2.510 2.752 1.802
v -2.504 2.752 2.768
v -4.243 2.911 1.080
v -5.067 2.986 2.768
v -4.243 2.911 1.080
v -2.504 2.752 2.768
v -2.510 2.752 1.802
v -4.243 2.911 1.080
v -2.510 2.752 1.802
v -2.050 2.710 1.184
v -4.243 2.911 1.080
v -2.047 2.710 -0.000
v -4.513 2.935 -0.000
v -2.047 2.710 -0.000
v -4.243 2.911 1.080
v -2.050 2.710 1.184
v -4.243 2.911 1.080
v -4.513 2.935 -0.000
v -6.251 3.094 -0.000
v -4.243 2.911 1.080
v -6.251 3.094 2.768
v -5.067 2.986 2.768
v -6.251 3.094 2.768
v -4.243 2.911 1.080
v -6.251 3.094 -0.000
v 0.000 -3.648 -0.000
v 0.000 -1.488 1.286
v 0.000 -3.648 1.590
v 0.000 -1.488 0.050
v 0.000 -0.774 -0.000
v 0.000 -0.789 0.050
v 0.000 -1.488 1.286
v 0.000 -3.648 -0.000
v 0.000 -1.488 0.050
v 0.000 -0.774 -0.000
v 0.000 -1.488 0.050
v 0.000 -3.648 -0.000
v 0.000 -1.488 2.193
v 0.000 -0.949 2.194
v 0.000 -0.834 2.768
v 0.000 -1.488 2.193
v 0.000 -3.648 2.768
v 0.000 -3.648 1.590
v 0.000 -3.648 1.590
v 0.000 -1.488 1.286
v 0.000 -1.488 2.193
v 0.000 -3.648 2.768
v 0.000 -1.488 2.193
v 0.000 -0.834 2.768
v 0.000 -0.012 0.050
v 0.000 -0.789 0.050
v 0.000 -0.774 -0.000
v 0.000 1.351 2.768
v 0.000 0.930 2.768
v 0.000 0.930 2.276
v 0.000 -0.012 2.195
v 0.000 0.499 2.768
v 0.000 -0.834 2.768
v 0.000 -0.834 2.768
v 0.000 -0.949 2.194
v 0.000 -0.012 2.195
v 0.000 -0.012 0.050
v 0.000 -0.774 -0.000
v 0.000 0.757 -0.000
v 0.000 0.757 -0.000
v 0.000 1.351 2.768
v 0.000 0.930 2.276
v 0.000 0.499 2.768
v 0.000 -0.012 2.195
v 0.000 0.499 2.276
v 0.000 0.499 2.276
v 0.000 -0.012 0.050
v 0.000 0.757 -0.000
v 0.000 0.757 -0.000
v 0.000 0.930 2.276
v 0.000 0.499 2.276
v 0.000 -0.012 0.050
v 0.000 0.499 2.276
v 0.000 -0.012 2.195
v 0.000 1.351 2.768
v 0.000 2.523 -0.000
v 0.000 2.523 2.768
v 0.000 2.523 -0.000
v 0.000 1.351 2.768
v 0.000 0.757 -0.000
v 4.154 2.082 1.324
v 4.719 2.030 2.736
v 6.102 1.903 2.736
v 4.154 2.082 1.324
v 6.102 1.903 0.050
v 4.601 2.041 0.050
v 6.102 1.903 0.050
v 4.154 2.082 1.324
v 6.102 1.903 2.736
v 1.952 2.284 0.050
v 4.154 2.082 1.324
v 4.601 2.041 0.050
v 4.154 2.082 1.324
v 1.952 2.284 0.050
v 2.516 2.232 1.465
v 2.516 2.232 1.465
v 1.952 2.284 0.050
v 0.571 2.411 0.050
v 2.516 2.232 1.465
v 0.571 2.411 2.736
v 2.066 2.274 2.736
v 0.571 2.411 2.736
v 2.516 2.232 1.465
v 0.571 2.411 0.050
v 4.719 2.030 2.736
v 2.516 2.232 1.465
v 2.066 2.274 2.736
v 2.516 2.232 1.465
v 4.719 2.030 2.736
v 4.154 2.082 1.324
v 6.102 0.930 2.276
v 6.102 1.903 0.050
v 6.102 1.903 2.736
v 6.102 1.903 2.736
v 6.102 0.930 2.736
v 6.102 0.930 2.276
v 6.102 0.499 2.276
v 6.102 0.499 2.736
v 6.102 0.146 2.736
v 6.102 1.903 0.050
v 6.102 0.930 2.276
v 6.102 0.240 0.050
v 6.102 0.499 2.276
v 6.102 0.146 2.736
v 6.102 0.240 0.050
v 6.102 0.240 0.050
v 6.102 0.930 2.276
v 6.102 0.499 2.276
v 6.102 -3.483 2.276
v 6.102 -1.825 1.039
v 6.102 -1.022 2.736
v 6.102 -1.022 2.736
v 6.102 -3.483 2.736
v 6.102 -3.483 2.276
v 6.102 -3.483 2.276
v 6.102 -3.644 2.276
v 6.102 -3.640 1.886
v 6.102 -1.825 1.039
v 6.102 -3.483 2.276
v 6.102 -3.640 1.886
v 6.102 0.146 2.736
v 6.102 -1.022 2.736
v 6.102 -1.825 1.039
v 6.102 -1.825 1.039
v 6.102 -1.601 0.050
v 6.102 0.240 0.050
v 6.102 0.240 0.050
v 6.102 0.146 2.736
v 6.102 -1.825 1.039
v 6.102 -1.825 1.039
v 6.102 -3.640 1.886
v 6.102 -4.070 1.234
v 6.102 -1.825 1.039
v 6.102 -4.048 0.050
v 6.102 -1.601 0.050
v 6.102 -4.048 0.050
v 6.102 -1.825 1.039
v 6.102 -4.070 1.234
v 6.102 -3.906 2.276
v 6.102 -3.640 1.886
v 6.102 -3.644 2.276
v 6.102 -3.906 2.276
v 6.102 -3.906 2.736
v 6.102 -6.160 2.736
v 6.102 -3.906 2.276
v 6.102 -6.160 1.585
v 6.102 -4.070 1.234
v 6.102 -3.640 1.886
v 6.102 -3.906 2.276
v 6.102 -4.070 1.234
v 6.102 -6.160 1.585
v 6.102 -3.906 2.276
v 6.102 -6.160 2.736
v 6.102 -4.070 1.234
v 6.102 -6.160 1.585
v 6.102 -6.160 0.050
v 6.102 -6.160 0.050
v 6.102 -4.048 0.050
v 6.102 -4.070 1.234
v 2.231 -6.160 2.736
v 0.571 -6.160 2.736
v 0.571 -6.160 0.050
v 0.571 -6.160 0.050
v 2.260 -6.160 0.050
v 2.231 -6.160 2.736
v 4.173 -6.160 1.401
v 6.102 -6.160 1.368
v 6.102 -6.160 2.736
v 6.102 -6.160 2.736
v 3.706 -6.160 2.736
v 4.173 -6.160 1.401
v 4.173 -6.160 1.401
v 3.668 -6.160 0.050
v 6.102 -6.160 0.050
v 6.102 -6.160 0.050
v 6.102 -6.160 1.368
v 4.173 -6.160 1.401
v 4.173 -6.160 1.401
v 3.706 -6.160 2.736
v 2.231 -6.160 2.736
v 4.173 -6.160 1.401
v 2.260 -6.160 0.050
v 3.668 -6.160 0.050
v 2.260 -6.160 0.050
v 4.173 -6.160 1.401
v 2.231 -6.160 2.736
v 0.571 -0.013 2.195
v 0.571 -0.012 2.195
v 0.000 -0.012 2.195
v 0.571 -0.013 2.195
v 0.000 -1.488 2.193
v 0.571 -1.488 2.193
v 0.000 -1.488 2.193
v 0.571 -0.013 2.195
v 0.000 -0.012 2.195
v 0.000 -0.012 1.121
v 0.571 -0.012 0.050
v -0.000 -0.012 0.050
v 0.571 -0.012 0.050
v 0.000 -0.012 1.121
v 0.571 -0.012 1.122
v 0.571 -0.012 1.122
v -0.000 -0.012 2.195
v 0.571 -0.012 2.195
v -0.000 -0.012 2.195
v 0.571 -0.012 1.122
v 0.000 -0.012 1.121
v 0.571 -1.488 1.123
v 0.571 -1.488 2.193
v 0.000 -1.488 2.193
v 0.000 -1.488 2.193
v 0.000 -1.488 1.121
v 0.571 -1.488 1.123
v 0.000 -1.488 1.121
v 0.000 -1.488 0.050
v 0.571 -1.488 0.050
v 0.571 -1.488 0.050
v 0.571 -1.488 1.123
v 0.000 -1.488 1.121
v 0.539 -0.096 0.050
v 0.571 -0.150 0.050
v 0.571 -0.077 0.050
v 0.571 -0.077 0.050
v 0.571 -0.041 0.050
v 0.523 -0.069 0.050
v 0.523 -0.069 0.050
v 0.539 -0.096 0.050
v 0.571 -0.077 0.050
v -4.416 2.881 1.100
v -4.510 1.985 1.100
v -6.131 2.156 1.100
v -6.131 2.156 1.100
v -6.037 3.051 1.100
v -4.416 2.881 1.100
v -4.416 2.881 0.000
v -6.037 3.051 1.100
v -6.037 3.051 0.000
v -6.037 3.051 1.100
v -4.416 2.881 0.000
v -4.416 2.881 1.100
v -4.510 1.985 1.100
v -4.416 2.881 0.000
v -4.510 1.985 -0.000
v -4.416 2.881 0.000
v -4.510 1.985 1.100
v -4.416 2.881 1.100
v -6.131 2.156 0.000
v -4.510 1.985 1.100
v -4.510 1.985 -0.000
v -4.510 1.985 1.100
v -6.131 2.156 0.000
v -6.131 2.156 1.100
v -6.131 2.156 0.000
v -6.037 3.051 1.100
v -6.131 2.156 1.100
v -6.037 3.051 1.100
v -6.131 2.156 0.000
v -6.037 3.051 0.000
v -6.152 -3.623 0.000
v -4.522 -3.623 1.100
v -4.522 -3.623 -0.000
v -4.522 -3.623 1.100
v -6.152 -3.623 0.000
v -6.152 -3.623 1.100
v -4.522 -3.053 0.000
v -6.152 -3.053 1.100
v -6.152 -3.053 -0.000
v -6.152 -3.053 1.100
v -4.522 -3.053 0.000
v -4.522 -3.053 1.100
v -5.339 -3.623 1.100
v -4.522 -3.053 1.100
v -4.522 -3.623 1.100
v -4.522 -3.053 1.100
v -5.339 -3.623 1.100
v -5.341 -3.053 1.100
v -5.341 -3.053 1.100
v -6.152 -3.623 1.100
v -6.152 -3.053 1.100
v -6.152 -3.623 1.100
v -5.341 -3.053 1.100
v -5.339 -3.623 1.100
v -4.522 -3.623 1.100
v -4.522 -3.053 0.000
v -4.522 -3.623 -0.000
v -4.522 -3.053 0.000
v -4.522 -3.623 1.100
v -4.522 -3.053 1.100
v -6.152 -3.623 0.000
v -6.152 -3.053 1.100
v -6.152 -3.623 1.100
v -6.152 -3.053 1.100
v -6.152 -3.623 0.000
v -6.152 -3.053 -0.000
v -0.115 1.598 1.100
v -0.051 2.496 0.000
v -0.115 1.598 -0.000
v -0.051 2.496 0.000
v -0.115 1.598 1.100
v -0.051 2.496 1.100
v -0.051 2.496 1.100
v -0.115 1.598 1.100
v -1.741 1.715 1.100
v -1.741 1.715 1.100
v -1.677 2.612 1.100
v -0.051 2.496 1.100
v -0.051 2.496 0.000
v -1.677 2.612 1.100
v -1.677 2.612 -0.000
v -1.677 2.612 1.100
v -0.051 2.496 0.000
v -0.051 2.496 1.100
v -1.741 1.715 0.000
v -1.677 2.612 1.100
v -1.741 1.715 1.100
v -1.677 2.612 1.100
v -1.741 1.715 0.000
v -1.677 2.612 0.000
v -0.013 -3.613 1.100
v -0.013 -1.983 0.000
v -0.013 -3.613 -0.000
v -0.013 -1.983 0.000
v -0.013 -3.613 1.100
v -0.013 -1.983 1.100
v -0.013 -1.983 0.000
v -0.913 -1.983 1.100
v -0.913 -1.983 0.000
v -0.913 -1.983 1.100
v -0.013 -1.983 0.000
v -0.013 -1.983 1.100
v -0.913 -2.798 1.100
v -0.913 -1.983 1.100
v -0.013 -1.983 1.100
v -0.913 -2.798 1.100
v -0.013 -3.613 1.100
v -1.151 -3.613 1.100
v -1.151 -3.613 1.100
v -1.350 -2.798 1.100
v -0.913 -2.798 1.100
v -0.013 -3.613 1.100
v -0.913 -2.798 1.100
v -0.013 -1.983 1.100
v -1.350 -2.798 1.100
v -2.803 -3.613 1.100
v -2.803 -2.798 1.100
v -2.803 -3.613 1.100
v -1.350 -2.798 1.100
v -1.151 -3.613 1.100
v -2.803 -3.613 0.000
v -0.013 -3.613 1.100
v -0.013 -3.613 0.000
v -0.013 -3.613 1.100
v -2.803 -3.613 0.000
v -2.803 -3.613 1.100
v -5.442 1.479 -0.000
v -5.442 1.479 1.000
v -5.442 -0.091 1.000
v -5.442 -0.091 1.000
v -5.442 -0.091 0.000
v -5.442 1.479 -0.000
v -5.442 -0.091 0.720
v -5.442 -0.091 1.000
v -5.342 -0.091 1.000
v -5.342 -0.091 1.000
v -5.342 -0.091 0.713
v -5.442 -0.091 0.720
v -5.342 -0.091 0.442
v -5.342 -0.091 0.188
v -5.442 -0.091 0.200
v -5.442 -0.091 0.200
v -5.442 -0.091 0.437
v -5.342 -0.091 0.442
v -5.342 -0.091 0.713
v -5.342 -0.091 0.442
v -5.442 -0.091 0.437
v -5.442 -0.091 0.437
v -5.442 -0.091 0.720
v -5.342 -0.091 0.713
v -5.342 -0.091 0.188
v -5.342 -0.091 -0.000
v -5.442 -0.091 -0.000
v -5.442 -0.091 -0.000
v -5.442 -0.091 0.200
v -5.342 -0.091 0.188
v -5.442 0.316 1.000
v -5.342 -0.091 1.000
v -5.442 -0.091 1.000
v -5.342 -0.091 1.000
v -5.442 0.316 1.000
v -5.342 0.322 1.000
v -5.442 0.675 1.000
v -5.442 0.967 1.000
v -5.342 0.974 1.000
v -5.342 0.974 1.000
v -5.342 0.666 1.000
v -5.442 0.675 1.000
v -5.442 0.316 1.000
v -5.442 0.675 1.000
v -5.342 0.666 1.000
v -5.342 0.666 1.000
v -5.342 0.322 1.000
v -5.442 0.316 1.000
v -5.342 0.974 1.000
v -5.442 1.230 1.000
v -5.342 1.237 1.000
v -5.442 1.230 1.000
v -5.342 0.974 1.000
v -5.442 0.967 1.000
v -5.342 1.237 1.000
v -5.442 1.479 1.000
v -5.342 1.479 1.000
v -5.442 1.479 1.000
v -5.342 1.237 1.000
v -5.442 1.230 1.000
v -5.342 1.479 1.000
v -5.342 1.479 0.000
v -5.342 -0.091 0.000
v -5.342 -0.091 0.000
v -5.342 -0.091 1.000
v -5.342 1.479 1.000
v -5.342 1.479 0.759
v -5.342 1.479 1.000
v -5.442 1.479 1.000
v -5.442 1.479 1.000
v -5.442 1.479 0.749
v -5.342 1.479 0.759
v -5.442 1.479 0.749
v -5.442 1.479 0.494
v -5.342 1.479 0.486
v -5.342 1.479 0.486
v -5.342 1.479 0.759
v -5.442 1.479 0.749
v -5.442 1.479 0.494
v -5.442 1.479 0.226
v -5.342 1.479 0.237
v -5.342 1.479 0.237
v -5.342 1.479 0.486
v -5.442 1.479 0.494
v -5.442 1.479 0.226
v -5.442 1.479 -0.000
v -5.342 1.479 -0.000
v -5.342 1.479 -0.000
v -5.342 1.479 0.237
v -5.442 1.479 0.226
v -3.556 2.559 1.000
v -3.509 2.471 0.800
v -3.509 2.471 1.000
v -3.509 2.471 0.800
v -3.556 2.559 1.000
v -3.556 2.559 0.800
v -3.509 2.471 0.575
v -3.556 2.559 0.800
v -3.556 2.559 0.575
v -3.556 2.559 0.800
v -3.509 2.471 0.575
v -3.509 2.471 0.800
v -3.556 2.559 0.575
v -3.556 2.559 0.312
v -3.509 2.471 0.312
v -3.509 2.471 0.312
v -3.509 2.471 0.575
v -3.556 2.559 0.575
v -3.556 2.559 0.312
v -3.556 2.559 0.000
v -3.509 2.471 0.000
v -3.509 2.471 0.000
v -3.509 2.471 0.312
v -3.556 2.559 0.312
v -4.372 1.972 1.000
v -3.509 2.471 0.000
v -4.372 1.972 0.000
v -3.509 2.471 0.000
v -4.372 1.972 1.000
v -3.509 2.471 1.000
v -4.190 2.193 1.000
v -4.372 1.972 1.000
v -4.422 2.059 1.000
v -4.372 1.972 1.000
v -4.190 2.193 1.000
v -4.134 2.109 1.000
v -3.922 2.232 1.000
v -3.767 2.437 1.000
v -3.709 2.356 1.000
v -3.767 2.437 1.000
v -3.922 2.232 1.000
v -3.967 2.322 1.000
v -4.134 2.109 1.000
v -3.967 2.322 1.000
v -3.922 2.232 1.000
v -3.967 2.322 1.000
v -4.134 2.109 1.000
v -4.190 2.193 1.000
v -3.709 2.356 1.000
v -3.556 2.559 1.000
v -3.509 2.471 1.000
v -3.556 2.559 1.000
v -3.709 2.356 1.000
v -3.767 2.437 1.000
v -4.372 1.972 0.728
v -4.422 2.059 1.000
v -4.372 1.972 1.000
v -4.422 2.059 1.000
v -4.372 1.972 0.728
v -4.422 2.059 0.720
v -4.422 2.059 0.477
v -4.372 1.972 0.231
v -4.422 2.059 0.221
v -4.372 1.972 0.231
v -4.422 2.059 0.477
v -4.372 1.972 0.469
v -4.372 1.972 0.728
v -4.372 1.972 0.469
v -4.422 2.059 0.477
v -4.422 2.059 0.477
v -4.422 2.059 0.720
v -4.372 1.972 0.728
v -4.422 2.059 0.221
v -4.372 1.972 0.000
v -4.422 2.059 0.000
v -4.372 1.972 0.000
v -4.422 2.059 0.221
v -4.372 1.972 0.231
v -3.556 2.559 0.000
v -4.422 2.059 1.000
v -4.422 2.059 0.000
v -4.422 2.059 1.000
v -3.556 2.559 0.000
v -3.556 2.559 1.000
v -2.509 2.462 0.229
v -2.509 2.562 0.000
v -2.509 2.462 0.000
v -2.509 2.562 0.000
v -2.509 2.462 0.229
v -2.509 2.562 0.239
v -2.509 2.562 0.477
v -2.509 2.462 0.752
v -2.509 2.562 0.760
v -2.509 2.462 0.752
v -2.509 2.562 0.477
v -2.509 2.462 0.483
v -2.509 2.562 0.239
v -2.509 2.462 0.483
v -2.509 2.562 0.477
v -2.509 2.462 0.483
v -2.509 2.562 0.239
v -2.509 2.462 0.229
v -2.509 2.562 0.760
v -2.509 2.462 1.000
v -2.509 2.562 1.000
v -2.509 2.462 1.000
v -2.509 2.562 0.760
v -2.509 2.462 0.752
v -2.509 2.562 0.000
v -3.509 2.562 1.000
v -3.509 2.562 0.000
v -3.509 2.562 1.000
v -2.509 2.562 0.000
v -2.509 2.562 1.000
v -3.509 2.562 0.725
v -3.509 2.562 1.000
v -3.509 2.471 1.000
v -3.509 2.471 1.000
v -3.509 2.462 1.000
v -3.509 2.462 0.726
v -3.509 2.462 0.726
v -3.509 2.562 0.725
v -3.509 2.471 1.000
v -3.509 2.562 0.725
v -3.509 2.462 0.476
v -3.509 2.562 0.475
v -3.509 2.462 0.476
v -3.509 2.562 0.725
v -3.509 2.462 0.726
v -3.509 2.562 0.475
v -3.509 2.462 0.226
v -3.509 2.562 0.225
v -3.509 2.462 0.226
v -3.509 2.562 0.475
v -3.509 2.462 0.476
v -3.509 2.462 0.226
v -3.509 2.462 -0.000
v -3.509 2.471 -0.000
v -3.509 2.471 -0.000
v -3.509 2.562 -0.000
v -3.509 2.562 0.225
v -3.509 2.562 0.225
v -3.509 2.462 0.226
v -3.509 2.471 -0.000
v -3.509 2.462 0.000
v -2.509 2.462 1.000
v -2.509 2.462 0.000
v -2.509 2.462 1.000
v -3.509 2.462 0.000
v -3.509 2.462 1.000
v -2.858 2.562 1.000
v -2.509 2.562 1.000
v -2.509 2.462 1.000
v -2.509 2.462 1.000
v -2.859 2.462 1.000
v -2.858 2.562 1.000
v -2.859 2.462 1.000
v -3.122 2.462 1.000
v -3.121 2.562 1.000
v -3.121 2.562 1.000
v -2.858 2.562 1.000
v -2.859 2.462 1.000
v -3.122 2.462 1.000
v -3.334 2.462 1.000
v -3.333 2.562 1.000
v -3.333 2.562 1.000
v -3.121 2.562 1.000
v -3.122 2.462 1.000
v -3.334 2.462 1.000
v -3.509 2.462 1.000
v -3.509 2.471 1.000
v -3.509 2.471 1.000
v -3.509 2.562 1.000
v -3.333 2.562 1.000
v -3.333 2.562 1.000
v -3.334 2.462 1.000
v -3.509 2.471 1.000
v -1.949 1.945 1.000
v -1.784 1.729 1.000
v -1.864 1.668 1.000
v -1.864 1.668 1.000
v -2.033 1.890 1.000
v -1.949 1.945 1.000
v -2.181 2.084 1.000
v -2.336 2.288 1.000
v -2.250 2.340 1.000
v -2.250 2.340 1.000
v -2.106 2.151 1.000
v -2.181 2.084 1.000
v -1.949 1.945 1.000
v -2.181 2.084 1.000
v -2.106 2.151 1.000
v -2.181 2.084 1.000
v -1.949 1.945 1.000
v -2.033 1.890 1.000
v -2.336 2.288 1.000
v -2.470 2.464 1.000
v -2.390 2.524 1.000
v -2.390 2.524 1.000
v -2.250 2.340 1.000
v -2.336 2.288 1.000
v -1.784 1.729 1.000
v -2.390 2.524 0.000
v -1.784 1.729 -0.000
v -2.390 2.524 0.000
v -1.784 1.729 1.000
v -2.390 2.524 1.000
v -1.864 1.668 0.000
v -2.470 2.464 1.000
v -1.864 1.668 1.000
v -2.470 2.464 1.000
v -1.864 1.668 0.000
v -2.470 2.464 0.000
v -2.390 2.524 0.759
v -2.390 2.524 1.000
v -2.470 2.464 1.000
v -2.470 2.464 1.000
v -2.470 2.464 0.749
v -2.390 2.524 0.759
v -2.470 2.464 0.749
v -2.470 2.464 0.494
v -2.390 2.524 0.486
v -2.390 2.524 0.486
v -2.390 2.524 0.759
v -2.470 2.464 0.749
v -2.470 2.464 0.494
v -2.470 2.464 0.226
v -2.390 2.524 0.237
v -2.390 2.524 0.237
v -2.390 2.524 0.486
v -2.470 2.464 0.494
v -2.470 2.464 0.226
v -2.470 2.464 -0.000
v -2.390 2.524 -0.000
v -2.390 2.524 -0.000
v -2.390 2.524 0.237
v -2.470 2.464 0.226
v -1.864 1.668 0.691
v -1.864 1.668 1.000
v -1.784 1.729 1.000
v -1.784 1.729 1.000
v -1.784 1.729 0.686
v -1.864 1.668 0.691
v -1.784 1.729 0.427
v -1.784 1.729 0.183
v -1.864 1.668 0.194
v -1.864 1.668 0.194
v -1.864 1.668 0.423
v -1.784 1.729 0.427
v -1.784 1.729 0.686
v -1.784 1.729 0.427
v -1.864 1.668 0.423
v -1.864 1.668 0.423
v -1.864 1.668 0.691
v -1.784 1.729 0.686
v -1.784 1.729 0.183
v -1.784 1.729 0.000
v -1.864 1.668 0.000
v -1.864 1.668 0.000
v -1.864 1.668 0.194
v -1.784 1.729 0.183
v -5.117 1.687 1.000
v -5.281 1.514 1.000
v -5.318 1.607 1.000
v -5.281 1.514 1.000
v -5.117 1.687 1.000
v -5.071 1.598 1.000
v -4.914 1.768 1.000
v -4.674 1.864 1.000
v -4.632 1.772 1.000
v -4.632 1.772 1.000
v -4.882 1.673 1.000
v -4.914 1.768 1.000
v -5.071 1.598 1.000
v -4.914 1.768 1.000
v -4.882 1.673 1.000
v -4.914 1.768 1.000
v -5.071 1.598 1.000
v -5.117 1.687 1.000
v -4.632 1.772 1.000
v -4.389 1.977 1.000
v -4.352 1.884 1.000
v -4.389 1.977 1.000
v -4.632 1.772 1.000
v -4.674 1.864 1.000
v -5.281 1.514 1.000
v -4.352 1.884 1.000
v -4.352 1.884 -0.000
v -4.352 1.884 -0.000
v -5.281 1.514 -0.000
v -5.281 1.514 1.000
v -5.281 1.514 0.716
v -5.318 1.607 1.000
v -5.281 1.514 1.000
v -5.318 1.607 1.000
v -5.281 1.514 0.716
v -5.318 1.607 0.710
v -5.318 1.607 0.445
v -5.281 1.514 0.207
v -5.318 1.607 0.195
v -5.281 1.514 0.207
v -5.318 1.607 0.445
v -5.281 1.514 0.440
v -5.318 1.607 0.710
v -5.281 1.514 0.440
v -5.318 1.607 0.445
v -5.281 1.514 0.440
v -5.318 1.607 0.710
v -5.281 1.514 0.716
v -5.318 1.607 0.195
v -5.281 1.514 0.000
v -5.318 1.607 0.000
v -5.281 1.514 0.000
v -5.318 1.607 0.195
v -5.281 1.514 0.207
v -4.389 1.977 -0.000
v -5.318 1.607 1.000
v -5.318 1.607 -0.000
v -5.318 1.607 1.000
v -4.389 1.977 -0.000
v -4.389 1.977 1.000
v -4.352 1.884 0.191
v -4.389 1.977 0.000
v -4.352 1.884 -0.000
v -4.389 1.977 0.000
v -4.352 1.884 0.191
v -4.389 1.977 0.201
v -4.389 1.977 0.430
v -4.352 1.884 0.718
v -4.389 1.977 0.723
v -4.352 1.884 0.718
v -4.389 1.977 0.430
v -4.352 1.884 0.433
v -4.389 1.977 0.201
v -4.352 1.884 0.433
v -4.389 1.977 0.430
v -4.352 1.884 0.433
v -4.389 1.977 0.201
v -4.352 1.884 0.191
v -4.389 1.977 0.723
v -4.352 1.884 1.000
v -4.389 1.977 1.000
v -4.352 1.884 1.000
v -4.389 1.977 0.723
v -4.352 1.884 0.718
v -0.913 -2.798 0.000
v -0.913 -1.983 1.100
v -0.913 -2.798 1.100
v -0.913 -1.983 1.100
v -0.913 -2.798 0.000
v -0.913 -1.983 -0.000
v -2.803 -3.613 0.000
v -2.803 -2.798 1.100
v -2.803 -3.613 1.100
v -2.803 -2.798 1.100
v -2.803 -3.613 0.000
v -2.803 -2.798 -0.000
v -0.913 -2.798 0.000
v -2.803 -2.798 1.100
v -2.803 -2.798 -0.000
v -2.803 -2.798 1.100
v -0.913 -2.798 0.000
v -0.913 -2.798 1.100
v 0.571 2.411 1.150
v 0.571 2.411 0.050
v 0.571 0.043 0.050
v 0.571 0.043 0.050
v 0.571 -0.012 0.050
v 0.571 -0.012 1.559
v 0.571 -0.012 1.559
v 0.571 2.411 1.150
v 0.571 0.043 0.050
v 0.571 0.499 2.276
v 0.571 -0.012 2.195
v 0.571 0.499 2.736
v 0.571 0.930 2.276
v 0.571 0.930 2.736
v 0.571 2.411 2.736
v 0.571 0.930 2.276
v 0.571 2.411 1.150
v 0.571 -0.012 1.559
v 0.571 -0.012 2.195
v 0.571 0.499 2.276
v 0.571 -0.012 1.559
v 0.571 2.411 1.150
v 0.571 0.930 2.276
v 0.571 2.411 2.736
v 0.571 -0.012 1.559
v 0.571 0.499 2.276
v 0.571 0.930 2.276
v 0.571 -1.488 2.193
v 0.571 0.499 2.736
v 0.571 -0.014 2.195
v 0.571 -1.488 2.193
v 0.571 -1.488 0.874
v 0.571 -2.986 2.736
v 0.571 0.499 2.736
v 0.571 -1.488 2.193
v 0.571 -2.986 2.736
v 0.571 -4.030 1.338
v 0.571 -3.617 2.276
v 0.571 -3.483 2.276
v 0.571 -2.986 2.736
v 0.571 -3.483 2.581
v 0.571 -3.415 2.736
v 0.571 -3.483 2.276
v 0.571 -2.986 2.736
v 0.571 -1.488 0.874
v 0.571 -1.488 0.874
v 0.571 -1.488 0.050
v 0.571 -3.785 0.050
v 0.571 -1.488 0.874
v 0.571 -4.030 1.338
v 0.571 -3.483 2.276
v 0.571 -3.483 2.581
v 0.571 -2.986 2.736
v 0.571 -3.483 2.276
v 0.571 -4.030 1.338
v 0.571 -1.488 0.874
v 0.571 -3.785 0.050
v 0.571 -3.483 2.581
v 0.571 -3.483 2.736
v 0.571 -3.415 2.736
v 0.571 -3.906 2.276
v 0.571 -6.160 1.445
v 0.571 -6.160 2.736
v 0.571 -6.160 2.736
v 0.571 -3.906 2.736
v 0.571 -3.906 2.276
v 0.571 -3.906 2.276
v 0.571 -3.617 2.276
v 0.571 -4.030 1.338
v 0.571 -6.160 1.445
v 0.571 -3.906 2.276
v 0.571 -4.030 1.338
v 0.571 -4.030 1.338
v 0.571 -3.785 0.050
v 0.571 -6.160 0.050
v 0.571 -6.160 0.050
v 0.571 -6.160 1.445
v 0.571 -4.030 1.338
v 0.588 -0.031 1.917
v 0.588 -0.031 2.190
v 0.523 -0.069 2.190
v 0.523 -0.069 2.190
v 0.523 -0.069 1.915
v 0.588 -0.031 1.917
v 0.523 -0.069 1.915
v 0.523 -0.069 1.665
v 0.588 -0.031 1.667
v 0.588 -0.031 1.667
v 0.588 -0.031 1.917
v 0.523 -0.069 1.915
v 0.588 -0.031 1.180
v 0.523 -0.069 0.990
v 0.588 -0.031 0.992
v 0.523 -0.069 0.990
v 0.588 -0.031 1.180
v 0.523 -0.069 1.184
v 0.523 -0.069 1.665
v 0.523 -0.069 1.408
v 0.588 -0.031 1.407
v 0.588 -0.031 1.407
v 0.588 -0.031 1.667
v 0.523 -0.069 1.665
v 0.588 -0.031 1.407
v 0.523 -0.069 1.184
v 0.588 -0.031 1.180
v 0.523 -0.069 1.184
v 0.588 -0.031 1.407
v 0.523 -0.069 1.408
v 0.588 -0.031 0.566
v 0.523 -0.069 0.354
v 0.588 -0.031 0.352
v 0.523 -0.069 0.354
v 0.588 -0.031 0.566
v 0.523 -0.069 0.564
v 0.523 -0.069 0.990
v 0.523 -0.069 0.777
v 0.588 -0.031 0.779
v 0.588 -0.031 0.779
v 0.588 -0.031 0.992
v 0.523 -0.069 0.990
v 0.523 -0.069 0.354
v 0.523 -0.069 0.050
v 0.571 -0.041 0.050
v 0.588 -0.031 0.352
v 0.583 -0.034 0.050
v 0.588 -0.031 0.050
v 0.571 -0.041 0.050
v 0.588 -0.031 0.352
v 0.523 -0.069 0.354
v 0.588 -0.031 0.352
v 0.571 -0.041 0.050
v 0.572 -0.041 0.050
v 0.588 -0.031 0.352
v 0.572 -0.041 0.050
v 0.583 -0.034 0.050
v 0.523 -0.069 0.777
v 0.523 -0.069 0.564
v 0.588 -0.031 0.566
v 0.588 -0.031 0.566
v 0.588 -0.031 0.779
v 0.523 -0.069 0.777
v 0.573 0.044 2.220
v 0.573 0.044 0.050
v 1.367 -1.310 0.050
v 1.367 -1.310 0.050
v 1.367 -1.310 2.220
v 0.573 0.044 2.220
v 0.573 0.044 0.187
v 0.573 0.044 0.312
v 0.547 0.029 0.312
v 0.547 0.029 0.312
v 0.547 0.029 0.187
v 0.573 0.044 0.187
v 0.547 0.029 0.187
v 0.547 0.029 0.050
v 0.573 0.044 0.050
v 0.573 0.044 0.050
v 0.573 0.044 0.187
v 0.547 0.029 0.187
v 0.547 0.029 0.431
v 0.573 0.044 0.312
v 0.573 0.044 0.431
v 0.573 0.044 0.312
v 0.547 0.029 0.431
v 0.547 0.029 0.312
v 0.573 0.044 0.431
v 0.573 0.044 0.531
v 0.547 0.029 0.531
v 0.547 0.029 0.531
v 0.547 0.029 0.431
v 0.573 0.044 0.431
v 0.573 0.044 0.531
v 0.573 0.044 0.613
v 0.547 0.029 0.613
v 0.547 0.029 0.613
v 0.547 0.029 0.531
v 0.573 0.044 0.531
v 0.573 0.044 0.613
v 0.573 0.044 0.694
v 0.547 0.029 0.694
v 0.547 0.029 0.694
v 0.547 0.029 0.613
v 0.573 0.044 0.613
v 0.573 0.044 0.694
v 0.573 0.044 0.788
v 0.547 0.029 0.788
v 0.547 0.029 0.788
v 0.547 0.029 0.694
v 0.573 0.044 0.694
v 0.573 0.044 0.788
v 0.573 0.044 0.881
v 0.547 0.029 0.881
v 0.547 0.029 0.881
v 0.547 0.029 0.788
v 0.573 0.044 0.788
v 0.573 0.044 0.881
v 0.573 0.044 0.969
v 0.547 0.029 0.969
v 0.547 0.029 0.969
v 0.547 0.029 0.881
v 0.573 0.044 0.881
v 0.547 0.029 1.056
v 0.573 0.044 0.969
v 0.573 0.044 1.056
v 0.573 0.044 0.969
v 0.547 0.029 1.056
v 0.547 0.029 0.969
v 0.573 0.044 1.056
v 0.573 0.044 1.137
v 0.547 0.029 1.137
v 0.547 0.029 1.137
v 0.547 0.029 1.056
v 0.573 0.044 1.056
v 0.573 0.044 1.137
v 0.573 0.044 1.213
v 0.547 0.029 1.213
v 0.547 0.029 1.213
v 0.547 0.029 1.137
v 0.573 0.044 1.137
v 0.573 0.044 1.213
v 0.573 0.044 1.288
v 0.547 0.029 1.288
v 0.547 0.029 1.288
v 0.547 0.029 1.213
v 0.573 0.044 1.213
v 0.573 0.044 1.288
v 0.573 0.044 1.369
v 0.547 0.029 1.369
v 0.547 0.029 1.369
v 0.547 0.029 1.288
v 0.573 0.044 1.288
v 0.573 0.044 1.369
v 0.573 0.044 1.463
v 0.547 0.029 1.463
v 0.547 0.029 1.463
v 0.547 0.029 1.369
v 0.573 0.044 1.369
v 0.573 0.044 1.463
v 0.573 0.044 1.563
v 0.547 0.029 1.563
v 0.547 0.029 1.563
v 0.547 0.029 1.463
v 0.573 0.044 1.463
v 0.547 0.029 1.656
v 0.573 0.044 1.563
v 0.573 0.044 1.656
v 0.573 0.044 1.563
v 0.547 0.029 1.656
v 0.547 0.029 1.563
v 0.547 0.029 1.744
v 0.573 0.044 1.656
v 0.573 0.044 1.744
v 0.573 0.044 1.656
v 0.547 0.029 1.744
v 0.547 0.029 1.656
v 0.573 0.044 1.744
v 0.573 0.044 1.844
v 0.547 0.029 1.844
v 0.547 0.029 1.844
v 0.547 0.029 1.744
v 0.573 0.044 1.744
v 0.573 0.044 1.844
v 0.573 0.044 1.950
v 0.547 0.029 1.950
v 0.547 0.029 1.950
v 0.547 0.029 1.844
v 0.573 0.044 1.844
v 0.573 0.044 1.950
v 0.573 0.044 2.044
v 0.547 0.029 2.044
v 0.547 0.029 2.044
v 0.547 0.029 1.950
v 0.573 0.044 1.950
v 0.547 0.029 2.044
v 0.573 0.044 2.131
v 0.547 0.029 2.131
v 0.573 0.044 2.131
v 0.547 0.029 2.044
v 0.573 0.044 2.044
v 0.547 0.029 2.131
v 0.573 0.044 2.220
v 0.547 0.029 2.220
v 0.573 0.044 2.220
v 0.547 0.029 2.131
v 0.573 0.044 2.131
v 0.572 -0.152 0.050
v 1.247 -1.302 2.190
v 1.247 -1.302 0.050
v 0.523 -0.069 2.190
v 0.572 -0.152 0.050
v 0.571 -0.150 0.050
v 0.571 -0.150 0.050
v 0.523 -0.069 0.050
v 0.523 -0.069 2.190
v 0.572 -0.152 0.050
v 0.523 -0.069 2.190
v 1.247 -1.302 2.190
v 1.252 -1.308 1.965
v 1.252 -1.308 2.190
v 1.311 -1.264 2.190
v 1.311 -1.264 2.190
v 1.311 -1.264 1.965
v 1.252 -1.308 1.965
v 1.311 -1.264 1.965
v 1.311 -1.264 1.752
v 1.252 -1.308 1.753
v 1.252 -1.308 1.753
v 1.252 -1.308 1.965
v 1.311 -1.264 1.965
v 1.311 -1.264 1.752
v 1.311 -1.264 1.540
v 1.252 -1.308 1.540
v 1.252 -1.308 1.540
v 1.252 -1.308 1.753
v 1.311 -1.264 1.752
v 1.311 -1.264 1.540
v 1.311 -1.264 1.352
v 1.252 -1.308 1.353
v 1.252 -1.308 1.353
v 1.252 -1.308 1.540
v 1.311 -1.264 1.540
v 1.311 -1.264 1.352
v 1.311 -1.264 1.177
v 1.252 -1.308 1.178
v 1.252 -1.308 1.178
v 1.252 -1.308 1.353
v 1.311 -1.264 1.352
v 1.311 -1.264 1.177
v 1.311 -1.264 1.002
v 1.252 -1.308 1.003
v 1.252 -1.308 1.003
v 1.252 -1.308 1.178
v 1.311 -1.264 1.177
v 1.311 -1.264 1.002
v 1.311 -1.264 0.815
v 1.252 -1.308 0.815
v 1.252 -1.308 0.815
v 1.252 -1.308 1.003
v 1.311 -1.264 1.002
v 1.311 -1.264 0.815
v 1.311 -1.264 0.590
v 1.252 -1.308 0.590
v 1.252 -1.308 0.590
v 1.252 -1.308 0.815
v 1.311 -1.264 0.815
v 1.311 -1.264 0.590
v 1.311 -1.264 0.327
v 1.252 -1.308 0.328
v 1.252 -1.308 0.328
v 1.252 -1.308 0.590
v 1.311 -1.264 0.590
v 1.311 -1.264 0.327
v 1.311 -1.264 0.050
v 1.307 -1.267 0.050
v 1.307 -1.267 0.050
v 1.252 -1.308 0.050
v 1.252 -1.308 0.328
v 1.252 -1.308 0.328
v 1.311 -1.264 0.327
v 1.307 -1.267 0.050
v 1.307 -1.267 0.050
v 1.341 -1.326 2.220
v 1.341 -1.326 0.050
v 0.547 0.029 2.220
v 0.572 -0.014 0.050
v 0.571 -0.012 0.050
v 0.571 -0.012 0.050
v 0.547 0.029 0.050
v 0.547 0.029 2.220
v 0.584 -0.034 0.050
v 1.341 -1.326 2.220
v 1.307 -1.267 0.050
v 0.572 -0.014 0.050
v 0.547 0.029 2.220
v 0.584 -0.034 0.050
v 1.341 -1.326 2.220
v 0.584 -0.034 0.050
v 0.547 0.029 2.220
v 1.218 -1.106 2.190
v 1.311 -1.264 2.190
v 1.247 -1.302 2.190
v 1.247 -1.302 2.190
v 1.152 -1.140 2.190
v 1.218 -1.106 2.190
v 1.152 -1.140 2.190
v 1.054 -0.973 2.190
v 1.118 -0.934 2.190
v 1.118 -0.934 2.190
v 1.218 -1.106 2.190
v 1.152 -1.140 2.190
v 1.118 -0.934 2.190
v 0.952 -0.800 2.190
v 1.017 -0.762 2.190
v 0.952 -0.800 2.190
v 1.118 -0.934 2.190
v 1.054 -0.973 2.190
v 0.921 -0.598 2.190
v 0.755 -0.464 2.190
v 0.817 -0.422 2.190
v 0.755 -0.464 2.190
v 0.921 -0.598 2.190
v 0.854 -0.633 2.190
v 0.817 -0.422 2.190
v 0.645 -0.277 2.190
v 0.712 -0.242 2.190
v 0.645 -0.277 2.190
v 0.817 -0.422 2.190
v 0.755 -0.464 2.190
v 0.952 -0.800 2.190
v 0.854 -0.633 2.190
v 0.921 -0.598 2.190
v 0.921 -0.598 2.190
v 1.017 -0.762 2.190
v 0.952 -0.800 2.190
v 0.645 -0.277 2.190
v 0.523 -0.069 2.190
v 0.588 -0.031 2.190
v 0.588 -0.031 2.190
v 0.712 -0.242 2.190
v 0.645 -0.277 2.190
v 1.341 -1.326 2.108
v 1.341 -1.326 2.220
v 1.367 -1.310 2.220
v 1.367 -1.310 2.220
v 1.367 -1.310 2.107
v 1.341 -1.326 2.108
v 1.367 -1.310 2.107
v 1.367 -1.310 2.007
v 1.341 -1.326 2.008
v 1.341 -1.326 2.008
v 1.341 -1.326 2.108
v 1.367 -1.310 2.107
v 1.367 -1.310 2.007
v 1.367 -1.310 1.914
v 1.341 -1.326 1.914
v 1.341 -1.326 1.914
v 1.341 -1.326 2.008
v 1.367 -1.310 2.007
v 1.367 -1.310 1.914
v 1.367 -1.310 1.839
v 1.341 -1.326 1.839
v 1.341 -1.326 1.839
v 1.341 -1.326 1.914
v 1.367 -1.310 1.914
v 1.367 -1.310 1.839
v 1.367 -1.310 1.776
v 1.341 -1.326 1.777
v 1.341 -1.326 1.777
v 1.341 -1.326 1.839
v 1.367 -1.310 1.839
v 1.367 -1.310 1.776
v 1.367 -1.310 1.707
v 1.341 -1.326 1.708
v 1.341 -1.326 1.708
v 1.341 -1.326 1.777
v 1.367 -1.310 1.776
v 1.367 -1.310 1.707
v 1.367 -1.310 1.626
v 1.341 -1.326 1.627
v 1.341 -1.326 1.627
v 1.341 -1.326 1.708
v 1.367 -1.310 1.707
v 1.367 -1.310 1.626
v 1.367 -1.310 1.532
v 1.341 -1.326 1.533
v 1.341 -1.326 1.533
v 1.341 -1.326 1.627
v 1.367 -1.310 1.626
v 1.367 -1.310 0.714
v 1.341 -1.326 0.789
v 1.367 -1.310 0.790
v 1.341 -1.326 0.789
v 1.367 -1.310 0.714
v 1.341 -1.326 0.714
v 1.367 -1.310 1.532
v 1.367 -1.310 1.439
v 1.341 -1.326 1.439
v 1.341 -1.326 1.439
v 1.341 -1.326 1.533
v 1.367 -1.310 1.532
v 1.367 -1.310 1.439
v 1.367 -1.310 1.357
v 1.341 -1.326 1.358
v 1.341 -1.326 1.358
v 1.341 -1.326 1.439
v 1.367 -1.310 1.439
v 1.367 -1.310 1.357
v 1.367 -1.310 1.270
v 1.341 -1.326 1.270
v 1.341 -1.326 1.270
v 1.341 -1.326 1.358
v 1.367 -1.310 1.357
v 1.367 -1.310 1.270
v 1.367 -1.310 1.157
v 1.341 -1.326 1.158
v 1.341 -1.326 1.158
v 1.341 -1.326 1.270
v 1.367 -1.310 1.270
v 1.367 -1.310 1.157
v 1.367 -1.310 1.032
v 1.341 -1.326 1.033
v 1.341 -1.326 1.033
v 1.341 -1.326 1.158
v 1.367 -1.310 1.157
v 1.341 -1.326 0.902
v 1.367 -1.310 0.790
v 1.341 -1.326 0.789
v 1.367 -1.310 0.790
v 1.341 -1.326 0.902
v 1.367 -1.310 0.903
v 1.341 -1.326 1.033
v 1.367 -1.310 0.903
v 1.341 -1.326 0.902
v 1.367 -1.310 0.903
v 1.341 -1.326 1.033
v 1.367 -1.310 1.032
v 1.367 -1.310 0.651
v 1.367 -1.310 0.576
v 1.341 -1.326 0.577
v 1.341 -1.326 0.577
v 1.341 -1.326 0.652
v 1.367 -1.310 0.651
v 1.367 -1.310 0.714
v 1.367 -1.310 0.651
v 1.341 -1.326 0.652
v 1.341 -1.326 0.652
v 1.341 -1.326 0.714
v 1.367 -1.310 0.714
v 1.367 -1.310 0.264
v 1.341 -1.326 0.379
v 1.367 -1.310 0.381
v 1.341 -1.326 0.379
v 1.367 -1.310 0.264
v 1.341 -1.326 0.264
v 1.341 -1.326 0.577
v 1.367 -1.310 0.487
v 1.341 -1.326 0.486
v 1.367 -1.310 0.487
v 1.341 -1.326 0.577
v 1.367 -1.310 0.576
v 1.341 -1.326 0.486
v 1.367 -1.310 0.381
v 1.341 -1.326 0.379
v 1.367 -1.310 0.381
v 1.341 -1.326 0.486
v 1.367 -1.310 0.487
v 1.367 -1.310 0.157
v 1.367 -1.310 0.050
v 1.341 -1.326 0.050
v 1.341 -1.326 0.050
v 1.341 -1.326 0.158
v 1.367 -1.310 0.157
v 1.367 -1.310 0.264
v 1.367 -1.310 0.157
v 1.341 -1.326 0.158
v 1.341 -1.326 0.158
v 1.341 -1.326 0.264
v 1.367 -1.310 0.264
v 1.275 -1.213 2.220
v 1.367 -1.310 2.220
v 1.341 -1.326 2.220
v 1.367 -1.310 2.220
v 1.275 -1.213 2.220
v 1.301 -1.198 2.220
v 1.275 -1.213 2.220
v 1.224 -1.126 2.220
v 1.251 -1.112 2.220
v 1.251 -1.112 2.220
v 1.301 -1.198 2.220
v 1.275 -1.213 2.220
v 1.224 -1.126 2.220
v 1.183 -1.056 2.220
v 1.210 -1.041 2.220
v 1.210 -1.041 2.220
v 1.251 -1.112 2.220
v 1.224 -1.126 2.220
v 1.183 -1.056 2.220
v 1.139 -0.981 2.220
v 1.165 -0.966 2.220
v 1.165 -0.966 2.220
v 1.210 -1.041 2.220
v 1.183 -1.056 2.220
v 0.630 -0.112 2.220
v 0.712 -0.193 2.220
v 0.687 -0.211 2.220
v 0.712 -0.193 2.220
v 0.630 -0.112 2.220
v 0.656 -0.098 2.220
v 1.139 -0.981 2.220
v 1.088 -0.895 2.220
v 1.115 -0.880 2.220
v 1.115 -0.880 2.220
v 1.165 -0.966 2.220
v 1.139 -0.981 2.220
v 1.088 -0.895 2.220
v 1.044 -0.819 2.220
v 1.070 -0.804 2.220
v 1.070 -0.804 2.220
v 1.115 -0.880 2.220
v 1.088 -0.895 2.220
v 0.790 -0.385 2.220
v 0.866 -0.456 2.220
v 0.841 -0.473 2.220
v 0.866 -0.456 2.220
v 0.790 -0.385 2.220
v 0.816 -0.370 2.220
v 1.044 -0.819 2.220
v 1.006 -0.754 2.220
v 1.032 -0.739 2.220
v 1.032 -0.739 2.220
v 1.070 -0.804 2.220
v 1.044 -0.819 2.220
v 1.006 -0.754 2.220
v 0.968 -0.690 2.220
v 0.994 -0.675 2.220
v 0.994 -0.675 2.220
v 1.032 -0.739 2.220
v 1.006 -0.754 2.220
v 0.968 -0.690 2.220
v 0.930 -0.625 2.220
v 0.957 -0.610 2.220
v 0.957 -0.610 2.220
v 0.994 -0.675 2.220
v 0.968 -0.690 2.220
v 0.930 -0.625 2.220
v 0.889 -0.555 2.220
v 0.915 -0.540 2.220
v 0.915 -0.540 2.220
v 0.957 -0.610 2.220
v 0.930 -0.625 2.220
v 0.915 -0.540 2.220
v 0.841 -0.473 2.220
v 0.866 -0.456 2.220
v 0.841 -0.473 2.220
v 0.915 -0.540 2.220
v 0.889 -0.555 2.220
v 0.790 -0.385 2.220
v 0.741 -0.301 2.220
v 0.767 -0.287 2.220
v 0.767 -0.287 2.220
v 0.816 -0.370 2.220
v 0.790 -0.385 2.220
v 0.767 -0.287 2.220
v 0.687 -0.211 2.220
v 0.712 -0.193 2.220
v 0.687 -0.211 2.220
v 0.767 -0.287 2.220
v 0.741 -0.301 2.220
v 0.630 -0.112 2.220
v 0.583 -0.032 2.220
v 0.609 -0.017 2.220
v 0.609 -0.017 2.220
v 0.656 -0.098 2.220
v 0.630 -0.112 2.220
v 0.583 -0.032 2.220
v 0.547 0.029 2.220
v 0.573 0.044 2.220
v 0.573 0.044 2.220
v 0.609 -0.017 2.220
v 0.583 -0.032 2.220
v 0.571 0.043 0.050
v 0.550 0.024 0.050
v 0.571 0.024 0.050
v 0.571 0.024 0.050
v 0.550 0.024 0.050
v 0.571 -0.012 0.050
v 1.311 -1.264 0.050
v 1.367 -1.310 0.050
v 1.341 -1.326 0.050
v 1.341 -1.326 0.050
v 1.307 -1.267 0.050
v 1.311 -1.264 0.050
v 1.311 -1.264 0.050
v 1.302 -1.248 0.050
v 1.324 -1.237 0.050
v 1.367 -1.310 0.050
v 1.311 -1.264 0.050
v 1.324 -1.237 0.050
v 1.302 -1.248 0.050
v 1.263 -1.183 0.050
v 1.286 -1.172 0.050
v 1.286 -1.172 0.050
v 1.324 -1.237 0.050
v 1.302 -1.248 0.050
v 1.149 -0.988 0.050
v 1.208 -1.039 0.050
v 1.189 -1.057 0.050
v 1.208 -1.039 0.050
v 1.149 -0.988 0.050
v 1.172 -0.977 0.050
v 1.263 -1.183 0.050
v 1.225 -1.118 0.050
v 1.248 -1.107 0.050
v 1.248 -1.107 0.050
v 1.286 -1.172 0.050
v 1.263 -1.183 0.050
v 1.248 -1.107 0.050
v 1.189 -1.057 0.050
v 1.208 -1.039 0.050
v 1.189 -1.057 0.050
v 1.248 -1.107 0.050
v 1.225 -1.118 0.050
v 1.137 -0.918 0.050
v 1.172 -0.977 0.050
v 1.149 -0.988 0.050
v 1.149 -0.988 0.050
v 1.114 -0.929 0.050
v 1.137 -0.918 0.050
v 0.972 -0.685 0.050
v 1.037 -0.747 0.050
v 1.018 -0.765 0.050
v 1.037 -0.747 0.050
v 0.972 -0.685 0.050
v 0.994 -0.674 0.050
v 1.114 -0.929 0.050
v 1.083 -0.875 0.050
v 1.105 -0.864 0.050
v 1.105 -0.864 0.050
v 1.137 -0.918 0.050
v 1.114 -0.929 0.050
v 1.083 -0.875 0.050
v 1.051 -0.821 0.050
v 1.074 -0.810 0.050
v 1.074 -0.810 0.050
v 1.105 -0.864 0.050
v 1.083 -0.875 0.050
v 1.074 -0.810 0.050
v 1.018 -0.765 0.050
v 1.037 -0.747 0.050
v 1.018 -0.765 0.050
v 1.074 -0.810 0.050
v 1.051 -0.821 0.050
v 0.972 -0.685 0.050
v 0.921 -0.599 0.050
v 0.944 -0.588 0.050
v 0.944 -0.588 0.050
v 0.994 -0.674 0.050
v 0.972 -0.685 0.050
v 0.832 -0.447 0.050
v 0.894 -0.504 0.050
v 0.875 -0.521 0.050
v 0.894 -0.504 0.050
v 0.832 -0.447 0.050
v 0.855 -0.436 0.050
v 0.944 -0.588 0.050
v 0.875 -0.521 0.050
v 0.894 -0.504 0.050
v 0.875 -0.521 0.050
v 0.944 -0.588 0.050
v 0.921 -0.599 0.050
v 0.775 -0.301 0.050
v 0.710 -0.240 0.050
v 0.729 -0.223 0.050
v 0.710 -0.240 0.050
v 0.775 -0.301 0.050
v 0.753 -0.312 0.050
v 0.817 -0.372 0.050
v 0.855 -0.436 0.050
v 0.832 -0.447 0.050
v 0.832 -0.447 0.050
v 0.794 -0.383 0.050
v 0.817 -0.372 0.050
v 0.670 -0.172 0.050
v 0.729 -0.223 0.050
v 0.710 -0.240 0.050
v 0.729 -0.223 0.050
v 0.670 -0.172 0.050
v 0.693 -0.161 0.050
v 0.794 -0.383 0.050
v 0.753 -0.312 0.050
v 0.775 -0.301 0.050
v 0.775 -0.301 0.050
v 0.817 -0.372 0.050
v 0.794 -0.383 0.050
v 0.661 -0.107 0.050
v 0.693 -0.161 0.050
v 0.670 -0.172 0.050
v 0.670 -0.172 0.050
v 0.639 -0.117 0.050
v 0.661 -0.107 0.050
v 0.588 -0.031 0.050
v 0.624 -0.042 0.050
v 0.602 -0.054 0.050
v 0.588 -0.031 0.050
v 0.572 -0.014 0.050
v 0.573 0.044 0.050
v 0.624 -0.042 0.050
v 0.588 -0.031 0.050
v 0.573 0.044 0.050
v 0.639 -0.117 0.050
v 0.602 -0.054 0.050
v 0.624 -0.042 0.050
v 0.624 -0.042 0.050
v 0.661 -0.107 0.050
v 0.639 -0.117 0.050
v 1.213 -1.107 0.050
v 1.307 -1.267 0.050
v 1.247 -1.302 0.050
v 1.247 -1.302 0.050
v 1.152 -1.140 0.050
v 1.213 -1.107 0.050
v 1.152 -1.140 0.050
v 1.057 -0.978 0.050
v 1.118 -0.946 0.050
v 1.118 -0.946 0.050
v 1.213 -1.107 0.050
v 1.152 -1.140 0.050
v 0.930 -0.625 0.050
v 0.776 -0.500 0.050
v 0.836 -0.466 0.050
v 0.776 -0.500 0.050
v 0.930 -0.625 0.050
v 0.873 -0.665 0.050
v 1.057 -0.978 0.050
v 0.962 -0.817 0.050
v 1.023 -0.784 0.050
v 1.023 -0.784 0.050
v 1.118 -0.946 0.050
v 1.057 -0.978 0.050
v 1.023 -0.784 0.050
v 0.873 -0.665 0.050
v 0.930 -0.625 0.050
v 0.873 -0.665 0.050
v 1.023 -0.784 0.050
v 0.962 -0.817 0.050
v 0.776 -0.500 0.050
v 0.676 -0.329 0.050
v 0.736 -0.295 0.050
v 0.736 -0.295 0.050
v 0.836 -0.466 0.050
v 0.776 -0.500 0.050
v 0.583 -0.034 0.050
v 0.572 -0.152 0.050
v 0.572 -0.041 0.050
v 0.572 -0.152 0.050
v 0.583 -0.034 0.050
v 0.736 -0.295 0.050
v 0.572 -0.152 0.050
v 0.736 -0.295 0.050
v 0.676 -0.329 0.050
v 4.145 -4.334 0.050
v 4.427 -4.022 0.050
v 6.102 -4.016 0.050
v 4.145 -4.334 0.050
v 6.102 -6.160 0.050
v 4.339 -6.160 0.050
v 6.102 -6.160 0.050
v 4.145 -4.334 0.050
v 6.102 -4.016 0.050
v 2.659 -2.314 0.050
v 2.501 -4.334 0.050
v 2.104 -3.883 0.050
v 2.501 -4.334 0.050
v 2.659 -2.314 0.050
v 4.042 -2.351 0.050
v 4.042 -2.351 0.050
v 4.427 -4.022 0.050
v 4.145 -4.334 0.050
v 2.501 -4.334 0.050
v 4.042 -2.351 0.050
v 4.145 -4.334 0.050
v 2.501 -4.334 0.050
v 4.145 -4.334 0.050
v 4.339 -6.160 0.050
v 4.339 -6.160 0.050
v 2.227 -6.160 0.050
v 2.501 -4.334 0.050
v 0.571 -6.160 0.050
v 2.501 -4.334 0.050
v 2.227 -6.160 0.050
v 2.501 -4.334 0.050
v 0.571 -6.160 0.050
v 0.571 -3.865 0.050
v 2.501 -4.334 0.050
v 0.571 -3.865 0.050
v 2.104 -3.883 0.050
v 4.427 -4.022 0.050
v 4.042 -2.351 0.050
v 4.430 -1.933 0.050
v 4.427 -4.022 0.050
v 6.102 -1.941 0.050
v 6.102 -4.016 0.050
v 6.102 -1.941 0.050
v 4.427 -4.022 0.050
v 4.430 -1.933 0.050
v 4.430 -1.933 0.050
v 2.179 -1.706 0.050
v 2.751 -0.147 0.050
v 4.430 -1.933 0.050
v 2.751 -0.147 0.050
v 4.072 -0.122 0.050
v 2.659 -2.314 0.050
v 4.430 -1.933 0.050
v 4.042 -2.351 0.050
v 2.179 -1.706 0.050
v 4.430 -1.933 0.050
v 2.659 -2.314 0.050
v 4.430 -1.933 0.050
v 4.072 -0.122 0.050
v 4.237 0.039 0.050
v 4.430 -1.933 0.050
v 6.102 0.066 0.050
v 6.102 -1.941 0.050
v 6.102 0.066 0.050
v 4.430 -1.933 0.050
v 4.237 0.039 0.050
v 4.237 0.039 0.050
v 2.751 -0.147 0.050
v 2.232 0.412 0.050
v 2.232 0.412 0.050
v 2.606 2.224 0.050
v 4.219 2.076 0.050
v 2.751 -0.147 0.050
v 4.237 0.039 0.050
v 4.072 -0.122 0.050
v 4.237 0.039 0.050
v 2.232 0.412 0.050
v 4.219 2.076 0.050
v 2.179 -1.706 0.050
v 2.659 -2.314 0.050
v 2.104 -3.883 0.050
v 2.179 -1.706 0.050
v 0.571 -3.865 0.050
v 0.571 -1.650 0.050
v 0.571 -3.865 0.050
v 2.179 -1.706 0.050
v 2.104 -3.883 0.050
v 4.237 0.039 0.050
v 4.219 2.076 0.050
v 6.102 1.903 0.050
v 6.102 1.903 0.050
v 6.102 0.066 0.050
v 4.237 0.039 0.050
v 2.232 0.412 0.050
v 0.571 0.342 0.050
v 0.571 2.411 0.050
v 0.571 2.411 0.050
v 2.606 2.224 0.050
v 2.232 0.412 0.050
v 1.367 -1.310 0.050
v 2.751 -0.147 0.050
v 2.179 -1.706 0.050
v 1.247 -1.302 0.050
v 0.571 -1.650 0.050
v 0.571 -1.488 0.050
v 0.571 -1.488 0.050
v 0.572 -0.152 0.050
v 1.247 -1.302 0.050
v 1.247 -1.302 0.050
v 1.307 -1.267 0.050
v 1.341 -1.326 0.050
v 0.573 0.044 0.050
v 0.571 0.043 0.050
v 0.571 0.342 0.050
v 2.751 -0.147 0.050
v 1.367 -1.310 0.050
v 2.232 0.412 0.050
v 1.341 -1.326 0.050
v 0.571 -1.650 0.050
v 1.247 -1.302 0.050
v 2.232 0.412 0.050
v 0.573 0.044 0.050
v 0.571 0.342 0.050
v 0.571 -1.650 0.050
v 1.341 -1.326 0.050
v 2.179 -1.706 0.050
v 0.573 0.044 0.050
v 2.232 0.412 0.050
v 1.367 -1.310 0.050
v 2.179 -1.706 0.050
v 1.341 -1.326 0.050
v 1.367 -1.310 0.050
v 0.000 -1.488 0.050
v 0.571 -0.150 0.050
v 0.571 -1.488 0.050
v 0.571 -0.150 0.050
v 0.000 -1.488 0.050
v 0.000 -0.012 0.050
v 0.523 -0.069 0.050
v 0.571 -0.012 0.050
v 0.571 -0.041 0.050
v 0.571 -0.150 0.050
v 0.000 -0.012 0.050
v 0.523 -0.069 0.050
v 0.571 -0.012 0.050
v 0.523 -0.069 0.050
v 0.000 -0.012 0.050
v 1.138 -0.980 0.050
v 1.311 -1.264 0.050
v 1.307 -1.267 0.050
v 1.311 -1.264 0.050
v 1.138 -0.980 0.050
v 1.143 -0.977 0.050
v -1.741 1.715 0.000
v -0.115 1.598 1.100
v -0.115 1.598 -0.000
v -0.115 1.598 1.100
v -1.741 1.715 0.000
v -1.741 1.715 1.100

usemtl Patch_1_Mat_CR1_paintedConcrete
f 3 2 1
f 6 5 4

usemtl Patch_2_Mat_CR1_paintedConcrete
f 9 8 7
f 12 11 10

usemtl Patch_3_Mat_CR1_paintedConcrete
f 15 14 13
f 18 17 16

usemtl Patch_4_Mat_CR1_paintedConcrete
f 21 20 19
f 24 23 22

usemtl Patch_5_Mat_CR1_paintedConcrete
f 27 26 25
f 30 29 28

usemtl Patch_6_Mat_CR1_paintedConcrete
f 33 32 31
f 36 35 34

usemtl Patch_7_Mat_CR1_paintedConcrete
f 39 38 37
f 42 41 40

usemtl Patch_8_Mat_CR1_paintedConcrete
f 45 44 43
f 48 47 46

usemtl Patch_9_Mat_CR1_paintedConcrete
f 51 50 49
f 54 53 52

usemtl Patch_10_Mat_CR1_paintedConcrete
f 57 56 55
f 60 59 58

usemtl Patch_11_Mat_CR1_paintedConcrete
f 63 62 61
f 66 65 64

usemtl Patch_12_Mat_CR1_paintedConcrete
f 69 68 67
f 72 71 70

usemtl Patch_13_Mat_CR1_paintedConcrete
f 75 74 73
f 78 77 76

usemtl Patch_14_Mat_CR1_paintedConcrete
f 81 80 79
f 84 83 82

usemtl Patch_15_Mat_CR1_paintedConcrete
f 87 86 85
f 90 89 88

usemtl Patch_16_Mat_CR1_paintedConcrete
f 93 92 91
f 96 95 94

usemtl Patch_17_Mat_CR1_paintedConcrete
f 99 98 97
f 102 101 100

usemtl Patch_18_Mat_CR1_paintedConcrete
f 105 104 103
f 108 107 106

usemtl Patch_19_Mat_CR1_paintedConcrete
f 111 110 109
f 114 113 112

usemtl Patch_20_Mat_CR1_paintedConcrete
f 117 116 115
f 120 119 118

usemtl Patch_21_Mat_CR1_paintedConcrete
f 123 122 121
f 126 125 124

usemtl Patch_22_Mat_CR1_paintedConcrete
f 129 128 127
f 132 131 130

usemtl Patch_23_Mat_CR1_paintedConcrete
f 135 134 133
f 138 137 136

usemtl Patch_24_Mat_CR1_paintedConcrete
f 141 140 139
f 144 143 142

usemtl Patch_25_Mat_CR1_paintedConcrete
f 147 146 145
f 150 149 148

usemtl Patch_26_Mat_CR1_paintedConcrete
f 153 152 151
f 156 155 154

usemtl Patch_27_Mat_CR1_paintedConcrete
f 159 158 157
f 162 161 160

usemtl Patch_28_Mat_CR1_paintedConcrete
f 165 164 163
f 168 167 166

usemtl Patch_29_Mat_CR1_paintedConcrete
f 171 170 169
f 174 173 172

usemtl Patch_30_Mat_CR1_paintedConcrete
f 177 176 175
f 180 179 178

usemtl Patch_31_Mat_CR1_paintedConcrete
f 183 182 181
f 186 185 184

usemtl Patch_32_Mat_CR1_paintedConcrete
f 189 188 187
f 192 191 190

usemtl Patch_33_Mat_CR1_paintedConcrete
f 195 194 193
f 198 197 196
f 201 200 199

usemtl Patch_34_Mat_CR1_paintedConcrete
f 204 203 202
f 207 206 205
f 210 209 208

usemtl Patch_35_Mat_CR1_paintedConcrete
f 213 212 211
f 216 215 214

usemtl Patch_36_Mat_CR1_paintedConcrete
f 219 218 217
f 222 221 220
f 225 224 223

usemtl Patch_37_Mat_CR1_paintedConcrete
f 228 227 226
f 231 230 229

usemtl Patch_38_Mat_CR1_paintedConcrete
f 234 233 232
f 237 236 235
f 240 239 238

usemtl Patch_39_Mat_CR1_concrete
f 243 242 241
f 246 245 244
f 249 248 247
f 252 251 250
f 255 254 253
f 258 257 256
f 261 260 259
f 264 263 262

usemtl Patch_40_Mat_CR1_concrete
f 267 266 265
f 270 269 268
f 273 272 271
f 276 275 274
f 279 278 277
f 282 281 280
f 285 284 283
f 288 287 286
f 291 290 289
f 294 293 292
f 297 296 295

usemtl Patch_41_Mat_CR1_concrete
f 300 299 298
f 303 302 301
f 306 305 304
f 309 308 307
f 312 311 310

usemtl Patch_42_Mat_CR1_concrete
f 315 314 313
f 318 317 316
f 321 320 319
f 324 323 322
f 327 326 325
f 330 329 328
f 333 332 331
f 336 335 334

usemtl Patch_43_Mat_CR1_concrete
f 339 338 337
f 342 341 340
f 345 344 343
f 348 347 346
f 351 350 349

usemtl Patch_44_Mat_CR1_concrete
f 354 353 352
f 357 356 355
f 360 359 358
f 363 362 361
f 366 365 364
f 369 368 367
f 372 371 370

usemtl Patch_45_Mat_CR1_concrete
f 375 374 373
f 378 377 376
f 381 380 379
f 384 383 382
f 387 386 385
f 390 389 388
f 393 392 391
f 396 395 394
f 399 398 397
f 402 401 400
f 405 404 403
f 408 407 406
f 411 410 409
f 414 413 412
f 417 416 415
f 420 419 418
f 423 422 421
f 426 425 424
f 429 428 427
f 432 431 430
f 435 434 433
f 438 437 436

usemtl Patch_46_Mat_CR1_concrete
f 441 440 439
f 444 443 442
f 447 446 445
f 450 449 448
f 453 452 451
f 456 455 454
f 459 458 457
f 462 461 460
f 465 464 463
f 468 467 466
f 471 470 469
f 474 473 472

usemtl Patch_47_Mat_CR1_concrete
f 477 476 475
f 480 479 478
f 483 482 481
f 486 485 484
f 489 488 487
f 492 491 490
f 495 494 493
f 498 497 496
f 501 500 499
f 504 503 502
f 507 506 505
f 510 509 508
f 513 512 511
f 516 515 514
f 519 518 517
f 522 521 520
f 525 524 523
f 528 527 526
f 531 530 529
f 534 533 532
f 537 536 535

usemtl Patch_48_Mat_CR1_concrete
f 540 539 538
f 543 542 541

usemtl Patch_49_Mat_CR1_concrete
f 546 545 544
f 549 548 547

usemtl Patch_50_Mat_CR1_concrete
f 552 551 550
f 555 554 553

usemtl Patch_51_Mat_CR1_concrete
f 558 557 556
f 561 560 559
f 564 563 562

usemtl Patch_52_Mat_CR1_concrete
f 567 566 565
f 570 569 568
f 573 572 571

usemtl Patch_53_Mat_CR1_concrete
f 576 575 574
f 579 578 577

usemtl Patch_54_Mat_CR1_concrete
f 582 581 580
f 585 584 583

usemtl Patch_55_Mat_CR1_concrete
f 588 587 586
f 591 590 589

usemtl Patch_56_Mat_CR1_concrete
f 594 593 592
f 597 596 595

usemtl Patch_57_Mat_CR1_concrete
f 600 599 598
f 603 602 601
f 606 605 604

usemtl Patch_58_Mat_CR1_concrete
f 609 608 607
f 612 611 610
f 615 614 613
f 618 617 616
f 621 620 619

usemtl Patch_59_Mat_CR1_concrete
f 624 623 622
f 627 626 625
f 630 629 628
f 633 632 631
f 636 635 634
f 639 638 637

usemtl Patch_60_Mat_CR1_concrete
f 642 641 640
f 645 644 643
f 648 647 646
f 651 650 649

usemtl Patch_61_Mat_CR1_concrete
f 654 653 652
f 657 656 655

usemtl Patch_62_Mat_CR1_concrete
f 660 659 658
f 663 662 661

usemtl Patch_63_Mat_CR1_concrete
f 666 665 664
f 669 668 667

usemtl Patch_64_Mat_CR1_concrete
f 672 671 670
f 675 674 673

usemtl Patch_65_Mat_CR1_concrete
f 678 677 676
f 681 680 679

usemtl Patch_66_Mat_CR1_concrete
f 684 683 682
f 687 686 685

usemtl Patch_67_Mat_CR1_concrete
f 690 689 688
f 693 692 691

usemtl Patch_68_Mat_CR1_concrete
f 696 695 694
f 699 698 697

usemtl Patch_69_Mat_CR1_concrete
f 702 701 700
f 705 704 703

usemtl Patch_70_Mat_CR1_concrete
f 708 707 706
f 711 710 709

usemtl Patch_71_Mat_CR1_concrete
f 714 713 712
f 717 716 715

usemtl Patch_72_Mat_CR1_concrete
f 720 719 718
f 723 722 721

usemtl Patch_73_Mat_CR1_concrete
f 726 725 724
f 729 728 727

usemtl Patch_74_Mat_CR1_concrete
f 732 731 730
f 735 734 733

usemtl Patch_75_Mat_CR1_concrete
f 738 737 736
f 741 740 739

usemtl Patch_76_Mat_CR1_concrete
f 744 743 742
f 747 746 745

usemtl Patch_77_Mat_CR1_concrete
f 750 749 748
f 753 752 751
f 756 755 754

usemtl Patch_78_Mat_CR1_concrete
f 759 758 757
f 762 761 760
f 765 764 763

usemtl Patch_79_Mat_CR1_concrete
f 768 767 766
f 771 770 769

usemtl Patch_80_Mat_CR1_concrete
f 774 773 772
f 777 776 775
f 780 779 778

usemtl Patch_81_Mat_CR1_concrete
f 783 782 781
f 786 785 784
f 789 788 787

usemtl Patch_82_Mat_CR1_concrete
f 792 791 790
f 795 794 793

usemtl Patch_83_Mat_CR1_concrete
f 798 797 796
f 801 800 799
f 804 803 802

usemtl Patch_84_Mat_CR1_concrete
f 807 806 805
f 810 809 808

usemtl Patch_85_Mat_CR1_concrete
f 813 812 811
f 816 815 814
f 819 818 817

usemtl Patch_86_Mat_CR1_concrete
f 822 821 820
f 825 824 823

usemtl Patch_87_Mat_CR1_concrete
f 828 827 826
f 831 830 829
f 834 833 832

usemtl Patch_88_Mat_CR1_concrete
f 837 836 835
f 840 839 838
f 843 842 841

usemtl Patch_89_Mat_CR1_concrete
f 846 845 844
f 849 848 847
f 852 851 850
f 855 854 853

usemtl Patch_90_Mat_CR1_concrete
f 858 857 856
f 861 860 859
f 864 863 862
f 867 866 865

usemtl Patch_91_Mat_CR1_concrete
f 870 869 868
f 873 872 871
f 876 875 874
f 879 878 877
f 882 881 880
f 885 884 883
f 888 887 886
f 891 890 889
f 894 893 892
f 897 896 895

usemtl Patch_92_Mat_CR1_concrete
f 900 899 898
f 903 902 901

usemtl Patch_93_Mat_CR1_paintedConcrete
f 906 905 904
f 909 908 907
f 912 911 910

usemtl Patch_94_Mat_CR1_paintedConcrete
f 915 914 913
f 918 917 916

usemtl Patch_95_Mat_CR1_paintedConcrete
f 921 920 919
f 924 923 922
f 927 926 925

usemtl Patch_96_Mat_CR1_paintedConcrete
f 930 929 928
f 933 932 931

usemtl Patch_97_Mat_CR1_paintedConcrete
f 936 935 934
f 939 938 937
f 942 941 940
f 945 944 943
f 948 947 946
f 951 950 949

usemtl Patch_98_Mat_CR1_paintedConcrete
f 954 953 952
f 957 956 955
f 960 959 958
f 963 962 961

usemtl Patch_99_Mat_CR1_paintedConcrete
f 966 965 964
f 969 968 967
f 972 971 970

usemtl Patch_100_Mat_CR1_paintedConcrete
f 975 974 973
f 978 977 976
f 981 980 979

usemtl Patch_101_Mat_CR1_paintedConcrete
f 984 983 982
f 987 986 985
f 990 989 988
f 993 992 991
f 996 995 994

usemtl Patch_102_Mat_CR1_paintedConcrete
f 999 998 997
f 1002 1001 1000

usemtl Patch_103_Mat_CR1_paintedConcrete
f 1005 1004 1003
f 1008 1007 1006

usemtl Patch_104_Mat_CR1_paintedConcrete
f 1011 1010 1009
f 1014 1013 1012

usemtl Patch_105_Mat_CR1_paintedConcrete
f 1017 1016 1015
f 1020 1019 1018

usemtl Patch_106_Mat_CR1_paintedConcrete
f 1023 1022 1021
f 1026 1025 1024
f 1029 1028 1027

usemtl Patch_107_Mat_CR1_concrete
f 1032 1031 1030
f 1035 1034 1033
f 1038 1037 1036

usemtl Patch_108_Mat_CR1_concrete
f 1041 1040 1039
f 1044 1043 1042

usemtl Patch_109_Mat_CR1_concrete
f 1047 1046 1045
f 1050 1049 1048

usemtl Patch_110_Mat_CR1_concrete
f 1053 1052 1051
f 1056 1055 1054

usemtl Patch_111_Mat_CR1_concrete
f 1059 1058 1057
f 1062 1061 1060

usemtl Patch_112_Mat_CR1_concrete
f 1065 1064 1063

usemtl Patch_113_Mat_CR1_concrete
f 1068 1067 1066
f 1071 1070 1069

usemtl Patch_114_Mat_CR1_tablesEquipment
f 1074 1073 1072
f 1077 1076 1075

usemtl Patch_115_Mat_CR1_tablesEquipment
f 1080 1079 1078
f 1083 1082 1081

usemtl Patch_116_Mat_CR1_tablesEquipment
f 1086 1085 1084
f 1089 1088 1087

usemtl Patch_117_Mat_CR1_tablesEquipment
f 1092 1091 1090
f 1095 1094 1093

usemtl Patch_118_Mat_CR1_tablesEquipment
f 1098 1097 1096
f 1101 1100 1099

usemtl Patch_119_Mat_CR1_tablesEquipment
f 1104 1103 1102
f 1107 1106 1105

usemtl Patch_120_Mat_CR1_tablesEquipment
f 1110 1109 1108
f 1113 1112 1111

usemtl Patch_121_Mat_CR1_tablesEquipment
f 1116 1115 1114
f 1119 1118 1117

usemtl Patch_122_Mat_CR1_tablesEquipment
f 1122 1121 1120
f 1125 1124 1123

usemtl Patch_123_Mat_CR1_tablesEquipment
f 1128 1127 1126
f 1131 1130 1129

usemtl Patch_124_Mat_CR1_tablesEquipment
f 1134 1133 1132
f 1137 1136 1135

usemtl Patch_125_Mat_CR1_tablesEquipment
f 1140 1139 1138
f 1143 1142 1141

usemtl Patch_126_Mat_CR1_tablesEquipment
f 1146 1145 1144
f 1149 1148 1147

usemtl Patch_127_Mat_CR1_tablesEquipment
f 1152 1151 1150
f 1155 1154 1153

usemtl Patch_128_Mat_CR1_tablesEquipment
f 1158 1157 1156
f 1161 1160 1159

usemtl Patch_129_Mat_CR1_tablesEquipment
f 1164 1163 1162
f 1167 1166 1165

usemtl Patch_130_Mat_CR1_tablesEquipment
f 1170 1169 1168
f 1173 1172 1171

usemtl Patch_131_Mat_CR1_tablesEquipment
f 1176 1175 1174
f 1179 1178 1177
f 1182 1181 1180
f 1185 1184 1183

usemtl Patch_132_Mat_CR1_tablesEquipment
f 1188 1187 1186
f 1191 1190 1189

usemtl Patch_133_Mat_CR1_tablesEquipment
f 1194 1193 1192
f 1197 1196 1195

usemtl Patch_134_Mat_CR1_absorber
f 1200 1199 1198
f 1203 1202 1201

usemtl Patch_135_Mat_CR1_absorber
f 1206 1205 1204
f 1209 1208 1207

usemtl Patch_136_Mat_CR1_absorber
f 1212 1211 1210
f 1215 1214 1213

usemtl Patch_137_Mat_CR1_absorber
f 1218 1217 1216
f 1221 1220 1219

usemtl Patch_138_Mat_CR1_absorber
f 1224 1223 1222
f 1227 1226 1225

usemtl Patch_139_Mat_CR1_absorber
f 1230 1229 1228
f 1233 1232 1231

usemtl Patch_140_Mat_CR1_absorber
f 1236 1235 1234
f 1239 1238 1237

usemtl Patch_141_Mat_CR1_absorber
f 1242 1241 1240
f 1245 1244 1243

usemtl Patch_142_Mat_CR1_absorber
f 1248 1247 1246
f 1251 1250 1249

usemtl Patch_143_Mat_CR1_absorber
f 1254 1253 1252
f 1257 1256 1255

usemtl Patch_144_Mat_CR1_absorber
f 1260 1259 1258
f 1263 1262 1261

usemtl Patch_145_Mat_CR1_absorber
f 1266 1265 1264
f 1269 1268 1267

usemtl Patch_146_Mat_CR1_absorber
f 1272 1271 1270
f 1275 1274 1273

usemtl Patch_147_Mat_CR1_absorber
f 1278 1277 1276
f 1281 1280 1279

usemtl Patch_148_Mat_CR1_absorber
f 1284 1283 1282
f 1287 1286 1285

usemtl Patch_149_Mat_CR1_absorber
f 1290 1289 1288
f 1293 1292 1291

usemtl Patch_150_Mat_CR1_absorber
f 1296 1295 1294
f 1299 1298 1297

usemtl Patch_151_Mat_CR1_absorber
f 1302 1301 1300
f 1305 1304 1303

usemtl Patch_152_Mat_CR1_absorber
f 1308 1307 1306
f 1311 1310 1309

usemtl Patch_153_Mat_CR1_absorber
f 1314 1313 1312
f 1317 1316 1315

usemtl Patch_154_Mat_CR1_absorber
f 1320 1319 1318
f 1323 1322 1321

usemtl Patch_155_Mat_CR1_absorber
f 1326 1325 1324
f 1329 1328 1327

usemtl Patch_156_Mat_CR1_absorber
f 1332 1331 1330
f 1335 1334 1333

usemtl Patch_157_Mat_CR1_absorber
f 1338 1337 1336
f 1341 1340 1339

usemtl Patch_158_Mat_CR1_absorber
f 1344 1343 1342
f 1347 1346 1345

usemtl Patch_159_Mat_CR1_absorber
f 1350 1349 1348
f 1353 1352 1351

usemtl Patch_160_Mat_CR1_absorber
f 1356 1355 1354
f 1359 1358 1357

usemtl Patch_161_Mat_CR1_absorber
f 1362 1361 1360
f 1365 1364 1363

usemtl Patch_162_Mat_CR1_absorber
f 1368 1367 1366
f 1371 1370 1369

usemtl Patch_163_Mat_CR1_absorber
f 1374 1373 1372
f 1377 1376 1375

usemtl Patch_164_Mat_CR1_absorber
f 1380 1379 1378
f 1383 1382 1381

usemtl Patch_165_Mat_CR1_absorber
f 1386 1385 1384
f 1389 1388 1387

usemtl Patch_166_Mat_CR1_absorber
f 1392 1391 1390
f 1395 1394 1393

usemtl Patch_167_Mat_CR1_absorber
f 1398 1397 1396
f 1401 1400 1399

usemtl Patch_168_Mat_CR1_absorber
f 1404 1403 1402
f 1407 1406 1405
f 1410 1409 1408

usemtl Patch_169_Mat_CR1_absorber
f 1413 1412 1411
f 1416 1415 1414

usemtl Patch_170_Mat_CR1_absorber
f 1419 1418 1417
f 1422 1421 1420

usemtl Patch_171_Mat_CR1_absorber
f 1425 1424 1423
f 1428 1427 1426
f 1431 1430 1429

usemtl Patch_172_Mat_CR1_absorber
f 1434 1433 1432
f 1437 1436 1435

usemtl Patch_173_Mat_CR1_absorber
f 1440 1439 1438
f 1443 1442 1441

usemtl Patch_174_Mat_CR1_absorber
f 1446 1445 1444
f 1449 1448 1447

usemtl Patch_175_Mat_CR1_absorber
f 1452 1451 1450
f 1455 1454 1453

usemtl Patch_176_Mat_CR1_absorber
f 1458 1457 1456
f 1461 1460 1459
f 1464 1463 1462

usemtl Patch_177_Mat_CR1_absorber
f 1467 1466 1465
f 1470 1469 1468

usemtl Patch_178_Mat_CR1_absorber
f 1473 1472 1471
f 1476 1475 1474

usemtl Patch_179_Mat_CR1_absorber
f 1479 1478 1477
f 1482 1481 1480

usemtl Patch_180_Mat_CR1_absorber
f 1485 1484 1483
f 1488 1487 1486

usemtl Patch_181_Mat_CR1_absorber
f 1491 1490 1489
f 1494 1493 1492

usemtl Patch_182_Mat_CR1_absorber
f 1497 1496 1495
f 1500 1499 1498

usemtl Patch_183_Mat_CR1_absorber
f 1503 1502 1501
f 1506 1505 1504

usemtl Patch_184_Mat_CR1_absorber
f 1509 1508 1507
f 1512 1511 1510

usemtl Patch_185_Mat_CR1_absorber
f 1515 1514 1513
f 1518 1517 1516

usemtl Patch_186_Mat_CR1_absorber
f 1521 1520 1519
f 1524 1523 1522

usemtl Patch_187_Mat_CR1_absorber
f 1527 1526 1525
f 1530 1529 1528

usemtl Patch_188_Mat_CR1_absorber
f 1533 1532 1531
f 1536 1535 1534

usemtl Patch_189_Mat_CR1_absorber
f 1539 1538 1537
f 1542 1541 1540

usemtl Patch_190_Mat_CR1_absorber
f 1545 1544 1543
f 1548 1547 1546

usemtl Patch_191_Mat_CR1_absorber
f 1551 1550 1549
f 1554 1553 1552

usemtl Patch_192_Mat_CR1_absorber
f 1557 1556 1555
f 1560 1559 1558

usemtl Patch_193_Mat_CR1_absorber
f 1563 1562 1561
f 1566 1565 1564

usemtl Patch_194_Mat_CR1_absorber
f 1569 1568 1567
f 1572 1571 1570

usemtl Patch_195_Mat_CR1_absorber
f 1575 1574 1573
f 1578 1577 1576

usemtl Patch_196_Mat_CR1_absorber
f 1581 1580 1579
f 1584 1583 1582

usemtl Patch_197_Mat_CR1_absorber
f 1587 1586 1585
f 1590 1589 1588

usemtl Patch_198_Mat_CR1_absorber
f 1593 1592 1591
f 1596 1595 1594

usemtl Patch_199_Mat_CR1_absorber
f 1599 1598 1597
f 1602 1601 1600

usemtl Patch_200_Mat_CR1_absorber
f 1605 1604 1603
f 1608 1607 1606

usemtl Patch_201_Mat_CR1_absorber
f 1611 1610 1609
f 1614 1613 1612

usemtl Patch_202_Mat_CR1_absorber
f 1617 1616 1615
f 1620 1619 1618

usemtl Patch_203_Mat_CR1_absorber
f 1623 1622 1621
f 1626 1625 1624

usemtl Patch_204_Mat_CR1_absorber
f 1629 1628 1627
f 1632 1631 1630

usemtl Patch_205_Mat_CR1_tablesEquipment
f 1635 1634 1633
f 1638 1637 1636

usemtl Patch_206_Mat_CR1_tablesEquipment
f 1641 1640 1639
f 1644 1643 1642

usemtl Patch_207_Mat_CR1_tablesEquipment
f 1647 1646 1645
f 1650 1649 1648

usemtl Patch_208_Mat_CR1_paintedConcrete
f 1653 1652 1651
f 1656 1655 1654
f 1659 1658 1657

usemtl Patch_209_Mat_CR1_paintedConcrete
f 1662 1661 1660
f 1665 1664 1663
f 1668 1667 1666
f 1671 1670 1669
f 1674 1673 1672
f 1677 1676 1675

usemtl Patch_210_Mat_CR1_paintedConcrete
f 1680 1679 1678
f 1683 1682 1681
f 1686 1685 1684

usemtl Patch_211_Mat_CR1_paintedConcrete
f 1689 1688 1687
f 1692 1691 1690
f 1695 1694 1693
f 1698 1697 1696
f 1701 1700 1699
f 1704 1703 1702
f 1707 1706 1705

usemtl Patch_212_Mat_CR1_paintedConcrete
f 1710 1709 1708
f 1713 1712 1711
f 1716 1715 1714
f 1719 1718 1717
f 1722 1721 1720

usemtl Patch_213_Mat_CR1_paintedConcrete
f 1725 1724 1723
f 1728 1727 1726

usemtl Patch_214_Mat_CR1_tablesEquipment
f 1731 1730 1729
f 1734 1733 1732

usemtl Patch_215_Mat_CR1_tablesEquipment
f 1737 1736 1735
f 1740 1739 1738

usemtl Patch_216_Mat_CR1_tablesEquipment
f 1743 1742 1741
f 1746 1745 1744

usemtl Patch_217_Mat_CR1_tablesEquipment
f 1749 1748 1747
f 1752 1751 1750

usemtl Patch_218_Mat_CR1_tablesEquipment
f 1755 1754 1753
f 1758 1757 1756

usemtl Patch_219_Mat_CR1_tablesEquipment
f 1761 1760 1759
f 1764 1763 1762

usemtl Patch_220_Mat_CR1_tablesEquipment
f 1767 1766 1765
f 1770 1769 1768

usemtl Patch_221_Mat_CR1_tablesEquipment
f 1773 1772 1771
f 1776 1775 1774
f 1779 1778 1777
f 1782 1781 1780
f 1785 1784 1783

usemtl Patch_222_Mat_CR1_tablesEquipment
f 1788 1787 1786
f 1791 1790 1789

usemtl Patch_223_Mat_CR1_paintedConcrete
f 1794 1793 1792
f 1797 1796 1795

usemtl Patch_224_Mat_CR1_paintedConcrete
f 1800 1799 1798
f 1803 1802 1801

usemtl Patch_225_Mat_CR1_paintedConcrete
f 1806 1805 1804
f 1809 1808 1807

usemtl Patch_226_Mat_CR1_paintedConcrete
f 1812 1811 1810
f 1815 1814 1813

usemtl Patch_227_Mat_CR1_paintedConcrete
f 1818 1817 1816
f 1821 1820 1819

usemtl Patch_228_Mat_CR1_paintedConcrete
f 1824 1823 1822
f 1827 1826 1825

usemtl Patch_229_Mat_CR1_paintedConcrete
f 1830 1829 1828
f 1833 1832 1831

usemtl Patch_230_Mat_CR1_paintedConcrete
f 1836 1835 1834
f 1839 1838 1837

usemtl Patch_231_Mat_CR1_paintedConcrete
f 1842 1841 1840
f 1845 1844 1843

usemtl Patch_232_Mat_CR1_paintedConcrete
f 1848 1847 1846
f 1851 1850 1849

usemtl Patch_233_Mat_CR1_paintedConcrete
f 1854 1853 1852
f 1857 1856 1855

usemtl Patch_234_Mat_CR1_paintedConcrete
f 1860 1859 1858
f 1863 1862 1861

usemtl Patch_235_Mat_CR1_paintedConcrete
f 1866 1865 1864
f 1869 1868 1867

usemtl Patch_236_Mat_CR1_paintedConcrete
f 1872 1871 1870
f 1875 1874 1873

usemtl Patch_237_Mat_CR1_paintedConcrete
f 1878 1877 1876
f 1881 1880 1879

usemtl Patch_238_Mat_CR1_paintedConcrete
f 1884 1883 1882
f 1887 1886 1885

usemtl Patch_239_Mat_CR1_paintedConcrete
f 1890 1889 1888
f 1893 1892 1891

usemtl Patch_240_Mat_CR1_paintedConcrete
f 1896 1895 1894
f 1899 1898 1897

usemtl Patch_241_Mat_CR1_paintedConcrete
f 1902 1901 1900
f 1905 1904 1903

usemtl Patch_242_Mat_CR1_paintedConcrete
f 1908 1907 1906
f 1911 1910 1909

usemtl Patch_243_Mat_CR1_paintedConcrete
f 1914 1913 1912
f 1917 1916 1915

usemtl Patch_244_Mat_CR1_paintedConcrete
f 1920 1919 1918
f 1923 1922 1921

usemtl Patch_245_Mat_CR1_paintedConcrete
f 1926 1925 1924
f 1929 1928 1927

usemtl Patch_246_Mat_CR1_paintedConcrete
f 1932 1931 1930
f 1935 1934 1933

usemtl Patch_247_Mat_CR1_tablesEquipment
f 1938 1937 1936
f 1941 1940 1939
f 1944 1943 1942
f 1947 1946 1945

usemtl Patch_248_Mat_CR1_tablesEquipment
f 1950 1949 1948
f 1953 1952 1951

usemtl Patch_249_Mat_CR1_tablesEquipment
f 1956 1955 1954
f 1959 1958 1957

usemtl Patch_250_Mat_CR1_tablesEquipment
f 1962 1961 1960
f 1965 1964 1963

usemtl Patch_251_Mat_CR1_tablesEquipment
f 1968 1967 1966
f 1971 1970 1969

usemtl Patch_252_Mat_CR1_tablesEquipment
f 1974 1973 1972
f 1977 1976 1975

usemtl Patch_253_Mat_CR1_tablesEquipment
f 1980 1979 1978
f 1983 1982 1981

usemtl Patch_254_Mat_CR1_tablesEquipment
f 1986 1985 1984
f 1989 1988 1987

usemtl Patch_255_Mat_CR1_tablesEquipment
f 1992 1991 1990
f 1995 1994 1993

usemtl Patch_256_Mat_CR1_tablesEquipment
f 1998 1997 1996
f 2001 2000 1999

usemtl Patch_257_Mat_CR1_tablesEquipment
f 2004 2003 2002
f 2007 2006 2005
f 2010 2009 2008

usemtl Patch_258_Mat_CR1_paintedConcrete
f 2013 2012 2011
f 2016 2015 2014
f 2019 2018 2017
f 2022 2021 2020
f 2025 2024 2023
f 2028 2027 2026

usemtl Patch_259_Mat_CR1_tablesEquipment
f 2031 2030 2029
f 2034 2033 2032

usemtl Patch_260_Mat_CR1_tablesEquipment
f 2037 2036 2035
f 2040 2039 2038

usemtl Patch_261_Mat_CR1_tablesEquipment
f 2043 2042 2041
f 2046 2045 2044

usemtl Patch_262_Mat_CR1_tablesEquipment
f 2049 2048 2047
f 2052 2051 2050

usemtl Patch_263_Mat_CR1_tablesEquipment
f 2055 2054 2053
f 2058 2057 2056

usemtl Patch_264_Mat_CR1_tablesEquipment
f 2061 2060 2059
f 2064 2063 2062

usemtl Patch_265_Mat_CR1_tablesEquipment
f 2067 2066 2065
f 2070 2069 2068

usemtl Patch_266_Mat_CR1_paintedConcrete
f 2073 2072 2071
f 2076 2075 2074

usemtl Patch_267_Mat_CR1_paintedConcrete
f 2079 2078 2077
f 2082 2081 2080

usemtl Patch_268_Mat_CR1_paintedConcrete
f 2085 2084 2083
f 2088 2087 2086

usemtl Patch_269_Mat_CR1_paintedConcrete
f 2091 2090 2089
f 2094 2093 2092

usemtl Patch_270_Mat_CR1_paintedConcrete
f 2097 2096 2095
f 2100 2099 2098

usemtl Patch_271_Mat_CR1_paintedConcrete
f 2103 2102 2101
f 2106 2105 2104

usemtl Patch_272_Mat_CR1_paintedConcrete
f 2109 2108 2107
f 2112 2111 2110

usemtl Patch_273_Mat_CR1_paintedConcrete
f 2115 2114 2113
f 2118 2117 2116

usemtl Patch_274_Mat_CR1_paintedConcrete
f 2121 2120 2119
f 2124 2123 2122

usemtl Patch_275_Mat_CR1_paintedConcrete
f 2127 2126 2125
f 2130 2129 2128

usemtl Patch_276_Mat_CR1_paintedConcrete
f 2133 2132 2131
f 2136 2135 2134

usemtl Patch_277_Mat_CR1_paintedConcrete
f 2139 2138 2137
f 2142 2141 2140

usemtl Patch_278_Mat_CR1_paintedConcrete
f 2145 2144 2143
f 2148 2147 2146

usemtl Patch_279_Mat_CR1_paintedConcrete
f 2151 2150 2149
f 2154 2153 2152

usemtl Patch_280_Mat_CR1_paintedConcrete
f 2157 2156 2155
f 2160 2159 2158

usemtl Patch_281_Mat_CR1_paintedConcrete
f 2163 2162 2161
f 2166 2165 2164

usemtl Patch_282_Mat_CR1_paintedConcrete
f 2169 2168 2167
f 2172 2171 2170

usemtl Patch_283_Mat_CR1_paintedConcrete
f 2175 2174 2173
f 2178 2177 2176

usemtl Patch_284_Mat_CR1_paintedConcrete
f 2181 2180 2179
f 2184 2183 2182

usemtl Patch_285_Mat_CR1_paintedConcrete
f 2187 2186 2185
f 2190 2189 2188

usemtl Patch_286_Mat_CR1_paintedConcrete
f 2193 2192 2191
f 2196 2195 2194

usemtl Patch_287_Mat_CR1_paintedConcrete
f 2199 2198 2197
f 2202 2201 2200

usemtl Patch_288_Mat_CR1_paintedConcrete
f 2205 2204 2203
f 2208 2207 2206

usemtl Patch_289_Mat_CR1_paintedConcrete
f 2211 2210 2209
f 2214 2213 2212

usemtl Patch_290_Mat_CR1_paintedConcrete
f 2217 2216 2215
f 2220 2219 2218

usemtl Patch_291_Mat_CR1_paintedConcrete
f 2223 2222 2221
f 2226 2225 2224

usemtl Patch_292_Mat_CR1_paintedConcrete
f 2229 2228 2227
f 2232 2231 2230

usemtl Patch_293_Mat_CR1_paintedConcrete
f 2235 2234 2233
f 2238 2237 2236

usemtl Patch_294_Mat_CR1_paintedConcrete
f 2241 2240 2239
f 2244 2243 2242

usemtl Patch_295_Mat_CR1_paintedConcrete
f 2247 2246 2245
f 2250 2249 2248

usemtl Patch_296_Mat_CR1_paintedConcrete
f 2253 2252 2251
f 2256 2255 2254

usemtl Patch_297_Mat_CR1_paintedConcrete
f 2259 2258 2257
f 2262 2261 2260

usemtl Patch_298_Mat_CR1_paintedConcrete
f 2265 2264 2263
f 2268 2267 2266

usemtl Patch_299_Mat_CR1_paintedConcrete
f 2271 2270 2269
f 2274 2273 2272

usemtl Patch_300_Mat_CR1_paintedConcrete
f 2277 2276 2275
f 2280 2279 2278

usemtl Patch_301_Mat_CR1_paintedConcrete
f 2283 2282 2281
f 2286 2285 2284

usemtl Patch_302_Mat_CR1_paintedConcrete
f 2289 2288 2287
f 2292 2291 2290

usemtl Patch_303_Mat_CR1_paintedConcrete
f 2295 2294 2293
f 2298 2297 2296

usemtl Patch_304_Mat_CR1_paintedConcrete
f 2301 2300 2299
f 2304 2303 2302

usemtl Patch_305_Mat_CR1_paintedConcrete
f 2307 2306 2305
f 2310 2309 2308

usemtl Patch_306_Mat_CR1_paintedConcrete
f 2313 2312 2311

usemtl Patch_307_Mat_CR1_paintedConcrete
f 2316 2315 2314

usemtl Patch_308_Mat_CR1_paintedConcrete
f 2319 2318 2317
f 2322 2321 2320
f 2325 2324 2323
f 2328 2327 2326

usemtl Patch_309_Mat_CR1_paintedConcrete
f 2331 2330 2329
f 2334 2333 2332

usemtl Patch_310_Mat_CR1_paintedConcrete
f 2337 2336 2335
f 2340 2339 2338

usemtl Patch_311_Mat_CR1_paintedConcrete
f 2343 2342 2341
f 2346 2345 2344

usemtl Patch_312_Mat_CR1_paintedConcrete
f 2349 2348 2347
f 2352 2351 2350

usemtl Patch_313_Mat_CR1_paintedConcrete
f 2355 2354 2353
f 2358 2357 2356

usemtl Patch_314_Mat_CR1_paintedConcrete
f 2361 2360 2359
f 2364 2363 2362

usemtl Patch_315_Mat_CR1_paintedConcrete
f 2367 2366 2365
f 2370 2369 2368

usemtl Patch_316_Mat_CR1_paintedConcrete
f 2373 2372 2371
f 2376 2375 2374

usemtl Patch_317_Mat_CR1_paintedConcrete
f 2379 2378 2377
f 2382 2381 2380

usemtl Patch_318_Mat_CR1_paintedConcrete
f 2385 2384 2383
f 2388 2387 2386

usemtl Patch_319_Mat_CR1_paintedConcrete
f 2391 2390 2389
f 2394 2393 2392

usemtl Patch_320_Mat_CR1_paintedConcrete
f 2397 2396 2395
f 2400 2399 2398

usemtl Patch_321_Mat_CR1_paintedConcrete
f 2403 2402 2401
f 2406 2405 2404

usemtl Patch_322_Mat_CR1_paintedConcrete
f 2409 2408 2407
f 2412 2411 2410

usemtl Patch_323_Mat_CR1_paintedConcrete
f 2415 2414 2413
f 2418 2417 2416

usemtl Patch_324_Mat_CR1_paintedConcrete
f 2421 2420 2419
f 2424 2423 2422

usemtl Patch_325_Mat_CR1_paintedConcrete
f 2427 2426 2425
f 2430 2429 2428

usemtl Patch_326_Mat_CR1_paintedConcrete
f 2433 2432 2431
f 2436 2435 2434
f 2439 2438 2437

usemtl Patch_327_Mat_CR1_paintedConcrete
f 2442 2441 2440
f 2445 2444 2443

usemtl Patch_328_Mat_CR1_tablesEquipment
f 2448 2447 2446
f 2451 2450 2449

usemtl Patch_329_Mat_CR1_tablesEquipment
f 2454 2453 2452
f 2457 2456 2455

usemtl Patch_330_Mat_CR1_tablesEquipment
f 2460 2459 2458
f 2463 2462 2461

usemtl Patch_331_Mat_CR1_tablesEquipment
f 2466 2465 2464
f 2469 2468 2467

usemtl Patch_332_Mat_CR1_tablesEquipment
f 2472 2471 2470
f 2475 2474 2473

usemtl Patch_333_Mat_CR1_tablesEquipment
f 2478 2477 2476
f 2481 2480 2479

usemtl Patch_334_Mat_CR1_tablesEquipment
f 2484 2483 2482
f 2487 2486 2485
f 2490 2489 2488

usemtl Patch_335_Mat_CR1_paintedConcrete
f 2493 2492 2491
f 2496 2495 2494
f 2499 2498 2497

usemtl Patch_336_Mat_CR1_paintedConcrete
f 2502 2501 2500
f 2505 2504 2503
f 2508 2507 2506
f 2511 2510 2509

usemtl Patch_337_Mat_CR1_paintedConcrete
f 2514 2513 2512
f 2517 2516 2515

usemtl Patch_338_Mat_CR1_paintedConcrete
f 2520 2519 2518
f 2523 2522 2521
f 2526 2525 2524

usemtl Patch_339_Mat_CR1_paintedConcrete
f 2529 2528 2527
f 2532 2531 2530
f 2535 2534 2533

usemtl Patch_340_Mat_CR1_paintedConcrete
f 2538 2537 2536
f 2541 2540 2539
f 2544 2543 2542
f 2547 2546 2545

usemtl Patch_341_Mat_CR1_paintedConcrete
f 2550 2549 2548
f 2553 2552 2551
f 2556 2555 2554

usemtl Patch_342_Mat_CR1_paintedConcrete
f 2559 2558 2557
f 2562 2561 2560
f 2565 2564 2563
f 2568 2567 2566

usemtl Patch_343_Mat_CR1_paintedConcrete
f 2571 2570 2569
f 2574 2573 2572
f 2577 2576 2575

usemtl Patch_344_Mat_CR1_paintedConcrete
f 2580 2579 2578
f 2583 2582 2581

usemtl Patch_345_Mat_CR1_paintedConcrete
f 2586 2585 2584
f 2589 2588 2587

usemtl Patch_346_Mat_CR1_paintedConcrete
f 2592 2591 2590
f 2595 2594 2593
f 2598 2597 2596
f 2601 2600 2599
f 2604 2603 2602
f 2607 2606 2605
f 2610 2609 2608
f 2613 2612 2611
f 2616 2615 2614
f 2619 2618 2617
f 2622 2621 2620

usemtl Patch_347_Mat_CR1_concrete
f 2625 2624 2623
f 2628 2627 2626
f 2631 2630 2629
f 2634 2633 2632
f 2637 2636 2635

usemtl Patch_348_Mat_CR1_paintedConcrete
f 2640 2639 2638
f 2643 2642 2641

usemtl Patch_349_Mat_CR1_tablesEquipment
f 2646 2645 2644
f 2649 2648 2647

