mtllib mesh.mtl

# obj1
v 0.5051164600 -0.0420265700 2.1900000500
v 0.5747442300 -0.0370355900 0.0500000000
v 0.5051164600 -0.0420265700 0.0500000000
v 0.5799244900 -0.0366642700 2.1900000500
v 0.5799244900 -0.0366642700 0.0500000000
usemtl Patch_1_Mat_CR1_tablesEquipment
f 1 2 3
usemtl Patch_2_Mat_CR1_tablesEquipment
f 2 4 5
usemtl Patch_3_Mat_CR1_tablesEquipment
f 4 2 1

# obj2
v 0.5995082200 0.0370840400 0.0500000000
v 0.7117592200 -1.5288979600 2.2199999600
v 0.7117592200 -1.5288979600 0.0500000000
v 0.5995082200 0.0370840400 2.2199999600
usemtl Patch_4_Mat_CR1_paintedConcrete
f 6 7 8
usemtl Patch_5_Mat_CR1_paintedConcrete
f 7 6 9

# obj3
v 0.5695850000 0.0349391200 2.2199999600
v 0.5995082200 0.0370840400 0.0500000000
v 0.5695850000 0.0349391200 0.0500000000
v 0.5995082200 0.0370840400 2.2199999600
usemtl Patch_6_Mat_CR1_paintedConcrete
f 10 11 12
usemtl Patch_7_Mat_CR1_paintedConcrete
f 11 10 13

# obj4
v 0.5051164600 -0.0420265700 2.1900000500
v 0.6073577900 -1.4683668600 0.0500000000
v 0.6073577900 -1.4683668600 2.1900000500
v 0.5051164600 -0.0420265700 0.0500000000
usemtl Patch_8_Mat_CR1_tablesEquipment
f 14 15 16
usemtl Patch_9_Mat_CR1_tablesEquipment
f 15 14 17

# obj5
v 0.6821658700 -1.4630046000 2.1900000500
v 0.6769855700 -1.4633758900 0.0500000000
v 0.6821658700 -1.4630046000 0.0500000000
v 0.6073577900 -1.4683668600 2.1900000500
v 0.6073577900 -1.4683668600 0.0500000000
usemtl Patch_10_Mat_CR1_tablesEquipment
f 18 19 20
usemtl Patch_11_Mat_CR1_tablesEquipment
f 19 21 22
usemtl Patch_12_Mat_CR1_tablesEquipment
f 21 19 18

# obj6
v 0.5695850000 0.0349391200 2.2199999600
v 0.6818360000 -1.5310428800 0.0500000000
v 0.6818360000 -1.5310428800 2.2199999600
v 0.6769855700 -1.4633758900 0.0500000000
v 0.5747442300 -0.0370355900 0.0500000000
v 0.5695850000 0.0349391200 0.0500000000
usemtl Patch_13_Mat_CR1_paintedConcrete
f 23 24 25
usemtl Patch_14_Mat_CR1_paintedConcrete
f 24 23 26
usemtl Patch_15_Mat_CR1_paintedConcrete
f 26 23 27
usemtl Patch_16_Mat_CR1_paintedConcrete
f 27 23 28

# obj7
v 0.6073577900 -1.4683668600 2.1900000500
v 0.5799244900 -0.0366642700 2.1900000500
v 0.5051164600 -0.0420265700 2.1900000500
v 0.6821658700 -1.4630046000 2.1900000500
usemtl Patch_17_Mat_CR1_paintedConcrete
f 29 30 31
usemtl Patch_18_Mat_CR1_paintedConcrete
f 30 29 32

# obj8
v 0.7117592200 -1.5288979600 2.2199999600
v 0.6818360000 -1.5310428800 0.0500000000
v 0.7117592200 -1.5288979600 0.0500000000
v 0.6818360000 -1.5310428800 2.2199999600
usemtl Patch_19_Mat_CR1_paintedConcrete
f 33 34 35
usemtl Patch_20_Mat_CR1_paintedConcrete
f 34 33 36

# obj9
v 0.7117592200 -1.5288979600 2.2199999600
v 0.5695850000 0.0349391200 2.2199999600
v 0.6818360000 -1.5310428800 2.2199999600
v 0.5995082200 0.0370840400 2.2199999600
usemtl Patch_21_Mat_CR1_paintedConcrete
f 37 38 39
usemtl Patch_22_Mat_CR1_paintedConcrete
f 38 37 40

# obj10
v 0.5695850000 0.0349391200 0.0500000000
v 0.5799244900 -0.0366642700 0.0500000000
v 0.5747442300 -0.0370355900 0.0500000000
v 0.5995082200 0.0370840400 0.0500000000
v 0.6821658700 -1.4630046000 0.0500000000
v 0.6769855700 -1.4633758900 0.0500000000
v 0.7117592200 -1.5288979600 0.0500000000
v 0.6818360000 -1.5310428800 0.0500000000
usemtl Patch_23_Mat_CR1_paintedConcrete
f 41 42 43
usemtl Patch_24_Mat_CR1_paintedConcrete
f 42 41 44
usemtl Patch_25_Mat_CR1_paintedConcrete
f 42 44 45
usemtl Patch_26_Mat_CR1_paintedConcrete
f 46 47 48
usemtl Patch_27_Mat_CR1_paintedConcrete
f 47 46 45
usemtl Patch_28_Mat_CR1_paintedConcrete
f 47 45 44

# obj11
v 0.5747442300 -0.0370355900 0.0500000000
v 0.6073577900 -1.4683668600 0.0500000000
v 0.5051164600 -0.0420265700 0.0500000000
v 0.6769855700 -1.4633758900 0.0500000000
usemtl Patch_29_Mat_CR1_paintedConcrete
f 49 50 51
usemtl Patch_30_Mat_CR1_paintedConcrete
f 50 49 52

# obj12
v 6.1017380200 -3.9059999500 2.7360000500
v 0.5707378400 -6.1599999700 2.7360000500
v 0.5707378400 -3.9059999500 2.7360000500
v 6.1017380200 -6.1599999700 2.7360000500
usemtl Patch_31_Mat_CR1_paintedConcrete
f 53 54 55
usemtl Patch_32_Mat_CR1_paintedConcrete
f 54 53 56

# obj13
v 0.5707378400 0.9300000200 2.7360000500
v 6.1017380200 0.9300000200 2.2760000300
v 0.5707378400 0.9300000200 2.2760000300
v 6.1017380200 0.9300000200 2.7360000500
usemtl Patch_33_Mat_CR1_paintedConcrete
f 57 58 59
usemtl Patch_34_Mat_CR1_paintedConcrete
f 58 57 60

# obj14
v 6.1017380200 0.9300000200 2.2760000300
v 0.5707378400 0.4990000200 2.2760000300
v 0.5707378400 0.9300000200 2.2760000300
v 6.1017380200 0.4990000200 2.2760000300
usemtl Patch_35_Mat_CR1_paintedConcrete
f 61 62 63
usemtl Patch_36_Mat_CR1_paintedConcrete
f 62 61 64

# obj15
v 6.1017380200 0.4990000200 2.7360000500
v 0.5707378400 0.4990000200 2.2760000300
v 6.1017380200 0.4990000200 2.2760000300
v 0.5707378400 0.4990000200 2.7360000500
usemtl Patch_37_Mat_CR1_paintedConcrete
f 65 66 67
usemtl Patch_38_Mat_CR1_paintedConcrete
f 66 65 68

# obj16
v 6.1017380200 1.9029999300 2.7360000500
v 0.5707378400 0.9300000200 2.7360000500
v 0.5707378400 2.4109999300 2.7360000500
v 6.1017380200 0.9300000200 2.7360000500
usemtl Patch_39_Mat_CR1_paintedConcrete
f 69 70 71
usemtl Patch_40_Mat_CR1_paintedConcrete
f 70 69 72

# obj17
v 0.5707378400 -3.4830001900 2.7360000500
v 6.1017380200 -3.4830001900 2.2760000300
v 0.5707378400 -3.4830001900 2.2760000300
v 6.1017380200 -3.4830001900 2.7360000500
usemtl Patch_41_Mat_CR1_paintedConcrete
f 73 74 75
usemtl Patch_42_Mat_CR1_paintedConcrete
f 74 73 76

# obj18
v 6.1017380200 -3.4830001900 2.2760000300
v 0.5707378400 -3.9059999500 2.2760000300
v 0.5707378400 -3.4830001900 2.2760000300
v 6.1017380200 -3.9059999500 2.2760000300
usemtl Patch_43_Mat_CR1_paintedConcrete
f 77 78 79
usemtl Patch_44_Mat_CR1_paintedConcrete
f 78 77 80

# obj19
v 6.1017380200 -3.9059999500 2.7360000500
v 0.5707378400 -3.9059999500 2.2760000300
v 6.1017380200 -3.9059999500 2.2760000300
v 0.5707378400 -3.9059999500 2.7360000500
usemtl Patch_45_Mat_CR1_paintedConcrete
f 81 82 83
usemtl Patch_46_Mat_CR1_paintedConcrete
f 82 81 84

# obj20
v 6.1017380200 0.4990000200 2.7360000500
v 0.5707378400 -3.4830001900 2.7360000500
v 0.5707378400 0.4990000200 2.7360000500
v 6.1017380200 -3.4830001900 2.7360000500
usemtl Patch_47_Mat_CR1_paintedConcrete
f 85 86 87
usemtl Patch_48_Mat_CR1_paintedConcrete
f 86 85 88

# obj21
v -4.4223118500 2.0587958500 0.0000000000
v -4.4160428500 2.8805375500 -0.0000000000
v -4.5101181200 1.9854677600 -0.0000000000
v -3.5562864200 2.5587957500 0.0000000000
v -6.1311889400 2.1558492200 -0.0000000000
v -5.3182575500 1.6070335900 0.0000000000
v -5.4419003900 1.4788138000 0.0000000000
v -5.4419003900 -0.0911861800 0.0000000000
v -5.3419006800 1.4788138000 0.0000000000
v -4.3891251200 1.9767803100 0.0000000000
v -4.3723118000 1.9721931900 0.0000000000
v -4.3521502400 1.8838671800 0.0000000000
v -3.5087416400 2.4707759300 0.0000000000
v -3.5087416400 2.4619983700 0.0000000000
v -6.1516830400 -3.0531010500 0.0000000000
v -4.5216829200 -3.0531010500 0.0000000000
v -5.3419006800 -0.0911861800 0.0000000000
v -5.2812826800 1.5141203700 0.0000000000
v -2.8027147800 -2.7983574900 0.0000000000
v -2.5087414400 2.4619983700 0.0000000000
v -2.8027147800 -3.6133573500 0.0000000000
v -0.9127148300 -2.7983574900 0.0000000000
v -2.5087414400 2.5619982700 0.0000000000
v -2.4695942200 2.4638451500 0.0000000000
v -1.8636058200 1.6683718100 0.0000000000
v -1.7840585400 1.7289706300 0.0000000000
v -1.7412999100 1.7145899200 0.0000000000
v -0.9127148300 -1.9833576200 0.0000000000
v -0.1154714600 1.5980490700 0.0000000000
v -0.0127148500 -1.9833576200 0.0000000000
v -0.0511237700 2.4957457200 0.0000000000
v -6.2512622300 -3.6479998100 0.0000000000
v -6.1516830400 -3.6231009400 0.0000000000
v -6.2512622300 -2.1870000400 0.0000000000
v -0.0002621400 -3.6479998100 0.0000000000
v -6.2512622300 -1.1499999600 0.0000000000
v -6.2512622300 3.0939999100 0.0000000000
v -4.5216829200 -3.6231009400 0.0000000000
v -0.0127148500 -3.6133573500 0.0000000000
v -6.0371132800 3.0509188100 -0.0000000000
v -0.0002621400 2.5230000700 0.0000000000
v -1.6769522900 2.6122866700 0.0000000000
v -3.5087416400 2.5619982700 0.0000000000
v -3.5087416400 2.4707759300 0.0000000000
v -2.3900469400 2.5244441700 0.0000000000
usemtl Patch_49_Mat_CR1_concrete
f 89 90 91
usemtl Patch_50_Mat_CR1_concrete
f 90 89 92
usemtl Patch_51_Mat_CR1_concrete
f 93 94 91
usemtl Patch_52_Mat_CR1_concrete
f 94 93 95
usemtl Patch_53_Mat_CR1_concrete
f 95 93 96
usemtl Patch_54_Mat_CR1_concrete
f 94 95 97
usemtl Patch_55_Mat_CR1_concrete
f 91 94 98
usemtl Patch_56_Mat_CR1_concrete
f 91 98 89
usemtl Patch_57_Mat_CR1_concrete
f 89 98 99
usemtl Patch_58_Mat_CR1_concrete
f 99 98 100
usemtl Patch_59_Mat_CR1_concrete
f 99 100 101
usemtl Patch_60_Mat_CR1_concrete
f 101 100 102
usemtl Patch_61_Mat_CR1_concrete
f 103 96 93
usemtl Patch_62_Mat_CR1_concrete
f 96 103 104
usemtl Patch_63_Mat_CR1_concrete
f 96 104 105
usemtl Patch_64_Mat_CR1_concrete
f 105 104 97
usemtl Patch_65_Mat_CR1_concrete
f 97 104 94
usemtl Patch_66_Mat_CR1_concrete
f 94 104 106
usemtl Patch_67_Mat_CR1_concrete
f 106 104 100
usemtl Patch_68_Mat_CR1_concrete
f 102 107 108
usemtl Patch_69_Mat_CR1_concrete
f 107 102 109
usemtl Patch_70_Mat_CR1_concrete
f 108 107 110
usemtl Patch_71_Mat_CR1_concrete
f 108 110 111
usemtl Patch_72_Mat_CR1_concrete
f 111 110 112
usemtl Patch_73_Mat_CR1_concrete
f 112 110 113
usemtl Patch_74_Mat_CR1_concrete
f 113 110 114
usemtl Patch_75_Mat_CR1_concrete
f 114 110 115
usemtl Patch_76_Mat_CR1_concrete
f 115 110 116
usemtl Patch_77_Mat_CR1_concrete
f 115 116 117
usemtl Patch_78_Mat_CR1_concrete
f 117 116 118
usemtl Patch_79_Mat_CR1_concrete
f 117 118 119
usemtl Patch_80_Mat_CR1_concrete
f 120 121 122
usemtl Patch_81_Mat_CR1_concrete
f 121 120 123
usemtl Patch_82_Mat_CR1_concrete
f 122 121 124
usemtl Patch_83_Mat_CR1_concrete
f 124 121 125
usemtl Patch_84_Mat_CR1_concrete
f 121 123 126
usemtl Patch_85_Mat_CR1_concrete
f 126 123 109
usemtl Patch_86_Mat_CR1_concrete
f 126 109 104
usemtl Patch_87_Mat_CR1_concrete
f 104 109 100
usemtl Patch_88_Mat_CR1_concrete
f 100 109 102
usemtl Patch_89_Mat_CR1_concrete
f 109 123 127
usemtl Patch_90_Mat_CR1_concrete
f 127 123 118
usemtl Patch_91_Mat_CR1_concrete
f 125 128 129
usemtl Patch_92_Mat_CR1_concrete
f 128 125 93
usemtl Patch_93_Mat_CR1_concrete
f 93 125 103
usemtl Patch_94_Mat_CR1_concrete
f 103 125 121
usemtl Patch_95_Mat_CR1_concrete
f 129 128 90
usemtl Patch_96_Mat_CR1_concrete
f 129 90 130
usemtl Patch_97_Mat_CR1_concrete
f 130 90 131
usemtl Patch_98_Mat_CR1_concrete
f 131 90 92
usemtl Patch_99_Mat_CR1_concrete
f 131 92 132
usemtl Patch_100_Mat_CR1_concrete
f 130 131 111
usemtl Patch_101_Mat_CR1_concrete
f 130 111 133
usemtl Patch_102_Mat_CR1_concrete
f 133 111 112
usemtl Patch_103_Mat_CR1_concrete
f 130 133 114
usemtl Patch_104_Mat_CR1_concrete
f 130 114 115
usemtl Patch_105_Mat_CR1_concrete
f 129 130 119
usemtl Patch_106_Mat_CR1_concrete
f 129 119 118
usemtl Patch_107_Mat_CR1_concrete
f 129 118 123

# obj22
v -6.2512622300 -3.6479998100 2.7680000400
v -0.0002621400 -3.6479998100 0.0000000000
v -6.2512622300 -3.6479998100 0.0000000000
v -0.0002621400 -3.6479998100 2.7680000400
usemtl Patch_108_Mat_CR1_concrete
f 134 135 136
usemtl Patch_109_Mat_CR1_concrete
f 135 134 137

# obj23
v -0.0002621400 2.5230000700 2.7680000400
v -6.2512622300 0.9300000200 2.7680000400
v -6.2512622300 3.0939999100 2.7680000400
v -0.0002621400 0.9300000200 2.7680000400
usemtl Patch_110_Mat_CR1_concrete
f 138 139 140
usemtl Patch_111_Mat_CR1_concrete
f 139 138 141

# obj24
v -6.2512622300 3.0939999100 0.0000000000
v -6.2512622300 -1.1499999600 2.0329999400
v -6.2512622300 -1.1499999600 0.0000000000
v -6.2512622300 0.4990000200 2.2760000300
v -6.2512622300 0.9300000200 2.2760000300
v -6.2512622300 0.9300000200 2.7680000400
v -6.2512622300 3.0939999100 2.7680000400
v -6.2512622300 -2.1870000400 0.0000000000
v -6.2512622300 -3.6479998100 2.7680000400
v -6.2512622300 -3.6479998100 0.0000000000
v -6.2512622300 -2.1870000400 2.0329999400
v -6.2512622300 0.4990000200 2.7680000400
usemtl Patch_112_Mat_CR1_concrete
f 142 143 144
usemtl Patch_113_Mat_CR1_concrete
f 143 142 145
usemtl Patch_114_Mat_CR1_concrete
f 145 142 146
usemtl Patch_115_Mat_CR1_concrete
f 146 142 147
usemtl Patch_116_Mat_CR1_concrete
f 147 142 148
usemtl Patch_117_Mat_CR1_concrete
f 149 150 151
usemtl Patch_118_Mat_CR1_concrete
f 150 149 152
usemtl Patch_119_Mat_CR1_concrete
f 150 152 153
usemtl Patch_120_Mat_CR1_concrete
f 153 152 143
usemtl Patch_121_Mat_CR1_concrete
f 153 143 145

# obj25
v -6.2512622300 -1.1499999600 0.0000000000
v -6.2512622300 -2.1870000400 2.0329999400
v -6.2512622300 -2.1870000400 0.0000000000
v -6.2512622300 -1.1499999600 2.0329999400
usemtl Patch_122_Mat_CR1_concrete
f 154 155 156
usemtl Patch_123_Mat_CR1_concrete
f 155 154 157

# obj26
v -0.0002621400 0.4990000200 2.7680000400
v -6.2512622300 0.4990000200 2.2760000300
v -0.0002621400 0.4990000200 2.2760000300
v -6.2512622300 0.4990000200 2.7680000400
usemtl Patch_124_Mat_CR1_concrete
f 158 159 160
usemtl Patch_125_Mat_CR1_concrete
f 159 158 161

# obj27
v -0.0002621400 0.9300000200 2.2760000300
v -6.2512622300 0.4990000200 2.2760000300
v -6.2512622300 0.9300000200 2.2760000300
v -0.0002621400 0.4990000200 2.2760000300
usemtl Patch_126_Mat_CR1_concrete
f 162 163 164
usemtl Patch_127_Mat_CR1_concrete
f 163 162 165

# obj28
v -6.2512622300 0.9300000200 2.2760000300
v -0.0002621400 0.9300000200 2.7680000400
v -0.0002621400 0.9300000200 2.2760000300
v -6.2512622300 0.9300000200 2.7680000400
usemtl Patch_128_Mat_CR1_concrete
f 166 167 168
usemtl Patch_129_Mat_CR1_concrete
f 167 166 169

# obj29
v -0.0002621400 0.4990000200 2.7680000400
v -6.2512622300 -3.6479998100 2.7680000400
v -6.2512622300 0.4990000200 2.7680000400
v -0.0002621400 -3.6479998100 2.7680000400
usemtl Patch_130_Mat_CR1_concrete
f 170 171 172
usemtl Patch_131_Mat_CR1_concrete
f 171 170 173

# obj30
v -0.0002621400 2.5230000700 2.7680000400
v -6.2512622300 3.0939999100 0.0000000000
v -0.0002621400 2.5230000700 0.0000000000
v -6.2512622300 3.0939999100 2.7680000400
usemtl Patch_132_Mat_CR1_concrete
f 174 175 176
usemtl Patch_133_Mat_CR1_concrete
f 175 174 177

# obj31
v -0.0002621400 -3.6479998100 2.7680000400
v -0.0002621400 -1.4879999700 2.1930000600
v -0.0002621400 -3.6479998100 0.0000000000
v -0.0002621400 0.4990000200 2.7680000400
v -0.0002621400 -0.0120000000 2.1949999300
v -0.0002621400 -0.0120000000 0.0500000000
v -0.0002621400 2.5230000700 2.7680000400
v -0.0002621400 0.9300000200 2.2760000300
v -0.0002621400 0.9300000200 2.7680000400
v -0.0002621400 -1.4879999700 0.0500000000
v -0.0002621400 2.5230000700 0.0000000000
v -0.0002621400 0.4990000200 2.2760000300
usemtl Patch_134_Mat_CR1_concrete
f 178 179 180
usemtl Patch_135_Mat_CR1_concrete
f 179 178 181
usemtl Patch_136_Mat_CR1_concrete
f 179 181 182
usemtl Patch_137_Mat_CR1_concrete
f 182 181 183
usemtl Patch_138_Mat_CR1_concrete
f 184 185 186
usemtl Patch_139_Mat_CR1_concrete
f 180 187 188
usemtl Patch_140_Mat_CR1_concrete
f 187 180 179
usemtl Patch_141_Mat_CR1_concrete
f 188 187 183
usemtl Patch_142_Mat_CR1_concrete
f 188 183 189
usemtl Patch_143_Mat_CR1_concrete
f 189 183 181
usemtl Patch_144_Mat_CR1_concrete
f 188 189 185
usemtl Patch_145_Mat_CR1_concrete
f 188 185 184

# obj32
v 6.1017380200 1.9029999300 2.7360000500
v 0.5707378400 2.4109999300 0.0500000000
v 6.1017380200 1.9029999300 0.0500000000
v 0.5707378400 2.4109999300 2.7360000500
usemtl Patch_146_Mat_CR1_paintedConcrete
f 190 191 192
usemtl Patch_147_Mat_CR1_paintedConcrete
f 191 190 193

# obj33
v 6.1017380200 1.9029999300 2.7360000500
v 6.1017380200 0.9300000200 2.2760000300
v 6.1017380200 0.9300000200 2.7360000500
v 6.1017380200 -3.9059999500 2.7360000500
v 6.1017380200 -6.1599999700 0.0500000000
v 6.1017380200 -6.1599999700 2.7360000500
v 6.1017380200 -3.9059999500 2.2760000300
v 6.1017380200 1.9029999300 0.0500000000
v 6.1017380200 -3.4830001900 2.2760000300
v 6.1017380200 -3.4830001900 2.7360000500
v 6.1017380200 0.4990000200 2.2760000300
v 6.1017380200 0.4990000200 2.7360000500
usemtl Patch_148_Mat_CR1_paintedConcrete
f 194 195 196
usemtl Patch_149_Mat_CR1_paintedConcrete
f 197 198 199
usemtl Patch_150_Mat_CR1_paintedConcrete
f 198 197 200
usemtl Patch_151_Mat_CR1_paintedConcrete
f 198 200 201
usemtl Patch_152_Mat_CR1_paintedConcrete
f 201 200 202
usemtl Patch_153_Mat_CR1_paintedConcrete
f 201 202 203
usemtl Patch_154_Mat_CR1_paintedConcrete
f 201 203 204
usemtl Patch_155_Mat_CR1_paintedConcrete
f 204 203 205
usemtl Patch_156_Mat_CR1_paintedConcrete
f 201 204 195
usemtl Patch_157_Mat_CR1_paintedConcrete
f 201 195 194

# obj34
v 0.5707378400 -6.1599999700 2.7360000500
v 6.1017380200 -6.1599999700 0.0500000000
v 0.5707378400 -6.1599999700 0.0500000000
v 6.1017380200 -6.1599999700 2.7360000500
usemtl Patch_158_Mat_CR1_paintedConcrete
f 206 207 208
usemtl Patch_159_Mat_CR1_paintedConcrete
f 207 206 209

# obj35
v 0.5707378400 -0.0120000000 2.1949999300
v -0.0002621400 -1.4879999700 2.1930000600
v -0.0002621400 -0.0120000000 2.1949999300
v 0.5705960800 -0.0130122400 2.1949995500
v 0.5707378400 -1.4879999700 2.1930000600
v 0.5707378400 -0.0143842600 2.1949976100
usemtl Patch_160_Mat_CR1_concrete
f 210 211 212
usemtl Patch_161_Mat_CR1_concrete
f 211 210 213
usemtl Patch_162_Mat_CR1_concrete
f 213 214 211
usemtl Patch_163_Mat_CR1_concrete
f 214 213 215

# obj36
v 0.5707378400 -0.0120000000 2.1949999300
v -0.0002621400 -0.0120000000 0.0500000000
v 0.5707378400 -0.0120000000 0.0500000000
v -0.0002621400 -0.0120000000 2.1949999300
usemtl Patch_164_Mat_CR1_concrete
f 216 217 218
usemtl Patch_165_Mat_CR1_concrete
f 217 216 219

# obj37
v -0.0002621400 -1.4879999700 2.1930000600
v 0.5707378400 -1.4879999700 0.0500000000
v -0.0002621400 -1.4879999700 0.0500000000
v 0.5707378400 -1.4879999700 2.1930000600
usemtl Patch_166_Mat_CR1_concrete
f 220 221 222
usemtl Patch_167_Mat_CR1_concrete
f 221 220 223

# obj38
v 0.5707378400 -1.4879999700 0.0500000000
v -0.0002621400 -0.0120000000 0.0500000000
v -0.0002621400 -1.4879999700 0.0500000000
v 0.5707378400 -0.0120000000 0.0500000000
usemtl Patch_168_Mat_CR1_concrete
f 224 225 226
usemtl Patch_169_Mat_CR1_concrete
f 225 224 227

# obj39
v -4.5101181200 1.9854677600 1.1000000100
v -6.0371132800 3.0509188100 1.1000000100
v -6.1311889400 2.1558492200 1.1000000100
v -4.4160428500 2.8805375500 1.1000000100
usemtl Patch_170_Mat_CR1_tablesEquipment
f 228 229 230
usemtl Patch_171_Mat_CR1_tablesEquipment
f 229 228 231

# obj40
v -6.0371132800 3.0509188100 1.1000000100
v -4.4160428500 2.8805375500 -0.0000000000
v -6.0371132800 3.0509188100 -0.0000000000
v -4.4160428500 2.8805375500 1.1000000100
usemtl Patch_172_Mat_CR1_tablesEquipment
f 232 233 234
usemtl Patch_173_Mat_CR1_tablesEquipment
f 233 232 235

# obj41
v -4.4160428500 2.8805375500 -0.0000000000
v -4.5101181200 1.9854677600 1.1000000100
v -4.5101181200 1.9854677600 -0.0000000000
v -4.4160428500 2.8805375500 1.1000000100
usemtl Patch_174_Mat_CR1_tablesEquipment
f 236 237 238
usemtl Patch_175_Mat_CR1_tablesEquipment
f 237 236 239

# obj42
v -4.5101181200 1.9854677600 1.1000000100
v -6.1311889400 2.1558492200 -0.0000000000
v -4.5101181200 1.9854677600 -0.0000000000
v -6.1311889400 2.1558492200 1.1000000100
usemtl Patch_176_Mat_CR1_tablesEquipment
f 240 241 242
usemtl Patch_177_Mat_CR1_tablesEquipment
f 241 240 243

# obj43
v -6.0371132800 3.0509188100 1.1000000100
v -6.1311889400 2.1558492200 -0.0000000000
v -6.1311889400 2.1558492200 1.1000000100
v -6.0371132800 3.0509188100 -0.0000000000
usemtl Patch_178_Mat_CR1_tablesEquipment
f 244 245 246
usemtl Patch_179_Mat_CR1_tablesEquipment
f 245 244 247

# obj44
v -4.5216829200 -3.6231009400 1.1000000100
v -6.1516830400 -3.6231009400 0.0000000000
v -4.5216829200 -3.6231009400 0.0000000000
v -6.1516830400 -3.6231009400 1.1000000100
usemtl Patch_180_Mat_CR1_tablesEquipment
f 248 249 250
usemtl Patch_181_Mat_CR1_tablesEquipment
f 249 248 251

# obj45
v -6.1516830400 -3.0531010500 1.1000000100
v -4.5216829200 -3.0531010500 0.0000000000
v -6.1516830400 -3.0531010500 0.0000000000
v -4.5216829200 -3.0531010500 1.1000000100
usemtl Patch_182_Mat_CR1_tablesEquipment
f 252 253 254
usemtl Patch_183_Mat_CR1_tablesEquipment
f 253 252 255

# obj46
v -4.5216829200 -3.6231009400 1.1000000100
v -6.1516830400 -3.0531010500 1.1000000100
v -6.1516830400 -3.6231009400 1.1000000100
v -4.5216829200 -3.0531010500 1.1000000100
usemtl Patch_184_Mat_CR1_tablesEquipment
f 256 257 258
usemtl Patch_185_Mat_CR1_tablesEquipment
f 257 256 259

# obj47
v -4.5216829200 -3.0531010500 0.0000000000
v -4.5216829200 -3.6231009400 1.1000000100
v -4.5216829200 -3.6231009400 0.0000000000
v -4.5216829200 -3.0531010500 1.1000000100
usemtl Patch_186_Mat_CR1_tablesEquipment
f 260 261 262
usemtl Patch_187_Mat_CR1_tablesEquipment
f 261 260 263

# obj48
v -6.1516830400 -3.0531010500 1.1000000100
v -6.1516830400 -3.6231009400 0.0000000000
v -6.1516830400 -3.6231009400 1.1000000100
v -6.1516830400 -3.0531010500 0.0000000000
usemtl Patch_188_Mat_CR1_tablesEquipment
f 264 265 266
usemtl Patch_189_Mat_CR1_tablesEquipment
f 265 264 267

# obj49
v -0.0511237700 2.4957457200 0.0000000000
v -0.1154714600 1.5980490700 1.1000000100
v -0.1154714600 1.5980490700 0.0000000000
v -0.0511237700 2.4957457200 1.1000000100
usemtl Patch_190_Mat_CR1_tablesEquipment
f 268 269 270
usemtl Patch_191_Mat_CR1_tablesEquipment
f 269 268 271

# obj50
v -0.1154714600 1.5980490700 1.1000000100
v -1.6769522900 2.6122866700 1.1000000100
v -1.7412999100 1.7145899200 1.1000000100
v -0.0511237700 2.4957457200 1.1000000100
usemtl Patch_192_Mat_CR1_tablesEquipment
f 272 273 274
usemtl Patch_193_Mat_CR1_tablesEquipment
f 273 272 275

# obj51
v -0.1154714600 1.5980490700 1.1000000100
v -1.7412999100 1.7145899200 0.0000000000
v -0.1154714600 1.5980490700 0.0000000000
v -1.7412999100 1.7145899200 1.1000000100
usemtl Patch_194_Mat_CR1_tablesEquipment
f 276 277 278
usemtl Patch_195_Mat_CR1_tablesEquipment
f 277 276 279

# obj52
v -1.6769522900 2.6122866700 1.1000000100
v -0.0511237700 2.4957457200 0.0000000000
v -1.6769522900 2.6122866700 0.0000000000
v -0.0511237700 2.4957457200 1.1000000100
usemtl Patch_196_Mat_CR1_tablesEquipment
f 280 281 282
usemtl Patch_197_Mat_CR1_tablesEquipment
f 281 280 283

# obj53
v -1.6769522900 2.6122866700 1.1000000100
v -1.7412999100 1.7145899200 0.0000000000
v -1.7412999100 1.7145899200 1.1000000100
v -1.6769522900 2.6122866700 0.0000000000
usemtl Patch_198_Mat_CR1_tablesEquipment
f 284 285 286
usemtl Patch_199_Mat_CR1_tablesEquipment
f 285 284 287

# obj54
v -0.0127148500 -1.9833576200 0.0000000000
v -0.0127148500 -3.6133573500 1.1000000100
v -0.0127148500 -3.6133573500 0.0000000000
v -0.0127148500 -1.9833576200 1.1000000100
usemtl Patch_200_Mat_CR1_tablesEquipment
f 288 289 290
usemtl Patch_201_Mat_CR1_tablesEquipment
f 289 288 291

# obj55
v -0.0127148500 -3.6133573500 1.1000000100
v -2.8027147800 -3.6133573500 0.0000000000
v -0.0127148500 -3.6133573500 0.0000000000
v -2.8027147800 -3.6133573500 1.1000000100
usemtl Patch_202_Mat_CR1_tablesEquipment
f 292 293 294
usemtl Patch_203_Mat_CR1_tablesEquipment
f 293 292 295

# obj56
v -5.4419003900 1.4788138000 1.0000000100
v -5.4419003900 -0.0911861800 0.0000000000
v -5.4419003900 -0.0911861800 1.0000000100
v -5.4419003900 1.4788138000 0.0000000000
usemtl Patch_204_Mat_CR1_absorber
f 296 297 298
usemtl Patch_205_Mat_CR1_absorber
f 297 296 299

# obj57
v -5.3419006800 -0.0911861800 1.0000000100
v -5.4419003900 -0.0911861800 0.0000000000
v -5.3419006800 -0.0911861800 0.0000000000
v -5.4419003900 -0.0911861800 1.0000000100
usemtl Patch_206_Mat_CR1_absorber
f 300 301 302
usemtl Patch_207_Mat_CR1_absorber
f 301 300 303

# obj58
v -5.3419006800 -0.0911861800 1.0000000100
v -5.4419003900 1.4788138000 1.0000000100
v -5.4419003900 -0.0911861800 1.0000000100
v -5.3419006800 1.4788138000 1.0000000100
usemtl Patch_208_Mat_CR1_absorber
f 304 305 306
usemtl Patch_209_Mat_CR1_absorber
f 305 304 307

# obj59
v -5.3419006800 1.4788138000 0.0000000000
v -5.3419006800 -0.0911861800 1.0000000100
v -5.3419006800 -0.0911861800 0.0000000000
v -5.3419006800 1.4788138000 1.0000000100
usemtl Patch_210_Mat_CR1_absorber
f 308 309 310
usemtl Patch_211_Mat_CR1_absorber
f 309 308 311

# obj60
v -5.4419003900 1.4788138000 1.0000000100
v -5.3419006800 1.4788138000 0.0000000000
v -5.4419003900 1.4788138000 0.0000000000
v -5.3419006800 1.4788138000 1.0000000100
usemtl Patch_212_Mat_CR1_absorber
f 312 313 314
usemtl Patch_213_Mat_CR1_absorber
f 313 312 315

# obj61
v -3.5087416400 2.4707759300 0.0000000000
v -3.5087416400 2.4707759300 1.0000000100
v -3.5087416400 2.4707759300 0.0000000000
v -3.5087416400 2.4707759300 1.0000000100
v -3.5562864200 2.5587957500 0.0000000000
v -3.5562864200 2.5587957500 1.0000000100
usemtl Patch_214_Mat_CR1_absorber
f 319 316 320
usemtl Patch_215_Mat_CR1_absorber
f 319 320 321

# obj62
v -4.3723118000 1.9721931900 1.0000000100
v -3.5562864200 2.5587957500 1.0000000100
v -4.4223118500 2.0587958500 1.0000000100
v -3.5087416400 2.4707759300 1.0000000100
v -3.5087416400 2.4707759300 1.0000000100
usemtl Patch_216_Mat_CR1_absorber
f 322 323 324
usemtl Patch_217_Mat_CR1_absorber
f 323 322 325

# obj63
v -4.4223118500 2.0587958500 1.0000000100
v -4.3723118000 1.9721931900 0.0000000000
v -4.3723118000 1.9721931900 1.0000000100
v -4.4223118500 2.0587958500 0.0000000000
usemtl Patch_218_Mat_CR1_absorber
f 327 328 329
usemtl Patch_219_Mat_CR1_absorber
f 328 327 330

# obj64
v -4.4223118500 2.0587958500 1.0000000100
v -3.5562864200 2.5587957500 0.0000000000
v -4.4223118500 2.0587958500 0.0000000000
v -3.5562864200 2.5587957500 1.0000000100
usemtl Patch_220_Mat_CR1_absorber
f 331 332 333
usemtl Patch_221_Mat_CR1_absorber
f 332 331 334

# obj65
v -3.5087416400 2.4707759300 1.0000000100
v -3.5087416400 2.4707759300 1.0000000100
v -3.5087416400 2.4707759300 1.0000000100

# obj66
v -2.5087414400 2.5619982700 0.0000000000
v -2.5087414400 2.4619983700 1.0000000100
v -2.5087414400 2.4619983700 0.0000000000
v -2.5087414400 2.5619982700 1.0000000100
usemtl Patch_222_Mat_CR1_absorber
f 338 339 340
usemtl Patch_223_Mat_CR1_absorber
f 339 338 341

# obj67
v -3.5087416400 2.5619982700 1.0000000100
v -2.5087414400 2.5619982700 0.0000000000
v -3.5087416400 2.5619982700 0.0000000000
v -2.5087414400 2.5619982700 1.0000000100
usemtl Patch_224_Mat_CR1_absorber
f 342 343 344
usemtl Patch_225_Mat_CR1_absorber
f 343 342 345

# obj68
v -3.5087416400 2.4707759300 1.0000000100
v -3.5087416400 2.4619983700 0.0000000000
v -3.5087416400 2.4619983700 1.0000000100
v -3.5087416400 2.4707759300 0.0000000000
v -3.5087416400 2.4707759300 1.0000000100
v -3.5087416400 2.4707759300 0.0000000000
v -3.5087416400 2.5619982700 1.0000000100
v -3.5087416400 2.5619982700 0.0000000000
usemtl Patch_226_Mat_CR1_absorber
f 346 347 348
usemtl Patch_227_Mat_CR1_absorber
f 347 346 349
usemtl Patch_228_Mat_CR1_absorber
f 351 350 352
usemtl Patch_229_Mat_CR1_absorber
f 351 352 353

# obj69
v -2.5087414400 2.4619983700 1.0000000100
v -3.5087416400 2.4619983700 0.0000000000
v -2.5087414400 2.4619983700 0.0000000000
v -3.5087416400 2.4619983700 1.0000000100
usemtl Patch_230_Mat_CR1_absorber
f 354 355 356
usemtl Patch_231_Mat_CR1_absorber
f 355 354 357

# obj70
v -2.5087414400 2.4619983700 1.0000000100
v -3.5087416400 2.4707759300 1.0000000100
v -3.5087416400 2.4619983700 1.0000000100
v -3.5087416400 2.4707759300 1.0000000100
v -3.5087416400 2.5619982700 1.0000000100
v -3.5087416400 2.4707759300 1.0000000100
v -2.5087414400 2.5619982700 1.0000000100
usemtl Patch_232_Mat_CR1_absorber
f 358 359 360
usemtl Patch_233_Mat_CR1_absorber
f 362 361 364
usemtl Patch_234_Mat_CR1_absorber
f 364 361 358

# obj71
v -3.5087416400 2.4707759300 0.0000000000
v -3.5087416400 2.4707759300 0.0000000000
v -3.5087416400 2.4707759300 0.0000000000

# obj72
v -1.8636058200 1.6683718100 1.0000000100
v -2.3900469400 2.5244441700 1.0000000100
v -2.4695942200 2.4638451500 1.0000000100
v -1.7840585400 1.7289706300 1.0000000100
usemtl Patch_235_Mat_CR1_absorber
f 368 369 370
usemtl Patch_236_Mat_CR1_absorber
f 369 368 371

# obj73
v -2.3900469400 2.5244441700 0.0000000000
v -1.7840585400 1.7289706300 1.0000000100
v -1.7840585400 1.7289706300 0.0000000000
v -2.3900469400 2.5244441700 1.0000000100
usemtl Patch_237_Mat_CR1_absorber
f 372 373 374
usemtl Patch_238_Mat_CR1_absorber
f 373 372 375

# obj74
v -2.4695942200 2.4638451500 1.0000000100
v -1.8636058200 1.6683718100 0.0000000000
v -1.8636058200 1.6683718100 1.0000000100
v -2.4695942200 2.4638451500 0.0000000000
usemtl Patch_239_Mat_CR1_absorber
f 376 377 378
usemtl Patch_240_Mat_CR1_absorber
f 377 376 379

# obj75
v -2.4695942200 2.4638451500 1.0000000100
v -2.3900469400 2.5244441700 0.0000000000
v -2.4695942200 2.4638451500 0.0000000000
v -2.3900469400 2.5244441700 1.0000000100
usemtl Patch_241_Mat_CR1_absorber
f 380 381 382
usemtl Patch_242_Mat_CR1_absorber
f 381 380 383

# obj76
v -1.7840585400 1.7289706300 1.0000000100
v -1.8636058200 1.6683718100 0.0000000000
v -1.7840585400 1.7289706300 0.0000000000
v -1.8636058200 1.6683718100 1.0000000100
usemtl Patch_243_Mat_CR1_absorber
f 384 385 386
usemtl Patch_244_Mat_CR1_absorber
f 385 384 387

# obj77
v -5.2812826800 1.5141203700 1.0000000100
v -4.3891251200 1.9767803100 1.0000000100
v -5.3182575500 1.6070335900 1.0000000100
v -4.3521502400 1.8838671800 1.0000000100
usemtl Patch_245_Mat_CR1_absorber
f 388 389 390
usemtl Patch_246_Mat_CR1_absorber
f 389 388 391

# obj78
v -4.3521502400 1.8838671800 1.0000000100
v -5.2812826800 1.5141203700 0.0000000000
v -4.3521502400 1.8838671800 0.0000000000
v -5.2812826800 1.5141203700 1.0000000100
usemtl Patch_247_Mat_CR1_absorber
f 392 393 394
usemtl Patch_248_Mat_CR1_absorber
f 393 392 395

# obj79
v -5.3182575500 1.6070335900 1.0000000100
v -5.2812826800 1.5141203700 0.0000000000
v -5.2812826800 1.5141203700 1.0000000100
v -5.3182575500 1.6070335900 0.0000000000
usemtl Patch_249_Mat_CR1_absorber
f 396 397 398
usemtl Patch_250_Mat_CR1_absorber
f 397 396 399

# obj80
v -5.3182575500 1.6070335900 1.0000000100
v -4.3891251200 1.9767803100 0.0000000000
v -5.3182575500 1.6070335900 0.0000000000
v -4.3891251200 1.9767803100 1.0000000100
usemtl Patch_251_Mat_CR1_absorber
f 400 401 402
usemtl Patch_252_Mat_CR1_absorber
f 401 400 403

# obj81
v -4.3891251200 1.9767803100 0.0000000000
v -4.3521502400 1.8838671800 1.0000000100
v -4.3521502400 1.8838671800 0.0000000000
v -4.3891251200 1.9767803100 1.0000000100
usemtl Patch_253_Mat_CR1_absorber
f 404 405 406
usemtl Patch_254_Mat_CR1_absorber
f 405 404 407

# obj82
v -2.8027147800 -2.7983574900 1.1000000100
v -2.8027147800 -3.6133573500 0.0000000000
v -2.8027147800 -3.6133573500 1.1000000100
v -2.8027147800 -2.7983574900 0.0000000000
usemtl Patch_255_Mat_CR1_tablesEquipment
f 408 409 410
usemtl Patch_256_Mat_CR1_tablesEquipment
f 409 408 411

# obj83
v -2.8027147800 -2.7983574900 1.1000000100
v -0.9127148300 -2.7983574900 0.0000000000
v -2.8027147800 -2.7983574900 0.0000000000
v -0.9127148300 -2.7983574900 1.1000000100
usemtl Patch_257_Mat_CR1_tablesEquipment
f 412 413 414
usemtl Patch_258_Mat_CR1_tablesEquipment
f 413 412 415

# obj84
v 0.5707378400 2.4109999300 0.0500000000
v 0.5707378400 -0.0120000000 2.1949999300
v 0.5707378400 -0.0120000000 0.0500000000
v 0.5707378400 0.4990000200 2.2760000300
v 0.5707378400 0.9300000200 2.2760000300
v 0.5707378400 0.9300000200 2.7360000500
v 0.5707378400 2.4109999300 2.7360000500
v 0.5707378400 0.4990000200 2.7360000500
usemtl Patch_259_Mat_CR1_paintedConcrete
f 416 417 418
usemtl Patch_260_Mat_CR1_paintedConcrete
f 417 416 419
usemtl Patch_261_Mat_CR1_paintedConcrete
f 419 416 420
usemtl Patch_262_Mat_CR1_paintedConcrete
f 420 416 421
usemtl Patch_263_Mat_CR1_paintedConcrete
f 421 416 422
usemtl Patch_264_Mat_CR1_paintedConcrete
f 423 417 419

# obj85
v 0.5707378400 -1.4879999700 0.0500000000
v 0.5707378400 -6.1599999700 2.7360000500
v 0.5707378400 -6.1599999700 0.0500000000
v 0.5707378400 -3.9059999500 2.2760000300
v 0.5707378400 -3.4830001900 2.2760000300
v 0.5707378400 -3.4830001900 2.7360000500
v 0.5707378400 -1.4879999700 2.1930000600
v 0.5707378400 0.4990000200 2.7360000500
v 0.5707378400 -0.0143842600 2.1949976100
v 0.5707378400 -3.9059999500 2.7360000500
usemtl Patch_265_Mat_CR1_paintedConcrete
f 424 425 426
usemtl Patch_266_Mat_CR1_paintedConcrete
f 425 424 427
usemtl Patch_267_Mat_CR1_paintedConcrete
f 427 424 428
usemtl Patch_268_Mat_CR1_paintedConcrete
f 428 424 429
usemtl Patch_269_Mat_CR1_paintedConcrete
f 429 424 430
usemtl Patch_270_Mat_CR1_paintedConcrete
f 429 430 431
usemtl Patch_271_Mat_CR1_paintedConcrete
f 431 430 432
usemtl Patch_272_Mat_CR1_paintedConcrete
f 433 425 427

# obj86
v 0.5707378400 0.4990000200 2.7360000500
v 0.5707378400 -0.0143842600 2.1949976100
v 0.5705960800 -0.0130122400 2.1949995500
usemtl Patch_273_Mat_CR1_paintedConcrete
f 434 435 436

# obj87
v 0.5707378400 0.4990000200 2.7360000500
v 0.5705960800 -0.0130122400 2.1949995500
v 0.5707378400 -0.0120000000 2.1949999300
usemtl Patch_274_Mat_CR1_paintedConcrete
f 437 438 439

# obj88
v 6.1017380200 -6.1599999700 0.0500000000
v 0.5707378400 -1.4879999700 0.0500000000
v 0.5707378400 -6.1599999700 0.0500000000
v 0.5707378400 -0.0120000000 0.0500000000
v 0.5707378400 2.4109999300 0.0500000000
v 6.1017380200 1.9029999300 0.0500000000
usemtl Patch_275_Mat_CR1_paintedConcrete
f 440 441 442
usemtl Patch_276_Mat_CR1_paintedConcrete
f 441 440 443
usemtl Patch_277_Mat_CR1_paintedConcrete
f 443 440 444
usemtl Patch_278_Mat_CR1_paintedConcrete
f 444 440 445

# obj89
v -3.5087416400 2.4707759300 1.0000000100
v -3.5087416400 2.4707759300 0.0000000000
v -3.5087416400 2.4707759300 0.0000000000
v -4.3723118000 1.9721931900 0.0000000000
v -3.5087416400 2.4707759300 1.0000000100
v -4.3723118000 1.9721931900 1.0000000100
usemtl Patch_279_Mat_CR1_absorber
f 447 446 449
usemtl Patch_280_Mat_CR1_absorber
f 451 449 450

# obj90
v -0.0127148500 -3.6133573500 1.1000000100
v -2.8027147800 -2.7983574900 1.1000000100
v -2.8027147800 -3.6133573500 1.1000000100
v -0.9127148300 -2.7983574900 1.1000000100
v -0.9127148300 -1.9833576200 1.1000000100
v -0.0127148500 -1.9833576200 1.1000000100
usemtl Patch_281_Mat_CR1_tablesEquipment
f 452 453 454
usemtl Patch_282_Mat_CR1_tablesEquipment
f 453 452 455
usemtl Patch_283_Mat_CR1_tablesEquipment
f 455 452 456
usemtl Patch_284_Mat_CR1_tablesEquipment
f 456 452 457

# obj91
v -0.9127148300 -1.9833576200 1.1000000100
v -0.9127148300 -2.7983574900 0.0000000000
v -0.9127148300 -2.7983574900 1.1000000100
v -0.9127148300 -1.9833576200 0.0000000000
usemtl Patch_285_Mat_CR1_tablesEquipment
f 458 459 460
usemtl Patch_286_Mat_CR1_tablesEquipment
f 459 458 461

# obj92
v -0.9127148300 -1.9833576200 1.1000000100
v -0.0127148500 -1.9833576200 0.0000000000
v -0.9127148300 -1.9833576200 0.0000000000
v -0.0127148500 -1.9833576200 1.1000000100
usemtl Patch_287_Mat_CR1_tablesEquipment
f 462 463 464
usemtl Patch_288_Mat_CR1_tablesEquipment
f 463 462 465
