mtllib mesh.mtl

v 0.50511646 -0.04202657 2.19000005
v 0.5051164596277384 -0.04202656480667753 0.05000000000000022
v 0.57474423 -0.03703559 0.04999999999999982
v 0.57474423 -0.03703559 0.04999999999999982
v 0.5799244896277385 -0.036664264806677546 0.049999999999999996
v 0.57992449 -0.03666427000000001 2.19000005
v 0.57992449 -0.03666427000000001 2.19000005
v 0.50511646 -0.04202657 2.19000005
v 0.57474423 -0.03703559 0.04999999999999982
v 0.71175922 -1.52889796 2.21999996
v 0.59950822 0.03708404 0.05
v 0.71175922 -1.5288979600000001 0.050000000000000044
v 0.59950822 0.03708404 0.05
v 0.71175922 -1.52889796 2.21999996
v 0.59950822 0.03708404000000021 2.2199999600000004
v 0.59950822 0.03708404 2.21999996
v 0.569585 0.03493912 2.21999996
v 0.569585 0.03493912 0.05000000000000013
v 0.569585 0.03493912 0.05000000000000013
v 0.59950822 0.03708404 0.04999999999999982
v 0.59950822 0.03708404 2.21999996
v 0.60735779 -1.4683668599999997 0.04999999999999963
v 0.50511646 -0.04202657 2.19000005
v 0.60735779 -1.4683668599999997 2.19000005
v 0.50511646 -0.04202657 2.19000005
v 0.60735779 -1.4683668599999997 0.04999999999999963
v 0.50511646 -0.042026570000000096 0.0499999999999996
v 0.60735779 -1.46836686 2.1900000500000005
v 0.67698557 -1.46337589 0.05
v 0.6073577874990862 -1.468366825110129 0.05000000000000057
v 0.67698557 -1.46337589 0.05
v 0.60735779 -1.46836686 2.1900000500000005
v 0.68216587 -1.4630046 2.1900000500000005
v 0.67698557 -1.46337589 0.05
v 0.68216587 -1.4630046 2.1900000500000005
v 0.6821658674990863 -1.463004565110129 0.05000000000000057
v 0.6769855692235018 -1.46337589005566 0.04999999999999983
v 0.681836 -1.5310428800000002 2.21999996
v 0.681836 -1.53104288 0.049999999999999836
v 0.681836 -1.5310428800000002 2.21999996
v 0.6769855692235018 -1.46337589005566 0.04999999999999983
v 0.5747442121212548 -0.037035591281564306 0.04999999999999982
v 0.5747442121212548 -0.037035591281564306 0.04999999999999982
v 0.569585 0.03493912000000021 0.04999999999999971
v 0.569585 0.03493912 2.21999996
v 0.681836 -1.5310428800000002 2.21999996
v 0.5747442121212548 -0.037035591281564306 0.04999999999999982
v 0.569585 0.03493912 2.21999996
v 0.57992449 -0.03666426999999972 2.19000005
v 0.60735779 -1.46836686 2.19000005
v 0.50511646 -0.042026569999999756 2.19000005
v 0.60735779 -1.46836686 2.19000005
v 0.57992449 -0.03666426999999972 2.19000005
v 0.68216587 -1.4630046 2.19000005
v 0.681836 -1.53104288 2.21999996
v 0.71175922 -1.52889796 2.21999996
v 0.71175922 -1.52889796 0.05000000000000013
v 0.71175922 -1.52889796 0.05000000000000013
v 0.681836 -1.53104288 0.04999999999999982
v 0.681836 -1.53104288 2.21999996
v 0.59950822 0.03708404000000021 2.21999996
v 0.71175922 -1.52889796 2.21999996
v 0.681836 -1.53104288 2.21999996
v 0.681836 -1.53104288 2.21999996
v 0.569585 0.03493911999999999 2.21999996
v 0.59950822 0.03708404000000021 2.21999996
v 0.68216587 -1.4630046000000003 0.05
v 0.6818360000000001 -1.5310428800000002 0.05
v 0.71175922 -1.5288979600000001 0.050000000000000024
v 0.57992449 -0.03666427000000002 0.04999999999999999
v 0.569585 0.03493912 0.04999999999999998
v 0.57474423 -0.03703559 0.04999999999999998
v 0.6818360000000001 -1.5310428800000002 0.05
v 0.68216587 -1.4630046000000003 0.05
v 0.6769855700000001 -1.4633758900000002 0.049999999999999996
v 0.569585 0.03493912 0.04999999999999998
v 0.57992449 -0.03666427000000002 0.04999999999999999
v 0.59950822 0.03708404 0.05
v 0.57992449 -0.03666427000000002 0.04999999999999999
v 0.68216587 -1.4630046000000003 0.05
v 0.71175922 -1.5288979600000001 0.050000000000000024
v 0.71175922 -1.5288979600000001 0.050000000000000024
v 0.59950822 0.03708404 0.05
v 0.57992449 -0.03666427000000002 0.04999999999999999
v 0.60735779 -1.46836686 0.05
v 0.57474423 -0.03703559 0.05
v 0.50511646 -0.04202657 0.04999999999999999
v 0.57474423 -0.03703559 0.05
v 0.60735779 -1.46836686 0.05
v 0.67698557 -1.4633758900000002 0.05000000000000002
v 4.358917244504866 -6.15999997 2.73600005
v 6.101738019999999 -6.15999997 2.73600005
v 6.10173802 -3.90599995 2.73600005
v 6.10173802 -3.90599995 2.73600005
v 4.348927563581397 -3.9059999499999996 2.73600005
v 4.358917244504866 -6.15999997 2.73600005
v 2.4520271403998293 -5.055407389629525 2.73600005
v 2.8156195386772422 -3.90599995 2.73600005
v 0.5707378400000009 -3.90599995 2.73600005
v 0.5707378400000009 -3.90599995 2.73600005
v 0.5707378400000009 -4.990629020360009 2.73600005
v 2.4520271403998293 -5.055407389629525 2.73600005
v 4.348927563581397 -3.9059999499999996 2.73600005
v 2.8156195386772422 -3.90599995 2.73600005
v 2.4520271403998293 -5.055407389629525 2.73600005
v 2.4520271403998293 -5.055407389629525 2.73600005
v 2.7801469702082695 -6.159999969999999 2.73600005
v 4.358917244504866 -6.15999997 2.73600005
v 4.358917244504866 -6.15999997 2.73600005
v 4.348927563581397 -3.9059999499999996 2.73600005
v 2.4520271403998293 -5.055407389629525 2.73600005
v 2.4520271403998293 -5.055407389629525 2.73600005
v 0.5707378400000009 -4.990629020360009 2.73600005
v 0.5707378400000005 -6.15999997 2.73600005
v 0.5707378400000005 -6.15999997 2.73600005
v 2.7801469702082695 -6.159999969999999 2.73600005
v 2.4520271403998293 -5.055407389629525 2.73600005
v 3.3399561728781673 0.93000002 2.73600005
v 0.57073784 0.93000002 2.73600005
v 0.57073784 0.93000002 2.27600003
v 0.57073784 0.93000002 2.27600003
v 3.340134494570152 0.93000002 2.27600003
v 3.3399561728781673 0.93000002 2.73600005
v 3.340134494570152 0.93000002 2.27600003
v 6.101738020000001 0.93000002 2.27600003
v 6.101738020000001 0.93000002 2.73600005
v 6.101738020000001 0.93000002 2.73600005
v 3.3399561728781673 0.93000002 2.73600005
v 3.340134494570152 0.93000002 2.27600003
v 3.266850250846519 0.93000002 2.27600003
v 6.10173802 0.49900001999999993 2.27600003
v 6.10173802 0.93000002 2.27600003
v 6.10173802 0.49900001999999993 2.27600003
v 3.266850250846519 0.93000002 2.27600003
v 3.2665935483652926 0.49900002 2.27600003
v 3.2665935483652926 0.49900002 2.27600003
v 0.5707378400000008 0.9300000200000001 2.27600003
v 0.5707378400000005 0.49900002000000004 2.27600003
v 0.5707378400000008 0.9300000200000001 2.27600003
v 3.2665935483652926 0.49900002 2.27600003
v 3.266850250846519 0.93000002 2.27600003
v 3.288617444810001 0.49900002 2.73600005
v 6.10173802 0.49900002 2.73600005
v 6.10173802 0.49900002 2.27600003
v 6.10173802 0.49900002 2.27600003
v 3.288537270564688 0.49900002 2.27600003
v 3.288617444810001 0.49900002 2.73600005
v 3.288537270564688 0.49900002 2.27600003
v 0.5707378399999996 0.49900002 2.27600003
v 0.5707378399999999 0.49900002 2.73600005
v 0.5707378399999999 0.49900002 2.73600005
v 3.288617444810001 0.49900002 2.73600005
v 3.288537270564688 0.49900002 2.27600003
v 3.2081087053977195 0.9300000199999998 2.73600005
v 6.10173802 0.9300000199999999 2.73600005
v 6.10173802 1.90299993 2.73600005
v 6.10173802 1.90299993 2.73600005
v 3.269014113091006 2.1631741657400845 2.73600005
v 3.2081087053977195 0.9300000199999998 2.73600005
v 3.269014113091006 2.1631741657400845 2.73600005
v 0.5707378399999992 2.41099993 2.73600005
v 0.5707378399999996 0.9300000199999999 2.73600005
v 0.5707378399999996 0.9300000199999999 2.73600005
v 3.2081087053977195 0.9300000199999998 2.73600005
v 3.269014113091006 2.1631741657400845 2.73600005
v 3.3399561728781673 -3.48300019 2.73600005
v 0.57073784 -3.48300019 2.73600005
v 0.57073784 -3.48300019 2.27600003
v 0.57073784 -3.48300019 2.27600003
v 3.340134494570152 -3.48300019 2.27600003
v 3.3399561728781673 -3.48300019 2.73600005
v 3.340134494570152 -3.48300019 2.27600003
v 6.101738020000001 -3.48300019 2.27600003
v 6.101738020000001 -3.48300019 2.73600005
v 6.101738020000001 -3.48300019 2.73600005
v 3.3399561728781673 -3.48300019 2.73600005
v 3.340134494570152 -3.48300019 2.27600003
v 3.2678285250376735 -3.90599995 2.27600003
v 6.10173802 -3.90599995 2.27600003
v 6.10173802 -3.48300019 2.27600003
v 6.10173802 -3.48300019 2.27600003
v 3.2677993189969614 -3.48300019 2.27600003
v 3.2678285250376735 -3.90599995 2.27600003
v 3.2677993189969614 -3.48300019 2.27600003
v 0.5707378399999998 -3.48300019 2.27600003
v 0.5707378399999996 -3.90599995 2.27600003
v 0.5707378399999996 -3.90599995 2.27600003
v 3.2678285250376735 -3.90599995 2.27600003
v 3.2677993189969614 -3.48300019 2.27600003
v 3.3325196871218328 -3.90599995 2.73600005
v 6.10173802 -3.90599995 2.73600005
v 6.10173802 -3.90599995 2.27600003
v 6.10173802 -3.90599995 2.27600003
v 3.332341365429848 -3.90599995 2.27600003
v 3.3325196871218328 -3.90599995 2.73600005
v 3.332341365429848 -3.90599995 2.27600003
v 0.5707378399999996 -3.90599995 2.27600003
v 0.5707378399999999 -3.90599995 2.73600005
v 0.5707378399999999 -3.90599995 2.73600005
v 3.3325196871218328 -3.90599995 2.73600005
v 3.332341365429848 -3.90599995 2.27600003
v 4.31302294868102 -1.460074989293043 2.73600005
v 6.10173802 -1.5251515955411965 2.73600005
v 6.10173802 0.49900002 2.73600005
v 6.10173802 0.49900002 2.73600005
v 4.299239300914796 0.49900002 2.73600005
v 4.31302294868102 -1.460074989293043 2.73600005
v 2.453049481738457 -1.4420552434379108 2.73600005
v 4.19824030102 -1.5611316464846583 2.73600005
v 4.31302294868102 -1.460074989293043 2.73600005
v 2.453049481738457 -1.4420552434379108 2.73600005
v 4.299239300914796 0.49900002 2.73600005
v 2.4680235978154017 0.49900002 2.73600005
v 4.299239300914796 0.49900002 2.73600005
v 2.453049481738457 -1.4420552434379108 2.73600005
v 4.31302294868102 -1.460074989293043 2.73600005
v 4.31302294868102 -1.460074989293043 2.73600005
v 4.19824030102 -1.5611316464846583 2.73600005
v 4.206178083286501 -3.4830001900000003 2.73600005
v 4.31302294868102 -1.460074989293043 2.73600005
v 6.101738020000001 -3.4830001900000003 2.73600005
v 6.10173802 -1.5251515955411965 2.73600005
v 6.101738020000001 -3.4830001900000003 2.73600005
v 4.31302294868102 -1.460074989293043 2.73600005
v 4.206178083286501 -3.4830001900000003 2.73600005
v 2.370749911380992 -1.5134274420485774 2.73600005
v 2.453049481738457 -1.4420552434379108 2.73600005
v 2.4680235978154017 0.49900002 2.73600005
v 2.370749911380992 -1.5134274420485774 2.73600005
v 0.5707378400000003 0.49900002 2.73600005
v 0.5707378399999996 -1.4527547854891851 2.73600005
v 0.5707378400000003 0.49900002 2.73600005
v 2.370749911380992 -1.5134274420485774 2.73600005
v 2.4680235978154017 0.49900002 2.73600005
v 4.19824030102 -1.5611316464846583 2.73600005
v 2.453049481738457 -1.4420552434379108 2.73600005
v 2.370749911380992 -1.5134274420485774 2.73600005
v 4.19824030102 -1.5611316464846583 2.73600005
v 2.3469828073583705 -3.48300019 2.73600005
v 4.206178083286501 -3.4830001900000003 2.73600005
v 2.3469828073583705 -3.48300019 2.73600005
v 4.19824030102 -1.5611316464846583 2.73600005
v 2.370749911380992 -1.5134274420485774 2.73600005
v 2.370749911380992 -1.5134274420485774 2.73600005
v 0.5707378399999996 -1.4527547854891851 2.73600005
v 0.5707378400000005 -3.4830001900000003 2.73600005
v 0.5707378400000005 -3.4830001900000003 2.73600005
v 2.3469828073583705 -3.48300019 2.73600005
v 2.370749911380992 -1.5134274420485774 2.73600005
v -1.86360582 1.6683718100000002 0.0
v -2.375469416187474 0.7676145836668973 0.0
v -1.9229787483592387 1.746309905230048 0.0
v -1.74129991 1.7145899200000003 0.0
v -1.875499228545114 1.8490037002980775 0.0
v -1.7052733941671543 2.2171863824172444 0.0
v -0.05112377 2.49574572 0.0
v -1.5275536786251034 2.601577634032104 0.0
v -1.5005232432077436 2.660041957307003 0.0
v -1.74129991 1.7145899200000003 0.0
v -2.375469416187474 0.7676145836668973 0.0
v -1.86360582 1.6683718100000002 0.0
v -1.875499228545114 1.8490037002980775 0.0
v -1.74129991 1.7145899200000003 0.0
v -1.78405854 1.7289706300000003 0.0
v -0.05112377 2.49574572 0.0
v -1.5005232432077436 2.660041957307003 0.0
v -0.00026213999999999404 2.52300007 0.0
v -2.375469416187474 0.7676145836668973 0.0
v -1.74129991 1.7145899200000003 0.0
v -1.8814751643518846 -0.08069392257711044 0.0
v -1.86360582 1.6683718100000002 0.0
v -1.78405854 1.7289706300000003 0.0
v -1.74129991 1.7145899200000003 0.0
v -0.1154714599999998 1.5980490699999998 0.0
v -0.05112377 2.49574572 0.0
v -0.00026213999999999404 2.52300007 0.0
v -1.8814751643518846 -0.08069392257711044 0.0
v -1.74129991 1.7145899200000003 0.0
v -0.0002621399999995777 0.16787108793655747 0.0
v -0.1154714599999998 1.5980490699999998 0.0
v -0.00026213999999999404 2.52300007 0.0
v -0.0002621399999995777 0.16787108793655747 0.0
v -0.0002621399999995777 0.16787108793655747 0.0
v -1.74129991 1.7145899200000003 0.0
v -0.1154714599999998 1.5980490699999998 0.0
v -1.8814751643518846 -0.08069392257711044 0.0
v -0.7721027243638015 -1.9833576200000005 0.0
v -2.0778641822631534 -0.8745982538356626 0.0
v -0.7721027243638015 -1.9833576200000005 0.0
v -1.8814751643518846 -0.08069392257711044 0.0
v -0.0002621399999995777 0.16787108793655747 0.0
v -0.012714849999999167 -1.98335762 0.0
v -0.0002621399999989116 -2.6387495156038643 0.0
v -0.012714849999999167 -2.6281755637054522 0.0
v -0.7721027243638015 -1.9833576200000005 0.0
v -0.0002621399999995777 0.16787108793655747 0.0
v -0.012714849999999167 -1.98335762 0.0
v -0.0002621399999989116 -2.6387495156038643 0.0
v -0.012714849999999167 -1.98335762 0.0
v -0.0002621399999995777 0.16787108793655747 0.0
v -4.418242262369008 2.8596114599951474 0.0
v -4.2717214233371275 2.145739253350631 0.0
v -4.42231185 2.0587958500000005 0.0
v -4.42231185 2.0587958500000005 0.0
v -4.3723118 1.9721931900000007 0.0
v -4.38912512 1.9767803100000005 0.0
v -4.35215024 1.8838671800000004 0.0
v -4.38912512 1.9767803100000005 0.0
v -4.3723118 1.9721931900000007 0.0
v -4.35215024 1.8838671800000004 0.0
v -4.25053231674209 2.0425026463139067 0.0
v -3.997531402917293 0.8098430340120006 0.0
v -5.28128268 1.5141203700000005 0.0
v -5.34190068 0.5119326710119261 0.0
v -5.34190068 1.478813800000001 0.0
v -5.441900389999999 1.4788138000000006 0.0
v -5.441900389999999 0.5099406239470243 0.0
v -6.251262229999999 0.49381770841241224 0.0
v -6.03711328 3.050918810000001 0.0
v -4.432246289555179 2.9278412480263705 0.0
v -4.422680490348357 2.8812351936711518 0.0
v -4.510118119999999 1.9854677600000006 0.0
v -4.418242262369008 2.8596114599951474 0.0
v -4.42231185 2.0587958500000005 0.0
v -4.25053231674209 2.0425026463139067 0.0
v -4.35215024 1.8838671800000004 0.0
v -4.3723118 1.9721931900000007 0.0
v -5.34190068 0.5119326710119261 0.0
v -5.28128268 1.5141203700000005 0.0
v -4.219483801827322 0.5342918083310277 0.0
v -4.432246289555179 2.9278412480263705 0.0
v -6.03711328 3.050918810000001 0.0
v -6.25126223 3.093999910000001 0.0
v -4.510118119999999 1.9854677600000006 0.0
v -4.42231185 2.0587958500000005 0.0
v -4.38912512 1.9767803100000005 0.0
v -5.28128268 1.5141203700000005 0.0
v -4.35215024 1.8838671800000004 0.0
v -3.997531402917293 0.8098430340120006 0.0
v -6.25126223 3.093999910000001 0.0
v -6.03711328 3.050918810000001 0.0
v -6.13118894 2.155849220000001 0.0
v -4.510118119999999 1.9854677600000006 0.0
v -4.38912512 1.9767803100000005 0.0
v -5.318257549999999 1.6070335900000008 0.0
v -4.219483801827322 0.5342918083310277 0.0
v -5.28128268 1.5141203700000005 0.0
v -3.997531402917293 0.8098430340120006 0.0
v -6.251262229999999 0.49381770841241224 0.0
v -6.25126223 3.093999910000001 0.0
v -6.13118894 2.155849220000001 0.0
v -6.13118894 2.155849220000001 0.0
v -4.510118119999999 1.9854677600000006 0.0
v -5.318257549999999 1.6070335900000008 0.0
v -5.318257549999999 1.6070335900000008 0.0
v -5.28128268 1.5141203700000005 0.0
v -5.34190068 1.478813800000001 0.0
v -5.441900389999999 1.4788138000000006 0.0
v -6.251262229999999 0.49381770841241224 0.0
v -6.13118894 2.155849220000001 0.0
v -5.441900389999999 1.4788138000000006 0.0
v -5.318257549999999 1.6070335900000008 0.0
v -5.34190068 1.478813800000001 0.0
v -5.318257549999999 1.6070335900000008 0.0
v -5.441900389999999 1.4788138000000006 0.0
v -6.13118894 2.155849220000001 0.0
v -2.3900469400000004 2.5244441700000007 0.0
v -1.7052733941671543 2.2171863824172444 0.0
v -1.875499228545114 1.8490037002980775 0.0
v -2.5087414400000005 2.4619983700000003 0.0
v -1.9229787483592387 1.746309905230048 0.0
v -2.375469416187474 0.7676145836668973 0.0
v -3.5087416400000007 2.4619983700000008 0.0
v -3.997531402917293 0.8098430340120006 0.0
v -4.25053231674209 2.0425026463139067 0.0
v -4.25053231674209 2.0425026463139067 0.0
v -3.5087416400000007 2.4707759300000003 0.0
v -3.5087416400000007 2.4619983700000008 0.0
v -3.50874164 2.561998270000001 0.0
v -3.5087416400000007 2.4707759300000003 0.0
v -3.5562864200000006 2.5587957500000003 0.0
v -3.5562864200000006 2.5587957500000003 0.0
v -4.2717214233371275 2.145739253350631 0.0
v -4.418242262369008 2.8596114599951474 0.0
v -4.41604285 2.8805375500000006 0.0
v -4.422680490348357 2.8812351936711518 0.0
v -4.432246289555179 2.9278412480263705 0.0
v -1.67695229 2.6122866700000005 0.0
v -1.5005232432077436 2.660041957307003 0.0
v -1.5275536786251034 2.601577634032104 0.0
v -1.7052733941671543 2.2171863824172444 0.0
v -2.3900469400000004 2.5244441700000007 0.0
v -1.67695229 2.6122866700000005 0.0
v -3.5087416400000007 2.4619983700000008 0.0
v -2.375469416187474 0.7676145836668973 0.0
v -3.997531402917293 0.8098430340120006 0.0
v -2.375469416187474 0.7676145836668973 0.0
v -3.5087416400000007 2.4619983700000008 0.0
v -2.5087414400000005 2.4619983700000003 0.0
v -4.41604285 2.8805375500000006 0.0
v -3.5562864200000006 2.5587957500000003 0.0
v -4.418242262369008 2.8596114599951474 0.0
v -2.5087414400000005 2.56199827 0.0
v -1.5005232432077436 2.660041957307003 0.0
v -1.67695229 2.6122866700000005 0.0
v -1.9229787483592387 1.746309905230048 0.0
v -2.5087414400000005 2.4619983700000003 0.0
v -2.4695942200000003 2.4638451500000005 0.0
v -4.432246289555179 2.9278412480263705 0.0
v -3.5562864200000006 2.5587957500000003 0.0
v -4.41604285 2.8805375500000006 0.0
v -1.5005232432077436 2.660041957307003 0.0
v -2.5087414400000005 2.56199827 0.0
v -4.432246289555179 2.9278412480263705 0.0
v -2.5087414400000005 2.56199827 0.0
v -2.4695942200000003 2.4638451500000005 0.0
v -2.5087414400000005 2.4619983700000003 0.0
v -3.50874164 2.561998270000001 0.0
v -4.432246289555179 2.9278412480263705 0.0
v -2.5087414400000005 2.56199827 0.0
v -2.4695942200000003 2.4638451500000005 0.0
v -2.5087414400000005 2.56199827 0.0
v -2.3900469400000004 2.5244441700000007 0.0
v -3.5562864200000006 2.5587957500000003 0.0
v -4.432246289555179 2.9278412480263705 0.0
v -3.50874164 2.561998270000001 0.0
v -1.67695229 2.6122866700000005 0.0
v -2.3900469400000004 2.5244441700000007 0.0
v -2.5087414400000005 2.56199827 0.0
v -4.219483801827322 0.5342918083310277 0.0
v -2.0778641822631534 -0.8745982538356626 0.0
v -3.015538353475381 -1.5150372276852815 0.0
v -3.015538353475381 -1.5150372276852815 0.0
v -4.12902279016961 -1.2487416600512764 0.0
v -4.219483801827322 0.5342918083310277 0.0
v -4.219483801827322 0.5342918083310277 0.0
v -3.997531402917293 0.8098430340120006 0.0
v -2.375469416187474 0.7676145836668973 0.0
v -2.0778641822631534 -0.8745982538356626 0.0
v -2.375469416187474 0.7676145836668973 0.0
v -1.8814751643518846 -0.08069392257711044 0.0
v -2.0778641822631534 -0.8745982538356626 0.0
v -4.219483801827322 0.5342918083310277 0.0
v -2.375469416187474 0.7676145836668973 0.0
v -0.012714849999998723 -3.6133573500000002 0.0
v -0.012714849999999167 -2.6281755637054522 0.0
v -0.0002621399999989116 -2.6387495156038643 0.0
v -0.012714849999998723 -3.6133573500000002 0.0
v -2.451055212763791 -3.64799981 0.0
v -2.460223251990037 -3.6133573500000002 0.0
v -0.012714849999998723 -3.6133573500000002 0.0
v -0.0002621399999989116 -2.6387495156038643 0.0
v -0.0002621399999989116 -3.647999810000001 0.0
v -2.451055212763791 -3.64799981 0.0
v -0.012714849999998723 -3.6133573500000002 0.0
v -0.0002621399999989116 -3.647999810000001 0.0
v -0.9127148299999994 -1.9833576200000005 0.0
v -2.0778641822631534 -0.8745982538356626 0.0
v -0.7721027243638015 -1.9833576200000005 0.0
v -0.9127148299999994 -1.9833576200000005 0.0
v -0.9127148299999983 -2.7983574899999994 0.0
v -2.6759108990527665 -2.7983574899999994 0.0
v -2.6759108990527665 -2.7983574899999994 0.0
v -2.0778641822631534 -0.8745982538356626 0.0
v -0.9127148299999994 -1.9833576200000005 0.0
v -2.0778641822631534 -0.8745982538356626 0.0
v -2.6759108990527665 -2.7983574899999994 0.0
v -3.015538353475381 -1.5150372276852815 0.0
v -5.34190068 -0.09118617999999934 0.0
v -5.34190068 0.5119326710119261 0.0
v -4.219483801827322 0.5342918083310277 0.0
v -5.34190068 -0.09118617999999934 0.0
v -4.12902279016961 -1.2487416600512764 0.0
v -4.319971437013648 -1.3811496794140365 0.0
v -5.441900389999999 -0.0911861799999989 0.0
v -6.25126223 -1.1439368747740628 0.0
v -6.251262229999999 0.49381770841241224 0.0
v -6.251262229999999 0.49381770841241224 0.0
v -5.441900389999999 0.5099406239470243 0.0
v -5.441900389999999 -0.0911861799999989 0.0
v -4.12902279016961 -1.2487416600512764 0.0
v -5.34190068 -0.09118617999999934 0.0
v -4.219483801827322 0.5342918083310277 0.0
v -5.34190068 -0.09118617999999934 0.0
v -6.25126223 -1.1439368747740628 0.0
v -5.441900389999999 -0.0911861799999989 0.0
v -6.25126223 -1.1439368747740628 0.0
v -5.34190068 -0.09118617999999934 0.0
v -4.319971437013648 -1.3811496794140365 0.0
v -4.52168292 -3.0531010499999995 0.0
v -4.728914029056179 -3.05310105 0.0
v -4.319971437013648 -1.3811496794140365 0.0
v -4.319971437013648 -1.3811496794140365 0.0
v -4.12902279016961 -1.2487416600512764 0.0
v -3.015538353475381 -1.5150372276852815 0.0
v -3.015538353475381 -1.5150372276852815 0.0
v -2.6759108990527665 -2.7983574899999994 0.0
v -2.8027147799999996 -2.7983574899999994 0.0
v -2.8027147799999996 -3.6133573500000002 0.0
v -2.460223251990037 -3.6133573500000002 0.0
v -2.451055212763791 -3.64799981 0.0
v -4.52168292 -3.6231009399999996 0.0
v -4.8744203190100714 -3.64799981 0.0
v -4.868330304302789 -3.6231009399999996 0.0
v -2.8027147799999996 -2.7983574899999994 0.0
v -4.52168292 -3.0531010499999995 0.0
v -4.319971437013648 -1.3811496794140365 0.0
v -4.319971437013648 -1.3811496794140365 0.0
v -3.015538353475381 -1.5150372276852815 0.0
v -2.8027147799999996 -2.7983574899999994 0.0
v -4.8744203190100714 -3.64799981 0.0
v -4.52168292 -3.6231009399999996 0.0
v -2.451055212763791 -3.64799981 0.0
v -2.8027147799999996 -3.6133573500000002 0.0
v -4.52168292 -3.0531010499999995 0.0
v -2.8027147799999996 -2.7983574899999994 0.0
v -2.8027147799999996 -3.6133573500000002 0.0
v -2.451055212763791 -3.64799981 0.0
v -4.52168292 -3.6231009399999996 0.0
v -4.52168292 -3.0531010499999995 0.0
v -2.8027147799999996 -3.6133573500000002 0.0
v -4.52168292 -3.6231009399999996 0.0
v -6.251262229999999 -2.1870000399999987 0.0
v -4.728914029056179 -3.05310105 0.0
v -6.15168304 -3.05310105 0.0
v -6.15168304 -3.62310094 0.0
v -4.868330304302789 -3.6231009399999996 0.0
v -4.8744203190100714 -3.64799981 0.0
v -6.251262229999999 -1.1499999599999997 0.0
v -6.25126223 -1.1439368747740628 0.0
v -4.319971437013648 -1.3811496794140365 0.0
v -6.15168304 -3.62310094 0.0
v -4.8744203190100714 -3.64799981 0.0
v -6.25126223 -3.647999810000001 0.0
v -6.251262229999999 -2.1870000399999987 0.0
v -6.251262229999999 -1.1499999599999997 0.0
v -4.319971437013648 -1.3811496794140365 0.0
v -6.15168304 -3.05310105 0.0
v -6.15168304 -3.62310094 0.0
v -6.25126223 -3.647999810000001 0.0
v -4.728914029056179 -3.05310105 0.0
v -6.251262229999999 -2.1870000399999987 0.0
v -4.319971437013648 -1.3811496794140365 0.0
v -6.15168304 -3.05310105 0.0
v -6.25126223 -3.647999810000001 0.0
v -6.251262229999999 -2.1870000399999987 0.0
v -4.261596073941177 -3.64799981 1.371177456092814
v -3.729535410196192 -3.64799981 2.76800004
v -6.25126223 -3.64799981 2.76800004
v -6.25126223 -3.64799981 2.76800004
v -6.25126223 -3.64799981 1.4196140220464466
v -4.261596073941177 -3.64799981 1.371177456092814
v -2.00631032942168 -3.64799981 1.3689129180677106
v -0.00026213999999979976 -3.64799981 1.4313887851723444
v -0.0002621400000000218 -3.64799981 2.7680000400000004
v -0.0002621400000000218 -3.64799981 2.7680000400000004
v -2.5367261600451685 -3.64799981 2.7680000400000004
v -2.00631032942168 -3.64799981 1.3689129180677106
v -4.261596073941177 -3.64799981 1.371177456092814
v -6.25126223 -3.64799981 1.4196140220464466
v -6.25126223 -3.64799981 0.0
v -6.25126223 -3.64799981 0.0
v -3.789693212814156 -3.64799981 -2.220446049250313e-16
v -4.261596073941177 -3.64799981 1.371177456092814
v -2.00631032942168 -3.64799981 1.3689129180677106
v -3.789693212814156 -3.64799981 -2.220446049250313e-16
v -2.4677718484812963 -3.64799981 -2.220446049250313e-16
v -3.729535410196192 -3.64799981 2.76800004
v -2.00631032942168 -3.64799981 1.3689129180677106
v -2.5367261600451685 -3.64799981 2.7680000400000004
v -2.00631032942168 -3.64799981 1.3689129180677106
v -3.729535410196192 -3.64799981 2.76800004
v -4.261596073941177 -3.64799981 1.371177456092814
v -3.789693212814156 -3.64799981 -2.220446049250313e-16
v -2.00631032942168 -3.64799981 1.3689129180677106
v -4.261596073941177 -3.64799981 1.371177456092814
v -2.00631032942168 -3.64799981 1.3689129180677106
v -2.4677718484812963 -3.64799981 -2.220446049250313e-16
v -0.0002621399999992172 -3.64799981 -1.3143899093220044e-16
v -0.0002621399999992172 -3.64799981 -1.3143899093220044e-16
v -0.00026213999999979976 -3.64799981 1.4313887851723444
v -2.00631032942168 -3.64799981 1.3689129180677106
v -2.1778664149264215 0.9300000200000001 2.76800004
v -0.0002621400000000218 0.93000002 2.76800004
v -0.00026214 2.52300007 2.76800004
v -0.00026214 2.52300007 2.76800004
v -2.09781729875606 2.7146019965392276 2.76800004
v -2.1778664149264215 0.9300000200000001 2.76800004
v -2.1778664149264215 0.9300000200000001 2.76800004
v -4.16596479972909 2.9035176700553995 2.76800004
v -4.268248938393335 0.93000002 2.76800004
v -4.16596479972909 2.9035176700553995 2.76800004
v -2.1778664149264215 0.9300000200000001 2.76800004
v -2.09781729875606 2.7146019965392276 2.76800004
v -4.16596479972909 2.9035176700553995 2.76800004
v -6.251262229999999 3.09399991 2.76800004
v -6.25126223 0.9300000200000001 2.76800004
v -6.25126223 0.9300000200000001 2.76800004
v -4.268248938393335 0.93000002 2.76800004
v -4.16596479972909 2.9035176700553995 2.76800004
v -6.25126223 0.8814893773336199 1.672238522031785
v -6.25126223 1.1627922435062135 2.76800004
v -6.25126223 3.09399991 2.76800004
v -6.25126223 0.8814893773336199 1.672238522031785
v -6.25126223 3.09399991 -4.440892098500626e-16
v -6.25126223 1.5377561721265431 -2.220446049250313e-16
v -6.25126223 3.09399991 -4.440892098500626e-16
v -6.25126223 0.8814893773336199 1.672238522031785
v -6.25126223 3.09399991 2.76800004
v -6.25126223 0.49900002000000004 2.27600003
v -6.25126223 -1.1499999599999995 1.01541795117405
v -6.25126223 -1.1499999599999993 2.03299994
v -6.25126223 -1.1499999599999993 2.03299994
v -6.25126223 -1.4848778540582803 2.03299994
v -6.25126223 -1.4426444935787481 2.76800004
v -6.25126223 -1.1499999599999993 2.03299994
v -6.25126223 0.49900002 2.7680000400000004
v -6.25126223 0.49900002000000004 2.27600003
v -6.25126223 0.9300000199999998 2.27600003
v -6.25126223 0.93000002 2.7680000400000004
v -6.25126223 1.1627922435062135 2.76800004
v -6.25126223 0.49900002 2.7680000400000004
v -6.25126223 -1.1499999599999993 2.03299994
v -6.25126223 -1.4426444935787481 2.76800004
v -6.25126223 0.9300000199999998 2.27600003
v -6.25126223 1.1627922435062135 2.76800004
v -6.25126223 0.8814893773336199 1.672238522031785
v -6.25126223 -1.1499999599999995 1.01541795117405
v -6.25126223 0.49900002000000004 2.27600003
v -6.25126223 0.8814893773336199 1.672238522031785
v -6.25126223 0.49900002000000004 2.27600003
v -6.25126223 0.9300000199999998 2.27600003
v -6.25126223 0.8814893773336199 1.672238522031785
v -6.25126223 0.8814893773336199 1.672238522031785
v -6.25126223 1.5377561721265431 -2.220446049250313e-16
v -6.25126223 -1.1499999600000002 -1.1102230246251565e-16
v -6.25126223 -1.1499999600000002 -1.1102230246251565e-16
v -6.25126223 -1.1499999599999995 1.01541795117405
v -6.25126223 0.8814893773336199 1.672238522031785
v -6.25126223 -2.18700004 2.03299994
v -6.25126223 -2.1870000400000005 1.3485303751428466
v -6.25126223 -3.64799981 1.6368789451608112
v -6.25126223 -2.18700004 2.03299994
v -6.25126223 -3.647999810000001 2.76800004
v -6.25126223 -1.4426444935787481 2.76800004
v -6.25126223 -1.4426444935787481 2.76800004
v -6.25126223 -1.4848778540582803 2.03299994
v -6.25126223 -2.18700004 2.03299994
v -6.25126223 -3.647999810000001 2.76800004
v -6.25126223 -2.18700004 2.03299994
v -6.25126223 -3.64799981 1.6368789451608112
v -6.25126223 -2.1870000400000005 1.3485303751428466
v -6.25126223 -2.187000039999999 6.111156783719877e-16
v -6.25126223 -3.64799981 -3.3306690738754696e-16
v -6.25126223 -3.64799981 -3.3306690738754696e-16
v -6.25126223 -3.64799981 1.6368789451608112
v -6.25126223 -2.1870000400000005 1.3485303751428466
v -6.25126223 -1.1499999599999997 2.03299994
v -6.25126223 -1.14999996 0.0
v -6.25126223 -2.18700004 -1.1102230246251565e-16
v -6.25126223 -2.18700004 -1.1102230246251565e-16
v -6.25126223 -2.18700004 2.03299994
v -6.25126223 -1.1499999599999997 2.03299994
v -3.133583166561945 0.49900002 2.27600003
v -0.00026214 0.49900002 2.76800004
v -0.0002621399999999871 0.49900002 2.27600003
v -0.00026214 0.49900002 2.76800004
v -3.133583166561945 0.49900002 2.27600003
v -3.1344319062536705 0.49900002 2.76800004
v -3.1344319062536705 0.49900002 2.76800004
v -6.25126223 0.49900002 2.27600003
v -6.251262229999999 0.49900002 2.76800004
v -6.25126223 0.49900002 2.27600003
v -3.1344319062536705 0.49900002 2.76800004
v -3.133583166561945 0.49900002 2.27600003
v -3.1670152449438183 0.49900002 2.27600003
v -0.0002621399999999906 0.4990000199999999 2.27600003
v -0.00026214 0.93000002 2.27600003
v -0.00026214 0.93000002 2.27600003
v -3.167123454670249 0.9300000200000001 2.27600003
v -3.1670152449438183 0.49900002 2.27600003
v -3.167123454670249 0.9300000200000001 2.27600003
v -6.251262229999999 0.9300000200000003 2.27600003
v -6.251262229999999 0.49900002000000004 2.27600003
v -6.251262229999999 0.49900002000000004 2.27600003
v -3.1670152449438183 0.49900002 2.27600003
v -3.167123454670249 0.9300000200000001 2.27600003
v -3.1089155708704315 0.93000002 2.76800004
v -6.25126223 0.93000002 2.76800004
v -6.25126223 0.93000002 2.27600003
v -6.25126223 0.93000002 2.27600003
v -3.107558841892256 0.93000002 2.27600003
v -3.1089155708704315 0.93000002 2.76800004
v -3.107558841892256 0.93000002 2.27600003
v -0.00026214000000090304 0.93000002 2.27600003
v -0.00026214000000024504 0.93000002 2.76800004
v -0.00026214000000024504 0.93000002 2.76800004
v -3.1089155708704315 0.93000002 2.76800004
v -3.107558841892256 0.93000002 2.27600003
v -2.097157015386077 -0.8084398966156634 2.76800004
v -0.0002621400000000218 -0.9815493176195511 2.76800004
v -0.00026214 0.49900002 2.76800004
v -0.00026214 0.49900002 2.76800004
v -2.306756948388937 0.49900002 2.76800004
v -2.097157015386077 -0.8084398966156634 2.76800004
v -4.258829269781324 -1.5546000692150934 2.76800004
v -4.1947302854210635 -1.6159312852558445 2.76800004
v -2.48584739275932 -1.569967243529137 2.76800004
v -4.249736096253685 0.49900002 2.76800004
v -2.097157015386077 -0.8084398966156634 2.76800004
v -2.306756948388937 0.49900002 2.76800004
v -2.097157015386077 -0.8084398966156634 2.76800004
v -4.249736096253685 0.49900002 2.76800004
v -4.258829269781324 -1.5546000692150934 2.76800004
v -2.097157015386077 -0.8084398966156634 2.76800004
v -4.258829269781324 -1.5546000692150934 2.76800004
v -2.48584739275932 -1.569967243529137 2.76800004
v -2.097157015386077 -0.8084398966156634 2.76800004
v -2.48584739275932 -1.569967243529137 2.76800004
v -2.0524867916742626 -2.384929438202533 2.76800004
v -2.097157015386077 -0.8084398966156634 2.76800004
v -0.0002621400000000218 -2.1375890844769923 2.76800004
v -0.0002621400000000218 -0.9815493176195511 2.76800004
v -0.0002621400000000218 -2.1375890844769923 2.76800004
v -2.097157015386077 -0.8084398966156634 2.76800004
v -2.0524867916742626 -2.384929438202533 2.76800004
v -2.0524867916742626 -2.384929438202533 2.76800004
v -2.2400226281649713 -3.647999810000001 2.76800004
v -0.00026214000000024384 -3.647999810000001 2.76800004
v -0.00026214000000024384 -3.647999810000001 2.76800004
v -0.0002621400000000218 -2.1375890844769923 2.76800004
v -2.0524867916742626 -2.384929438202533 2.76800004
v -4.258829269781324 -1.5546000692150934 2.76800004
v -4.249736096253685 0.49900002 2.76800004
v -6.25126223 0.49900002000000043 2.76800004
v -6.25126223 0.49900002000000043 2.76800004
v -6.25126223 -1.5824629107541563 2.76800004
v -4.258829269781324 -1.5546000692150934 2.76800004
v -2.0524867916742626 -2.384929438202533 2.76800004
v -2.48584739275932 -1.569967243529137 2.76800004
v -4.1947302854210635 -1.6159312852558445 2.76800004
v -2.0524867916742626 -2.384929438202533 2.76800004
v -4.228471297921016 -3.6479998100000004 2.76800004
v -2.2400226281649713 -3.647999810000001 2.76800004
v -4.228471297921016 -3.6479998100000004 2.76800004
v -2.0524867916742626 -2.384929438202533 2.76800004
v -4.1947302854210635 -1.6159312852558445 2.76800004
v -6.25126223 -3.64799981 2.76800004
v -4.258829269781324 -1.5546000692150934 2.76800004
v -6.25126223 -1.5824629107541563 2.76800004
v -4.258829269781324 -1.5546000692150934 2.76800004
v -6.25126223 -3.64799981 2.76800004
v -4.228471297921016 -3.6479998100000004 2.76800004
v -4.258829269781324 -1.5546000692150934 2.76800004
v -4.228471297921016 -3.6479998100000004 2.76800004
v -4.1947302854210635 -1.6159312852558445 2.76800004
v -2.1083535180777435 2.7155644312633145 1.5143026836302145
v -2.1063416206745633 2.715380653775109 2.76800004
v -0.00026214 2.52300007 2.76800004
v -0.00026214 2.52300007 2.76800004
v -0.0002621399999999108 2.52300007 1.2200147964380277
v -2.1083535180777435 2.7155644312633145 1.5143026836302145
v -2.1083535180777435 2.7155644312633145 1.5143026836302145
v -2.374737550270285 2.739897376003441 1.1277666423892818
v -4.221642712034194 2.90860358887799 1.5592508544262738
v -4.221642712034194 2.90860358887799 1.5592508544262738
v -4.576947601552411 2.9410590411488475 2.7680000400000004
v -2.1063416206745633 2.715380653775109 2.76800004
v -2.1063416206745633 2.715380653775109 2.76800004
v -2.1083535180777435 2.7155644312633145 1.5143026836302145
v -4.221642712034194 2.90860358887799 1.5592508544262738
v -0.00026213999999979976 2.52300007 0.0
v -2.1083535180777435 2.7155644312633145 1.5143026836302145
v -0.0002621399999999108 2.52300007 1.2200147964380277
v -2.1083535180777435 2.7155644312633145 1.5143026836302145
v -0.00026213999999979976 2.52300007 0.0
v -2.3565992051444056 2.738240522377521 2.220446049250313e-16
v -2.1083535180777435 2.7155644312633145 1.5143026836302145
v -2.3565992051444056 2.738240522377521 2.220446049250313e-16
v -2.374737550270285 2.739897376003441 1.1277666423892818
v -4.221642712034194 2.90860358887799 1.5592508544262738
v -2.374737550270285 2.739897376003441 1.1277666423892818
v -2.3565992051444056 2.738240522377521 2.220446049250313e-16
v -2.3565992051444056 2.738240522377521 2.220446049250313e-16
v -4.879883944870595 2.968730869828163 5.551115123125783e-16
v -4.221642712034194 2.90860358887799 1.5592508544262738
v -4.221642712034194 2.90860358887799 1.5592508544262738
v -4.879883944870595 2.968730869828163 5.551115123125783e-16
v -6.25126223 3.09399991 3.8432186756735074e-16
v -4.221642712034194 2.90860358887799 1.5592508544262738
v -6.25126223 3.09399991 2.7680000400000004
v -4.576947601552411 2.9410590411488475 2.7680000400000004
v -6.25126223 3.09399991 2.7680000400000004
v -4.221642712034194 2.90860358887799 1.5592508544262738
v -6.25126223 3.09399991 3.8432186756735074e-16
v -0.00026214 0.93000002 2.27600003
v -0.00026214 -0.01200000000000001 1.222055237673213
v -0.00026214 2.52300007 1.6145749594187218
v -0.00026214 0.93000002 2.27600003
v -0.00026214 2.52300007 2.76800004
v -0.00026214 0.93000002 2.76800004
v -0.00026214 -0.01200000000000001 2.19499993
v -0.00026214 0.49900002 2.76800004
v -0.00026214 -0.5304236845818018 2.76800004
v -0.00026214 -0.5304236845818018 2.76800004
v -0.00026214 -0.5530971000905267 2.1942667837401406
v -0.00026214 -0.01200000000000001 2.19499993
v -0.00026214 2.52300007 2.76800004
v -0.00026214 0.93000002 2.27600003
v -0.00026214 2.52300007 1.6145749594187218
v -0.00026214 0.49900002 2.76800004
v -0.00026214 -0.01200000000000001 2.19499993
v -0.00026214 0.49900002 2.27600003
v -0.00026214 0.49900002 2.27600003
v -0.00026214 -0.01200000000000001 1.222055237673213
v -0.00026214 0.93000002 2.27600003
v -0.00026214 -0.01200000000000001 1.222055237673213
v -0.00026214 0.49900002 2.27600003
v -0.00026214 -0.01200000000000001 2.19499993
v -0.00026214 -0.01200000000000001 0.04999999999999982
v -0.00026214 -0.7099797571201418 0.04999999999999982
v -0.00026214 -0.7112213741256812 0.0
v -0.00026214 2.52300007 0.0
v -0.00026214 2.52300007 1.6145749594187218
v -0.00026214 -0.01200000000000001 1.222055237673213
v -0.00026214 -0.01200000000000001 0.04999999999999982
v -0.00026214 -0.7112213741256812 0.0
v -0.00026214 2.52300007 0.0
v -0.00026214 2.52300007 0.0
v -0.00026214 -0.01200000000000001 1.222055237673213
v -0.00026214 -0.01200000000000001 0.04999999999999982
v -0.00026214 -1.4879999699999997 2.19300006
v -0.00026214 -0.5530971000905267 2.1942667837401406
v -0.00026214 -0.5304236845818018 2.76800004
v -0.00026214 -1.4879999699999997 2.19300006
v -0.00026214 -3.64799981 2.76800004
v -0.00026214 -3.64799981 1.9484704271453928
v -0.00026214 -3.64799981 1.9484704271453928
v -0.00026214 -1.4879999699999997 1.191899827242887
v -0.00026214 -1.4879999699999997 2.19300006
v -0.00026214 -3.64799981 2.76800004
v -0.00026214 -1.4879999699999997 2.19300006
v -0.00026214 -0.5304236845818018 2.76800004
v -0.00026214 -3.64799981 0.0
v -0.00026214 -1.4879999699999997 1.191899827242887
v -0.00026214 -3.64799981 1.9484704271453928
v -0.00026214 -1.4879999699999997 0.04999999999999982
v -0.00026214 -0.7112213741256812 0.0
v -0.00026214 -0.7099797571201418 0.04999999999999982
v -0.00026214 -1.4879999699999997 1.191899827242887
v -0.00026214 -3.64799981 0.0
v -0.00026214 -1.4879999699999997 0.04999999999999982
v -0.00026214 -0.7112213741256812 0.0
v -0.00026214 -1.4879999699999997 0.04999999999999982
v -0.00026214 -3.64799981 0.0
v 4.19531059534655 2.0780975796485945 1.3687250466278837
v 3.646930922783362 2.1284640350085904 2.7360000500000003
v 6.10173802 1.90299993 2.73600005
v 6.10173802 1.90299993 2.73600005
v 6.10173802 1.90299993 1.4697877240460004
v 4.19531059534655 2.0780975796485945 1.3687250466278837
v 2.2233324767384386 2.2592157954597756 0.04999999999999971
v 0.5707378400000004 2.41099993 0.05000000000000015
v 0.5707378400000007 2.41099993 2.7360000500000003
v 0.5707378400000007 2.41099993 2.7360000500000003
v 2.3125486946744314 2.2510216466193236 2.7360000500000003
v 2.2233324767384386 2.2592157954597756 0.04999999999999971
v 4.19531059534655 2.0780975796485945 1.3687250466278837
v 6.10173802 1.90299993 1.4697877240460004
v 6.101738020000001 1.90299993 0.04999999999999982
v 6.101738020000001 1.90299993 0.04999999999999982
v 3.7681351076939276 2.1173319207560524 0.050000000000000044
v 4.19531059534655 2.0780975796485945 1.3687250466278837
v 2.3125486946744314 2.2510216466193236 2.7360000500000003
v 3.646930922783362 2.1284640350085904 2.7360000500000003
v 4.19531059534655 2.0780975796485945 1.3687250466278837
v 4.19531059534655 2.0780975796485945 1.3687250466278837
v 3.7681351076939276 2.1173319207560524 0.050000000000000044
v 2.2233324767384386 2.2592157954597756 0.04999999999999971
v 2.2233324767384386 2.2592157954597756 0.04999999999999971
v 2.3125486946744314 2.2510216466193236 2.7360000500000003
v 4.19531059534655 2.0780975796485945 1.3687250466278837
v 6.10173802 -4.142020567887472 1.3952335183380575
v 6.10173802 -3.82309603288426 2.27600003
v 6.10173802 -3.90599995 2.27600003
v 6.10173802 -3.90599995 2.27600003
v 6.10173802 -3.9059999500000004 2.7360000499999995
v 6.10173802 -6.159999970000001 2.73600005
v 6.10173802 -6.159999970000001 2.73600005
v 6.10173802 -6.159999970000001 1.3693052380416408
v 6.10173802 -4.142020567887472 1.3952335183380575
v 6.10173802 -4.142020567887472 1.3952335183380575
v 6.10173802 -3.90599995 2.27600003
v 6.10173802 -6.159999970000001 2.73600005
v 6.10173802 -2.4604563163911375 2.73600005
v 6.10173802 -0.13047587422754822 1.4842483143972647
v 6.10173802 0.32973314166577083 2.7360000499999995
v 6.10173802 -0.13047587422754822 1.4842483143972647
v 6.10173802 -2.4604563163911375 2.73600005
v 6.10173802 -1.875139488718244 1.319884767370946
v 6.10173802 -4.142020567887472 1.3952335183380575
v 6.10173802 -6.159999970000001 1.3693052380416408
v 6.10173802 -6.159999970000001 0.050000000000000266
v 6.10173802 -6.159999970000001 0.050000000000000266
v 6.10173802 -3.722902848040158 0.050000000000000044
v 6.10173802 -4.142020567887472 1.3952335183380575
v 6.10173802 -1.875139488718244 1.319884767370946
v 6.10173802 -3.722902848040158 0.050000000000000044
v 6.10173802 -2.276329476608361 0.050000000000000044
v 6.10173802 -3.48300019 2.27600003
v 6.10173802 -1.875139488718244 1.319884767370946
v 6.10173802 -2.4604563163911375 2.73600005
v 6.10173802 -2.4604563163911375 2.73600005
v 6.10173802 -3.48300019 2.73600005
v 6.10173802 -3.48300019 2.27600003
v 6.10173802 -3.48300019 2.27600003
v 6.10173802 -3.82309603288426 2.27600003
v 6.10173802 -4.142020567887472 1.3952335183380575
v 6.10173802 -3.722902848040158 0.050000000000000044
v 6.10173802 -1.875139488718244 1.319884767370946
v 6.10173802 -4.142020567887472 1.3952335183380575
v 6.10173802 -1.875139488718244 1.319884767370946
v 6.10173802 -3.48300019 2.27600003
v 6.10173802 -4.142020567887472 1.3952335183380575
v 6.10173802 0.36620792841619265 0.04999999999999971
v 6.10173802 -1.875139488718244 1.319884767370946
v 6.10173802 -2.276329476608361 0.050000000000000044
v 6.10173802 -1.875139488718244 1.319884767370946
v 6.10173802 0.36620792841619265 0.04999999999999971
v 6.10173802 -0.13047587422754822 1.4842483143972647
v 6.10173802 0.9300000200000007 2.2760000299999996
v 6.10173802 0.36620792841619265 0.04999999999999971
v 6.10173802 1.9029999300000018 0.04999999999999951
v 6.10173802 0.9300000200000007 2.2760000299999996
v 6.10173802 1.9029999300000022 2.7360000499999995
v 6.10173802 0.930000020000001 2.736000049999999
v 6.10173802 0.49900002000000176 2.2760000299999996
v 6.10173802 0.49900002000000176 2.7360000499999995
v 6.10173802 0.32973314166577083 2.7360000499999995
v 6.10173802 1.9029999300000022 2.7360000499999995
v 6.10173802 0.9300000200000007 2.2760000299999996
v 6.10173802 1.9029999300000018 0.04999999999999951
v 6.10173802 0.49900002000000176 2.2760000299999996
v 6.10173802 0.32973314166577083 2.7360000499999995
v 6.10173802 -0.13047587422754822 1.4842483143972647
v 6.10173802 0.36620792841619265 0.04999999999999971
v 6.10173802 0.9300000200000007 2.2760000299999996
v 6.10173802 -0.13047587422754822 1.4842483143972647
v 6.10173802 0.9300000200000007 2.2760000299999996
v 6.10173802 0.49900002000000176 2.2760000299999996
v 6.10173802 -0.13047587422754822 1.4842483143972647
v 2.730548397587789 -6.15999997 2.5560748236451243
v 2.6868797885894042 -6.15999997 2.7360000500000003
v 0.57073784 -6.15999997 2.73600005
v 0.57073784 -6.15999997 2.73600005
v 0.5707378399999996 -6.15999997 0.04999999999999938
v 1.9075068634040493 -6.15999997 0.0499999999999996
v 1.9075068634040493 -6.15999997 0.0499999999999996
v 2.730548397587789 -6.15999997 2.5560748236451243
v 0.57073784 -6.15999997 2.73600005
v 6.101738019999999 -6.15999997 2.7360000500000003
v 4.1972011109568115 -6.15999997 1.1164301601843185
v 6.101738019999999 -6.15999997 2.6775533562018987
v 2.730548397587789 -6.15999997 2.5560748236451243
v 6.101738019999999 -6.15999997 2.7360000500000003
v 2.6868797885894042 -6.15999997 2.7360000500000003
v 4.1972011109568115 -6.15999997 1.1164301601843185
v 6.101738019999999 -6.15999997 2.7360000500000003
v 2.730548397587789 -6.15999997 2.5560748236451243
v 4.1972011109568115 -6.15999997 1.1164301601843185
v 2.730548397587789 -6.15999997 2.5560748236451243
v 1.9075068634040493 -6.15999997 0.0499999999999996
v 1.9075068634040493 -6.15999997 0.0499999999999996
v 4.227628447736666 -6.15999997 0.04999999999999993
v 4.1972011109568115 -6.15999997 1.1164301601843185
v 4.1972011109568115 -6.15999997 1.1164301601843185
v 4.227628447736666 -6.15999997 0.04999999999999993
v 6.101738019999999 -6.15999997 0.049999999999999996
v 6.101738019999999 -6.15999997 0.049999999999999996
v 6.101738019999999 -6.15999997 2.6775533562018987
v 4.1972011109568115 -6.15999997 1.1164301601843185
v 0.57059608 -0.013012238656580565 2.19499855849203
v 0.57073784 -0.012 2.19499993
v -0.0002621400000000773 -0.011999999999999983 2.19499993
v 0.57073784 -0.014384258766349807 2.1949966995069943
v -0.00026213999999994314 -1.48799997 2.19300006
v 0.5707378400000002 -1.48799997 2.19300006
v -0.0002621400000000773 -0.011999999999999983 2.19499993
v 0.57073784 -0.014384258766349807 2.1949966995069943
v 0.57059608 -0.013012238656580565 2.19499855849203
v 0.57073784 -0.014384258766349807 2.1949966995069943
v -0.0002621400000000773 -0.011999999999999983 2.19499993
v -0.00026213999999994314 -1.48799997 2.19300006
v -0.0002621399999999113 -0.012 0.049999999999999795
v 0.57073784 -0.012 2.19499993
v 0.57073784 -0.012 0.050000000000000044
v 0.57073784 -0.012 2.19499993
v -0.0002621399999999113 -0.012 0.049999999999999795
v -0.0002621399999999108 -0.012 2.19499993
v 0.57073784 -1.48799997 2.19300006
v -0.00026214 -1.48799997 2.19300006
v -0.0002621400000000218 -1.48799997 0.04999999999999999
v -0.0002621400000000218 -1.48799997 0.04999999999999999
v 0.57073784 -1.48799997 0.04999999999999983
v 0.57073784 -1.48799997 2.19300006
v 0.57073784 -0.012000000000000205 0.05
v 0.57073784 -1.48799997 0.05
v -0.0002621400000000773 -1.48799997 0.05
v -0.0002621400000000773 -1.48799997 0.05
v -0.0002621400000000147 -0.012000000000000007 0.05
v 0.57073784 -0.012000000000000205 0.05
v -4.41604285 2.88053755 1.10000001
v -4.51011812 1.98546776 1.10000001
v -6.13118894 2.15584922 1.10000001
v -6.13118894 2.15584922 1.10000001
v -6.03711328 3.05091881 1.10000001
v -4.41604285 2.88053755 1.10000001
v -4.41604285 2.88053755 1.10000001
v -6.03711328 3.05091881 1.10000001
v -6.03711328 3.05091881 -1.1102230246251565e-16
v -6.03711328 3.05091881 -1.1102230246251565e-16
v -4.41604285 2.88053755 -1.6448509225741707e-16
v -4.41604285 2.88053755 1.10000001
v -4.51011812 1.98546776 1.10000001
v -4.41604285 2.88053755 0.0
v -4.5101181200000005 1.9854677600000001 -5.551115123125783e-17
v -4.41604285 2.88053755 0.0
v -4.51011812 1.98546776 1.10000001
v -4.416042849999999 2.88053755 1.10000001
v -6.13118894 2.15584922 9.81615664201558e-17
v -4.51011812 1.98546776 1.10000001
v -4.51011812 1.98546776 0.0
v -4.51011812 1.98546776 1.10000001
v -6.13118894 2.15584922 9.81615664201558e-17
v -6.13118894 2.15584922 1.10000001
v -6.13118894 2.1558492200000003 2.4511046858191407e-16
v -6.03711328 3.05091881 1.10000001
v -6.131188940000001 2.15584922 1.1000000100000003
v -6.03711328 3.05091881 1.10000001
v -6.13118894 2.1558492200000003 2.4511046858191407e-16
v -6.037113279999999 3.05091881 0.0
v -6.15168304 -3.62310094 1.10000001
v -4.52168292 -3.62310094 1.10000001
v -4.52168292 -3.62310094 0.0
v -4.52168292 -3.62310094 0.0
v -6.15168304 -3.62310094 -1.3759846772329984e-16
v -6.15168304 -3.62310094 1.10000001
v -4.52168292 -3.05310105 1.10000001
v -6.15168304 -3.05310105 1.10000001
v -6.15168304 -3.05310105 0.0
v -6.15168304 -3.05310105 0.0
v -4.52168292 -3.05310105 -1.3759846772329984e-16
v -4.52168292 -3.05310105 1.10000001
v -6.15168304 -3.05310105 1.10000001
v -4.52168292 -3.62310094 1.10000001
v -6.15168304 -3.62310094 1.10000001
v -4.52168292 -3.62310094 1.10000001
v -6.15168304 -3.05310105 1.10000001
v -4.52168292 -3.05310105 1.10000001
v -4.52168292 -3.05310105 1.10000001
v -4.52168292 -3.05310105 0.0
v -4.52168292 -3.62310094 0.0
v -4.52168292 -3.62310094 0.0
v -4.52168292 -3.62310094 1.10000001
v -4.52168292 -3.05310105 1.10000001
v -6.15168304 -3.05310105 5.551115123125783e-17
v -6.15168304 -3.05310105 1.10000001
v -6.15168304 -3.62310094 1.10000001
v -6.15168304 -3.62310094 1.10000001
v -6.15168304 -3.62310094 -1.1197385770464987e-18
v -6.15168304 -3.05310105 5.551115123125783e-17
v -0.051123769999999985 2.49574572 1.10000001
v -0.05112377 2.49574572 0.0
v -0.11547146 1.59804907 5.551115123125783e-17
v -0.11547146 1.59804907 5.551115123125783e-17
v -0.11547146 1.59804907 1.10000001
v -0.051123769999999985 2.49574572 1.10000001
v -0.05112377000000001 2.49574572 1.10000001
v -0.11547146 1.59804907 1.10000001
v -1.7412999100000004 1.7145899199999999 1.10000001
v -1.7412999100000004 1.7145899199999999 1.10000001
v -1.6769522900000002 2.61228667 1.10000001
v -0.05112377000000001 2.49574572 1.10000001
v -1.74129991 1.71458992 1.10000001
v -0.11547146 1.59804907 1.10000001
v -0.11547145999999997 1.59804907 1.1102230246251565e-16
v -0.11547145999999997 1.59804907 1.1102230246251565e-16
v -1.74129991 1.71458992 8.12462362848567e-17
v -1.74129991 1.71458992 1.10000001
v -0.05112377000000016 2.49574572 3.3060420662503386e-16
v -1.67695229 2.61228667 1.10000001
v -1.6769522900000002 2.61228667 0.0
v -1.67695229 2.61228667 1.10000001
v -0.05112377000000016 2.49574572 3.3060420662503386e-16
v -0.05112377000000001 2.49574572 1.1000000100000003
v -1.74129991 1.71458992 -5.447877876551923e-17
v -1.67695229 2.61228667 1.10000001
v -1.74129991 1.7145899199999999 1.10000001
v -1.67695229 2.61228667 1.10000001
v -1.74129991 1.71458992 -5.447877876551923e-17
v -1.67695229 2.61228667 -1.1102230246251565e-16
v -0.01271485 -1.98335762 1.10000001
v -0.01271485 -1.98335762 0.0
v -0.01271485 -3.61335735 -1.1102230246251565e-16
v -0.01271485 -3.61335735 -1.1102230246251565e-16
v -0.01271485 -3.61335735 1.10000001
v -0.01271485 -1.98335762 1.10000001
v -2.8027147800000005 -3.61335735 1.10000001
v -0.01271485 -3.61335735 1.10000001
v -0.01271485 -3.61335735 -2.220446049250313e-16
v -0.01271485 -3.61335735 -2.220446049250313e-16
v -2.8027147800000005 -3.61335735 -2.707463327217842e-16
v -2.8027147800000005 -3.61335735 1.10000001
v -5.44190039 1.4788138000000002 -1.1102230246251565e-16
v -5.44190039 1.4788138 1.00000001
v -5.44190039 -0.09118618000000017 1.00000001
v -5.44190039 -0.09118618000000017 1.00000001
v -5.44190039 -0.09118618000000006 -1.3259676570824207e-16
v -5.44190039 1.4788138000000002 -1.1102230246251565e-16
v -5.44190039 -0.09118618 1.00000001
v -5.34190068 -0.09118618 1.00000001
v -5.34190068 -0.09118618 -9.8879238130678e-17
v -5.34190068 -0.09118618 -9.8879238130678e-17
v -5.44190039 -0.09118618 -2.2327067276673054e-16
v -5.44190039 -0.09118618 1.00000001
v -5.34190068 1.4788138 1.00000001
v -5.34190068 -0.09118618 1.00000001
v -5.44190039 -0.09118618 1.00000001
v -5.44190039 -0.09118618 1.00000001
v -5.44190039 1.4788137999999997 1.00000001
v -5.34190068 1.4788138 1.00000001
v -5.34190068 1.4788138000000002 1.00000001
v -5.34190068 1.4788138 0.0
v -5.34190068 -0.09118618000000017 -1.1102230246251565e-16
v -5.34190068 -0.09118618000000017 -1.1102230246251565e-16
v -5.34190068 -0.09118618000000006 1.0000000100000002
v -5.34190068 1.4788138000000002 1.00000001
v -5.34190068 1.4788138 1.00000001
v -5.44190039 1.4788138 1.00000001
v -5.44190039 1.4788138 -9.8879238130678e-17
v -5.44190039 1.4788138 -9.8879238130678e-17
v -5.34190068 1.4788138 -2.2327067276673054e-16
v -5.34190068 1.4788138 1.00000001
v -3.5562864200000006 2.55879575 1.00000001
v -3.55628642 2.55879575 0.0
v -3.5087416399999998 2.47077593 0.0
v -3.5087416399999998 2.47077593 0.0
v -3.50874164 2.47077593 1.00000001
v -3.5562864200000006 2.55879575 1.00000001
v -3.50874164 2.47077593 1.00000001
v -4.3723118 1.97219319 1.00000001
v -4.42231185 2.05879585 1.00000001
v -4.42231185 2.05879585 1.00000001
v -3.55628642 2.55879575 1.00000001
v -3.50874164 2.47077593 1.00000001
v -4.422311850000002 2.058795849999999 -2.1337098754514727e-16
v -4.42231185 2.05879585 1.00000001
v -4.3723117999999985 1.9721931900000005 1.00000001
v -4.3723117999999985 1.9721931900000005 1.00000001
v -4.3723118 1.97219319 -2.221123398604212e-16
v -4.422311850000002 2.058795849999999 -2.1337098754514727e-16
v -3.55628642 2.55879575 -1.1811718261039316e-17
v -4.42231185 2.05879585 1.00000001
v -4.42231185 2.05879585 -5.551115123125783e-17
v -4.42231185 2.05879585 1.00000001
v -3.55628642 2.55879575 -1.1811718261039316e-17
v -3.55628642 2.55879575 1.0000000100000002
v -2.50874144 2.56199827 1.00000001
v -2.50874144 2.56199827 0.0
v -2.50874144 2.46199837 -1.734723475976807e-18
v -2.50874144 2.46199837 -1.734723475976807e-18
v -2.50874144 2.46199837 1.00000001
v -2.50874144 2.56199827 1.00000001
v -2.50874144 2.56199827 1.00000001
v -3.50874164 2.56199827 1.00000001
v -3.50874164 2.56199827 0.0
v -3.50874164 2.56199827 0.0
v -2.50874144 2.56199827 -3.052092003884332e-17
v -2.50874144 2.56199827 1.00000001
v -3.50874164 2.47077593 1.00000001
v -3.50874164 2.46199837 1.00000001
v -3.50874164 2.46199837 -4.640385298237959e-17
v -3.50874164 2.47077593 1.00000001
v -3.50874164 2.47077593 -1.3234411728415028e-18
v -3.50874164 2.56199827 1.0755285551056204e-16
v -3.50874164 2.56199827 1.0755285551056204e-16
v -3.50874164 2.56199827 1.00000001
v -3.50874164 2.47077593 1.00000001
v -3.50874164 2.47077593 -1.3234411728415028e-18
v -3.50874164 2.47077593 1.00000001
v -3.50874164 2.46199837 -4.640385298237959e-17
v -3.50874164 2.46199837 1.00000001
v -2.50874144 2.46199837 1.00000001
v -2.50874144 2.46199837 0.0
v -2.50874144 2.46199837 0.0
v -3.50874164 2.46199837 -3.052092003884332e-17
v -3.50874164 2.46199837 1.00000001
v -3.50874164 2.47077593 1.00000001
v -3.50874164 2.56199827 1.00000001
v -2.5087414400000005 2.56199827 1.00000001
v -3.50874164 2.47077593 1.00000001
v -2.50874144 2.46199837 1.00000001
v -3.50874164 2.46199837 1.00000001
v -2.50874144 2.46199837 1.00000001
v -3.50874164 2.47077593 1.00000001
v -2.5087414400000005 2.56199827 1.00000001
v -1.78405854 1.72897063 1.0000000100000002
v -1.86360582 1.66837181 1.00000001
v -2.46959422 2.4638451499999996 1.0000000099999997
v -2.46959422 2.4638451499999996 1.0000000099999997
v -2.39004694 2.52444417 1.00000001
v -1.78405854 1.72897063 1.0000000100000002
v -2.39004694 2.52444417 1.00000001
v -2.39004694 2.52444417 0.0
v -1.7840585399999997 1.72897063 0.0
v -1.7840585399999997 1.72897063 0.0
v -1.78405854 1.72897063 1.00000001
v -2.39004694 2.52444417 1.00000001
v -2.4695942200000003 2.46384515 1.6653345369377348e-16
v -2.46959422 2.46384515 1.00000001
v -1.86360582 1.6683718100000005 1.00000001
v -1.86360582 1.6683718100000005 1.00000001
v -1.86360582 1.66837181 -3.504882459792719e-17
v -2.4695942200000003 2.46384515 1.6653345369377348e-16
v -2.39004694 2.52444417 -2.2167722558069276e-16
v -2.46959422 2.46384515 1.00000001
v -2.46959422 2.46384515 -2.7582103268031233e-16
v -2.46959422 2.46384515 1.00000001
v -2.39004694 2.52444417 -2.2167722558069276e-16
v -2.39004694 2.52444417 1.00000001
v -1.86360582 1.66837181 2.210841930456316e-16
v -1.78405854 1.72897063 1.00000001
v -1.78405854 1.72897063 2.0122792321330962e-16
v -1.78405854 1.72897063 1.00000001
v -1.86360582 1.66837181 2.210841930456316e-16
v -1.86360582 1.6683718100000002 1.00000001
v -4.38912512 1.97678031 1.00000001
v -5.28128268 1.51412037 1.00000001
v -5.31825755 1.60703359 1.00000001
v -5.28128268 1.51412037 1.00000001
v -4.38912512 1.97678031 1.00000001
v -4.352150240000001 1.88386718 1.00000001
v -5.28128268 1.51412037 1.9730520606798043e-17
v -4.35215024 1.88386718 1.00000001
v -4.35215024 1.88386718 -5.551115123125783e-17
v -4.35215024 1.88386718 1.00000001
v -5.28128268 1.51412037 1.9730520606798043e-17
v -5.28128268 1.5141203700000003 1.00000001
v -5.31825755 1.60703359 -4.978656376053436e-16
v -5.31825755 1.60703359 1.00000001
v -5.28128268 1.51412037 1.00000001
v -5.28128268 1.51412037 1.00000001
v -5.28128268 1.51412037 -4.444296607628186e-16
v -5.31825755 1.60703359 -4.978656376053436e-16
v -4.38912512 1.97678031 4.764726057733807e-17
v -5.31825755 1.60703359 1.00000001
v -5.31825755 1.6070335900000001 0.0
v -5.31825755 1.60703359 1.00000001
v -4.38912512 1.97678031 4.764726057733807e-17
v -4.38912512 1.9767803099999999 1.00000001
v -4.38912512 1.9767803099999999 1.00000001
v -4.38912512 1.97678031 0.0
v -4.35215024 1.8838671800000002 -1.734723475976807e-18
v -4.35215024 1.8838671800000002 -1.734723475976807e-18
v -4.35215024 1.88386718 1.00000001
v -4.38912512 1.9767803099999999 1.00000001
v -2.80271478 -3.61335735 3.635817636717251e-17
v -2.80271478 -2.79835749 1.10000001
v -2.80271478 -3.61335735 1.10000001
v -2.80271478 -2.79835749 1.10000001
v -2.80271478 -3.61335735 3.635817636717251e-17
v -2.80271478 -2.79835749 5.551115123125783e-17
v -0.9127148300000004 -2.79835749 4.070404603785277e-16
v -2.80271478 -2.79835749 1.10000001
v -2.8027147800000005 -2.79835749 0.0
v -2.80271478 -2.79835749 1.10000001
v -0.9127148300000004 -2.79835749 4.070404603785277e-16
v -0.9127148300000003 -2.79835749 1.1000000100000005
v 0.57073784 2.41099993 1.1543845220871423
v 0.57073784 2.41099993 0.05
v 0.57073784 -0.012000000000000233 0.050000000000000044
v 0.57073784 -0.012000000000000233 0.050000000000000044
v 0.57073784 -0.0119999999999999 1.5387116713163465
v 0.57073784 2.41099993 1.1543845220871423
v 0.57073784 0.4990000199999997 2.2760000300000005
v 0.57073784 -0.011999999999999959 2.19499993
v 0.57073784 0.49900002 2.73600005
v 0.57073784 0.9300000199999998 2.2760000300000005
v 0.57073784 0.9300000199999998 2.7360000500000003
v 0.57073784 2.41099993 2.7360000500000003
v 0.57073784 0.9300000199999998 2.2760000300000005
v 0.57073784 2.41099993 1.1543845220871423
v 0.57073784 -0.0119999999999999 1.5387116713163465
v 0.57073784 -0.011999999999999959 2.19499993
v 0.57073784 0.4990000199999997 2.2760000300000005
v 0.57073784 -0.0119999999999999 1.5387116713163465
v 0.57073784 2.41099993 1.1543845220871423
v 0.57073784 0.9300000199999998 2.2760000300000005
v 0.57073784 2.41099993 2.7360000500000003
v 0.57073784 -0.0119999999999999 1.5387116713163465
v 0.57073784 0.4990000199999997 2.2760000300000005
v 0.57073784 0.9300000199999998 2.2760000300000005
v 0.57073784 -3.763058453928773 0.04999999999999971
v 0.57073784 -1.4879999699999997 1.239762414105448
v 0.57073784 -1.48799997 0.05
v 0.57073784 -1.4879999699999997 1.239762414105448
v 0.57073784 -3.763058453928773 0.04999999999999971
v 0.57073784 -2.674444518428102 1.982853764361522
v 0.57073784 -1.48799997 2.1930000600000006
v 0.57073784 -2.9144352029363265 2.7360000500000003
v 0.57073784 0.4990000200000002 2.736000050000001
v 0.57073784 0.4990000200000002 2.736000050000001
v 0.57073784 -0.014384259999999927 2.194997610000001
v 0.57073784 -1.48799997 2.1930000600000006
v 0.57073784 -1.48799997 2.1930000600000006
v 0.57073784 -1.4879999699999997 1.239762414105448
v 0.57073784 -2.674444518428102 1.982853764361522
v 0.57073784 -2.9144352029363265 2.7360000500000003
v 0.57073784 -1.48799997 2.1930000600000006
v 0.57073784 -2.674444518428102 1.982853764361522
v 0.57073784 -3.90599995 2.2760000300000005
v 0.57073784 -3.763058453928773 0.04999999999999971
v 0.57073784 -4.3985790462704655 0.0499999999999996
v 0.57073784 -3.90599995 2.2760000300000005
v 0.57073784 -4.778348755961273 2.7360000499999995
v 0.57073784 -3.90599995 2.7360000500000003
v 0.57073784 -3.4830001899999994 2.2760000300000005
v 0.57073784 -3.4830001899999994 2.7360000500000003
v 0.57073784 -2.9144352029363265 2.7360000500000003
v 0.57073784 -3.763058453928773 0.04999999999999971
v 0.57073784 -3.4830001899999994 2.2760000300000005
v 0.57073784 -2.674444518428102 1.982853764361522
v 0.57073784 -4.778348755961273 2.7360000499999995
v 0.57073784 -3.90599995 2.2760000300000005
v 0.57073784 -4.3985790462704655 0.0499999999999996
v 0.57073784 -2.674444518428102 1.982853764361522
v 0.57073784 -3.4830001899999994 2.2760000300000005
v 0.57073784 -2.9144352029363265 2.7360000500000003
v 0.57073784 -3.763058453928773 0.04999999999999971
v 0.57073784 -3.90599995 2.2760000300000005
v 0.57073784 -3.4830001899999994 2.2760000300000005
v 0.57073784 -4.778348755961273 2.7360000499999995
v 0.57073784 -6.159999970000001 0.049999999999998934
v 0.57073784 -6.15999997 2.7360000499999995
v 0.57073784 -6.159999970000001 0.049999999999998934
v 0.57073784 -4.778348755961273 2.7360000499999995
v 0.57073784 -4.3985790462704655 0.0499999999999996
v 0.57073784 0.49900002 2.73600005
v 0.5705960800000001 -0.013012240000000026 2.19499955
v 0.57073784 -0.01438426000000014 2.19499761
v 0.57073784 0.49900002 2.73600005
v 0.5707378399999999 -0.011999999999999976 2.19499993
v 0.57059608 -0.013012239999999894 2.19499955
v 2.3018750146783673 -6.159999970000001 0.049999999999999996
v 4.205555304759343 -4.627073638759192 0.05
v 4.597904181665617 -6.15999997 0.049999999999999996
v 4.205555304759343 -4.627073638759192 0.05
v 2.3018750146783673 -6.159999970000001 0.049999999999999996
v 2.5862182367066855 -4.3623220411012875 0.049999999999999996
v 4.205555304759343 -4.627073638759192 0.05
v 5.055005407063087 -3.5158247053703873 0.05
v 6.101738020000001 -3.5053578037936473 0.05000000000000001
v 4.205555304759343 -4.627073638759192 0.05
v 6.10173802 -6.15999997 0.05
v 4.597904181665617 -6.15999997 0.049999999999999996
v 6.10173802 -6.15999997 0.05
v 4.205555304759343 -4.627073638759192 0.05
v 6.101738020000001 -3.5053578037936473 0.05000000000000001
v 6.101738020000001 1.90299993 0.05000000000000002
v 4.216907589478568 0.5186380538950841 0.05000000000000001
v 4.78521152278261 2.0239175649342362 0.05000000000000001
v 4.216907589478568 0.5186380538950841 0.05000000000000001
v 6.101738020000001 1.90299993 0.05000000000000002
v 6.101738020000001 -0.7706884135803789 0.05000000000000001
v 4.216907589478568 0.5186380538950841 0.05000000000000001
v 6.101738020000001 -0.7706884135803789 0.05000000000000001
v 5.067242351277666 -0.7510796963794202 0.05000000000000001
v 2.5862182367066855 -4.3623220411012875 0.049999999999999996
v 2.3710698336183347 -4.034909688678385 0.049999999999999996
v 2.6633161513442216 -3.0716559434414283 0.049999999999999996
v 4.205555304759343 -4.627073638759192 0.05
v 4.162830901294475 -2.5870113399239285 0.05
v 5.055005407063087 -3.5158247053703873 0.05
v 2.6633161513442216 -3.0716559434414283 0.049999999999999996
v 4.205555304759343 -4.627073638759192 0.05
v 2.5862182367066855 -4.3623220411012875 0.049999999999999996
v 4.205555304759343 -4.627073638759192 0.05
v 2.6633161513442216 -3.0716559434414283 0.049999999999999996
v 4.162830901294475 -2.5870113399239285 0.05
v 0.57073784 -6.159999970000001 0.04999999999999999
v 2.5862182367066855 -4.3623220411012875 0.049999999999999996
v 2.3018750146783673 -6.159999970000001 0.049999999999999996
v 2.5862182367066855 -4.3623220411012875 0.049999999999999996
v 0.57073784 -6.159999970000001 0.04999999999999999
v 0.5707378400000009 -4.04325533427587 0.04999999999999999
v 2.5862182367066855 -4.3623220411012875 0.049999999999999996
v 0.5707378400000009 -4.04325533427587 0.04999999999999999
v 2.3710698336183347 -4.034909688678385 0.049999999999999996
v 0.5707378400000009 -4.04325533427587 0.04999999999999999
v 2.6633161513442216 -3.0716559434414283 0.049999999999999996
v 2.3710698336183347 -4.034909688678385 0.049999999999999996
v 1.9442995806053067 -1.8884600928920094 0.049999999999999996
v 0.5707378400000009 -4.04325533427587 0.04999999999999999
v 0.5707378400000014 -1.8754102983909895 0.049999999999999996
v 0.5707378400000009 -4.04325533427587 0.04999999999999999
v 1.9442995806053067 -1.8884600928920094 0.049999999999999996
v 2.6633161513442216 -3.0716559434414283 0.049999999999999996
v 2.6633161513442216 -3.0716559434414283 0.049999999999999996
v 1.9442995806053067 -1.8884600928920094 0.049999999999999996
v 2.66286056329307 -0.9523534400235397 0.05
v 2.66286056329307 -0.9523534400235397 0.05
v 4.228392638108117 -1.5208720715380037 0.05
v 4.162830901294475 -2.5870113399239285 0.05
v 4.162830901294475 -2.5870113399239285 0.05
v 2.6633161513442216 -3.0716559434414283 0.049999999999999996
v 2.66286056329307 -0.9523534400235397 0.05
v 5.055005407063087 -3.5158247053703873 0.05
v 4.162830901294475 -2.5870113399239285 0.05
v 4.228392638108117 -1.5208720715380037 0.05
v 4.228392638108117 -1.5208720715380037 0.05
v 5.067242351277666 -0.7510796963794202 0.05000000000000001
v 6.101738020000001 -0.7706884135803789 0.05000000000000001
v 6.101738020000001 -0.7706884135803789 0.05000000000000001
v 6.101738020000001 -3.5053578037936473 0.05000000000000001
v 5.055005407063087 -3.5158247053703873 0.05
v 5.055005407063087 -3.5158247053703873 0.05
v 4.228392638108117 -1.5208720715380037 0.05
v 6.101738020000001 -0.7706884135803789 0.05000000000000001
v 0.5707378400000016 -1.4879999700000008 0.049999999999999996
v 2.66286056329307 -0.9523534400235397 0.05
v 1.9442995806053067 -1.8884600928920094 0.049999999999999996
v 1.9442995806053067 -1.8884600928920094 0.049999999999999996
v 0.5707378400000014 -1.8754102983909895 0.049999999999999996
v 0.5707378400000016 -1.4879999700000008 0.049999999999999996
v 0.5707378400000016 -0.01200000000000101 0.049999999999999996
v 0.5707378400000019 0.2611537825625292 0.049999999999999996
v 2.484667890623652 0.25695787844297113 0.05
v 0.5707378400000016 -0.01200000000000101 0.049999999999999996
v 2.66286056329307 -0.9523534400235397 0.05
v 0.5707378400000016 -1.4879999700000008 0.049999999999999996
v 2.66286056329307 -0.9523534400235397 0.05
v 0.5707378400000016 -0.01200000000000101 0.049999999999999996
v 2.484667890623652 0.25695787844297113 0.05
v 2.66286056329307 -0.9523534400235397 0.05
v 4.216907589478568 0.5186380538950841 0.05000000000000001
v 4.228392638108117 -1.5208720715380037 0.05
v 4.216907589478568 0.5186380538950841 0.05000000000000001
v 5.067242351277666 -0.7510796963794202 0.05000000000000001
v 4.228392638108117 -1.5208720715380037 0.05
v 2.516053738406783 0.296358216198213 0.05
v 2.66286056329307 -0.9523534400235397 0.05
v 2.484667890623652 0.25695787844297113 0.05
v 4.216907589478568 0.5186380538950841 0.05000000000000001
v 2.66286056329307 -0.9523534400235397 0.05
v 2.516053738406783 0.296358216198213 0.05
v 4.216907589478568 0.5186380538950841 0.05000000000000001
v 2.516053738406783 0.296358216198213 0.05
v 2.4829741078637992 2.235368761592623 0.05000000000000001
v 2.4829741078637992 2.235368761592623 0.05000000000000001
v 4.78521152278261 2.0239175649342362 0.05000000000000001
v 4.216907589478568 0.5186380538950841 0.05000000000000001
v 2.516053738406783 0.296358216198213 0.05
v 2.484667890623652 0.25695787844297113 0.05
v 0.5707378400000019 0.2611537825625292 0.049999999999999996
v 0.5707378400000019 0.2611537825625292 0.049999999999999996
v 0.5707378400000015 2.4109999299999982 0.05
v 2.4829741078637992 2.235368761592623 0.05000000000000001
v 2.4829741078637992 2.235368761592623 0.05000000000000001
v 2.516053738406783 0.296358216198213 0.05
v 0.5707378400000019 0.2611537825625292 0.049999999999999996
v -4.3723118 1.97219319 1.00000001
v -3.50874164 2.47077593 1.00000001
v -3.50874164 2.47077593 -1.6653345369377348e-16
v -3.50874164 2.47077593 -1.6653345369377348e-16
v -4.3723118 1.97219319 -2.6959284175950296e-16
v -4.3723118 1.97219319 1.00000001
v -0.9127148300000003 -2.79835749 1.10000001
v -2.802714780000001 -3.61335735 1.10000001
v -2.802714780000001 -2.7983574899999994 1.10000001
v -0.9127148300000003 -2.79835749 1.10000001
v -0.9127148300000001 -1.9833576199999996 1.10000001
v -0.01271485 -1.9833576199999996 1.10000001
v -2.802714780000001 -3.61335735 1.10000001
v -0.9127148300000003 -2.79835749 1.10000001
v -0.01271485 -3.61335735 1.10000001
v -0.9127148300000003 -2.79835749 1.10000001
v -0.01271485 -1.9833576199999996 1.10000001
v -0.01271485 -3.61335735 1.10000001
v -0.91271483 -1.98335762 -2.220446049250313e-16
v -0.91271483 -1.98335762 1.10000001
v -0.91271483 -2.79835749 1.10000001
v -0.91271483 -2.79835749 1.10000001
v -0.91271483 -2.79835749 -2.4019741118320573e-16
v -0.91271483 -1.98335762 -2.220446049250313e-16
v -0.012714849999999861 -1.98335762 -2.213888313702771e-17
v -0.91271483 -1.98335762 1.10000001
v -0.9127148300000001 -1.98335762 -1.1102230246251565e-16
v -0.91271483 -1.98335762 1.10000001
v -0.012714849999999861 -1.98335762 -2.213888313702771e-17
v -0.012714849999999722 -1.98335762 1.10000001

usemtl Patch_1_Mat_CR1_tablesEquipment
f 3 2 1
f 6 5 4
f 9 8 7

usemtl Patch_2_Mat_CR1_paintedConcrete
f 12 11 10
f 15 14 13

usemtl Patch_3_Mat_CR1_paintedConcrete
f 18 17 16
f 21 20 19

usemtl Patch_4_Mat_CR1_tablesEquipment
f 24 23 22
f 27 26 25

usemtl Patch_5_Mat_CR1_tablesEquipment
f 30 29 28
f 33 32 31
f 36 35 34

usemtl Patch_6_Mat_CR1_paintedConcrete
f 39 38 37
f 42 41 40
f 45 44 43
f 48 47 46

usemtl Patch_7_Mat_CR1_paintedConcrete
f 51 50 49
f 54 53 52

usemtl Patch_8_Mat_CR1_paintedConcrete
f 57 56 55
f 60 59 58

usemtl Patch_9_Mat_CR1_paintedConcrete
f 63 62 61
f 66 65 64

usemtl Patch_10_Mat_CR1_paintedConcrete
f 69 68 67
f 72 71 70
f 75 74 73
f 78 77 76
f 81 80 79
f 84 83 82

usemtl Patch_11_Mat_CR1_paintedConcrete
f 87 86 85
f 90 89 88

usemtl Patch_12_Mat_CR1_paintedConcrete
f 93 92 91
f 96 95 94

usemtl Patch_13_Mat_CR1_paintedConcrete
f 99 98 97
f 102 101 100

usemtl Patch_14_Mat_CR1_paintedConcrete
f 105 104 103
f 108 107 106
f 111 110 109

usemtl Patch_15_Mat_CR1_paintedConcrete
f 114 113 112
f 117 116 115

usemtl Patch_16_Mat_CR1_paintedConcrete
f 120 119 118
f 123 122 121

usemtl Patch_17_Mat_CR1_paintedConcrete
f 126 125 124
f 129 128 127

usemtl Patch_18_Mat_CR1_paintedConcrete
f 132 131 130
f 135 134 133

usemtl Patch_19_Mat_CR1_paintedConcrete
f 138 137 136
f 141 140 139

usemtl Patch_20_Mat_CR1_paintedConcrete
f 144 143 142
f 147 146 145

usemtl Patch_21_Mat_CR1_paintedConcrete
f 150 149 148
f 153 152 151

usemtl Patch_22_Mat_CR1_paintedConcrete
f 156 155 154
f 159 158 157

usemtl Patch_23_Mat_CR1_paintedConcrete
f 162 161 160
f 165 164 163

usemtl Patch_24_Mat_CR1_paintedConcrete
f 168 167 166
f 171 170 169

usemtl Patch_25_Mat_CR1_paintedConcrete
f 174 173 172
f 177 176 175

usemtl Patch_26_Mat_CR1_paintedConcrete
f 180 179 178
f 183 182 181

usemtl Patch_27_Mat_CR1_paintedConcrete
f 186 185 184
f 189 188 187

usemtl Patch_28_Mat_CR1_paintedConcrete
f 192 191 190
f 195 194 193

usemtl Patch_29_Mat_CR1_paintedConcrete
f 198 197 196
f 201 200 199

usemtl Patch_30_Mat_CR1_paintedConcrete
f 204 203 202
f 207 206 205

usemtl Patch_31_Mat_CR1_paintedConcrete
f 210 209 208
f 213 212 211
f 216 215 214

usemtl Patch_32_Mat_CR1_paintedConcrete
f 219 218 217
f 222 221 220
f 225 224 223

usemtl Patch_33_Mat_CR1_paintedConcrete
f 228 227 226
f 231 230 229
f 234 233 232

usemtl Patch_34_Mat_CR1_paintedConcrete
f 237 236 235
f 240 239 238
f 243 242 241

usemtl Patch_35_Mat_CR1_paintedConcrete
f 246 245 244
f 249 248 247

usemtl Patch_36_Mat_CR1_concrete
f 252 251 250
f 255 254 253
f 258 257 256
f 261 260 259
f 264 263 262
f 267 266 265
f 270 269 268
f 273 272 271
f 276 275 274
f 279 278 277
f 282 281 280
f 285 284 283

usemtl Patch_37_Mat_CR1_concrete
f 288 287 286
f 291 290 289
f 294 293 292
f 297 296 295
f 300 299 298

usemtl Patch_38_Mat_CR1_concrete
f 303 302 301
f 306 305 304
f 309 308 307
f 312 311 310
f 315 314 313
f 318 317 316
f 321 320 319
f 324 323 322
f 327 326 325
f 330 329 328
f 333 332 331
f 336 335 334
f 339 338 337
f 342 341 340
f 345 344 343
f 348 347 346
f 351 350 349
f 354 353 352
f 357 356 355
f 360 359 358
f 363 362 361
f 366 365 364

usemtl Patch_39_Mat_CR1_concrete
f 369 368 367
f 372 371 370
f 375 374 373
f 378 377 376
f 381 380 379
f 384 383 382
f 387 386 385
f 390 389 388
f 393 392 391
f 396 395 394
f 399 398 397
f 402 401 400
f 405 404 403
f 408 407 406
f 411 410 409
f 414 413 412
f 417 416 415
f 420 419 418
f 423 422 421
f 426 425 424
f 429 428 427

usemtl Patch_40_Mat_CR1_concrete
f 432 431 430
f 435 434 433
f 438 437 436
f 441 440 439
f 444 443 442

usemtl Patch_41_Mat_CR1_concrete
f 447 446 445
f 450 449 448
f 453 452 451
f 456 455 454
f 459 458 457
f 462 461 460
f 465 464 463
f 468 467 466

usemtl Patch_42_Mat_CR1_concrete
f 471 470 469
f 474 473 472
f 477 476 475
f 480 479 478
f 483 482 481
f 486 485 484
f 489 488 487

usemtl Patch_43_Mat_CR1_concrete
f 492 491 490
f 495 494 493
f 498 497 496
f 501 500 499
f 504 503 502
f 507 506 505
f 510 509 508
f 513 512 511
f 516 515 514
f 519 518 517
f 522 521 520

usemtl Patch_44_Mat_CR1_concrete
f 525 524 523
f 528 527 526
f 531 530 529
f 534 533 532
f 537 536 535
f 540 539 538
f 543 542 541
f 546 545 544

usemtl Patch_45_Mat_CR1_concrete
f 549 548 547
f 552 551 550

usemtl Patch_46_Mat_CR1_concrete
f 555 554 553
f 558 557 556

usemtl Patch_47_Mat_CR1_concrete
f 561 560 559
f 564 563 562

usemtl Patch_48_Mat_CR1_concrete
f 567 566 565
f 570 569 568
f 573 572 571
f 576 575 574

usemtl Patch_49_Mat_CR1_concrete
f 579 578 577
f 582 581 580

usemtl Patch_50_Mat_CR1_concrete
f 585 584 583
f 588 587 586

usemtl Patch_51_Mat_CR1_concrete
f 591 590 589
f 594 593 592

usemtl Patch_52_Mat_CR1_concrete
f 597 596 595
f 600 599 598

usemtl Patch_53_Mat_CR1_concrete
f 603 602 601
f 606 605 604
f 609 608 607

usemtl Patch_54_Mat_CR1_concrete
f 612 611 610
f 615 614 613
f 618 617 616
f 621 620 619
f 624 623 622
f 627 626 625
f 630 629 628
f 633 632 631

usemtl Patch_55_Mat_CR1_concrete
f 636 635 634
f 639 638 637

usemtl Patch_56_Mat_CR1_concrete
f 642 641 640
f 645 644 643
f 648 647 646
f 651 650 649

usemtl Patch_57_Mat_CR1_concrete
f 654 653 652
f 657 656 655

usemtl Patch_58_Mat_CR1_concrete
f 660 659 658
f 663 662 661

usemtl Patch_59_Mat_CR1_concrete
f 666 665 664
f 669 668 667

usemtl Patch_60_Mat_CR1_concrete
f 672 671 670
f 675 674 673

usemtl Patch_61_Mat_CR1_concrete
f 678 677 676
f 681 680 679

usemtl Patch_62_Mat_CR1_concrete
f 684 683 682
f 687 686 685

usemtl Patch_63_Mat_CR1_concrete
f 690 689 688
f 693 692 691

usemtl Patch_64_Mat_CR1_concrete
f 696 695 694
f 699 698 697

usemtl Patch_65_Mat_CR1_concrete
f 702 701 700
f 705 704 703

usemtl Patch_66_Mat_CR1_concrete
f 708 707 706
f 711 710 709
f 714 713 712
f 717 716 715

usemtl Patch_67_Mat_CR1_concrete
f 720 719 718
f 723 722 721
f 726 725 724

usemtl Patch_68_Mat_CR1_concrete
f 729 728 727
f 732 731 730

usemtl Patch_69_Mat_CR1_concrete
f 735 734 733
f 738 737 736

usemtl Patch_70_Mat_CR1_concrete
f 741 740 739
f 744 743 742
f 747 746 745

usemtl Patch_71_Mat_CR1_concrete
f 750 749 748
f 753 752 751
f 756 755 754

usemtl Patch_72_Mat_CR1_concrete
f 759 758 757
f 762 761 760

usemtl Patch_73_Mat_CR1_concrete
f 765 764 763
f 768 767 766
f 771 770 769

usemtl Patch_74_Mat_CR1_concrete
f 774 773 772
f 777 776 775
f 780 779 778

usemtl Patch_75_Mat_CR1_concrete
f 783 782 781
f 786 785 784

usemtl Patch_76_Mat_CR1_concrete
f 789 788 787
f 792 791 790
f 795 794 793

usemtl Patch_77_Mat_CR1_concrete
f 798 797 796
f 801 800 799
f 804 803 802
f 807 806 805
f 810 809 808
f 813 812 811
f 816 815 814
f 819 818 817

usemtl Patch_78_Mat_CR1_concrete
f 822 821 820
f 825 824 823
f 828 827 826
f 831 830 829

usemtl Patch_79_Mat_CR1_concrete
f 834 833 832
f 837 836 835
f 840 839 838
f 843 842 841

usemtl Patch_80_Mat_CR1_concrete
f 846 845 844
f 849 848 847
f 852 851 850
f 855 854 853

usemtl Patch_81_Mat_CR1_paintedConcrete
f 858 857 856
f 861 860 859

usemtl Patch_82_Mat_CR1_paintedConcrete
f 864 863 862
f 867 866 865

usemtl Patch_83_Mat_CR1_paintedConcrete
f 870 869 868
f 873 872 871

usemtl Patch_84_Mat_CR1_paintedConcrete
f 876 875 874
f 879 878 877
f 882 881 880

usemtl Patch_85_Mat_CR1_paintedConcrete
f 885 884 883
f 888 887 886
f 891 890 889
f 894 893 892

usemtl Patch_86_Mat_CR1_paintedConcrete
f 897 896 895
f 900 899 898

usemtl Patch_87_Mat_CR1_paintedConcrete
f 903 902 901
f 906 905 904

usemtl Patch_88_Mat_CR1_paintedConcrete
f 909 908 907
f 912 911 910
f 915 914 913
f 918 917 916
f 921 920 919
f 924 923 922

usemtl Patch_89_Mat_CR1_paintedConcrete
f 927 926 925
f 930 929 928

usemtl Patch_90_Mat_CR1_paintedConcrete
f 933 932 931
f 936 935 934
f 939 938 937
f 942 941 940
f 945 944 943
f 948 947 946
f 951 950 949

usemtl Patch_91_Mat_CR1_paintedConcrete
f 954 953 952
f 957 956 955
f 960 959 958

usemtl Patch_92_Mat_CR1_paintedConcrete
f 963 962 961
f 966 965 964
f 969 968 967

usemtl Patch_93_Mat_CR1_paintedConcrete
f 972 971 970
f 975 974 973

usemtl Patch_94_Mat_CR1_paintedConcrete
f 978 977 976
f 981 980 979

usemtl Patch_95_Mat_CR1_concrete
f 984 983 982
f 987 986 985
f 990 989 988
f 993 992 991

usemtl Patch_96_Mat_CR1_concrete
f 996 995 994
f 999 998 997

usemtl Patch_97_Mat_CR1_concrete
f 1002 1001 1000
f 1005 1004 1003

usemtl Patch_98_Mat_CR1_concrete
f 1008 1007 1006
f 1011 1010 1009

usemtl Patch_99_Mat_CR1_tablesEquipment
f 1014 1013 1012
f 1017 1016 1015

usemtl Patch_100_Mat_CR1_tablesEquipment
f 1020 1019 1018
f 1023 1022 1021

usemtl Patch_101_Mat_CR1_tablesEquipment
f 1026 1025 1024
f 1029 1028 1027

usemtl Patch_102_Mat_CR1_tablesEquipment
f 1032 1031 1030
f 1035 1034 1033

usemtl Patch_103_Mat_CR1_tablesEquipment
f 1038 1037 1036
f 1041 1040 1039

usemtl Patch_104_Mat_CR1_tablesEquipment
f 1044 1043 1042
f 1047 1046 1045

usemtl Patch_105_Mat_CR1_tablesEquipment
f 1050 1049 1048
f 1053 1052 1051

usemtl Patch_106_Mat_CR1_tablesEquipment
f 1056 1055 1054
f 1059 1058 1057

usemtl Patch_107_Mat_CR1_tablesEquipment
f 1062 1061 1060
f 1065 1064 1063

usemtl Patch_108_Mat_CR1_tablesEquipment
f 1068 1067 1066
f 1071 1070 1069

usemtl Patch_109_Mat_CR1_tablesEquipment
f 1074 1073 1072
f 1077 1076 1075

usemtl Patch_110_Mat_CR1_tablesEquipment
f 1080 1079 1078
f 1083 1082 1081

usemtl Patch_111_Mat_CR1_tablesEquipment
f 1086 1085 1084
f 1089 1088 1087

usemtl Patch_112_Mat_CR1_tablesEquipment
f 1092 1091 1090
f 1095 1094 1093

usemtl Patch_113_Mat_CR1_tablesEquipment
f 1098 1097 1096
f 1101 1100 1099

usemtl Patch_114_Mat_CR1_tablesEquipment
f 1104 1103 1102
f 1107 1106 1105

usemtl Patch_115_Mat_CR1_tablesEquipment
f 1110 1109 1108
f 1113 1112 1111

usemtl Patch_116_Mat_CR1_absorber
f 1116 1115 1114
f 1119 1118 1117

usemtl Patch_117_Mat_CR1_absorber
f 1122 1121 1120
f 1125 1124 1123

usemtl Patch_118_Mat_CR1_absorber
f 1128 1127 1126
f 1131 1130 1129

usemtl Patch_119_Mat_CR1_absorber
f 1134 1133 1132
f 1137 1136 1135

usemtl Patch_120_Mat_CR1_absorber
f 1140 1139 1138
f 1143 1142 1141

usemtl Patch_121_Mat_CR1_absorber
f 1146 1145 1144
f 1149 1148 1147

usemtl Patch_122_Mat_CR1_absorber
f 1152 1151 1150
f 1155 1154 1153

usemtl Patch_123_Mat_CR1_absorber
f 1158 1157 1156
f 1161 1160 1159

usemtl Patch_124_Mat_CR1_absorber
f 1164 1163 1162
f 1167 1166 1165

usemtl Patch_125_Mat_CR1_absorber
f 1170 1169 1168
f 1173 1172 1171

usemtl Patch_126_Mat_CR1_absorber
f 1176 1175 1174
f 1179 1178 1177

usemtl Patch_127_Mat_CR1_absorber
f 1182 1181 1180
f 1185 1184 1183
f 1188 1187 1186
f 1191 1190 1189

usemtl Patch_128_Mat_CR1_absorber
f 1194 1193 1192
f 1197 1196 1195

usemtl Patch_129_Mat_CR1_absorber
f 1200 1199 1198
f 1203 1202 1201
f 1206 1205 1204

usemtl Patch_130_Mat_CR1_absorber
f 1209 1208 1207
f 1212 1211 1210

usemtl Patch_131_Mat_CR1_absorber
f 1215 1214 1213
f 1218 1217 1216

usemtl Patch_132_Mat_CR1_absorber
f 1221 1220 1219
f 1224 1223 1222

usemtl Patch_133_Mat_CR1_absorber
f 1227 1226 1225
f 1230 1229 1228

usemtl Patch_134_Mat_CR1_absorber
f 1233 1232 1231
f 1236 1235 1234

usemtl Patch_135_Mat_CR1_absorber
f 1239 1238 1237
f 1242 1241 1240

usemtl Patch_136_Mat_CR1_absorber
f 1245 1244 1243
f 1248 1247 1246

usemtl Patch_137_Mat_CR1_absorber
f 1251 1250 1249
f 1254 1253 1252

usemtl Patch_138_Mat_CR1_absorber
f 1257 1256 1255
f 1260 1259 1258

usemtl Patch_139_Mat_CR1_absorber
f 1263 1262 1261
f 1266 1265 1264

usemtl Patch_140_Mat_CR1_tablesEquipment
f 1269 1268 1267
f 1272 1271 1270

usemtl Patch_141_Mat_CR1_tablesEquipment
f 1275 1274 1273
f 1278 1277 1276

usemtl Patch_142_Mat_CR1_paintedConcrete
f 1281 1280 1279
f 1284 1283 1282

usemtl Patch_143_Mat_CR1_paintedConcrete
f 1287 1286 1285
f 1290 1289 1288
f 1293 1292 1291
f 1296 1295 1294
f 1299 1298 1297
f 1302 1301 1300

usemtl Patch_144_Mat_CR1_paintedConcrete
f 1305 1304 1303
f 1308 1307 1306

usemtl Patch_145_Mat_CR1_paintedConcrete
f 1311 1310 1309
f 1314 1313 1312
f 1317 1316 1315
f 1320 1319 1318

usemtl Patch_146_Mat_CR1_paintedConcrete
f 1323 1322 1321
f 1326 1325 1324
f 1329 1328 1327
f 1332 1331 1330
f 1335 1334 1333
f 1338 1337 1336
f 1341 1340 1339

usemtl Patch_147_Mat_CR1_paintedConcrete
f 1344 1343 1342
f 1347 1346 1345

usemtl Patch_148_Mat_CR1_paintedConcrete
f 1350 1349 1348

usemtl Patch_149_Mat_CR1_paintedConcrete
f 1353 1352 1351

usemtl Patch_150_Mat_CR1_paintedConcrete
f 1356 1355 1354
f 1359 1358 1357

usemtl Patch_151_Mat_CR1_paintedConcrete
f 1362 1361 1360
f 1365 1364 1363
f 1368 1367 1366

usemtl Patch_152_Mat_CR1_paintedConcrete
f 1371 1370 1369
f 1374 1373 1372
f 1377 1376 1375

usemtl Patch_153_Mat_CR1_paintedConcrete
f 1380 1379 1378
f 1383 1382 1381
f 1386 1385 1384
f 1389 1388 1387

usemtl Patch_154_Mat_CR1_paintedConcrete
f 1392 1391 1390
f 1395 1394 1393
f 1398 1397 1396

usemtl Patch_155_Mat_CR1_paintedConcrete
f 1401 1400 1399
f 1404 1403 1402
f 1407 1406 1405

usemtl Patch_156_Mat_CR1_paintedConcrete
f 1410 1409 1408
f 1413 1412 1411
f 1416 1415 1414

usemtl Patch_157_Mat_CR1_paintedConcrete
f 1419 1418 1417
f 1422 1421 1420
f 1425 1424 1423
f 1428 1427 1426

usemtl Patch_158_Mat_CR1_paintedConcrete
f 1431 1430 1429
f 1434 1433 1432
f 1437 1436 1435
f 1440 1439 1438
f 1443 1442 1441

usemtl Patch_159_Mat_CR1_paintedConcrete
f 1446 1445 1444
f 1449 1448 1447
f 1452 1451 1450
f 1455 1454 1453

usemtl Patch_160_Mat_CR1_paintedConcrete
f 1458 1457 1456
f 1461 1460 1459

usemtl Patch_161_Mat_CR1_paintedConcrete
f 1464 1463 1462
f 1467 1466 1465
f 1470 1469 1468

usemtl Patch_162_Mat_CR1_absorber
f 1473 1472 1471
f 1476 1475 1474

usemtl Patch_163_Mat_CR1_tablesEquipment
f 1479 1478 1477
f 1482 1481 1480
f 1485 1484 1483
f 1488 1487 1486

usemtl Patch_164_Mat_CR1_tablesEquipment
f 1491 1490 1489
f 1494 1493 1492

usemtl Patch_165_Mat_CR1_tablesEquipment
f 1497 1496 1495
f 1500 1499 1498

