mtllib mesh.mtl

v 6.10173802 1.90299993 2.73600005
v 5.287095553841386 0.16321217939500415 2.73600005
v 6.10173802 0.1686856577788528 2.73600005
v 4.671947726515523 0.7951148404818373 2.73600005
v 6.10173802 1.90299993 2.73600005
v 4.941106842489468 2.0095992102363915 2.73600005
v 5.287095553841386 0.16321217939500415 2.73600005
v 6.10173802 1.90299993 2.73600005
v 4.671947726515523 0.7951148404818373 2.73600005
v 5.287095553841386 0.16321217939500415 2.73600005
v 4.5227692433620446 -0.9556189291476072 2.73600005
v 5.217730904801522 -1.6342772149441922 2.73600005
v 5.287095553841386 0.16321217939500415 2.73600005
v 6.101738019999999 -1.6276213613727033 2.73600005
v 6.10173802 0.1686856577788528 2.73600005
v 6.101738019999999 -1.6276213613727033 2.73600005
v 5.287095553841386 0.16321217939500415 2.73600005
v 5.217730904801522 -1.6342772149441922 2.73600005
v 3.304109908416497 0.9566944690907513 2.73600005
v 3.652911930832877 0.5892723446043551 2.73600005
v 4.671947726515523 0.7951148404818373 2.73600005
v 4.671947726515523 0.7951148404818373 2.73600005
v 4.941106842489468 2.0095992102363915 2.73600005
v 3.444309837364064 2.1470739623351527 2.73600005
v 3.444309837364064 2.1470739623351527 2.73600005
v 3.304109908416497 0.9566944690907513 2.73600005
v 4.671947726515523 0.7951148404818373 2.73600005
v 4.671947726515523 0.7951148404818373 2.73600005
v 3.652911930832877 0.5892723446043551 2.73600005
v 3.5455698714375994 -0.22320726628455678 2.73600005
v 5.287095553841386 0.16321217939500415 2.73600005
v 4.486158674108217 -0.9555202396885696 2.73600005
v 4.5227692433620446 -0.9556189291476072 2.73600005
v 3.5455698714375994 -0.22320726628455678 2.73600005
v 5.287095553841386 0.16321217939500415 2.73600005
v 4.671947726515523 0.7951148404818373 2.73600005
v 5.287095553841386 0.16321217939500415 2.73600005
v 3.5455698714375994 -0.22320726628455678 2.73600005
v 4.486158674108217 -0.9555202396885696 2.73600005
v 1.887098898622014 1.2369403538883512 2.73600005
v 2.0349377456540343 2.2765190896699155 2.73600005
v 0.5707378399999996 2.4109999300000005 2.73600005
v 0.5707378399999996 2.4109999300000005 2.73600005
v 0.5707378399999996 1.0985594893297552 2.73600005
v 1.887098898622014 1.2369403538883512 2.73600005
v 1.887098898622014 1.2369403538883512 2.73600005
v 2.2021991330361157 0.8219185184127691 2.73600005
v 3.304109908416497 0.9566944690907513 2.73600005
v 1.887098898622014 1.2369403538883512 2.73600005
v 3.444309837364064 2.1470739623351527 2.73600005
v 2.0349377456540343 2.2765190896699155 2.73600005
v 3.444309837364064 2.1470739623351527 2.73600005
v 1.887098898622014 1.2369403538883512 2.73600005
v 3.304109908416497 0.9566944690907513 2.73600005
v 2.861757192939204 -0.5974893699329507 2.73600005
v 1.9616068257453845 -0.11725391622993442 2.73600005
v 2.0460876564272565 -0.2856718677237109 2.73600005
v 3.304109908416497 0.9566944690907513 2.73600005
v 2.861757192939204 -0.5974893699329507 2.73600005
v 3.5455698714375994 -0.22320726628455678 2.73600005
v 3.5455698714375994 -0.22320726628455678 2.73600005
v 3.652911930832877 0.5892723446043551 2.73600005
v 3.304109908416497 0.9566944690907513 2.73600005
v 1.9616068257453845 -0.11725391622993442 2.73600005
v 2.861757192939204 -0.5974893699329507 2.73600005
v 2.2021991330361157 0.8219185184127691 2.73600005
v 2.2021991330361157 0.8219185184127691 2.73600005
v 2.861757192939204 -0.5974893699329507 2.73600005
v 3.304109908416497 0.9566944690907513 2.73600005
v 5.217730904801522 -1.6342772149441922 2.73600005
v 4.644416893259436 -2.7522288586012453 2.73600005
v 4.995444027679103 -3.2505501460644055 2.73600005
v 5.217730904801522 -1.6342772149441922 2.73600005
v 6.10173802 -3.325956000278311 2.73600005
v 6.101738019999999 -1.6276213613727033 2.73600005
v 6.10173802 -3.325956000278311 2.73600005
v 5.217730904801522 -1.6342772149441922 2.73600005
v 4.995444027679103 -3.2505501460644055 2.73600005
v 0.57073784 0.49900001999999954 2.73600005
v 1.887098898622014 1.2369403538883512 2.73600005
v 0.5707378399999996 1.0985594893297552 2.73600005
v 0.57073784 0.49900001999999954 2.73600005
v 0.57073784 0.09128551901235493 2.73600005
v 1.9616068257453845 -0.11725391622993442 2.73600005
v 0.57073784 0.49900001999999954 2.73600005
v 2.2021991330361157 0.8219185184127691 2.73600005
v 1.887098898622014 1.2369403538883512 2.73600005
v 2.2021991330361157 0.8219185184127691 2.73600005
v 0.57073784 0.49900001999999954 2.73600005
v 1.9616068257453845 -0.11725391622993442 2.73600005
v 2.861757192939204 -0.5974893699329507 2.73600005
v 2.959530932381338 -1.7124026425022556 2.73600005
v 3.4676410756074074 -1.9474548180243447 2.73600005
v 3.4676410756074074 -1.9474548180243447 2.73600005
v 4.486158674108217 -0.9555202396885696 2.73600005
v 3.5455698714375994 -0.22320726628455678 2.73600005
v 3.5455698714375994 -0.22320726628455678 2.73600005
v 2.861757192939204 -0.5974893699329507 2.73600005
v 3.4676410756074074 -1.9474548180243447 2.73600005
v 1.5352928107580972 -1.2960893791182788 2.73600005
v 2.0460876564272565 -0.2856718677237109 2.73600005
v 1.9616068257453845 -0.11725391622993442 2.73600005
v 1.5352928107580972 -1.2960893791182788 2.73600005
v 0.57073784 0.09128551901235493 2.73600005
v 0.5707378400000005 -1.33319922489814 2.73600005
v 0.57073784 0.09128551901235493 2.73600005
v 1.5352928107580972 -1.2960893791182788 2.73600005
v 1.9616068257453845 -0.11725391622993442 2.73600005
v 2.861757192939204 -0.5974893699329507 2.73600005
v 2.0460876564272565 -0.2856718677237109 2.73600005
v 1.5352928107580972 -1.2960893791182788 2.73600005
v 1.5352928107580972 -1.2960893791182788 2.73600005
v 2.119205141772556 -2.0371447385988795 2.73600005
v 2.959530932381338 -1.7124026425022556 2.73600005
v 2.959530932381338 -1.7124026425022556 2.73600005
v 2.861757192939204 -0.5974893699329507 2.73600005
v 1.5352928107580972 -1.2960893791182788 2.73600005
v 4.644416893259436 -2.7522288586012453 2.73600005
v 3.4676410756074074 -1.9474548180243447 2.73600005
v 3.752109596363858 -2.6219546159621823 2.73600005
v 3.4676410756074074 -1.9474548180243447 2.73600005
v 4.644416893259436 -2.7522288586012453 2.73600005
v 5.217730904801522 -1.6342772149441922 2.73600005
v 5.217730904801522 -1.6342772149441922 2.73600005
v 4.5227692433620446 -0.9556189291476072 2.73600005
v 4.486158674108217 -0.9555202396885696 2.73600005
v 3.4676410756074074 -1.9474548180243447 2.73600005
v 5.217730904801522 -1.6342772149441922 2.73600005
v 4.486158674108217 -0.9555202396885696 2.73600005
v 4.822378757900852 -4.773310221974047 2.73600005
v 4.604220785123244 -6.159999970000002 2.73600005
v 6.101738019999999 -6.159999970000003 2.73600005
v 6.101738019999999 -6.159999970000003 2.73600005
v 6.101738019999999 -4.75833178599124 2.73600005
v 4.822378757900852 -4.773310221974047 2.73600005
v 4.644416893259436 -2.7522288586012453 2.73600005
v 3.752109596363858 -2.6219546159621823 2.73600005
v 3.2634043381294835 -3.3179692138969816 2.73600005
v 3.2634043381294835 -3.3179692138969816 2.73600005
v 3.738699702959461 -4.351395644695877 2.73600005
v 4.46766924903433 -4.380322384695957 2.73600005
v 3.2634043381294835 -3.3179692138969816 2.73600005
v 4.995444027679103 -3.2505501460644055 2.73600005
v 4.644416893259436 -2.7522288586012453 2.73600005
v 4.995444027679103 -3.2505501460644055 2.73600005
v 3.2634043381294835 -3.3179692138969816 2.73600005
v 4.46766924903433 -4.380322384695957 2.73600005
v 3.2634043381294835 -3.3179692138969816 2.73600005
v 1.9438250322299755 -2.541116543021654 2.73600005
v 2.2933323183725487 -3.309712725464504 2.73600005
v 3.4676410756074074 -1.9474548180243447 2.73600005
v 3.2634043381294835 -3.3179692138969816 2.73600005
v 3.752109596363858 -2.6219546159621823 2.73600005
v 3.2634043381294835 -3.3179692138969816 2.73600005
v 3.4676410756074074 -1.9474548180243447 2.73600005
v 2.959530932381338 -1.7124026425022556 2.73600005
v 1.9438250322299755 -2.541116543021654 2.73600005
v 2.959530932381338 -1.7124026425022556 2.73600005
v 2.119205141772556 -2.0371447385988795 2.73600005
v 1.9438250322299755 -2.541116543021654 2.73600005
v 3.2634043381294835 -3.3179692138969816 2.73600005
v 2.959530932381338 -1.7124026425022556 2.73600005
v 1.9438250322299755 -2.541116543021654 2.73600005
v 2.119205141772556 -2.0371447385988795 2.73600005
v 1.5352928107580972 -1.2960893791182788 2.73600005
v 1.5352928107580972 -1.2960893791182788 2.73600005
v 0.5707378400000005 -1.33319922489814 2.73600005
v 0.5707378400000003 -2.6957642759407703 2.73600005
v 0.5707378400000003 -2.6957642759407703 2.73600005
v 1.9438250322299755 -2.541116543021654 2.73600005
v 1.5352928107580972 -1.2960893791182788 2.73600005
v 4.995444027679103 -3.2505501460644055 2.73600005
v 4.46766924903433 -4.380322384695957 2.73600005
v 4.822378757900852 -4.773310221974047 2.73600005
v 4.995444027679103 -3.2505501460644055 2.73600005
v 6.101738019999999 -4.75833178599124 2.73600005
v 6.10173802 -3.325956000278311 2.73600005
v 6.101738019999999 -4.75833178599124 2.73600005
v 4.995444027679103 -3.2505501460644055 2.73600005
v 4.822378757900852 -4.773310221974047 2.73600005
v 3.2634043381294835 -3.3179692138969816 2.73600005
v 2.2933323183725487 -3.309712725464504 2.73600005
v 1.9810334989827023 -3.8403203177357215 2.73600005
v 1.9810334989827023 -3.8403203177357215 2.73600005
v 2.183687031902788 -4.728387439837908 2.73600005
v 3.2736962412044406 -4.833193870367179 2.73600005
v 3.2736962412044406 -4.833193870367179 2.73600005
v 3.738699702959461 -4.351395644695877 2.73600005
v 3.2634043381294835 -3.3179692138969816 2.73600005
v 3.2634043381294835 -3.3179692138969816 2.73600005
v 1.9810334989827023 -3.8403203177357215 2.73600005
v 3.2736962412044406 -4.833193870367179 2.73600005
v 1.94452034384254 -5.0260960899717055 2.73600005
v 0.5707378399999998 -4.9522027045725725 2.73600005
v 0.5707378400000008 -6.159999970000001 2.73600005
v 0.5707378400000008 -6.159999970000001 2.73600005
v 2.0062745455826336 -6.159999970000002 2.73600005
v 1.94452034384254 -5.0260960899717055 2.73600005
v 1.9810334989827023 -3.8403203177357215 2.73600005
v 1.9438250322299755 -2.541116543021654 2.73600005
v 0.5707378400000003 -2.6957642759407703 2.73600005
v 0.5707378400000003 -2.6957642759407703 2.73600005
v 0.5707378400000003 -3.783632904755027 2.73600005
v 1.9810334989827023 -3.8403203177357215 2.73600005
v 1.9438250322299755 -2.541116543021654 2.73600005
v 1.9810334989827023 -3.8403203177357215 2.73600005
v 2.2933323183725487 -3.309712725464504 2.73600005
v 4.822378757900852 -4.773310221974047 2.73600005
v 3.738699702959461 -4.351395644695877 2.73600005
v 3.2736962412044406 -4.833193870367179 2.73600005
v 3.2736962412044406 -4.833193870367179 2.73600005
v 3.499248659661961 -6.159999970000002 2.73600005
v 4.604220785123244 -6.159999970000002 2.73600005
v 3.738699702959461 -4.351395644695877 2.73600005
v 4.822378757900852 -4.773310221974047 2.73600005
v 4.46766924903433 -4.380322384695957 2.73600005
v 4.822378757900852 -4.773310221974047 2.73600005
v 3.2736962412044406 -4.833193870367179 2.73600005
v 4.604220785123244 -6.159999970000002 2.73600005
v 1.94452034384254 -5.0260960899717055 2.73600005
v 2.183687031902788 -4.728387439837908 2.73600005
v 1.9810334989827023 -3.8403203177357215 2.73600005
v 1.9810334989827023 -3.8403203177357215 2.73600005
v 0.5707378400000003 -3.783632904755027 2.73600005
v 0.5707378399999998 -4.9522027045725725 2.73600005
v 0.5707378399999998 -4.9522027045725725 2.73600005
v 1.94452034384254 -5.0260960899717055 2.73600005
v 1.9810334989827023 -3.8403203177357215 2.73600005
v 3.2736962412044406 -4.833193870367179 2.73600005
v 2.183687031902788 -4.728387439837908 2.73600005
v 1.94452034384254 -5.0260960899717055 2.73600005
v 3.2736962412044406 -4.833193870367179 2.73600005
v 2.0062745455826336 -6.159999970000002 2.73600005
v 3.499248659661961 -6.159999970000002 2.73600005
v 2.0062745455826336 -6.159999970000002 2.73600005
v 3.2736962412044406 -4.833193870367179 2.73600005
v 1.94452034384254 -5.0260960899717055 2.73600005
v -4.87251183157348 -3.6479998099999995 1.8789769147239381
v -5.106766347339972 -3.6479998099999986 2.7680000399999996
v -6.25126223 -3.6479998099999986 2.7680000399999996
v -4.87251183157348 -3.6479998099999995 1.8789769147239381
v -6.25126223 -3.6479998099999995 1.10000001
v -5.260697863366561 -3.64799981 1.10000001
v -6.25126223 -3.6479998099999995 1.10000001
v -4.87251183157348 -3.6479998099999995 1.8789769147239381
v -6.25126223 -3.6479998099999986 2.7680000399999996
v -2.8027147800000005 -3.647999810000001 -2.220446049250313e-16
v -3.7957086657356194 -3.64799981 1.10000001
v -4.52168292 -3.6479998100000004 0.318777300272027
v -4.52168292 -3.6479998100000004 0.318777300272027
v -4.52168292 -3.6479998100000004 0.0
v -2.8027147800000005 -3.647999810000001 -2.220446049250313e-16
v -2.8027147800000005 -3.647999810000001 -2.220446049250313e-16
v -2.8027147799999996 -3.6479998100000004 1.0766169296129808
v -2.856428185839486 -3.6479998100000004 1.10000001
v -3.7957086657356194 -3.64799981 1.10000001
v -2.8027147800000005 -3.647999810000001 -2.220446049250313e-16
v -2.856428185839486 -3.6479998100000004 1.10000001
v -3.52517242742102 -3.64799981 1.3911247323083706
v -3.7957086657356194 -3.64799981 1.10000001
v -2.856428185839486 -3.6479998100000004 1.10000001
v -4.52168292 -3.64799981 1.10000001
v -4.52168292 -3.6479998100000004 0.318777300272027
v -3.7957086657356194 -3.64799981 1.10000001
v -3.7957086657356194 -3.64799981 1.10000001
v -3.52517242742102 -3.64799981 1.3911247323083706
v -3.6891376703161134 -3.64799981 1.7460812264176757
v -4.52168292 -3.64799981 1.10000001
v -4.87251183157348 -3.6479998099999995 1.8789769147239381
v -5.260697863366561 -3.64799981 1.10000001
v -4.52168292 -3.64799981 1.10000001
v -3.7957086657356194 -3.64799981 1.10000001
v -3.6891376703161134 -3.64799981 1.7460812264176757
v -4.87251183157348 -3.6479998099999995 1.8789769147239381
v -4.52168292 -3.64799981 1.10000001
v -3.6891376703161134 -3.64799981 1.7460812264176757
v -4.87251183157348 -3.6479998099999995 1.8789769147239381
v -3.6891376703161134 -3.64799981 1.7460812264176757
v -3.421966866408799 -3.647999809999999 2.7680000399999996
v -3.421966866408799 -3.647999809999999 2.7680000399999996
v -5.106766347339972 -3.6479998099999986 2.7680000399999996
v -4.87251183157348 -3.6479998099999995 1.8789769147239381
v -2.3065041074714383 -3.6479998099999995 2.76800004
v -2.856428185839486 -3.6479998100000004 1.10000001
v -2.3760726182775405 -3.6479998100000004 1.10000001
v -3.6891376703161134 -3.64799981 1.7460812264176757
v -2.3065041074714383 -3.6479998099999995 2.76800004
v -3.421966866408799 -3.647999809999999 2.7680000399999996
v -2.856428185839486 -3.6479998100000004 1.10000001
v -3.6891376703161134 -3.64799981 1.7460812264176757
v -3.52517242742102 -3.64799981 1.3911247323083706
v -2.3065041074714383 -3.6479998099999995 2.76800004
v -3.6891376703161134 -3.64799981 1.7460812264176757
v -2.856428185839486 -3.6479998100000004 1.10000001
v -2.8027147799999996 -3.6479998100000004 1.0766169296129808
v -2.8027147800000005 -3.6479998100000004 1.10000001
v -2.856428185839486 -3.6479998100000004 1.10000001
v -2.3065041074714383 -3.6479998099999995 2.76800004
v -1.1646778142873455 -3.647999810000001 1.10000001
v -1.175564790634478 -3.6479998099999995 2.7680000399999996
v -1.1646778142873455 -3.647999810000001 1.10000001
v -2.3065041074714383 -3.6479998099999995 2.76800004
v -2.3760726182775405 -3.6479998100000004 1.10000001
v -1.1646778142873455 -3.647999810000001 1.10000001
v -0.00026214000000068793 -3.647999810000001 1.10000001
v -0.00026214000000115756 -3.64799981 2.7680000399999996
v -0.00026214000000115756 -3.64799981 2.7680000399999996
v -1.175564790634478 -3.6479998099999995 2.7680000399999996
v -1.1646778142873455 -3.647999810000001 1.10000001
v -0.00026214 2.52300007 2.76800004
v -1.2208832119648791 1.114522272457641 2.76800004
v -0.00026213999999979976 1.3209654060426792 2.76800004
v -1.6978560187618554 1.7101359227417716 2.76800004
v -0.00026214 2.52300007 2.76800004
v -1.5664921200159374 2.6660679079645178 2.76800004
v -1.2208832119648791 1.114522272457641 2.76800004
v -0.00026214 2.52300007 2.76800004
v -1.6978560187618554 1.7101359227417716 2.76800004
v -3.3135263598763935 1.7622547324666078 2.76800004
v -2.8667318356420437 1.3367505448927988 2.76800004
v -1.6978560187618554 1.7101359227417716 2.76800004
v -1.6978560187618554 1.7101359227417716 2.76800004
v -1.5664921200159374 2.6660679079645178 2.76800004
v -3.262061363683416 2.8209502872484142 2.76800004
v -3.262061363683416 2.8209502872484142 2.76800004
v -3.3135263598763935 1.7622547324666078 2.76800004
v -1.6978560187618554 1.7101359227417716 2.76800004
v -0.00026213999999979976 1.3209654060426792 2.76800004
v -1.3972766932464822 0.4422138529063698 2.76800004
v -0.6197511241624347 -0.40480644080837425 2.76800004
v -0.6197511241624347 -0.40480644080837425 2.76800004
v -0.0002621399999995777 -0.39924549640450513 2.76800004
v -0.00026213999999979976 1.3209654060426792 2.76800004
v -1.3972766932464822 0.4422138529063698 2.76800004
v -0.00026213999999979976 1.3209654060426792 2.76800004
v -1.2208832119648791 1.114522272457641 2.76800004
v -1.338440160487258 -1.1544430132295118 2.76800004
v -2.2131431131258994 0.0710127271214415 2.76800004
v -2.1788193392426454 -0.9567714061009532 2.76800004
v -1.3972766932464822 0.4422138529063698 2.76800004
v -1.338440160487258 -1.1544430132295118 2.76800004
v -0.6197511241624347 -0.40480644080837425 2.76800004
v -2.2131431131258994 0.0710127271214415 2.76800004
v -1.338440160487258 -1.1544430132295118 2.76800004
v -1.3972766932464822 0.4422138529063698 2.76800004
v -2.2131431131258994 0.0710127271214415 2.76800004
v -2.8667318356420437 1.3367505448927988 2.76800004
v -2.886292303247827 0.47318818343037355 2.76800004
v -2.8667318356420437 1.3367505448927988 2.76800004
v -2.2131431131258994 0.0710127271214415 2.76800004
v -1.3972766932464822 0.4422138529063698 2.76800004
v -1.3972766932464822 0.4422138529063698 2.76800004
v -1.2208832119648791 1.114522272457641 2.76800004
v -1.6978560187618554 1.7101359227417716 2.76800004
v -2.8667318356420437 1.3367505448927988 2.76800004
v -1.3972766932464822 0.4422138529063698 2.76800004
v -1.6978560187618554 1.7101359227417716 2.76800004
v -4.886572623819001 1.9002965903703304 2.76800004
v -4.454648493846003 1.3838240057359106 2.76800004
v -3.3135263598763935 1.7622547324666078 2.76800004
v -4.886572623819001 1.9002965903703304 2.76800004
v -3.262061363683416 2.8209502872484142 2.76800004
v -4.756769193749276 2.9574849088331594 2.7680000399999996
v -3.262061363683416 2.8209502872484142 2.76800004
v -4.886572623819001 1.9002965903703304 2.76800004
v -3.3135263598763935 1.7622547324666078 2.76800004
v -4.886572623819001 1.9002965903703304 2.76800004
v -4.756769193749276 2.9574849088331594 2.7680000399999996
v -6.25126223 3.0939999100000013 2.7680000399999996
v -6.25126223 3.0939999100000013 2.7680000399999996
v -6.25126223 1.643553174270099 2.7680000399999996
v -4.886572623819001 1.9002965903703304 2.76800004
v -0.0002621399999989116 -3.6479998100000004 2.7680000400000004
v -1.5896934196175192 -2.6201051741565347 2.76800004
v -1.5100710040897645 -3.6479998100000004 2.76800004
v -1.0068243480226489 -2.0626128205659553 2.76800004
v -0.0002621399999989116 -3.6479998100000004 2.7680000400000004
v -0.00026213999999935567 -2.1861713453368004 2.7680000400000004
v -0.0002621399999989116 -3.6479998100000004 2.7680000400000004
v -1.0068243480226489 -2.0626128205659553 2.76800004
v -1.5896934196175192 -2.6201051741565347 2.76800004
v -0.6197511241624347 -0.40480644080837425 2.76800004
v -1.338440160487258 -1.1544430132295118 2.76800004
v -1.0068243480226489 -2.0626128205659553 2.76800004
v -0.6197511241624347 -0.40480644080837425 2.76800004
v -0.00026213999999935567 -2.1861713453368004 2.7680000400000004
v -0.0002621399999995777 -0.39924549640450513 2.76800004
v -0.00026213999999935567 -2.1861713453368004 2.7680000400000004
v -0.6197511241624347 -0.40480644080837425 2.76800004
v -1.0068243480226489 -2.0626128205659553 2.76800004
v -2.2131431131258994 0.0710127271214415 2.76800004
v -2.886292303247827 0.47318818343037355 2.76800004
v -3.5783960894384026 0.07240389998067376 2.76800004
v -3.5783960894384026 0.07240389998067376 2.76800004
v -3.613916241968628 -0.9548202610264651 2.76800004
v -2.5416723052902395 -1.2350933537943074 2.76800004
v -2.5416723052902395 -1.2350933537943074 2.76800004
v -2.1788193392426454 -0.9567714061009532 2.76800004
v -2.2131431131258994 0.0710127271214415 2.76800004
v -2.2131431131258994 0.0710127271214415 2.76800004
v -3.5783960894384026 0.07240389998067376 2.76800004
v -2.5416723052902395 -1.2350933537943074 2.76800004
v -3.5783960894384026 0.07240389998067376 2.76800004
v -4.454648493846003 1.3838240057359106 2.76800004
v -4.5740041131986775 0.5717669579473756 2.76800004
v -2.8667318356420437 1.3367505448927988 2.76800004
v -3.5783960894384026 0.07240389998067376 2.76800004
v -2.886292303247827 0.47318818343037355 2.76800004
v -3.5783960894384026 0.07240389998067376 2.76800004
v -3.3135263598763935 1.7622547324666078 2.76800004
v -4.454648493846003 1.3838240057359106 2.76800004
v -3.3135263598763935 1.7622547324666078 2.76800004
v -3.5783960894384026 0.07240389998067376 2.76800004
v -2.8667318356420437 1.3367505448927988 2.76800004
v -6.25126223 0.7810848051952406 2.76800004
v -4.886572623819001 1.9002965903703304 2.76800004
v -6.25126223 1.643553174270099 2.7680000399999996
v -4.886572623819001 1.9002965903703304 2.76800004
v -6.25126223 0.7810848051952406 2.76800004
v -4.804881063182815 0.41707668836749545 2.76800004
v -4.804881063182815 0.41707668836749545 2.76800004
v -4.5740041131986775 0.5717669579473756 2.76800004
v -4.454648493846003 1.3838240057359106 2.76800004
v -4.886572623819001 1.9002965903703304 2.76800004
v -4.804881063182815 0.41707668836749545 2.76800004
v -4.454648493846003 1.3838240057359106 2.76800004
v -5.117606386167273 -0.6770230097455541 2.76800004
v -4.804881063182815 0.41707668836749545 2.76800004
v -6.25126223 0.7810848051952406 2.76800004
v -6.25126223 0.7810848051952406 2.76800004
v -6.251262229999999 -0.6720564348727236 2.76800004
v -5.117606386167273 -0.6770230097455541 2.76800004
v -3.5783960894384026 0.07240389998067376 2.76800004
v -4.804881063182815 0.41707668836749545 2.76800004
v -5.117606386167273 -0.6770230097455541 2.76800004
v -3.5783960894384026 0.07240389998067376 2.76800004
v -4.864038124831253 -1.021703682209594 2.76800004
v -3.8943993517983664 -1.170016786427838 2.76800004
v -3.8943993517983664 -1.170016786427838 2.76800004
v -3.613916241968628 -0.9548202610264651 2.76800004
v -3.5783960894384026 0.07240389998067376 2.76800004
v -4.804881063182815 0.41707668836749545 2.76800004
v -3.5783960894384026 0.07240389998067376 2.76800004
v -4.5740041131986775 0.5717669579473756 2.76800004
v -4.864038124831253 -1.021703682209594 2.76800004
v -3.5783960894384026 0.07240389998067376 2.76800004
v -5.117606386167273 -0.6770230097455541 2.76800004
v -1.338440160487258 -1.1544430132295118 2.76800004
v -2.5416723052902395 -1.2350933537943074 2.76800004
v -2.5358670001876185 -2.2260992760715554 2.76800004
v -1.338440160487258 -1.1544430132295118 2.76800004
v -1.5896934196175192 -2.6201051741565347 2.76800004
v -1.0068243480226489 -2.0626128205659553 2.76800004
v -2.5416723052902395 -1.2350933537943074 2.76800004
v -1.338440160487258 -1.1544430132295118 2.76800004
v -2.1788193392426454 -0.9567714061009532 2.76800004
v -1.5896934196175192 -2.6201051741565347 2.76800004
v -1.338440160487258 -1.1544430132295118 2.76800004
v -2.5358670001876185 -2.2260992760715554 2.76800004
v -3.613916241968628 -0.9548202610264651 2.76800004
v -3.8943993517983664 -1.170016786427838 2.76800004
v -3.871839181240599 -2.2541997822387168 2.76800004
v -3.871839181240599 -2.2541997822387168 2.76800004
v -3.1739972398159324 -2.662383841732814 2.76800004
v -2.5358670001876185 -2.2260992760715554 2.76800004
v -3.871839181240599 -2.2541997822387168 2.76800004
v -2.5416723052902395 -1.2350933537943074 2.76800004
v -3.613916241968628 -0.9548202610264651 2.76800004
v -2.5416723052902395 -1.2350933537943074 2.76800004
v -3.871839181240599 -2.2541997822387168 2.76800004
v -2.5358670001876185 -2.2260992760715554 2.76800004
v -3.871839181240599 -2.2541997822387168 2.76800004
v -4.864038124831253 -1.021703682209594 2.76800004
v -5.303716333521008 -2.1153219049448486 2.76800004
v -5.303716333521008 -2.1153219049448486 2.76800004
v -4.721786307336543 -2.6366596053591818 2.76800004
v -3.871839181240599 -2.2541997822387168 2.76800004
v -4.864038124831253 -1.021703682209594 2.76800004
v -3.871839181240599 -2.2541997822387168 2.76800004
v -3.8943993517983664 -1.170016786427838 2.76800004
v -3.1699409285556976 -3.647999809999999 2.76800004
v -2.5358670001876185 -2.2260992760715554 2.76800004
v -3.1739972398159324 -2.662383841732814 2.76800004
v -1.5896934196175192 -2.6201051741565347 2.76800004
v -3.1699409285556976 -3.647999809999999 2.76800004
v -1.5100710040897645 -3.6479998100000004 2.76800004
v -2.5358670001876185 -2.2260992760715554 2.76800004
v -3.1699409285556976 -3.647999809999999 2.76800004
v -1.5896934196175192 -2.6201051741565347 2.76800004
v -6.251262229999999 -3.647999809999999 2.76800004
v -5.303716333521008 -2.1153219049448486 2.76800004
v -6.251262229999999 -2.188781262300308 2.76800004
v -4.721786307336543 -2.6366596053591818 2.76800004
v -6.251262229999999 -3.647999809999999 2.76800004
v -4.8039706284127215 -3.647999809999999 2.76800004
v -6.251262229999999 -3.647999809999999 2.76800004
v -4.721786307336543 -2.6366596053591818 2.76800004
v -5.303716333521008 -2.1153219049448486 2.76800004
v -5.303716333521008 -2.1153219049448486 2.76800004
v -4.864038124831253 -1.021703682209594 2.76800004
v -5.117606386167273 -0.6770230097455541 2.76800004
v -5.303716333521008 -2.1153219049448486 2.76800004
v -6.251262229999999 -0.6720564348727236 2.76800004
v -6.251262229999999 -2.188781262300308 2.76800004
v -6.251262229999999 -0.6720564348727236 2.76800004
v -5.303716333521008 -2.1153219049448486 2.76800004
v -5.117606386167273 -0.6770230097455541 2.76800004
v -3.1699409285556976 -3.647999809999999 2.76800004
v -3.871839181240599 -2.2541997822387168 2.76800004
v -4.721786307336543 -2.6366596053591818 2.76800004
v -4.721786307336543 -2.6366596053591818 2.76800004
v -4.8039706284127215 -3.647999809999999 2.76800004
v -3.1699409285556976 -3.647999809999999 2.76800004
v -3.871839181240599 -2.2541997822387168 2.76800004
v -3.1699409285556976 -3.647999809999999 2.76800004
v -3.1739972398159324 -2.662383841732814 2.76800004
v -6.25126223 -3.64799981 2.76800004
v -6.25126223 -3.137925331753234 1.10000001
v -6.25126223 -3.64799981 1.10000001
v -6.25126223 -2.300604790383149 1.5266336618701932
v -6.25126223 -3.64799981 2.76800004
v -6.25126223 -2.3819066529496236 2.76800004
v -6.25126223 -3.64799981 2.76800004
v -6.25126223 -2.300604790383149 1.5266336618701932
v -6.25126223 -3.137925331753234 1.10000001
v -6.25126223 -0.9562524041716081 1.5574041314673206
v -6.25126223 -1.6821385749457924 1.216134767359825
v -6.25126223 -2.300604790383149 1.5266336618701932
v -6.25126223 -2.300604790383149 1.5266336618701932
v -6.25126223 -2.3819066529496236 2.76800004
v -6.25126223 -0.9547975951665031 2.76800004
v -6.25126223 -0.9547975951665031 2.76800004
v -6.25126223 -0.9562524041716081 1.5574041314673206
v -6.25126223 -2.300604790383149 1.5266336618701932
v -6.25126223 -3.05310105 1.10000001
v -6.25126223 -1.6821385749457924 1.216134767359825
v -6.25126223 -1.6656829573858238 0.0
v -6.25126223 -1.6656829573858238 0.0
v -6.25126223 -3.05310105 0.0
v -6.25126223 -3.05310105 1.10000001
v -6.25126223 -3.05310105 1.10000001
v -6.25126223 -3.137925331753234 1.10000001
v -6.25126223 -2.300604790383149 1.5266336618701932
v -6.25126223 -1.6821385749457924 1.216134767359825
v -6.25126223 -3.05310105 1.10000001
v -6.25126223 -2.300604790383149 1.5266336618701932
v -6.25126223 -1.6821385749457924 1.216134767359825
v -6.25126223 -0.9562524041716081 1.5574041314673206
v -6.25126223 -0.3506349636295085 1.2345961875916058
v -6.25126223 -0.3506349636295085 1.2345961875916058
v -6.25126223 -0.329603887418677 0.0
v -6.25126223 -1.6656829573858238 0.0
v -6.25126223 -1.6656829573858238 0.0
v -6.25126223 -1.6821385749457924 1.216134767359825
v -6.25126223 -0.3506349636295085 1.2345961875916058
v -6.25126223 0.43892573634726456 1.5709064739928995
v -6.25126223 -0.3506349636295085 1.2345961875916058
v -6.25126223 -0.9562524041716081 1.5574041314673206
v -6.25126223 -0.9562524041716081 1.5574041314673206
v -6.25126223 -0.9547975951665031 2.76800004
v -6.25126223 0.4207174583807217 2.76800004
v -6.25126223 0.4207174583807217 2.76800004
v -6.25126223 0.43892573634726456 1.5709064739928995
v -6.25126223 -0.9562524041716081 1.5574041314673206
v -6.25126223 2.1558492200000003 1.10000001
v -6.25126223 1.752078170855119 1.5225202826052855
v -6.25126223 2.333494177050196 1.10000001
v -6.25126223 2.1558492200000003 1.10000001
v -6.25126223 2.1558492200000012 0.0
v -6.25126223 0.9241333299781743 0.0
v -6.25126223 1.752078170855119 1.5225202826052855
v -6.25126223 2.1558492200000003 1.10000001
v -6.25126223 0.9442839041930222 1.2741381324057137
v -6.25126223 2.1558492200000003 1.10000001
v -6.25126223 0.9241333299781743 0.0
v -6.25126223 0.9442839041930222 1.2741381324057137
v -6.25126223 1.752078170855119 1.5225202826052855
v -6.25126223 0.9442839041930222 1.2741381324057137
v -6.25126223 0.43892573634726456 1.5709064739928995
v -6.25126223 1.752078170855119 1.5225202826052855
v -6.25126223 0.4207174583807217 2.76800004
v -6.25126223 1.8721610649564455 2.7680000400000004
v -6.25126223 0.4207174583807217 2.76800004
v -6.25126223 1.752078170855119 1.5225202826052855
v -6.25126223 0.43892573634726456 1.5709064739928995
v -6.25126223 -0.3506349636295085 1.2345961875916058
v -6.25126223 0.43892573634726456 1.5709064739928995
v -6.25126223 0.9442839041930222 1.2741381324057137
v -6.25126223 -0.3506349636295085 1.2345961875916058
v -6.25126223 0.9241333299781743 0.0
v -6.25126223 -0.329603887418677 0.0
v -6.25126223 0.9241333299781743 0.0
v -6.25126223 -0.3506349636295085 1.2345961875916058
v -6.25126223 0.9442839041930222 1.2741381324057137
v -6.25126223 1.752078170855119 1.5225202826052855
v -6.25126223 1.8721610649564455 2.7680000400000004
v -6.25126223 3.0939999099999995 2.7680000399999996
v -6.25126223 3.0939999099999995 2.7680000399999996
v -6.25126223 3.09399991 1.10000001
v -6.25126223 2.333494177050196 1.10000001
v -6.25126223 2.333494177050196 1.10000001
v -6.25126223 1.752078170855119 1.5225202826052855
v -6.25126223 3.0939999099999995 2.7680000399999996
v -1.1136258966886206 2.6247006807467517 2.7680000400000004
v -0.00026214000000024384 2.5230000699999993 2.7680000400000004
v -0.00026213653199794185 2.5230001079658297 1.100000010000001
v -0.00026213653199794185 2.5230001079658297 1.100000010000001
v -1.2262316465218297 2.6349867315413023 1.1000000100000003
v -1.1136258966886206 2.6247006807467517 2.7680000400000004
v -1.67695229 2.67615797 1.10000001
v -2.4548610682024306 2.74721631597066 1.5239993331551756
v -1.5616518113062399 2.665625806516051 1.10000001
v -1.67695229 2.67615797 1.10000001
v -1.6769522877129481 2.676157995037418 3.3306690738754696e-16
v -3.058019841341209 2.8023121049073687 1.1102230246251565e-15
v -2.4548610682024306 2.74721631597066 1.5239993331551756
v -1.67695229 2.67615797 1.10000001
v -3.048611760739696 2.801452692293901 1.225401855438073
v -1.67695229 2.67615797 1.10000001
v -3.058019841341209 2.8023121049073687 1.1102230246251565e-15
v -3.048611760739696 2.801452692293901 1.225401855438073
v -1.1136258966886206 2.6247006807467517 2.7680000400000004
v -1.5616518113062399 2.665625806516051 1.10000001
v -2.4548610682024306 2.74721631597066 1.5239993331551756
v -2.4548610682024306 2.74721631597066 1.5239993331551756
v -2.369936915596686 2.739458860311382 2.7680000400000004
v -1.1136258966886206 2.6247006807467517 2.7680000400000004
v -1.5616518113062399 2.665625806516051 1.10000001
v -1.1136258966886206 2.6247006807467517 2.7680000400000004
v -1.2262316465218297 2.6349867315413023 1.1000000100000003
v -2.4548610682024306 2.74721631597066 1.5239993331551756
v -3.048611760739696 2.801452692293901 1.225401855438073
v -3.7173794288417503 2.862541507121819 1.535548631564843
v -3.7173794288417503 2.862541507121819 1.535548631564843
v -3.8092720850689124 2.8709354464003476 2.7680000400000004
v -2.369936915596686 2.739458860311382 2.7680000400000004
v -2.369936915596686 2.739458860311382 2.7680000400000004
v -2.4548610682024306 2.74721631597066 1.5239993331551756
v -3.7173794288417503 2.862541507121819 1.535548631564843
v -4.416042843901082 2.9263611767676765 1.1000000100000003
v -3.048611760739696 2.801452692293901 1.225401855438073
v -3.058019841341209 2.8023121049073687 1.1102230246251565e-15
v -3.058019841341209 2.8023121049073687 1.1102230246251565e-15
v -4.416042841614031 2.9263612018050944 1.9984014443252818e-15
v -4.416042843901082 2.9263611767676765 1.1000000100000003
v -4.416042843901082 2.9263611767676765 1.1000000100000003
v -4.520336754813854 2.9358879413792196 1.1000000100000005
v -3.7173794288417503 2.862541507121819 1.535548631564843
v -3.048611760739696 2.801452692293901 1.225401855438073
v -4.416042843901082 2.9263611767676765 1.1000000100000003
v -3.7173794288417503 2.862541507121819 1.535548631564843
v -5.079567171403798 2.9869710056079635 2.76800004
v -4.520336754813854 2.9358879413792196 1.1000000100000005
v -4.987767013069651 2.9785855255789375 1.1000000100000003
v -3.7173794288417503 2.862541507121819 1.535548631564843
v -5.079567171403798 2.9869710056079635 2.76800004
v -3.8092720850689124 2.8709354464003476 2.7680000400000004
v -5.079567171403798 2.9869710056079635 2.76800004
v -3.7173794288417503 2.862541507121819 1.535548631564843
v -4.520336754813854 2.9358879413792196 1.1000000100000005
v -5.079567171403798 2.9869710056079635 2.76800004
v -6.251262226531997 3.0939999479658304 1.1000000100000007
v -6.251262229999999 3.09399991 2.76800004
v -6.251262226531997 3.0939999479658304 1.1000000100000007
v -5.079567171403798 2.9869710056079635 2.76800004
v -4.987767013069651 2.9785855255789375 1.1000000100000003
v -0.00026214 1.0696839065717174 1.539668082377181
v -0.00026214 1.5980490700000003 1.0863058304139177
v -0.00026214 1.59804907 1.1000000100000003
v -0.00026214 1.59804907 1.1000000100000003
v -0.00026214 2.52300007 1.10000001
v -0.00026214 2.52300007 2.76800004
v -0.00026214 2.52300007 2.76800004
v -0.00026214 1.2571023297950352 2.76800004
v -0.00026214 1.0696839065717174 1.539668082377181
v -0.00026214 1.0696839065717174 1.539668082377181
v -0.00026214 1.59804907 1.1000000100000003
v -0.00026214 2.52300007 2.76800004
v -0.00026214 1.0696839065717174 1.539668082377181
v -0.00026214 -0.011999999999999927 1.2818573652773009
v -0.00026214 -0.01200000000000001 0.0
v -0.00026214 -0.01200000000000001 0.0
v -0.00026214 1.59804907 0.0
v -0.00026214 1.5980490700000003 1.0863058304139177
v -0.00026214 1.5980490700000003 1.0863058304139177
v -0.00026214 1.0696839065717174 1.539668082377181
v -0.00026214 -0.01200000000000001 0.0
v -0.00026214 -0.012000000000000354 2.19499993
v -0.00026214 -0.011999999999999927 1.2818573652773009
v -0.00026214 1.0696839065717174 1.539668082377181
v -0.00026214 -0.012000000000000354 2.19499993
v -0.00026214 1.2571023297950352 2.76800004
v -0.00026214 -0.48203658773957875 2.7680000399999996
v -0.00026214 -0.48203658773957875 2.7680000399999996
v -0.00026214 -0.5413187349502969 2.1942827425474385
v -0.00026214 -0.012000000000000354 2.19499993
v -0.00026214 1.2571023297950352 2.76800004
v -0.00026214 -0.012000000000000354 2.19499993
v -0.00026214 1.0696839065717174 1.539668082377181
v -0.00026214 -2.1555419497465436 1.8185050687318545
v -0.00026214 -2.787629394549576 1.1000000099999998
v -0.00026214 -1.9833576199999996 1.10000001
v -0.00026214 -1.9833576199999996 1.10000001
v -0.00026214 -1.9833576199999998 0.0
v -0.00026214 -1.4879999699999997 0.0
v -0.00026214 -1.9833576199999996 1.10000001
v -0.00026214 -1.4879999699999995 1.6252264010648863
v -0.00026214 -2.1555419497465436 1.8185050687318545
v -0.00026214 -1.4879999699999995 1.6252264010648863
v -0.00026214 -1.9833576199999996 1.10000001
v -0.00026214 -1.4879999699999997 0.0
v -0.00026214 -2.1555419497465436 1.8185050687318545
v -0.00026214 -1.4879999699999995 1.6252264010648863
v -0.00026214 -1.48799997 2.19300006
v -0.00026214 -1.48799997 2.19300006
v -0.00026214 -0.5413187349502969 2.1942827425474385
v -0.00026214 -0.48203658773957875 2.7680000399999996
v -0.00026214 -1.48799997 2.19300006
v -0.00026214 -2.4073537434838155 2.7680000399999996
v -0.00026214 -2.1555419497465436 1.8185050687318545
v -0.00026214 -2.4073537434838155 2.7680000399999996
v -0.00026214 -1.48799997 2.19300006
v -0.00026214 -0.48203658773957875 2.7680000399999996
v -0.00026214 -2.1555419497465436 1.8185050687318545
v -0.00026214 -2.4073537434838155 2.7680000399999996
v -0.00026214 -3.64799981 2.7680000399999996
v -0.00026214 -3.64799981 2.7680000399999996
v -0.00026214 -3.64799981 1.1000000099999998
v -0.00026214 -2.787629394549576 1.1000000099999998
v -0.00026214 -2.787629394549576 1.1000000099999998
v -0.00026214 -2.1555419497465436 1.8185050687318545
v -0.00026214 -3.64799981 2.7680000399999996
v 4.812795550256191 2.021384083556447 1.3305389000010783
v 6.10173802 1.90299993 1.5985598889776975
v 6.101738020000001 1.90299993 0.04999999999999982
v 6.101738020000001 1.90299993 0.04999999999999982
v 4.751105506433938 2.02705006461626 0.04999999999999982
v 4.812795550256191 2.021384083556447 1.3305389000010783
v 4.812795550256191 2.021384083556447 1.3305389000010783
v 4.246438631114619 2.0734016763173857 1.7997768787468602
v 4.240103512107813 2.073983531379892 2.7360000500000003
v 4.812795550256191 2.021384083556447 1.3305389000010783
v 6.10173802 1.90299993 2.73600005
v 6.10173802 1.90299993 1.5985598889776975
v 6.10173802 1.90299993 2.73600005
v 4.812795550256191 2.021384083556447 1.3305389000010783
v 4.240103512107813 2.073983531379892 2.7360000500000003
v 2.3590773884081955 2.2467481742549182 1.9478667365250644
v 0.5707378400000005 2.41099993 1.855755259730757
v 0.5707378400000007 2.41099993 2.7360000500000003
v 0.5707378400000007 2.41099993 2.7360000500000003
v 2.4543552090778125 2.2379972917155935 2.7360000500000003
v 2.3590773884081955 2.2467481742549182 1.9478667365250644
v 3.3896883263083764 2.1520907272444405 1.2569545204461539
v 4.246438631114619 2.0734016763173857 1.7997768787468602
v 4.812795550256191 2.021384083556447 1.3305389000010783
v 3.3896883263083764 2.1520907272444405 1.2569545204461539
v 4.751105506433938 2.02705006461626 0.04999999999999982
v 3.4709618354293994 2.1446260840895244 0.04999999999999982
v 4.751105506433938 2.02705006461626 0.04999999999999982
v 3.3896883263083764 2.1520907272444405 1.2569545204461539
v 4.812795550256191 2.021384083556447 1.3305389000010783
v 1.961197722870793 2.2832918125689927 0.8423122113321525
v 2.4601159467326066 2.237468191257557 1.6536486497805285
v 3.3896883263083764 2.1520907272444405 1.2569545204461539
v 1.961197722870793 2.2832918125689927 0.8423122113321525
v 3.4709618354293994 2.1446260840895244 0.04999999999999982
v 2.051981503250712 2.2749536894570532 0.04999999999999982
v 3.4709618354293994 2.1446260840895244 0.04999999999999982
v 1.961197722870793 2.2832918125689927 0.8423122113321525
v 3.3896883263083764 2.1520907272444405 1.2569545204461539
v 2.3590773884081955 2.2467481742549182 1.9478667365250644
v 3.3896883263083764 2.1520907272444405 1.2569545204461539
v 2.4601159467326066 2.237468191257557 1.6536486497805285
v 3.3896883263083764 2.1520907272444405 1.2569545204461539
v 2.3590773884081955 2.2467481742549182 1.9478667365250644
v 2.4543552090778125 2.2379972917155935 2.7360000500000003
v 3.3896883263083764 2.1520907272444405 1.2569545204461539
v 4.240103512107813 2.073983531379892 2.7360000500000003
v 4.246438631114619 2.0734016763173857 1.7997768787468602
v 4.240103512107813 2.073983531379892 2.7360000500000003
v 3.3896883263083764 2.1520907272444405 1.2569545204461539
v 2.4543552090778125 2.2379972917155935 2.7360000500000003
v 1.961197722870793 2.2832918125689927 0.8423122113321525
v 2.051981503250712 2.2749536894570532 0.04999999999999982
v 0.5707378400000004 2.41099993 0.05000000000000015
v 0.5707378400000004 2.41099993 0.05000000000000015
v 0.5707378400000007 2.41099993 1.2600539971934768
v 1.961197722870793 2.2832918125689927 0.8423122113321525
v 0.5707378400000005 2.41099993 1.855755259730757
v 1.961197722870793 2.2832918125689927 0.8423122113321525
v 0.5707378400000007 2.41099993 1.2600539971934768
v 1.961197722870793 2.2832918125689927 0.8423122113321525
v 0.5707378400000005 2.41099993 1.855755259730757
v 2.3590773884081955 2.2467481742549182 1.9478667365250644
v 1.961197722870793 2.2832918125689927 0.8423122113321525
v 2.3590773884081955 2.2467481742549182 1.9478667365250644
v 2.4601159467326066 2.237468191257557 1.6536486497805285
v 6.10173802 1.90299993 2.73600005
v 6.10173802 0.6379216964747447 1.330310849248526
v 6.10173802 1.90299993 1.5464178424385653
v 6.10173802 0.6379216964747447 1.330310849248526
v 6.10173802 1.90299993 2.73600005
v 6.10173802 0.21005940487621158 2.7360000500000003
v 6.10173802 0.6379216964747447 1.330310849248526
v 6.10173802 0.21005940487621158 2.7360000500000003
v 6.10173802 0.20795943247609264 1.6819995132096375
v 6.10173802 0.6379216964747447 1.330310849248526
v 6.10173802 0.20795943247609264 1.6819995132096375
v 6.10173802 -0.7310366950651171 1.257641029423429
v 6.10173802 -0.7310366950651171 1.257641029423429
v 6.10173802 -0.7141605929114161 0.050000000000000044
v 6.10173802 0.6042905870962343 0.04999999999999982
v 6.10173802 0.6042905870962343 0.04999999999999982
v 6.10173802 0.6379216964747447 1.330310849248526
v 6.10173802 -0.7310366950651171 1.257641029423429
v 6.10173802 0.6379216964747447 1.330310849248526
v 6.10173802 0.6042905870962343 0.04999999999999982
v 6.10173802 1.9029999300000002 0.04999999999999982
v 6.10173802 1.9029999300000002 0.04999999999999982
v 6.10173802 1.90299993 1.5464178424385653
v 6.10173802 0.6379216964747447 1.330310849248526
v 6.10173802 0.21005940487621158 2.7360000500000003
v 6.10173802 -0.7310366950651171 1.257641029423429
v 6.10173802 0.20795943247609264 1.6819995132096375
v 6.10173802 -0.7310366950651171 1.257641029423429
v 6.10173802 0.21005940487621158 2.7360000500000003
v 6.10173802 -1.4366109033453895 2.7360000500000003
v 6.10173802 -0.7310366950651171 1.257641029423429
v 6.10173802 -1.4366109033453895 2.7360000500000003
v 6.10173802 -1.4259026478901773 1.6658058857157543
v 6.10173802 -0.7310366950651171 1.257641029423429
v 6.10173802 -1.4259026478901773 1.6658058857157543
v 6.10173802 -2.122562659071151 1.2374540301812016
v 6.10173802 -0.7310366950651171 1.257641029423429
v 6.10173802 -2.11853137497601 0.05000000000000049
v 6.10173802 -0.7141605929114161 0.050000000000000044
v 6.10173802 -2.11853137497601 0.05000000000000049
v 6.10173802 -0.7310366950651171 1.257641029423429
v 6.10173802 -2.122562659071151 1.2374540301812016
v 6.10173802 -3.018587293859651 2.7360000500000003
v 6.10173802 -2.122562659071151 1.2374540301812016
v 6.10173802 -1.4259026478901773 1.6658058857157543
v 6.10173802 -1.4259026478901773 1.6658058857157543
v 6.10173802 -1.4366109033453895 2.7360000500000003
v 6.10173802 -3.018587293859651 2.7360000500000003
v 6.10173802 -2.122562659071151 1.2374540301812016
v 6.10173802 -3.018587293859651 2.7360000500000003
v 6.10173802 -3.022406833327932 1.639322281851153
v 6.10173802 -3.018587293859651 2.7360000500000003
v 6.10173802 -3.5129985953590745 1.2773395955466493
v 6.10173802 -3.022406833327932 1.639322281851153
v 6.10173802 -3.5129985953590745 1.2773395955466493
v 6.10173802 -3.018587293859651 2.7360000500000003
v 6.10173802 -4.601248221722122 2.736000050000001
v 6.10173802 -3.5129985953590745 1.2773395955466493
v 6.10173802 -4.601248221722122 2.736000050000001
v 6.10173802 -4.587791670271032 1.585803928076567
v 6.10173802 -2.122562659071151 1.2374540301812016
v 6.10173802 -3.022406833327932 1.639322281851153
v 6.10173802 -3.5129985953590745 1.2773395955466493
v 6.10173802 -2.122562659071151 1.2374540301812016
v 6.10173802 -3.506855862803169 0.05000000000000049
v 6.10173802 -2.11853137497601 0.05000000000000049
v 6.10173802 -3.506855862803169 0.05000000000000049
v 6.10173802 -2.122562659071151 1.2374540301812016
v 6.10173802 -3.5129985953590745 1.2773395955466493
v 6.10173802 -4.864160984058682 1.3391885110997839
v 6.10173802 -4.587791670271032 1.585803928076567
v 6.10173802 -4.601248221722122 2.736000050000001
v 6.10173802 -4.864160984058682 1.3391885110997839
v 6.10173802 -6.15999997 2.736000050000001
v 6.10173802 -6.15999997 1.4701137856325133
v 6.10173802 -6.15999997 2.736000050000001
v 6.10173802 -4.864160984058682 1.3391885110997839
v 6.10173802 -4.601248221722122 2.736000050000001
v 6.10173802 -4.864160984058682 1.3391885110997839
v 6.10173802 -6.15999997 1.4701137856325133
v 6.10173802 -6.159999969999999 0.05000000000000103
v 6.10173802 -6.159999969999999 0.05000000000000103
v 6.10173802 -4.842736872560811 0.05000000000000082
v 6.10173802 -4.864160984058682 1.3391885110997839
v 6.10173802 -3.5129985953590745 1.2773395955466493
v 6.10173802 -4.587791670271032 1.585803928076567
v 6.10173802 -4.864160984058682 1.3391885110997839
v 6.10173802 -3.5129985953590745 1.2773395955466493
v 6.10173802 -4.842736872560811 0.05000000000000082
v 6.10173802 -3.506855862803169 0.05000000000000049
v 6.10173802 -4.842736872560811 0.05000000000000082
v 6.10173802 -3.5129985953590745 1.2773395955466493
v 6.10173802 -4.864160984058682 1.3391885110997839
v 1.7965677414716954 -6.15999997 1.4538581972224653
v 1.7801033653938325 -6.15999997 2.7360000500000003
v 0.57073784 -6.15999997 2.73600005
v 0.57073784 -6.15999997 2.73600005
v 0.5707378399999999 -6.15999997 1.2831785776843083
v 1.7965677414716954 -6.15999997 1.4538581972224653
v 1.7965677414716954 -6.15999997 1.4538581972224653
v 2.0807385758148227 -6.15999997 1.2280184833666654
v 3.119654382330768 -6.15999997 1.5488583651764916
v 3.119654382330768 -6.15999997 1.5488583651764916
v 3.1101509155430285 -6.15999997 2.73600005
v 1.7801033653938325 -6.15999997 2.7360000500000003
v 1.7801033653938325 -6.15999997 2.7360000500000003
v 1.7965677414716954 -6.15999997 1.4538581972224653
v 3.119654382330768 -6.15999997 1.5488583651764916
v 0.5707378399999996 -6.15999997 0.04999999999999938
v 1.7965677414716954 -6.15999997 1.4538581972224653
v 0.5707378399999999 -6.15999997 1.2831785776843083
v 1.7965677414716954 -6.15999997 1.4538581972224653
v 0.5707378399999996 -6.15999997 0.04999999999999938
v 2.09784695900627 -6.15999997 0.04999999999999938
v 1.7965677414716954 -6.15999997 1.4538581972224653
v 2.09784695900627 -6.15999997 0.04999999999999938
v 2.0807385758148227 -6.15999997 1.2280184833666654
v 3.51182554110682 -6.15999997 1.2640438990288112
v 3.119654382330768 -6.15999997 1.5488583651764916
v 2.0807385758148227 -6.15999997 1.2280184833666654
v 3.51182554110682 -6.15999997 1.2640438990288112
v 2.09784695900627 -6.15999997 0.04999999999999938
v 3.531758972332519 -6.15999997 0.04999999999999982
v 2.09784695900627 -6.15999997 0.04999999999999938
v 3.51182554110682 -6.15999997 1.2640438990288112
v 2.0807385758148227 -6.15999997 1.2280184833666654
v 3.119654382330768 -6.15999997 1.5488583651764916
v 3.51182554110682 -6.15999997 1.2640438990288112
v 4.568936097449556 -6.15999997 1.5819345060764205
v 4.568936097449556 -6.15999997 1.5819345060764205
v 4.565444023650537 -6.15999997 2.7360000500000003
v 3.1101509155430285 -6.15999997 2.73600005
v 3.1101509155430285 -6.15999997 2.73600005
v 3.119654382330768 -6.15999997 1.5488583651764916
v 4.568936097449556 -6.15999997 1.5819345060764205
v 4.85443018710887 -6.15999997 1.3417103886749326
v 4.568936097449556 -6.15999997 1.5819345060764205
v 3.51182554110682 -6.15999997 1.2640438990288112
v 3.51182554110682 -6.15999997 1.2640438990288112
v 3.531758972332519 -6.15999997 0.04999999999999982
v 4.840148885364691 -6.15999997 0.04999999999999977
v 4.840148885364691 -6.15999997 0.04999999999999977
v 4.85443018710887 -6.15999997 1.3417103886749326
v 3.51182554110682 -6.15999997 1.2640438990288112
v 6.101738019999999 -6.15999997 2.7360000500000003
v 4.85443018710887 -6.15999997 1.3417103886749326
v 6.101738019999999 -6.15999997 1.4932508034180523
v 4.85443018710887 -6.15999997 1.3417103886749326
v 6.101738019999999 -6.15999997 2.7360000500000003
v 4.565444023650537 -6.15999997 2.7360000500000003
v 4.85443018710887 -6.15999997 1.3417103886749326
v 4.565444023650537 -6.15999997 2.7360000500000003
v 4.568936097449556 -6.15999997 1.5819345060764205
v 4.85443018710887 -6.15999997 1.3417103886749326
v 4.840148885364691 -6.15999997 0.04999999999999977
v 6.101738019999999 -6.15999997 0.049999999999999996
v 6.101738019999999 -6.15999997 0.049999999999999996
v 6.101738019999999 -6.15999997 1.4932508034180523
v 4.85443018710887 -6.15999997 1.3417103886749326
v -4.41604285 2.92636111 1.10000001
v -4.51011812 1.98546776 1.10000001
v -6.251262230000001 2.15584922 1.10000001
v -6.251262230000001 2.15584922 1.10000001
v -6.25126223 3.09399991 1.10000001
v -4.41604285 2.92636111 1.10000001
v -4.51011812 1.98546776 1.0000000100000002
v -4.41604285 2.92636111 0.0
v -4.51011812 1.9854677599999997 -5.551115123125783e-17
v -4.51011812 1.98546776 1.0000000100000002
v -4.51011812 1.9854677599999997 1.1000000100000003
v -4.41604285 2.92636111 1.1000000100000003
v -4.41604285 2.92636111 0.0
v -4.51011812 1.98546776 1.0000000100000002
v -4.41604285 2.92636111 1.1000000100000003
v -4.51011812 1.98546776 1.00000001
v -4.51011812 1.98546776 -1.1102230246251565e-16
v -6.25126223 2.15584922 -1.6623471656375042e-16
v -4.51011812 1.98546776 1.00000001
v -6.25126223 2.15584922 1.10000001
v -4.51011812 1.98546776 1.10000001
v -6.25126223 2.15584922 1.10000001
v -4.51011812 1.98546776 1.00000001
v -6.25126223 2.15584922 -1.6623471656375042e-16
v -4.52168292 -3.05310105 1.10000001
v -6.25126223 -3.05310105 1.10000001
v -6.25126223 -3.05310105 -1.1102230246251565e-16
v -6.25126223 -3.05310105 -1.1102230246251565e-16
v -4.52168292 -3.05310105 -8.177322744583182e-17
v -4.52168292 -3.05310105 1.10000001
v -4.52168292 -3.0531010499999995 1.10000001
v -4.52168292 -3.64799981 1.10000001
v -6.251262230000001 -3.64799981 1.10000001
v -6.251262230000001 -3.64799981 1.10000001
v -6.25126223 -3.05310105 1.10000001
v -4.52168292 -3.0531010499999995 1.10000001
v -4.52168292 -3.05310105 1.1000000100000003
v -4.52168292 -3.05310105 0.0
v -4.52168292 -3.64799981 0.0
v -4.52168292 -3.64799981 0.0
v -4.52168292 -3.64799981 1.1000000100000003
v -4.52168292 -3.05310105 1.1000000100000003
v -0.00026213999999985527 2.52300007 1.10000001
v -0.00026214 1.59804907 1.10000001
v -1.7412999100000002 1.7145899199999999 1.10000001
v -1.7412999100000002 1.7145899199999999 1.10000001
v -1.6769522899999998 2.67615797 1.10000001
v -0.00026213999999985527 2.52300007 1.10000001
v -1.7412999100000004 1.71458992 1.00000001
v -0.00026214 1.59804907 1.10000001
v -0.0002621399999999663 1.59804907 -2.220446049250313e-16
v -0.0002621399999999663 1.59804907 -2.220446049250313e-16
v -1.7412999100000004 1.71458992 -2.0269728106123305e-16
v -1.7412999100000004 1.71458992 1.00000001
v -0.00026214 1.59804907 1.10000001
v -1.7412999100000004 1.71458992 1.00000001
v -1.7412999100000004 1.71458992 1.10000001
v -1.7412999100000002 1.7145899199999999 1.00000001
v -1.67695229 2.67615797 1.10000001
v -1.7412999100000002 1.71458992 1.10000001
v -1.6769522899999998 2.6761579700000007 -1.6653345369377348e-16
v -1.7412999100000002 1.7145899199999999 1.00000001
v -1.74129991 1.71458992 -4.567339452123481e-17
v -1.7412999100000002 1.7145899199999999 1.00000001
v -1.6769522899999998 2.6761579700000007 -1.6653345369377348e-16
v -1.67695229 2.67615797 1.10000001
v -5.44190039 1.4788138000000002 1.00000001
v -5.44190039 1.4788138 0.0
v -5.44190039 -0.09118618000000017 -1.1102230246251565e-16
v -5.44190039 -0.09118618000000017 -1.1102230246251565e-16
v -5.44190039 -0.09118618000000006 1.0000000100000002
v -5.44190039 1.4788138000000002 1.00000001
v -3.55628642 2.55879575 1.00000001
v -2.39004694 2.52444417 0.0
v -3.55628642 2.55879575 -1.1102230246251565e-16
v -2.39004694 2.52444417 0.0
v -3.55628642 2.55879575 1.00000001
v -2.39004694 2.52444417 1.0000000100000002
v -1.74129991 1.7145899199999999 -3.0490106068438855e-16
v -2.39004694 2.52444417 1.00000001
v -1.74129991 1.7145899199999999 1.00000001
v -2.39004694 2.52444417 1.00000001
v -1.74129991 1.7145899199999999 -3.0490106068438855e-16
v -2.39004694 2.52444417 -3.3306690738754696e-16
v -5.44190039 1.4788138 1.4343640221042545e-17
v -4.51011812 1.98546776 1.00000001
v -4.51011812 1.9854677599999997 0.0
v -4.51011812 1.98546776 1.00000001
v -5.44190039 1.4788138 1.4343640221042545e-17
v -5.44190039 1.4788138000000002 1.00000001
v -2.80271478 -3.64799981 -7.01321664137976e-18
v -2.80271478 -2.79835749 1.10000001
v -2.80271478 -3.64799981 1.10000001
v -2.80271478 -2.79835749 1.10000001
v -2.80271478 -3.64799981 -7.01321664137976e-18
v -2.80271478 -2.79835749 -1.6653345369377348e-16
v -1.8556326138772195 -2.79835749 3.3306690738754696e-16
v -2.80271478 -2.79835749 1.10000001
v -2.8027147800000005 -2.79835749 0.0
v -2.80271478 -2.79835749 1.10000001
v -1.8556326138772195 -2.79835749 3.3306690738754696e-16
v -1.8469055868785038 -2.79835749 1.10000001
v -1.8469055868785038 -2.79835749 1.10000001
v -0.9127148300000004 -2.79835749 4.070404603785277e-16
v -0.9127148300000003 -2.79835749 1.1000000100000005
v -0.9127148300000004 -2.79835749 4.070404603785277e-16
v -1.8469055868785038 -2.79835749 1.10000001
v -1.8556326138772195 -2.79835749 3.3306690738754696e-16
v -0.9127148299999999 -2.79835749 1.10000001
v -0.9127148299999999 -1.98335762 1.10000001
v -0.0002621399999999108 -1.9833576199999998 1.10000001
v -0.9127148299999999 -2.79835749 1.10000001
v -0.00026214 -3.64799981 1.10000001
v -1.149827540046178 -3.64799981 1.10000001
v -1.149827540046178 -3.64799981 1.10000001
v -1.3562713159117084 -2.79835749 1.10000001
v -0.9127148299999999 -2.79835749 1.10000001
v -0.00026214 -3.64799981 1.10000001
v -0.9127148299999999 -2.79835749 1.10000001
v -0.0002621399999999108 -1.9833576199999998 1.10000001
v -1.3562713159117084 -2.79835749 1.10000001
v -2.80271478 -3.64799981 1.10000001
v -2.80271478 -2.79835749 1.10000001
v -2.80271478 -3.64799981 1.10000001
v -1.3562713159117084 -2.79835749 1.10000001
v -1.149827540046178 -3.64799981 1.10000001
v -0.91271483 -1.98335762 -2.220446049250313e-16
v -0.91271483 -1.98335762 1.10000001
v -0.91271483 -2.79835749 1.10000001
v -0.91271483 -2.79835749 1.10000001
v -0.91271483 -2.79835749 -2.4019741118320573e-16
v -0.91271483 -1.98335762 -2.220446049250313e-16
v -0.00026214000000016367 -1.98335762 6.652804067786237e-17
v -0.91271483 -1.98335762 1.10000001
v -0.9127148300000001 -1.98335762 -5.551115123125783e-17
v -0.91271483 -1.98335762 1.10000001
v -0.00026214000000016367 -1.98335762 6.652804067786237e-17
v -0.0002621399999999108 -1.98335762 1.1000000100000003
v -0.6577918828472582 -1.98335762 0.0
v -0.8594630959538416 -0.16799826545767016 0.0
v -0.0002621400000000773 -0.1086819674714401 0.0
v -0.0002621400000000773 -0.1086819674714401 0.0
v -0.00026214 -1.98335762 0.0
v -0.6577918828472582 -1.98335762 0.0
v -0.8594630959538416 -0.16799826545767016 0.0
v -0.6577918828472582 -1.98335762 0.0
v -1.3737261148471875 -1.2703393068936897 0.0
v -0.0002621400000001328 1.5980490700000007 0.0
v -1.4493739541709991 0.3347226422224021 0.0
v -1.246026406716212 1.6814375116779399 0.0
v -1.4493739541709991 0.3347226422224021 0.0
v -0.0002621400000001328 1.5980490700000007 0.0
v -0.0002621400000001328 -0.011999999999999567 0.0
v -0.0002621400000001328 -0.011999999999999567 0.0
v -0.0002621400000000773 -0.1086819674714401 0.0
v -0.8594630959538416 -0.16799826545767016 0.0
v -1.4493739541709991 0.3347226422224021 0.0
v -0.0002621400000001328 -0.011999999999999567 0.0
v -0.8594630959538416 -0.16799826545767016 0.0
v -3.0566117001934012 0.9758365713388737 0.0
v -3.845850392039899 2.3847449923390287 0.0
v -3.55628642 2.55879575 0.0
v -3.0566117001934012 0.9758365713388737 0.0
v -2.39004694 2.524444170000001 0.0
v -1.922004556129447 1.9401700288795412 0.0
v -2.39004694 2.524444170000001 0.0
v -3.0566117001934012 0.9758365713388737 0.0
v -3.55628642 2.55879575 0.0
v -2.311400360593489 0.14807955695123987 0.0
v -1.3737261148471875 -1.2703393068936897 0.0
v -2.067154083985866 -1.3443306403614579 0.0
v -2.067154083985866 -1.3443306403614579 0.0
v -2.546176385398396 -0.9737680925803338 0.0
v -2.311400360593489 0.14807955695123987 0.0
v -1.3737261148471875 -1.2703393068936897 0.0
v -1.4493739541709991 0.3347226422224021 0.0
v -0.8594630959538416 -0.16799826545767016 0.0
v -1.4493739541709991 0.3347226422224021 0.0
v -1.3737261148471875 -1.2703393068936897 0.0
v -2.311400360593489 0.14807955695123987 0.0
v -0.9127148299999999 -1.9833576200000003 0.0
v -1.3737261148471875 -1.2703393068936897 0.0
v -0.6577918828472582 -1.98335762 0.0
v -0.9127148299999999 -1.9833576200000003 0.0
v -0.9127148299999996 -2.79835749 0.0
v -2.346515057470866 -2.79835749 0.0
v -1.3737261148471875 -1.2703393068936897 0.0
v -0.9127148299999999 -1.9833576200000003 0.0
v -2.067154083985866 -1.3443306403614579 0.0
v -0.9127148299999999 -1.9833576200000003 0.0
v -2.346515057470866 -2.79835749 0.0
v -2.067154083985866 -1.3443306403614579 0.0
v -2.546176385398396 -0.9737680925803338 0.0
v -3.32456155800705 -1.109237917391878 0.0
v -3.848380393663105 -0.6582356232679856 0.0
v -2.311400360593489 0.14807955695123987 0.0
v -3.6320790129707055 0.5081537629791568 0.0
v -3.089085214895017 0.8128548680203833 0.0
v -3.848380393663105 -0.6582356232679856 0.0
v -2.311400360593489 0.14807955695123987 0.0
v -2.546176385398396 -0.9737680925803338 0.0
v -2.311400360593489 0.14807955695123987 0.0
v -3.848380393663105 -0.6582356232679856 0.0
v -3.6320790129707055 0.5081537629791568 0.0
v -2.067154083985866 -1.3443306403614579 0.0
v -2.346515057470866 -2.79835749 0.0
v -2.8027147799999996 -2.79835749 0.0
v -2.8027147799999996 -2.79835749 0.0
v -2.8027147799999996 -2.804100798545167 0.0
v -3.6196677777320243 -2.1415907714603852 0.0
v -2.067154083985866 -1.3443306403614579 0.0
v -3.32456155800705 -1.109237917391878 0.0
v -2.546176385398396 -0.9737680925803338 0.0
v -3.6196677777320243 -2.1415907714603852 0.0
v -2.067154083985866 -1.3443306403614579 0.0
v -2.8027147799999996 -2.79835749 0.0
v -3.32456155800705 -1.109237917391878 0.0
v -2.067154083985866 -1.3443306403614579 0.0
v -3.6196677777320243 -2.1415907714603852 0.0
v -2.311400360593489 0.14807955695123987 0.0
v -3.089085214895017 0.8128548680203833 0.0
v -3.0566117001934012 0.9758365713388737 0.0
v -3.0566117001934012 0.9758365713388737 0.0
v -1.922004556129447 1.9401700288795412 0.0
v -1.74129991 1.7145899200000008 0.0
v -1.74129991 1.7145899200000008 0.0
v -1.246026406716212 1.6814375116779399 0.0
v -1.4493739541709991 0.3347226422224021 0.0
v -1.74129991 1.7145899200000008 0.0
v -2.311400360593489 0.14807955695123987 0.0
v -3.0566117001934012 0.9758365713388737 0.0
v -2.311400360593489 0.14807955695123987 0.0
v -1.74129991 1.7145899200000008 0.0
v -1.4493739541709991 0.3347226422224021 0.0
v -2.8027147799999996 -3.64799981 0.0
v -4.521682919999999 -3.05310105 0.0
v -2.8027147799999996 -2.804100798545167 0.0
v -4.521682919999999 -3.05310105 0.0
v -2.8027147799999996 -3.64799981 0.0
v -4.521682919999999 -3.64799981 0.0
v -4.521682919999999 -3.05310105 0.0
v -4.673306043187542 -3.0531010499999995 0.0
v -4.459863081000538 -2.387460939854753 0.0
v -2.8027147799999996 -2.804100798545167 0.0
v -4.521682919999999 -3.05310105 0.0
v -3.6196677777320243 -2.1415907714603852 0.0
v -3.6196677777320243 -2.1415907714603852 0.0
v -4.521682919999999 -3.05310105 0.0
v -4.459863081000538 -2.387460939854753 0.0
v -3.848380393663105 -0.6582356232679856 0.0
v -4.760219988706844 -0.800742897276103 0.0
v -5.093168214041404 -0.47181924826425004 0.0
v -3.6320790129707055 0.5081537629791568 0.0
v -4.954080307229439 0.7271169613495441 0.0
v -4.763302071794507 0.8736019475816459 0.0
v -5.093168214041404 -0.47181924826425004 0.0
v -3.6320790129707055 0.5081537629791568 0.0
v -3.848380393663105 -0.6582356232679856 0.0
v -3.6320790129707055 0.5081537629791568 0.0
v -5.093168214041404 -0.47181924826425004 0.0
v -4.954080307229439 0.7271169613495441 0.0
v -4.964384057400415 -1.7449759111800753 0.0
v -3.6196677777320243 -2.1415907714603852 0.0
v -4.459863081000538 -2.387460939854753 0.0
v -3.848380393663105 -0.6582356232679856 0.0
v -4.964384057400415 -1.7449759111800753 0.0
v -4.760219988706844 -0.800742897276103 0.0
v -3.6196677777320243 -2.1415907714603852 0.0
v -3.848380393663105 -0.6582356232679856 0.0
v -3.32456155800705 -1.109237917391878 0.0
v -4.964384057400415 -1.7449759111800753 0.0
v -3.848380393663105 -0.6582356232679856 0.0
v -3.6196677777320243 -2.1415907714603852 0.0
v -4.510118119999999 1.9854677600000006 0.0
v -3.6320790129707055 0.5081537629791568 0.0
v -4.763302071794507 0.8736019475816459 0.0
v -4.763302071794507 0.8736019475816459 0.0
v -4.695868710592475 2.0036445764043638 0.0
v -4.510118119999999 1.9854677600000006 0.0
v -4.510118119999999 1.9854677600000006 0.0
v -3.845850392039899 2.3847449923390287 0.0
v -3.0566117001934012 0.9758365713388737 0.0
v -3.6320790129707055 0.5081537629791568 0.0
v -3.0566117001934012 0.9758365713388737 0.0
v -3.089085214895017 0.8128548680203833 0.0
v -3.6320790129707055 0.5081537629791568 0.0
v -4.510118119999999 1.9854677600000006 0.0
v -3.0566117001934012 0.9758365713388737 0.0
v -4.695868710592475 2.0036445764043638 0.0
v -4.954080307229439 0.7271169613495441 0.0
v -6.251262229999999 0.890864882339832 0.0
v -6.251262229999999 0.890864882339832 0.0
v -6.251262229999999 2.155849220000001 0.0
v -4.695868710592475 2.0036445764043638 0.0
v -4.954080307229439 0.7271169613495441 0.0
v -4.695868710592475 2.0036445764043638 0.0
v -4.763302071794507 0.8736019475816459 0.0
v -4.964384057400415 -1.7449759111800753 0.0
v -4.459863081000538 -2.387460939854753 0.0
v -4.673306043187542 -3.0531010499999995 0.0
v -4.964384057400415 -1.7449759111800753 0.0
v -6.251262229999999 -3.0531010499999995 0.0
v -6.251262229999999 -1.907820353668642 0.0
v -6.251262229999999 -3.0531010499999995 0.0
v -4.964384057400415 -1.7449759111800753 0.0
v -4.673306043187542 -3.0531010499999995 0.0
v -6.251262229999999 0.890864882339832 0.0
v -5.093168214041404 -0.47181924826425004 0.0
v -6.251262229999999 -0.5368175409301941 0.0
v -5.093168214041404 -0.47181924826425004 0.0
v -6.251262229999999 0.890864882339832 0.0
v -4.954080307229439 0.7271169613495441 0.0
v -5.093168214041404 -0.47181924826425004 0.0
v -4.760219988706844 -0.800742897276103 0.0
v -4.964384057400415 -1.7449759111800753 0.0
v -4.964384057400415 -1.7449759111800753 0.0
v -6.251262229999999 -1.907820353668642 0.0
v -6.251262229999999 -0.5368175409301941 0.0
v -6.251262229999999 -0.5368175409301941 0.0
v -5.093168214041404 -0.47181924826425004 0.0
v -4.964384057400415 -1.7449759111800753 0.0
v -4.51011812 1.98546776 1.00000001
v -3.55628642 2.55879575 0.0
v -4.51011812 1.98546776 0.0
v -3.55628642 2.55879575 0.0
v -4.51011812 1.98546776 1.00000001
v -3.55628642 2.55879575 1.00000001
v 0.57073784 -1.48799997 0.04999999999999983
v -0.00026214 -1.48799997 2.19300006
v -0.0002621400000000218 -1.48799997 1.6653345369377348e-16
v -0.00026214 -1.48799997 2.19300006
v 0.57073784 -1.48799997 0.04999999999999983
v 0.57073784 -1.48799997 2.19300006
v 0.57073784 -0.0119999999999999 1.1160632478780317
v 0.57073784 -0.012 0.05
v 1.306344 -1.29247169 0.04999999999999993
v 1.306344 -1.29247169 0.04999999999999993
v 1.3063439999999997 -1.2924716899999997 1.1356205171364717
v 0.57073784 -0.0119999999999999 1.1160632478780317
v 1.3063439999999997 -1.2924716899999997 1.1356205171364717
v 1.3063439999999997 -1.2924716899999997 2.1949999299999994
v 0.57073784 -0.0119999999999999 2.19499993
v 0.57073784 -0.0119999999999999 2.19499993
v 0.57073784 -0.0119999999999999 1.1160632478780317
v 1.3063439999999997 -1.2924716899999997 1.1356205171364717
v 5.055775585596757 -4.866581014261666 0.05
v 6.10173802 -4.714207513558706 0.05
v 6.10173802 -6.15999997 0.05
v 6.10173802 -6.15999997 0.05
v 4.977278345157228 -6.15999997 0.05
v 5.055775585596757 -4.866581014261666 0.05
v 4.745317537298284 -2.075642514039549 0.05
v 4.641790798074119 -1.9044064375123482 0.05
v 4.936719162422838 -0.7720405916979995 0.05000000000000001
v 4.936719162422838 -0.7720405916979995 0.05000000000000001
v 6.101738020000001 -0.7175897640965903 0.05000000000000001
v 6.10173802 -2.193536510994889 0.05000000000000001
v 6.10173802 -2.193536510994889 0.05000000000000001
v 4.745317537298284 -2.075642514039549 0.05
v 4.936719162422838 -0.7720405916979995 0.05000000000000001
v 5.055775585596757 -4.866581014261666 0.05
v 4.5600383193820075 -4.510597654178938 0.05
v 4.74890342917581 -3.489053836792625 0.05
v 5.055775585596757 -4.866581014261666 0.05
v 6.101738020000001 -3.438845166572343 0.05
v 6.10173802 -4.714207513558706 0.05
v 6.101738020000001 -3.438845166572343 0.05
v 5.055775585596757 -4.866581014261666 0.05
v 4.74890342917581 -3.489053836792625 0.05
v 3.9374218854849765 -4.724707578799446 0.05
v 4.5600383193820075 -4.510597654178938 0.05
v 5.055775585596757 -4.866581014261666 0.05
v 5.055775585596757 -4.866581014261666 0.05
v 4.977278345157228 -6.15999997 0.05
v 3.8762026852775096 -6.159999970000001 0.05
v 3.8762026852775096 -6.159999970000001 0.05
v 3.9374218854849765 -4.724707578799446 0.05
v 5.055775585596757 -4.866581014261666 0.05
v 1.4593000847294797 -6.159999970000001 0.049999999999999996
v 2.691532248814725 -4.942296811269497 0.05
v 2.8989651107181915 -6.159999970000001 0.049999999999999996
v 2.691532248814725 -4.942296811269497 0.05
v 1.4593000847294797 -6.159999970000001 0.049999999999999996
v 1.8298620910446106 -4.776143824458964 0.049999999999999996
v 3.333897019264885 -3.1588111692339216 0.05
v 3.301288857340161 -4.483134158393773 0.05
v 3.078292387547115 -3.485368742129083 0.05
v 4.74890342917581 -3.489053836792625 0.05
v 3.333897019264885 -3.1588111692339216 0.05
v 4.468016736068297 -3.1154069463810123 0.05
v 3.9374218854849765 -4.724707578799446 0.05
v 4.74890342917581 -3.489053836792625 0.05
v 4.5600383193820075 -4.510597654178938 0.05
v 3.301288857340161 -4.483134158393773 0.05
v 3.333897019264885 -3.1588111692339216 0.05
v 3.9374218854849765 -4.724707578799446 0.05
v 4.74890342917581 -3.489053836792625 0.05
v 3.9374218854849765 -4.724707578799446 0.05
v 3.333897019264885 -3.1588111692339216 0.05
v 3.8762026852775096 -6.159999970000001 0.05
v 2.8989651107181915 -6.159999970000001 0.049999999999999996
v 2.691532248814725 -4.942296811269497 0.05
v 2.691532248814725 -4.942296811269497 0.05
v 3.301288857340161 -4.483134158393773 0.05
v 3.9374218854849765 -4.724707578799446 0.05
v 3.9374218854849765 -4.724707578799446 0.05
v 3.8762026852775096 -6.159999970000001 0.05
v 2.691532248814725 -4.942296811269497 0.05
v 3.333897019264885 -3.1588111692339216 0.05
v 3.0523778179050503 -2.0194566729112315 0.05
v 3.4250660559303485 -1.640664639879032 0.05
v 4.468016736068297 -3.1154069463810123 0.05
v 4.641790798074119 -1.9044064375123482 0.05
v 4.745317537298284 -2.075642514039549 0.05
v 3.4250660559303485 -1.640664639879032 0.05
v 4.468016736068297 -3.1154069463810123 0.05
v 3.333897019264885 -3.1588111692339216 0.05
v 4.468016736068297 -3.1154069463810123 0.05
v 3.4250660559303485 -1.640664639879032 0.05
v 4.641790798074119 -1.9044064375123482 0.05
v 4.74890342917581 -3.489053836792625 0.05
v 4.468016736068297 -3.1154069463810123 0.05
v 4.745317537298284 -2.075642514039549 0.05
v 4.74890342917581 -3.489053836792625 0.05
v 6.10173802 -2.193536510994889 0.05000000000000001
v 6.101738020000001 -3.438845166572343 0.05
v 6.10173802 -2.193536510994889 0.05000000000000001
v 4.74890342917581 -3.489053836792625 0.05
v 4.745317537298284 -2.075642514039549 0.05
v 0.5707378400000009 -6.159999970000001 0.049999999999999996
v 1.8298620910446106 -4.776143824458964 0.049999999999999996
v 1.4593000847294797 -6.159999970000001 0.049999999999999996
v 1.8298620910446106 -4.776143824458964 0.049999999999999996
v 0.5707378400000009 -6.159999970000001 0.049999999999999996
v 0.5707378400000014 -4.413989971835473 0.049999999999999996
v 1.8298620910446106 -4.776143824458964 0.049999999999999996
v 0.5707378400000014 -4.413989971835473 0.049999999999999996
v 1.58499955204628 -4.469642933701721 0.049999999999999996
v 2.0364200963064345 -3.4554730852405857 0.05
v 1.8298620910446106 -4.776143824458964 0.049999999999999996
v 1.58499955204628 -4.469642933701721 0.049999999999999996
v 2.691532248814725 -4.942296811269497 0.05
v 2.0364200963064345 -3.4554730852405857 0.05
v 3.078292387547115 -3.485368742129083 0.05
v 3.078292387547115 -3.485368742129083 0.05
v 3.301288857340161 -4.483134158393773 0.05
v 2.691532248814725 -4.942296811269497 0.05
v 2.0364200963064345 -3.4554730852405857 0.05
v 2.691532248814725 -4.942296811269497 0.05
v 1.8298620910446106 -4.776143824458964 0.049999999999999996
v 2.137952761693615 -1.9399463380982147 0.05
v 2.0364200963064345 -3.4554730852405857 0.05
v 1.6056377206261723 -2.8104908551211993 0.05
v 2.0364200963064345 -3.4554730852405857 0.05
v 2.137952761693615 -1.9399463380982147 0.05
v 3.0523778179050503 -2.0194566729112315 0.05
v 2.0364200963064345 -3.4554730852405857 0.05
v 3.333897019264885 -3.1588111692339216 0.05
v 3.078292387547115 -3.485368742129083 0.05
v 3.333897019264885 -3.1588111692339216 0.05
v 2.0364200963064345 -3.4554730852405857 0.05
v 3.0523778179050503 -2.0194566729112315 0.05
v 6.101738020000001 0.6783304875935765 0.05000000000000001
v 4.5773379989591705 -0.3634456367910779 0.05000000000000001
v 4.676805142412713 0.5955104299524376 0.05000000000000001
v 4.936719162422838 -0.7720405916979995 0.05000000000000001
v 6.101738020000001 0.6783304875935765 0.05000000000000001
v 6.101738020000001 -0.7175897640965903 0.05000000000000001
v 4.5773379989591705 -0.3634456367910779 0.05000000000000001
v 6.101738020000001 0.6783304875935765 0.05000000000000001
v 4.936719162422838 -0.7720405916979995 0.05000000000000001
v 0.5707378400000014 -4.413989971835473 0.049999999999999996
v 2.0364200963064345 -3.4554730852405857 0.05
v 1.58499955204628 -4.469642933701721 0.049999999999999996
v 1.6056377206261723 -2.8104908551211993 0.05
v 0.5707378400000014 -4.413989971835473 0.049999999999999996
v 0.5707378400000016 -2.783507870087219 0.05
v 2.0364200963064345 -3.4554730852405857 0.05
v 0.5707378400000014 -4.413989971835473 0.049999999999999996
v 1.6056377206261723 -2.8104908551211993 0.05
v 4.5773379989591705 -0.3634456367910779 0.05000000000000001
v 3.4250660559303485 -1.640664639879032 0.05
v 3.3703160806600003 -0.6533556100997364 0.05
v 3.4250660559303485 -1.640664639879032 0.05
v 4.5773379989591705 -0.3634456367910779 0.05000000000000001
v 4.936719162422838 -0.7720405916979995 0.05000000000000001
v 3.4250660559303485 -1.640664639879032 0.05
v 4.936719162422838 -0.7720405916979995 0.05000000000000001
v 4.641790798074119 -1.9044064375123482 0.05
v 2.137952761693615 -1.9399463380982147 0.05
v 1.7045504817832977 -1.155429649541834 0.05
v 2.066960737657669 -0.5443291307084968 0.05
v 2.066960737657669 -0.5443291307084968 0.05
v 3.0833839310880133 -0.39141491847654075 0.05
v 3.3703160806600003 -0.6533556100997364 0.05
v 2.137952761693615 -1.9399463380982147 0.05
v 3.4250660559303485 -1.640664639879032 0.05
v 3.0523778179050503 -2.0194566729112315 0.05
v 3.4250660559303485 -1.640664639879032 0.05
v 2.137952761693615 -1.9399463380982147 0.05
v 2.066960737657669 -0.5443291307084968 0.05
v 3.4250660559303485 -1.640664639879032 0.05
v 2.066960737657669 -0.5443291307084968 0.05
v 3.3703160806600003 -0.6533556100997364 0.05
v 6.101738020000001 1.9029999300000005 0.05000000000000001
v 4.511663033495637 0.7972150639545803 0.05000000000000001
v 4.616757880533591 2.0393893507736105 0.05000000000000001
v 4.676805142412713 0.5955104299524376 0.05000000000000001
v 6.101738020000001 1.9029999300000005 0.05000000000000001
v 6.101738020000001 0.6783304875935765 0.05000000000000001
v 6.101738020000001 1.9029999300000005 0.05000000000000001
v 4.676805142412713 0.5955104299524376 0.05000000000000001
v 4.511663033495637 0.7972150639545803 0.05000000000000001
v 0.5707378400000019 -0.012000000000000854 0.05
v 2.066960737657669 -0.5443291307084968 0.05
v 1.7045504817832977 -1.155429649541834 0.05
v 1.7045504817832977 -1.155429649541834 0.05
v 0.5707378400000013 -1.1813671808418946 0.05
v 0.5707378400000019 -0.012000000000000854 0.05
v 0.5707378400000019 -0.012000000000000854 0.05
v 0.5707378400000027 0.5227983578250286 0.05
v 1.5159653305345804 0.5486712190228479 0.05
v 2.066960737657669 -0.5443291307084968 0.05
v 0.5707378400000019 -0.012000000000000854 0.05
v 1.5159653305345804 0.5486712190228479 0.05
v 0.5707378400000018 -1.4879999700000006 0.05
v 2.137952761693615 -1.9399463380982147 0.05
v 1.6056377206261723 -2.8104908551211993 0.05
v 1.6056377206261723 -2.8104908551211993 0.05
v 0.5707378400000016 -2.783507870087219 0.05
v 0.5707378400000018 -1.4879999700000006 0.05
v 0.5707378400000018 -1.4879999700000006 0.05
v 0.5707378400000013 -1.1813671808418946 0.05
v 1.7045504817832977 -1.155429649541834 0.05
v 2.137952761693615 -1.9399463380982147 0.05
v 0.5707378400000018 -1.4879999700000006 0.05
v 1.7045504817832977 -1.155429649541834 0.05
v 4.5773379989591705 -0.3634456367910779 0.05000000000000001
v 4.511663033495637 0.7972150639545803 0.05000000000000001
v 4.676805142412713 0.5955104299524376 0.05000000000000001
v 3.1943804602911436 0.7573755765752772 0.05000000000000001
v 4.5773379989591705 -0.3634456367910779 0.05000000000000001
v 3.3703160806600003 -0.6533556100997364 0.05
v 3.3703160806600003 -0.6533556100997364 0.05
v 3.0833839310880133 -0.39141491847654075 0.05
v 3.1943804602911436 0.7573755765752772 0.05000000000000001
v 4.5773379989591705 -0.3634456367910779 0.05000000000000001
v 3.1943804602911436 0.7573755765752772 0.05000000000000001
v 4.511663033495637 0.7972150639545803 0.05000000000000001
v 1.8811679238068384 0.9410829921969757 0.05
v 2.066960737657669 -0.5443291307084968 0.05
v 1.5159653305345804 0.5486712190228479 0.05
v 3.1943804602911436 0.7573755765752772 0.05000000000000001
v 1.8811679238068384 0.9410829921969757 0.05
v 3.0476504151953 0.9308149135997701 0.05000000000000001
v 2.066960737657669 -0.5443291307084968 0.05
v 3.1943804602911436 0.7573755765752772 0.05000000000000001
v 3.0833839310880133 -0.39141491847654075 0.05
v 1.8811679238068384 0.9410829921969757 0.05
v 3.1943804602911436 0.7573755765752772 0.05000000000000001
v 2.066960737657669 -0.5443291307084968 0.05
v 4.511663033495637 0.7972150639545803 0.05000000000000001
v 3.1943804602911436 0.7573755765752772 0.05000000000000001
v 3.0476504151953 0.9308149135997701 0.05000000000000001
v 4.511663033495637 0.7972150639545803 0.05000000000000001
v 3.2100619133666846 2.168588686890932 0.05000000000000001
v 4.616757880533591 2.0393893507736105 0.05000000000000001
v 3.2100619133666846 2.168588686890932 0.05000000000000001
v 4.511663033495637 0.7972150639545803 0.05000000000000001
v 3.0476504151953 0.9308149135997701 0.05000000000000001
v 3.2100619133666846 2.168588686890932 0.05000000000000001
v 1.8811679238068384 0.9410829921969757 0.05
v 1.6873363223461715 2.3084448747528574 0.05000000000000001
v 1.8811679238068384 0.9410829921969757 0.05
v 3.2100619133666846 2.168588686890932 0.05000000000000001
v 3.0476504151953 0.9308149135997701 0.05000000000000001
v 1.8811679238068384 0.9410829921969757 0.05
v 1.5159653305345804 0.5486712190228479 0.05
v 0.5707378400000027 0.5227983578250286 0.05
v 1.8811679238068384 0.9410829921969757 0.05
v 0.5707378400000016 2.410999929999999 0.05
v 1.6873363223461715 2.3084448747528574 0.05000000000000001
v 0.5707378400000016 2.410999929999999 0.05
v 1.8811679238068384 0.9410829921969757 0.05
v 0.5707378400000027 0.5227983578250286 0.05
v -3.5562864200000006 2.55879575 0.0
v -4.51011812 1.9854677600000001 0.0
v -4.416042850000001 2.9263611100000007 0.0
v -1.67695229 2.67615797 0.0
v -1.74129991 1.71458992 0.0
v -2.39004694 2.52444417 0.0
v -2.39004694 2.52444417 0.0
v -3.5562864200000006 2.55879575 0.0
v -4.416042850000001 2.9263611100000007 0.0
v -4.416042850000001 2.9263611100000007 0.0
v -1.67695229 2.67615797 0.0
v -2.39004694 2.52444417 0.0
v 0.57073784 -1.48799997 0.05
v 0.57073784 -2.9542296341342307 1.442894859551769
v 0.57073784 -1.48799997 1.3184001862165917
v 0.57073784 -3.1015384566462387 1.2905773334461108
v 0.57073784 -1.48799997 0.05
v 0.57073784 -3.1167771336452317 0.04999999999999982
v 0.57073784 -1.48799997 0.05
v 0.57073784 -3.1015384566462387 1.2905773334461108
v 0.57073784 -2.9542296341342307 1.442894859551769
v 0.57073784 -1.519127700036412 2.7360000500000003
v 0.57073784 0.4990000200000002 2.736000050000001
v 0.57073784 -0.011999999999999789 2.1949999300000003
v 0.57073784 -0.011999999999999789 2.1949999300000003
v 0.57073784 -1.3755322274494217 2.1931524454125118
v 0.57073784 -1.519127700036412 2.7360000500000003
v 0.57073784 -4.66753417559684 1.348476034154024
v 0.57073784 -4.52259055855528 1.5025200989740897
v 0.57073784 -3.1015384566462387 1.2905773334461108
v 0.57073784 -3.1015384566462387 1.2905773334461108
v 0.57073784 -3.1167771336452317 0.04999999999999982
v 0.57073784 -4.666390629655751 0.0499999999999996
v 0.57073784 -4.666390629655751 0.0499999999999996
v 0.57073784 -4.66753417559684 1.348476034154024
v 0.57073784 -3.1015384566462387 1.2905773334461108
v 0.57073784 -2.9542296341342307 1.442894859551769
v 0.57073784 -3.1015384566462387 1.2905773334461108
v 0.57073784 -4.52259055855528 1.5025200989740897
v 0.57073784 -4.52259055855528 1.5025200989740897
v 0.57073784 -4.5213844310703575 2.73600005
v 0.57073784 -2.9484852295790183 2.7360000500000003
v 0.57073784 -2.9484852295790183 2.7360000500000003
v 0.57073784 -2.9542296341342307 1.442894859551769
v 0.57073784 -4.52259055855528 1.5025200989740897
v 0.57073784 -1.48799997 2.1930000600000006
v 0.57073784 -2.9484852295790183 2.7360000500000003
v 0.57073784 -1.519127700036412 2.7360000500000003
v 0.57073784 -1.519127700036412 2.7360000500000003
v 0.57073784 -1.3755322274494217 2.1931524454125118
v 0.57073784 -1.48799997 2.1930000600000006
v 0.57073784 -1.48799997 2.1930000600000006
v 0.57073784 -1.48799997 1.3184001862165917
v 0.57073784 -2.9542296341342307 1.442894859551769
v 0.57073784 -2.9484852295790183 2.7360000500000003
v 0.57073784 -1.48799997 2.1930000600000006
v 0.57073784 -2.9542296341342307 1.442894859551769
v 0.57073784 -4.66753417559684 1.348476034154024
v 0.57073784 -4.666390629655751 0.0499999999999996
v 0.57073784 -6.159999970000001 0.049999999999998934
v 0.57073784 -6.159999970000001 0.049999999999998934
v 0.57073784 -6.15999997 1.4490954097622133
v 0.57073784 -4.66753417559684 1.348476034154024
v 0.57073784 -6.15999997 2.7360000499999995
v 0.57073784 -4.66753417559684 1.348476034154024
v 0.57073784 -6.15999997 1.4490954097622133
v 0.57073784 -4.66753417559684 1.348476034154024
v 0.57073784 -6.15999997 2.7360000499999995
v 0.57073784 -4.5213844310703575 2.73600005
v 0.57073784 -4.66753417559684 1.348476034154024
v 0.57073784 -4.5213844310703575 2.73600005
v 0.57073784 -4.52259055855528 1.5025200989740897
v 0.57073784 2.41099993 0.05
v 0.57073784 1.3045585533772746 1.4256095080904145
v 0.57073784 2.41099993 1.4239825067900982
v 0.57073784 1.1684727699917214 1.295891320357797
v 0.57073784 2.41099993 0.05
v 0.57073784 1.239138751239355 0.050000000000000155
v 0.57073784 1.3045585533772746 1.4256095080904145
v 0.57073784 2.41099993 0.05
v 0.57073784 1.1684727699917214 1.295891320357797
v 0.57073784 1.3045585533772746 1.4256095080904145
v 0.57073784 1.1411762432785841 2.73600005
v 0.57073784 2.41099993 2.7360000500000003
v 0.57073784 2.41099993 2.7360000500000003
v 0.57073784 2.41099993 1.4239825067900982
v 0.57073784 1.3045585533772746 1.4256095080904145
v 0.57073784 1.1684727699917214 1.295891320357797
v 0.57073784 1.239138751239355 0.050000000000000155
v 0.57073784 -0.012000000000000233 0.050000000000000044
v 0.57073784 -0.012000000000000233 0.050000000000000044
v 0.57073784 -0.01200000000000001 1.3441106885606495
v 0.57073784 1.1684727699917214 1.295891320357797
v 0.57073784 -0.012000000000000122 2.19499993
v 0.57073784 1.1684727699917214 1.295891320357797
v 0.57073784 -0.01200000000000001 1.3441106885606495
v 0.57073784 1.3045585533772746 1.4256095080904145
v 0.57073784 -0.012000000000000122 2.19499993
v 0.57073784 0.4990000199999997 2.73600005
v 0.57073784 0.4990000199999997 2.73600005
v 0.57073784 1.1411762432785841 2.73600005
v 0.57073784 1.3045585533772746 1.4256095080904145
v 0.57073784 -0.012000000000000122 2.19499993
v 0.57073784 1.3045585533772746 1.4256095080904145
v 0.57073784 1.1684727699917214 1.295891320357797
v 0.57073784 -0.012000000000000177 0.05
v 0.57073784 -1.48799997 0.05
v -0.0002621400000000773 -1.48799997 -6.938893903907228e-18
v -0.0002621400000000773 -1.48799997 -6.938893903907228e-18
v -0.0002621400000000043 -0.012000000000000004 1.5333097274868078e-18
v 0.57073784 -0.012000000000000177 0.05
v -0.0002621399999999113 -0.012 2.19499993
v 0.57073784 -0.012 0.05
v -0.0002621400000000218 -0.012 0.0
v 0.57073784 -0.012 0.05
v -0.0002621399999999113 -0.012 2.19499993
v 0.57073784 -0.012 2.19499993
v 1.306344 -1.29247169 1.1250000000000002
v 1.306344 -1.29247169 0.05
v 0.5707378399999998 -0.011999999999999789 0.05
v 0.5707378399999998 -0.011999999999999789 0.05
v 0.5707378399999998 -0.011999999999999789 1.1250000000000002
v 1.306344 -1.29247169 1.1250000000000002
v 0.5707378399999998 -0.011999999999999789 1.1250000000000002
v 0.5707378399999998 -0.011999999999999789 2.19499993
v 1.306344 -1.29247169 2.19499993
v 1.306344 -1.29247169 2.19499993
v 1.306344 -1.29247169 1.1250000000000002
v 0.5707378399999998 -0.011999999999999789 1.1250000000000002
v -5.44190039 -0.09118618 0.0
v -5.44190039 1.4788138 0.0
v -5.44190039 1.4788138 1.00000001
v -5.44190039 1.4788138 1.00000001
v -5.44190039 -0.09118618 1.00000001
v -5.44190039 -0.09118618 0.0
v -2.39004694 2.52444417 1.00000001
v -3.55628642 2.55879575 0.0
v -2.39004694 2.52444417 0.0
v -3.55628642 2.55879575 0.0
v -2.39004694 2.52444417 1.00000001
v -3.55628642 2.55879575 1.00000001
v -1.7412999100000002 1.7145899200000003 1.00000001
v -2.39004694 2.52444417 1.00000001
v -2.39004694 2.52444417 0.0
v -2.39004694 2.52444417 0.0
v -1.7412999100000002 1.7145899200000003 0.0
v -1.7412999100000002 1.7145899200000003 1.00000001
v -4.51011812 1.98546776 0.0
v -4.51011812 1.98546776 1.00000001
v -5.44190039 1.4788138 1.00000001
v -5.44190039 1.4788138 1.00000001
v -5.44190039 1.4788138 0.0
v -4.51011812 1.98546776 0.0
v -4.51011812 1.9854677600000001 0.0
v -3.55628642 2.55879575 0.0
v -3.55628642 2.55879575 1.00000001
v -3.55628642 2.55879575 1.00000001
v -4.51011812 1.9854677600000001 1.00000001
v -4.51011812 1.9854677600000001 0.0

usemtl Patch_1_Mat_CR1_paintedConcrete
f 3 2 1
f 6 5 4
f 9 8 7

usemtl Patch_2_Mat_CR1_paintedConcrete
f 12 11 10
f 15 14 13
f 18 17 16

usemtl Patch_3_Mat_CR1_paintedConcrete
f 21 20 19
f 24 23 22
f 27 26 25

usemtl Patch_4_Mat_CR1_paintedConcrete
f 30 29 28
f 33 32 31
f 36 35 34
f 39 38 37

usemtl Patch_5_Mat_CR1_paintedConcrete
f 42 41 40
f 45 44 43

usemtl Patch_6_Mat_CR1_paintedConcrete
f 48 47 46
f 51 50 49
f 54 53 52

usemtl Patch_7_Mat_CR1_paintedConcrete
f 57 56 55
f 60 59 58
f 63 62 61
f 66 65 64
f 69 68 67

usemtl Patch_8_Mat_CR1_paintedConcrete
f 72 71 70
f 75 74 73
f 78 77 76

usemtl Patch_9_Mat_CR1_paintedConcrete
f 81 80 79
f 84 83 82
f 87 86 85
f 90 89 88

usemtl Patch_10_Mat_CR1_paintedConcrete
f 93 92 91
f 96 95 94
f 99 98 97

usemtl Patch_11_Mat_CR1_paintedConcrete
f 102 101 100
f 105 104 103
f 108 107 106

usemtl Patch_12_Mat_CR1_paintedConcrete
f 111 110 109
f 114 113 112
f 117 116 115

usemtl Patch_13_Mat_CR1_paintedConcrete
f 120 119 118
f 123 122 121
f 126 125 124
f 129 128 127

usemtl Patch_14_Mat_CR1_paintedConcrete
f 132 131 130
f 135 134 133

usemtl Patch_15_Mat_CR1_paintedConcrete
f 138 137 136
f 141 140 139
f 144 143 142
f 147 146 145

usemtl Patch_16_Mat_CR1_paintedConcrete
f 150 149 148
f 153 152 151
f 156 155 154
f 159 158 157
f 162 161 160

usemtl Patch_17_Mat_CR1_paintedConcrete
f 165 164 163
f 168 167 166
f 171 170 169

usemtl Patch_18_Mat_CR1_paintedConcrete
f 174 173 172
f 177 176 175
f 180 179 178

usemtl Patch_19_Mat_CR1_paintedConcrete
f 183 182 181
f 186 185 184
f 189 188 187
f 192 191 190

usemtl Patch_20_Mat_CR1_paintedConcrete
f 195 194 193
f 198 197 196

usemtl Patch_21_Mat_CR1_paintedConcrete
f 201 200 199
f 204 203 202
f 207 206 205

usemtl Patch_22_Mat_CR1_paintedConcrete
f 210 209 208
f 213 212 211
f 216 215 214
f 219 218 217

usemtl Patch_23_Mat_CR1_paintedConcrete
f 222 221 220
f 225 224 223
f 228 227 226

usemtl Patch_24_Mat_CR1_paintedConcrete
f 231 230 229
f 234 233 232
f 237 236 235

usemtl Patch_25_Mat_CR1_paintedConcrete
f 240 239 238
f 243 242 241
f 246 245 244

usemtl Patch_26_Mat_CR1_paintedConcrete
f 249 248 247
f 252 251 250
f 255 254 253
f 258 257 256
f 261 260 259

usemtl Patch_27_Mat_CR1_paintedConcrete
f 264 263 262
f 267 266 265
f 270 269 268
f 273 272 271
f 276 275 274

usemtl Patch_28_Mat_CR1_paintedConcrete
f 279 278 277
f 282 281 280

usemtl Patch_29_Mat_CR1_paintedConcrete
f 285 284 283
f 288 287 286
f 291 290 289
f 294 293 292
f 297 296 295

usemtl Patch_30_Mat_CR1_paintedConcrete
f 300 299 298
f 303 302 301

usemtl Patch_31_Mat_CR1_paintedConcrete
f 306 305 304
f 309 308 307

usemtl Patch_32_Mat_CR1_concrete
f 312 311 310
f 315 314 313
f 318 317 316

usemtl Patch_33_Mat_CR1_concrete
f 321 320 319
f 324 323 322
f 327 326 325

usemtl Patch_34_Mat_CR1_concrete
f 330 329 328
f 333 332 331
f 336 335 334

usemtl Patch_35_Mat_CR1_concrete
f 339 338 337
f 342 341 340
f 345 344 343

usemtl Patch_36_Mat_CR1_concrete
f 348 347 346
f 351 350 349
f 354 353 352
f 357 356 355

usemtl Patch_37_Mat_CR1_concrete
f 360 359 358
f 363 362 361
f 366 365 364

usemtl Patch_38_Mat_CR1_concrete
f 369 368 367
f 372 371 370

usemtl Patch_39_Mat_CR1_concrete
f 375 374 373
f 378 377 376
f 381 380 379

usemtl Patch_40_Mat_CR1_concrete
f 384 383 382
f 387 386 385
f 390 389 388

usemtl Patch_41_Mat_CR1_concrete
f 393 392 391
f 396 395 394
f 399 398 397
f 402 401 400

usemtl Patch_42_Mat_CR1_concrete
f 405 404 403
f 408 407 406
f 411 410 409
f 414 413 412

usemtl Patch_43_Mat_CR1_concrete
f 417 416 415
f 420 419 418
f 423 422 421
f 426 425 424

usemtl Patch_44_Mat_CR1_concrete
f 429 428 427
f 432 431 430

usemtl Patch_45_Mat_CR1_concrete
f 435 434 433
f 438 437 436
f 441 440 439
f 444 443 442
f 447 446 445

usemtl Patch_46_Mat_CR1_concrete
f 450 449 448
f 453 452 451
f 456 455 454
f 459 458 457

usemtl Patch_47_Mat_CR1_concrete
f 462 461 460
f 465 464 463
f 468 467 466
f 471 470 469

usemtl Patch_48_Mat_CR1_concrete
f 474 473 472
f 477 476 475
f 480 479 478

usemtl Patch_49_Mat_CR1_concrete
f 483 482 481
f 486 485 484
f 489 488 487

usemtl Patch_50_Mat_CR1_concrete
f 492 491 490
f 495 494 493
f 498 497 496

usemtl Patch_51_Mat_CR1_concrete
f 501 500 499
f 504 503 502
f 507 506 505

usemtl Patch_52_Mat_CR1_concrete
f 510 509 508
f 513 512 511
f 516 515 514

usemtl Patch_53_Mat_CR1_concrete
f 519 518 517
f 522 521 520
f 525 524 523

usemtl Patch_54_Mat_CR1_concrete
f 528 527 526
f 531 530 529
f 534 533 532

usemtl Patch_55_Mat_CR1_concrete
f 537 536 535
f 540 539 538
f 543 542 541
f 546 545 544

usemtl Patch_56_Mat_CR1_concrete
f 549 548 547
f 552 551 550
f 555 554 553

usemtl Patch_57_Mat_CR1_concrete
f 558 557 556
f 561 560 559
f 564 563 562

usemtl Patch_58_Mat_CR1_concrete
f 567 566 565
f 570 569 568
f 573 572 571
f 576 575 574

usemtl Patch_59_Mat_CR1_concrete
f 579 578 577
f 582 581 580
f 585 584 583

usemtl Patch_60_Mat_CR1_concrete
f 588 587 586
f 591 590 589
f 594 593 592

usemtl Patch_61_Mat_CR1_concrete
f 597 596 595
f 600 599 598
f 603 602 601

usemtl Patch_62_Mat_CR1_concrete
f 606 605 604
f 609 608 607

usemtl Patch_63_Mat_CR1_concrete
f 612 611 610
f 615 614 613
f 618 617 616
f 621 620 619

usemtl Patch_64_Mat_CR1_concrete
f 624 623 622
f 627 626 625
f 630 629 628

usemtl Patch_65_Mat_CR1_concrete
f 633 632 631
f 636 635 634
f 639 638 637

usemtl Patch_66_Mat_CR1_concrete
f 642 641 640
f 645 644 643
f 648 647 646
f 651 650 649

usemtl Patch_67_Mat_CR1_concrete
f 654 653 652
f 657 656 655
f 660 659 658

usemtl Patch_68_Mat_CR1_concrete
f 663 662 661
f 666 665 664

usemtl Patch_69_Mat_CR1_concrete
f 669 668 667
f 672 671 670
f 675 674 673
f 678 677 676

usemtl Patch_70_Mat_CR1_concrete
f 681 680 679
f 684 683 682
f 687 686 685

usemtl Patch_71_Mat_CR1_concrete
f 690 689 688
f 693 692 691
f 696 695 694
f 699 698 697

usemtl Patch_72_Mat_CR1_concrete
f 702 701 700
f 705 704 703
f 708 707 706
f 711 710 709

usemtl Patch_73_Mat_CR1_concrete
f 714 713 712
f 717 716 715
f 720 719 718
f 723 722 721

usemtl Patch_74_Mat_CR1_concrete
f 726 725 724
f 729 728 727
f 732 731 730

usemtl Patch_75_Mat_CR1_paintedConcrete
f 735 734 733
f 738 737 736

usemtl Patch_76_Mat_CR1_paintedConcrete
f 741 740 739
f 744 743 742
f 747 746 745

usemtl Patch_77_Mat_CR1_paintedConcrete
f 750 749 748
f 753 752 751

usemtl Patch_78_Mat_CR1_paintedConcrete
f 756 755 754
f 759 758 757
f 762 761 760

usemtl Patch_79_Mat_CR1_paintedConcrete
f 765 764 763
f 768 767 766
f 771 770 769

usemtl Patch_80_Mat_CR1_paintedConcrete
f 774 773 772
f 777 776 775
f 780 779 778
f 783 782 781

usemtl Patch_81_Mat_CR1_paintedConcrete
f 786 785 784
f 789 788 787

usemtl Patch_82_Mat_CR1_paintedConcrete
f 792 791 790
f 795 794 793
f 798 797 796

usemtl Patch_83_Mat_CR1_paintedConcrete
f 801 800 799
f 804 803 802
f 807 806 805

usemtl Patch_84_Mat_CR1_paintedConcrete
f 810 809 808
f 813 812 811
f 816 815 814

usemtl Patch_85_Mat_CR1_paintedConcrete
f 819 818 817
f 822 821 820

usemtl Patch_86_Mat_CR1_paintedConcrete
f 825 824 823
f 828 827 826
f 831 830 829

usemtl Patch_87_Mat_CR1_paintedConcrete
f 834 833 832
f 837 836 835
f 840 839 838

usemtl Patch_88_Mat_CR1_paintedConcrete
f 843 842 841
f 846 845 844
f 849 848 847

usemtl Patch_89_Mat_CR1_paintedConcrete
f 852 851 850
f 855 854 853
f 858 857 856

usemtl Patch_90_Mat_CR1_paintedConcrete
f 861 860 859
f 864 863 862
f 867 866 865

usemtl Patch_91_Mat_CR1_paintedConcrete
f 870 869 868
f 873 872 871
f 876 875 874

usemtl Patch_92_Mat_CR1_paintedConcrete
f 879 878 877
f 882 881 880

usemtl Patch_93_Mat_CR1_paintedConcrete
f 885 884 883
f 888 887 886
f 891 890 889

usemtl Patch_94_Mat_CR1_paintedConcrete
f 894 893 892
f 897 896 895

usemtl Patch_95_Mat_CR1_paintedConcrete
f 900 899 898
f 903 902 901
f 906 905 904

usemtl Patch_96_Mat_CR1_paintedConcrete
f 909 908 907
f 912 911 910
f 915 914 913

usemtl Patch_97_Mat_CR1_paintedConcrete
f 918 917 916
f 921 920 919
f 924 923 922

usemtl Patch_98_Mat_CR1_paintedConcrete
f 927 926 925
f 930 929 928
f 933 932 931

usemtl Patch_99_Mat_CR1_paintedConcrete
f 936 935 934
f 939 938 937
f 942 941 940

usemtl Patch_100_Mat_CR1_paintedConcrete
f 945 944 943
f 948 947 946
f 951 950 949

usemtl Patch_101_Mat_CR1_paintedConcrete
f 954 953 952
f 957 956 955

usemtl Patch_102_Mat_CR1_tablesEquipment
f 960 959 958
f 963 962 961

usemtl Patch_103_Mat_CR1_tablesEquipment
f 966 965 964
f 969 968 967
f 972 971 970

usemtl Patch_104_Mat_CR1_tablesEquipment
f 975 974 973
f 978 977 976
f 981 980 979

usemtl Patch_105_Mat_CR1_tablesEquipment
f 984 983 982
f 987 986 985

usemtl Patch_106_Mat_CR1_tablesEquipment
f 990 989 988
f 993 992 991

usemtl Patch_107_Mat_CR1_tablesEquipment
f 996 995 994
f 999 998 997

usemtl Patch_108_Mat_CR1_tablesEquipment
f 1002 1001 1000
f 1005 1004 1003

usemtl Patch_109_Mat_CR1_tablesEquipment
f 1008 1007 1006
f 1011 1010 1009
f 1014 1013 1012

usemtl Patch_110_Mat_CR1_tablesEquipment
f 1017 1016 1015
f 1020 1019 1018
f 1023 1022 1021

usemtl Patch_111_Mat_CR1_absorber
f 1026 1025 1024
f 1029 1028 1027

usemtl Patch_112_Mat_CR1_absorber
f 1032 1031 1030
f 1035 1034 1033

usemtl Patch_113_Mat_CR1_absorber
f 1038 1037 1036
f 1041 1040 1039

usemtl Patch_114_Mat_CR1_absorber
f 1044 1043 1042
f 1047 1046 1045

usemtl Patch_115_Mat_CR1_tablesEquipment
f 1050 1049 1048
f 1053 1052 1051

usemtl Patch_116_Mat_CR1_tablesEquipment
f 1056 1055 1054
f 1059 1058 1057

usemtl Patch_117_Mat_CR1_tablesEquipment
f 1062 1061 1060
f 1065 1064 1063

usemtl Patch_118_Mat_CR1_tablesEquipment
f 1068 1067 1066
f 1071 1070 1069
f 1074 1073 1072
f 1077 1076 1075

usemtl Patch_119_Mat_CR1_tablesEquipment
f 1080 1079 1078
f 1083 1082 1081

usemtl Patch_120_Mat_CR1_tablesEquipment
f 1086 1085 1084
f 1089 1088 1087

usemtl Patch_121_Mat_CR1_tablesEquipment
f 1092 1091 1090
f 1095 1094 1093

usemtl Patch_122_Mat_CR1_concrete
f 1098 1097 1096
f 1101 1100 1099
f 1104 1103 1102

usemtl Patch_123_Mat_CR1_concrete
f 1107 1106 1105
f 1110 1109 1108
f 1113 1112 1111
f 1116 1115 1114

usemtl Patch_124_Mat_CR1_concrete
f 1119 1118 1117
f 1122 1121 1120
f 1125 1124 1123

usemtl Patch_125_Mat_CR1_concrete
f 1128 1127 1126
f 1131 1130 1129
f 1134 1133 1132
f 1137 1136 1135

usemtl Patch_126_Mat_CR1_concrete
f 1140 1139 1138
f 1143 1142 1141
f 1146 1145 1144
f 1149 1148 1147

usemtl Patch_127_Mat_CR1_concrete
f 1152 1151 1150
f 1155 1154 1153
f 1158 1157 1156
f 1161 1160 1159

usemtl Patch_128_Mat_CR1_concrete
f 1164 1163 1162
f 1167 1166 1165
f 1170 1169 1168
f 1173 1172 1171
f 1176 1175 1174

usemtl Patch_129_Mat_CR1_concrete
f 1179 1178 1177
f 1182 1181 1180
f 1185 1184 1183
f 1188 1187 1186
f 1191 1190 1189

usemtl Patch_130_Mat_CR1_concrete
f 1194 1193 1192
f 1197 1196 1195
f 1200 1199 1198
f 1203 1202 1201
f 1206 1205 1204

usemtl Patch_131_Mat_CR1_concrete
f 1209 1208 1207
f 1212 1211 1210
f 1215 1214 1213
f 1218 1217 1216

usemtl Patch_132_Mat_CR1_concrete
f 1221 1220 1219
f 1224 1223 1222
f 1227 1226 1225
f 1230 1229 1228

usemtl Patch_133_Mat_CR1_concrete
f 1233 1232 1231
f 1236 1235 1234
f 1239 1238 1237
f 1242 1241 1240
f 1245 1244 1243

usemtl Patch_134_Mat_CR1_concrete
f 1248 1247 1246
f 1251 1250 1249
f 1254 1253 1252

usemtl Patch_135_Mat_CR1_concrete
f 1257 1256 1255
f 1260 1259 1258
f 1263 1262 1261

usemtl Patch_136_Mat_CR1_concrete
f 1266 1265 1264
f 1269 1268 1267

usemtl Patch_137_Mat_CR1_concrete
f 1272 1271 1270
f 1275 1274 1273
f 1278 1277 1276

usemtl Patch_138_Mat_CR1_absorber
f 1281 1280 1279
f 1284 1283 1282

usemtl Patch_139_Mat_CR1_concrete
f 1287 1286 1285
f 1290 1289 1288

usemtl Patch_140_Mat_CR1_paintedConcrete
f 1293 1292 1291
f 1296 1295 1294

usemtl Patch_141_Mat_CR1_paintedConcrete
f 1299 1298 1297
f 1302 1301 1300

usemtl Patch_142_Mat_CR1_paintedConcrete
f 1305 1304 1303
f 1308 1307 1306

usemtl Patch_143_Mat_CR1_paintedConcrete
f 1311 1310 1309
f 1314 1313 1312
f 1317 1316 1315

usemtl Patch_144_Mat_CR1_paintedConcrete
f 1320 1319 1318
f 1323 1322 1321
f 1326 1325 1324

usemtl Patch_145_Mat_CR1_paintedConcrete
f 1329 1328 1327
f 1332 1331 1330
f 1335 1334 1333

usemtl Patch_146_Mat_CR1_paintedConcrete
f 1338 1337 1336
f 1341 1340 1339

usemtl Patch_147_Mat_CR1_paintedConcrete
f 1344 1343 1342
f 1347 1346 1345
f 1350 1349 1348
f 1353 1352 1351
f 1356 1355 1354

usemtl Patch_148_Mat_CR1_paintedConcrete
f 1359 1358 1357
f 1362 1361 1360
f 1365 1364 1363

usemtl Patch_149_Mat_CR1_paintedConcrete
f 1368 1367 1366
f 1371 1370 1369
f 1374 1373 1372
f 1377 1376 1375

usemtl Patch_150_Mat_CR1_paintedConcrete
f 1380 1379 1378
f 1383 1382 1381
f 1386 1385 1384

usemtl Patch_151_Mat_CR1_paintedConcrete
f 1389 1388 1387
f 1392 1391 1390
f 1395 1394 1393

usemtl Patch_152_Mat_CR1_paintedConcrete
f 1398 1397 1396
f 1401 1400 1399
f 1404 1403 1402
f 1407 1406 1405

usemtl Patch_153_Mat_CR1_paintedConcrete
f 1410 1409 1408
f 1413 1412 1411
f 1416 1415 1414
f 1419 1418 1417

usemtl Patch_154_Mat_CR1_paintedConcrete
f 1422 1421 1420
f 1425 1424 1423
f 1428 1427 1426

usemtl Patch_155_Mat_CR1_paintedConcrete
f 1431 1430 1429
f 1434 1433 1432
f 1437 1436 1435

usemtl Patch_156_Mat_CR1_paintedConcrete
f 1440 1439 1438
f 1443 1442 1441
f 1446 1445 1444

usemtl Patch_157_Mat_CR1_paintedConcrete
f 1449 1448 1447
f 1452 1451 1450
f 1455 1454 1453
f 1458 1457 1456
f 1461 1460 1459

usemtl Patch_158_Mat_CR1_paintedConcrete
f 1464 1463 1462
f 1467 1466 1465
f 1470 1469 1468

usemtl Patch_159_Mat_CR1_paintedConcrete
f 1473 1472 1471
f 1476 1475 1474
f 1479 1478 1477
f 1482 1481 1480

usemtl Patch_160_Mat_CR1_paintedConcrete
f 1485 1484 1483
f 1488 1487 1486
f 1491 1490 1489
f 1494 1493 1492

usemtl Patch_161_Mat_CR1_paintedConcrete
f 1497 1496 1495
f 1500 1499 1498
f 1503 1502 1501
f 1506 1505 1504

usemtl Patch_162_Mat_CR1_paintedConcrete
f 1509 1508 1507
f 1512 1511 1510
f 1515 1514 1513
f 1518 1517 1516

usemtl Patch_163_Mat_CR1_paintedConcrete
f 1521 1520 1519
f 1524 1523 1522
f 1527 1526 1525

usemtl Patch_164_Mat_CR1_paintedConcrete
f 1530 1529 1528
f 1533 1532 1531

usemtl Patch_165_Mat_CR1_paintedConcrete
f 1536 1535 1534
f 1539 1538 1537
f 1542 1541 1540

usemtl Patch_166_Mat_CR1_concrete
f 1545 1544 1543
f 1548 1547 1546
f 1551 1550 1549
f 1554 1553 1552

usemtl Patch_167_Mat_CR1_paintedConcrete
f 1557 1556 1555
f 1560 1559 1558
f 1563 1562 1561

usemtl Patch_168_Mat_CR1_paintedConcrete
f 1566 1565 1564
f 1569 1568 1567

usemtl Patch_169_Mat_CR1_paintedConcrete
f 1572 1571 1570
f 1575 1574 1573
f 1578 1577 1576

usemtl Patch_170_Mat_CR1_paintedConcrete
f 1581 1580 1579
f 1584 1583 1582
f 1587 1586 1585

usemtl Patch_171_Mat_CR1_paintedConcrete
f 1590 1589 1588
f 1593 1592 1591
f 1596 1595 1594
f 1599 1598 1597

usemtl Patch_172_Mat_CR1_paintedConcrete
f 1602 1601 1600
f 1605 1604 1603

usemtl Patch_173_Mat_CR1_paintedConcrete
f 1608 1607 1606
f 1611 1610 1609
f 1614 1613 1612

usemtl Patch_174_Mat_CR1_paintedConcrete
f 1617 1616 1615
f 1620 1619 1618
f 1623 1622 1621

usemtl Patch_175_Mat_CR1_paintedConcrete
f 1626 1625 1624
f 1629 1628 1627

usemtl Patch_176_Mat_CR1_paintedConcrete
f 1632 1631 1630
f 1635 1634 1633

usemtl Patch_177_Mat_CR1_paintedConcrete
f 1638 1637 1636
f 1641 1640 1639
f 1644 1643 1642
f 1647 1646 1645

usemtl Patch_178_Mat_CR1_concrete
f 1650 1649 1648
f 1653 1652 1651

usemtl Patch_179_Mat_CR1_concrete
f 1656 1655 1654
f 1659 1658 1657

usemtl Patch_180_Mat_CR1_tablesEquipment
f 1662 1661 1660
f 1665 1664 1663

usemtl Patch_181_Mat_CR1_tablesEquipment
f 1668 1667 1666
f 1671 1670 1669

usemtl Patch_182_Mat_CR1_absorber
f 1674 1673 1672
f 1677 1676 1675

usemtl Patch_183_Mat_CR1_absorber
f 1680 1679 1678
f 1683 1682 1681

usemtl Patch_184_Mat_CR1_absorber
f 1686 1685 1684
f 1689 1688 1687

usemtl Patch_185_Mat_CR1_absorber
f 1692 1691 1690
f 1695 1694 1693

usemtl Patch_186_Mat_CR1_absorber
f 1698 1697 1696
f 1701 1700 1699

