mtllib mesh.mtl

v 0.50511646 -0.04202657 2.19000005
v 0.5051164596277384 -0.04202656480667753 0.05000000000000022
v 0.57474423 -0.03703559 0.04999999999999982
v 0.57474423 -0.03703559 0.04999999999999982
v 0.5799244896277385 -0.036664264806677546 0.049999999999999996
v 0.57992449 -0.03666427000000001 2.19000005
v 0.57992449 -0.03666427000000001 2.19000005
v 0.50511646 -0.04202657 2.19000005
v 0.57474423 -0.03703559 0.04999999999999982
v 0.71175922 -1.52889796 2.21999996
v 0.59950822 0.03708404 0.05
v 0.71175922 -1.5288979600000001 0.050000000000000044
v 0.59950822 0.03708404 0.05
v 0.71175922 -1.52889796 2.21999996
v 0.59950822 0.03708404000000021 2.2199999600000004
v 0.59950822 0.03708404 2.21999996
v 0.569585 0.03493912 2.21999996
v 0.569585 0.03493912 0.05000000000000013
v 0.569585 0.03493912 0.05000000000000013
v 0.59950822 0.03708404 0.04999999999999982
v 0.59950822 0.03708404 2.21999996
v 0.60735779 -1.4683668599999997 0.04999999999999963
v 0.50511646 -0.04202657 2.19000005
v 0.60735779 -1.4683668599999997 2.19000005
v 0.50511646 -0.04202657 2.19000005
v 0.60735779 -1.4683668599999997 0.04999999999999963
v 0.50511646 -0.042026570000000096 0.0499999999999996
v 0.60735779 -1.46836686 2.1900000500000005
v 0.67698557 -1.46337589 0.05
v 0.6073577874990862 -1.468366825110129 0.05000000000000057
v 0.67698557 -1.46337589 0.05
v 0.60735779 -1.46836686 2.1900000500000005
v 0.68216587 -1.4630046 2.1900000500000005
v 0.67698557 -1.46337589 0.05
v 0.68216587 -1.4630046 2.1900000500000005
v 0.6821658674990863 -1.463004565110129 0.05000000000000057
v 0.6769855692235018 -1.46337589005566 0.04999999999999983
v 0.681836 -1.5310428800000002 2.21999996
v 0.681836 -1.53104288 0.049999999999999836
v 0.681836 -1.5310428800000002 2.21999996
v 0.6769855692235018 -1.46337589005566 0.04999999999999983
v 0.5747442121212548 -0.037035591281564306 0.04999999999999982
v 0.5747442121212548 -0.037035591281564306 0.04999999999999982
v 0.569585 0.03493912000000021 0.04999999999999971
v 0.569585 0.03493912 2.21999996
v 0.681836 -1.5310428800000002 2.21999996
v 0.5747442121212548 -0.037035591281564306 0.04999999999999982
v 0.569585 0.03493912 2.21999996
v 0.57992449 -0.03666426999999972 2.19000005
v 0.60735779 -1.46836686 2.19000005
v 0.50511646 -0.042026569999999756 2.19000005
v 0.60735779 -1.46836686 2.19000005
v 0.57992449 -0.03666426999999972 2.19000005
v 0.68216587 -1.4630046 2.19000005
v 0.681836 -1.53104288 2.21999996
v 0.71175922 -1.52889796 2.21999996
v 0.71175922 -1.52889796 0.05000000000000013
v 0.71175922 -1.52889796 0.05000000000000013
v 0.681836 -1.53104288 0.04999999999999982
v 0.681836 -1.53104288 2.21999996
v 0.59950822 0.03708404000000021 2.21999996
v 0.71175922 -1.52889796 2.21999996
v 0.681836 -1.53104288 2.21999996
v 0.681836 -1.53104288 2.21999996
v 0.569585 0.03493911999999999 2.21999996
v 0.59950822 0.03708404000000021 2.21999996
v 0.68216587 -1.4630046000000003 0.05
v 0.6818360000000001 -1.5310428800000002 0.05
v 0.71175922 -1.5288979600000001 0.050000000000000024
v 0.57992449 -0.03666427000000002 0.04999999999999999
v 0.569585 0.03493912 0.04999999999999998
v 0.57474423 -0.03703559 0.04999999999999998
v 0.6818360000000001 -1.5310428800000002 0.05
v 0.68216587 -1.4630046000000003 0.05
v 0.6769855700000001 -1.4633758900000002 0.049999999999999996
v 0.569585 0.03493912 0.04999999999999998
v 0.57992449 -0.03666427000000002 0.04999999999999999
v 0.59950822 0.03708404 0.05
v 0.57992449 -0.03666427000000002 0.04999999999999999
v 0.68216587 -1.4630046000000003 0.05
v 0.71175922 -1.5288979600000001 0.050000000000000024
v 0.71175922 -1.5288979600000001 0.050000000000000024
v 0.59950822 0.03708404 0.05
v 0.57992449 -0.03666427000000002 0.04999999999999999
v 0.60735779 -1.46836686 0.05
v 0.57474423 -0.03703559 0.05
v 0.50511646 -0.04202657 0.04999999999999999
v 0.57474423 -0.03703559 0.05
v 0.60735779 -1.46836686 0.05
v 0.67698557 -1.4633758900000002 0.05000000000000002
v 4.2101327678368765 -4.896935652061521 2.73600005
v 4.653634279618338 -6.15999997 2.73600005
v 6.101738019999999 -6.15999997 2.73600005
v 4.2101327678368765 -4.896935652061521 2.73600005
v 6.10173802 -3.90599995 2.73600005
v 4.4944207208027915 -3.90599995 2.73600005
v 6.10173802 -3.90599995 2.73600005
v 4.2101327678368765 -4.896935652061521 2.73600005
v 6.101738019999999 -6.15999997 2.73600005
v 2.079160751849807 -3.90599995 2.73600005
v 4.2101327678368765 -4.896935652061521 2.73600005
v 4.4944207208027915 -3.90599995 2.73600005
v 4.2101327678368765 -4.896935652061521 2.73600005
v 2.079160751849807 -3.90599995 2.73600005
v 2.51076562273966 -5.172890374161471 2.73600005
v 2.51076562273966 -5.172890374161471 2.73600005
v 2.079160751849807 -3.90599995 2.73600005
v 0.5707378400000009 -3.90599995 2.73600005
v 2.51076562273966 -5.172890374161471 2.73600005
v 0.5707378400000005 -6.15999997 2.73600005
v 2.2314238113006937 -6.159999969999999 2.73600005
v 0.5707378400000005 -6.15999997 2.73600005
v 2.51076562273966 -5.172890374161471 2.73600005
v 0.5707378400000009 -3.90599995 2.73600005
v 4.653634279618338 -6.15999997 2.73600005
v 2.51076562273966 -5.172890374161471 2.73600005
v 2.2314238113006937 -6.159999969999999 2.73600005
v 2.51076562273966 -5.172890374161471 2.73600005
v 4.653634279618338 -6.15999997 2.73600005
v 4.2101327678368765 -4.896935652061521 2.73600005
v 6.101738020000001 0.93000002 2.73600005
v 0.57073784 0.93000002 2.73600005
v 0.57073784 0.93000002 2.27600003
v 0.57073784 0.93000002 2.27600003
v 6.101738020000001 0.93000002 2.27600003
v 6.101738020000001 0.93000002 2.73600005
v 0.5707378400000005 0.49900002000000004 2.27600003
v 6.10173802 0.93000002 2.27600003
v 0.5707378400000008 0.9300000200000001 2.27600003
v 6.10173802 0.93000002 2.27600003
v 0.5707378400000005 0.49900002000000004 2.27600003
v 6.10173802 0.49900001999999993 2.27600003
v 0.5707378399999999 0.49900002 2.73600005
v 6.10173802 0.49900002 2.73600005
v 6.10173802 0.49900002 2.27600003
v 6.10173802 0.49900002 2.27600003
v 0.5707378399999996 0.49900002 2.27600003
v 0.5707378399999999 0.49900002 2.73600005
v 3.2123191924473486 0.93000002 2.73600005
v 6.10173802 0.9300000199999999 2.73600005
v 6.10173802 1.90299993 2.73600005
v 6.10173802 1.90299993 2.73600005
v 3.272923289295225 2.1628151237138478 2.73600005
v 3.2123191924473486 0.93000002 2.73600005
v 3.272923289295225 2.1628151237138478 2.73600005
v 0.5707378399999992 2.41099993 2.73600005
v 0.5707378399999996 0.9300000199999999 2.73600005
v 0.5707378399999996 0.9300000199999999 2.73600005
v 3.2123191924473486 0.93000002 2.73600005
v 3.272923289295225 2.1628151237138478 2.73600005
v 6.101738020000001 -3.48300019 2.73600005
v 0.57073784 -3.48300019 2.73600005
v 0.57073784 -3.48300019 2.27600003
v 0.57073784 -3.48300019 2.27600003
v 6.101738020000001 -3.48300019 2.27600003
v 6.101738020000001 -3.48300019 2.73600005
v 6.10173802 -3.90599995 2.27600003
v 6.10173802 -3.48300019 2.27600003
v 0.5707378399999998 -3.48300019 2.27600003
v 0.5707378399999998 -3.48300019 2.27600003
v 0.5707378399999996 -3.90599995 2.27600003
v 6.10173802 -3.90599995 2.27600003
v 0.5707378399999999 -3.90599995 2.73600005
v 6.10173802 -3.90599995 2.73600005
v 6.10173802 -3.90599995 2.27600003
v 6.10173802 -3.90599995 2.27600003
v 0.5707378399999996 -3.90599995 2.27600003
v 0.5707378399999999 -3.90599995 2.73600005
v 4.298417799281422 -1.4752412152183472 2.73600005
v 6.10173802 -1.53126947623081 2.73600005
v 6.10173802 0.49900002 2.73600005
v 6.10173802 0.49900002 2.73600005
v 4.318422917689454 0.4990000200000001 2.73600005
v 4.298417799281422 -1.4752412152183472 2.73600005
v 2.468499941201795 -1.4334619711975187 2.73600005
v 4.228552170570533 -1.5361955231253204 2.73600005
v 4.298417799281422 -1.4752412152183472 2.73600005
v 2.468499941201795 -1.4334619711975187 2.73600005
v 4.318422917689454 0.4990000200000001 2.73600005
v 2.457314784004857 0.4990000200000002 2.73600005
v 4.318422917689454 0.4990000200000001 2.73600005
v 2.468499941201795 -1.4334619711975187 2.73600005
v 4.298417799281422 -1.4752412152183472 2.73600005
v 4.298417799281422 -1.4752412152183472 2.73600005
v 4.228552170570533 -1.5361955231253204 2.73600005
v 4.2096072560581845 -3.48300019 2.73600005
v 4.298417799281422 -1.4752412152183472 2.73600005
v 6.101738020000001 -3.4830001900000003 2.73600005
v 6.10173802 -1.53126947623081 2.73600005
v 6.101738020000001 -3.4830001900000003 2.73600005
v 4.298417799281422 -1.4752412152183472 2.73600005
v 4.2096072560581845 -3.48300019 2.73600005
v 2.372576152398557 -1.5186840376285977 2.73600005
v 2.468499941201795 -1.4334619711975187 2.73600005
v 2.457314784004857 0.4990000200000002 2.73600005
v 2.372576152398557 -1.5186840376285977 2.73600005
v 0.5707378400000003 0.49900002 2.73600005
v 0.5707378400000008 -1.4655277482854612 2.73600005
v 0.5707378400000003 0.49900002 2.73600005
v 2.372576152398557 -1.5186840376285977 2.73600005
v 2.457314784004857 0.4990000200000002 2.73600005
v 4.228552170570533 -1.5361955231253204 2.73600005
v 2.468499941201795 -1.4334619711975187 2.73600005
v 2.372576152398557 -1.5186840376285977 2.73600005
v 4.228552170570533 -1.5361955231253204 2.73600005
v 2.378850877958548 -3.4830001900000003 2.73600005
v 4.2096072560581845 -3.48300019 2.73600005
v 2.378850877958548 -3.4830001900000003 2.73600005
v 4.228552170570533 -1.5361955231253204 2.73600005
v 2.372576152398557 -1.5186840376285977 2.73600005
v 2.372576152398557 -1.5186840376285977 2.73600005
v 0.5707378400000008 -1.4655277482854612 2.73600005
v 0.5707378400000005 -3.4830001900000003 2.73600005
v 0.5707378400000005 -3.4830001900000003 2.73600005
v 2.378850877958548 -3.4830001900000003 2.73600005
v 2.372576152398557 -1.5186840376285977 2.73600005
v -1.86360582 1.6683718100000002 0.0
v -2.366424011664105 0.8286307788241536 0.0
v -1.9495341893102809 1.7811688980894789 0.0
v -1.74129991 1.7145899200000003 0.0
v -1.9036642682297045 1.885975602437032 0.0
v -1.6948081534272086 2.3631842079812184 0.0
v -0.05112377 2.49574572 0.0
v -1.5885585418319286 2.6059505212248713 0.0
v -1.5624106129379882 2.6656950812400075 0.0
v -1.74129991 1.7145899200000003 0.0
v -2.366424011664105 0.8286307788241536 0.0
v -1.86360582 1.6683718100000002 0.0
v -1.9036642682297045 1.885975602437032 0.0
v -1.74129991 1.7145899200000003 0.0
v -1.78405854 1.7289706300000003 0.0
v -0.05112377 2.49574572 0.0
v -1.5624106129379882 2.6656950812400075 0.0
v -0.00026213999999999404 2.52300007 0.0
v -2.366424011664105 0.8286307788241536 0.0
v -1.74129991 1.7145899200000003 0.0
v -1.814470340415929 -0.07004984222631988 0.0
v -1.86360582 1.6683718100000002 0.0
v -1.78405854 1.7289706300000003 0.0
v -1.74129991 1.7145899200000003 0.0
v -0.1154714599999998 1.5980490699999998 0.0
v -0.05112377 2.49574572 0.0
v -0.00026213999999999404 2.52300007 0.0
v -1.814470340415929 -0.07004984222631988 0.0
v -1.74129991 1.7145899200000003 0.0
v -0.00026213999999979976 0.1785035087867861 0.0
v -0.1154714599999998 1.5980490699999998 0.0
v -0.00026213999999999404 2.52300007 0.0
v -0.00026213999999979976 0.1785035087867861 0.0
v -0.00026213999999979976 0.1785035087867861 0.0
v -1.74129991 1.7145899200000003 0.0
v -0.1154714599999998 1.5980490699999998 0.0
v -1.814470340415929 -0.07004984222631988 0.0
v -0.7666031657240551 -1.9833576200000005 0.0
v -2.036409559885839 -0.9092629861188579 0.0
v -0.7666031657240551 -1.9833576200000005 0.0
v -1.814470340415929 -0.07004984222631988 0.0
v -0.00026213999999979976 0.1785035087867861 0.0
v -0.012714849999999167 -1.98335762 0.0
v -0.00026213999999935567 -2.6315846152629545 0.0
v -0.012714849999999167 -2.6210512071388696 0.0
v -0.7666031657240551 -1.9833576200000005 0.0
v -0.00026213999999979976 0.1785035087867861 0.0
v -0.012714849999999167 -1.98335762 0.0
v -0.00026213999999935567 -2.6315846152629545 0.0
v -0.012714849999999167 -1.98335762 0.0
v -0.00026213999999979976 0.1785035087867861 0.0
v -4.451073112366974 2.54724560642703 0.0
v -4.347587836481614 2.1019377693854295 0.0
v -4.42231185 2.0587958500000005 0.0
v -4.42231185 2.0587958500000005 0.0
v -4.3723118 1.9721931900000007 0.0
v -4.38912512 1.9767803100000005 0.0
v -4.35215024 1.8838671800000004 0.0
v -4.38912512 1.9767803100000005 0.0
v -4.3723118 1.9721931900000007 0.0
v -4.35215024 1.8838671800000004 0.0
v -4.323928114245579 2.0001275394392386 0.0
v -4.032739807402889 0.747114161617551 0.0
v -5.28128268 1.5141203700000005 0.0
v -5.34190068 0.44362525886235327 0.0
v -5.34190068 1.478813800000001 0.0
v -5.441900389999999 1.4788138000000006 0.0
v -5.441900389999999 0.4319454214569336 0.0
v -6.25126223 0.3374130003793958 0.0
v -6.03711328 3.050918810000001 0.0
v -4.541846462933723 2.937852715081576 0.0
v -4.531343201964163 2.8926560976476177 0.0
v -4.510118119999999 1.9854677600000006 0.0
v -4.451073112366974 2.54724560642703 0.0
v -4.42231185 2.0587958500000005 0.0
v -4.323928114245579 2.0001275394392386 0.0
v -4.35215024 1.8838671800000004 0.0
v -4.3723118 1.9721931900000007 0.0
v -5.34190068 0.44362525886235327 0.0
v -5.28128268 1.5141203700000005 0.0
v -4.1500594162535105 0.5828307842946707 0.0
v -4.541846462933723 2.937852715081576 0.0
v -6.03711328 3.050918810000001 0.0
v -6.25126223 3.093999910000001 0.0
v -4.510118119999999 1.9854677600000006 0.0
v -4.42231185 2.0587958500000005 0.0
v -4.38912512 1.9767803100000005 0.0
v -5.28128268 1.5141203700000005 0.0
v -4.35215024 1.8838671800000004 0.0
v -4.032739807402889 0.747114161617551 0.0
v -6.25126223 3.093999910000001 0.0
v -6.03711328 3.050918810000001 0.0
v -6.13118894 2.155849220000001 0.0
v -4.510118119999999 1.9854677600000006 0.0
v -4.38912512 1.9767803100000005 0.0
v -5.318257549999999 1.6070335900000008 0.0
v -4.1500594162535105 0.5828307842946707 0.0
v -5.28128268 1.5141203700000005 0.0
v -4.032739807402889 0.747114161617551 0.0
v -6.25126223 0.3374130003793958 0.0
v -6.25126223 3.093999910000001 0.0
v -6.13118894 2.155849220000001 0.0
v -6.13118894 2.155849220000001 0.0
v -4.510118119999999 1.9854677600000006 0.0
v -5.318257549999999 1.6070335900000008 0.0
v -5.318257549999999 1.6070335900000008 0.0
v -5.28128268 1.5141203700000005 0.0
v -5.34190068 1.478813800000001 0.0
v -5.441900389999999 1.4788138000000006 0.0
v -6.25126223 0.3374130003793958 0.0
v -6.13118894 2.155849220000001 0.0
v -5.441900389999999 1.4788138000000006 0.0
v -5.318257549999999 1.6070335900000008 0.0
v -5.34190068 1.478813800000001 0.0
v -5.318257549999999 1.6070335900000008 0.0
v -5.441900389999999 1.4788138000000006 0.0
v -6.13118894 2.155849220000001 0.0
v -2.3900469400000004 2.5244441700000007 0.0
v -1.6948081534272086 2.3631842079812184 0.0
v -1.9036642682297045 1.885975602437032 0.0
v -2.5087414400000005 2.4619983700000003 0.0
v -1.9495341893102809 1.7811688980894789 0.0
v -2.366424011664105 0.8286307788241536 0.0
v -3.5087416400000007 2.4619983700000008 0.0
v -4.032739807402889 0.747114161617551 0.0
v -4.323928114245579 2.0001275394392386 0.0
v -4.323928114245579 2.0001275394392386 0.0
v -3.5087416400000007 2.4707759300000003 0.0
v -3.5087416400000007 2.4619983700000008 0.0
v -3.50874164 2.561998270000001 0.0
v -3.5087416400000007 2.4707759300000003 0.0
v -3.5562864200000006 2.5587957500000003 0.0
v -3.5562864200000006 2.5587957500000003 0.0
v -4.347587836481614 2.1019377693854295 0.0
v -4.451073112366974 2.54724560642703 0.0
v -4.41604285 2.8805375500000006 0.0
v -4.531343201964163 2.8926560976476177 0.0
v -4.541846462933723 2.937852715081576 0.0
v -1.67695229 2.6122866700000005 0.0
v -1.5624106129379882 2.6656950812400075 0.0
v -1.5885585418319286 2.6059505212248713 0.0
v -1.6948081534272086 2.3631842079812184 0.0
v -2.3900469400000004 2.5244441700000007 0.0
v -1.67695229 2.6122866700000005 0.0
v -4.032739807402889 0.747114161617551 0.0
v -3.5087416400000007 2.4619983700000008 0.0
v -2.366424011664105 0.8286307788241536 0.0
v -2.366424011664105 0.8286307788241536 0.0
v -3.5087416400000007 2.4619983700000008 0.0
v -2.5087414400000005 2.4619983700000003 0.0
v -4.41604285 2.8805375500000006 0.0
v -3.5562864200000006 2.5587957500000003 0.0
v -4.451073112366974 2.54724560642703 0.0
v -2.5087414400000005 2.56199827 0.0
v -4.541846462933723 2.937852715081576 0.0
v -1.5624106129379882 2.6656950812400075 0.0
v -1.9495341893102809 1.7811688980894789 0.0
v -2.5087414400000005 2.4619983700000003 0.0
v -2.4695942200000003 2.4638451500000005 0.0
v -3.5562864200000006 2.5587957500000003 0.0
v -4.41604285 2.8805375500000006 0.0
v -3.50874164 2.561998270000001 0.0
v -2.5087414400000005 2.56199827 0.0
v -1.5624106129379882 2.6656950812400075 0.0
v -1.67695229 2.6122866700000005 0.0
v -2.5087414400000005 2.56199827 0.0
v -2.4695942200000003 2.4638451500000005 0.0
v -2.5087414400000005 2.4619983700000003 0.0
v -2.5087414400000005 2.56199827 0.0
v -3.50874164 2.561998270000001 0.0
v -4.41604285 2.8805375500000006 0.0
v -2.4695942200000003 2.4638451500000005 0.0
v -2.5087414400000005 2.56199827 0.0
v -2.3900469400000004 2.5244441700000007 0.0
v -4.541846462933723 2.937852715081576 0.0
v -2.5087414400000005 2.56199827 0.0
v -4.41604285 2.8805375500000006 0.0
v -1.67695229 2.6122866700000005 0.0
v -2.3900469400000004 2.5244441700000007 0.0
v -2.5087414400000005 2.56199827 0.0
v -4.1500594162535105 0.5828307842946707 0.0
v -2.036409559885839 -0.9092629861188579 0.0
v -2.996406857690817 -1.5117032250456668 0.0
v -2.996406857690817 -1.5117032250456668 0.0
v -4.004426231431481 -1.2263019856968336 0.0
v -4.1500594162535105 0.5828307842946707 0.0
v -4.1500594162535105 0.5828307842946707 0.0
v -4.032739807402889 0.747114161617551 0.0
v -2.366424011664105 0.8286307788241536 0.0
v -2.036409559885839 -0.9092629861188579 0.0
v -2.366424011664105 0.8286307788241536 0.0
v -1.814470340415929 -0.07004984222631988 0.0
v -2.036409559885839 -0.9092629861188579 0.0
v -4.1500594162535105 0.5828307842946707 0.0
v -2.366424011664105 0.8286307788241536 0.0
v -0.012714849999998723 -3.6133573500000002 0.0
v -0.012714849999999167 -2.6210512071388696 0.0
v -0.00026213999999935567 -2.6315846152629545 0.0
v -0.012714849999998723 -3.6133573500000002 0.0
v -2.4692391737123005 -3.647999810000001 0.0
v -2.4777877926326033 -3.6133573500000002 0.0
v -0.012714849999998723 -3.6133573500000002 0.0
v -0.00026213999999935567 -2.6315846152629545 0.0
v -0.0002621399999989116 -3.647999810000001 0.0
v -2.4692391737123005 -3.647999810000001 0.0
v -0.012714849999998723 -3.6133573500000002 0.0
v -0.0002621399999989116 -3.647999810000001 0.0
v -0.9127148299999994 -1.9833576200000005 0.0
v -2.036409559885839 -0.9092629861188579 0.0
v -0.7666031657240551 -1.9833576200000005 0.0
v -0.9127148299999994 -1.9833576200000005 0.0
v -0.9127148299999983 -2.7983574899999994 0.0
v -2.6789029335100105 -2.7983574899999994 0.0
v -2.6789029335100105 -2.7983574899999994 0.0
v -2.036409559885839 -0.9092629861188579 0.0
v -0.9127148299999994 -1.9833576200000005 0.0
v -2.036409559885839 -0.9092629861188579 0.0
v -2.6789029335100105 -2.7983574899999994 0.0
v -2.996406857690817 -1.5117032250456668 0.0
v -5.34190068 -0.09118617999999934 0.0
v -4.371965225000707 -1.4703464174384921 0.0
v -6.251262229999998 -1.0874204928505546 0.0
v -5.441900389999999 -0.0911861799999989 0.0
v -6.25126223 0.3374130003793958 0.0
v -5.441900389999999 0.4319454214569336 0.0
v -5.34190068 -0.09118617999999934 0.0
v -5.34190068 0.44362525886235327 0.0
v -4.1500594162535105 0.5828307842946707 0.0
v -5.34190068 -0.09118617999999934 0.0
v -4.004426231431481 -1.2263019856968336 0.0
v -4.371965225000707 -1.4703464174384921 0.0
v -6.25126223 0.3374130003793958 0.0
v -5.441900389999999 -0.0911861799999989 0.0
v -6.251262229999998 -1.0874204928505546 0.0
v -4.004426231431481 -1.2263019856968336 0.0
v -5.34190068 -0.09118617999999934 0.0
v -4.1500594162535105 0.5828307842946707 0.0
v -6.251262229999998 -1.0874204928505546 0.0
v -5.441900389999999 -0.0911861799999989 0.0
v -5.34190068 -0.09118617999999934 0.0
v -4.52168292 -3.0531010499999995 0.0
v -4.7355524935589095 -3.0531010499999995 0.0
v -4.371965225000707 -1.4703464174384921 0.0
v -4.371965225000707 -1.4703464174384921 0.0
v -4.004426231431481 -1.2263019856968336 0.0
v -2.996406857690817 -1.5117032250456668 0.0
v -2.996406857690817 -1.5117032250456668 0.0
v -2.6789029335100105 -2.7983574899999994 0.0
v -2.8027147799999996 -2.7983574899999994 0.0
v -2.8027147799999996 -3.6133573500000002 0.0
v -2.4777877926326033 -3.6133573500000002 0.0
v -2.4692391737123005 -3.647999810000001 0.0
v -4.52168292 -3.6231009399999996 0.0
v -4.872211461896289 -3.6479998100000004 0.0
v -4.866491742650334 -3.62310094 0.0
v -2.8027147799999996 -2.7983574899999994 0.0
v -4.52168292 -3.0531010499999995 0.0
v -4.371965225000707 -1.4703464174384921 0.0
v -4.371965225000707 -1.4703464174384921 0.0
v -2.996406857690817 -1.5117032250456668 0.0
v -2.8027147799999996 -2.7983574899999994 0.0
v -4.872211461896289 -3.6479998100000004 0.0
v -4.52168292 -3.6231009399999996 0.0
v -2.4692391737123005 -3.647999810000001 0.0
v -2.8027147799999996 -3.6133573500000002 0.0
v -4.52168292 -3.0531010499999995 0.0
v -2.8027147799999996 -2.7983574899999994 0.0
v -2.8027147799999996 -3.6133573500000002 0.0
v -2.4692391737123005 -3.647999810000001 0.0
v -4.52168292 -3.6231009399999996 0.0
v -4.52168292 -3.0531010499999995 0.0
v -2.8027147799999996 -3.6133573500000002 0.0
v -4.52168292 -3.6231009399999996 0.0
v -6.251262229999999 -2.1870000399999987 0.0
v -4.7355524935589095 -3.0531010499999995 0.0
v -6.15168304 -3.05310105 0.0
v -6.15168304 -3.62310094 0.0
v -4.866491742650334 -3.62310094 0.0
v -4.872211461896289 -3.6479998100000004 0.0
v -4.371965225000707 -1.4703464174384921 0.0
v -6.251262229999999 -1.1499999599999997 0.0
v -6.251262229999998 -1.0874204928505546 0.0
v -4.7355524935589095 -3.0531010499999995 0.0
v -6.251262229999999 -2.1870000399999987 0.0
v -4.371965225000707 -1.4703464174384921 0.0
v -6.15168304 -3.62310094 0.0
v -4.872211461896289 -3.6479998100000004 0.0
v -6.25126223 -3.647999810000001 0.0
v -4.371965225000707 -1.4703464174384921 0.0
v -6.251262229999999 -2.1870000399999987 0.0
v -6.251262229999999 -1.1499999599999997 0.0
v -6.15168304 -3.05310105 0.0
v -6.15168304 -3.62310094 0.0
v -6.25126223 -3.647999810000001 0.0
v -6.25126223 -3.647999810000001 0.0
v -6.251262229999999 -2.1870000399999987 0.0
v -6.15168304 -3.05310105 0.0
v -4.232061729144868 -3.64799981 1.7086656784870053
v -4.506804585167043 -3.64799981 2.76800004
v -6.25126223 -3.64799981 2.76800004
v -4.232061729144868 -3.64799981 1.7086656784870053
v -6.25126223 -3.64799981 0.0
v -5.035011378694155 -3.64799981 2.220446049250313e-16
v -6.25126223 -3.64799981 0.0
v -4.232061729144868 -3.64799981 1.7086656784870053
v -6.25126223 -3.64799981 2.76800004
v -4.232061729144868 -3.64799981 1.7086656784870053
v -2.4867869003568184 -3.64799981 0.9909349658128462
v -2.0354138365830714 -3.64799981 1.5844799295845782
v -4.232061729144868 -3.64799981 1.7086656784870053
v -2.025246116434225 -3.64799981 2.76800004
v -4.506804585167043 -3.64799981 2.76800004
v -2.025246116434225 -3.64799981 2.76800004
v -4.232061729144868 -3.64799981 1.7086656784870053
v -2.0354138365830714 -3.64799981 1.5844799295845782
v -2.4879303689721697 -3.64799981 -3.3306690738754696e-16
v -4.232061729144868 -3.64799981 1.7086656784870053
v -5.035011378694155 -3.64799981 2.220446049250313e-16
v -4.232061729144868 -3.64799981 1.7086656784870053
v -2.4879303689721697 -3.64799981 -3.3306690738754696e-16
v -2.4867869003568184 -3.64799981 0.9909349658128462
v -2.0354138365830714 -3.64799981 1.5844799295845782
v -0.0002621399999999663 -3.64799981 1.075227050297746
v -0.0002621400000000218 -3.64799981 2.7680000400000004
v -0.0002621400000000218 -3.64799981 2.7680000400000004
v -2.025246116434225 -3.64799981 2.76800004
v -2.0354138365830714 -3.64799981 1.5844799295845782
v -0.0002621399999992172 -3.64799981 -1.3143899093220044e-16
v -2.4867869003568184 -3.64799981 0.9909349658128462
v -2.4879303689721697 -3.64799981 -3.3306690738754696e-16
v -2.0354138365830714 -3.64799981 1.5844799295845782
v -0.0002621399999992172 -3.64799981 -1.3143899093220044e-16
v -0.0002621399999999663 -3.64799981 1.075227050297746
v -0.0002621399999992172 -3.64799981 -1.3143899093220044e-16
v -2.0354138365830714 -3.64799981 1.5844799295845782
v -2.4867869003568184 -3.64799981 0.9909349658128462
v -2.2253583461702213 0.93000002 2.76800004
v -0.0002621400000000218 0.93000002 2.76800004
v -0.00026214 2.52300007 2.76800004
v -0.00026214 2.52300007 2.76800004
v -2.143057574888237 2.7187344857507303 2.76800004
v -2.2253583461702213 0.93000002 2.76800004
v -2.2253583461702213 0.93000002 2.76800004
v -4.211936306297875 2.9077169537727885 2.76800004
v -4.312414222537974 0.9300000200000003 2.76800004
v -4.211936306297875 2.9077169537727885 2.76800004
v -2.2253583461702213 0.93000002 2.76800004
v -2.143057574888237 2.7187344857507303 2.76800004
v -4.211936306297875 2.9077169537727885 2.76800004
v -6.251262229999999 3.09399991 2.76800004
v -6.25126223 0.9300000200000001 2.76800004
v -6.25126223 0.9300000200000001 2.76800004
v -4.312414222537974 0.9300000200000003 2.76800004
v -4.211936306297875 2.9077169537727885 2.76800004
v -6.25126223 1.127942379244172 1.227459371621935
v -6.25126223 3.09399991 1.58206808192357
v -6.25126223 3.09399991 -4.440892098500626e-16
v -6.25126223 3.09399991 -4.440892098500626e-16
v -6.25126223 1.0942661403002911 -2.220446049250313e-16
v -6.25126223 1.127942379244172 1.227459371621935
v -6.25126223 0.9300000199999998 2.27600003
v -6.25126223 0.6370969806247777 1.909257927347547
v -6.25126223 0.6451246783110162 2.27600003
v -6.25126223 0.9300000199999998 2.27600003
v -6.25126223 0.93000002 2.7680000400000004
v -6.25126223 3.09399991 2.76800004
v -6.25126223 0.9300000199999998 2.27600003
v -6.25126223 3.09399991 1.58206808192357
v -6.25126223 1.127942379244172 1.227459371621935
v -6.25126223 0.6370969806247777 1.909257927347547
v -6.25126223 0.9300000199999998 2.27600003
v -6.25126223 1.127942379244172 1.227459371621935
v -6.25126223 3.09399991 1.58206808192357
v -6.25126223 0.9300000199999998 2.27600003
v -6.25126223 3.09399991 2.76800004
v -6.25126223 0.6370969806247777 1.909257927347547
v -6.25126223 -1.1499999599999997 1.001054023558281
v -6.25126223 -1.1499999599999993 2.03299994
v -6.25126223 -1.1499999599999993 2.03299994
v -6.25126223 -1.8330891543867303 2.03299994
v -6.25126223 -2.0652661925815687 2.768000039999999
v -6.25126223 -1.1499999599999993 2.03299994
v -6.25126223 0.49900002 2.7680000400000004
v -6.25126223 0.49900002000000004 2.27600003
v -6.25126223 0.49900002000000004 2.27600003
v -6.25126223 0.6451246783110162 2.27600003
v -6.25126223 0.6370969806247777 1.909257927347547
v -6.25126223 0.49900002 2.7680000400000004
v -6.25126223 -1.1499999599999993 2.03299994
v -6.25126223 -2.0652661925815687 2.768000039999999
v -6.25126223 -1.1499999599999993 2.03299994
v -6.25126223 0.49900002000000004 2.27600003
v -6.25126223 0.6370969806247777 1.909257927347547
v -6.25126223 -1.1499999599999997 1.001054023558281
v -6.25126223 1.127942379244172 1.227459371621935
v -6.25126223 1.0942661403002911 -2.220446049250313e-16
v -6.25126223 1.0942661403002911 -2.220446049250313e-16
v -6.25126223 -1.1499999600000002 -1.1102230246251565e-16
v -6.25126223 -1.1499999599999997 1.001054023558281
v -6.25126223 1.127942379244172 1.227459371621935
v -6.25126223 -1.1499999599999997 1.001054023558281
v -6.25126223 0.6370969806247777 1.909257927347547
v -6.25126223 -2.18700004 2.03299994
v -6.25126223 -2.187000039999999 6.111156783719877e-16
v -6.25126223 -3.64799981 -3.3306690738754696e-16
v -6.25126223 -2.18700004 2.03299994
v -6.25126223 -3.647999810000001 2.76800004
v -6.25126223 -2.0652661925815687 2.768000039999999
v -6.25126223 -2.0652661925815687 2.768000039999999
v -6.25126223 -1.8330891543867303 2.03299994
v -6.25126223 -2.18700004 2.03299994
v -6.25126223 -3.647999810000001 2.76800004
v -6.25126223 -2.18700004 2.03299994
v -6.25126223 -3.64799981 -3.3306690738754696e-16
v -6.25126223 -1.1499999599999997 2.03299994
v -6.25126223 -1.14999996 0.0
v -6.25126223 -2.18700004 -1.1102230246251565e-16
v -6.25126223 -2.18700004 -1.1102230246251565e-16
v -6.25126223 -2.18700004 2.03299994
v -6.25126223 -1.1499999599999997 2.03299994
v -6.251262229999999 0.49900002 2.76800004
v -0.00026214 0.49900002 2.76800004
v -0.0002621399999999871 0.49900002 2.27600003
v -0.0002621399999999871 0.49900002 2.27600003
v -6.25126223 0.49900002 2.27600003
v -6.251262229999999 0.49900002 2.76800004
v -6.251262229999999 0.49900002000000004 2.27600003
v -0.00026214 0.93000002 2.27600003
v -6.251262229999999 0.9300000200000003 2.27600003
v -0.00026214 0.93000002 2.27600003
v -6.251262229999999 0.49900002000000004 2.27600003
v -0.0002621399999999906 0.4990000199999999 2.27600003
v -6.25126223 0.93000002 2.76800004
v -6.25126223 0.93000002 2.27600003
v -0.00026214000000090304 0.93000002 2.27600003
v -0.00026214000000090304 0.93000002 2.27600003
v -0.00026214000000024504 0.93000002 2.76800004
v -6.25126223 0.93000002 2.76800004
v -1.990394266181845 -1.5531631851796694 2.76800004
v -0.0002621400000000218 -1.57463830356552 2.76800004
v -0.00026214 0.49900002 2.76800004
v -0.00026214 0.49900002 2.76800004
v -2.009763379104526 0.4990000200000001 2.76800004
v -1.990394266181845 -1.5531631851796694 2.76800004
v -1.990394266181845 -1.5531631851796694 2.76800004
v -3.7888082860261876 -1.571308723666991 2.76800004
v -2.0680274608794145 -1.6281683969100191 2.76800004
v -4.156680494706737 -0.8090343784377554 2.76800004
v -1.990394266181845 -1.5531631851796694 2.76800004
v -2.009763379104526 0.4990000200000001 2.76800004
v -2.009763379104526 0.4990000200000001 2.76800004
v -3.920410949844591 0.4990000200000002 2.76800004
v -4.156680494706737 -0.8090343784377554 2.76800004
v -3.7888082860261876 -1.571308723666991 2.76800004
v -1.990394266181845 -1.5531631851796694 2.76800004
v -4.156680494706737 -0.8090343784377554 2.76800004
v -1.990394266181845 -1.5531631851796694 2.76800004
v -2.0680274608794145 -1.6281683969100191 2.76800004
v -2.0223390337876195 -3.6479998100000004 2.76800004
v -1.990394266181845 -1.5531631851796694 2.76800004
v -0.00026214000000024384 -3.647999810000001 2.76800004
v -0.0002621400000000218 -1.57463830356552 2.76800004
v -0.00026214000000024384 -3.647999810000001 2.76800004
v -1.990394266181845 -1.5531631851796694 2.76800004
v -2.0223390337876195 -3.6479998100000004 2.76800004
v -4.156680494706737 -0.8090343784377554 2.76800004
v -3.920410949844591 0.4990000200000002 2.76800004
v -6.25126223 0.49900002000000043 2.76800004
v -6.25126223 0.49900002000000043 2.76800004
v -6.25126223 -0.9169682848313518 2.76800004
v -4.156680494706737 -0.8090343784377554 2.76800004
v -4.205495797976026 -2.3423716078733694 2.76800004
v -6.25126223 -2.1616125867606426 2.76800004
v -6.25126223 -3.64799981 2.76800004
v -6.25126223 -3.64799981 2.76800004
v -4.008189992141078 -3.6479998100000004 2.76800004
v -4.205495797976026 -2.3423716078733694 2.76800004
v -2.0680274608794145 -1.6281683969100191 2.76800004
v -3.7888082860261876 -1.571308723666991 2.76800004
v -4.205495797976026 -2.3423716078733694 2.76800004
v -4.205495797976026 -2.3423716078733694 2.76800004
v -4.008189992141078 -3.6479998100000004 2.76800004
v -2.0223390337876195 -3.6479998100000004 2.76800004
v -2.0223390337876195 -3.6479998100000004 2.76800004
v -2.0680274608794145 -1.6281683969100191 2.76800004
v -4.205495797976026 -2.3423716078733694 2.76800004
v -4.205495797976026 -2.3423716078733694 2.76800004
v -3.7888082860261876 -1.571308723666991 2.76800004
v -4.156680494706737 -0.8090343784377554 2.76800004
v -4.156680494706737 -0.8090343784377554 2.76800004
v -6.25126223 -0.9169682848313518 2.76800004
v -6.25126223 -2.1616125867606426 2.76800004
v -6.25126223 -2.1616125867606426 2.76800004
v -4.205495797976026 -2.3423716078733694 2.76800004
v -4.156680494706737 -0.8090343784377554 2.76800004
v -2.057892649172576 2.710955065136892 1.563366350920209
v -2.0513026428634675 2.7103530986525013 2.76800004
v -0.00026214 2.52300007 2.76800004
v -0.00026214 2.52300007 2.76800004
v -0.00026213999999979976 2.52300007 1.0943330405916025
v -2.057892649172576 2.710955065136892 1.563366350920209
v -2.057892649172576 2.710955065136892 1.563366350920209
v -2.4775592323565614 2.7492896593460245 0.9959817601113621
v -4.233610413264763 2.9096967828292675 1.6698471478799524
v -4.233610413264763 2.9096967828292675 1.6698471478799524
v -4.518653700662735 2.935734163912927 2.76800004
v -2.0513026428634675 2.7103530986525013 2.76800004
v -2.0513026428634675 2.7103530986525013 2.76800004
v -2.057892649172576 2.710955065136892 1.563366350920209
v -4.233610413264763 2.9096967828292675 1.6698471478799524
v -0.00026213999999979976 2.52300007 0.0
v -2.057892649172576 2.710955065136892 1.563366350920209
v -0.00026213999999979976 2.52300007 1.0943330405916025
v -2.4775592323565614 2.7492896593460245 0.9959817601113621
v -0.00026213999999979976 2.52300007 0.0
v -2.472320544482158 2.748811129527591 4.440892098500626e-16
v -0.00026213999999979976 2.52300007 0.0
v -2.4775592323565614 2.7492896593460245 0.9959817601113621
v -2.057892649172576 2.710955065136892 1.563366350920209
v -4.233610413264763 2.9096967828292675 1.6698471478799524
v -2.4775592323565614 2.7492896593460245 0.9959817601113621
v -2.472320544482158 2.748811129527591 4.440892098500626e-16
v -2.472320544482158 2.748811129527591 4.440892098500626e-16
v -5.019829473953792 2.981514244258609 6.106226635438361e-16
v -4.233610413264763 2.9096967828292675 1.6698471478799524
v -4.233610413264763 2.9096967828292675 1.6698471478799524
v -5.019829473953792 2.981514244258609 6.106226635438361e-16
v -6.25126223 3.09399991 3.8432186756735074e-16
v -4.233610413264763 2.9096967828292675 1.6698471478799524
v -6.25126223 3.09399991 2.7680000400000004
v -4.518653700662735 2.935734163912927 2.76800004
v -6.25126223 3.09399991 2.7680000400000004
v -4.233610413264763 2.9096967828292675 1.6698471478799524
v -6.25126223 3.09399991 3.8432186756735074e-16
v -0.00026214 0.93000002 2.27600003
v -0.00026214 -0.01200000000000001 1.2234769052446461
v -0.00026214 2.52300007 1.6086448563600082
v -0.00026214 0.93000002 2.27600003
v -0.00026214 2.52300007 2.76800004
v -0.00026214 0.93000002 2.76800004
v -0.00026214 -0.01200000000000001 2.19499993
v -0.00026214 0.49900002 2.76800004
v -0.00026214 -0.5315744412373822 2.76800004
v -0.00026214 -0.5315744412373822 2.76800004
v -0.00026214 -0.5538660774623674 2.1942657418330893
v -0.00026214 -0.01200000000000001 2.19499993
v -0.00026214 2.52300007 2.76800004
v -0.00026214 0.93000002 2.27600003
v -0.00026214 2.52300007 1.6086448563600082
v -0.00026214 0.49900002 2.76800004
v -0.00026214 -0.01200000000000001 2.19499993
v -0.00026214 0.49900002 2.27600003
v -0.00026214 0.49900002 2.27600003
v -0.00026214 -0.01200000000000001 1.2234769052446461
v -0.00026214 0.93000002 2.27600003
v -0.00026214 -0.01200000000000001 1.2234769052446461
v -0.00026214 0.49900002 2.27600003
v -0.00026214 -0.01200000000000001 2.19499993
v -0.00026214 -0.01200000000000001 0.04999999999999982
v -0.00026214 -0.7098155985046306 0.04999999999999982
v -0.00026214 -0.7110217460394765 0.0
v -0.00026214 2.52300007 0.0
v -0.00026214 2.52300007 1.6086448563600082
v -0.00026214 -0.01200000000000001 1.2234769052446461
v -0.00026214 -0.01200000000000001 0.04999999999999982
v -0.00026214 -0.7110217460394765 0.0
v -0.00026214 2.52300007 0.0
v -0.00026214 2.52300007 0.0
v -0.00026214 -0.01200000000000001 1.2234769052446461
v -0.00026214 -0.01200000000000001 0.04999999999999982
v -0.00026214 -1.4879999699999997 2.19300006
v -0.00026214 -0.5538660774623674 2.1942657418330893
v -0.00026214 -0.5315744412373822 2.76800004
v -0.00026214 -1.4879999699999997 2.19300006
v -0.00026214 -3.64799981 2.76800004
v -0.00026214 -3.64799981 1.9389963789604479
v -0.00026214 -3.64799981 1.9389963789604479
v -0.00026214 -1.4879999699999997 1.1904600684091438
v -0.00026214 -1.4879999699999997 2.19300006
v -0.00026214 -3.64799981 2.76800004
v -0.00026214 -1.4879999699999997 2.19300006
v -0.00026214 -0.5315744412373822 2.76800004
v -0.00026214 -3.64799981 0.0
v -0.00026214 -1.4879999699999997 1.1904600684091438
v -0.00026214 -3.64799981 1.9389963789604479
v -0.00026214 -1.4879999699999997 0.04999999999999982
v -0.00026214 -0.7110217460394765 0.0
v -0.00026214 -0.7098155985046306 0.04999999999999982
v -0.00026214 -1.4879999699999997 1.1904600684091438
v -0.00026214 -3.64799981 0.0
v -0.00026214 -1.4879999699999997 0.04999999999999982
v -0.00026214 -0.7110217460394765 0.0
v -0.00026214 -1.4879999699999997 0.04999999999999982
v -0.00026214 -3.64799981 0.0
v 4.443397812382185 2.055311771991271 0.04999999999999982
v 6.10173802 1.90299993 2.73600005
v 6.101738020000001 1.90299993 0.04999999999999982
v 6.10173802 1.90299993 2.73600005
v 4.443397812382185 2.055311771991271 0.04999999999999982
v 4.404481505054558 2.0588860774476183 2.73600005
v 2.4999137678950194 2.233812922320194 1.3861095705061297
v 0.5707378400000006 2.41099993 1.4138243646228847
v 0.5707378400000007 2.41099993 2.7360000500000003
v 0.5707378400000007 2.41099993 2.7360000500000003
v 2.9992176090425353 2.187953883620445 2.7360000500000003
v 2.4999137678950194 2.233812922320194 1.3861095705061297
v 2.4999137678950194 2.233812922320194 1.3861095705061297
v 2.967500748242055 2.1908669490267534 0.04999999999999982
v 0.5707378400000004 2.41099993 0.05000000000000015
v 0.5707378400000004 2.41099993 0.05000000000000015
v 0.5707378400000006 2.41099993 1.4138243646228847
v 2.4999137678950194 2.233812922320194 1.3861095705061297
v 2.4999137678950194 2.233812922320194 1.3861095705061297
v 2.9992176090425353 2.187953883620445 2.7360000500000003
v 4.404481505054558 2.0588860774476183 2.73600005
v 2.4999137678950194 2.233812922320194 1.3861095705061297
v 4.443397812382185 2.055311771991271 0.04999999999999982
v 2.967500748242055 2.1908669490267534 0.04999999999999982
v 4.443397812382185 2.055311771991271 0.04999999999999982
v 2.4999137678950194 2.233812922320194 1.3861095705061297
v 4.404481505054558 2.0588860774476183 2.73600005
v 6.10173802 -4.007176435122799 2.2160682333081607
v 6.10173802 -4.0956489121598185 2.73600005
v 6.10173802 -6.159999970000001 2.73600005
v 6.10173802 -6.159999970000001 2.73600005
v 6.10173802 -6.159999970000001 0.050000000000000266
v 6.10173802 -4.974588451906473 0.050000000000000266
v 6.10173802 -4.974588451906473 0.050000000000000266
v 6.10173802 -4.007176435122799 2.2160682333081607
v 6.10173802 -6.159999970000001 2.73600005
v 6.10173802 -3.48300019 2.27600003
v 6.10173802 -2.4592213523920545 0.7584565476929164
v 6.10173802 -1.549894975338367 1.7132352039010739
v 6.10173802 -3.48300019 2.27600003
v 6.10173802 -1.5748957565845734 2.7360000499999995
v 6.10173802 -3.48300019 2.73600005
v 6.10173802 -3.90599995 2.27600003
v 6.10173802 -3.9059999500000004 2.7360000499999995
v 6.10173802 -4.0956489121598185 2.73600005
v 6.10173802 -1.5748957565845734 2.7360000499999995
v 6.10173802 -3.48300019 2.27600003
v 6.10173802 -1.549894975338367 1.7132352039010739
v 6.10173802 -3.90599995 2.27600003
v 6.10173802 -4.0956489121598185 2.73600005
v 6.10173802 -4.007176435122799 2.2160682333081607
v 6.10173802 -2.4592213523920545 0.7584565476929164
v 6.10173802 -3.48300019 2.27600003
v 6.10173802 -4.007176435122799 2.2160682333081607
v 6.10173802 -3.48300019 2.27600003
v 6.10173802 -3.90599995 2.27600003
v 6.10173802 -4.007176435122799 2.2160682333081607
v 6.10173802 -2.4592213523920545 0.7584565476929164
v 6.10173802 -4.007176435122799 2.2160682333081607
v 6.10173802 -4.974588451906473 0.050000000000000266
v 6.10173802 -4.974588451906473 0.050000000000000266
v 6.10173802 -2.5001759751498547 0.04999999999999982
v 6.10173802 -2.4592213523920545 0.7584565476929164
v 6.10173802 -0.07482740288493847 0.929740984566573
v 6.10173802 -1.549894975338367 1.7132352039010739
v 6.10173802 -2.4592213523920545 0.7584565476929164
v 6.10173802 -0.07482740288493847 0.929740984566573
v 6.10173802 -2.5001759751498547 0.04999999999999982
v 6.10173802 0.1427975132469195 0.04999999999999949
v 6.10173802 -2.5001759751498547 0.04999999999999982
v 6.10173802 -0.07482740288493847 0.929740984566573
v 6.10173802 -2.4592213523920545 0.7584565476929164
v 6.10173802 0.49900002000000176 2.2760000299999996
v 6.10173802 -0.07482740288493847 0.929740984566573
v 6.10173802 0.5879403876300515 2.2760000299999996
v 6.10173802 0.49900002000000176 2.2760000299999996
v 6.10173802 0.49900002000000176 2.7360000499999995
v 6.10173802 -1.5748957565845734 2.7360000499999995
v 6.10173802 -0.07482740288493847 0.929740984566573
v 6.10173802 0.49900002000000176 2.2760000299999996
v 6.10173802 -1.549894975338367 1.7132352039010739
v 6.10173802 0.49900002000000176 2.2760000299999996
v 6.10173802 -1.5748957565845734 2.7360000499999995
v 6.10173802 -1.549894975338367 1.7132352039010739
v 6.10173802 -0.07482740288493847 0.929740984566573
v 6.10173802 0.1427975132469195 0.04999999999999949
v 6.10173802 1.9029999300000018 0.04999999999999951
v 6.10173802 0.9300000200000007 2.2760000299999996
v 6.10173802 1.9029999300000022 2.7360000499999995
v 6.10173802 0.930000020000001 2.736000049999999
v 6.10173802 0.9300000200000007 2.2760000299999996
v 6.10173802 0.5879403876300515 2.2760000299999996
v 6.10173802 -0.07482740288493847 0.929740984566573
v 6.10173802 1.9029999300000022 2.7360000499999995
v 6.10173802 0.9300000200000007 2.2760000299999996
v 6.10173802 1.9029999300000018 0.04999999999999951
v 6.10173802 0.9300000200000007 2.2760000299999996
v 6.10173802 -0.07482740288493847 0.929740984566573
v 6.10173802 1.9029999300000018 0.04999999999999951
v 2.2486877888275556 -6.15999997 0.0499999999999996
v 0.57073784 -6.15999997 2.73600005
v 0.5707378399999996 -6.15999997 0.04999999999999938
v 0.57073784 -6.15999997 2.73600005
v 2.2486877888275556 -6.15999997 0.0499999999999996
v 2.266454866254913 -6.15999997 2.73600005
v 4.182225250344274 -6.15999997 1.3920058919440108
v 6.10173802 -6.15999997 1.3918700193511595
v 6.101738019999999 -6.15999997 2.7360000500000003
v 6.101738019999999 -6.15999997 2.7360000500000003
v 3.6945811710273952 -6.15999997 2.7360000500000003
v 4.182225250344274 -6.15999997 1.3920058919440108
v 4.182225250344274 -6.15999997 1.3920058919440108
v 3.6965203573168575 -6.15999997 0.04999999999999971
v 6.101738019999999 -6.15999997 0.049999999999999996
v 6.101738019999999 -6.15999997 0.049999999999999996
v 6.10173802 -6.15999997 1.3918700193511595
v 4.182225250344274 -6.15999997 1.3920058919440108
v 4.182225250344274 -6.15999997 1.3920058919440108
v 3.6945811710273952 -6.15999997 2.7360000500000003
v 2.266454866254913 -6.15999997 2.73600005
v 4.182225250344274 -6.15999997 1.3920058919440108
v 2.2486877888275556 -6.15999997 0.0499999999999996
v 3.6965203573168575 -6.15999997 0.04999999999999971
v 2.2486877888275556 -6.15999997 0.0499999999999996
v 4.182225250344274 -6.15999997 1.3920058919440108
v 2.266454866254913 -6.15999997 2.73600005
v 0.57059608 -0.013012238656580565 2.19499855849203
v 0.57073784 -0.012 2.19499993
v -0.0002621400000000773 -0.011999999999999983 2.19499993
v 0.57073784 -0.014384258766349807 2.1949966995069943
v -0.00026213999999994314 -1.48799997 2.19300006
v 0.5707378400000002 -1.48799997 2.19300006
v -0.0002621400000000773 -0.011999999999999983 2.19499993
v 0.57073784 -0.014384258766349807 2.1949966995069943
v 0.57059608 -0.013012238656580565 2.19499855849203
v 0.57073784 -0.014384258766349807 2.1949966995069943
v -0.0002621400000000773 -0.011999999999999983 2.19499993
v -0.00026213999999994314 -1.48799997 2.19300006
v -0.0002621399999999113 -0.012 0.049999999999999795
v 0.57073784 -0.012 2.19499993
v 0.57073784 -0.012 0.050000000000000044
v 0.57073784 -0.012 2.19499993
v -0.0002621399999999113 -0.012 0.049999999999999795
v -0.0002621399999999108 -0.012 2.19499993
v 0.57073784 -1.48799997 2.19300006
v -0.00026214 -1.48799997 2.19300006
v -0.0002621400000000218 -1.48799997 0.04999999999999999
v -0.0002621400000000218 -1.48799997 0.04999999999999999
v 0.57073784 -1.48799997 0.04999999999999983
v 0.57073784 -1.48799997 2.19300006
v 0.57073784 -0.012000000000000205 0.05
v 0.57073784 -1.48799997 0.05
v -0.0002621400000000773 -1.48799997 0.05
v -0.0002621400000000773 -1.48799997 0.05
v -0.0002621400000000147 -0.012000000000000007 0.05
v 0.57073784 -0.012000000000000205 0.05
v -4.41604285 2.88053755 1.10000001
v -4.51011812 1.98546776 1.10000001
v -6.13118894 2.15584922 1.10000001
v -6.13118894 2.15584922 1.10000001
v -6.03711328 3.05091881 1.10000001
v -4.41604285 2.88053755 1.10000001
v -4.41604285 2.88053755 1.10000001
v -6.03711328 3.05091881 1.10000001
v -6.03711328 3.05091881 -1.1102230246251565e-16
v -6.03711328 3.05091881 -1.1102230246251565e-16
v -4.41604285 2.88053755 -1.6448509225741707e-16
v -4.41604285 2.88053755 1.10000001
v -4.51011812 1.98546776 1.10000001
v -4.41604285 2.88053755 0.0
v -4.5101181200000005 1.9854677600000001 -5.551115123125783e-17
v -4.41604285 2.88053755 0.0
v -4.51011812 1.98546776 1.10000001
v -4.416042849999999 2.88053755 1.10000001
v -6.13118894 2.15584922 9.81615664201558e-17
v -4.51011812 1.98546776 1.10000001
v -4.51011812 1.98546776 0.0
v -4.51011812 1.98546776 1.10000001
v -6.13118894 2.15584922 9.81615664201558e-17
v -6.13118894 2.15584922 1.10000001
v -6.13118894 2.1558492200000003 2.4511046858191407e-16
v -6.03711328 3.05091881 1.10000001
v -6.131188940000001 2.15584922 1.1000000100000003
v -6.03711328 3.05091881 1.10000001
v -6.13118894 2.1558492200000003 2.4511046858191407e-16
v -6.037113279999999 3.05091881 0.0
v -6.15168304 -3.62310094 1.10000001
v -4.52168292 -3.62310094 1.10000001
v -4.52168292 -3.62310094 0.0
v -4.52168292 -3.62310094 0.0
v -6.15168304 -3.62310094 -1.3759846772329984e-16
v -6.15168304 -3.62310094 1.10000001
v -4.52168292 -3.05310105 1.10000001
v -6.15168304 -3.05310105 1.10000001
v -6.15168304 -3.05310105 0.0
v -6.15168304 -3.05310105 0.0
v -4.52168292 -3.05310105 -1.3759846772329984e-16
v -4.52168292 -3.05310105 1.10000001
v -6.15168304 -3.05310105 1.10000001
v -4.52168292 -3.62310094 1.10000001
v -6.15168304 -3.62310094 1.10000001
v -4.52168292 -3.62310094 1.10000001
v -6.15168304 -3.05310105 1.10000001
v -4.52168292 -3.05310105 1.10000001
v -4.52168292 -3.05310105 1.10000001
v -4.52168292 -3.05310105 0.0
v -4.52168292 -3.62310094 0.0
v -4.52168292 -3.62310094 0.0
v -4.52168292 -3.62310094 1.10000001
v -4.52168292 -3.05310105 1.10000001
v -6.15168304 -3.05310105 5.551115123125783e-17
v -6.15168304 -3.05310105 1.10000001
v -6.15168304 -3.62310094 1.10000001
v -6.15168304 -3.62310094 1.10000001
v -6.15168304 -3.62310094 -1.1197385770464987e-18
v -6.15168304 -3.05310105 5.551115123125783e-17
v -0.051123769999999985 2.49574572 1.10000001
v -0.05112377 2.49574572 0.0
v -0.11547146 1.59804907 5.551115123125783e-17
v -0.11547146 1.59804907 5.551115123125783e-17
v -0.11547146 1.59804907 1.10000001
v -0.051123769999999985 2.49574572 1.10000001
v -0.05112377000000001 2.49574572 1.10000001
v -0.11547146 1.59804907 1.10000001
v -1.7412999100000004 1.7145899199999999 1.10000001
v -1.7412999100000004 1.7145899199999999 1.10000001
v -1.6769522900000002 2.61228667 1.10000001
v -0.05112377000000001 2.49574572 1.10000001
v -1.74129991 1.71458992 1.10000001
v -0.11547146 1.59804907 1.10000001
v -0.11547145999999997 1.59804907 1.1102230246251565e-16
v -0.11547145999999997 1.59804907 1.1102230246251565e-16
v -1.74129991 1.71458992 8.12462362848567e-17
v -1.74129991 1.71458992 1.10000001
v -0.05112377000000016 2.49574572 3.3060420662503386e-16
v -1.67695229 2.61228667 1.10000001
v -1.6769522900000002 2.61228667 0.0
v -1.67695229 2.61228667 1.10000001
v -0.05112377000000016 2.49574572 3.3060420662503386e-16
v -0.05112377000000001 2.49574572 1.1000000100000003
v -1.74129991 1.71458992 -5.447877876551923e-17
v -1.67695229 2.61228667 1.10000001
v -1.74129991 1.7145899199999999 1.10000001
v -1.67695229 2.61228667 1.10000001
v -1.74129991 1.71458992 -5.447877876551923e-17
v -1.67695229 2.61228667 -1.1102230246251565e-16
v -0.01271485 -1.98335762 1.10000001
v -0.01271485 -1.98335762 0.0
v -0.01271485 -3.61335735 -1.1102230246251565e-16
v -0.01271485 -3.61335735 -1.1102230246251565e-16
v -0.01271485 -3.61335735 1.10000001
v -0.01271485 -1.98335762 1.10000001
v -2.8027147800000005 -3.61335735 1.10000001
v -0.01271485 -3.61335735 1.10000001
v -0.01271485 -3.61335735 -2.220446049250313e-16
v -0.01271485 -3.61335735 -2.220446049250313e-16
v -2.8027147800000005 -3.61335735 -2.707463327217842e-16
v -2.8027147800000005 -3.61335735 1.10000001
v -5.44190039 1.4788138000000002 -1.1102230246251565e-16
v -5.44190039 1.4788138 1.00000001
v -5.44190039 -0.09118618000000017 1.00000001
v -5.44190039 -0.09118618000000017 1.00000001
v -5.44190039 -0.09118618000000006 -1.3259676570824207e-16
v -5.44190039 1.4788138000000002 -1.1102230246251565e-16
v -5.44190039 -0.09118618 1.00000001
v -5.34190068 -0.09118618 1.00000001
v -5.34190068 -0.09118618 -9.8879238130678e-17
v -5.34190068 -0.09118618 -9.8879238130678e-17
v -5.44190039 -0.09118618 -2.2327067276673054e-16
v -5.44190039 -0.09118618 1.00000001
v -5.34190068 1.4788138 1.00000001
v -5.34190068 -0.09118618 1.00000001
v -5.44190039 -0.09118618 1.00000001
v -5.44190039 -0.09118618 1.00000001
v -5.44190039 1.4788137999999997 1.00000001
v -5.34190068 1.4788138 1.00000001
v -5.34190068 1.4788138000000002 1.00000001
v -5.34190068 1.4788138 0.0
v -5.34190068 -0.09118618000000017 -1.1102230246251565e-16
v -5.34190068 -0.09118618000000017 -1.1102230246251565e-16
v -5.34190068 -0.09118618000000006 1.0000000100000002
v -5.34190068 1.4788138000000002 1.00000001
v -5.34190068 1.4788138 1.00000001
v -5.44190039 1.4788138 1.00000001
v -5.44190039 1.4788138 -9.8879238130678e-17
v -5.44190039 1.4788138 -9.8879238130678e-17
v -5.34190068 1.4788138 -2.2327067276673054e-16
v -5.34190068 1.4788138 1.00000001
v -3.5562864200000006 2.55879575 1.00000001
v -3.55628642 2.55879575 0.0
v -3.5087416399999998 2.47077593 0.0
v -3.5087416399999998 2.47077593 0.0
v -3.50874164 2.47077593 1.00000001
v -3.5562864200000006 2.55879575 1.00000001
v -3.50874164 2.47077593 1.00000001
v -4.3723118 1.97219319 1.00000001
v -4.42231185 2.05879585 1.00000001
v -4.42231185 2.05879585 1.00000001
v -3.55628642 2.55879575 1.00000001
v -3.50874164 2.47077593 1.00000001
v -4.422311850000002 2.058795849999999 -2.1337098754514727e-16
v -4.42231185 2.05879585 1.00000001
v -4.3723117999999985 1.9721931900000005 1.00000001
v -4.3723117999999985 1.9721931900000005 1.00000001
v -4.3723118 1.97219319 -2.221123398604212e-16
v -4.422311850000002 2.058795849999999 -2.1337098754514727e-16
v -3.55628642 2.55879575 -1.1811718261039316e-17
v -4.42231185 2.05879585 1.00000001
v -4.42231185 2.05879585 -5.551115123125783e-17
v -4.42231185 2.05879585 1.00000001
v -3.55628642 2.55879575 -1.1811718261039316e-17
v -3.55628642 2.55879575 1.0000000100000002
v -2.50874144 2.56199827 1.00000001
v -2.50874144 2.56199827 0.0
v -2.50874144 2.46199837 -1.734723475976807e-18
v -2.50874144 2.46199837 -1.734723475976807e-18
v -2.50874144 2.46199837 1.00000001
v -2.50874144 2.56199827 1.00000001
v -2.50874144 2.56199827 1.00000001
v -3.50874164 2.56199827 1.00000001
v -3.50874164 2.56199827 0.0
v -3.50874164 2.56199827 0.0
v -2.50874144 2.56199827 -3.052092003884332e-17
v -2.50874144 2.56199827 1.00000001
v -3.50874164 2.47077593 1.00000001
v -3.50874164 2.46199837 1.00000001
v -3.50874164 2.46199837 -4.640385298237959e-17
v -3.50874164 2.47077593 1.00000001
v -3.50874164 2.47077593 -1.3234411728415028e-18
v -3.50874164 2.56199827 1.0755285551056204e-16
v -3.50874164 2.56199827 1.0755285551056204e-16
v -3.50874164 2.56199827 1.00000001
v -3.50874164 2.47077593 1.00000001
v -3.50874164 2.47077593 -1.3234411728415028e-18
v -3.50874164 2.47077593 1.00000001
v -3.50874164 2.46199837 -4.640385298237959e-17
v -3.50874164 2.46199837 1.00000001
v -2.50874144 2.46199837 1.00000001
v -2.50874144 2.46199837 0.0
v -2.50874144 2.46199837 0.0
v -3.50874164 2.46199837 -3.052092003884332e-17
v -3.50874164 2.46199837 1.00000001
v -3.50874164 2.47077593 1.00000001
v -3.50874164 2.56199827 1.00000001
v -2.5087414400000005 2.56199827 1.00000001
v -3.50874164 2.47077593 1.00000001
v -2.50874144 2.46199837 1.00000001
v -3.50874164 2.46199837 1.00000001
v -2.50874144 2.46199837 1.00000001
v -3.50874164 2.47077593 1.00000001
v -2.5087414400000005 2.56199827 1.00000001
v -1.78405854 1.72897063 1.0000000100000002
v -1.86360582 1.66837181 1.00000001
v -2.46959422 2.4638451499999996 1.0000000099999997
v -2.46959422 2.4638451499999996 1.0000000099999997
v -2.39004694 2.52444417 1.00000001
v -1.78405854 1.72897063 1.0000000100000002
v -2.39004694 2.52444417 1.00000001
v -2.39004694 2.52444417 0.0
v -1.7840585399999997 1.72897063 0.0
v -1.7840585399999997 1.72897063 0.0
v -1.78405854 1.72897063 1.00000001
v -2.39004694 2.52444417 1.00000001
v -2.4695942200000003 2.46384515 1.6653345369377348e-16
v -2.46959422 2.46384515 1.00000001
v -1.86360582 1.6683718100000005 1.00000001
v -1.86360582 1.6683718100000005 1.00000001
v -1.86360582 1.66837181 -3.504882459792719e-17
v -2.4695942200000003 2.46384515 1.6653345369377348e-16
v -2.39004694 2.52444417 -2.2167722558069276e-16
v -2.46959422 2.46384515 1.00000001
v -2.46959422 2.46384515 -2.7582103268031233e-16
v -2.46959422 2.46384515 1.00000001
v -2.39004694 2.52444417 -2.2167722558069276e-16
v -2.39004694 2.52444417 1.00000001
v -1.86360582 1.66837181 2.210841930456316e-16
v -1.78405854 1.72897063 1.00000001
v -1.78405854 1.72897063 2.0122792321330962e-16
v -1.78405854 1.72897063 1.00000001
v -1.86360582 1.66837181 2.210841930456316e-16
v -1.86360582 1.6683718100000002 1.00000001
v -4.38912512 1.97678031 1.00000001
v -5.28128268 1.51412037 1.00000001
v -5.31825755 1.60703359 1.00000001
v -5.28128268 1.51412037 1.00000001
v -4.38912512 1.97678031 1.00000001
v -4.352150240000001 1.88386718 1.00000001
v -5.28128268 1.51412037 1.9730520606798043e-17
v -4.35215024 1.88386718 1.00000001
v -4.35215024 1.88386718 -5.551115123125783e-17
v -4.35215024 1.88386718 1.00000001
v -5.28128268 1.51412037 1.9730520606798043e-17
v -5.28128268 1.5141203700000003 1.00000001
v -5.31825755 1.60703359 -4.978656376053436e-16
v -5.31825755 1.60703359 1.00000001
v -5.28128268 1.51412037 1.00000001
v -5.28128268 1.51412037 1.00000001
v -5.28128268 1.51412037 -4.444296607628186e-16
v -5.31825755 1.60703359 -4.978656376053436e-16
v -4.38912512 1.97678031 4.764726057733807e-17
v -5.31825755 1.60703359 1.00000001
v -5.31825755 1.6070335900000001 0.0
v -5.31825755 1.60703359 1.00000001
v -4.38912512 1.97678031 4.764726057733807e-17
v -4.38912512 1.9767803099999999 1.00000001
v -4.38912512 1.9767803099999999 1.00000001
v -4.38912512 1.97678031 0.0
v -4.35215024 1.8838671800000002 -1.734723475976807e-18
v -4.35215024 1.8838671800000002 -1.734723475976807e-18
v -4.35215024 1.88386718 1.00000001
v -4.38912512 1.9767803099999999 1.00000001
v -2.80271478 -3.61335735 3.635817636717251e-17
v -2.80271478 -2.79835749 1.10000001
v -2.80271478 -3.61335735 1.10000001
v -2.80271478 -2.79835749 1.10000001
v -2.80271478 -3.61335735 3.635817636717251e-17
v -2.80271478 -2.79835749 5.551115123125783e-17
v -0.9127148300000004 -2.79835749 4.070404603785277e-16
v -2.80271478 -2.79835749 1.10000001
v -2.8027147800000005 -2.79835749 0.0
v -2.80271478 -2.79835749 1.10000001
v -0.9127148300000004 -2.79835749 4.070404603785277e-16
v -0.9127148300000003 -2.79835749 1.1000000100000005
v 0.57073784 2.41099993 1.1340365267982144
v 0.57073784 2.41099993 0.05
v 0.57073784 -0.012000000000000233 0.050000000000000044
v 0.57073784 -0.012000000000000233 0.050000000000000044
v 0.57073784 -0.012000000000000455 1.5779361794769757
v 0.57073784 2.41099993 1.1340365267982144
v 0.57073784 0.4990000199999997 2.2760000300000005
v 0.57073784 -0.011999999999999959 2.19499993
v 0.57073784 0.49900002 2.73600005
v 0.57073784 0.9300000199999998 2.2760000300000005
v 0.57073784 0.9300000199999998 2.7360000500000003
v 0.57073784 2.41099993 2.7360000500000003
v 0.57073784 0.9300000199999998 2.2760000300000005
v 0.57073784 2.41099993 1.1340365267982144
v 0.57073784 -0.012000000000000455 1.5779361794769757
v 0.57073784 -0.011999999999999959 2.19499993
v 0.57073784 0.4990000199999997 2.2760000300000005
v 0.57073784 -0.012000000000000455 1.5779361794769757
v 0.57073784 2.41099993 1.1340365267982144
v 0.57073784 0.9300000199999998 2.2760000300000005
v 0.57073784 2.41099993 2.7360000500000003
v 0.57073784 -0.012000000000000455 1.5779361794769757
v 0.57073784 0.4990000199999997 2.2760000300000005
v 0.57073784 0.9300000199999998 2.2760000300000005
v 0.57073784 -3.765661583612698 0.04999999999999949
v 0.57073784 -1.4879999699999997 1.2397624141054482
v 0.57073784 -1.48799997 0.05
v 0.57073784 -1.4879999699999997 1.2397624141054482
v 0.57073784 -3.765661583612698 0.04999999999999949
v 0.57073784 -2.6715333467333595 1.981030445683595
v 0.57073784 -1.48799997 2.1930000600000006
v 0.57073784 -2.911687578321692 2.7360000500000003
v 0.57073784 0.4990000200000002 2.736000050000001
v 0.57073784 0.4990000200000002 2.736000050000001
v 0.57073784 -0.014384259999999927 2.194997610000001
v 0.57073784 -1.48799997 2.1930000600000006
v 0.57073784 -1.48799997 2.1930000600000006
v 0.57073784 -1.4879999699999997 1.2397624141054482
v 0.57073784 -2.6715333467333595 1.981030445683595
v 0.57073784 -2.911687578321692 2.7360000500000003
v 0.57073784 -1.48799997 2.1930000600000006
v 0.57073784 -2.6715333467333595 1.981030445683595
v 0.57073784 -3.90599995 2.2760000300000005
v 0.57073784 -3.765661583612698 0.04999999999999949
v 0.57073784 -4.39126013428891 0.0499999999999996
v 0.57073784 -3.90599995 2.2760000300000005
v 0.57073784 -4.77747817586261 2.7360000499999995
v 0.57073784 -3.90599995 2.7360000500000003
v 0.57073784 -3.4830001899999994 2.2760000300000005
v 0.57073784 -3.4830001899999994 2.7360000500000003
v 0.57073784 -2.911687578321692 2.7360000500000003
v 0.57073784 -3.765661583612698 0.04999999999999949
v 0.57073784 -3.4830001899999994 2.2760000300000005
v 0.57073784 -2.6715333467333595 1.981030445683595
v 0.57073784 -4.77747817586261 2.7360000499999995
v 0.57073784 -3.90599995 2.2760000300000005
v 0.57073784 -4.39126013428891 0.0499999999999996
v 0.57073784 -2.6715333467333595 1.981030445683595
v 0.57073784 -3.4830001899999994 2.2760000300000005
v 0.57073784 -2.911687578321692 2.7360000500000003
v 0.57073784 -3.765661583612698 0.04999999999999949
v 0.57073784 -3.90599995 2.2760000300000005
v 0.57073784 -3.4830001899999994 2.2760000300000005
v 0.57073784 -4.77747817586261 2.7360000499999995
v 0.57073784 -6.159999970000001 0.049999999999998934
v 0.57073784 -6.15999997 2.7360000499999995
v 0.57073784 -6.159999970000001 0.049999999999998934
v 0.57073784 -4.77747817586261 2.7360000499999995
v 0.57073784 -4.39126013428891 0.0499999999999996
v 0.57073784 0.49900002 2.73600005
v 0.5705960800000001 -0.013012240000000026 2.19499955
v 0.57073784 -0.01438426000000014 2.19499761
v 0.57073784 0.49900002 2.73600005
v 0.5707378399999999 -0.011999999999999976 2.19499993
v 0.57059608 -0.013012239999999894 2.19499955
v 4.157516917407299 -4.399488444316388 0.05
v 4.518018123812509 -3.9593673003778322 0.05
v 6.101738020000001 -3.933924720186559 0.05000000000000001
v 4.157516917407299 -4.399488444316388 0.05
v 6.10173802 -6.15999997 0.05
v 4.439236783622253 -6.15999997 0.049999999999999996
v 6.10173802 -6.15999997 0.05
v 4.157516917407299 -4.399488444316388 0.05
v 6.101738020000001 -3.933924720186559 0.05000000000000001
v 4.518018123812509 -3.9593673003778322 0.05
v 3.9916412506371777 -2.4449576218636464 0.05
v 4.457006033322317 -1.8450836358967506 0.05
v 4.457006033322317 -1.8450836358967506 0.05
v 6.101738020000001 -1.8140352009675254 0.05000000000000001
v 6.101738020000001 -3.933924720186559 0.05000000000000001
v 6.101738020000001 -3.933924720186559 0.05000000000000001
v 4.518018123812509 -3.9593673003778322 0.05
v 4.457006033322317 -1.8450836358967506 0.05
v 2.5412848350154453 -4.432727208649668 0.049999999999999996
v 4.157516917407299 -4.399488444316388 0.05
v 4.439236783622253 -6.15999997 0.049999999999999996
v 4.439236783622253 -6.15999997 0.049999999999999996
v 2.2716381284456806 -6.159999970000001 0.049999999999999996
v 2.5412848350154453 -4.432727208649668 0.049999999999999996
v 0.57073784 -6.159999970000001 0.04999999999999999
v 2.5412848350154453 -4.432727208649668 0.049999999999999996
v 2.2716381284456806 -6.159999970000001 0.049999999999999996
v 2.5412848350154453 -4.432727208649668 0.049999999999999996
v 0.57073784 -6.159999970000001 0.04999999999999999
v 0.5707378400000009 -3.924896643353182 0.049999999999999996
v 2.5412848350154453 -4.432727208649668 0.049999999999999996
v 0.5707378400000009 -3.924896643353182 0.049999999999999996
v 2.1195592602955555 -3.9284423283265824 0.049999999999999996
v 4.304177942111606 0.14793645859617954 0.05000000000000001
v 4.148225544242866 2.0824221511876013 0.05000000000000001
v 6.101738020000001 1.90299993 0.05000000000000002
v 6.101738020000001 1.90299993 0.05000000000000002
v 6.101738020000001 0.13011755623784715 0.05000000000000001
v 4.304177942111606 0.14793645859617954 0.05000000000000001
v 2.6667008764877016 -2.4623225152958375 0.05
v 2.5412848350154453 -4.432727208649668 0.049999999999999996
v 2.1195592602955555 -3.9284423283265824 0.049999999999999996
v 4.157516917407299 -4.399488444316388 0.05
v 2.6667008764877016 -2.4623225152958375 0.05
v 3.9916412506371777 -2.4449576218636464 0.05
v 3.9916412506371777 -2.4449576218636464 0.05
v 4.518018123812509 -3.9593673003778322 0.05
v 4.157516917407299 -4.399488444316388 0.05
v 2.6667008764877016 -2.4623225152958375 0.05
v 4.157516917407299 -4.399488444316388 0.05
v 2.5412848350154453 -4.432727208649668 0.049999999999999996
v 4.457006033322317 -1.8450836358967506 0.05
v 2.1053162570100388 -1.740543364958492 0.05
v 2.74625915360778 -0.23004661962394937 0.05
v 2.74625915360778 -0.23004661962394937 0.05
v 3.929105270358696 -0.24158520309914788 0.05000000000000001
v 4.457006033322317 -1.8450836358967506 0.05
v 4.457006033322317 -1.8450836358967506 0.05
v 3.9916412506371777 -2.4449576218636464 0.05
v 2.6667008764877016 -2.4623225152958375 0.05
v 2.1053162570100388 -1.740543364958492 0.05
v 4.457006033322317 -1.8450836358967506 0.05
v 2.6667008764877016 -2.4623225152958375 0.05
v 2.1053162570100388 -1.740543364958492 0.05
v 2.6667008764877016 -2.4623225152958375 0.05
v 2.1195592602955555 -3.9284423283265824 0.049999999999999996
v 2.1053162570100388 -1.740543364958492 0.05
v 0.5707378400000009 -3.924896643353182 0.049999999999999996
v 0.5707378400000016 -1.7218230650750834 0.049999999999999996
v 0.5707378400000009 -3.924896643353182 0.049999999999999996
v 2.1053162570100388 -1.740543364958492 0.05
v 2.1195592602955555 -3.9284423283265824 0.049999999999999996
v 4.457006033322317 -1.8450836358967506 0.05
v 3.929105270358696 -0.24158520309914788 0.05000000000000001
v 4.304177942111606 0.14793645859617954 0.05000000000000001
v 4.457006033322317 -1.8450836358967506 0.05
v 6.101738020000001 0.13011755623784715 0.05000000000000001
v 6.101738020000001 -1.8140352009675254 0.05000000000000001
v 6.101738020000001 0.13011755623784715 0.05000000000000001
v 4.457006033322317 -1.8450836358967506 0.05
v 4.304177942111606 0.14793645859617954 0.05000000000000001
v 4.148225544242866 2.0824221511876013 0.05000000000000001
v 2.2195477334241387 0.36838779224239004 0.05
v 2.664782799474658 2.2186703684751743 0.05000000000000001
v 2.2195477334241387 0.36838779224239004 0.05
v 4.148225544242866 2.0824221511876013 0.05000000000000001
v 4.304177942111606 0.14793645859617954 0.05000000000000001
v 4.304177942111606 0.14793645859617954 0.05000000000000001
v 3.929105270358696 -0.24158520309914788 0.05000000000000001
v 2.74625915360778 -0.23004661962394937 0.05
v 2.2195477334241387 0.36838779224239004 0.05
v 4.304177942111606 0.14793645859617954 0.05000000000000001
v 2.74625915360778 -0.23004661962394937 0.05
v 2.2195477334241387 0.36838779224239004 0.05
v 2.74625915360778 -0.23004661962394937 0.05
v 2.1053162570100388 -1.740543364958492 0.05
v 2.1053162570100388 -1.740543364958492 0.05
v 0.5707378400000016 -1.7218230650750834 0.049999999999999996
v 0.5707378400000016 -1.4879999700000008 0.049999999999999996
v 0.5707378400000016 -0.01200000000000101 0.049999999999999996
v 0.5707378400000013 0.35347432178543425 0.05
v 2.2195477334241387 0.36838779224239004 0.05
v 0.5707378400000016 -0.01200000000000101 0.049999999999999996
v 2.1053162570100388 -1.740543364958492 0.05
v 0.5707378400000016 -1.4879999700000008 0.049999999999999996
v 2.1053162570100388 -1.740543364958492 0.05
v 0.5707378400000016 -0.01200000000000101 0.049999999999999996
v 2.2195477334241387 0.36838779224239004 0.05
v 2.2195477334241387 0.36838779224239004 0.05
v 0.5707378400000013 0.35347432178543425 0.05
v 0.5707378400000015 2.4109999299999982 0.05
v 0.5707378400000015 2.4109999299999982 0.05
v 2.664782799474658 2.2186703684751743 0.05000000000000001
v 2.2195477334241387 0.36838779224239004 0.05
v -4.3723118 1.97219319 1.00000001
v -3.50874164 2.47077593 1.00000001
v -3.50874164 2.47077593 -1.6653345369377348e-16
v -3.50874164 2.47077593 -1.6653345369377348e-16
v -4.3723118 1.97219319 -2.6959284175950296e-16
v -4.3723118 1.97219319 1.00000001
v -0.9127148300000003 -2.79835749 1.10000001
v -2.802714780000001 -3.61335735 1.10000001
v -2.802714780000001 -2.7983574899999994 1.10000001
v -0.9127148300000003 -2.79835749 1.10000001
v -0.9127148300000001 -1.9833576199999996 1.10000001
v -0.01271485 -1.9833576199999996 1.10000001
v -2.802714780000001 -3.61335735 1.10000001
v -0.9127148300000003 -2.79835749 1.10000001
v -0.01271485 -3.61335735 1.10000001
v -0.9127148300000003 -2.79835749 1.10000001
v -0.01271485 -1.9833576199999996 1.10000001
v -0.01271485 -3.61335735 1.10000001
v -0.91271483 -1.98335762 -2.220446049250313e-16
v -0.91271483 -1.98335762 1.10000001
v -0.91271483 -2.79835749 1.10000001
v -0.91271483 -2.79835749 1.10000001
v -0.91271483 -2.79835749 -2.4019741118320573e-16
v -0.91271483 -1.98335762 -2.220446049250313e-16
v -0.012714849999999861 -1.98335762 -2.213888313702771e-17
v -0.91271483 -1.98335762 1.10000001
v -0.9127148300000001 -1.98335762 -1.1102230246251565e-16
v -0.91271483 -1.98335762 1.10000001
v -0.012714849999999861 -1.98335762 -2.213888313702771e-17
v -0.012714849999999722 -1.98335762 1.10000001

usemtl Patch_1_Mat_CR1_tablesEquipment
f 3 2 1
f 6 5 4
f 9 8 7

usemtl Patch_2_Mat_CR1_paintedConcrete
f 12 11 10
f 15 14 13

usemtl Patch_3_Mat_CR1_paintedConcrete
f 18 17 16
f 21 20 19

usemtl Patch_4_Mat_CR1_tablesEquipment
f 24 23 22
f 27 26 25

usemtl Patch_5_Mat_CR1_tablesEquipment
f 30 29 28
f 33 32 31
f 36 35 34

usemtl Patch_6_Mat_CR1_paintedConcrete
f 39 38 37
f 42 41 40
f 45 44 43
f 48 47 46

usemtl Patch_7_Mat_CR1_paintedConcrete
f 51 50 49
f 54 53 52

usemtl Patch_8_Mat_CR1_paintedConcrete
f 57 56 55
f 60 59 58

usemtl Patch_9_Mat_CR1_paintedConcrete
f 63 62 61
f 66 65 64

usemtl Patch_10_Mat_CR1_paintedConcrete
f 69 68 67
f 72 71 70
f 75 74 73
f 78 77 76
f 81 80 79
f 84 83 82

usemtl Patch_11_Mat_CR1_paintedConcrete
f 87 86 85
f 90 89 88

usemtl Patch_12_Mat_CR1_paintedConcrete
f 93 92 91
f 96 95 94
f 99 98 97

usemtl Patch_13_Mat_CR1_paintedConcrete
f 102 101 100
f 105 104 103

usemtl Patch_14_Mat_CR1_paintedConcrete
f 108 107 106
f 111 110 109
f 114 113 112

usemtl Patch_15_Mat_CR1_paintedConcrete
f 117 116 115
f 120 119 118

usemtl Patch_16_Mat_CR1_paintedConcrete
f 123 122 121
f 126 125 124

usemtl Patch_17_Mat_CR1_paintedConcrete
f 129 128 127
f 132 131 130

usemtl Patch_18_Mat_CR1_paintedConcrete
f 135 134 133
f 138 137 136

usemtl Patch_19_Mat_CR1_paintedConcrete
f 141 140 139
f 144 143 142

usemtl Patch_20_Mat_CR1_paintedConcrete
f 147 146 145
f 150 149 148

usemtl Patch_21_Mat_CR1_paintedConcrete
f 153 152 151
f 156 155 154

usemtl Patch_22_Mat_CR1_paintedConcrete
f 159 158 157
f 162 161 160

usemtl Patch_23_Mat_CR1_paintedConcrete
f 165 164 163
f 168 167 166

usemtl Patch_24_Mat_CR1_paintedConcrete
f 171 170 169
f 174 173 172

usemtl Patch_25_Mat_CR1_paintedConcrete
f 177 176 175
f 180 179 178
f 183 182 181

usemtl Patch_26_Mat_CR1_paintedConcrete
f 186 185 184
f 189 188 187
f 192 191 190

usemtl Patch_27_Mat_CR1_paintedConcrete
f 195 194 193
f 198 197 196
f 201 200 199

usemtl Patch_28_Mat_CR1_paintedConcrete
f 204 203 202
f 207 206 205
f 210 209 208

usemtl Patch_29_Mat_CR1_paintedConcrete
f 213 212 211
f 216 215 214

usemtl Patch_30_Mat_CR1_concrete
f 219 218 217
f 222 221 220
f 225 224 223
f 228 227 226
f 231 230 229
f 234 233 232
f 237 236 235
f 240 239 238
f 243 242 241
f 246 245 244
f 249 248 247
f 252 251 250

usemtl Patch_31_Mat_CR1_concrete
f 255 254 253
f 258 257 256
f 261 260 259
f 264 263 262
f 267 266 265

usemtl Patch_32_Mat_CR1_concrete
f 270 269 268
f 273 272 271
f 276 275 274
f 279 278 277
f 282 281 280
f 285 284 283
f 288 287 286
f 291 290 289
f 294 293 292
f 297 296 295
f 300 299 298
f 303 302 301
f 306 305 304
f 309 308 307
f 312 311 310
f 315 314 313
f 318 317 316
f 321 320 319
f 324 323 322
f 327 326 325
f 330 329 328
f 333 332 331

usemtl Patch_33_Mat_CR1_concrete
f 336 335 334
f 339 338 337
f 342 341 340
f 345 344 343
f 348 347 346
f 351 350 349
f 354 353 352
f 357 356 355
f 360 359 358
f 363 362 361
f 366 365 364
f 369 368 367
f 372 371 370
f 375 374 373
f 378 377 376
f 381 380 379
f 384 383 382
f 387 386 385
f 390 389 388
f 393 392 391
f 396 395 394

usemtl Patch_34_Mat_CR1_concrete
f 399 398 397
f 402 401 400
f 405 404 403
f 408 407 406
f 411 410 409

usemtl Patch_35_Mat_CR1_concrete
f 414 413 412
f 417 416 415
f 420 419 418
f 423 422 421
f 426 425 424
f 429 428 427
f 432 431 430
f 435 434 433

usemtl Patch_36_Mat_CR1_concrete
f 438 437 436
f 441 440 439
f 444 443 442
f 447 446 445
f 450 449 448
f 453 452 451
f 456 455 454

usemtl Patch_37_Mat_CR1_concrete
f 459 458 457
f 462 461 460
f 465 464 463
f 468 467 466
f 471 470 469
f 474 473 472
f 477 476 475
f 480 479 478
f 483 482 481
f 486 485 484
f 489 488 487

usemtl Patch_38_Mat_CR1_concrete
f 492 491 490
f 495 494 493
f 498 497 496
f 501 500 499
f 504 503 502
f 507 506 505
f 510 509 508
f 513 512 511

usemtl Patch_39_Mat_CR1_concrete
f 516 515 514
f 519 518 517
f 522 521 520

usemtl Patch_40_Mat_CR1_concrete
f 525 524 523
f 528 527 526
f 531 530 529

usemtl Patch_41_Mat_CR1_concrete
f 534 533 532
f 537 536 535

usemtl Patch_42_Mat_CR1_concrete
f 540 539 538
f 543 542 541

usemtl Patch_43_Mat_CR1_concrete
f 546 545 544
f 549 548 547
f 552 551 550

usemtl Patch_44_Mat_CR1_concrete
f 555 554 553
f 558 557 556

usemtl Patch_45_Mat_CR1_concrete
f 561 560 559
f 564 563 562

usemtl Patch_46_Mat_CR1_concrete
f 567 566 565
f 570 569 568

usemtl Patch_47_Mat_CR1_concrete
f 573 572 571
f 576 575 574

usemtl Patch_48_Mat_CR1_concrete
f 579 578 577
f 582 581 580
f 585 584 583
f 588 587 586
f 591 590 589

usemtl Patch_49_Mat_CR1_concrete
f 594 593 592
f 597 596 595
f 600 599 598
f 603 602 601
f 606 605 604
f 609 608 607

usemtl Patch_50_Mat_CR1_concrete
f 612 611 610
f 615 614 613
f 618 617 616

usemtl Patch_51_Mat_CR1_concrete
f 621 620 619
f 624 623 622
f 627 626 625
f 630 629 628

usemtl Patch_52_Mat_CR1_concrete
f 633 632 631
f 636 635 634

usemtl Patch_53_Mat_CR1_concrete
f 639 638 637
f 642 641 640

usemtl Patch_54_Mat_CR1_concrete
f 645 644 643
f 648 647 646

usemtl Patch_55_Mat_CR1_concrete
f 651 650 649
f 654 653 652

usemtl Patch_56_Mat_CR1_concrete
f 657 656 655
f 660 659 658

usemtl Patch_57_Mat_CR1_concrete
f 663 662 661
f 666 665 664
f 669 668 667
f 672 671 670

usemtl Patch_58_Mat_CR1_concrete
f 675 674 673
f 678 677 676
f 681 680 679

usemtl Patch_59_Mat_CR1_concrete
f 684 683 682
f 687 686 685

usemtl Patch_60_Mat_CR1_concrete
f 690 689 688
f 693 692 691

usemtl Patch_61_Mat_CR1_concrete
f 696 695 694
f 699 698 697
f 702 701 700

usemtl Patch_62_Mat_CR1_concrete
f 705 704 703
f 708 707 706
f 711 710 709

usemtl Patch_63_Mat_CR1_concrete
f 714 713 712
f 717 716 715

usemtl Patch_64_Mat_CR1_concrete
f 720 719 718
f 723 722 721
f 726 725 724

usemtl Patch_65_Mat_CR1_concrete
f 729 728 727
f 732 731 730
f 735 734 733

usemtl Patch_66_Mat_CR1_concrete
f 738 737 736
f 741 740 739

usemtl Patch_67_Mat_CR1_concrete
f 744 743 742
f 747 746 745
f 750 749 748

usemtl Patch_68_Mat_CR1_concrete
f 753 752 751
f 756 755 754
f 759 758 757
f 762 761 760
f 765 764 763
f 768 767 766
f 771 770 769
f 774 773 772

usemtl Patch_69_Mat_CR1_concrete
f 777 776 775
f 780 779 778
f 783 782 781
f 786 785 784

usemtl Patch_70_Mat_CR1_concrete
f 789 788 787
f 792 791 790
f 795 794 793
f 798 797 796

usemtl Patch_71_Mat_CR1_concrete
f 801 800 799
f 804 803 802
f 807 806 805
f 810 809 808

usemtl Patch_72_Mat_CR1_paintedConcrete
f 813 812 811
f 816 815 814

usemtl Patch_73_Mat_CR1_paintedConcrete
f 819 818 817
f 822 821 820

usemtl Patch_74_Mat_CR1_paintedConcrete
f 825 824 823
f 828 827 826

usemtl Patch_75_Mat_CR1_paintedConcrete
f 831 830 829
f 834 833 832
f 837 836 835

usemtl Patch_76_Mat_CR1_paintedConcrete
f 840 839 838
f 843 842 841
f 846 845 844

usemtl Patch_77_Mat_CR1_paintedConcrete
f 849 848 847
f 852 851 850
f 855 854 853
f 858 857 856
f 861 860 859
f 864 863 862
f 867 866 865

usemtl Patch_78_Mat_CR1_paintedConcrete
f 870 869 868
f 873 872 871

usemtl Patch_79_Mat_CR1_paintedConcrete
f 876 875 874
f 879 878 877
f 882 881 880

usemtl Patch_80_Mat_CR1_paintedConcrete
f 885 884 883
f 888 887 886
f 891 890 889
f 894 893 892

usemtl Patch_81_Mat_CR1_paintedConcrete
f 897 896 895
f 900 899 898
f 903 902 901
f 906 905 904
f 909 908 907

usemtl Patch_82_Mat_CR1_paintedConcrete
f 912 911 910
f 915 914 913

usemtl Patch_83_Mat_CR1_paintedConcrete
f 918 917 916
f 921 920 919

usemtl Patch_84_Mat_CR1_paintedConcrete
f 924 923 922
f 927 926 925

usemtl Patch_85_Mat_CR1_paintedConcrete
f 930 929 928
f 933 932 931
f 936 935 934

usemtl Patch_86_Mat_CR1_concrete
f 939 938 937
f 942 941 940
f 945 944 943
f 948 947 946

usemtl Patch_87_Mat_CR1_concrete
f 951 950 949
f 954 953 952

usemtl Patch_88_Mat_CR1_concrete
f 957 956 955
f 960 959 958

usemtl Patch_89_Mat_CR1_concrete
f 963 962 961
f 966 965 964

usemtl Patch_90_Mat_CR1_tablesEquipment
f 969 968 967
f 972 971 970

usemtl Patch_91_Mat_CR1_tablesEquipment
f 975 974 973
f 978 977 976

usemtl Patch_92_Mat_CR1_tablesEquipment
f 981 980 979
f 984 983 982

usemtl Patch_93_Mat_CR1_tablesEquipment
f 987 986 985
f 990 989 988

usemtl Patch_94_Mat_CR1_tablesEquipment
f 993 992 991
f 996 995 994

usemtl Patch_95_Mat_CR1_tablesEquipment
f 999 998 997
f 1002 1001 1000

usemtl Patch_96_Mat_CR1_tablesEquipment
f 1005 1004 1003
f 1008 1007 1006

usemtl Patch_97_Mat_CR1_tablesEquipment
f 1011 1010 1009
f 1014 1013 1012

usemtl Patch_98_Mat_CR1_tablesEquipment
f 1017 1016 1015
f 1020 1019 1018

usemtl Patch_99_Mat_CR1_tablesEquipment
f 1023 1022 1021
f 1026 1025 1024

usemtl Patch_100_Mat_CR1_tablesEquipment
f 1029 1028 1027
f 1032 1031 1030

usemtl Patch_101_Mat_CR1_tablesEquipment
f 1035 1034 1033
f 1038 1037 1036

usemtl Patch_102_Mat_CR1_tablesEquipment
f 1041 1040 1039
f 1044 1043 1042

usemtl Patch_103_Mat_CR1_tablesEquipment
f 1047 1046 1045
f 1050 1049 1048

usemtl Patch_104_Mat_CR1_tablesEquipment
f 1053 1052 1051
f 1056 1055 1054

usemtl Patch_105_Mat_CR1_tablesEquipment
f 1059 1058 1057
f 1062 1061 1060

usemtl Patch_106_Mat_CR1_tablesEquipment
f 1065 1064 1063
f 1068 1067 1066

usemtl Patch_107_Mat_CR1_absorber
f 1071 1070 1069
f 1074 1073 1072

usemtl Patch_108_Mat_CR1_absorber
f 1077 1076 1075
f 1080 1079 1078

usemtl Patch_109_Mat_CR1_absorber
f 1083 1082 1081
f 1086 1085 1084

usemtl Patch_110_Mat_CR1_absorber
f 1089 1088 1087
f 1092 1091 1090

usemtl Patch_111_Mat_CR1_absorber
f 1095 1094 1093
f 1098 1097 1096

usemtl Patch_112_Mat_CR1_absorber
f 1101 1100 1099
f 1104 1103 1102

usemtl Patch_113_Mat_CR1_absorber
f 1107 1106 1105
f 1110 1109 1108

usemtl Patch_114_Mat_CR1_absorber
f 1113 1112 1111
f 1116 1115 1114

usemtl Patch_115_Mat_CR1_absorber
f 1119 1118 1117
f 1122 1121 1120

usemtl Patch_116_Mat_CR1_absorber
f 1125 1124 1123
f 1128 1127 1126

usemtl Patch_117_Mat_CR1_absorber
f 1131 1130 1129
f 1134 1133 1132

usemtl Patch_118_Mat_CR1_absorber
f 1137 1136 1135
f 1140 1139 1138
f 1143 1142 1141
f 1146 1145 1144

usemtl Patch_119_Mat_CR1_absorber
f 1149 1148 1147
f 1152 1151 1150

usemtl Patch_120_Mat_CR1_absorber
f 1155 1154 1153
f 1158 1157 1156
f 1161 1160 1159

usemtl Patch_121_Mat_CR1_absorber
f 1164 1163 1162
f 1167 1166 1165

usemtl Patch_122_Mat_CR1_absorber
f 1170 1169 1168
f 1173 1172 1171

usemtl Patch_123_Mat_CR1_absorber
f 1176 1175 1174
f 1179 1178 1177

usemtl Patch_124_Mat_CR1_absorber
f 1182 1181 1180
f 1185 1184 1183

usemtl Patch_125_Mat_CR1_absorber
f 1188 1187 1186
f 1191 1190 1189

usemtl Patch_126_Mat_CR1_absorber
f 1194 1193 1192
f 1197 1196 1195

usemtl Patch_127_Mat_CR1_absorber
f 1200 1199 1198
f 1203 1202 1201

usemtl Patch_128_Mat_CR1_absorber
f 1206 1205 1204
f 1209 1208 1207

usemtl Patch_129_Mat_CR1_absorber
f 1212 1211 1210
f 1215 1214 1213

usemtl Patch_130_Mat_CR1_absorber
f 1218 1217 1216
f 1221 1220 1219

usemtl Patch_131_Mat_CR1_tablesEquipment
f 1224 1223 1222
f 1227 1226 1225

usemtl Patch_132_Mat_CR1_tablesEquipment
f 1230 1229 1228
f 1233 1232 1231

usemtl Patch_133_Mat_CR1_paintedConcrete
f 1236 1235 1234
f 1239 1238 1237

usemtl Patch_134_Mat_CR1_paintedConcrete
f 1242 1241 1240
f 1245 1244 1243
f 1248 1247 1246
f 1251 1250 1249
f 1254 1253 1252
f 1257 1256 1255

usemtl Patch_135_Mat_CR1_paintedConcrete
f 1260 1259 1258
f 1263 1262 1261

usemtl Patch_136_Mat_CR1_paintedConcrete
f 1266 1265 1264
f 1269 1268 1267
f 1272 1271 1270
f 1275 1274 1273

usemtl Patch_137_Mat_CR1_paintedConcrete
f 1278 1277 1276
f 1281 1280 1279
f 1284 1283 1282
f 1287 1286 1285
f 1290 1289 1288
f 1293 1292 1291
f 1296 1295 1294

usemtl Patch_138_Mat_CR1_paintedConcrete
f 1299 1298 1297
f 1302 1301 1300

usemtl Patch_139_Mat_CR1_paintedConcrete
f 1305 1304 1303

usemtl Patch_140_Mat_CR1_paintedConcrete
f 1308 1307 1306

usemtl Patch_141_Mat_CR1_paintedConcrete
f 1311 1310 1309
f 1314 1313 1312
f 1317 1316 1315

usemtl Patch_142_Mat_CR1_paintedConcrete
f 1320 1319 1318
f 1323 1322 1321
f 1326 1325 1324

usemtl Patch_143_Mat_CR1_paintedConcrete
f 1329 1328 1327
f 1332 1331 1330

usemtl Patch_144_Mat_CR1_paintedConcrete
f 1335 1334 1333
f 1338 1337 1336
f 1341 1340 1339

usemtl Patch_145_Mat_CR1_paintedConcrete
f 1344 1343 1342
f 1347 1346 1345

usemtl Patch_146_Mat_CR1_paintedConcrete
f 1350 1349 1348
f 1353 1352 1351
f 1356 1355 1354
f 1359 1358 1357

usemtl Patch_147_Mat_CR1_paintedConcrete
f 1362 1361 1360
f 1365 1364 1363
f 1368 1367 1366
f 1371 1370 1369

usemtl Patch_148_Mat_CR1_paintedConcrete
f 1374 1373 1372
f 1377 1376 1375
f 1380 1379 1378

usemtl Patch_149_Mat_CR1_paintedConcrete
f 1383 1382 1381
f 1386 1385 1384
f 1389 1388 1387

usemtl Patch_150_Mat_CR1_paintedConcrete
f 1392 1391 1390
f 1395 1394 1393
f 1398 1397 1396
f 1401 1400 1399

usemtl Patch_151_Mat_CR1_paintedConcrete
f 1404 1403 1402
f 1407 1406 1405
f 1410 1409 1408
f 1413 1412 1411
f 1416 1415 1414

usemtl Patch_152_Mat_CR1_paintedConcrete
f 1419 1418 1417
f 1422 1421 1420

usemtl Patch_153_Mat_CR1_absorber
f 1425 1424 1423
f 1428 1427 1426

usemtl Patch_154_Mat_CR1_tablesEquipment
f 1431 1430 1429
f 1434 1433 1432
f 1437 1436 1435
f 1440 1439 1438

usemtl Patch_155_Mat_CR1_tablesEquipment
f 1443 1442 1441
f 1446 1445 1444

usemtl Patch_156_Mat_CR1_tablesEquipment
f 1449 1448 1447
f 1452 1451 1450

