mtllib mesh.mtl

# obj1
v 6.1017380200 -3.9059999500 2.7360000500
v 0.5707378400 -6.1599999700 2.7360000500
v 0.5707378400 -3.9059999500 2.7360000500
v 6.1017380200 -6.1599999700 2.7360000500
usemtl Patch_1_Mat_CR1_paintedConcrete
f 1 2 3
usemtl Patch_2_Mat_CR1_paintedConcrete
f 2 1 4

# obj2
v 0.5707378400 0.9300000200 2.7360000500
v 6.1017380200 0.9300000200 2.2760000300
v 0.5707378400 0.9300000200 2.2760000300
v 6.1017380200 0.9300000200 2.7360000500
usemtl Patch_3_Mat_CR1_paintedConcrete
f 5 6 7
usemtl Patch_4_Mat_CR1_paintedConcrete
f 6 5 8

# obj3
v 6.1017380200 0.9300000200 2.2760000300
v 0.5707378400 0.4990000200 2.2760000300
v 0.5707378400 0.9300000200 2.2760000300
v 6.1017380200 0.4990000200 2.2760000300
usemtl Patch_5_Mat_CR1_paintedConcrete
f 9 10 11
usemtl Patch_6_Mat_CR1_paintedConcrete
f 10 9 12

# obj4
v 6.1017380200 0.4990000200 2.7360000500
v 0.5707378400 0.4990000200 2.2760000300
v 6.1017380200 0.4990000200 2.2760000300
v 0.5707378400 0.4990000200 2.7360000500
usemtl Patch_7_Mat_CR1_paintedConcrete
f 13 14 15
usemtl Patch_8_Mat_CR1_paintedConcrete
f 14 13 16

# obj5
v 6.1017380200 1.9029999300 2.7360000500
v 0.5707378400 0.9300000200 2.7360000500
v 0.5707378400 2.4109999300 2.7360000500
v 6.1017380200 0.9300000200 2.7360000500
usemtl Patch_9_Mat_CR1_paintedConcrete
f 17 18 19
usemtl Patch_10_Mat_CR1_paintedConcrete
f 18 17 20

# obj6
v 0.5707378400 -3.4830001900 2.7360000500
v 6.1017380200 -3.4830001900 2.2760000300
v 0.5707378400 -3.4830001900 2.2760000300
v 6.1017380200 -3.4830001900 2.7360000500
usemtl Patch_11_Mat_CR1_paintedConcrete
f 21 22 23
usemtl Patch_12_Mat_CR1_paintedConcrete
f 22 21 24

# obj7
v 6.1017380200 -3.4830001900 2.2760000300
v 0.5707378400 -3.9059999500 2.2760000300
v 0.5707378400 -3.4830001900 2.2760000300
v 6.1017380200 -3.9059999500 2.2760000300
usemtl Patch_13_Mat_CR1_paintedConcrete
f 25 26 27
usemtl Patch_14_Mat_CR1_paintedConcrete
f 26 25 28

# obj8
v 6.1017380200 -3.9059999500 2.7360000500
v 0.5707378400 -3.9059999500 2.2760000300
v 6.1017380200 -3.9059999500 2.2760000300
v 0.5707378400 -3.9059999500 2.7360000500
usemtl Patch_15_Mat_CR1_paintedConcrete
f 29 30 31
usemtl Patch_16_Mat_CR1_paintedConcrete
f 30 29 32

# obj9
v 6.1017380200 0.4990000200 2.7360000500
v 0.5707378400 -3.4830001900 2.7360000500
v 0.5707378400 0.4990000200 2.7360000500
v 6.1017380200 -3.4830001900 2.7360000500
usemtl Patch_17_Mat_CR1_paintedConcrete
f 33 34 35
usemtl Patch_18_Mat_CR1_paintedConcrete
f 34 33 36

# obj10
v -6.2512622300 -3.6479998100 2.7680000400
v -4.5216829200 -3.6479998100 1.1000000100
v -6.2512622300 -3.6479998100 1.1000000100
v -4.5216829200 -3.6479998100 0.0000000000
v -2.8027147800 -3.6479998100 1.1000000100
v -2.8027147800 -3.6479998100 0.0000000000
v -0.0002621400 -3.6479998100 1.1000000100
v -0.0002621400 -3.6479998100 2.7680000400
usemtl Patch_19_Mat_CR1_paintedConcrete
f 37 38 39
usemtl Patch_20_Mat_CR1_paintedConcrete
f 40 41 42
usemtl Patch_21_Mat_CR1_paintedConcrete
f 41 40 38
usemtl Patch_22_Mat_CR1_paintedConcrete
f 43 38 44
usemtl Patch_23_Mat_CR1_paintedConcrete
f 44 38 37

# obj11
v -0.0002621400 2.5230000700 2.7680000400
v -6.2512622300 0.9300000200 2.7680000400
v -6.2512622300 3.0939999100 2.7680000400
v -0.0002621400 0.9300000200 2.7680000400
usemtl Patch_24_Mat_CR1_concrete
f 45 46 47
usemtl Patch_25_Mat_CR1_concrete
f 46 45 48

# obj12
v -6.2512622300 2.1558492200 -0.0000000000
v -6.2512622300 -3.0531010500 1.1000000100
v -6.2512622300 -3.0531010500 0.0000000000
v -6.2512622300 0.4990000200 2.2760000300
v -6.2512622300 0.9300000200 2.2760000300
v -6.2512622300 0.9300000200 2.7680000400
v -6.2512622300 2.1558492200 1.1000000100
v -6.2512622300 3.0939999100 2.7680000400
v -6.2512622300 3.0939999100 1.1000000100
v -6.2512622300 -3.6479998100 2.7680000400
v -6.2512622300 -3.6479998100 1.1000000100
v -6.2512622300 0.4990000200 2.7680000400
usemtl Patch_26_Mat_CR1_concrete
f 49 50 51
usemtl Patch_27_Mat_CR1_concrete
f 50 49 52
usemtl Patch_28_Mat_CR1_concrete
f 52 49 53
usemtl Patch_29_Mat_CR1_concrete
f 53 49 54
usemtl Patch_30_Mat_CR1_concrete
f 54 49 55
usemtl Patch_31_Mat_CR1_concrete
f 54 55 56
usemtl Patch_32_Mat_CR1_concrete
f 56 55 57
usemtl Patch_33_Mat_CR1_concrete
f 50 58 59
usemtl Patch_34_Mat_CR1_concrete
f 58 50 60
usemtl Patch_35_Mat_CR1_concrete
f 60 50 52

# obj13
v -0.0002621400 0.4990000200 2.7680000400
v -6.2512622300 0.4990000200 2.2760000300
v -0.0002621400 0.4990000200 2.2760000300
v -6.2512622300 0.4990000200 2.7680000400
usemtl Patch_36_Mat_CR1_concrete
f 61 62 63
usemtl Patch_37_Mat_CR1_concrete
f 62 61 64

# obj14
v -0.0002621400 0.9300000200 2.2760000300
v -6.2512622300 0.4990000200 2.2760000300
v -6.2512622300 0.9300000200 2.2760000300
v -0.0002621400 0.4990000200 2.2760000300
usemtl Patch_38_Mat_CR1_concrete
f 65 66 67
usemtl Patch_39_Mat_CR1_concrete
f 66 65 68

# obj15
v -6.2512622300 0.9300000200 2.2760000300
v -0.0002621400 0.9300000200 2.7680000400
v -0.0002621400 0.9300000200 2.2760000300
v -6.2512622300 0.9300000200 2.7680000400
usemtl Patch_40_Mat_CR1_concrete
f 69 70 71
usemtl Patch_41_Mat_CR1_concrete
f 70 69 72

# obj16
v -0.0002621400 0.4990000200 2.7680000400
v -6.2512622300 -3.6479998100 2.7680000400
v -6.2512622300 0.4990000200 2.7680000400
v -0.0002621400 -3.6479998100 2.7680000400
usemtl Patch_42_Mat_CR1_concrete
f 73 74 75
usemtl Patch_43_Mat_CR1_concrete
f 74 73 76

# obj17
v -0.0002621400 2.5230000700 2.7680000400
v -1.6769522900 2.6761579700 1.1000000100
v -0.0002621400 2.5230000700 1.1000000100
v -1.6769522900 2.6761579700 0.0000000000
v -4.4160428500 2.9263611100 1.1000000100
v -4.4160428500 2.9263611100 -0.0000000000
v -6.2512622300 3.0939999100 1.1000000100
v -6.2512622300 3.0939999100 2.7680000400
usemtl Patch_44_Mat_CR1_concrete
f 77 78 79
usemtl Patch_45_Mat_CR1_concrete
f 80 81 82
usemtl Patch_46_Mat_CR1_concrete
f 81 80 78
usemtl Patch_47_Mat_CR1_concrete
f 81 78 83
usemtl Patch_48_Mat_CR1_concrete
f 83 78 84
usemtl Patch_49_Mat_CR1_concrete
f 84 78 77

# obj18
v 6.1017380200 1.9029999300 2.7360000500
v 6.1017380200 0.9300000200 2.2760000300
v 6.1017380200 0.9300000200 2.7360000500
v 6.1017380200 -3.9059999500 2.7360000500
v 6.1017380200 -6.1599999700 0.0500000000
v 6.1017380200 -6.1599999700 2.7360000500
v 6.1017380200 -3.9059999500 2.2760000300
v 6.1017380200 1.9029999300 0.0500000000
v 6.1017380200 -3.4830001900 2.2760000300
v 6.1017380200 -3.4830001900 2.7360000500
v 6.1017380200 0.4990000200 2.2760000300
v 6.1017380200 0.4990000200 2.7360000500
usemtl Patch_50_Mat_CR1_paintedConcrete
f 85 86 87
usemtl Patch_51_Mat_CR1_paintedConcrete
f 88 89 90
usemtl Patch_52_Mat_CR1_paintedConcrete
f 89 88 91
usemtl Patch_53_Mat_CR1_paintedConcrete
f 89 91 92
usemtl Patch_54_Mat_CR1_paintedConcrete
f 92 91 93
usemtl Patch_55_Mat_CR1_paintedConcrete
f 92 93 94
usemtl Patch_56_Mat_CR1_paintedConcrete
f 92 94 95
usemtl Patch_57_Mat_CR1_paintedConcrete
f 95 94 96
usemtl Patch_58_Mat_CR1_paintedConcrete
f 92 95 86
usemtl Patch_59_Mat_CR1_paintedConcrete
f 92 86 85

# obj19
v 0.5707378400 -6.1599999700 2.7360000500
v 6.1017380200 -6.1599999700 0.0500000000
v 0.5707378400 -6.1599999700 0.0500000000
v 6.1017380200 -6.1599999700 2.7360000500
usemtl Patch_60_Mat_CR1_paintedConcrete
f 97 98 99
usemtl Patch_61_Mat_CR1_paintedConcrete
f 98 97 100

# obj20
v -4.5101181200 1.9854677600 1.1000000100
v -6.2512622300 3.0939999100 1.1000000100
v -6.2512622300 2.1558492200 1.1000000100
v -4.4160428500 2.9263611100 1.1000000100
usemtl Patch_62_Mat_CR1_tablesEquipment
f 101 102 103
usemtl Patch_63_Mat_CR1_tablesEquipment
f 102 101 104

# obj21
v -4.4160428500 2.9263611100 -0.0000000000
v -4.5101181200 1.9854677600 1.1000000100
v -4.5101181200 1.9854677600 -0.0000000000
v -4.4160428500 2.9263611100 1.1000000100
usemtl Patch_64_Mat_CR1_tablesEquipment
f 105 106 107
usemtl Patch_65_Mat_CR1_tablesEquipment
f 106 105 108

# obj22
v -4.5101181200 1.9854677600 1.1000000100
v -6.2512622300 2.1558492200 -0.0000000000
v -4.5101181200 1.9854677600 -0.0000000000
v -6.2512622300 2.1558492200 1.1000000100
usemtl Patch_66_Mat_CR1_tablesEquipment
f 109 110 111
usemtl Patch_67_Mat_CR1_tablesEquipment
f 110 109 112

# obj23
v -6.2512622300 -3.0531010500 1.1000000100
v -4.5216829200 -3.0531010500 0.0000000000
v -6.2512622300 -3.0531010500 0.0000000000
v -4.5216829200 -3.0531010500 1.1000000100
usemtl Patch_68_Mat_CR1_tablesEquipment
f 113 114 115
usemtl Patch_69_Mat_CR1_tablesEquipment
f 114 113 116

# obj24
v -4.5216829200 -3.6479998100 1.1000000100
v -6.2512622300 -3.0531010500 1.1000000100
v -6.2512622300 -3.6479998100 1.1000000100
v -4.5216829200 -3.0531010500 1.1000000100
usemtl Patch_70_Mat_CR1_tablesEquipment
f 117 118 119
usemtl Patch_71_Mat_CR1_tablesEquipment
f 118 117 120

# obj25
v -4.5216829200 -3.0531010500 0.0000000000
v -4.5216829200 -3.6479998100 1.1000000100
v -4.5216829200 -3.6479998100 0.0000000000
v -4.5216829200 -3.0531010500 1.1000000100
usemtl Patch_72_Mat_CR1_tablesEquipment
f 121 122 123
usemtl Patch_73_Mat_CR1_tablesEquipment
f 122 121 124

# obj26
v -0.0002621400 1.5980490700 1.1000000100
v -1.6769522900 2.6761579700 1.1000000100
v -1.7412999100 1.7145899200 1.1000000100
v -0.0002621400 2.5230000700 1.1000000100
usemtl Patch_74_Mat_CR1_tablesEquipment
f 125 126 127
usemtl Patch_75_Mat_CR1_tablesEquipment
f 126 125 128

# obj27
v -0.0002621400 1.5980490700 1.1000000100
v -1.7412999100 1.7145899200 0.0000000000
v -0.0002621400 1.5980490700 0.0000000000
v -1.7412999100 1.7145899200 1.1000000100
usemtl Patch_76_Mat_CR1_tablesEquipment
f 129 130 131
usemtl Patch_77_Mat_CR1_tablesEquipment
f 130 129 132

# obj28
v -1.6769522900 2.6761579700 1.1000000100
v -1.7412999100 1.7145899200 0.0000000000
v -1.7412999100 1.7145899200 1.1000000100
v -1.6769522900 2.6761579700 0.0000000000
usemtl Patch_78_Mat_CR1_tablesEquipment
f 133 134 135
usemtl Patch_79_Mat_CR1_tablesEquipment
f 134 133 136

# obj29
v -5.4419003900 1.4788138000 0.0000000000
v -5.4419003900 -0.0911861800 1.0000000100
v -5.4419003900 -0.0911861800 0.0000000000
v -5.4419003900 1.4788138000 1.0000000100
usemtl Patch_80_Mat_CR1_absorber
f 137 138 139
usemtl Patch_81_Mat_CR1_absorber
f 138 137 140

# obj30
v -2.5087414400 2.5619982700 1.0000000100
v -3.5087416400 2.5619982700 0.0000000000
v -2.5087414400 2.5619982700 0.0000000000
v -3.5087416400 2.5619982700 1.0000000100
usemtl Patch_82_Mat_CR1_absorber
f 141 142 143
usemtl Patch_83_Mat_CR1_absorber
f 142 141 144

# obj31
v -2.3900469400 2.5244441700 1.0000000100
v -1.7840585400 1.7289706300 0.0000000000
v -1.7840585400 1.7289706300 1.0000000100
v -2.3900469400 2.5244441700 0.0000000000
usemtl Patch_84_Mat_CR1_absorber
f 145 146 147
usemtl Patch_85_Mat_CR1_absorber
f 146 145 148

# obj32
v -4.3891251200 1.9767803100 1.0000000100
v -5.3182575500 1.6070335900 0.0000000000
v -4.3891251200 1.9767803100 0.0000000000
v -5.3182575500 1.6070335900 1.0000000100
usemtl Patch_86_Mat_CR1_absorber
f 149 150 151
usemtl Patch_87_Mat_CR1_absorber
f 150 149 152

# obj33
v -2.8027147800 -2.7983574900 1.1000000100
v -2.8027147800 -3.6479998100 0.0000000000
v -2.8027147800 -3.6479998100 1.1000000100
v -2.8027147800 -2.7983574900 0.0000000000
usemtl Patch_88_Mat_CR1_tablesEquipment
f 153 154 155
usemtl Patch_89_Mat_CR1_tablesEquipment
f 154 153 156

# obj34
v -2.8027147800 -2.7983574900 1.1000000100
v -0.9127148300 -2.7983574900 0.0000000000
v -2.8027147800 -2.7983574900 0.0000000000
v -0.9127148300 -2.7983574900 1.1000000100
usemtl Patch_90_Mat_CR1_tablesEquipment
f 157 158 159
usemtl Patch_91_Mat_CR1_tablesEquipment
f 158 157 160

# obj35
v -0.0002621400 -3.6479998100 1.1000000100
v -2.8027147800 -2.7983574900 1.1000000100
v -2.8027147800 -3.6479998100 1.1000000100
v -0.9127148300 -2.7983574900 1.1000000100
v -0.9127148300 -1.9833576200 1.1000000100
v -0.0002621400 -1.9833576200 1.1000000100
usemtl Patch_92_Mat_CR1_tablesEquipment
f 161 162 163
usemtl Patch_93_Mat_CR1_tablesEquipment
f 162 161 164
usemtl Patch_94_Mat_CR1_tablesEquipment
f 164 161 165
usemtl Patch_95_Mat_CR1_tablesEquipment
f 165 161 166

# obj36
v -0.9127148300 -1.9833576200 1.1000000100
v -0.9127148300 -2.7983574900 0.0000000000
v -0.9127148300 -2.7983574900 1.1000000100
v -0.9127148300 -1.9833576200 0.0000000000
usemtl Patch_96_Mat_CR1_tablesEquipment
f 167 168 169
usemtl Patch_97_Mat_CR1_tablesEquipment
f 168 167 170

# obj37
v -0.9127148300 -1.9833576200 1.1000000100
v -0.0002621400 -1.9833576200 0.0000000000
v -0.9127148300 -1.9833576200 0.0000000000
v -0.0002621400 -1.9833576200 1.1000000100
usemtl Patch_98_Mat_CR1_tablesEquipment
f 171 172 173
usemtl Patch_99_Mat_CR1_tablesEquipment
f 172 171 174

# obj38
v -0.9127148300 -2.7983574900 0.0000000000
v -1.7412999100 1.7145899200 0.0000000000
v -2.8027147800 -2.7983574900 0.0000000000
v -0.9127148300 -1.9833576200 0.0000000000
v -0.0002621400 1.5980490700 0.0000000000
v -0.0002621400 -0.0120000000 0.0000000000
v -0.0002621400 -1.9833576200 0.0000000000
v -0.0002621400 -1.4879999700 0.0000000000
v -2.8027147800 -3.6479998100 0.0000000000
v -4.5216829200 -3.0531010500 0.0000000000
v -4.5216829200 -3.6479998100 0.0000000000
v -4.5101181200 1.9854677600 -0.0000000000
v -4.4160428500 2.9263611100 -0.0000000000
v -1.6769522900 2.6761579700 0.0000000000
v -6.2512622300 -3.0531010500 0.0000000000
v -6.2512622300 2.1558492200 -0.0000000000
usemtl Patch_100_Mat_CR1_concrete
f 175 176 177
usemtl Patch_101_Mat_CR1_concrete
f 176 175 178
usemtl Patch_102_Mat_CR1_concrete
f 176 178 179
usemtl Patch_103_Mat_CR1_concrete
f 179 178 180
usemtl Patch_104_Mat_CR1_concrete
f 180 178 181
usemtl Patch_105_Mat_CR1_concrete
f 183 184 185
usemtl Patch_106_Mat_CR1_concrete
f 184 183 186
usemtl Patch_107_Mat_CR1_concrete
f 186 183 187
usemtl Patch_108_Mat_CR1_concrete
f 187 183 177
usemtl Patch_109_Mat_CR1_concrete
f 187 177 188
usemtl Patch_110_Mat_CR1_concrete
f 188 177 176
usemtl Patch_111_Mat_CR1_concrete
f 189 186 190
usemtl Patch_112_Mat_CR1_concrete
f 186 189 184

# obj39
v -3.5562864200 2.5587957500 1.0000000100
v -4.4223118500 2.0587958500 0.0000000000
v -3.5562864200 2.5587957500 0.0000000000
v -4.4223118500 2.0587958500 1.0000000100
usemtl Patch_113_Mat_CR1_absorber
f 191 192 193
usemtl Patch_114_Mat_CR1_absorber
f 192 191 194

# obj40
v -0.0002621400 -1.4879999700 2.1930000600
v 0.5707378400 -1.4879999700 0.0500000000
v -0.0002621400 -1.4879999700 0.0000000000
v 0.5707378400 -1.4879999700 2.1930000600
usemtl Patch_115_Mat_CR1_concrete
f 195 196 197
usemtl Patch_116_Mat_CR1_concrete
f 196 195 198

# obj41
v 0.6757168000 -1.4849914300 0.0500000000
v 0.5707378400 -0.0120000000 2.1949999300
v 0.6757168000 -1.4849914300 2.1949999300
v 0.5707378400 -0.0120000000 0.0500000000
usemtl Patch_117_Mat_CR1_paintedConcrete
f 199 200 201
usemtl Patch_118_Mat_CR1_paintedConcrete
f 200 199 202

# obj42
v -0.0002621400 2.5230000700 2.7680000400
v -0.0002621400 0.9300000200 2.2760000300
v -0.0002621400 0.9300000200 2.7680000400
v -0.0002621400 1.5980490700 1.1000000100
v -0.0002621400 2.5230000700 1.1000000100
v -0.0002621400 -3.6479998100 2.7680000400
v -0.0002621400 -1.4879999700 2.1930000600
v -0.0002621400 -3.6479998100 1.1000000100
v -0.0002621400 0.4990000200 2.7680000400
v -0.0002621400 -1.9833576200 1.1000000100
v -0.0002621400 -1.9833576200 0.0000000000
v -0.0002621400 -0.0120000000 2.1949999300
v -0.0002621400 -0.0120000000 0.0000000000
v -0.0002621400 0.4990000200 2.2760000300
v -0.0002621400 1.5980490700 0.0000000000
v -0.0002621400 -1.4879999700 0.0000000000
usemtl Patch_119_Mat_CR1_concrete
f 203 204 205
usemtl Patch_120_Mat_CR1_concrete
f 204 203 206
usemtl Patch_121_Mat_CR1_concrete
f 206 203 207
usemtl Patch_122_Mat_CR1_concrete
f 208 209 210
usemtl Patch_123_Mat_CR1_concrete
f 209 208 211
usemtl Patch_124_Mat_CR1_concrete
f 210 209 212
usemtl Patch_125_Mat_CR1_concrete
f 212 209 213
usemtl Patch_126_Mat_CR1_concrete
f 209 211 214
usemtl Patch_127_Mat_CR1_concrete
f 214 211 215
usemtl Patch_128_Mat_CR1_concrete
f 215 211 216
usemtl Patch_129_Mat_CR1_concrete
f 215 216 217
usemtl Patch_130_Mat_CR1_concrete
f 217 216 204
usemtl Patch_131_Mat_CR1_concrete
f 217 204 206
usemtl Patch_132_Mat_CR1_concrete
f 218 213 209

# obj43
v 6.1017380200 1.9029999300 2.7360000500
v 0.5707378400 2.4109999300 0.0500000000
v 6.1017380200 1.9029999300 0.0500000000
v 0.5707378400 2.4109999300 2.7360000500
usemtl Patch_133_Mat_CR1_paintedConcrete
f 219 220 221
usemtl Patch_134_Mat_CR1_paintedConcrete
f 220 219 222

# obj44
v 6.1017380200 -6.1599999700 0.0500000000
v 0.5707378400 -1.4879999700 0.0500000000
v 0.5707378400 -6.1599999700 0.0500000000
v 0.5707378400 -0.0120000000 0.0500000000
v 6.1017380200 1.9029999300 0.0500000000
v 0.5707378400 2.4109999300 0.0500000000
usemtl Patch_135_Mat_CR1_paintedConcrete
f 223 224 225
usemtl Patch_136_Mat_CR1_paintedConcrete
f 224 223 226
usemtl Patch_137_Mat_CR1_paintedConcrete
f 226 227 228
usemtl Patch_138_Mat_CR1_paintedConcrete
f 227 226 223

# obj45
v 0.5707378400 -1.4879999700 0.0500000000
v -0.0002621400 -0.0120000000 0.0000000000
v -0.0002621400 -1.4879999700 0.0000000000
v 0.5707378400 -0.0120000000 0.0500000000
usemtl Patch_139_Mat_CR1_concrete
f 229 230 231
usemtl Patch_140_Mat_CR1_concrete
f 230 229 232

# obj46
v 0.5707378400 -1.4879999700 0.0500000000
v 0.5707378400 -6.1599999700 2.7360000500
v 0.5707378400 -6.1599999700 0.0500000000
v 0.5707378400 -3.9059999500 2.2760000300
v 0.5707378400 -3.4830001900 2.2760000300
v 0.5707378400 -3.4830001900 2.7360000500
v 0.5707378400 -1.4879999700 2.1930000600
v 0.5707378400 0.4990000200 2.7360000500
v 0.5707378400 -0.0120000000 2.1949999300
v 0.5707378400 -3.9059999500 2.7360000500
usemtl Patch_141_Mat_CR1_paintedConcrete
f 233 234 235
usemtl Patch_142_Mat_CR1_paintedConcrete
f 234 233 236
usemtl Patch_143_Mat_CR1_paintedConcrete
f 236 233 237
usemtl Patch_144_Mat_CR1_paintedConcrete
f 237 233 238
usemtl Patch_145_Mat_CR1_paintedConcrete
f 238 233 239
usemtl Patch_146_Mat_CR1_paintedConcrete
f 238 239 240
usemtl Patch_147_Mat_CR1_paintedConcrete
f 240 239 241
usemtl Patch_148_Mat_CR1_paintedConcrete
f 242 234 236

# obj47
v 0.5707378400 2.4109999300 0.0500000000
v 0.5707378400 0.4990000200 2.2760000300
v 0.5707378400 -0.0120000000 0.0500000000
v 0.5707378400 0.9300000200 2.2760000300
v 0.5707378400 0.9300000200 2.7360000500
v 0.5707378400 2.4109999300 2.7360000500
v 0.5707378400 0.4990000200 2.7360000500
v 0.5707378400 -0.0120000000 2.1949999300
usemtl Patch_149_Mat_CR1_paintedConcrete
f 243 244 245
usemtl Patch_150_Mat_CR1_paintedConcrete
f 244 243 246
usemtl Patch_151_Mat_CR1_paintedConcrete
f 246 243 247
usemtl Patch_152_Mat_CR1_paintedConcrete
f 247 243 248
usemtl Patch_153_Mat_CR1_paintedConcrete
f 245 249 250
usemtl Patch_154_Mat_CR1_paintedConcrete
f 249 245 244

# obj48
v 0.5707378400 -0.0120000000 0.0500000000
v -0.0002621400 -0.0120000000 2.1949999300
v -0.0002621400 -0.0120000000 0.0000000000
v 0.5707378400 -0.0120000000 2.1949999300
usemtl Patch_155_Mat_CR1_concrete
f 251 252 253
usemtl Patch_156_Mat_CR1_concrete
f 252 251 254

# obj49
usemtl Patch_157_Mat_CR1_tablesEquipment
f 199 201 200
usemtl Patch_158_Mat_CR1_tablesEquipment
f 200 202 199

# obj50
usemtl Patch_159_Mat_CR1_absorber
f 137 139 138
usemtl Patch_160_Mat_CR1_absorber
f 138 140 137

# obj51
usemtl Patch_161_Mat_CR1_absorber
f 141 143 142
usemtl Patch_162_Mat_CR1_absorber
f 142 144 141

# obj52
usemtl Patch_163_Mat_CR1_absorber
f 145 147 146
usemtl Patch_164_Mat_CR1_absorber
f 146 148 145

# obj53
usemtl Patch_165_Mat_CR1_absorber
f 149 151 150
usemtl Patch_166_Mat_CR1_absorber
f 150 152 149

# obj54
usemtl Patch_167_Mat_CR1_absorber
f 191 193 192
usemtl Patch_168_Mat_CR1_absorber
f 192 194 191
