mtllib mesh.mtl

v -1.30349243 4.08237756 0.1500000000000001
v -2.82349239 4.08237756 0.59500002
v -2.82349239 4.08237756 0.1499999999999999
v -2.82349239 4.08237756 0.59500002
v -1.30349243 4.08237756 0.1500000000000001
v -1.30349243 4.08237756 0.5950000200000001
v 2.8035075600000003 4.18937762 1.5080126580847675
v 2.80350756 4.18937762 0.45
v 1.2605076499999999 4.18937762 0.44999999999999984
v 1.2605076499999999 4.18937762 0.44999999999999984
v 1.2605076500000003 4.18937762 1.5208355918587737
v 2.8035075600000003 4.18937762 1.5080126580847675
v 1.2605076500000003 4.18937762 1.5208355918587737
v 1.2605076500000005 4.18937762 2.5680000399999994
v 2.8035075600000003 4.18937762 2.5680000399999994
v 2.8035075600000003 4.18937762 2.5680000399999994
v 2.8035075600000003 4.18937762 1.5080126580847675
v 1.2605076500000003 4.18937762 1.5208355918587737
v 2.4885076 -3.69462216 2.941836062697082e-18
v 3.09350769 -3.69462216 2.98799998
v 3.09350769 -3.69462216 -4.85722573273506e-16
v 3.09350769 -3.69462216 2.98799998
v 2.4885076 -3.69462216 2.941836062697082e-18
v 2.4885076 -3.69462216 2.98799998
v 2.5038559054042966 -2.6713988221333755 1.4955828554604769
v 2.51850751 -1.69462234 1.8194950447492755
v 2.51850751 -1.69462234 2.98799998
v 2.5038559054042966 -2.6713988221333755 1.4955828554604769
v 2.4885076 -3.6946221600000007 2.98799998
v 2.4885076 -3.69462216 1.865647937874349
v 2.4885076 -3.6946221600000007 2.98799998
v 2.5038559054042966 -2.6713988221333755 1.4955828554604769
v 2.51850751 -1.69462234 2.98799998
v 2.5038559054042966 -2.6713988221333755 1.4955828554604769
v 2.4885076 -3.69462216 1.865647937874349
v 2.4885076 -3.69462216 -5.988283305119281e-16
v 2.4885076 -3.69462216 -5.988283305119281e-16
v 2.5030123254530583 -2.7276376492042758 -2.7755575615628914e-16
v 2.5038559054042966 -2.6713988221333755 1.4955828554604769
v 2.5038559054042966 -2.6713988221333755 1.4955828554604769
v 2.5030123254530583 -2.7276376492042758 -2.7755575615628914e-16
v 2.51850751 -1.6946223400000004 -5.551115123125783e-16
v 2.51850751 -1.6946223400000004 -5.551115123125783e-16
v 2.51850751 -1.69462234 1.8194950447492755
v 2.5038559054042966 -2.6713988221333755 1.4955828554604769
v 3.13150769 -1.69462234 2.080182847191878e-19
v 2.51850751 -1.69462234 2.98799998
v 2.51850751 -1.69462234 1.3877787807814457e-17
v 2.51850751 -1.69462234 2.98799998
v 3.13150769 -1.69462234 2.080182847191878e-19
v 3.1315076900000003 -1.69462234 2.98799998
v -0.4696729452014311 -4.25462209 1.5011894660590848
v -0.5160247651973029 -4.25462209 2.9879999800000006
v -1.61649242 -4.25462209 2.98799998
v -1.61649242 -4.25462209 2.98799998
v -1.6164924200000002 -4.25462209 1.449638283523372
v -0.4696729452014311 -4.25462209 1.5011894660590848
v -0.4696729452014311 -4.25462209 1.5011894660590848
v -0.3955116433773964 -4.25462209 1.4498025027220987
v 0.6354514336545857 -4.25462209 1.5598417414613759
v 0.6354514336545857 -4.25462209 1.5598417414613759
v 0.6716571651952161 -4.25462209 2.98799998
v -0.5160247651973029 -4.25462209 2.9879999800000006
v -0.5160247651973029 -4.25462209 2.9879999800000006
v -0.4696729452014311 -4.25462209 1.5011894660590848
v 0.6354514336545857 -4.25462209 1.5598417414613759
v -1.6164924199999997 -4.25462209 0.0
v -0.4696729452014311 -4.25462209 1.5011894660590848
v -1.6164924200000002 -4.25462209 1.449638283523372
v -0.4696729452014311 -4.25462209 1.5011894660590848
v -1.6164924199999997 -4.25462209 0.0
v -0.3618609794342398 -4.25462209 0.0
v -0.4696729452014311 -4.25462209 1.5011894660590848
v -0.3618609794342398 -4.25462209 0.0
v -0.3955116433773964 -4.25462209 1.4498025027220987
v -0.3618609794342398 -4.25462209 0.0
v 0.6354514336545857 -4.25462209 1.5598417414613759
v -0.3955116433773964 -4.25462209 1.4498025027220987
v 0.8312701293381723 -4.25462209 1.4259622619602759
v -0.3618609794342398 -4.25462209 0.0
v 0.8130341937106892 -4.25462209 0.0
v -0.3618609794342398 -4.25462209 0.0
v 0.8312701293381723 -4.25462209 1.4259622619602759
v 0.6354514336545857 -4.25462209 1.5598417414613759
v 3.09350769 -4.25462209 2.98799998
v 1.965028899495496 -4.25462209 1.4786904646299508
v 3.09350769 -4.25462209 1.5367301813643601
v 1.965028899495496 -4.25462209 1.4786904646299508
v 3.09350769 -4.25462209 2.98799998
v 1.8369988822942453 -4.25462209 2.98799998
v 1.965028899495496 -4.25462209 1.4786904646299508
v 1.8369988822942453 -4.25462209 2.98799998
v 1.8617854219491026 -4.25462209 1.550615138316803
v 1.965028899495496 -4.25462209 1.4786904646299508
v 1.8617854219491026 -4.25462209 1.550615138316803
v 0.8312701293381723 -4.25462209 1.4259622619602759
v 0.8312701293381723 -4.25462209 1.4259622619602759
v 0.8130341937106892 -4.25462209 0.0
v 1.9913997283230518 -4.25462209 -2.7755575615628914e-16
v 1.9913997283230518 -4.25462209 -2.7755575615628914e-16
v 1.965028899495496 -4.25462209 1.4786904646299508
v 0.8312701293381723 -4.25462209 1.4259622619602759
v 0.6354514336545857 -4.25462209 1.5598417414613759
v 0.8312701293381723 -4.25462209 1.4259622619602759
v 1.8617854219491026 -4.25462209 1.550615138316803
v 1.8617854219491026 -4.25462209 1.550615138316803
v 1.8369988822942453 -4.25462209 2.98799998
v 0.6716571651952161 -4.25462209 2.98799998
v 0.6716571651952161 -4.25462209 2.98799998
v 0.6354514336545857 -4.25462209 1.5598417414613759
v 1.8617854219491026 -4.25462209 1.550615138316803
v 1.965028899495496 -4.25462209 1.4786904646299508
v 1.9913997283230518 -4.25462209 -2.7755575615628914e-16
v 3.09350769 -4.25462209 -1.211694571856412e-16
v 3.09350769 -4.25462209 -1.211694571856412e-16
v 3.09350769 -4.25462209 1.5367301813643601
v 1.965028899495496 -4.25462209 1.4786904646299508
v 0.75750759 4.18937762 1.5054912146990365
v -0.7694923699999999 4.18937762 2.56800004
v 0.75750759 4.18937762 2.56800004
v -0.7694923699999999 4.18937762 2.56800004
v 0.75750759 4.18937762 1.5054912146990365
v -0.7694923699999998 4.18937762 1.5048013744859143
v -0.7694923699999998 4.18937762 1.5048013744859143
v 0.7575075900000002 4.18937762 0.45000000000000007
v -0.7694923699999996 4.18937762 0.45000000000000057
v 0.7575075900000002 4.18937762 0.45000000000000007
v -0.7694923699999998 4.18937762 1.5048013744859143
v 0.75750759 4.18937762 1.5054912146990365
v -1.2974924100000003 4.18937762 1.5115269583176358
v -2.88449234 4.18937762 2.56800004
v -1.29749241 4.18937762 2.56800004
v -2.88449234 4.18937762 2.56800004
v -1.2974924100000003 4.18937762 1.5115269583176358
v -2.8844923400000004 4.18937762 1.5044374935796583
v -2.8844923400000004 4.18937762 1.5044374935796583
v -1.2974924100000003 4.18937762 0.45000000000000007
v -2.88449234 4.18937762 0.4500000000000002
v -1.2974924100000003 4.18937762 0.45000000000000007
v -2.8844923400000004 4.18937762 1.5044374935796583
v -1.2974924100000003 4.18937762 1.5115269583176358
v -1.61649242 -2.8906222 0.9589348668363058
v -1.61649242 -2.8906222 0.0
v -1.61649242 -4.25462209 1.1102230246251565e-16
v -1.61649242 -4.25462209 1.1102230246251565e-16
v -1.61649242 -4.25462209 0.9838430917146376
v -1.61649242 -2.8906222 0.9589348668363058
v -1.61649242 -4.25462209 0.9838430917146376
v -1.61649242 -4.25462209 1.9661360608031593
v -1.61649242 -2.8906221999999997 1.9725206567079774
v -1.61649242 -2.8906221999999997 1.9725206567079774
v -1.61649242 -2.8906222 0.9589348668363058
v -1.61649242 -4.25462209 0.9838430917146376
v -1.61649242 -2.8906221999999997 1.9725206567079774
v -1.61649242 -4.25462209 2.98799998
v -1.61649242 -2.8906222000000006 2.98799998
v -1.61649242 -4.25462209 2.98799998
v -1.61649242 -2.8906221999999997 1.9725206567079774
v -1.61649242 -4.25462209 1.9661360608031593
v 0.7565076000000001 4.08237756 0.15000000000000002
v -0.7634924 4.08237756 0.59500002
v -0.7634924 4.08237756 0.14999999999999997
v -0.7634924 4.08237756 0.59500002
v 0.7565076000000001 4.08237756 0.15000000000000002
v 0.7565076000000001 4.08237756 0.5950000200000001
v 2.78650763 4.08237756 0.15000000000000008
v 1.26650758 4.08237756 0.59500002
v 1.2665075800000003 4.08237756 0.15000000000000008
v 1.26650758 4.08237756 0.59500002
v 2.78650763 4.08237756 0.15000000000000008
v 2.78650763 4.08237756 0.59500002
v 3.09350769 -4.25462209 4.4288603814401584e-16
v 3.09350769 -3.69462216 2.98799998
v 3.09350769 -4.25462209 2.98799998
v 3.09350769 -3.69462216 2.98799998
v 3.09350769 -4.25462209 4.4288603814401584e-16
v 3.09350769 -3.6946221599999998 4.579669976578771e-16
v 2.8035075600000003 4.18937762 0.4500000000000002
v 2.80350756 4.18937762 1.9753057345694007
v 3.1550136200000005 4.18937762 2.173218885171176
v 2.8035075600000003 4.18937762 0.4500000000000002
v 1.8316708640238273 4.18937762 0.0
v 1.8002712269066525 4.18937762 0.4500000000000002
v 2.8035075600000003 4.18937762 0.4500000000000002
v 3.1550136200000005 4.18937762 2.173218885171176
v 3.1550136200000005 4.18937762 0.0
v 1.8316708640238273 4.18937762 0.0
v 2.8035075600000003 4.18937762 0.4500000000000002
v 3.1550136200000005 4.18937762 0.0
v 0.7575075900000002 4.18937762 0.4500000000000002
v 0.7575075900000005 4.18937762 1.7538285233150588
v 1.2605076500000005 4.18937762 1.558601571515222
v 1.2605076500000005 4.18937762 0.4500000000000004
v 1.8002712269066525 4.18937762 0.4500000000000002
v 1.8316708640238273 4.18937762 0.0
v 0.7575075900000002 4.18937762 0.4500000000000002
v -0.2535440381592241 4.18937762 4.440892098500626e-16
v -0.2689660158085221 4.18937762 0.4500000000000004
v 0.7575075900000002 4.18937762 0.4500000000000002
v 1.2605076500000005 4.18937762 1.558601571515222
v 1.2605076500000005 4.18937762 0.4500000000000004
v -0.2535440381592241 4.18937762 4.440892098500626e-16
v 0.7575075900000002 4.18937762 0.4500000000000002
v 1.8316708640238273 4.18937762 0.0
v 0.7575075900000002 4.18937762 0.4500000000000002
v 1.2605076500000005 4.18937762 0.4500000000000004
v 1.8316708640238273 4.18937762 0.0
v 1.2605076500000003 4.18937762 2.56800004
v 1.2605076500000005 4.18937762 1.558601571515222
v 0.7575075900000005 4.18937762 1.7538285233150588
v 0.7575075900000003 4.18937762 2.56800004
v 0.22213121601717212 4.18937762 2.5680000400000003
v 0.2176253825334168 4.18937762 2.9879999800000006
v 2.80350756 4.18937762 2.56800004
v 3.1550136200000005 4.18937762 2.173218885171176
v 2.80350756 4.18937762 1.9753057345694007
v 1.2605076500000003 4.18937762 2.56800004
v 0.7575075900000005 4.18937762 1.7538285233150588
v 0.7575075900000003 4.18937762 2.56800004
v 1.2605076500000003 4.18937762 2.56800004
v 0.2176253825334168 4.18937762 2.9879999800000006
v 3.15501362 4.18937762 2.98799998
v 3.1550136200000005 4.18937762 2.173218885171176
v 2.80350756 4.18937762 2.56800004
v 3.15501362 4.18937762 2.98799998
v 0.2176253825334168 4.18937762 2.9879999800000006
v 1.2605076500000003 4.18937762 2.56800004
v 0.7575075900000003 4.18937762 2.56800004
v 3.15501362 4.18937762 2.98799998
v 2.80350756 4.18937762 2.56800004
v 1.2605076500000003 4.18937762 2.56800004
v -0.7694923699999997 4.18937762 2.5680000400000003
v -0.7694923699999998 4.18937762 1.455359172464198
v -1.2974924099999996 4.18937762 1.5061694478913523
v -1.2974924099999994 4.18937762 2.5680000400000003
v -2.8844923399999987 4.18937762 2.5680000400000007
v -2.884492339999999 4.18937762 2.9879999800000006
v -0.7694923699999997 4.18937762 2.5680000400000003
v 0.2176253825334168 4.18937762 2.9879999800000006
v 0.22213121601717212 4.18937762 2.5680000400000003
v -0.7694923699999997 4.18937762 2.5680000400000003
v -1.2974924099999996 4.18937762 1.5061694478913523
v -1.2974924099999994 4.18937762 2.5680000400000003
v 0.2176253825334168 4.18937762 2.9879999800000006
v -1.2974924099999994 4.18937762 2.5680000400000003
v -2.884492339999999 4.18937762 2.9879999800000006
v 0.2176253825334168 4.18937762 2.9879999800000006
v -0.7694923699999997 4.18937762 2.5680000400000003
v -1.2974924099999994 4.18937762 2.5680000400000003
v -0.7694923699999998 4.18937762 1.455359172464198
v -0.7694923699999996 4.18937762 0.4500000000000006
v -1.2974924099999996 4.18937762 0.45000000000000057
v -1.2974924099999996 4.18937762 0.45000000000000057
v -1.2974924099999996 4.18937762 1.5061694478913523
v -0.7694923699999998 4.18937762 1.455359172464198
v -1.2974924099999996 4.18937762 0.45000000000000057
v -2.8844923399999987 4.18937762 5.868309054229044e-16
v -2.884492339999998 4.18937762 0.45000000000000073
v -0.2535440381592241 4.18937762 4.440892098500626e-16
v -1.2974924099999996 4.18937762 0.45000000000000057
v -0.2689660158085221 4.18937762 0.4500000000000004
v -1.2974924099999996 4.18937762 0.45000000000000057
v -0.2535440381592241 4.18937762 4.440892098500626e-16
v -2.8844923399999987 4.18937762 5.868309054229044e-16
v -1.61649242 -2.8906222 0.0
v -1.1206853417250109 -2.41439587193413 0.0
v -1.61649242 -2.948549284249676 0.0
v -1.61649242 -2.8906222 0.0
v -2.88449234 -2.8906222 0.0
v -2.8844923400000004 -1.640364549426487 0.0
v -1.1206853417250109 -2.41439587193413 0.0
v -1.61649242 -2.8906222 0.0
v -1.5558195135758766 -1.643546882716806 0.0
v -1.61649242 -2.8906222 0.0
v -2.8844923400000004 -1.640364549426487 0.0
v -1.5558195135758766 -1.643546882716806 0.0
v -1.61649242 -2.948549284249676 0.0
v -0.6003281678900368 -2.459886711792567 0.0
v -0.10035909076179572 -2.9850688742634506 0.0
v -1.61649242 -2.948549284249676 0.0
v -0.2591731119666292 -4.25462209 0.0
v -1.6164924200000002 -4.25462209 0.0
v -0.6003281678900368 -2.459886711792567 0.0
v -1.61649242 -2.948549284249676 0.0
v -1.1206853417250109 -2.41439587193413 0.0
v -0.2591731119666292 -4.25462209 0.0
v -1.61649242 -2.948549284249676 0.0
v -0.10035909076179572 -2.9850688742634506 0.0
v -1.5558195135758766 -1.643546882716806 0.0
v -1.2150068573769732 -0.643273817899048 0.0
v -0.1302429932741987 -0.7164124182669576 0.0
v -1.5558195135758766 -1.643546882716806 0.0
v 0.1616054121435615 -1.314870784267069 0.0
v -0.6003281678900368 -2.459886711792567 0.0
v -0.6003281678900368 -2.459886711792567 0.0
v -1.1206853417250109 -2.41439587193413 0.0
v -1.5558195135758766 -1.643546882716806 0.0
v 0.1616054121435615 -1.314870784267069 0.0
v -1.5558195135758766 -1.643546882716806 0.0
v -0.1302429932741987 -0.7164124182669576 0.0
v 1.0087224911954529 -2.803006260268357 0.0
v 0.1616054121435615 -1.314870784267069 0.0
v 1.087060875870697 -1.6252524624011677 0.0
v 0.1616054121435615 -1.314870784267069 0.0
v 1.0087224911954529 -2.803006260268357 0.0
v -0.10035909076179572 -2.9850688742634506 0.0
v 0.1616054121435615 -1.314870784267069 0.0
v -0.10035909076179572 -2.9850688742634506 0.0
v -0.6003281678900368 -2.459886711792567 0.0
v 1.281792765512551 -4.25462209 0.0
v 1.0087224911954529 -2.803006260268357 0.0
v 1.3770244736044055 -3.1393599747956724 0.0
v -0.10035909076179572 -2.9850688742634506 0.0
v 1.281792765512551 -4.25462209 0.0
v -0.2591731119666292 -4.25462209 0.0
v 1.0087224911954529 -2.803006260268357 0.0
v 1.281792765512551 -4.25462209 0.0
v -0.10035909076179572 -2.9850688742634506 0.0
v -1.4051595641135253 0.5431685878758924 0.0
v -1.41036767943672 -0.3895627638908662 0.0
v -2.88449234 -0.49025644038300054 0.0
v -2.88449234 -0.49025644038300054 0.0
v -2.8844923400000004 0.8686332813486308 0.0
v -1.4051595641135253 0.5431685878758924 0.0
v -1.41036767943672 -0.3895627638908662 0.0
v -1.2150068573769732 -0.643273817899048 0.0
v -1.5558195135758766 -1.643546882716806 0.0
v -1.5558195135758766 -1.643546882716806 0.0
v -2.8844923400000004 -1.640364549426487 0.0
v -2.88449234 -0.49025644038300054 0.0
v -2.88449234 -0.49025644038300054 0.0
v -1.41036767943672 -0.3895627638908662 0.0
v -1.5558195135758766 -1.643546882716806 0.0
v -0.10942224875431494 0.940464969040522 0.0
v -1.4051595641135253 0.5431685878758924 0.0
v -1.0114276864217875 1.0112373137381856 0.0
v -1.4051595641135253 0.5431685878758924 0.0
v -0.10942224875431494 0.940464969040522 0.0
v 0.3057958108986195 0.0441174611700048 0.0
v -1.41036767943672 -0.3895627638908662 0.0
v -0.1302429932741987 -0.7164124182669576 0.0
v -1.2150068573769732 -0.643273817899048 0.0
v 0.3057958108986195 0.0441174611700048 0.0
v -1.41036767943672 -0.3895627638908662 0.0
v -1.4051595641135253 0.5431685878758924 0.0
v -1.41036767943672 -0.3895627638908662 0.0
v 0.3057958108986195 0.0441174611700048 0.0
v -0.1302429932741987 -0.7164124182669576 0.0
v 1.3770244736044055 -3.1393599747956724 0.0
v 2.50104578595466 -2.8587406639406634 0.0
v 2.488507600000001 -3.6946221600000007 0.0
v 2.488507600000001 -3.6946221600000007 0.0
v 3.0935076900000014 -3.694622160000001 0.0
v 3.093507690000001 -4.254622090000001 0.0
v 2.488507600000001 -3.6946221600000007 0.0
v 1.281792765512551 -4.25462209 0.0
v 1.3770244736044055 -3.1393599747956724 0.0
v 1.281792765512551 -4.25462209 0.0
v 2.488507600000001 -3.6946221600000007 0.0
v 3.093507690000001 -4.254622090000001 0.0
v 1.721683009994587 -0.3535535108539648 0.0
v 0.3057958108986195 0.0441174611700048 0.0
v 1.4386678927986858 0.047990519477873916 0.0
v 0.1616054121435615 -1.314870784267069 0.0
v 1.721683009994587 -0.3535535108539648 0.0
v 1.5205839672043269 -1.3804530282524734 0.0
v 1.5205839672043269 -1.3804530282524734 0.0
v 1.087060875870697 -1.6252524624011677 0.0
v 0.1616054121435615 -1.314870784267069 0.0
v 0.3057958108986195 0.0441174611700048 0.0
v 0.1616054121435615 -1.314870784267069 0.0
v -0.1302429932741987 -0.7164124182669576 0.0
v 0.3057958108986195 0.0441174611700048 0.0
v 1.721683009994587 -0.3535535108539648 0.0
v 0.1616054121435615 -1.314870784267069 0.0
v 1.087060875870697 -1.6252524624011677 0.0
v 1.5205839672043269 -1.3804530282524734 0.0
v 2.515626620566417 -1.8866821944664867 0.0
v 2.515626620566417 -1.8866821944664867 0.0
v 2.50104578595466 -2.8587406639406634 0.0
v 1.3770244736044055 -3.1393599747956724 0.0
v 2.515626620566417 -1.8866821944664867 0.0
v 1.0087224911954529 -2.803006260268357 0.0
v 1.087060875870697 -1.6252524624011677 0.0
v 1.0087224911954529 -2.803006260268357 0.0
v 2.515626620566417 -1.8866821944664867 0.0
v 1.3770244736044055 -3.1393599747956724 0.0
v -2.8844923400000004 0.8686332813486308 0.0
v -2.8844923400000004 1.658627502227597 0.0
v -1.3744397585029346 1.9205086795434634 0.0
v -1.3744397585029346 1.9205086795434634 0.0
v -1.0114276864217875 1.0112373137381856 0.0
v -1.4051595641135253 0.5431685878758924 0.0
v -1.4051595641135253 0.5431685878758924 0.0
v -2.8844923400000004 0.8686332813486308 0.0
v -1.3744397585029346 1.9205086795434634 0.0
v 2.518507510000001 -1.6946223400000007 0.0
v 1.721683009994587 -0.3535535108539648 0.0
v 3.1370194272534215 -0.3149253112645969 0.0
v 3.1370194272534215 -0.3149253112645969 0.0
v 3.1315076900000003 -1.6946223400000011 0.0
v 2.518507510000001 -1.6946223400000007 0.0
v 2.518507510000001 -1.6946223400000007 0.0
v 2.515626620566417 -1.8866821944664867 0.0
v 1.5205839672043269 -1.3804530282524734 0.0
v 1.721683009994587 -0.3535535108539648 0.0
v 2.518507510000001 -1.6946223400000007 0.0
v 1.5205839672043269 -1.3804530282524734 0.0
v 0.3057958108986195 0.0441174611700048 0.0
v 1.5733431825252235 1.4075774152886562 0.0
v 1.4386678927986858 0.047990519477873916 0.0
v 1.5733431825252235 1.4075774152886562 0.0
v 1.7594931677787065 1.1021718607350373 0.0
v 1.4386678927986858 0.047990519477873916 0.0
v 0.3918332158944595 1.5992514501409616 0.0
v 0.3057958108986195 0.0441174611700048 0.0
v -0.10942224875431494 0.940464969040522 0.0
v 1.5733431825252235 1.4075774152886562 0.0
v 0.3057958108986195 0.0441174611700048 0.0
v 0.3918332158944595 1.5992514501409616 0.0
v -0.47239643240413387 2.714185653716442 0.0
v -1.3744397585029346 1.9205086795434634 0.0
v -1.1969712360598501 2.459590701301794 0.0
v 0.3918332158944595 1.5992514501409616 0.0
v -0.47239643240413387 2.714185653716442 0.0
v 0.1809296083820291 2.4559316039755017 0.0
v -1.3744397585029346 1.9205086795434634 0.0
v 0.3918332158944595 1.5992514501409616 0.0
v -0.10942224875431494 0.940464969040522 0.0
v -1.3744397585029346 1.9205086795434634 0.0
v -0.10942224875431494 0.940464969040522 0.0
v -1.0114276864217875 1.0112373137381856 0.0
v 0.3918332158944595 1.5992514501409616 0.0
v -1.3744397585029346 1.9205086795434634 0.0
v -0.47239643240413387 2.714185653716442 0.0
v -1.7351124377637952 3.0329341717141878 0.0
v -1.1969712360598501 2.459590701301794 0.0
v -1.3744397585029346 1.9205086795434634 0.0
v -1.7351124377637952 3.0329341717141878 0.0
v -2.8844923400000004 1.658627502227597 0.0
v -2.8844923400000004 2.9046219513688993 0.0
v -2.8844923400000004 1.658627502227597 0.0
v -1.7351124377637952 3.0329341717141878 0.0
v -1.3744397585029346 1.9205086795434634 0.0
v -1.7351124377637952 3.0329341717141878 0.0
v -2.8844923400000004 2.9046219513688993 0.0
v -2.8844923400000013 4.18937762 0.0
v -2.8844923400000013 4.18937762 0.0
v -1.552479283289429 4.18937762 0.0
v -1.7351124377637952 3.0329341717141878 0.0
v -1.7351124377637952 3.0329341717141878 0.0
v -1.552479283289429 4.18937762 0.0
v -0.4466577957353639 4.18937762 0.0
v -1.7351124377637952 3.0329341717141878 0.0
v -0.47239643240413387 2.714185653716442 0.0
v -1.1969712360598501 2.459590701301794 0.0
v -0.47239643240413387 2.714185653716442 0.0
v -1.7351124377637952 3.0329341717141878 0.0
v -0.4466577957353639 4.18937762 0.0
v 1.5733431825252235 1.4075774152886562 0.0
v 0.8218814665899075 2.9746773648859888 0.0
v 1.8236803348490804 2.7618751884343453 0.0
v 1.8236803348490804 2.7618751884343453 0.0
v 1.9447031407937754 2.604128805309023 0.0
v 1.5733431825252235 1.4075774152886562 0.0
v 0.8218814665899075 2.9746773648859888 0.0
v 0.3918332158944595 1.5992514501409616 0.0
v 0.1809296083820291 2.4559316039755017 0.0
v 0.3918332158944595 1.5992514501409616 0.0
v 0.8218814665899075 2.9746773648859888 0.0
v 1.5733431825252235 1.4075774152886562 0.0
v 1.721683009994587 -0.3535535108539648 0.0
v 1.4386678927986858 0.047990519477873916 0.0
v 1.7594931677787065 1.1021718607350373 0.0
v 1.721683009994587 -0.3535535108539648 0.0
v 3.1423556197849845 1.0208293958357 0.0
v 3.1370194272534215 -0.3149253112645969 0.0
v 3.1423556197849845 1.0208293958357 0.0
v 1.721683009994587 -0.3535535108539648 0.0
v 1.7594931677787065 1.1021718607350373 0.0
v 3.148332280355533 2.516905941543173 0.0
v 1.5733431825252235 1.4075774152886562 0.0
v 1.9447031407937754 2.604128805309023 0.0
v 1.5733431825252235 1.4075774152886562 0.0
v 3.148332280355533 2.516905941543173 0.0
v 3.1423556197849845 1.0208293958357 0.0
v 1.5733431825252235 1.4075774152886562 0.0
v 3.1423556197849845 1.0208293958357 0.0
v 1.7594931677787065 1.1021718607350373 0.0
v 2.0970305190811773 4.18937762 0.0
v 0.8218814665899075 2.9746773648859888 0.0
v 0.6280048147278323 4.18937762 0.0
v 0.8218814665899075 2.9746773648859888 0.0
v 2.0970305190811773 4.18937762 0.0
v 1.8236803348490804 2.7618751884343453 0.0
v 0.8218814665899075 2.9746773648859888 0.0
v -0.47239643240413387 2.714185653716442 0.0
v -0.4466577957353639 4.18937762 0.0
v -0.4466577957353639 4.18937762 0.0
v 0.6280048147278323 4.18937762 0.0
v 0.8218814665899075 2.9746773648859888 0.0
v -0.47239643240413387 2.714185653716442 0.0
v 0.8218814665899075 2.9746773648859888 0.0
v 0.1809296083820291 2.4559316039755017 0.0
v 3.148332280355533 2.516905941543173 0.0
v 1.8236803348490804 2.7618751884343453 0.0
v 2.0970305190811773 4.18937762 0.0
v 2.0970305190811773 4.18937762 0.0
v 3.1550136199999996 4.189377619999999 0.0
v 3.148332280355533 2.516905941543173 0.0
v 1.8236803348490804 2.7618751884343453 0.0
v 3.148332280355533 2.516905941543173 0.0
v 1.9447031407937754 2.604128805309023 0.0
v 3.15501362 4.18937762 2.98799998
v 3.150293465339945 3.007829396596028 1.4664863103615047
v 3.15501362 4.18937762 1.5639152365462798
v 3.150293465339945 3.007829396596028 1.4664863103615047
v 3.15501362 4.18937762 2.98799998
v 3.149290928219138 2.756874493781018 2.98799998
v 3.150293465339945 3.007829396596028 1.4664863103615047
v 3.149290928219138 2.756874493781018 2.98799998
v 3.1492789891422426 2.753885906306459 1.6482333689942275
v 3.149290928219138 2.756874493781018 2.98799998
v 3.1455095617663513 1.8103235571900331 1.405400900787256
v 3.1492789891422426 2.753885906306459 1.6482333689942275
v 3.1455095617663513 1.8103235571900331 1.405400900787256
v 3.149290928219138 2.756874493781018 2.98799998
v 3.143439732788893 1.2922043583082599 2.98799998
v 3.1455095617663513 1.8103235571900331 1.405400900787256
v 3.143439732788893 1.2922043583082599 2.98799998
v 3.143438882245143 1.2919914503572756 1.6911300305584294
v 3.150293465339945 3.007829396596028 1.4664863103615047
v 3.150306683744325 3.0111382250851055 -4.440892098500626e-16
v 3.1550136199999996 4.18937762 -4.440892098500626e-16
v 3.1550136199999996 4.18937762 -4.440892098500626e-16
v 3.15501362 4.18937762 1.5639152365462798
v 3.150293465339945 3.007829396596028 1.4664863103615047
v 3.150293465339945 3.007829396596028 1.4664863103615047
v 3.1492789891422426 2.753885906306459 1.6482333689942275
v 3.1455095617663513 1.8103235571900331 1.405400900787256
v 3.1455095617663513 1.8103235571900331 1.405400900787256
v 3.145495423138555 1.806784378549262 -4.440892098500626e-16
v 3.150306683744325 3.0111382250851055 -4.440892098500626e-16
v 3.150306683744325 3.0111382250851055 -4.440892098500626e-16
v 3.150293465339945 3.007829396596028 1.4664863103615047
v 3.1455095617663513 1.8103235571900331 1.405400900787256
v 3.1455095617663513 1.8103235571900331 1.405400900787256
v 3.143438882245143 1.2919914503572756 1.6911300305584294
v 3.1407555985656206 0.6203123862667957 1.3999581663766274
v 3.1407555985656206 0.6203123862667957 1.3999581663766274
v 3.140623965143385 0.5873619328634239 0.0
v 3.145495423138555 1.806784378549262 -4.440892098500626e-16
v 3.145495423138555 1.806784378549262 -4.440892098500626e-16
v 3.1455095617663513 1.8103235571900331 1.405400900787256
v 3.1407555985656206 0.6203123862667957 1.3999581663766274
v 3.143439732788893 1.2922043583082599 2.98799998
v 3.1407555985656206 0.6203123862667957 1.3999581663766274
v 3.143438882245143 1.2919914503572756 1.6911300305584294
v 3.1407555985656206 0.6203123862667957 1.3999581663766274
v 3.143439732788893 1.2922043583082599 2.98799998
v 3.1375071125281124 -0.19284802537233625 2.9879999800000006
v 3.1407555985656206 0.6203123862667957 1.3999581663766274
v 3.1375071125281124 -0.19284802537233625 2.9879999800000006
v 3.1374912881566095 -0.19680917905946682 1.7058893485419948
v 3.1407555985656206 0.6203123862667957 1.3999581663766274
v 3.1374912881566095 -0.19680917905946682 1.7058893485419948
v 3.135961567411706 -0.5797285871331921 1.4576333246015938
v 3.1407555985656206 0.6203123862667957 1.3999581663766274
v 3.1360609939039015 -0.5548401663772615 -1.6653345369377348e-16
v 3.140623965143385 0.5873619328634239 0.0
v 3.1360609939039015 -0.5548401663772615 -1.6653345369377348e-16
v 3.1407555985656206 0.6203123862667957 1.3999581663766274
v 3.135961567411706 -0.5797285871331921 1.4576333246015938
v 3.135961567411706 -0.5797285871331921 1.4576333246015938
v 3.1374912881566095 -0.19680917905946682 1.7058893485419948
v 3.1375071125281124 -0.19284802537233625 2.9879999800000006
v 3.135961567411706 -0.5797285871331921 1.4576333246015938
v 3.1315076900000003 -1.6946223400000007 2.98799998
v 3.1315076900000003 -1.6946223400000007 1.6051540333300147
v 3.1315076900000003 -1.6946223400000007 2.98799998
v 3.135961567411706 -0.5797285871331921 1.4576333246015938
v 3.1375071125281124 -0.19284802537233625 2.9879999800000006
v 3.135961567411706 -0.5797285871331921 1.4576333246015938
v 3.1315076900000003 -1.6946223400000007 1.6051540333300147
v 3.13150769 -1.6946223400000004 1.263689567488435e-16
v 3.13150769 -1.6946223400000004 1.263689567488435e-16
v 3.1360609939039015 -0.5548401663772615 -1.6653345369377348e-16
v 3.135961567411706 -0.5797285871331921 1.4576333246015938
v -2.88449234 2.83565432003852 -5.551115123125783e-17
v -2.88449234 2.792770694086075 1.5181278327629697
v -2.88449234 4.18937762 1.4784972791863176
v -2.88449234 4.18937762 1.4784972791863176
v -2.88449234 4.18937762 0.0
v -2.88449234 2.83565432003852 -5.551115123125783e-17
v -2.88449234 2.792770694086075 1.5181278327629697
v -2.88449234 2.83565432003852 -5.551115123125783e-17
v -2.88449234 2.709216831979647 1.4451342057676306
v -2.88449234 2.83565432003852 -5.551115123125783e-17
v -2.88449234 1.993774081641633 1.4676454246199797
v -2.88449234 2.709216831979647 1.4451342057676306
v -2.88449234 1.236277237566426 0.6084939905635935
v -2.88449234 2.83565432003852 -5.551115123125783e-17
v -2.88449234 1.245187538263498 -2.220446049250313e-16
v -2.88449234 1.993774081641633 1.4676454246199797
v -2.88449234 2.83565432003852 -5.551115123125783e-17
v -2.88449234 1.236277237566426 0.6084939905635935
v -2.88449234 4.18937762 1.4784972791863176
v -2.88449234 2.848771979137485 2.98799998
v -2.88449234 4.18937762 2.98799998
v -2.88449234 2.848771979137485 2.98799998
v -2.88449234 4.18937762 1.4784972791863176
v -2.88449234 2.792770694086075 1.5181278327629697
v -2.88449234 2.792770694086075 1.5181278327629697
v -2.88449234 2.709216831979647 1.4451342057676306
v -2.88449234 1.993774081641633 1.4676454246199797
v -2.88449234 2.848771979137485 2.98799998
v -2.88449234 1.2959344152973125 2.279255231384058
v -2.88449234 1.3259363331898393 2.9879999799999997
v -2.88449234 1.993774081641633 1.4676454246199797
v -2.88449234 2.848771979137485 2.98799998
v -2.88449234 2.792770694086075 1.5181278327629697
v -2.88449234 2.848771979137485 2.98799998
v -2.88449234 1.993774081641633 1.4676454246199797
v -2.88449234 1.2959344152973125 2.279255231384058
v -2.88449234 1.236277237566426 0.6084939905635935
v -2.88449234 0.2796987805982065 1.493068897411734
v -2.88449234 1.2959344152973125 2.279255231384058
v -2.88449234 1.2959344152973125 2.279255231384058
v -2.88449234 1.993774081641633 1.4676454246199797
v -2.88449234 1.236277237566426 0.6084939905635935
v -2.88449234 -0.35087584366487634 0.0
v -2.88449234 0.2796987805982065 1.493068897411734
v -2.88449234 1.236277237566426 0.6084939905635935
v -2.88449234 1.236277237566426 0.6084939905635935
v -2.88449234 1.245187538263498 -2.220446049250313e-16
v -2.88449234 -0.35087584366487634 0.0
v -2.88449234 0.2796987805982065 1.493068897411734
v -2.88449234 -0.35087584366487634 0.0
v -2.88449234 -0.14502080485585878 1.5105695086829125
v -2.88449234 -0.15254845247260795 1.5171121945128845
v -2.88449234 0.2796987805982065 1.493068897411734
v -2.88449234 -0.14502080485585878 1.5105695086829125
v -2.88449234 0.2796987805982065 1.493068897411734
v -2.88449234 -0.15254845247260795 1.5171121945128845
v -2.88449234 -0.259576754211318 2.9879999799999997
v -2.88449234 -0.259576754211318 2.9879999799999997
v -2.88449234 1.3259363331898393 2.9879999799999997
v -2.88449234 1.2959344152973125 2.279255231384058
v -2.88449234 0.2796987805982065 1.493068897411734
v -2.88449234 -0.259576754211318 2.9879999799999997
v -2.88449234 1.2959344152973125 2.279255231384058
v -2.88449234 -0.35087584366487634 0.0
v -2.88449234 -1.5295040155375599 1.5337566470993926
v -2.88449234 -0.15254845247260795 1.5171121945128845
v -2.88449234 -0.15254845247260795 1.5171121945128845
v -2.88449234 -0.14502080485585878 1.5105695086829125
v -2.88449234 -0.35087584366487634 0.0
v -2.88449234 -0.35087584366487634 0.0
v -2.88449234 -1.5187137622542286 -4.440892098500626e-16
v -2.88449234 -1.5944988768371617 1.473388873986003
v -2.88449234 -1.5295040155375599 1.5337566470993926
v -2.88449234 -0.35087584366487634 0.0
v -2.88449234 -1.5944988768371617 1.473388873986003
v -2.88449234 -1.5944988768371617 1.473388873986003
v -2.88449234 -1.5187137622542286 -4.440892098500626e-16
v -2.88449234 -2.8906222000000006 -4.440892098500626e-16
v -2.88449234 -2.8906222000000006 -4.440892098500626e-16
v -2.88449234 -2.8906221999999993 1.4671870141848227
v -2.88449234 -1.5944988768371617 1.473388873986003
v -2.88449234 -2.8906222 2.9879589
v -2.88449234 -1.5944988768371617 1.473388873986003
v -2.88449234 -2.8906221999999993 1.4671870141848227
v -2.88449234 -2.8906222 2.9879589
v -2.88449234 -2.8906221999999997 2.9879999799999997
v -2.88449234 -1.5767568177569782 2.9879999799999997
v -2.88449234 -2.8906222 2.9879589
v -2.88449234 -1.5295040155375599 1.5337566470993926
v -2.88449234 -1.5944988768371617 1.473388873986003
v -2.88449234 -1.5295040155375599 1.5337566470993926
v -2.88449234 -2.8906222 2.9879589
v -2.88449234 -1.5767568177569782 2.9879999799999997
v -2.88449234 -0.259576754211318 2.9879999799999997
v -2.88449234 -1.5295040155375599 1.5337566470993926
v -2.88449234 -1.5767568177569782 2.9879999799999997
v -2.88449234 -1.5295040155375599 1.5337566470993926
v -2.88449234 -0.259576754211318 2.9879999799999997
v -2.88449234 -0.15254845247260795 1.5171121945128845
v -1.6164924199999997 -2.8906222 1.493274402172347
v -1.61649242 -2.8906222 2.98799998
v -2.88449234 -2.8906222 2.9879589
v -2.88449234 -2.8906222 2.9879589
v -2.88449234 -2.8906222 1.4922013641483973
v -1.6164924199999997 -2.8906222 1.493274402172347
v -2.88449234 -2.8906222 1.4922013641483973
v -2.88449234 -2.8906222 -3.885780586188048e-16
v -1.6164924199999997 -2.8906222 -4.0432483498577156e-16
v -1.6164924199999997 -2.8906222 -4.0432483498577156e-16
v -1.6164924199999997 -2.8906222 1.493274402172347
v -2.88449234 -2.8906222 1.4922013641483973
v 2.4885076 -3.69462216 2.98799998
v 1.320353067457019 -4.25462209 2.98799998
v 3.09350769 -4.25462209 2.98799998
v 3.09350769 -4.25462209 2.98799998
v 3.09350769 -3.69462216 2.98799998
v 2.4885076 -3.69462216 2.98799998
v 2.4885076 -3.69462216 2.98799998
v 2.5006928896705345 -2.8822671513444056 2.98799998
v 1.3903184853918547 -3.184363818548463 2.98799998
v 1.320353067457019 -4.25462209 2.98799998
v 2.4885076 -3.69462216 2.98799998
v 1.3903184853918547 -3.184363818548463 2.98799998
v 2.5006928896705345 -2.8822671513444056 2.98799998
v 2.5158620507841176 -1.870986800946106 2.98799998
v 1.7490645415762431 -1.4870266215651002 2.98799998
v 1.3903184853918547 -3.184363818548463 2.98799998
v 0.9753943710984777 -2.025815010876898 2.98799998
v 0.9517748688891015 -2.785225176056125 2.98799998
v 0.9753943710984777 -2.025815010876898 2.98799998
v 1.3903184853918547 -3.184363818548463 2.98799998
v 2.5006928896705345 -2.8822671513444056 2.98799998
v 0.9753943710984777 -2.025815010876898 2.98799998
v 2.5006928896705345 -2.8822671513444056 2.98799998
v 1.7490645415762431 -1.4870266215651002 2.98799998
v 0.9753943710984777 -2.025815010876898 2.98799998
v -0.002863061991492555 -1.3900695408839865 2.98799998
v -0.15010129279233886 -1.4337885134453754 2.98799998
v 0.9753943710984777 -2.025815010876898 2.98799998
v -0.6538626498315536 -2.6214410903678464 2.98799998
v -0.11238357923921494 -3.1315021588779066 2.98799998
v -0.11238357923921494 -3.1315021588779066 2.98799998
v 0.9517748688891015 -2.785225176056125 2.98799998
v 0.9753943710984777 -2.025815010876898 2.98799998
v -0.6538626498315536 -2.6214410903678464 2.98799998
v 0.9753943710984777 -2.025815010876898 2.98799998
v -0.15010129279233886 -1.4337885134453754 2.98799998
v 1.3903184853918547 -3.184363818548463 2.98799998
v 0.9517748688891015 -2.785225176056125 2.98799998
v -0.11238357923921494 -3.1315021588779066 2.98799998
v -0.11238357923921494 -3.1315021588779066 2.98799998
v -0.2110024112937121 -4.25462209 2.98799998
v 1.320353067457019 -4.25462209 2.98799998
v 1.320353067457019 -4.25462209 2.98799998
v 1.3903184853918547 -3.184363818548463 2.98799998
v -0.11238357923921494 -3.1315021588779066 2.98799998
v 2.51850751 -1.69462234 2.98799998
v 1.6322037229385185 -0.7163903929954684 2.98799998
v 1.7490645415762431 -1.4870266215651002 2.98799998
v 1.7490645415762431 -1.4870266215651002 2.98799998
v 2.5158620507841176 -1.870986800946106 2.98799998
v 2.51850751 -1.69462234 2.98799998
v 2.51850751 -1.69462234 2.98799998
v 3.13150769 -1.69462234 2.98799998
v 3.1376186522399916 -0.1649274257518003 2.98799998
v 1.6322037229385185 -0.7163903929954684 2.98799998
v 2.51850751 -1.69462234 2.98799998
v 2.0981794939422063 -0.16660993212306574 2.98799998
v 2.0981794939422063 -0.16660993212306574 2.98799998
v 2.51850751 -1.69462234 2.98799998
v 3.1376186522399916 -0.1649274257518003 2.98799998
v 1.6736554091508387 1.3146498483431288 2.98799998
v 1.5541618854353096 1.2136402714539467 2.98799998
v 1.519464409912681 1.030630801301781 2.98799998
v 3.1435176061195267 1.311697595731078 2.98799998
v 2.0981794939422063 -0.16660993212306574 2.98799998
v 3.1376186522399916 -0.1649274257518003 2.98799998
v 1.519464409912681 1.030630801301781 2.98799998
v 3.1435176061195267 1.311697595731078 2.98799998
v 1.6736554091508387 1.3146498483431288 2.98799998
v 3.1435176061195267 1.311697595731078 2.98799998
v 1.519464409912681 1.030630801301781 2.98799998
v 2.0981794939422063 -0.16660993212306574 2.98799998
v -2.8844923400000004 -2.8906222000000006 2.98799998
v -1.7920567647752428 -1.4349852146171447 2.98799998
v -2.8844923400000004 -1.3183155713087156 2.98799998
v -1.7920567647752428 -1.4349852146171447 2.98799998
v -2.8844923400000004 -2.8906222000000006 2.98799998
v -1.6451279626476336 -2.8906222 2.98799998
v -1.7920567647752428 -1.4349852146171447 2.98799998
v -1.6451279626476336 -2.8906222 2.98799998
v -1.43214143277749 -2.674409219170764 2.98799998
v -1.6164924200000002 -2.8906222 2.98799998
v -0.6538626498315536 -2.6214410903678464 2.98799998
v -1.43214143277749 -2.674409219170764 2.98799998
v -1.43214143277749 -2.674409219170764 2.98799998
v -1.6451279626476336 -2.8906222 2.98799998
v -1.6164924200000002 -2.8906222 2.98799998
v -0.11238357923921494 -3.1315021588779066 2.98799998
v -1.6164924200000002 -4.25462209 2.98799998
v -0.2110024112937121 -4.25462209 2.98799998
v -0.6538626498315536 -2.6214410903678464 2.98799998
v -1.6164924200000002 -2.8906222 2.98799998
v -0.11238357923921494 -3.1315021588779066 2.98799998
v -1.6164924200000002 -4.25462209 2.98799998
v -0.11238357923921494 -3.1315021588779066 2.98799998
v -1.6164924200000002 -2.8906222 2.98799998
v -0.15010129279233886 -1.4337885134453754 2.98799998
v -1.1928547016198974 -0.8942559085409914 2.98799998
v -1.7920567647752428 -1.4349852146171447 2.98799998
v -1.7920567647752428 -1.4349852146171447 2.98799998
v -1.43214143277749 -2.674409219170764 2.98799998
v -0.6538626498315536 -2.6214410903678464 2.98799998
v -0.6538626498315536 -2.6214410903678464 2.98799998
v -0.15010129279233886 -1.4337885134453754 2.98799998
v -1.7920567647752428 -1.4349852146171447 2.98799998
v 0.9753943710984777 -2.025815010876898 2.98799998
v 1.6322037229385185 -0.7163903929954684 2.98799998
v 0.5195416477480258 -0.4111591924150757 2.98799998
v 0.5195416477480258 -0.4111591924150757 2.98799998
v -0.002863061991492555 -1.3900695408839865 2.98799998
v 0.9753943710984777 -2.025815010876898 2.98799998
v 1.6322037229385185 -0.7163903929954684 2.98799998
v 0.9753943710984777 -2.025815010876898 2.98799998
v 1.7490645415762431 -1.4870266215651002 2.98799998
v 0.3459710759154303 0.08887560384913197 2.98799998
v 2.0981794939422063 -0.16660993212306574 2.98799998
v 1.519464409912681 1.030630801301781 2.98799998
v 2.0981794939422063 -0.16660993212306574 2.98799998
v 0.3459710759154303 0.08887560384913197 2.98799998
v 0.5195416477480258 -0.4111591924150757 2.98799998
v 2.0981794939422063 -0.16660993212306574 2.98799998
v 0.5195416477480258 -0.4111591924150757 2.98799998
v 1.6322037229385185 -0.7163903929954684 2.98799998
v 1.519464409912681 1.030630801301781 2.98799998
v 1.5541618854353096 1.2136402714539467 2.98799998
v 0.34496241215052226 1.8317945062036145 2.98799998
v 0.3459710759154303 0.08887560384913197 2.98799998
v -0.3053275321458182 1.2866441527730517 2.98799998
v -0.16301730180015603 0.37957375756256395 2.98799998
v 0.34496241215052226 1.8317945062036145 2.98799998
v 0.3459710759154303 0.08887560384913197 2.98799998
v 1.519464409912681 1.030630801301781 2.98799998
v -0.3053275321458182 1.2866441527730517 2.98799998
v 0.3459710759154303 0.08887560384913197 2.98799998
v 0.34496241215052226 1.8317945062036145 2.98799998
v -0.15010129279233886 -1.4337885134453754 2.98799998
v -0.002863061991492555 -1.3900695408839865 2.98799998
v 0.5195416477480258 -0.4111591924150757 2.98799998
v 0.5195416477480258 -0.4111591924150757 2.98799998
v 0.3459710759154303 0.08887560384913197 2.98799998
v -0.16301730180015603 0.37957375756256395 2.98799998
v -0.16301730180015603 0.37957375756256395 2.98799998
v -1.2437428367651153 -0.16604684644018686 2.98799998
v -1.1928547016198974 -0.8942559085409914 2.98799998
v -1.1928547016198974 -0.8942559085409914 2.98799998
v -0.15010129279233886 -1.4337885134453754 2.98799998
v 0.5195416477480258 -0.4111591924150757 2.98799998
v 0.5195416477480258 -0.4111591924150757 2.98799998
v -0.16301730180015603 0.37957375756256395 2.98799998
v -1.1928547016198974 -0.8942559085409914 2.98799998
v -1.1928547016198974 -0.8942559085409914 2.98799998
v -1.2437428367651153 -0.16604684644018686 2.98799998
v -1.643551898363775 0.14919278852918183 2.98799998
v -1.7920567647752428 -1.4349852146171447 2.98799998
v -2.8844923400000004 -0.03236351062330911 2.98799998
v -2.8844923400000004 -1.3183155713087156 2.98799998
v -1.643551898363775 0.14919278852918183 2.98799998
v -1.7920567647752428 -1.4349852146171447 2.98799998
v -1.1928547016198974 -0.8942559085409914 2.98799998
v -2.8844923400000004 -0.03236351062330911 2.98799998
v -1.7920567647752428 -1.4349852146171447 2.98799998
v -1.643551898363775 0.14919278852918183 2.98799998
v 1.8727148771227786 2.7076312176877915 2.98799998
v 1.6736554091508387 1.3146498483431288 2.98799998
v 3.1435176061195267 1.311697595731078 2.98799998
v 3.1435176061195267 1.311697595731078 2.98799998
v 3.1493465047521645 2.770786401036221 2.98799998
v 1.8727148771227786 2.7076312176877915 2.98799998
v 1.5616229487648745 3.014457154395733 2.98799998
v 0.34496241215052226 1.8317945062036145 2.98799998
v 1.8727148771227786 2.7076312176877915 2.98799998
v 0.34496241215052226 1.8317945062036145 2.98799998
v 1.5616229487648745 3.014457154395733 2.98799998
v 0.31525384764680786 2.695330287410293 2.98799998
v 1.6736554091508387 1.3146498483431288 2.98799998
v 0.34496241215052226 1.8317945062036145 2.98799998
v 1.5541618854353096 1.2136402714539467 2.98799998
v 1.8727148771227786 2.7076312176877915 2.98799998
v 0.34496241215052226 1.8317945062036145 2.98799998
v 1.6736554091508387 1.3146498483431288 2.98799998
v -0.3053275321458182 1.2866441527730517 2.98799998
v -1.2628785708954944 1.6570088259238485 2.98799998
v -1.6312365423755408 1.3762494875222089 2.98799998
v -0.16301730180015603 0.37957375756256395 2.98799998
v -1.643551898363775 0.14919278852918183 2.98799998
v -1.2437428367651153 -0.16604684644018686 2.98799998
v -1.643551898363775 0.14919278852918183 2.98799998
v -0.16301730180015603 0.37957375756256395 2.98799998
v -0.3053275321458182 1.2866441527730517 2.98799998
v -1.643551898363775 0.14919278852918183 2.98799998
v -0.3053275321458182 1.2866441527730517 2.98799998
v -1.6312365423755408 1.3762494875222089 2.98799998
v -2.8844923400000004 -0.03236351062330911 2.98799998
v -1.6312365423755408 1.3762494875222089 2.98799998
v -2.8844923400000004 1.5820041777537486 2.98799998
v -1.6312365423755408 1.3762494875222089 2.98799998
v -2.8844923400000004 -0.03236351062330911 2.98799998
v -1.643551898363775 0.14919278852918183 2.98799998
v 3.1550136199999996 4.189377619999999 2.98799998
v 1.8727148771227786 2.7076312176877915 2.98799998
v 3.1493465047521645 2.770786401036221 2.98799998
v 1.5616229487648745 3.014457154395733 2.98799998
v 3.1550136199999996 4.189377619999999 2.98799998
v 1.6038234161193317 4.18937762 2.98799998
v 3.1550136199999996 4.189377619999999 2.98799998
v 1.5616229487648745 3.014457154395733 2.98799998
v 1.8727148771227786 2.7076312176877915 2.98799998
v 0.34496241215052226 1.8317945062036145 2.98799998
v -1.2487933167516716 2.681191324596429 2.98799998
v -0.3053275321458182 1.2866441527730517 2.98799998
v -1.2487933167516716 2.681191324596429 2.98799998
v -1.2628785708954944 1.6570088259238485 2.98799998
v -0.3053275321458182 1.2866441527730517 2.98799998
v 0.03682260450550112 2.9433995194404896 2.98799998
v 0.34496241215052226 1.8317945062036145 2.98799998
v 0.31525384764680786 2.695330287410293 2.98799998
v -1.2487933167516716 2.681191324596429 2.98799998
v 0.34496241215052226 1.8317945062036145 2.98799998
v 0.03682260450550112 2.9433995194404896 2.98799998
v 0.03682260450550112 2.9433995194404896 2.98799998
v 0.31525384764680786 2.695330287410293 2.98799998
v 1.5616229487648745 3.014457154395733 2.98799998
v 1.5616229487648745 3.014457154395733 2.98799998
v 1.6038234161193317 4.18937762 2.98799998
v 0.010723408192018002 4.189377619999999 2.98799998
v 0.010723408192018002 4.189377619999999 2.98799998
v 0.03682260450550112 2.9433995194404896 2.98799998
v 1.5616229487648745 3.014457154395733 2.98799998
v -1.6312365423755408 1.3762494875222089 2.98799998
v -1.463140332456717 2.894910122367446 2.98799998
v -2.8844923400000004 2.761411405078546 2.98799998
v -2.8844923400000004 2.761411405078546 2.98799998
v -2.8844923400000004 1.5820041777537486 2.98799998
v -1.6312365423755408 1.3762494875222089 2.98799998
v -1.6312365423755408 1.3762494875222089 2.98799998
v -1.2628785708954944 1.6570088259238485 2.98799998
v -1.2487933167516716 2.681191324596429 2.98799998
v -1.463140332456717 2.894910122367446 2.98799998
v -1.6312365423755408 1.3762494875222089 2.98799998
v -1.2487933167516716 2.681191324596429 2.98799998
v -1.463140332456717 2.894910122367446 2.98799998
v -1.4507580562506082 4.189377619999999 2.98799998
v -2.884492340000001 4.189377619999999 2.98799998
v -2.884492340000001 4.189377619999999 2.98799998
v -2.8844923400000004 2.761411405078546 2.98799998
v -1.463140332456717 2.894910122367446 2.98799998
v -1.463140332456717 2.894910122367446 2.98799998
v -1.2487933167516716 2.681191324596429 2.98799998
v 0.03682260450550112 2.9433995194404896 2.98799998
v 0.03682260450550112 2.9433995194404896 2.98799998
v 0.010723408192018002 4.189377619999999 2.98799998
v -1.4507580562506082 4.189377619999999 2.98799998
v -1.4507580562506082 4.189377619999999 2.98799998
v -1.463140332456717 2.894910122367446 2.98799998
v 0.03682260450550112 2.9433995194404896 2.98799998
v -2.82349239 4.08237756 0.15
v -2.82349239 4.08237756 0.59500002
v -1.30349243 4.08237756 0.59500002
v -1.30349243 4.08237756 0.59500002
v -1.30349243 4.08237756 0.15
v -2.82349239 4.08237756 0.15
v -0.7634924 4.08237756 0.15
v -0.7634924 4.08237756 0.59500002
v 0.7565076000000001 4.08237756 0.59500002
v 0.7565076000000001 4.08237756 0.59500002
v 0.7565076000000001 4.08237756 0.15
v -0.7634924 4.08237756 0.15
v 1.26650758 4.08237756 0.15
v 1.26650758 4.08237756 0.59500002
v 2.78650763 4.08237756 0.59500002
v 2.78650763 4.08237756 0.59500002
v 2.78650763 4.08237756 0.15
v 1.26650758 4.08237756 0.15

usemtl Patch_1_Mat_CR2_concrete
f 3 2 1
f 6 5 4

usemtl Patch_2_Mat_CR2_windows
f 9 8 7
f 12 11 10

usemtl Patch_3_Mat_CR2_windows
f 15 14 13
f 18 17 16

usemtl Patch_4_Mat_CR2_concrete
f 21 20 19
f 24 23 22

usemtl Patch_5_Mat_CR2_concrete
f 27 26 25
f 30 29 28
f 33 32 31

usemtl Patch_6_Mat_CR2_concrete
f 36 35 34
f 39 38 37

usemtl Patch_7_Mat_CR2_concrete
f 42 41 40
f 45 44 43

usemtl Patch_8_Mat_CR2_concrete
f 48 47 46
f 51 50 49

usemtl Patch_9_Mat_CR2_plaster
f 54 53 52
f 57 56 55

usemtl Patch_10_Mat_CR2_plaster
f 60 59 58
f 63 62 61
f 66 65 64

usemtl Patch_11_Mat_CR2_plaster
f 69 68 67
f 72 71 70
f 75 74 73

usemtl Patch_12_Mat_CR2_plaster
f 78 77 76
f 81 80 79
f 84 83 82

usemtl Patch_13_Mat_CR2_plaster
f 87 86 85
f 90 89 88
f 93 92 91

usemtl Patch_14_Mat_CR2_plaster
f 96 95 94
f 99 98 97
f 102 101 100

usemtl Patch_15_Mat_CR2_plaster
f 105 104 103
f 108 107 106
f 111 110 109

usemtl Patch_16_Mat_CR2_plaster
f 114 113 112
f 117 116 115

usemtl Patch_17_Mat_CR2_windows
f 120 119 118
f 123 122 121

usemtl Patch_18_Mat_CR2_windows
f 126 125 124
f 129 128 127

usemtl Patch_19_Mat_CR2_windows
f 132 131 130
f 135 134 133

usemtl Patch_20_Mat_CR2_windows
f 138 137 136
f 141 140 139

usemtl Patch_21_Mat_CR2_concrete
f 144 143 142
f 147 146 145

usemtl Patch_22_Mat_CR2_concrete
f 150 149 148
f 153 152 151

usemtl Patch_23_Mat_CR2_concrete
f 156 155 154
f 159 158 157

usemtl Patch_24_Mat_CR2_concrete
f 162 161 160
f 165 164 163

usemtl Patch_25_Mat_CR2_concrete
f 168 167 166
f 171 170 169

usemtl Patch_26_Mat_CR2_concrete
f 174 173 172
f 177 176 175

usemtl Patch_27_Mat_CR2_concrete
f 180 179 178
f 183 182 181
f 186 185 184
f 189 188 187

usemtl Patch_28_Mat_CR2_concrete
f 192 191 190
f 195 194 193
f 198 197 196
f 201 200 199
f 204 203 202
f 207 206 205

usemtl Patch_29_Mat_CR2_concrete
f 210 209 208
f 213 212 211
f 216 215 214
f 219 218 217
f 222 221 220
f 225 224 223
f 228 227 226
f 231 230 229

usemtl Patch_30_Mat_CR2_concrete
f 234 233 232
f 237 236 235
f 240 239 238
f 243 242 241
f 246 245 244
f 249 248 247

usemtl Patch_31_Mat_CR2_concrete
f 252 251 250
f 255 254 253
f 258 257 256
f 261 260 259
f 264 263 262

usemtl Patch_32_Mat_CR2_floor
f 267 266 265
f 270 269 268
f 273 272 271
f 276 275 274

usemtl Patch_33_Mat_CR2_floor
f 279 278 277
f 282 281 280
f 285 284 283
f 288 287 286

usemtl Patch_34_Mat_CR2_floor
f 291 290 289
f 294 293 292
f 297 296 295
f 300 299 298

usemtl Patch_35_Mat_CR2_floor
f 303 302 301
f 306 305 304
f 309 308 307

usemtl Patch_36_Mat_CR2_floor
f 312 311 310
f 315 314 313
f 318 317 316

usemtl Patch_37_Mat_CR2_floor
f 321 320 319
f 324 323 322

usemtl Patch_38_Mat_CR2_floor
f 327 326 325
f 330 329 328
f 333 332 331

usemtl Patch_39_Mat_CR2_floor
f 336 335 334
f 339 338 337
f 342 341 340
f 345 344 343
f 348 347 346

usemtl Patch_40_Mat_CR2_floor
f 351 350 349
f 354 353 352
f 357 356 355
f 360 359 358

usemtl Patch_41_Mat_CR2_floor
f 363 362 361
f 366 365 364
f 369 368 367
f 372 371 370
f 375 374 373

usemtl Patch_42_Mat_CR2_floor
f 378 377 376
f 381 380 379
f 384 383 382
f 387 386 385

usemtl Patch_43_Mat_CR2_floor
f 390 389 388
f 393 392 391
f 396 395 394

usemtl Patch_44_Mat_CR2_floor
f 399 398 397
f 402 401 400
f 405 404 403
f 408 407 406

usemtl Patch_45_Mat_CR2_floor
f 411 410 409
f 414 413 412
f 417 416 415
f 420 419 418

usemtl Patch_46_Mat_CR2_floor
f 423 422 421
f 426 425 424
f 429 428 427
f 432 431 430
f 435 434 433

usemtl Patch_47_Mat_CR2_floor
f 438 437 436
f 441 440 439
f 444 443 442

usemtl Patch_48_Mat_CR2_floor
f 447 446 445
f 450 449 448

usemtl Patch_49_Mat_CR2_floor
f 453 452 451
f 456 455 454
f 459 458 457

usemtl Patch_50_Mat_CR2_floor
f 462 461 460
f 465 464 463
f 468 467 466
f 471 470 469

usemtl Patch_51_Mat_CR2_floor
f 474 473 472
f 477 476 475
f 480 479 478

usemtl Patch_52_Mat_CR2_floor
f 483 482 481
f 486 485 484
f 489 488 487

usemtl Patch_53_Mat_CR2_floor
f 492 491 490
f 495 494 493

usemtl Patch_54_Mat_CR2_floor
f 498 497 496
f 501 500 499
f 504 503 502

usemtl Patch_55_Mat_CR2_floor
f 507 506 505
f 510 509 508
f 513 512 511

usemtl Patch_56_Mat_CR2_concrete
f 516 515 514
f 519 518 517
f 522 521 520

usemtl Patch_57_Mat_CR2_concrete
f 525 524 523
f 528 527 526
f 531 530 529

usemtl Patch_58_Mat_CR2_concrete
f 534 533 532
f 537 536 535

usemtl Patch_59_Mat_CR2_concrete
f 540 539 538
f 543 542 541
f 546 545 544

usemtl Patch_60_Mat_CR2_concrete
f 549 548 547
f 552 551 550
f 555 554 553

usemtl Patch_61_Mat_CR2_concrete
f 558 557 556
f 561 560 559
f 564 563 562

usemtl Patch_62_Mat_CR2_concrete
f 567 566 565
f 570 569 568
f 573 572 571

usemtl Patch_63_Mat_CR2_concrete
f 576 575 574
f 579 578 577
f 582 581 580

usemtl Patch_64_Mat_CR2_concrete
f 585 584 583
f 588 587 586

usemtl Patch_65_Mat_CR2_plaster
f 591 590 589
f 594 593 592
f 597 596 595

usemtl Patch_66_Mat_CR2_plaster
f 600 599 598
f 603 602 601
f 606 605 604

usemtl Patch_67_Mat_CR2_plaster
f 609 608 607
f 612 611 610

usemtl Patch_68_Mat_CR2_plaster
f 615 614 613
f 618 617 616
f 621 620 619
f 624 623 622

usemtl Patch_69_Mat_CR2_plaster
f 627 626 625
f 630 629 628

usemtl Patch_70_Mat_CR2_plaster
f 633 632 631
f 636 635 634
f 639 638 637

usemtl Patch_71_Mat_CR2_plaster
f 642 641 640
f 645 644 643
f 648 647 646
f 651 650 649

usemtl Patch_72_Mat_CR2_plaster
f 654 653 652
f 657 656 655
f 660 659 658
f 663 662 661

usemtl Patch_73_Mat_CR2_plaster
f 666 665 664
f 669 668 667

usemtl Patch_74_Mat_CR2_plaster
f 672 671 670
f 675 674 673
f 678 677 676
f 681 680 679

usemtl Patch_75_Mat_CR2_plaster
f 684 683 682
f 687 686 685

usemtl Patch_76_Mat_CR2_plaster
f 690 689 688
f 693 692 691

usemtl Patch_77_Mat_CR2_plaster
f 696 695 694
f 699 698 697

usemtl Patch_78_Mat_CR2_ceiling
f 702 701 700
f 705 704 703
f 708 707 706
f 711 710 709

usemtl Patch_79_Mat_CR2_ceiling
f 714 713 712
f 717 716 715
f 720 719 718
f 723 722 721

usemtl Patch_80_Mat_CR2_ceiling
f 726 725 724
f 729 728 727
f 732 731 730
f 735 734 733

usemtl Patch_81_Mat_CR2_ceiling
f 738 737 736
f 741 740 739
f 744 743 742

usemtl Patch_82_Mat_CR2_ceiling
f 747 746 745
f 750 749 748
f 753 752 751
f 756 755 754
f 759 758 757

usemtl Patch_83_Mat_CR2_ceiling
f 762 761 760
f 765 764 763
f 768 767 766
f 771 770 769

usemtl Patch_84_Mat_CR2_ceiling
f 774 773 772
f 777 776 775
f 780 779 778

usemtl Patch_85_Mat_CR2_ceiling
f 783 782 781
f 786 785 784
f 789 788 787
f 792 791 790
f 795 794 793

usemtl Patch_86_Mat_CR2_ceiling
f 798 797 796
f 801 800 799
f 804 803 802

usemtl Patch_87_Mat_CR2_ceiling
f 807 806 805
f 810 809 808
f 813 812 811

usemtl Patch_88_Mat_CR2_ceiling
f 816 815 814
f 819 818 817
f 822 821 820

usemtl Patch_89_Mat_CR2_ceiling
f 825 824 823
f 828 827 826
f 831 830 829
f 834 833 832

usemtl Patch_90_Mat_CR2_ceiling
f 837 836 835
f 840 839 838
f 843 842 841
f 846 845 844
f 849 848 847

usemtl Patch_91_Mat_CR2_ceiling
f 852 851 850
f 855 854 853
f 858 857 856
f 861 860 859

usemtl Patch_92_Mat_CR2_ceiling
f 864 863 862
f 867 866 865

usemtl Patch_93_Mat_CR2_ceiling
f 870 869 868
f 873 872 871
f 876 875 874
f 879 878 877

usemtl Patch_94_Mat_CR2_ceiling
f 882 881 880
f 885 884 883
f 888 887 886
f 891 890 889

usemtl Patch_95_Mat_CR2_ceiling
f 894 893 892
f 897 896 895

usemtl Patch_96_Mat_CR2_ceiling
f 900 899 898
f 903 902 901
f 906 905 904

usemtl Patch_97_Mat_CR2_ceiling
f 909 908 907
f 912 911 910
f 915 914 913
f 918 917 916

usemtl Patch_98_Mat_CR2_ceiling
f 921 920 919
f 924 923 922
f 927 926 925

usemtl Patch_99_Mat_CR2_ceiling
f 930 929 928
f 933 932 931
f 936 935 934
f 939 938 937

usemtl Patch_100_Mat_CR2_ceiling
f 942 941 940
f 945 944 943

usemtl Patch_101_Mat_CR2_ceiling
f 948 947 946
f 951 950 949
f 954 953 952

usemtl Patch_102_Mat_CR2_concrete
f 957 956 955
f 960 959 958

usemtl Patch_103_Mat_CR2_concrete
f 963 962 961
f 966 965 964

usemtl Patch_104_Mat_CR2_concrete
f 969 968 967
f 972 971 970

