mtllib mesh.mtl

v 4.379 -6.160 2.736
v 6.102 -6.160 2.736
v 6.102 -3.906 2.736
v 6.102 -3.906 2.736
v 4.364 -3.906 2.736
v 4.379 -6.160 2.736
v 2.469 -5.074 2.736
v 2.846 -3.906 2.736
v 0.571 -3.906 2.736
v 0.571 -3.906 2.736
v 0.571 -4.958 2.736
v 2.469 -5.074 2.736
v 4.364 -3.906 2.736
v 2.846 -3.906 2.736
v 2.469 -5.074 2.736
v 2.469 -5.074 2.736
v 2.781 -6.160 2.736
v 4.379 -6.160 2.736
v 4.379 -6.160 2.736
v 4.364 -3.906 2.736
v 2.469 -5.074 2.736
v 2.469 -5.074 2.736
v 0.571 -4.958 2.736
v 0.571 -6.160 2.736
v 0.571 -6.160 2.736
v 2.781 -6.160 2.736
v 2.469 -5.074 2.736
v 6.102 0.930 2.736
v 0.571 0.930 2.736
v 0.571 0.930 2.276
v 0.571 0.930 2.276
v 6.102 0.930 2.276
v 6.102 0.930 2.736
v 0.571 0.499 2.276
v 6.102 0.930 2.276
v 0.571 0.930 2.276
v 6.102 0.930 2.276
v 0.571 0.499 2.276
v 6.102 0.499 2.276
v 0.571 0.499 2.736
v 6.102 0.499 2.736
v 6.102 0.499 2.276
v 6.102 0.499 2.276
v 0.571 0.499 2.276
v 0.571 0.499 2.736
v 3.201 0.930 2.736
v 6.102 0.930 2.736
v 6.102 1.903 2.736
v 6.102 1.903 2.736
v 3.261 2.164 2.736
v 3.201 0.930 2.736
v 3.261 2.164 2.736
v 0.571 2.411 2.736
v 0.571 0.930 2.736
v 0.571 0.930 2.736
v 3.201 0.930 2.736
v 3.261 2.164 2.736
v 6.102 -3.483 2.736
v 0.571 -3.483 2.736
v 0.571 -3.483 2.276
v 0.571 -3.483 2.276
v 6.102 -3.483 2.276
v 6.102 -3.483 2.736
v 0.571 -3.906 2.276
v 6.102 -3.483 2.276
v 0.571 -3.483 2.276
v 6.102 -3.483 2.276
v 0.571 -3.906 2.276
v 6.102 -3.906 2.276
v 0.571 -3.906 2.736
v 6.102 -3.906 2.736
v 6.102 -3.906 2.276
v 6.102 -3.906 2.276
v 0.571 -3.906 2.276
v 0.571 -3.906 2.736
v 6.102 0.499 2.736
v 4.297 -1.512 2.736
v 6.102 -1.459 2.736
v 4.297 -1.512 2.736
v 6.102 0.499 2.736
v 4.210 0.499 2.736
v 4.297 -1.512 2.736
v 4.210 0.499 2.736
v 4.215 -1.439 2.736
v 2.374 -1.475 2.736
v 2.447 -1.540 2.736
v 4.215 -1.439 2.736
v 4.215 -1.439 2.736
v 4.210 0.499 2.736
v 2.363 0.499 2.736
v 2.363 0.499 2.736
v 2.374 -1.475 2.736
v 4.215 -1.439 2.736
v 4.297 -1.512 2.736
v 4.299 -3.483 2.736
v 6.102 -3.483 2.736
v 6.102 -3.483 2.736
v 6.102 -1.459 2.736
v 4.297 -1.512 2.736
v 4.297 -1.512 2.736
v 4.215 -1.439 2.736
v 2.447 -1.540 2.736
v 2.447 -1.540 2.736
v 2.460 -3.483 2.736
v 4.299 -3.483 2.736
v 4.299 -3.483 2.736
v 4.297 -1.512 2.736
v 2.447 -1.540 2.736
v 2.374 -1.475 2.736
v 2.363 0.499 2.736
v 0.571 0.499 2.736
v 0.571 0.499 2.736
v 0.571 -1.526 2.736
v 2.374 -1.475 2.736
v 0.571 -3.483 2.736
v 2.374 -1.475 2.736
v 0.571 -1.526 2.736
v 2.374 -1.475 2.736
v 0.571 -3.483 2.736
v 2.460 -3.483 2.736
v 2.374 -1.475 2.736
v 2.460 -3.483 2.736
v 2.447 -1.540 2.736
v -4.076 -3.648 1.873
v -4.101 -3.648 2.768
v -6.251 -3.648 2.768
v -6.251 -3.648 2.768
v -6.251 -3.648 1.100
v -4.691 -3.648 1.100
v -4.691 -3.648 1.100
v -4.076 -3.648 1.873
v -6.251 -3.648 2.768
v -2.847 -3.648 1.100
v -4.522 -3.648 1.100
v -4.522 -3.648 0.000
v -2.847 -3.648 1.100
v -2.803 -3.648 -0.000
v -2.803 -3.648 1.072
v -2.803 -3.648 -0.000
v -2.847 -3.648 1.100
v -4.522 -3.648 0.000
v -4.076 -3.648 1.873
v -4.691 -3.648 1.100
v -4.522 -3.648 1.100
v -4.522 -3.648 1.100
v -2.847 -3.648 1.100
v -4.076 -3.648 1.873
v -1.908 -3.648 2.768
v -0.000 -3.648 1.100
v -0.000 -3.648 2.768
v -0.000 -3.648 1.100
v -1.908 -3.648 2.768
v -2.002 -3.648 1.100
v -1.908 -3.648 2.768
v -2.847 -3.648 1.100
v -2.002 -3.648 1.100
v -4.076 -3.648 1.873
v -1.908 -3.648 2.768
v -4.101 -3.648 2.768
v -1.908 -3.648 2.768
v -4.076 -3.648 1.873
v -2.847 -3.648 1.100
v -2.226 0.930 2.768
v 0.000 0.930 2.768
v -0.000 2.523 2.768
v -0.000 2.523 2.768
v -2.140 2.719 2.768
v -2.226 0.930 2.768
v -2.226 0.930 2.768
v -4.209 2.907 2.768
v -4.310 0.930 2.768
v -4.209 2.907 2.768
v -2.226 0.930 2.768
v -2.140 2.719 2.768
v -4.209 2.907 2.768
v -6.251 3.094 2.768
v -6.251 0.930 2.768
v -6.251 0.930 2.768
v -4.310 0.930 2.768
v -4.209 2.907 2.768
v -6.251 0.783 1.999
v -6.251 0.784 2.276
v -6.251 0.930 2.276
v -6.251 0.930 2.276
v -6.251 0.930 2.768
v -6.251 3.094 2.768
v -6.251 3.094 2.768
v -6.251 3.094 1.100
v -6.251 2.156 1.100
v -6.251 2.156 1.100
v -6.251 2.156 0.621
v -6.251 0.783 1.999
v -6.251 2.156 1.100
v -6.251 0.930 2.276
v -6.251 3.094 2.768
v -6.251 0.930 2.276
v -6.251 2.156 1.100
v -6.251 0.783 1.999
v -6.251 -0.449 0.689
v -6.251 0.783 1.999
v -6.251 2.156 0.621
v -6.251 2.156 0.621
v -6.251 2.156 0.000
v -6.251 -0.429 0.000
v -6.251 -0.429 0.000
v -6.251 -0.449 0.689
v -6.251 2.156 0.621
v -6.251 0.499 2.276
v -6.251 -0.449 0.689
v -6.251 -1.597 1.763
v -6.251 0.499 2.276
v -6.251 -1.603 2.768
v -6.251 0.499 2.768
v -6.251 0.499 2.276
v -6.251 0.784 2.276
v -6.251 0.783 1.999
v -6.251 -1.603 2.768
v -6.251 0.499 2.276
v -6.251 -1.597 1.763
v -6.251 -0.449 0.689
v -6.251 0.499 2.276
v -6.251 0.783 1.999
v -6.251 -3.053 0.000
v -6.251 -0.449 0.689
v -6.251 -0.429 0.000
v -6.251 -0.449 0.689
v -6.251 -3.053 0.000
v -6.251 -3.053 0.671
v -6.251 -0.449 0.689
v -6.251 -3.053 0.671
v -6.251 -1.597 1.763
v -6.251 -1.597 1.763
v -6.251 -3.053 0.671
v -6.251 -3.053 1.100
v -6.251 -3.053 1.100
v -6.251 -3.648 1.100
v -6.251 -3.648 2.768
v -6.251 -3.648 2.768
v -6.251 -1.603 2.768
v -6.251 -1.597 1.763
v -6.251 -1.597 1.763
v -6.251 -3.053 1.100
v -6.251 -3.648 2.768
v -6.251 0.499 2.276
v 0.000 0.499 2.768
v 0.000 0.499 2.276
v 0.000 0.499 2.768
v -6.251 0.499 2.276
v -6.251 0.499 2.768
v 0.000 0.499 2.276
v -0.000 0.930 2.276
v -6.251 0.930 2.276
v -6.251 0.930 2.276
v -6.251 0.499 2.276
v 0.000 0.499 2.276
v -0.000 0.930 2.768
v -6.251 0.930 2.276
v -0.000 0.930 2.276
v -6.251 0.930 2.276
v -0.000 0.930 2.768
v -6.251 0.930 2.768
v -1.536 -1.512 2.768
v 0.000 -1.700 2.768
v -0.000 0.499 2.768
v -0.000 0.499 2.768
v -1.608 0.499 2.768
v -1.536 -1.512 2.768
v -3.154 -1.484 2.768
v -2.087 -1.873 2.768
v -1.536 -1.512 2.768
v -3.154 -1.484 2.768
v -1.608 0.499 2.768
v -3.172 0.499 2.768
v -1.608 0.499 2.768
v -3.154 -1.484 2.768
v -1.536 -1.512 2.768
v -1.536 -1.512 2.768
v -2.087 -1.873 2.768
v -2.056 -3.648 2.768
v -1.536 -1.512 2.768
v 0.000 -3.648 2.768
v 0.000 -1.700 2.768
v 0.000 -3.648 2.768
v -1.536 -1.512 2.768
v -2.056 -3.648 2.768
v -4.773 -1.516 2.768
v -4.688 0.499 2.768
v -6.251 0.499 2.768
v -6.251 0.499 2.768
v -6.251 -1.725 2.768
v -4.773 -1.516 2.768
v -4.173 -3.648 2.768
v -3.154 -1.484 2.768
v -4.153 -1.897 2.768
v -3.154 -1.484 2.768
v -4.173 -3.648 2.768
v -2.056 -3.648 2.768
v -3.154 -1.484 2.768
v -2.056 -3.648 2.768
v -2.087 -1.873 2.768
v -4.773 -1.516 2.768
v -4.153 -1.897 2.768
v -3.154 -1.484 2.768
v -3.154 -1.484 2.768
v -3.172 0.499 2.768
v -4.688 0.499 2.768
v -4.688 0.499 2.768
v -4.773 -1.516 2.768
v -3.154 -1.484 2.768
v -6.251 -3.648 2.768
v -4.773 -1.516 2.768
v -6.251 -1.725 2.768
v -4.773 -1.516 2.768
v -6.251 -3.648 2.768
v -4.173 -3.648 2.768
v -4.773 -1.516 2.768
v -4.173 -3.648 2.768
v -4.153 -1.897 2.768
v -1.390 2.650 1.100
v 0.000 2.523 2.768
v 0.000 2.523 1.100
v 0.000 2.523 2.768
v -1.390 2.650 1.100
v -2.141 2.718 2.768
v -4.416 2.926 1.100
v -3.033 2.800 2.768
v -3.105 2.806 0.000
v -3.105 2.806 0.000
v -4.416 2.926 0.000
v -4.416 2.926 1.100
v -4.416 2.926 1.100
v -4.766 2.958 1.100
v -4.109 2.898 2.768
v -3.033 2.800 2.768
v -4.416 2.926 1.100
v -4.109 2.898 2.768
v -1.677 2.676 1.100
v -2.141 2.718 2.768
v -1.390 2.650 1.100
v -1.677 2.676 1.100
v -1.677 2.676 0.000
v -3.105 2.806 0.000
v -2.141 2.718 2.768
v -1.677 2.676 1.100
v -3.033 2.800 2.768
v -1.677 2.676 1.100
v -3.105 2.806 0.000
v -3.033 2.800 2.768
v -4.766 2.958 1.100
v -6.251 3.093 1.100
v -6.251 3.093 2.768
v -6.251 3.093 2.768
v -4.109 2.898 2.768
v -4.766 2.958 1.100
v 0.000 1.598 1.100
v 0.000 2.523 1.100
v 0.000 2.523 2.768
v 0.000 2.523 2.768
v 0.000 0.930 2.768
v 0.000 0.930 2.276
v 0.000 1.598 1.100
v 0.000 0.794 2.276
v 0.000 1.598 0.873
v 0.000 1.598 1.100
v 0.000 2.523 2.768
v 0.000 0.930 2.276
v 0.000 0.794 2.276
v 0.000 1.598 1.100
v 0.000 0.930 2.276
v 0.000 -0.012 2.195
v 0.000 0.499 2.768
v 0.000 -0.658 2.768
v 0.000 -0.658 2.768
v 0.000 -0.767 2.194
v 0.000 -0.012 2.195
v 0.000 1.598 0.873
v 0.000 -0.012 0.000
v 0.000 1.598 0.000
v 0.000 0.499 2.276
v 0.000 1.598 0.873
v 0.000 0.794 2.276
v 0.000 0.499 2.768
v 0.000 -0.012 2.195
v 0.000 0.499 2.276
v 0.000 0.499 2.276
v 0.000 -0.012 0.000
v 0.000 1.598 0.873
v 0.000 -0.012 0.000
v 0.000 0.499 2.276
v 0.000 -0.012 2.195
v 0.000 -1.983 1.100
v 0.000 -3.648 2.768
v 0.000 -3.648 1.100
v 0.000 -1.983 1.100
v 0.000 -1.983 0.000
v 0.000 -1.488 0.000
v 0.000 -1.488 2.193
v 0.000 -0.767 2.194
v 0.000 -0.658 2.768
v 0.000 -1.983 1.100
v 0.000 -1.488 0.000
v 0.000 -1.488 2.193
v 0.000 -3.648 2.768
v 0.000 -1.488 2.193
v 0.000 -0.658 2.768
v 0.000 -3.648 2.768
v 0.000 -1.983 1.100
v 0.000 -1.488 2.193
v 4.197 2.078 1.367
v 3.666 2.127 2.736
v 6.102 1.903 2.736
v 6.102 1.903 2.736
v 6.102 1.903 1.454
v 4.197 2.078 1.367
v 2.243 2.257 0.050
v 0.571 2.411 0.050
v 0.571 2.411 2.736
v 0.571 2.411 2.736
v 2.295 2.253 2.736
v 2.243 2.257 0.050
v 4.197 2.078 1.367
v 6.102 1.903 1.454
v 6.102 1.903 0.050
v 6.102 1.903 0.050
v 3.752 2.119 0.050
v 4.197 2.078 1.367
v 4.197 2.078 1.367
v 3.752 2.119 0.050
v 2.243 2.257 0.050
v 4.197 2.078 1.367
v 2.295 2.253 2.736
v 3.666 2.127 2.736
v 2.295 2.253 2.736
v 4.197 2.078 1.367
v 2.243 2.257 0.050
v 6.102 0.930 2.276
v 6.102 1.903 1.491
v 6.102 1.903 2.736
v 6.102 1.903 2.736
v 6.102 0.930 2.736
v 6.102 0.930 2.276
v 6.102 0.499 2.276
v 6.102 0.499 2.736
v 6.102 -0.691 2.736
v 6.102 1.903 1.491
v 6.102 0.930 2.276
v 6.102 -0.100 1.303
v 6.102 0.499 2.276
v 6.102 -0.691 2.736
v 6.102 -0.100 1.303
v 6.102 -0.100 1.303
v 6.102 0.930 2.276
v 6.102 0.499 2.276
v 6.102 -0.100 1.303
v 6.102 -1.566 2.736
v 6.102 -2.352 1.038
v 6.102 -2.352 1.038
v 6.102 -2.098 0.050
v 6.102 -0.444 0.050
v 6.102 -1.566 2.736
v 6.102 -0.100 1.303
v 6.102 -0.691 2.736
v 6.102 -0.100 1.303
v 6.102 -2.352 1.038
v 6.102 -0.444 0.050
v 6.102 -0.100 1.303
v 6.102 -0.444 0.050
v 6.102 1.903 0.050
v 6.102 1.903 0.050
v 6.102 1.903 1.491
v 6.102 -0.100 1.303
v 6.102 -3.483 2.276
v 6.102 -2.352 1.038
v 6.102 -1.566 2.736
v 6.102 -1.566 2.736
v 6.102 -3.483 2.736
v 6.102 -3.483 2.276
v 6.102 -3.906 2.276
v 6.102 -3.906 2.736
v 6.102 -4.326 2.736
v 6.102 -2.352 1.038
v 6.102 -3.483 2.276
v 6.102 -4.071 1.731
v 6.102 -3.906 2.276
v 6.102 -4.326 2.736
v 6.102 -4.071 1.731
v 6.102 -4.071 1.731
v 6.102 -3.483 2.276
v 6.102 -3.906 2.276
v 6.102 -2.352 1.038
v 6.102 -4.071 1.731
v 6.102 -4.801 0.050
v 6.102 -4.801 0.050
v 6.102 -2.098 0.050
v 6.102 -2.352 1.038
v 6.102 -4.071 1.731
v 6.102 -4.326 2.736
v 6.102 -6.160 2.736
v 6.102 -4.071 1.731
v 6.102 -6.160 0.050
v 6.102 -4.801 0.050
v 6.102 -6.160 0.050
v 6.102 -4.071 1.731
v 6.102 -6.160 2.736
v 2.515 -6.160 1.331
v 1.950 -6.160 2.736
v 0.571 -6.160 2.736
v 2.515 -6.160 1.331
v 0.571 -6.160 0.050
v 2.060 -6.160 0.050
v 0.571 -6.160 0.050
v 2.515 -6.160 1.331
v 0.571 -6.160 2.736
v 4.712 -6.160 0.050
v 2.515 -6.160 1.331
v 2.060 -6.160 0.050
v 2.515 -6.160 1.331
v 4.712 -6.160 0.050
v 4.151 -6.160 1.459
v 4.151 -6.160 1.459
v 4.712 -6.160 0.050
v 6.102 -6.160 0.050
v 4.151 -6.160 1.459
v 6.102 -6.160 2.736
v 4.609 -6.160 2.736
v 6.102 -6.160 2.736
v 4.151 -6.160 1.459
v 6.102 -6.160 0.050
v 1.950 -6.160 2.736
v 4.151 -6.160 1.459
v 4.609 -6.160 2.736
v 4.151 -6.160 1.459
v 1.950 -6.160 2.736
v 2.515 -6.160 1.331
v -4.416 2.926 1.100
v -4.510 1.985 1.100
v -6.251 2.156 1.100
v -6.251 2.156 1.100
v -6.251 3.094 1.100
v -4.416 2.926 1.100
v -4.510 1.985 1.100
v -4.416 2.926 0.000
v -4.510 1.985 -0.000
v -4.416 2.926 0.000
v -4.510 1.985 1.100
v -4.416 2.926 1.100
v -6.251 2.156 1.100
v -4.510 1.985 1.100
v -4.510 1.985 -0.000
v -4.510 1.985 -0.000
v -6.251 2.156 -0.000
v -6.251 2.156 1.100
v -4.522 -3.053 0.000
v -6.251 -3.053 1.100
v -6.251 -3.053 -0.000
v -6.251 -3.053 1.100
v -4.522 -3.053 0.000
v -4.522 -3.053 1.100
v -6.251 -3.053 1.100
v -4.522 -3.648 1.100
v -6.251 -3.648 1.100
v -4.522 -3.648 1.100
v -6.251 -3.053 1.100
v -4.522 -3.053 1.100
v -4.522 -3.648 1.100
v -4.522 -3.053 0.000
v -4.522 -3.648 -0.000
v -4.522 -3.053 0.000
v -4.522 -3.648 1.100
v -4.522 -3.053 1.100
v 0.000 2.523 1.100
v -0.000 1.598 1.100
v -1.741 1.715 1.100
v -1.741 1.715 1.100
v -1.677 2.676 1.100
v 0.000 2.523 1.100
v -1.741 1.715 0.000
v 0.000 1.598 1.100
v 0.000 1.598 0.000
v 0.000 1.598 1.100
v -1.741 1.715 0.000
v -1.741 1.715 1.100
v -1.741 1.715 0.000
v -1.677 2.676 1.100
v -1.741 1.715 1.100
v -1.677 2.676 1.100
v -1.741 1.715 0.000
v -1.677 2.676 -0.000
v -5.442 1.479 1.000
v -5.442 1.479 0.000
v -5.442 -0.091 0.000
v -5.442 -0.091 0.000
v -5.442 -0.091 1.000
v -5.442 1.479 1.000
v -3.509 2.562 0.000
v -2.509 2.562 1.000
v -2.509 2.562 0.000
v -2.509 2.562 1.000
v -3.509 2.562 0.000
v -3.509 2.562 1.000
v -1.784 1.729 0.000
v -2.390 2.524 1.000
v -1.784 1.729 1.000
v -2.390 2.524 1.000
v -1.784 1.729 0.000
v -2.390 2.524 -0.000
v -5.318 1.607 -0.000
v -4.389 1.977 1.000
v -4.389 1.977 -0.000
v -4.389 1.977 1.000
v -5.318 1.607 -0.000
v -5.318 1.607 1.000
v -2.803 -3.648 0.000
v -2.803 -2.798 1.100
v -2.803 -3.648 1.100
v -2.803 -2.798 1.100
v -2.803 -3.648 0.000
v -2.803 -2.798 0.000
v -0.913 -2.798 0.000
v -2.803 -2.798 1.100
v -2.803 -2.798 -0.000
v -2.803 -2.798 1.100
v -0.913 -2.798 0.000
v -0.913 -2.798 1.100
v -0.913 -2.798 1.100
v -2.803 -3.648 1.100
v -2.803 -2.798 1.100
v -0.913 -2.798 1.100
v -0.913 -1.983 1.100
v 0.000 -1.983 1.100
v -2.803 -3.648 1.100
v -0.913 -2.798 1.100
v -0.000 -3.648 1.100
v -0.913 -2.798 1.100
v 0.000 -1.983 1.100
v -0.000 -3.648 1.100
v -0.913 -2.798 0.000
v -0.913 -1.983 1.100
v -0.913 -2.798 1.100
v -0.913 -1.983 1.100
v -0.913 -2.798 0.000
v -0.913 -1.983 -0.000
v 0.000 -1.983 -0.000
v -0.913 -1.983 1.100
v -0.913 -1.983 -0.000
v -0.913 -1.983 1.100
v 0.000 -1.983 -0.000
v 0.000 -1.983 1.100
v -2.803 -2.798 0.000
v -3.324 -1.491 0.000
v -2.718 -2.798 0.000
v -4.522 -3.053 0.000
v -2.803 -3.648 0.000
v -4.522 -3.648 0.000
v -4.522 -3.053 0.000
v -5.063 -3.053 0.000
v -4.362 -1.682 0.000
v -3.324 -1.491 0.000
v -2.803 -2.798 0.000
v -4.362 -1.682 0.000
v -2.803 -3.648 0.000
v -4.522 -3.053 0.000
v -2.803 -2.798 0.000
v -4.522 -3.053 0.000
v -4.362 -1.682 0.000
v -2.803 -2.798 0.000
v -6.251 -3.053 0.000
v -4.362 -1.682 0.000
v -5.063 -3.053 0.000
v -5.553 -0.411 0.000
v -6.251 -3.053 0.000
v -6.251 -0.365 0.000
v -4.362 -1.682 0.000
v -6.251 -3.053 0.000
v -5.553 -0.411 0.000
v -3.787 0.745 0.000
v -5.553 -0.411 0.000
v -3.964 0.815 0.000
v -4.362 -1.682 0.000
v -3.787 0.745 0.000
v -3.040 -1.063 0.000
v -3.040 -1.063 0.000
v -3.324 -1.491 0.000
v -4.362 -1.682 0.000
v -5.553 -0.411 0.000
v -3.787 0.745 0.000
v -4.362 -1.682 0.000
v -2.718 -2.798 0.000
v -3.040 -1.063 0.000
v -1.916 -0.796 0.000
v -2.718 -2.798 0.000
v -0.913 -2.202 0.000
v -0.913 -2.798 0.000
v -3.040 -1.063 0.000
v -2.718 -2.798 0.000
v -3.324 -1.491 0.000
v -2.718 -2.798 0.000
v -1.916 -0.796 0.000
v -0.913 -2.202 0.000
v -2.164 1.262 0.000
v -1.710 2.185 0.000
v -1.741 1.715 0.000
v -1.512 -0.114 0.000
v 0.000 1.598 0.000
v 0.000 0.049 0.000
v -1.741 1.715 0.000
v -1.512 -0.114 0.000
v -2.164 1.262 0.000
v 0.000 1.598 0.000
v -1.512 -0.114 0.000
v -1.741 1.715 0.000
v 0.000 -0.012 0.000
v -1.512 -0.114 0.000
v 0.000 0.049 0.000
v -0.913 -1.983 0.000
v 0.000 -0.012 0.000
v 0.000 -1.983 0.000
v -0.913 -1.983 0.000
v -0.913 -2.202 0.000
v -1.916 -0.796 0.000
v 0.000 -0.012 0.000
v -0.913 -1.983 0.000
v -1.512 -0.114 0.000
v -1.512 -0.114 0.000
v -0.913 -1.983 0.000
v -1.916 -0.796 0.000
v -6.251 2.156 0.000
v -5.553 -0.411 0.000
v -6.251 -0.365 0.000
v -5.553 -0.411 0.000
v -6.251 2.156 0.000
v -4.510 1.985 0.000
v -5.553 -0.411 0.000
v -4.510 1.985 0.000
v -3.964 0.815 0.000
v -3.787 0.745 0.000
v -1.512 -0.114 0.000
v -1.916 -0.796 0.000
v -1.916 -0.796 0.000
v -3.040 -1.063 0.000
v -3.787 0.745 0.000
v -1.512 -0.114 0.000
v -3.787 0.745 0.000
v -2.164 1.262 0.000
v -4.510 1.988 0.000
v -3.787 0.745 0.000
v -3.964 0.815 0.000
v -1.710 2.185 0.000
v -4.510 1.988 0.000
v -4.416 2.926 0.000
v -4.416 2.926 0.000
v -1.677 2.676 0.000
v -1.710 2.185 0.000
v -3.787 0.745 0.000
v -4.510 1.988 0.000
v -2.164 1.262 0.000
v -2.164 1.262 0.000
v -4.510 1.988 0.000
v -1.710 2.185 0.000
v -4.422 2.059 0.000
v -3.556 2.559 1.000
v -3.556 2.559 0.000
v -3.556 2.559 1.000
v -4.422 2.059 0.000
v -4.422 2.059 1.000
v 0.571 -1.488 0.050
v 0.000 -1.488 2.193
v 0.000 -1.488 -0.000
v 0.000 -1.488 2.193
v 0.571 -1.488 0.050
v 0.571 -1.488 2.193
v 0.571 -1.488 2.193
v 0.571 0.499 2.736
v 0.571 -0.012 2.195
v 0.571 -1.488 2.193
v 0.571 -1.488 0.901
v 0.571 -2.966 2.736
v 0.571 0.499 2.736
v 0.571 -1.488 2.193
v 0.571 -2.966 2.736
v 0.571 -4.020 1.350
v 0.571 -3.620 2.276
v 0.571 -3.483 2.276
v 0.571 -2.966 2.736
v 0.571 -3.483 2.594
v 0.571 -3.422 2.736
v 0.571 -3.483 2.276
v 0.571 -2.966 2.736
v 0.571 -1.488 0.901
v 0.571 -1.488 0.901
v 0.571 -1.488 0.050
v 0.571 -3.766 0.050
v 0.571 -1.488 0.901
v 0.571 -4.020 1.350
v 0.571 -3.483 2.276
v 0.571 -3.483 2.594
v 0.571 -2.966 2.736
v 0.571 -3.483 2.276
v 0.571 -4.020 1.350
v 0.571 -1.488 0.901
v 0.571 -3.766 0.050
v 0.571 -3.483 2.594
v 0.571 -3.483 2.736
v 0.571 -3.422 2.736
v 0.571 -3.906 2.276
v 0.571 -6.160 1.426
v 0.571 -6.160 2.736
v 0.571 -6.160 2.736
v 0.571 -3.906 2.736
v 0.571 -3.906 2.276
v 0.571 -3.906 2.276
v 0.571 -3.620 2.276
v 0.571 -4.020 1.350
v 0.571 -6.160 1.426
v 0.571 -3.906 2.276
v 0.571 -4.020 1.350
v 0.571 -4.020 1.350
v 0.571 -3.766 0.050
v 0.571 -6.160 0.050
v 0.571 -6.160 0.050
v 0.571 -6.160 1.426
v 0.571 -4.020 1.350
v 0.571 -0.012 2.195
v 1.306 -1.292 0.050
v 1.306 -1.292 2.195
v 1.306 -1.292 0.050
v 0.571 -0.012 2.195
v 0.571 -0.012 0.050
v 4.362 -4.328 0.050
v 6.102 -4.296 0.050
v 6.102 -6.160 0.050
v 6.102 -6.160 0.050
v 4.054 -6.160 0.050
v 4.362 -4.328 0.050
v 4.362 -4.328 0.050
v 2.545 -6.160 0.050
v 2.281 -4.188 0.050
v 2.281 -4.188 0.050
v 2.676 -3.789 0.050
v 3.889 -3.788 0.050
v 2.545 -6.160 0.050
v 4.362 -4.328 0.050
v 4.054 -6.160 0.050
v 4.362 -4.328 0.050
v 2.281 -4.188 0.050
v 3.889 -3.788 0.050
v 4.362 -4.328 0.050
v 3.889 -3.788 0.050
v 4.485 -2.327 0.050
v 4.485 -2.327 0.050
v 6.102 -2.366 0.050
v 6.102 -4.296 0.050
v 6.102 -4.296 0.050
v 4.362 -4.328 0.050
v 4.485 -2.327 0.050
v 4.485 -2.327 0.050
v 2.676 -3.789 0.050
v 2.159 -2.087 0.050
v 2.159 -2.087 0.050
v 2.623 -1.565 0.050
v 3.971 -1.591 0.050
v 2.676 -3.789 0.050
v 4.485 -2.327 0.050
v 3.889 -3.788 0.050
v 4.485 -2.327 0.050
v 2.159 -2.087 0.050
v 3.971 -1.591 0.050
v 4.485 -2.327 0.050
v 3.971 -1.591 0.050
v 4.559 -0.227 0.050
v 4.485 -2.327 0.050
v 6.102 -0.250 0.050
v 6.102 -2.366 0.050
v 6.102 -0.250 0.050
v 4.485 -2.327 0.050
v 4.559 -0.227 0.050
v 2.281 -4.188 0.050
v 2.545 -6.160 0.050
v 0.571 -6.160 0.050
v 0.571 -6.160 0.050
v 0.571 -4.176 0.050
v 2.281 -4.188 0.050
v 2.471 0.403 0.050
v 2.623 -1.565 0.050
v 2.190 0.106 0.050
v 2.623 -1.565 0.050
v 2.471 0.403 0.050
v 4.111 0.376 0.050
v 4.111 0.376 0.050
v 4.559 -0.227 0.050
v 3.971 -1.591 0.050
v 2.623 -1.565 0.050
v 4.111 0.376 0.050
v 3.971 -1.591 0.050
v 0.571 -1.488 0.050
v 2.623 -1.565 0.050
v 2.159 -2.087 0.050
v 2.159 -2.087 0.050
v 0.571 -2.098 0.050
v 0.571 -1.488 0.050
v 0.571 -0.012 0.050
v 0.571 0.101 0.050
v 2.190 0.106 0.050
v 2.623 -1.565 0.050
v 0.571 -1.488 0.050
v 2.190 0.106 0.050
v 0.571 -1.488 0.050
v 0.571 -0.012 0.050
v 2.190 0.106 0.050
v 2.159 -2.087 0.050
v 2.676 -3.789 0.050
v 2.281 -4.188 0.050
v 2.159 -2.087 0.050
v 0.571 -4.176 0.050
v 0.571 -2.098 0.050
v 0.571 -4.176 0.050
v 2.159 -2.087 0.050
v 2.281 -4.188 0.050
v 6.102 1.903 0.050
v 4.111 0.376 0.050
v 4.533 2.047 0.050
v 4.111 0.376 0.050
v 6.102 1.903 0.050
v 6.102 -0.250 0.050
v 4.111 0.376 0.050
v 6.102 -0.250 0.050
v 4.559 -0.227 0.050
v 4.111 0.376 0.050
v 2.471 0.403 0.050
v 2.383 2.245 0.050
v 2.383 2.245 0.050
v 4.533 2.047 0.050
v 4.111 0.376 0.050
v 2.471 0.403 0.050
v 2.190 0.106 0.050
v 0.571 0.101 0.050
v 2.471 0.403 0.050
v 0.571 2.411 0.050
v 2.383 2.245 0.050
v 0.571 2.411 0.050
v 2.471 0.403 0.050
v 0.571 0.101 0.050
v 0.000 -0.012 0.000
v 0.571 -1.488 0.050
v 0.000 -1.488 -0.000
v 0.571 -1.488 0.050
v 0.000 -0.012 0.000
v 0.571 -0.012 0.050
v -0.000 -0.012 2.195
v 0.571 -0.012 0.050
v -0.000 -0.012 0.000
v 0.571 -0.012 0.050
v -0.000 -0.012 2.195
v 0.571 -0.012 2.195
v 0.571 2.411 1.178
v 0.571 2.411 0.050
v 0.571 -0.012 0.050
v 0.571 -0.012 0.050
v 0.571 -0.012 1.525
v 0.571 2.411 1.178
v 0.571 0.499 2.276
v 0.571 -0.012 2.195
v 0.571 0.499 2.736
v 0.571 0.930 2.276
v 0.571 0.930 2.736
v 0.571 2.411 2.736
v 0.571 0.930 2.276
v 0.571 2.411 1.178
v 0.571 -0.012 1.525
v 0.571 -0.012 2.195
v 0.571 0.499 2.276
v 0.571 -0.012 1.525
v 0.571 2.411 1.178
v 0.571 0.930 2.276
v 0.571 2.411 2.736
v 0.571 -0.012 1.525
v 0.571 0.499 2.276
v 0.571 0.930 2.276
v 1.306 -1.292 2.195
v 1.306 -1.292 0.050
v 0.571 -0.012 0.050
v 0.571 -0.012 0.050
v 0.571 -0.012 2.195
v 1.306 -1.292 2.195
v -5.442 -0.091 0.000
v -5.442 1.479 0.000
v -5.442 1.479 1.000
v -5.442 1.479 1.000
v -5.442 -0.091 1.000
v -5.442 -0.091 0.000
v -2.509 2.562 0.000
v -2.509 2.562 1.000
v -3.509 2.562 1.000
v -3.509 2.562 1.000
v -3.509 2.562 0.000
v -2.509 2.562 0.000
v -1.784 1.729 1.000
v -2.390 2.524 1.000
v -2.390 2.524 0.000
v -2.390 2.524 0.000
v -1.784 1.729 0.000
v -1.784 1.729 1.000
v -5.318 1.607 1.000
v -4.389 1.977 0.000
v -4.389 1.977 1.000
v -4.389 1.977 0.000
v -5.318 1.607 1.000
v -5.318 1.607 0.000
v -4.422 2.059 1.000
v -3.556 2.559 0.000
v -3.556 2.559 1.000
v -3.556 2.559 0.000
v -4.422 2.059 1.000
v -4.422 2.059 0.000

usemtl Patch_1_Mat_CR1_paintedConcrete
f 3 2 1
f 6 5 4

usemtl Patch_2_Mat_CR1_paintedConcrete
f 9 8 7
f 12 11 10

usemtl Patch_3_Mat_CR1_paintedConcrete
f 15 14 13
f 18 17 16
f 21 20 19

usemtl Patch_4_Mat_CR1_paintedConcrete
f 24 23 22
f 27 26 25

usemtl Patch_5_Mat_CR1_paintedConcrete
f 30 29 28
f 33 32 31

usemtl Patch_6_Mat_CR1_paintedConcrete
f 36 35 34
f 39 38 37

usemtl Patch_7_Mat_CR1_paintedConcrete
f 42 41 40
f 45 44 43

usemtl Patch_8_Mat_CR1_paintedConcrete
f 48 47 46
f 51 50 49

usemtl Patch_9_Mat_CR1_paintedConcrete
f 54 53 52
f 57 56 55

usemtl Patch_10_Mat_CR1_paintedConcrete
f 60 59 58
f 63 62 61

usemtl Patch_11_Mat_CR1_paintedConcrete
f 66 65 64
f 69 68 67

usemtl Patch_12_Mat_CR1_paintedConcrete
f 72 71 70
f 75 74 73

usemtl Patch_13_Mat_CR1_paintedConcrete
f 78 77 76
f 81 80 79
f 84 83 82

usemtl Patch_14_Mat_CR1_paintedConcrete
f 87 86 85
f 90 89 88
f 93 92 91

usemtl Patch_15_Mat_CR1_paintedConcrete
f 96 95 94
f 99 98 97

usemtl Patch_16_Mat_CR1_paintedConcrete
f 102 101 100
f 105 104 103
f 108 107 106

usemtl Patch_17_Mat_CR1_paintedConcrete
f 111 110 109
f 114 113 112

usemtl Patch_18_Mat_CR1_paintedConcrete
f 117 116 115
f 120 119 118
f 123 122 121

usemtl Patch_19_Mat_CR1_concrete
f 126 125 124
f 129 128 127
f 132 131 130

usemtl Patch_20_Mat_CR1_concrete
f 135 134 133
f 138 137 136
f 141 140 139
f 144 143 142
f 147 146 145

usemtl Patch_21_Mat_CR1_concrete
f 150 149 148
f 153 152 151

usemtl Patch_22_Mat_CR1_concrete
f 156 155 154
f 159 158 157
f 162 161 160

usemtl Patch_23_Mat_CR1_tablesEquipment
f 165 164 163
f 168 167 166

usemtl Patch_24_Mat_CR1_tablesEquipment
f 171 170 169
f 174 173 172

usemtl Patch_25_Mat_CR1_tablesEquipment
f 177 176 175
f 180 179 178

usemtl Patch_26_Mat_CR1_tablesEquipment
f 183 182 181
f 186 185 184
f 189 188 187
f 192 191 190
f 195 194 193
f 198 197 196

usemtl Patch_27_Mat_CR1_tablesEquipment
f 201 200 199
f 204 203 202
f 207 206 205

usemtl Patch_28_Mat_CR1_tablesEquipment
f 210 209 208
f 213 212 211
f 216 215 214
f 219 218 217
f 222 221 220

usemtl Patch_29_Mat_CR1_tablesEquipment
f 225 224 223
f 228 227 226
f 231 230 229

usemtl Patch_30_Mat_CR1_tablesEquipment
f 234 233 232
f 237 236 235
f 240 239 238
f 243 242 241

usemtl Patch_31_Mat_CR1_tablesEquipment
f 246 245 244
f 249 248 247

usemtl Patch_32_Mat_CR1_tablesEquipment
f 252 251 250
f 255 254 253

usemtl Patch_33_Mat_CR1_tablesEquipment
f 258 257 256
f 261 260 259

usemtl Patch_34_Mat_CR1_tablesEquipment
f 264 263 262
f 267 266 265

usemtl Patch_35_Mat_CR1_tablesEquipment
f 270 269 268
f 273 272 271
f 276 275 274

usemtl Patch_36_Mat_CR1_tablesEquipment
f 279 278 277
f 282 281 280
f 285 284 283

usemtl Patch_37_Mat_CR1_tablesEquipment
f 288 287 286
f 291 290 289

usemtl Patch_38_Mat_CR1_tablesEquipment
f 294 293 292
f 297 296 295
f 300 299 298

usemtl Patch_39_Mat_CR1_tablesEquipment
f 303 302 301
f 306 305 304
f 309 308 307

usemtl Patch_40_Mat_CR1_tablesEquipment
f 312 311 310
f 315 314 313
f 318 317 316

usemtl Patch_41_Mat_CR1_tablesEquipment
f 321 320 319
f 324 323 322

usemtl Patch_42_Mat_CR1_tablesEquipment
f 327 326 325
f 330 329 328
f 333 332 331
f 336 335 334

usemtl Patch_43_Mat_CR1_tablesEquipment
f 339 338 337
f 342 341 340
f 345 344 343
f 348 347 346

usemtl Patch_44_Mat_CR1_tablesEquipment
f 351 350 349
f 354 353 352

usemtl Patch_45_Mat_CR1_tablesEquipment
f 357 356 355
f 360 359 358
f 363 362 361
f 366 365 364
f 369 368 367

usemtl Patch_46_Mat_CR1_tablesEquipment
f 372 371 370
f 375 374 373
f 378 377 376
f 381 380 379
f 384 383 382
f 387 386 385
f 390 389 388

usemtl Patch_47_Mat_CR1_tablesEquipment
f 393 392 391
f 396 395 394
f 399 398 397
f 402 401 400
f 405 404 403
f 408 407 406

usemtl Patch_48_Mat_CR1_paintedConcrete
f 411 410 409
f 414 413 412

usemtl Patch_49_Mat_CR1_paintedConcrete
f 417 416 415
f 420 419 418

usemtl Patch_50_Mat_CR1_paintedConcrete
f 423 422 421
f 426 425 424

usemtl Patch_51_Mat_CR1_paintedConcrete
f 429 428 427
f 432 431 430
f 435 434 433

usemtl Patch_52_Mat_CR1_paintedConcrete
f 438 437 436
f 441 440 439
f 444 443 442
f 447 446 445
f 450 449 448
f 453 452 451

usemtl Patch_53_Mat_CR1_paintedConcrete
f 456 455 454
f 459 458 457
f 462 461 460
f 465 464 463

usemtl Patch_54_Mat_CR1_paintedConcrete
f 468 467 466
f 471 470 469

usemtl Patch_55_Mat_CR1_paintedConcrete
f 474 473 472
f 477 476 475
f 480 479 478
f 483 482 481
f 486 485 484
f 489 488 487

usemtl Patch_56_Mat_CR1_paintedConcrete
f 492 491 490
f 495 494 493

usemtl Patch_57_Mat_CR1_paintedConcrete
f 498 497 496
f 501 500 499
f 504 503 502

usemtl Patch_58_Mat_CR1_paintedConcrete
f 507 506 505
f 510 509 508
f 513 512 511

usemtl Patch_59_Mat_CR1_paintedConcrete
f 516 515 514
f 519 518 517

usemtl Patch_60_Mat_CR1_paintedConcrete
f 522 521 520
f 525 524 523
f 528 527 526

usemtl Patch_61_Mat_CR1_paintedConcrete
f 531 530 529
f 534 533 532

usemtl Patch_62_Mat_CR1_absorber
f 537 536 535
f 540 539 538

usemtl Patch_63_Mat_CR1_absorber
f 543 542 541
f 546 545 544

usemtl Patch_64_Mat_CR1_absorber
f 549 548 547
f 552 551 550

usemtl Patch_65_Mat_CR1_absorber
f 555 554 553
f 558 557 556

usemtl Patch_66_Mat_CR1_absorber
f 561 560 559
f 564 563 562

usemtl Patch_67_Mat_CR1_absorber
f 567 566 565
f 570 569 568

usemtl Patch_68_Mat_CR1_absorber
f 573 572 571
f 576 575 574

usemtl Patch_69_Mat_CR1_absorber
f 579 578 577
f 582 581 580

usemtl Patch_70_Mat_CR1_absorber
f 585 584 583
f 588 587 586

usemtl Patch_71_Mat_CR1_unknown
f 591 590 589
f 594 593 592

usemtl Patch_72_Mat_CR1_unknown
f 597 596 595
f 600 599 598

usemtl Patch_73_Mat_CR1_unknown
f 603 602 601
f 606 605 604

usemtl Patch_74_Mat_CR1_unknown
f 609 608 607
f 612 611 610

usemtl Patch_75_Mat_CR1_absorber
f 615 614 613
f 618 617 616

usemtl Patch_76_Mat_CR1_absorber
f 621 620 619
f 624 623 622

usemtl Patch_77_Mat_CR1_absorber
f 627 626 625
f 630 629 628
f 633 632 631
f 636 635 634

usemtl Patch_78_Mat_CR1_absorber
f 639 638 637
f 642 641 640

usemtl Patch_79_Mat_CR1_absorber
f 645 644 643
f 648 647 646

usemtl Patch_80_Mat_CR1_tablesEquipment
f 651 650 649
f 654 653 652
f 657 656 655
f 660 659 658
f 663 662 661
f 666 665 664

usemtl Patch_81_Mat_CR1_tablesEquipment
f 669 668 667
f 672 671 670
f 675 674 673

usemtl Patch_82_Mat_CR1_tablesEquipment
f 678 677 676
f 681 680 679
f 684 683 682
f 687 686 685

usemtl Patch_83_Mat_CR1_tablesEquipment
f 690 689 688
f 693 692 691
f 696 695 694
f 699 698 697

usemtl Patch_84_Mat_CR1_tablesEquipment
f 702 701 700
f 705 704 703
f 708 707 706
f 711 710 709

usemtl Patch_85_Mat_CR1_tablesEquipment
f 714 713 712
f 717 716 715
f 720 719 718
f 723 722 721
f 726 725 724

usemtl Patch_86_Mat_CR1_tablesEquipment
f 729 728 727
f 732 731 730
f 735 734 733

usemtl Patch_87_Mat_CR1_tablesEquipment
f 738 737 736
f 741 740 739
f 744 743 742

usemtl Patch_88_Mat_CR1_tablesEquipment
f 747 746 745
f 750 749 748
f 753 752 751
f 756 755 754
f 759 758 757

usemtl Patch_89_Mat_CR1_unknown
f 762 761 760
f 765 764 763

usemtl Patch_90_Mat_CR1_tablesEquipment
f 768 767 766
f 771 770 769

usemtl Patch_91_Mat_CR1_paintedConcrete
f 774 773 772
f 777 776 775
f 780 779 778

usemtl Patch_92_Mat_CR1_paintedConcrete
f 783 782 781
f 786 785 784
f 789 788 787
f 792 791 790
f 795 794 793
f 798 797 796
f 801 800 799

usemtl Patch_93_Mat_CR1_paintedConcrete
f 804 803 802
f 807 806 805
f 810 809 808
f 813 812 811
f 816 815 814

usemtl Patch_94_Mat_CR1_paintedConcrete
f 819 818 817
f 822 821 820

usemtl Patch_95_Mat_CR1_paintedConcrete
f 825 824 823
f 828 827 826

usemtl Patch_96_Mat_CR1_paintedConcrete
f 831 830 829
f 834 833 832

usemtl Patch_97_Mat_CR1_paintedConcrete
f 837 836 835
f 840 839 838
f 843 842 841
f 846 845 844

usemtl Patch_98_Mat_CR1_paintedConcrete
f 849 848 847
f 852 851 850
f 855 854 853

usemtl Patch_99_Mat_CR1_paintedConcrete
f 858 857 856
f 861 860 859
f 864 863 862
f 867 866 865

usemtl Patch_100_Mat_CR1_paintedConcrete
f 870 869 868
f 873 872 871
f 876 875 874

usemtl Patch_101_Mat_CR1_paintedConcrete
f 879 878 877
f 882 881 880

usemtl Patch_102_Mat_CR1_paintedConcrete
f 885 884 883
f 888 887 886
f 891 890 889
f 894 893 892

usemtl Patch_103_Mat_CR1_paintedConcrete
f 897 896 895
f 900 899 898
f 903 902 901
f 906 905 904
f 909 908 907

usemtl Patch_104_Mat_CR1_paintedConcrete
f 912 911 910
f 915 914 913
f 918 917 916

usemtl Patch_105_Mat_CR1_paintedConcrete
f 921 920 919
f 924 923 922
f 927 926 925

usemtl Patch_106_Mat_CR1_paintedConcrete
f 930 929 928
f 933 932 931

usemtl Patch_107_Mat_CR1_paintedConcrete
f 936 935 934
f 939 938 937
f 942 941 940

usemtl Patch_108_Mat_CR1_tablesEquipment
f 945 944 943
f 948 947 946

usemtl Patch_109_Mat_CR1_tablesEquipment
f 951 950 949
f 954 953 952

usemtl Patch_110_Mat_CR1_paintedConcrete
f 957 956 955
f 960 959 958

usemtl Patch_111_Mat_CR1_paintedConcrete
f 963 962 961
f 966 965 964
f 969 968 967
f 972 971 970
f 975 974 973
f 978 977 976

usemtl Patch_112_Mat_CR1_absorber
f 981 980 979
f 984 983 982

usemtl Patch_113_Mat_CR1_unknown
f 987 986 985
f 990 989 988

usemtl Patch_114_Mat_CR1_unknown
f 993 992 991
f 996 995 994

usemtl Patch_115_Mat_CR1_unknown
f 999 998 997
f 1002 1001 1000

usemtl Patch_116_Mat_CR1_unknown
f 1005 1004 1003
f 1008 1007 1006

usemtl Patch_117_Mat_CR1_unknown
f 1011 1010 1009
f 1014 1013 1012

