# File generated by ImageToStl.com - Free Image and 3D model conversion tools

mtllib CR1_DoorAngle1_ubersimplified.mtl

o obj1
v 240.22590637 74.92125702 107.71653748
v 22.46999359 19.64566994 107.71653748
v 22.46999359 94.92125702 107.71653748
v 22.46999359 -242.51968384 107.71653748
v 240.22590637 -242.51968384 107.71653748
usemtl mat0
f 1 2 3
f 2 1 4
f 4 1 5
# Vertices: 5, normals: 0, texture coordinates: 0, faces: 3

o obj2
v -246.11268616 -143.62203979 108.97637939
v -178.01901245 -143.62203979 43.30708694
v -246.11268616 -143.62203979 43.30708694
v -178.01901245 -143.62203979 0
v -110.3431015 -143.62203979 43.30708694
v -110.3431015 -143.62203979 0
v -0.01032051 -143.62203979 43.30708694
v -0.01032051 -143.62203979 108.97637939
usemtl mat1
f 6 7 8
f 9 10 11
f 10 9 7
f 10 7 12
f 12 7 13
f 13 7 6
# Vertices: 8, normals: 0, texture coordinates: 0, faces: 6

o obj3
v -0.01032051 99.33071136 108.97637939
v -246.11268616 -143.62203979 108.97637939
v -246.11268616 121.8110199 108.97637939
v -0.01032051 -143.62203979 108.97637939
usemtl mat2
f 14 15 16
f 15 14 17
# Vertices: 4, normals: 0, texture coordinates: 0, faces: 2

o obj4
v -246.11268616 84.87595367 -0
v -246.11268616 -120.20082855 43.30708694
v -246.11268616 -120.20082855 0
v -246.11268616 -143.62203979 108.97637939
v -246.11268616 -143.62203979 43.30708694
v -246.11268616 121.8110199 108.97637939
v -246.11268616 84.87595367 43.30708694
v -246.11268616 121.8110199 43.30708694
usemtl mat2
f 18 19 20
f 19 21 22
f 21 19 23
f 23 19 24
f 24 19 18
f 23 24 25
# Vertices: 8, normals: 0, texture coordinates: 0, faces: 6

o obj5
v -0.01032051 99.33071136 108.97637939
v -66.02174377 105.36054993 43.30708694
v -0.01032051 99.33071136 43.30708694
v -66.02174377 105.36054993 0
v -173.85995483 115.2110672 43.30708694
v -173.85995483 115.2110672 -0
v -246.11268616 121.8110199 43.30708694
v -246.11268616 121.8110199 108.97637939
usemtl mat2
f 26 27 28
f 29 30 31
f 30 29 27
f 30 27 32
f 32 27 33
f 33 27 26
# Vertices: 8, normals: 0, texture coordinates: 0, faces: 6

o obj6
v -0.01032051 -143.62203979 108.97637939
v -0.01032051 -58.58267593 86.3385849
v -0.01032051 -143.62203979 43.30708694
v -0.01032051 99.33071136 108.97637939
v -0.01032051 -78.08494568 43.30708694
v -0.01032051 -78.08494568 0
v -0.01032051 -0.47244096 86.41732025
v -0.01032051 -0.47244096 0
v -0.01032051 62.91531754 43.30708694
v -0.01032051 99.33071136 43.30708694
v -0.01032051 62.91531754 0
v -0.01032051 -58.58267593 0
usemtl mat2
f 34 35 36
f 35 34 37
f 36 35 38
f 38 35 39
f 35 37 40
f 40 37 41
f 41 37 42
f 42 37 43
f 44 41 42
f 45 39 35
# Vertices: 12, normals: 0, texture coordinates: 0, faces: 10

o obj7
v 240.22590637 74.92125702 107.71653748
v 22.46999359 94.92125702 1.96850395
v 240.22590637 74.92125702 1.96850395
v 22.46999359 94.92125702 107.71653748
usemtl mat0
f 46 47 48
f 47 46 49
# Vertices: 4, normals: 0, texture coordinates: 0, faces: 2

o obj8
v 240.22590637 74.92125702 107.71653748
v 240.22590637 -242.51968384 1.96850395
v 240.22590637 -242.51968384 107.71653748
v 240.22590637 74.92125702 1.96850395
usemtl mat0
f 50 51 52
f 51 50 53
# Vertices: 4, normals: 0, texture coordinates: 0, faces: 2

o obj9
v 22.46999359 -242.51968384 107.71653748
v 240.22590637 -242.51968384 1.96850395
v 22.46999359 -242.51968384 1.96850395
v 240.22590637 -242.51968384 107.71653748
usemtl mat0
f 54 55 56
f 55 54 57
# Vertices: 4, normals: 0, texture coordinates: 0, faces: 2

o obj10
v -177.56370544 78.16802216 43.30708694
v -246.11268616 121.8110199 43.30708694
v -246.11268616 84.87595367 43.30708694
v -173.85995483 115.2110672 43.30708694
usemtl mat3
f 58 59 60
f 59 58 61
# Vertices: 4, normals: 0, texture coordinates: 0, faces: 2

o obj11
v -173.85995483 115.2110672 -0
v -177.56370544 78.16802216 39.37007904
v -177.56370544 78.16802216 -0
v -177.56370544 78.16802216 43.30708694
v -173.85995483 115.2110672 43.30708694
usemtl mat3
f 62 63 64
f 63 62 65
f 65 62 66
# Vertices: 5, normals: 0, texture coordinates: 0, faces: 3

o obj12
v -177.56370544 78.16802216 39.37007904
v -246.11268616 84.87595367 -0
v -177.56370544 78.16802216 -0
v -246.11268616 84.87595367 43.30708694
v -177.56370544 78.16802216 43.30708694
usemtl mat3
f 67 68 69
f 68 67 70
f 70 67 71
# Vertices: 5, normals: 0, texture coordinates: 0, faces: 3

o obj13
v -246.11268616 -120.20082855 43.30708694
v -178.01901245 -120.20082855 0
v -246.11268616 -120.20082855 0
v -178.01901245 -120.20082855 43.30708694
usemtl mat3
f 72 73 74
f 73 72 75
# Vertices: 4, normals: 0, texture coordinates: 0, faces: 2

o obj14
v -178.01901245 -143.62203979 43.30708694
v -246.11268616 -120.20082855 43.30708694
v -246.11268616 -143.62203979 43.30708694
v -178.01901245 -120.20082855 43.30708694
usemtl mat3
f 76 77 78
f 77 76 79
# Vertices: 4, normals: 0, texture coordinates: 0, faces: 2

o obj15
v -178.01901245 -120.20082855 0
v -178.01901245 -143.62203979 43.30708694
v -178.01901245 -143.62203979 0
v -178.01901245 -120.20082855 43.30708694
usemtl mat3
f 80 81 82
f 81 80 83
# Vertices: 4, normals: 0, texture coordinates: 0, faces: 2

o obj16
v -0.01032051 62.91531754 43.30708694
v -66.02174377 105.36054993 43.30708694
v -68.55511475 67.50354004 43.30708694
v -0.01032051 99.33071136 43.30708694
usemtl mat3
f 84 85 86
f 85 84 87
# Vertices: 4, normals: 0, texture coordinates: 0, faces: 2

o obj17
v -0.01032051 62.91531754 43.30708694
v -68.55511475 67.50354004 0
v -0.01032051 62.91531754 0
v -68.55511475 67.50354004 39.37007904
v -68.55511475 67.50354004 43.30708694
usemtl mat3
f 88 89 90
f 89 88 91
f 91 88 92
# Vertices: 5, normals: 0, texture coordinates: 0, faces: 3

o obj18
v -66.02174377 105.36054993 43.30708694
v -68.55511475 67.50354004 39.37007904
v -68.55511475 67.50354004 43.30708694
v -68.55511475 67.50354004 0
v -66.02174377 105.36054993 0
usemtl mat3
f 93 94 95
f 94 93 96
f 96 93 97
# Vertices: 5, normals: 0, texture coordinates: 0, faces: 3

o obj19
v -214.24804688 58.22101593 0
v -214.24804688 -3.59000707 39.37007904
v -214.24804688 -3.59000707 0
v -214.24804688 58.22101593 39.37007904
usemtl mat4
f 98 99 100
f 99 98 101
# Vertices: 4, normals: 0, texture coordinates: 0, faces: 2

o obj20
v -94.09633636 99.38756561 0
v -140.01127625 100.73999023 39.37007904
v -140.01127625 100.73999023 0
v -94.09633636 99.38756561 39.37007904
usemtl mat4
f 102 103 104
f 103 102 105
# Vertices: 4, normals: 0, texture coordinates: 0, faces: 2

o obj21
v -94.09633636 99.38756561 39.37007904
v -68.55511475 67.50354004 0
v -68.55511475 67.50354004 39.37007904
v -94.09633636 99.38756561 0
usemtl mat4
f 106 107 108
f 107 106 109
# Vertices: 4, normals: 0, texture coordinates: 0, faces: 2

o obj22
v -177.56370544 78.16802216 39.37007904
v -214.24804688 58.22101593 0
v -177.56370544 78.16802216 -0
v -214.24804688 58.22101593 39.37007904
usemtl mat4
f 110 111 112
f 111 110 113
# Vertices: 4, normals: 0, texture coordinates: 0, faces: 2

o obj23
v -110.3431015 -110.17155457 43.30708694
v -110.3431015 -143.62203979 0
v -110.3431015 -143.62203979 43.30708694
v -110.3431015 -110.17155457 0
usemtl mat3
f 114 115 116
f 115 114 117
# Vertices: 4, normals: 0, texture coordinates: 0, faces: 2

o obj24
v -110.3431015 -110.17155457 43.30708694
v -35.93365479 -110.17155457 0
v -110.3431015 -110.17155457 0
v -35.93365479 -110.17155457 43.30708694
usemtl mat3
f 118 119 120
f 119 118 121
# Vertices: 4, normals: 0, texture coordinates: 0, faces: 2

o obj25
v -0.01032051 -143.62203979 43.30708694
v -110.3431015 -110.17155457 43.30708694
v -110.3431015 -143.62203979 43.30708694
v -35.93365479 -110.17155457 43.30708694
v -35.93365479 -78.08494568 43.30708694
v -0.01032051 -78.08494568 43.30708694
usemtl mat3
f 122 123 124
f 123 122 125
f 125 122 126
f 126 122 127
# Vertices: 6, normals: 0, texture coordinates: 0, faces: 4

o obj26
v -35.93365479 -78.08494568 43.30708694
v -35.93365479 -110.17155457 0
v -35.93365479 -110.17155457 43.30708694
v -35.93365479 -78.08494568 0
usemtl mat3
f 128 129 130
f 129 128 131
# Vertices: 4, normals: 0, texture coordinates: 0, faces: 2

o obj27
v -35.93365479 -78.08494568 43.30708694
v -0.01032051 -78.08494568 0
v -35.93365479 -78.08494568 0
v -0.01032051 -78.08494568 43.30708694
usemtl mat3
f 132 133 134
f 133 132 135
# Vertices: 4, normals: 0, texture coordinates: 0, faces: 2

o obj28
v -110.3431015 -143.62203979 0
v -178.01901245 -120.20082855 0
v -178.01901245 -143.62203979 0
v -177.56370544 78.16802216 -0
v -140.01127625 100.73999023 0
v -110.3431015 -110.17155457 0
v -94.09633636 99.38756561 0
v -35.93365479 -110.17155457 0
v -68.55511475 67.50354004 0
v -35.93365479 -78.08494568 0
v -0.01032051 62.91531754 0
v -0.01032051 -0.47244096 0
v -0.01032051 -78.08494568 0
v -0.01032051 -58.58267593 0
v -246.11268616 -120.20082855 0
v -246.11268616 84.87595367 -0
usemtl mat2
f 136 137 138
f 137 136 139
f 139 136 140
f 140 136 141
f 140 141 142
f 142 141 143
f 142 143 144
f 144 143 145
f 144 145 146
f 146 145 147
f 147 145 148
f 147 148 149
f 150 139 151
f 139 150 137
# Vertices: 16, normals: 0, texture coordinates: 0, faces: 14

o obj29
v -140.01127625 100.73999023 0
v -177.56370544 78.16802216 39.37007904
v -177.56370544 78.16802216 -0
v -140.01127625 100.73999023 39.37007904
usemtl mat4
f 152 153 154
f 153 152 155
# Vertices: 4, normals: 0, texture coordinates: 0, faces: 2

o obj30
v -0.01032051 -58.58267593 86.3385849
v 22.46999359 -58.58267593 1.96850395
v -0.01032051 -58.58267593 0
v 22.46999359 -58.58267593 86.3385849
usemtl mat2
f 156 157 158
f 157 156 159
# Vertices: 4, normals: 0, texture coordinates: 0, faces: 2

o obj31
v 26.60302353 -58.46422958 1.96850395
v 22.46999359 -0.47244096 86.41732025
v 26.60302353 -58.46422958 86.41732025
v 22.46999359 -0.47244096 1.96850395
usemtl mat0
f 160 161 162
f 161 160 163
# Vertices: 4, normals: 0, texture coordinates: 0, faces: 2

o obj32
v 240.22590637 -242.51968384 1.96850395
v 22.46999359 -58.58267593 1.96850395
v 22.46999359 -242.51968384 1.96850395
v 22.46999359 -0.47244096 1.96850395
v 240.22590637 74.92125702 1.96850395
v 22.46999359 94.92125702 1.96850395
usemtl mat0
f 164 165 166
f 165 164 167
f 167 168 169
f 168 167 164
# Vertices: 6, normals: 0, texture coordinates: 0, faces: 4

o obj33
v -140.01127625 100.73999023 0
v -173.85995483 115.2110672 -0
v -177.56370544 78.16802216 -0
v -66.02174377 105.36054993 0
v -94.09633636 99.38756561 0
v -68.55511475 67.50354004 0
usemtl mat2
f 170 171 172
f 171 170 173
f 173 170 174
f 173 174 175
# Vertices: 6, normals: 0, texture coordinates: 0, faces: 4

o obj34
v 22.46999359 -58.58267593 1.96850395
v -0.01032051 -0.47244096 0
v -0.01032051 -58.58267593 0
v 22.46999359 -0.47244096 1.96850395
usemtl mat2
f 176 177 178
f 177 176 179
# Vertices: 4, normals: 0, texture coordinates: 0, faces: 2

o obj35
v 22.46999359 -0.47244096 1.96850395
v 22.46999359 19.64566994 107.71653748
v 22.46999359 -0.47244096 86.41732025
v 22.46999359 94.92125702 1.96850395
v 22.46999359 94.92125702 107.71653748
usemtl mat0
f 180 181 182
f 181 180 183
f 181 183 184
# Vertices: 5, normals: 0, texture coordinates: 0, faces: 3

o obj36
v 22.46999359 -0.47244096 1.96850395
v -0.01032051 -0.47244096 86.41732025
v -0.01032051 -0.47244096 0
v 22.46999359 -0.47244096 86.41732025
usemtl mat2
f 185 186 187
f 186 185 188
# Vertices: 4, normals: 0, texture coordinates: 0, faces: 2

o obj37
v 22.46999359 -58.58267593 1.96850395
v 22.46999359 -242.51968384 107.71653748
v 22.46999359 -242.51968384 1.96850395
v 22.46999359 -58.58267593 86.3385849
v 22.46999359 19.64566994 107.71653748
v 22.46999359 -0.47244096 86.41732025
usemtl mat0
f 189 190 191
f 190 189 192
f 190 192 193
f 193 192 194
# Vertices: 6, normals: 0, texture coordinates: 0, faces: 4

o obj38
usemtl mat3
f 160 162 161
f 161 163 160
# Vertices: 4, normals: 0, texture coordinates: 0, faces: 2

o obj39
usemtl mat4
f 98 100 99
f 99 101 98
# Vertices: 4, normals: 0, texture coordinates: 0, faces: 2

o obj40
usemtl mat4
f 102 104 103
f 103 105 102
# Vertices: 4, normals: 0, texture coordinates: 0, faces: 2

o obj41
usemtl mat4
f 106 108 107
f 107 109 106
# Vertices: 4, normals: 0, texture coordinates: 0, faces: 2

o obj42
usemtl mat4
f 110 112 111
f 111 113 110
# Vertices: 4, normals: 0, texture coordinates: 0, faces: 2

o obj43
usemtl mat4
f 152 154 153
f 153 155 152
# Vertices: 4, normals: 0, texture coordinates: 0, faces: 2

