mtllib mesh.mtl

v -1.30349243 4.08237756 0.1500000000000001
v -2.82349239 4.08237756 0.59500002
v -2.82349239 4.08237756 0.1499999999999999
v -2.82349239 4.08237756 0.59500002
v -1.30349243 4.08237756 0.1500000000000001
v -1.30349243 4.08237756 0.5950000200000001
v 2.80350756 4.18937762 1.4932254995036587
v 2.80350756 4.18937762 0.45
v 1.2605076499999999 4.18937762 0.44999999999999984
v 1.2605076499999999 4.18937762 0.44999999999999984
v 1.26050765 4.18937762 1.5160836933723176
v 2.80350756 4.18937762 1.4932254995036587
v 1.26050765 4.18937762 1.5160836933723176
v 1.2605076500000005 4.18937762 2.5680000399999994
v 2.8035075600000003 4.18937762 2.5680000399999994
v 2.8035075600000003 4.18937762 2.5680000399999994
v 2.80350756 4.18937762 1.4932254995036587
v 1.26050765 4.18937762 1.5160836933723176
v -0.7694923699999998 4.18937762 1.5158921493980173
v -0.7694923699999999 4.18937762 2.56800004
v 0.75750759 4.18937762 2.56800004
v 0.75750759 4.18937762 2.56800004
v 0.7575075900000001 4.18937762 1.514021614592808
v -0.7694923699999998 4.18937762 1.5158921493980173
v 0.7575075900000001 4.18937762 1.514021614592808
v 0.7575075900000002 4.18937762 0.45000000000000007
v -0.7694923699999996 4.18937762 0.45000000000000057
v -0.7694923699999996 4.18937762 0.45000000000000057
v -0.7694923699999998 4.18937762 1.5158921493980173
v 0.7575075900000001 4.18937762 1.514021614592808
v -2.8844923400000004 4.18937762 1.5145695040410891
v -2.88449234 4.18937762 2.56800004
v -1.29749241 4.18937762 2.56800004
v -1.29749241 4.18937762 2.56800004
v -1.2974924099999998 4.18937762 1.5140304493839003
v -2.8844923400000004 4.18937762 1.5145695040410891
v -1.2974924099999998 4.18937762 1.5140304493839003
v -1.2974924100000003 4.18937762 0.45000000000000007
v -2.88449234 4.18937762 0.4500000000000002
v -2.88449234 4.18937762 0.4500000000000002
v -2.8844923400000004 4.18937762 1.5145695040410891
v -1.2974924099999998 4.18937762 1.5140304493839003
v -1.61649242 -4.25462209 0.9878208205022401
v -1.61649242 -2.8906222 0.0
v -1.61649242 -4.25462209 1.1102230246251565e-16
v -1.61649242 -2.8906222 0.0
v -1.61649242 -4.25462209 0.9878208205022401
v -1.61649242 -2.8906222 0.9954003991861747
v -1.61649242 -4.25462209 0.9878208205022401
v -1.61649242 -4.25462209 1.9986777884626108
v -1.61649242 -2.8906222 1.976803354645687
v -1.61649242 -2.8906222 1.976803354645687
v -1.61649242 -2.8906222 0.9954003991861747
v -1.61649242 -4.25462209 0.9878208205022401
v -1.61649242 -4.25462209 1.9986777884626108
v -1.61649242 -4.25462209 2.98799998
v -1.61649242 -2.8906222000000006 2.98799998
v -1.61649242 -2.8906222000000006 2.98799998
v -1.61649242 -2.8906222 1.976803354645687
v -1.61649242 -4.25462209 1.9986777884626108
v 0.7565076000000001 4.08237756 0.15000000000000002
v -0.7634924 4.08237756 0.59500002
v -0.7634924 4.08237756 0.14999999999999997
v -0.7634924 4.08237756 0.59500002
v 0.7565076000000001 4.08237756 0.15000000000000002
v 0.7565076000000001 4.08237756 0.5950000200000001
v 2.78650763 4.08237756 0.15000000000000008
v 1.26650758 4.08237756 0.59500002
v 1.2665075800000003 4.08237756 0.15000000000000008
v 1.26650758 4.08237756 0.59500002
v 2.78650763 4.08237756 0.15000000000000008
v 2.78650763 4.08237756 0.59500002
v 2.80350756 4.18937762 2.56800004
v 1.8331216545463518 4.18937762 2.5680000400000003
v 1.8798019253165212 4.18937762 2.98799998
v 2.80350756 4.18937762 2.56800004
v 3.15501362 4.18937762 0.7414294300634388
v 2.8035075600000003 4.18937762 0.9536906306753676
v 2.80350756 4.18937762 2.56800004
v 1.8798019253165212 4.18937762 2.98799998
v 3.15501362 4.18937762 2.98799998
v 3.15501362 4.18937762 0.7414294300634388
v 2.80350756 4.18937762 2.56800004
v 3.15501362 4.18937762 2.98799998
v 0.7575075900000003 4.18937762 2.56800004
v 1.2605076500000008 4.18937762 1.4396629082514023
v 0.7575075900000006 4.18937762 1.2617170994239
v 0.7575075900000003 4.18937762 2.56800004
v -0.22662869332732588 4.18937762 2.5680000400000003
v -0.21502257932657942 4.18937762 2.9879999800000006
v 1.2605076500000003 4.18937762 2.56800004
v 1.8798019253165212 4.18937762 2.98799998
v 1.8331216545463518 4.18937762 2.5680000400000003
v 1.2605076500000008 4.18937762 1.4396629082514023
v 0.7575075900000003 4.18937762 2.56800004
v 1.2605076500000003 4.18937762 2.56800004
v 0.7575075900000003 4.18937762 2.56800004
v 1.8798019253165212 4.18937762 2.98799998
v 1.2605076500000003 4.18937762 2.56800004
v 1.8798019253165212 4.18937762 2.98799998
v 0.7575075900000003 4.18937762 2.56800004
v -0.21502257932657942 4.18937762 2.9879999800000006
v 1.2605076500000005 4.18937762 0.4500000000000004
v 0.7575075900000006 4.18937762 1.2617170994239
v 1.2605076500000008 4.18937762 1.4396629082514023
v 2.8035075600000003 4.18937762 0.4500000000000002
v 2.8035075600000003 4.18937762 0.9536906306753676
v 3.15501362 4.18937762 0.7414294300634388
v 0.7575075900000002 4.18937762 0.4500000000000002
v 0.17312664646234344 4.18937762 0.0
v 0.17877017502984577 4.18937762 0.4500000000000003
v 0.7575075900000006 4.18937762 1.2617170994239
v 1.2605076500000005 4.18937762 0.4500000000000004
v 0.7575075900000002 4.18937762 0.4500000000000002
v 2.8035075600000003 4.18937762 0.4500000000000002
v 3.15501362 4.18937762 0.7414294300634388
v 3.1550136200000005 4.18937762 0.0
v 1.2605076500000005 4.18937762 0.4500000000000004
v 0.17312664646234344 4.18937762 0.0
v 0.7575075900000002 4.18937762 0.4500000000000002
v 3.1550136200000005 4.18937762 0.0
v 1.2605076500000005 4.18937762 0.4500000000000004
v 2.8035075600000003 4.18937762 0.4500000000000002
v 0.17312664646234344 4.18937762 0.0
v 1.2605076500000005 4.18937762 0.4500000000000004
v 3.1550136200000005 4.18937762 0.0
v -1.2974924099999994 4.18937762 2.5680000400000003
v -0.7694923699999994 4.18937762 1.509551933365874
v -1.2974924099999998 4.18937762 1.4864634973830455
v -1.2974924099999994 4.18937762 2.5680000400000003
v -2.8844923399999987 4.18937762 2.5680000400000007
v -2.884492339999999 4.18937762 2.9879999800000006
v -0.7694923699999997 4.18937762 2.5680000400000003
v -0.21502257932657942 4.18937762 2.9879999800000006
v -0.22662869332732588 4.18937762 2.5680000400000003
v -0.7694923699999994 4.18937762 1.509551933365874
v -1.2974924099999994 4.18937762 2.5680000400000003
v -0.7694923699999997 4.18937762 2.5680000400000003
v -0.21502257932657942 4.18937762 2.9879999800000006
v -1.2974924099999994 4.18937762 2.5680000400000003
v -2.884492339999999 4.18937762 2.9879999800000006
v -0.21502257932657942 4.18937762 2.9879999800000006
v -0.7694923699999997 4.18937762 2.5680000400000003
v -1.2974924099999994 4.18937762 2.5680000400000003
v -1.2974924099999998 4.18937762 1.4864634973830455
v -0.7694923699999996 4.18937762 0.4500000000000006
v -1.2974924099999996 4.18937762 0.45000000000000057
v -0.7694923699999996 4.18937762 0.4500000000000006
v -1.2974924099999998 4.18937762 1.4864634973830455
v -0.7694923699999994 4.18937762 1.509551933365874
v -1.2974924099999996 4.18937762 0.45000000000000057
v -2.8844923399999987 4.18937762 5.868309054229044e-16
v -2.884492339999998 4.18937762 0.45000000000000073
v 0.17312664646234344 4.18937762 0.0
v -1.2974924099999996 4.18937762 0.45000000000000057
v 0.17877017502984577 4.18937762 0.4500000000000003
v -2.8844923399999987 4.18937762 5.868309054229044e-16
v -1.2974924099999996 4.18937762 0.45000000000000057
v 0.17312664646234344 4.18937762 0.0
v -1.61649242 -2.8906222 0.0
v -1.2429567551198808 -2.01510261473087 0.0
v -1.419570919393278 -2.8753021043278877 0.0
v -1.419570919393278 -2.8753021043278877 0.0
v -1.61649242 -3.0482118235699294 0.0
v -1.61649242 -2.8906222 0.0
v -1.61649242 -2.8906222 0.0
v -2.88449234 -2.8906222 0.0
v -2.8844923400000004 -1.5551246363095081 0.0
v -1.61649242 -2.8906222 0.0
v -1.5264824122656582 -1.527523653080836 0.0
v -1.2429567551198808 -2.01510261473087 0.0
v -1.5264824122656582 -1.527523653080836 0.0
v -1.61649242 -2.8906222 0.0
v -2.8844923400000004 -1.5551246363095081 0.0
v -1.6164924200000002 -4.25462209 0.0
v -0.06035286324141076 -3.299869156897823 0.0
v 0.028494220217909927 -4.234895898151602 0.0
v -0.06035286324141076 -3.299869156897823 0.0
v -1.6164924200000002 -4.25462209 0.0
v -1.61649242 -3.0482118235699294 0.0
v -0.06035286324141076 -3.299869156897823 0.0
v -1.61649242 -3.0482118235699294 0.0
v -1.419570919393278 -2.8753021043278877 0.0
v -0.06035286324141076 -3.299869156897823 0.0
v -1.2429567551198808 -2.01510261473087 0.0
v 0.050708349337822534 -1.8933449789280876 0.0
v 0.050708349337822534 -1.8933449789280876 0.0
v 0.3619904259043548 -2.716161770941109 0.0
v -0.06035286324141076 -3.299869156897823 0.0
v -1.2429567551198808 -2.01510261473087 0.0
v -0.06035286324141076 -3.299869156897823 0.0
v -1.419570919393278 -2.8753021043278877 0.0
v -2.8844923400000004 -1.5551246363095081 0.0
v -1.274760058799976 -0.7539118461894715 0.0
v -1.5264824122656582 -1.527523653080836 0.0
v -1.274760058799976 -0.7539118461894715 0.0
v -2.8844923400000004 -1.5551246363095081 0.0
v -2.8844923400000004 -0.18771247622103315 0.0
v -1.274760058799976 -0.7539118461894715 0.0
v -2.8844923400000004 -0.18771247622103315 0.0
v -1.5806077784126729 -0.15654174977029645 0.0
v -1.2429567551198808 -2.01510261473087 0.0
v -1.5264824122656582 -1.527523653080836 0.0
v -1.274760058799976 -0.7539118461894715 0.0
v 0.050708349337822534 -1.8933449789280876 0.0
v 0.022859993759113892 -0.702658329047551 0.0
v 0.30368559416452234 -1.3007083416514043 0.0
v -1.274760058799976 -0.7539118461894715 0.0
v 0.050708349337822534 -1.8933449789280876 0.0
v -1.2429567551198808 -2.01510261473087 0.0
v 0.022859993759113892 -0.702658329047551 0.0
v 0.050708349337822534 -1.8933449789280876 0.0
v -1.274760058799976 -0.7539118461894715 0.0
v 1.5907360884092847 -2.8926191580912732 0.0
v 0.3619904259043548 -2.716161770941109 0.0
v 1.5228650081957535 -2.807603199667403 0.0
v 0.3619904259043548 -2.716161770941109 0.0
v 1.5907360884092847 -2.8926191580912732 0.0
v 1.5402681331310402 -4.2167671538150655 0.0
v 1.5402681331310402 -4.2167671538150655 0.0
v 0.028494220217909927 -4.234895898151602 0.0
v -0.06035286324141076 -3.299869156897823 0.0
v 0.3619904259043548 -2.716161770941109 0.0
v 1.5402681331310402 -4.2167671538150655 0.0
v -0.06035286324141076 -3.299869156897823 0.0
v 1.5907360884092847 -2.8926191580912732 0.0
v 3.1266315382101477 -2.9151730589991227 0.0
v 3.121507530000001 -4.197805400000001 0.0
v 3.121507530000001 -4.197805400000001 0.0
v 1.5402681331310402 -4.2167671538150655 0.0
v 1.5907360884092847 -2.8926191580912732 0.0
v 0.050708349337822534 -1.8933449789280876 0.0
v 0.30368559416452234 -1.3007083416514043 0.0
v 1.569324565748006 -1.3269590448463875 0.0
v 0.3619904259043548 -2.716161770941109 0.0
v 1.7316645331721894 -1.5431943321579857 0.0
v 1.5228650081957535 -2.807603199667403 0.0
v 1.7316645331721894 -1.5431943321579857 0.0
v 0.3619904259043548 -2.716161770941109 0.0
v 0.050708349337822534 -1.8933449789280876 0.0
v 1.7316645331721894 -1.5431943321579857 0.0
v 0.050708349337822534 -1.8933449789280876 0.0
v 1.569324565748006 -1.3269590448463875 0.0
v -1.9532432817850192 2.728535371242522 0.0
v -1.4762133577326046 1.7994423456914628 0.0
v -1.758141194569948 1.2808862458454566 0.0
v -1.9532432817850192 2.728535371242522 0.0
v -2.8844923400000004 1.1987762762736893 0.0
v -2.8844923400000013 2.811765385625181 0.0
v -2.8844923400000004 1.1987762762736893 0.0
v -1.9532432817850192 2.728535371242522 0.0
v -1.758141194569948 1.2808862458454566 0.0
v -1.274760058799976 -0.7539118461894715 0.0
v -0.2568949843465639 0.6371269330776528 0.0
v 0.20786205275897385 -0.11670132849340845 0.0
v -1.274760058799976 -0.7539118461894715 0.0
v 0.20786205275897385 -0.11670132849340845 0.0
v 0.022859993759113892 -0.702658329047551 0.0
v -1.321743843118559 0.4682922158770728 0.0
v -1.274760058799976 -0.7539118461894715 0.0
v -1.5806077784126729 -0.15654174977029645 0.0
v -0.2568949843465639 0.6371269330776528 0.0
v -1.274760058799976 -0.7539118461894715 0.0
v -1.321743843118559 0.4682922158770728 0.0
v 1.775548534761392 -0.20093293863707296 0.0
v 0.20786205275897385 -0.11670132849340845 0.0
v 1.4383704195761209 0.2097291431061319 0.0
v 0.20786205275897385 -0.11670132849340845 0.0
v 1.775548534761392 -0.20093293863707296 0.0
v 1.569324565748006 -1.3269590448463875 0.0
v 0.20786205275897385 -0.11670132849340845 0.0
v 0.30368559416452234 -1.3007083416514043 0.0
v 0.022859993759113892 -0.702658329047551 0.0
v 0.30368559416452234 -1.3007083416514043 0.0
v 0.20786205275897385 -0.11670132849340845 0.0
v 1.569324565748006 -1.3269590448463875 0.0
v 1.5907360884092847 -2.8926191580912732 0.0
v 1.5228650081957535 -2.807603199667403 0.0
v 1.7316645331721894 -1.5431943321579857 0.0
v 1.7316645331721894 -1.5431943321579857 0.0
v 3.1319023717087733 -1.5957876809702713 0.0
v 3.1266315382101477 -2.9151730589991227 0.0
v 3.1266315382101477 -2.9151730589991227 0.0
v 1.5907360884092847 -2.8926191580912732 0.0
v 1.7316645331721894 -1.5431943321579857 0.0
v -2.8844923400000004 -0.18771247622103315 0.0
v -1.321743843118559 0.4682922158770728 0.0
v -1.5806077784126729 -0.15654174977029645 0.0
v -1.758141194569948 1.2808862458454566 0.0
v -2.8844923400000004 -0.18771247622103315 0.0
v -2.8844923400000004 1.1987762762736893 0.0
v -1.321743843118559 0.4682922158770728 0.0
v -2.8844923400000004 -0.18771247622103315 0.0
v -1.758141194569948 1.2808862458454566 0.0
v -1.321743843118559 0.4682922158770728 0.0
v -1.758141194569948 1.2808862458454566 0.0
v -1.4762133577326046 1.7994423456914628 0.0
v -0.2568949843465639 0.6371269330776528 0.0
v -0.5839736081134099 1.9699063312482024 0.0
v -0.00396336353282567 1.3414954507088583 0.0
v -0.5839736081134099 1.9699063312482024 0.0
v -0.2568949843465639 0.6371269330776528 0.0
v -1.321743843118559 0.4682922158770728 0.0
v -0.5839736081134099 1.9699063312482024 0.0
v -1.321743843118559 0.4682922158770728 0.0
v -1.4762133577326046 1.7994423456914628 0.0
v 1.7316645331721894 -1.5431943321579857 0.0
v 1.569324565748006 -1.3269590448463875 0.0
v 1.775548534761392 -0.20093293863707296 0.0
v 1.775548534761392 -0.20093293863707296 0.0
v 3.137718883444275 -0.1398091271123696 0.0
v 3.1319023717087733 -1.5957876809702713 0.0
v 3.1319023717087733 -1.5957876809702713 0.0
v 1.7316645331721894 -1.5431943321579857 0.0
v 1.775548534761392 -0.20093293863707296 0.0
v 0.6320609819978675 1.5080445290645081 0.0
v -0.2568949843465639 0.6371269330776528 0.0
v -0.00396336353282567 1.3414954507088583 0.0
v 0.20786205275897385 -0.11670132849340845 0.0
v 0.6320609819978675 1.5080445290645081 0.0
v 1.4899378686758458 0.84333455134157 0.0
v 1.4899378686758458 0.84333455134157 0.0
v 1.4383704195761209 0.2097291431061319 0.0
v 0.20786205275897385 -0.11670132849340845 0.0
v 0.6320609819978675 1.5080445290645081 0.0
v 0.20786205275897385 -0.11670132849340845 0.0
v -0.2568949843465639 0.6371269330776528 0.0
v 1.0123043037572754 2.5197638188966582 0.0
v -0.3663757590103205 2.8036087429183194 0.0
v 0.2765420595854169 3.0862841890108417 0.0
v -0.3663757590103205 2.8036087429183194 0.0
v 1.0123043037572754 2.5197638188966582 0.0
v 0.6320609819978675 1.5080445290645081 0.0
v 0.6320609819978675 1.5080445290645081 0.0
v -0.00396336353282567 1.3414954507088583 0.0
v -0.5839736081134099 1.9699063312482024 0.0
v -0.3663757590103205 2.8036087429183194 0.0
v 0.6320609819978675 1.5080445290645081 0.0
v -0.5839736081134099 1.9699063312482024 0.0
v -0.3663757590103205 2.8036087429183194 0.0
v -1.9532432817850192 2.728535371242522 0.0
v -1.2789132031246961 3.4280009289226623 0.0
v -1.9532432817850192 2.728535371242522 0.0
v -0.3663757590103205 2.8036087429183194 0.0
v -0.5839736081134099 1.9699063312482024 0.0
v -1.9532432817850192 2.728535371242522 0.0
v -0.5839736081134099 1.9699063312482024 0.0
v -1.4762133577326046 1.7994423456914628 0.0
v 2.1639597452302892 1.3556393954372805 0.0
v 1.7630886263530825 2.668022271521498 0.0
v 1.8388975512808319 2.7533721771550206 0.0
v 2.1639597452302892 1.3556393954372805 0.0
v 3.149679061291368 2.8540406642335903 0.0
v 3.143162942332373 1.2229377128243217 0.0
v 3.149679061291368 2.8540406642335903 0.0
v 2.1639597452302892 1.3556393954372805 0.0
v 1.8388975512808319 2.7533721771550206 0.0
v 3.137718883444275 -0.1398091271123696 0.0
v 2.1639597452302892 1.3556393954372805 0.0
v 3.143162942332373 1.2229377128243217 0.0
v 2.1639597452302892 1.3556393954372805 0.0
v 3.137718883444275 -0.1398091271123696 0.0
v 1.775548534761392 -0.20093293863707296 0.0
v 1.775548534761392 -0.20093293863707296 0.0
v 1.4383704195761209 0.2097291431061319 0.0
v 1.4899378686758458 0.84333455134157 0.0
v 2.1639597452302892 1.3556393954372805 0.0
v 1.775548534761392 -0.20093293863707296 0.0
v 1.4899378686758458 0.84333455134157 0.0
v -2.8844923400000013 4.18937762 0.0
v -1.9532432817850192 2.728535371242522 0.0
v -2.8844923400000013 2.811765385625181 0.0
v -1.2789132031246961 3.4280009289226623 0.0
v -2.8844923400000013 4.18937762 0.0
v -1.3173755559047071 4.18937762 0.0
v -2.8844923400000013 4.18937762 0.0
v -1.2789132031246961 3.4280009289226623 0.0
v -1.9532432817850192 2.728535371242522 0.0
v 0.2765420595854169 3.0862841890108417 0.0
v -0.3663757590103205 2.8036087429183194 0.0
v -1.2789132031246961 3.4280009289226623 0.0
v -1.2789132031246961 3.4280009289226623 0.0
v -1.3173755559047071 4.18937762 0.0
v 0.44188669318599705 4.18937762 0.0
v 0.44188669318599705 4.18937762 0.0
v 0.2765420595854169 3.0862841890108417 0.0
v -1.2789132031246961 3.4280009289226623 0.0
v 2.1639597452302892 1.3556393954372805 0.0
v 1.0123043037572754 2.5197638188966582 0.0
v 1.7630886263530825 2.668022271521498 0.0
v 0.6320609819978675 1.5080445290645081 0.0
v 2.1639597452302892 1.3556393954372805 0.0
v 1.4899378686758458 0.84333455134157 0.0
v 2.1639597452302892 1.3556393954372805 0.0
v 0.6320609819978675 1.5080445290645081 0.0
v 1.0123043037572754 2.5197638188966582 0.0
v 1.8388975512808319 2.7533721771550206 0.0
v 1.7063297127427566 4.18937762 0.0
v 3.1550136199999996 4.189377619999999 0.0
v 3.1550136199999996 4.189377619999999 0.0
v 3.149679061291368 2.8540406642335903 0.0
v 1.8388975512808319 2.7533721771550206 0.0
v 0.2765420595854169 3.0862841890108417 0.0
v 0.44188669318599705 4.18937762 0.0
v 1.7063297127427566 4.18937762 0.0
v 1.0123043037572754 2.5197638188966582 0.0
v 1.8388975512808319 2.7533721771550206 0.0
v 1.7630886263530825 2.668022271521498 0.0
v 1.7063297127427566 4.18937762 0.0
v 1.0123043037572754 2.5197638188966582 0.0
v 0.2765420595854169 3.0862841890108417 0.0
v 1.0123043037572754 2.5197638188966582 0.0
v 1.7063297127427566 4.18937762 0.0
v 1.8388975512808319 2.7533721771550206 0.0
v -2.88449234 2.6745965175651505 0.9593038940306036
v -2.88449234 4.18937762 0.9773275653852538
v -2.88449234 4.18937762 0.0
v -2.88449234 4.18937762 0.0
v -2.88449234 2.5046216384855926 1.1102230246251565e-16
v -2.88449234 2.6745965175651505 0.9593038940306036
v -2.88449234 2.6745965175651505 0.9593038940306036
v -2.88449234 1.3522553733530391 1.575437404629254
v -2.88449234 2.454808474787546 1.4351855236470419
v -2.88449234 1.131481502541945 0.0
v -2.88449234 2.6745965175651505 0.9593038940306036
v -2.88449234 2.5046216384855926 1.1102230246251565e-16
v -2.88449234 2.6745965175651505 0.9593038940306036
v -2.88449234 1.131481502541945 0.0
v -2.88449234 1.1300750085337419 1.39809367134023
v -2.88449234 1.3522553733530391 1.575437404629254
v -2.88449234 2.6745965175651505 0.9593038940306036
v -2.88449234 1.1300750085337419 1.39809367134023
v -2.88449234 2.6745965175651505 0.9593038940306036
v -2.88449234 2.454808474787546 1.4351855236470419
v -2.88449234 2.804935376609903 2.0265621595039325
v -2.88449234 2.804935376609903 2.0265621595039325
v -2.88449234 4.18937762 1.8973655884168714
v -2.88449234 4.18937762 0.9773275653852538
v -2.88449234 4.18937762 0.9773275653852538
v -2.88449234 2.6745965175651505 0.9593038940306036
v -2.88449234 2.804935376609903 2.0265621595039325
v -2.88449234 2.804935376609903 2.0265621595039325
v -2.88449234 2.454808474787546 1.4351855236470419
v -2.88449234 1.3522553733530391 1.575437404629254
v -2.88449234 2.804935376609903 2.0265621595039325
v -2.88449234 1.3367917607174848 2.98799998
v -2.88449234 2.6513442680627244 2.98799998
v -2.88449234 1.3367917607174848 2.98799998
v -2.88449234 2.804935376609903 2.0265621595039325
v -2.88449234 1.3522553733530391 1.575437404629254
v -2.88449234 2.804935376609903 2.0265621595039325
v -2.88449234 2.6513442680627244 2.98799998
v -2.88449234 4.18937762 2.98799998
v -2.88449234 4.18937762 2.98799998
v -2.88449234 4.18937762 1.8973655884168714
v -2.88449234 2.804935376609903 2.0265621595039325
v -2.88449234 -0.2606680427426137 1.4257310964838286
v -2.88449234 -0.05344022433143093 1.5872398284990008
v -2.88449234 1.1300750085337419 1.39809367134023
v -2.88449234 1.1300750085337419 1.39809367134023
v -2.88449234 1.131481502541945 0.0
v -2.88449234 -0.2617580648205047 -2.220446049250313e-16
v -2.88449234 -0.2617580648205047 -2.220446049250313e-16
v -2.88449234 -0.2606680427426137 1.4257310964838286
v -2.88449234 1.1300750085337419 1.39809367134023
v -2.88449234 1.3522553733530391 1.575437404629254
v -2.88449234 1.1300750085337419 1.39809367134023
v -2.88449234 -0.05344022433143093 1.5872398284990008
v -2.88449234 -0.05344022433143093 1.5872398284990008
v -2.88449234 -0.03934996505885646 2.9879999799999997
v -2.88449234 1.3367917607174848 2.98799998
v -2.88449234 1.3367917607174848 2.98799998
v -2.88449234 1.3522553733530391 1.575437404629254
v -2.88449234 -0.05344022433143093 1.5872398284990008
v -2.88449234 -1.592586725751076 1.4690302231347996
v -2.88449234 -1.46013792342909 1.5785681439517816
v -2.88449234 -0.2606680427426137 1.4257310964838286
v -2.88449234 -0.2606680427426137 1.4257310964838286
v -2.88449234 -0.2617580648205047 -2.220446049250313e-16
v -2.88449234 -1.5953698188530412 -4.440892098500626e-16
v -2.88449234 -1.5953698188530412 -4.440892098500626e-16
v -2.88449234 -1.592586725751076 1.4690302231347996
v -2.88449234 -0.2606680427426137 1.4257310964838286
v -2.88449234 -0.05344022433143093 1.5872398284990008
v -2.88449234 -0.2606680427426137 1.4257310964838286
v -2.88449234 -1.46013792342909 1.5785681439517816
v -2.88449234 -0.05344022433143093 1.5872398284990008
v -2.88449234 -1.4669019099794298 2.98799998
v -2.88449234 -0.03934996505885646 2.9879999799999997
v -2.88449234 -1.4669019099794298 2.98799998
v -2.88449234 -0.05344022433143093 1.5872398284990008
v -2.88449234 -1.46013792342909 1.5785681439517816
v -2.88449234 -1.592586725751076 1.4690302231347996
v -2.88449234 -1.5953698188530412 -4.440892098500626e-16
v -2.88449234 -2.8906222000000006 -4.440892098500626e-16
v -2.88449234 -2.8906222000000006 -4.440892098500626e-16
v -2.88449234 -2.890622200000001 1.5300865810883932
v -2.88449234 -1.592586725751076 1.4690302231347996
v -2.88449234 -2.8906222 2.9879589
v -2.88449234 -1.592586725751076 1.4690302231347996
v -2.88449234 -2.890622200000001 1.5300865810883932
v -2.88449234 -2.8906222 2.9879589
v -2.88449234 -2.8906221999999997 2.9879999799999997
v -2.88449234 -1.4669019099794298 2.98799998
v -2.88449234 -1.592586725751076 1.4690302231347996
v -2.88449234 -1.4669019099794298 2.98799998
v -2.88449234 -1.46013792342909 1.5785681439517816
v -2.88449234 -1.592586725751076 1.4690302231347996
v -2.88449234 -2.8906222 2.9879589
v -2.88449234 -1.4669019099794298 2.98799998
v -2.88449234 -2.8906222 1.4987020335087464
v -1.61649242 -2.8906222 2.98799998
v -2.88449234 -2.8906222 2.9879589
v -1.61649242 -2.8906222 2.98799998
v -2.88449234 -2.8906222 1.4987020335087464
v -1.6164924199999995 -2.8906222 1.4946170063111557
v -1.6164924199999995 -2.8906222 1.4946170063111557
v -2.88449234 -2.8906222 -3.885780586188048e-16
v -1.6164924199999997 -2.8906222 -4.0432483498577156e-16
v -2.88449234 -2.8906222 -3.885780586188048e-16
v -1.6164924199999995 -2.8906222 1.4946170063111557
v -2.88449234 -2.8906222 1.4987020335087464
v -1.61649242 -4.25462209 2.98799998
v -0.058351429220856565 -4.235937325419242 2.3526738327687178
v -0.13613636072322532 -4.236870099245008 2.98799998
v -0.7454486122303959 -4.244176791028972 1.4949632392188272
v -1.61649242 -4.25462209 2.98799998
v -1.6164924200000002 -4.25462209 1.4976951345456375
v -0.058351429220856565 -4.235937325419242 2.3526738327687178
v -1.61649242 -4.25462209 2.98799998
v -0.7454486122303959 -4.244176791028972 1.4949632392188272
v -0.058351429220856565 -4.235937325419242 2.3526738327687178
v 0.801245614559673 -4.225629292646596 1.7512879774408967
v 1.6165666953637305 -4.21585220408869 2.3326126666159794
v -0.058351429220856565 -4.235937325419242 2.3526738327687178
v 1.6977164830416525 -4.21487907990576 2.9879999800000006
v -0.13613636072322532 -4.236870099245008 2.98799998
v 1.6977164830416525 -4.21487907990576 2.9879999800000006
v -0.058351429220856565 -4.235937325419242 2.3526738327687178
v 1.6165666953637305 -4.21585220408869 2.3326126666159794
v -1.6164924200000004 -4.25462209 0.0
v -0.7454486122303959 -4.244176791028972 1.4949632392188272
v -1.6164924200000002 -4.25462209 1.4976951345456375
v -0.06472427053475094 -4.236013746641946 0.6487229347533537
v -1.6164924200000004 -4.25462209 0.0
v -0.14664420735303163 -4.236996106224923 2.220446049250313e-16
v -1.6164924200000004 -4.25462209 0.0
v -0.06472427053475094 -4.236013746641946 0.6487229347533537
v -0.7454486122303959 -4.244176791028972 1.4949632392188272
v 1.610409160195573 -4.215926043423959 0.6493862779696602
v 0.7992251402101936 -4.225653521575676 1.2357551816264172
v -0.06472427053475094 -4.236013746641946 0.6487229347533537
v -0.06472427053475094 -4.236013746641946 0.6487229347533537
v -0.14664420735303163 -4.236996106224923 2.220446049250313e-16
v 1.6913144022451203 -4.214955851759667 2.220446049250313e-16
v 1.6913144022451203 -4.214955851759667 2.220446049250313e-16
v 1.610409160195573 -4.215926043423959 0.6493862779696602
v -0.06472427053475094 -4.236013746641946 0.6487229347533537
v 0.801245614559673 -4.225629292646596 1.7512879774408967
v -0.058351429220856565 -4.235937325419242 2.3526738327687178
v -0.7454486122303959 -4.244176791028972 1.4949632392188272
v -0.7454486122303959 -4.244176791028972 1.4949632392188272
v -0.06472427053475094 -4.236013746641946 0.6487229347533537
v 0.7992251402101936 -4.225653521575676 1.2357551816264172
v 0.7992251402101936 -4.225653521575676 1.2357551816264172
v 0.801245614559673 -4.225629292646596 1.7512879774408967
v -0.7454486122303959 -4.244176791028972 1.4949632392188272
v 0.7992251402101936 -4.225653521575676 1.2357551816264172
v 1.610409160195573 -4.215926043423959 0.6493862779696602
v 2.339904465963021 -4.20717815210238 1.494008359734201
v 2.339904465963021 -4.20717815210238 1.494008359734201
v 1.6165666953637305 -4.21585220408869 2.3326126666159794
v 0.801245614559673 -4.225629292646596 1.7512879774408967
v 0.801245614559673 -4.225629292646596 1.7512879774408967
v 0.7992251402101936 -4.225653521575676 1.2357551816264172
v 2.339904465963021 -4.20717815210238 1.494008359734201
v 3.1215075299999997 -4.1978054 2.9879999800000006
v 2.339904465963021 -4.20717815210238 1.494008359734201
v 3.1215075299999993 -4.1978054 1.4931100502296673
v 1.6165666953637305 -4.21585220408869 2.3326126666159794
v 3.1215075299999997 -4.1978054 2.9879999800000006
v 1.6977164830416525 -4.21487907990576 2.9879999800000006
v 3.1215075299999997 -4.1978054 2.9879999800000006
v 1.6165666953637305 -4.21585220408869 2.3326126666159794
v 2.339904465963021 -4.20717815210238 1.494008359734201
v 3.1215075299999997 -4.1978054 2.9081716084031557e-16
v 1.610409160195573 -4.215926043423959 0.6493862779696602
v 1.6913144022451203 -4.214955851759667 2.220446049250313e-16
v 2.339904465963021 -4.20717815210238 1.494008359734201
v 3.1215075299999997 -4.1978054 2.9081716084031557e-16
v 3.1215075299999993 -4.1978054 1.4931100502296673
v 1.610409160195573 -4.215926043423959 0.6493862779696602
v 3.1215075299999997 -4.1978054 2.9081716084031557e-16
v 2.339904465963021 -4.20717815210238 1.494008359734201
v 3.12150753 -4.1978054 2.98799998
v 1.470660561511194 -3.0379671317659325 2.98799998
v 1.5630966720066561 -4.216493400748342 2.98799998
v 1.470660561511194 -3.0379671317659325 2.98799998
v 3.12150753 -4.1978054 2.98799998
v 3.127011922537459 -2.8199559515687525 2.98799998
v 1.470660561511194 -3.0379671317659325 2.98799998
v 3.127011922537459 -2.8199559515687525 2.98799998
v 1.693387472520833 -2.732884076405629 2.98799998
v 3.127011922537459 -2.8199559515687525 2.98799998
v 1.539070843281087 -1.930136107292401 2.98799998
v 1.693387472520833 -2.732884076405629 2.98799998
v 1.9897703116001155 -1.288279116070597 2.98799998
v 3.127011922537459 -2.8199559515687525 2.98799998
v 3.1329721580641055 -1.328000721809277 2.98799998
v 3.127011922537459 -2.8199559515687525 2.98799998
v 1.9897703116001155 -1.288279116070597 2.98799998
v 1.539070843281087 -1.930136107292401 2.98799998
v 1.470660561511194 -3.0379671317659325 2.98799998
v 0.007917584301459835 -2.944227072639333 2.98799998
v -0.08043815092294793 -3.045836291186772 2.98799998
v 1.470660561511194 -3.0379671317659325 2.98799998
v -0.07831070924219352 -4.236176671184874 2.98799998
v 1.5630966720066561 -4.216493400748342 2.98799998
v -0.07831070924219352 -4.236176671184874 2.98799998
v 1.470660561511194 -3.0379671317659325 2.98799998
v -0.08043815092294793 -3.045836291186772 2.98799998
v 1.470660561511194 -3.0379671317659325 2.98799998
v 1.693387472520833 -2.732884076405629 2.98799998
v 1.539070843281087 -1.930136107292401 2.98799998
v 1.539070843281087 -1.930136107292401 2.98799998
v 0.2724378568850109 -1.5758842932959123 2.98799998
v 0.026761859699466983 -1.812072181072994 2.98799998
v 1.539070843281087 -1.930136107292401 2.98799998
v 0.007917584301459835 -2.944227072639333 2.98799998
v 1.470660561511194 -3.0379671317659325 2.98799998
v 0.007917584301459835 -2.944227072639333 2.98799998
v 1.539070843281087 -1.930136107292401 2.98799998
v 0.026761859699466983 -1.812072181072994 2.98799998
v 1.726853796157242 0.02448705822904751 2.98799998
v 1.5750252849800206 -0.393103702352922 2.98799998
v 1.9897703116001155 -1.288279116070597 2.98799998
v 1.9897703116001155 -1.288279116070597 2.98799998
v 3.1329721580641055 -1.328000721809277 2.98799998
v 3.1393054776358427 0.2573442221188129 2.98799998
v 3.1393054776358427 0.2573442221188129 2.98799998
v 1.726853796157242 0.02448705822904751 2.98799998
v 1.9897703116001155 -1.288279116070597 2.98799998
v -2.8844923399999995 -1.3479901805045524 2.98799998
v -1.351334854638647 -1.550286200832081 2.98799998
v -1.442523144427269 -1.4082246980868254 2.98799998
v -1.6164924199999997 -2.890622200000001 2.98799998
v -2.8844923399999995 -1.3479901805045524 2.98799998
v -2.8844923399999995 -2.890622200000001 2.98799998
v -1.6164924199999997 -2.890622200000001 2.98799998
v -1.6164924200000002 -2.9437577120869185 2.98799998
v -1.5784635386052002 -2.910690793140131 2.98799998
v -1.351334854638647 -1.550286200832081 2.98799998
v -2.8844923399999995 -1.3479901805045524 2.98799998
v -1.6164924199999997 -2.890622200000001 2.98799998
v -1.351334854638647 -1.550286200832081 2.98799998
v -1.6164924199999997 -2.890622200000001 2.98799998
v -1.5784635386052002 -2.910690793140131 2.98799998
v -1.6164924199999997 -4.254622090000001 2.98799998
v -1.5784635386052002 -2.910690793140131 2.98799998
v -1.6164924200000002 -2.9437577120869185 2.98799998
v -0.08043815092294793 -3.045836291186772 2.98799998
v -1.6164924199999997 -4.254622090000001 2.98799998
v -0.07831070924219352 -4.236176671184874 2.98799998
v -1.6164924199999997 -4.254622090000001 2.98799998
v -0.08043815092294793 -3.045836291186772 2.98799998
v -1.5784635386052002 -2.910690793140131 2.98799998
v 0.3420338146022228 -0.7189584360183454 2.98799998
v 1.9897703116001155 -1.288279116070597 2.98799998
v 1.5750252849800206 -0.393103702352922 2.98799998
v 1.539070843281087 -1.930136107292401 2.98799998
v 0.3420338146022228 -0.7189584360183454 2.98799998
v 0.2724378568850109 -1.5758842932959123 2.98799998
v 1.9897703116001155 -1.288279116070597 2.98799998
v 0.3420338146022228 -0.7189584360183454 2.98799998
v 1.539070843281087 -1.930136107292401 2.98799998
v -1.5784635386052002 -2.910690793140131 2.98799998
v 0.026761859699466983 -1.812072181072994 2.98799998
v -1.351334854638647 -1.550286200832081 2.98799998
v 0.026761859699466983 -1.812072181072994 2.98799998
v -1.5784635386052002 -2.910690793140131 2.98799998
v -0.08043815092294793 -3.045836291186772 2.98799998
v 0.026761859699466983 -1.812072181072994 2.98799998
v -0.08043815092294793 -3.045836291186772 2.98799998
v 0.007917584301459835 -2.944227072639333 2.98799998
v 1.726853796157242 0.02448705822904751 2.98799998
v 1.2822596011101328 0.8770577479445579 2.98799998
v 0.04716546003547048 0.47307809020809544 2.98799998
v 0.04716546003547048 0.47307809020809544 2.98799998
v -0.08888570303713467 -0.20093614605779814 2.98799998
v 0.3420338146022228 -0.7189584360183454 2.98799998
v 0.04716546003547048 0.47307809020809544 2.98799998
v 1.5750252849800206 -0.393103702352922 2.98799998
v 1.726853796157242 0.02448705822904751 2.98799998
v 1.5750252849800206 -0.393103702352922 2.98799998
v 0.04716546003547048 0.47307809020809544 2.98799998
v 0.3420338146022228 -0.7189584360183454 2.98799998
v 0.3420338146022228 -0.7189584360183454 2.98799998
v -0.08888570303713467 -0.20093614605779814 2.98799998
v -1.2166542685805095 -0.4490917912347273 2.98799998
v -1.2166542685805095 -0.4490917912347273 2.98799998
v -1.442523144427269 -1.4082246980868254 2.98799998
v -1.351334854638647 -1.550286200832081 2.98799998
v 0.3420338146022228 -0.7189584360183454 2.98799998
v 0.026761859699466983 -1.812072181072994 2.98799998
v 0.2724378568850109 -1.5758842932959123 2.98799998
v 0.026761859699466983 -1.812072181072994 2.98799998
v 0.3420338146022228 -0.7189584360183454 2.98799998
v -1.2166542685805095 -0.4490917912347273 2.98799998
v 0.026761859699466983 -1.812072181072994 2.98799998
v -1.2166542685805095 -0.4490917912347273 2.98799998
v -1.351334854638647 -1.550286200832081 2.98799998
v 1.9331706297916882 2.7986246470622365 2.98799998
v 1.891604268438401 2.7659909547997383 2.98799998
v 1.8033383439416484 1.5706295931967755 2.98799998
v 1.8033383439416484 1.5706295931967755 2.98799998
v 3.1433470380034807 1.2690202037018936 2.98799998
v 3.149304807736197 2.7603582004453373 2.98799998
v 3.149304807736197 2.7603582004453373 2.98799998
v 1.9331706297916882 2.7986246470622365 2.98799998
v 1.8033383439416484 1.5706295931967755 2.98799998
v 1.726853796157242 0.02448705822904751 2.98799998
v 3.1433470380034807 1.2690202037018936 2.98799998
v 1.8033383439416484 1.5706295931967755 2.98799998
v 1.8033383439416484 1.5706295931967755 2.98799998
v 1.373755341935393 1.240708740973078 2.98799998
v 1.2822596011101328 0.8770577479445579 2.98799998
v 3.1433470380034807 1.2690202037018936 2.98799998
v 1.726853796157242 0.02448705822904751 2.98799998
v 3.1393054776358427 0.2573442221188129 2.98799998
v 1.726853796157242 0.02448705822904751 2.98799998
v 1.8033383439416484 1.5706295931967755 2.98799998
v 1.2822596011101328 0.8770577479445579 2.98799998
v 1.373755341935393 1.240708740973078 2.98799998
v 0.18892329779161732 2.2129705751039896 2.98799998
v -0.455797810970328 1.1717720711152737 2.98799998
v 1.373755341935393 1.240708740973078 2.98799998
v 0.04716546003547048 0.47307809020809544 2.98799998
v 1.2822596011101328 0.8770577479445579 2.98799998
v 0.04716546003547048 0.47307809020809544 2.98799998
v 1.373755341935393 1.240708740973078 2.98799998
v -0.455797810970328 1.1717720711152737 2.98799998
v -2.8844923399999995 -1.3479901805045524 2.98799998
v -1.2166542685805095 -0.4490917912347273 2.98799998
v -1.6591554327900564 0.1113402499125491 2.98799998
v -1.6591554327900564 0.1113402499125491 2.98799998
v -2.8844923399999995 0.05878641392867179 2.98799998
v -2.8844923399999995 -1.3479901805045524 2.98799998
v -1.2166542685805095 -0.4490917912347273 2.98799998
v -2.8844923399999995 -1.3479901805045524 2.98799998
v -1.442523144427269 -1.4082246980868254 2.98799998
v -1.6591554327900564 0.1113402499125491 2.98799998
v 0.04716546003547048 0.47307809020809544 2.98799998
v -0.455797810970328 1.1717720711152737 2.98799998
v -0.455797810970328 1.1717720711152737 2.98799998
v -1.3004639226819492 1.1969324909938401 2.98799998
v -1.6591554327900564 0.1113402499125491 2.98799998
v 0.04716546003547048 0.47307809020809544 2.98799998
v -1.2166542685805095 -0.4490917912347273 2.98799998
v -0.08888570303713467 -0.20093614605779814 2.98799998
v -1.2166542685805095 -0.4490917912347273 2.98799998
v 0.04716546003547048 0.47307809020809544 2.98799998
v -1.6591554327900564 0.1113402499125491 2.98799998
v 2.009130103490809 4.18937762 2.98799998
v 3.149304807736197 2.7603582004453373 2.98799998
v 3.1550136200000014 4.18937762 2.98799998
v 3.149304807736197 2.7603582004453373 2.98799998
v 2.009130103490809 4.18937762 2.98799998
v 1.9331706297916882 2.7986246470622365 2.98799998
v -1.6591554327900564 0.1113402499125491 2.98799998
v -1.3004639226819492 1.1969324909938401 2.98799998
v -1.5611155638120058 1.5172092669368464 2.98799998
v -1.6591554327900564 0.1113402499125491 2.98799998
v -2.8844923399999995 1.5191467993739942 2.98799998
v -2.8844923399999995 0.05878641392867179 2.98799998
v -2.8844923399999995 1.5191467993739942 2.98799998
v -1.6591554327900564 0.1113402499125491 2.98799998
v -1.5611155638120058 1.5172092669368464 2.98799998
v -0.5197094165508583 2.807135927180399 2.98799998
v 0.18892329779161732 2.2129705751039896 2.98799998
v 0.175893941076406 2.338846785262927 2.98799998
v -0.455797810970328 1.1717720711152737 2.98799998
v -1.3867158271809552 2.6340702640694245 2.98799998
v -1.5611155638120058 1.5172092669368464 2.98799998
v -0.455797810970328 1.1717720711152737 2.98799998
v -1.5611155638120058 1.5172092669368464 2.98799998
v -1.3004639226819492 1.1969324909938401 2.98799998
v -0.5197094165508583 2.807135927180399 2.98799998
v -0.455797810970328 1.1717720711152737 2.98799998
v 0.18892329779161732 2.2129705751039896 2.98799998
v -1.3867158271809552 2.6340702640694245 2.98799998
v -0.455797810970328 1.1717720711152737 2.98799998
v -0.5197094165508583 2.807135927180399 2.98799998
v 1.8033383439416484 1.5706295931967755 2.98799998
v 1.891604268438401 2.7659909547997383 2.98799998
v 0.8470243413868657 2.9278862848268967 2.98799998
v 0.8470243413868657 2.9278862848268967 2.98799998
v 0.175893941076406 2.338846785262927 2.98799998
v 0.18892329779161732 2.2129705751039896 2.98799998
v 0.8470243413868657 2.9278862848268967 2.98799998
v 1.373755341935393 1.240708740973078 2.98799998
v 1.8033383439416484 1.5706295931967755 2.98799998
v 1.373755341935393 1.240708740973078 2.98799998
v 0.8470243413868657 2.9278862848268967 2.98799998
v 0.18892329779161732 2.2129705751039896 2.98799998
v 0.8470243413868657 2.9278862848268967 2.98799998
v 1.891604268438401 2.7659909547997383 2.98799998
v 1.9331706297916882 2.7986246470622365 2.98799998
v 0.8470243413868657 2.9278862848268967 2.98799998
v 2.009130103490809 4.18937762 2.98799998
v 0.6451799143600199 4.18937762 2.98799998
v 2.009130103490809 4.18937762 2.98799998
v 0.8470243413868657 2.9278862848268967 2.98799998
v 1.9331706297916882 2.7986246470622365 2.98799998
v -1.7010866645075793 2.9107763833421165 2.98799998
v -1.6375686370205296 4.18937762 2.98799998
v -2.8844923399999995 4.18937762 2.98799998
v -2.8844923399999995 4.18937762 2.98799998
v -2.88449234 2.818258804426465 2.98799998
v -1.7010866645075793 2.9107763833421165 2.98799998
v -1.5611155638120058 1.5172092669368464 2.98799998
v -1.3867158271809552 2.6340702640694245 2.98799998
v -1.7010866645075793 2.9107763833421165 2.98799998
v -1.7010866645075793 2.9107763833421165 2.98799998
v -2.88449234 2.818258804426465 2.98799998
v -2.8844923399999995 1.5191467993739942 2.98799998
v -2.8844923399999995 1.5191467993739942 2.98799998
v -1.5611155638120058 1.5172092669368464 2.98799998
v -1.7010866645075793 2.9107763833421165 2.98799998
v -1.7010866645075793 2.9107763833421165 2.98799998
v -1.3867158271809552 2.6340702640694245 2.98799998
v -0.5197094165508583 2.807135927180399 2.98799998
v -0.5197094165508583 2.807135927180399 2.98799998
v -0.3711623406006226 4.18937762 2.98799998
v -1.6375686370205296 4.18937762 2.98799998
v -1.6375686370205296 4.18937762 2.98799998
v -1.7010866645075793 2.9107763833421165 2.98799998
v -0.5197094165508583 2.807135927180399 2.98799998
v 0.8470243413868657 2.9278862848268967 2.98799998
v 0.6451799143600199 4.18937762 2.98799998
v -0.3711623406006226 4.18937762 2.98799998
v 0.8470243413868657 2.9278862848268967 2.98799998
v -0.5197094165508583 2.807135927180399 2.98799998
v 0.175893941076406 2.338846785262927 2.98799998
v -0.5197094165508583 2.807135927180399 2.98799998
v 0.8470243413868657 2.9278862848268967 2.98799998
v -0.3711623406006226 4.18937762 2.98799998
v 3.15501362 4.18937762 2.98799998
v 3.1511108358894644 3.212439856667804 1.444886518326108
v 3.15501362 4.18937762 1.3456488778379843
v 3.1496717231332143 2.8522037899380814 1.9860362800523381
v 3.15501362 4.18937762 2.98799998
v 3.1505941057669133 3.083092919744296 2.98799998
v 3.1511108358894644 3.212439856667804 1.444886518326108
v 3.15501362 4.18937762 2.98799998
v 3.1496717231332143 2.8522037899380814 1.9860362800523381
v 3.144022431592434 1.4380834886477072 2.9879999800000006
v 3.1496717231332143 2.8522037899380814 1.9860362800523381
v 3.1505941057669133 3.083092919744296 2.98799998
v 3.1496717231332143 2.8522037899380814 1.9860362800523381
v 3.144022431592434 1.4380834886477072 2.9879999800000006
v 3.1451152041946746 1.7116243229926382 1.8791001360538344
v 3.15501362 4.18937762 -4.440892098500626e-16
v 3.1483757755383173 2.527804563924856 0.4582360092289375
v 3.148441039337367 2.5441412784508923 0.0
v 3.1511108358894644 3.212439856667804 1.444886518326108
v 3.15501362 4.18937762 -4.440892098500626e-16
v 3.15501362 4.18937762 1.3456488778379843
v 3.15501362 4.18937762 -4.440892098500626e-16
v 3.1511108358894644 3.212439856667804 1.444886518326108
v 3.1483757755383173 2.527804563924856 0.4582360092289375
v 3.1483757755383173 2.527804563924856 0.4582360092289375
v 3.1451152041946746 1.7116243229926382 1.8791001360538344
v 3.1442000662336738 1.4825486663742016 1.4597906106022105
v 3.1496717231332143 2.8522037899380814 1.9860362800523381
v 3.1483757755383173 2.527804563924856 0.4582360092289375
v 3.1511108358894644 3.212439856667804 1.444886518326108
v 3.1451152041946746 1.7116243229926382 1.8791001360538344
v 3.1483757755383173 2.527804563924856 0.4582360092289375
v 3.1496717231332143 2.8522037899380814 1.9860362800523381
v 3.144022431592434 1.4380834886477072 2.9879999800000006
v 3.139424828321615 0.28721986696854285 2.9879999800000006
v 3.139047118533392 0.19267224525943347 1.643044419640171
v 3.1451152041946746 1.7116243229926382 1.8791001360538344
v 3.1422570259067895 0.9961703740452933 1.2540741368791246
v 3.1442000662336738 1.4825486663742016 1.4597906106022105
v 3.139047118533392 0.19267224525943347 1.643044419640171
v 3.1451152041946746 1.7116243229926382 1.8791001360538344
v 3.144022431592434 1.4380834886477072 2.9879999800000006
v 3.1422570259067895 0.9961703740452933 1.2540741368791246
v 3.1451152041946746 1.7116243229926382 1.8791001360538344
v 3.139047118533392 0.19267224525943347 1.643044419640171
v 3.141635608367176 0.8406182748128086 2.220446049250313e-16
v 3.1442000662336738 1.4825486663742016 1.4597906106022105
v 3.1422570259067895 0.9961703740452933 1.2540741368791246
v 3.1483757755383173 2.527804563924856 0.4582360092289375
v 3.141635608367176 0.8406182748128086 2.220446049250313e-16
v 3.148441039337367 2.5441412784508923 0.0
v 3.1442000662336738 1.4825486663742016 1.4597906106022105
v 3.141635608367176 0.8406182748128086 2.220446049250313e-16
v 3.1483757755383173 2.527804563924856 0.4582360092289375
v 3.1334484886353273 -1.2087665265074288 1.7112435320822592
v 3.1367393090822406 -0.3850143855019664 1.3761843619770766
v 3.139047118533392 0.19267224525943347 1.643044419640171
v 3.139047118533392 0.19267224525943347 1.643044419640171
v 3.139424828321615 0.28721986696854285 2.9879999800000006
v 3.1334658866765404 -1.2044114807279755 2.987999980000001
v 3.1334658866765404 -1.2044114807279755 2.987999980000001
v 3.1334484886353273 -1.2087665265074288 1.7112435320822592
v 3.139047118533392 0.19267224525943347 1.643044419640171
v 3.1422570259067895 0.9961703740452933 1.2540741368791246
v 3.139047118533392 0.19267224525943347 1.643044419640171
v 3.1367393090822406 -0.3850143855019664 1.3761843619770766
v 3.1367393090822406 -0.3850143855019664 1.3761843619770766
v 3.1365065626722513 -0.44327504014216 4.440892098500626e-16
v 3.141635608367176 0.8406182748128086 2.220446049250313e-16
v 3.141635608367176 0.8406182748128086 2.220446049250313e-16
v 3.1422570259067895 0.9961703740452933 1.2540741368791246
v 3.1367393090822406 -0.3850143855019664 1.3761843619770766
v 3.1367393090822406 -0.3850143855019664 1.3761843619770766
v 3.1334484886353273 -1.2087665265074288 1.7112435320822592
v 3.1314464195467546 -1.709920790241057 1.4090297562845815
v 3.1367393090822406 -0.3850143855019664 1.3761843619770766
v 3.1315576823878115 -1.6820696798528396 5.551115123125783e-16
v 3.1365065626722513 -0.44327504014216 4.440892098500626e-16
v 3.1315576823878115 -1.6820696798528396 5.551115123125783e-16
v 3.1367393090822406 -0.3850143855019664 1.3761843619770766
v 3.1314464195467546 -1.709920790241057 1.4090297562845815
v 3.1334658866765404 -1.2044114807279755 2.987999980000001
v 3.1314464195467546 -1.709920790241057 1.4090297562845815
v 3.1334484886353273 -1.2087665265074288 1.7112435320822592
v 3.1314464195467546 -1.709920790241057 1.4090297562845815
v 3.1334658866765404 -1.2044114807279755 2.987999980000001
v 3.127466129162174 -2.7062597819952794 2.9879999800000006
v 3.1314464195467546 -1.709920790241057 1.4090297562845815
v 3.127466129162174 -2.7062597819952794 2.9879999800000006
v 3.1275309747413775 -2.690027755494494 1.6602572474125905
v 3.1314464195467546 -1.709920790241057 1.4090297562845815
v 3.1275309747413775 -2.690027755494494 1.6602572474125905
v 3.126413748808305 -2.969689702781401 1.4503359005236418
v 3.1314464195467546 -1.709920790241057 1.4090297562845815
v 3.1264971531509826 -2.9488120806327225 8.881784197001252e-16
v 3.1315576823878115 -1.6820696798528396 5.551115123125783e-16
v 3.1264971531509826 -2.9488120806327225 8.881784197001252e-16
v 3.1314464195467546 -1.709920790241057 1.4090297562845815
v 3.126413748808305 -2.969689702781401 1.4503359005236418
v 3.126413748808305 -2.969689702781401 1.4503359005236418
v 3.1275309747413775 -2.690027755494494 1.6602572474125905
v 3.127466129162174 -2.7062597819952794 2.9879999800000006
v 3.126413748808305 -2.969689702781401 1.4503359005236418
v 3.12150753 -4.197805399999999 2.9879999800000014
v 3.12150753 -4.1978054 1.565677268381254
v 3.12150753 -4.197805399999999 2.9879999800000014
v 3.126413748808305 -2.969689702781401 1.4503359005236418
v 3.127466129162174 -2.7062597819952794 2.9879999800000006
v 3.126413748808305 -2.969689702781401 1.4503359005236418
v 3.12150753 -4.1978054 1.565677268381254
v 3.12150753 -4.197805399999998 9.926863567420317e-16
v 3.12150753 -4.197805399999998 9.926863567420317e-16
v 3.1264971531509826 -2.9488120806327225 8.881784197001252e-16
v 3.126413748808305 -2.969689702781401 1.4503359005236418
v -2.82349239 4.08237756 0.15
v -2.82349239 4.08237756 0.59500002
v -1.30349243 4.08237756 0.59500002
v -1.30349243 4.08237756 0.59500002
v -1.30349243 4.08237756 0.15
v -2.82349239 4.08237756 0.15
v -0.7634924 4.08237756 0.15
v -0.7634924 4.08237756 0.59500002
v 0.7565076000000001 4.08237756 0.59500002
v 0.7565076000000001 4.08237756 0.59500002
v 0.7565076000000001 4.08237756 0.15
v -0.7634924 4.08237756 0.15
v 1.26650758 4.08237756 0.15
v 1.26650758 4.08237756 0.59500002
v 2.78650763 4.08237756 0.59500002
v 2.78650763 4.08237756 0.59500002
v 2.78650763 4.08237756 0.15
v 1.26650758 4.08237756 0.15

usemtl Patch_1_Mat_CR2_concrete
f 3 2 1
f 6 5 4

usemtl Patch_2_Mat_CR2_windows
f 9 8 7
f 12 11 10

usemtl Patch_3_Mat_CR2_windows
f 15 14 13
f 18 17 16

usemtl Patch_4_Mat_CR2_windows
f 21 20 19
f 24 23 22

usemtl Patch_5_Mat_CR2_windows
f 27 26 25
f 30 29 28

usemtl Patch_6_Mat_CR2_windows
f 33 32 31
f 36 35 34

usemtl Patch_7_Mat_CR2_windows
f 39 38 37
f 42 41 40

usemtl Patch_8_Mat_CR2_concrete
f 45 44 43
f 48 47 46

usemtl Patch_9_Mat_CR2_concrete
f 51 50 49
f 54 53 52

usemtl Patch_10_Mat_CR2_concrete
f 57 56 55
f 60 59 58

usemtl Patch_11_Mat_CR2_concrete
f 63 62 61
f 66 65 64

usemtl Patch_12_Mat_CR2_concrete
f 69 68 67
f 72 71 70

usemtl Patch_13_Mat_CR2_concrete
f 75 74 73
f 78 77 76
f 81 80 79
f 84 83 82

usemtl Patch_14_Mat_CR2_concrete
f 87 86 85
f 90 89 88
f 93 92 91
f 96 95 94
f 99 98 97
f 102 101 100

usemtl Patch_15_Mat_CR2_concrete
f 105 104 103
f 108 107 106
f 111 110 109
f 114 113 112
f 117 116 115
f 120 119 118
f 123 122 121
f 126 125 124

usemtl Patch_16_Mat_CR2_concrete
f 129 128 127
f 132 131 130
f 135 134 133
f 138 137 136
f 141 140 139
f 144 143 142

usemtl Patch_17_Mat_CR2_concrete
f 147 146 145
f 150 149 148
f 153 152 151
f 156 155 154
f 159 158 157

usemtl Patch_18_Mat_CR2_floor
f 162 161 160
f 165 164 163
f 168 167 166
f 171 170 169
f 174 173 172

usemtl Patch_19_Mat_CR2_floor
f 177 176 175
f 180 179 178
f 183 182 181

usemtl Patch_20_Mat_CR2_floor
f 186 185 184
f 189 188 187
f 192 191 190

usemtl Patch_21_Mat_CR2_floor
f 195 194 193
f 198 197 196
f 201 200 199

usemtl Patch_22_Mat_CR2_floor
f 204 203 202
f 207 206 205
f 210 209 208
f 213 212 211

usemtl Patch_23_Mat_CR2_floor
f 216 215 214
f 219 218 217
f 222 221 220
f 225 224 223

usemtl Patch_24_Mat_CR2_floor
f 228 227 226
f 231 230 229

usemtl Patch_25_Mat_CR2_floor
f 234 233 232
f 237 236 235
f 240 239 238
f 243 242 241

usemtl Patch_26_Mat_CR2_floor
f 246 245 244
f 249 248 247
f 252 251 250

usemtl Patch_27_Mat_CR2_floor
f 255 254 253
f 258 257 256
f 261 260 259
f 264 263 262

usemtl Patch_28_Mat_CR2_floor
f 267 266 265
f 270 269 268
f 273 272 271
f 276 275 274

usemtl Patch_29_Mat_CR2_floor
f 279 278 277
f 282 281 280
f 285 284 283

usemtl Patch_30_Mat_CR2_floor
f 288 287 286
f 291 290 289
f 294 293 292

usemtl Patch_31_Mat_CR2_floor
f 297 296 295
f 300 299 298
f 303 302 301
f 306 305 304

usemtl Patch_32_Mat_CR2_floor
f 309 308 307
f 312 311 310
f 315 314 313

usemtl Patch_33_Mat_CR2_floor
f 318 317 316
f 321 320 319
f 324 323 322
f 327 326 325

usemtl Patch_34_Mat_CR2_floor
f 330 329 328
f 333 332 331
f 336 335 334
f 339 338 337

usemtl Patch_35_Mat_CR2_floor
f 342 341 340
f 345 344 343
f 348 347 346

usemtl Patch_36_Mat_CR2_floor
f 351 350 349
f 354 353 352
f 357 356 355

usemtl Patch_37_Mat_CR2_floor
f 360 359 358
f 363 362 361
f 366 365 364
f 369 368 367

usemtl Patch_38_Mat_CR2_floor
f 372 371 370
f 375 374 373
f 378 377 376

usemtl Patch_39_Mat_CR2_floor
f 381 380 379
f 384 383 382
f 387 386 385

usemtl Patch_40_Mat_CR2_floor
f 390 389 388
f 393 392 391
f 396 395 394

usemtl Patch_41_Mat_CR2_floor
f 399 398 397
f 402 401 400

usemtl Patch_42_Mat_CR2_floor
f 405 404 403
f 408 407 406
f 411 410 409
f 414 413 412

usemtl Patch_43_Mat_CR2_plaster
f 417 416 415
f 420 419 418

usemtl Patch_44_Mat_CR2_plaster
f 423 422 421
f 426 425 424
f 429 428 427
f 432 431 430

usemtl Patch_45_Mat_CR2_plaster
f 435 434 433
f 438 437 436
f 441 440 439

usemtl Patch_46_Mat_CR2_plaster
f 444 443 442
f 447 446 445
f 450 449 448

usemtl Patch_47_Mat_CR2_plaster
f 453 452 451
f 456 455 454

usemtl Patch_48_Mat_CR2_plaster
f 459 458 457
f 462 461 460
f 465 464 463

usemtl Patch_49_Mat_CR2_plaster
f 468 467 466
f 471 470 469
f 474 473 472

usemtl Patch_50_Mat_CR2_plaster
f 477 476 475
f 480 479 478
f 483 482 481

usemtl Patch_51_Mat_CR2_plaster
f 486 485 484
f 489 488 487
f 492 491 490

usemtl Patch_52_Mat_CR2_plaster
f 495 494 493
f 498 497 496

usemtl Patch_53_Mat_CR2_plaster
f 501 500 499
f 504 503 502
f 507 506 505
f 510 509 508

usemtl Patch_54_Mat_CR2_plaster
f 513 512 511
f 516 515 514

usemtl Patch_55_Mat_CR2_plaster
f 519 518 517
f 522 521 520

usemtl Patch_56_Mat_CR2_plaster
f 525 524 523
f 528 527 526
f 531 530 529

usemtl Patch_57_Mat_CR2_plaster
f 534 533 532
f 537 536 535
f 540 539 538

usemtl Patch_58_Mat_CR2_plaster
f 543 542 541
f 546 545 544
f 549 548 547

usemtl Patch_59_Mat_CR2_plaster
f 552 551 550
f 555 554 553
f 558 557 556

usemtl Patch_60_Mat_CR2_plaster
f 561 560 559
f 564 563 562
f 567 566 565

usemtl Patch_61_Mat_CR2_plaster
f 570 569 568
f 573 572 571
f 576 575 574

usemtl Patch_62_Mat_CR2_plaster
f 579 578 577
f 582 581 580
f 585 584 583

usemtl Patch_63_Mat_CR2_plaster
f 588 587 586
f 591 590 589
f 594 593 592

usemtl Patch_64_Mat_CR2_ceiling
f 597 596 595
f 600 599 598
f 603 602 601

usemtl Patch_65_Mat_CR2_ceiling
f 606 605 604
f 609 608 607
f 612 611 610

usemtl Patch_66_Mat_CR2_ceiling
f 615 614 613
f 618 617 616
f 621 620 619

usemtl Patch_67_Mat_CR2_ceiling
f 624 623 622
f 627 626 625
f 630 629 628
f 633 632 631

usemtl Patch_68_Mat_CR2_ceiling
f 636 635 634
f 639 638 637
f 642 641 640

usemtl Patch_69_Mat_CR2_ceiling
f 645 644 643
f 648 647 646
f 651 650 649
f 654 653 652
f 657 656 655

usemtl Patch_70_Mat_CR2_ceiling
f 660 659 658
f 663 662 661
f 666 665 664

usemtl Patch_71_Mat_CR2_ceiling
f 669 668 667
f 672 671 670
f 675 674 673

usemtl Patch_72_Mat_CR2_ceiling
f 678 677 676
f 681 680 679
f 684 683 682

usemtl Patch_73_Mat_CR2_ceiling
f 687 686 685
f 690 689 688
f 693 692 691
f 696 695 694

usemtl Patch_74_Mat_CR2_ceiling
f 699 698 697
f 702 701 700
f 705 704 703
f 708 707 706
f 711 710 709

usemtl Patch_75_Mat_CR2_ceiling
f 714 713 712
f 717 716 715
f 720 719 718

usemtl Patch_76_Mat_CR2_ceiling
f 723 722 721
f 726 725 724
f 729 728 727
f 732 731 730

usemtl Patch_77_Mat_CR2_ceiling
f 735 734 733
f 738 737 736
f 741 740 739

usemtl Patch_78_Mat_CR2_ceiling
f 744 743 742
f 747 746 745
f 750 749 748

usemtl Patch_79_Mat_CR2_ceiling
f 753 752 751
f 756 755 754
f 759 758 757
f 762 761 760

usemtl Patch_80_Mat_CR2_ceiling
f 765 764 763
f 768 767 766

usemtl Patch_81_Mat_CR2_ceiling
f 771 770 769
f 774 773 772
f 777 776 775

usemtl Patch_82_Mat_CR2_ceiling
f 780 779 778
f 783 782 781
f 786 785 784
f 789 788 787
f 792 791 790

usemtl Patch_83_Mat_CR2_ceiling
f 795 794 793
f 798 797 796
f 801 800 799
f 804 803 802

usemtl Patch_84_Mat_CR2_ceiling
f 807 806 805
f 810 809 808
f 813 812 811

usemtl Patch_85_Mat_CR2_ceiling
f 816 815 814
f 819 818 817

usemtl Patch_86_Mat_CR2_ceiling
f 822 821 820
f 825 824 823
f 828 827 826

usemtl Patch_87_Mat_CR2_ceiling
f 831 830 829
f 834 833 832
f 837 836 835

usemtl Patch_88_Mat_CR2_ceiling
f 840 839 838
f 843 842 841
f 846 845 844

usemtl Patch_89_Mat_CR2_concrete
f 849 848 847
f 852 851 850
f 855 854 853

usemtl Patch_90_Mat_CR2_concrete
f 858 857 856
f 861 860 859

usemtl Patch_91_Mat_CR2_concrete
f 864 863 862
f 867 866 865
f 870 869 868

usemtl Patch_92_Mat_CR2_concrete
f 873 872 871
f 876 875 874
f 879 878 877

usemtl Patch_93_Mat_CR2_concrete
f 882 881 880
f 885 884 883
f 888 887 886
f 891 890 889

usemtl Patch_94_Mat_CR2_concrete
f 894 893 892
f 897 896 895
f 900 899 898

usemtl Patch_95_Mat_CR2_concrete
f 903 902 901
f 906 905 904
f 909 908 907

usemtl Patch_96_Mat_CR2_concrete
f 912 911 910
f 915 914 913
f 918 917 916

usemtl Patch_97_Mat_CR2_concrete
f 921 920 919
f 924 923 922
f 927 926 925

usemtl Patch_98_Mat_CR2_concrete
f 930 929 928
f 933 932 931
f 936 935 934

usemtl Patch_99_Mat_CR2_concrete
f 939 938 937
f 942 941 940
f 945 944 943

usemtl Patch_100_Mat_CR2_concrete
f 948 947 946
f 951 950 949
f 954 953 952

usemtl Patch_101_Mat_CR2_concrete
f 957 956 955
f 960 959 958

usemtl Patch_102_Mat_CR2_concrete
f 963 962 961
f 966 965 964

usemtl Patch_103_Mat_CR2_concrete
f 969 968 967
f 972 971 970

usemtl Patch_104_Mat_CR2_concrete
f 975 974 973
f 978 977 976

