mtllib mesh.mtl

v -1.30349243 4.08237756 0.1500000000000001
v -2.82349239 4.08237756 0.59500002
v -2.82349239 4.08237756 0.1499999999999999
v -2.82349239 4.08237756 0.59500002
v -1.30349243 4.08237756 0.1500000000000001
v -1.30349243 4.08237756 0.5950000200000001
v 1.2605076500000005 4.18937762 2.5680000399999994
v 2.80350756 4.18937762 0.45
v 1.2605076499999999 4.18937762 0.44999999999999984
v 2.80350756 4.18937762 0.45
v 1.2605076500000005 4.18937762 2.5680000399999994
v 2.8035075600000003 4.18937762 2.5680000399999994
v 2.4885076 -3.69462216 2.941836062697082e-18
v 3.09350769 -3.69462216 2.98799998
v 3.09350769 -3.69462216 -4.85722573273506e-16
v 3.09350769 -3.69462216 2.98799998
v 2.4885076 -3.69462216 2.941836062697082e-18
v 2.4885076 -3.69462216 2.98799998
v 2.51850751 -1.69462234 1.5006094182467065
v 2.51850751 -1.69462234 2.98799998
v 2.4885076 -3.6946221600000007 2.98799998
v 2.4885076 -3.6946221600000007 2.98799998
v 2.4885075999999997 -3.69462216 1.5003271548044128
v 2.51850751 -1.69462234 1.5006094182467065
v 2.4885075999999997 -3.69462216 1.5003271548044128
v 2.4885076 -3.69462216 -5.988283305119281e-16
v 2.51850751 -1.6946223400000004 -5.551115123125783e-16
v 2.51850751 -1.6946223400000004 -5.551115123125783e-16
v 2.51850751 -1.69462234 1.5006094182467065
v 2.4885075999999997 -3.69462216 1.5003271548044128
v 3.13150769 -1.69462234 2.080182847191878e-19
v 2.51850751 -1.69462234 2.98799998
v 2.51850751 -1.69462234 1.3877787807814457e-17
v 2.51850751 -1.69462234 2.98799998
v 3.13150769 -1.69462234 2.080182847191878e-19
v 3.1315076900000003 -1.69462234 2.98799998
v 0.6820130704061167 -4.25462209 1.577837377634938
v 0.6763987140049028 -4.25462209 2.98799998
v -1.61649242 -4.25462209 2.98799998
v -1.61649242 -4.25462209 2.98799998
v -1.6164924199999997 -4.25462209 1.397568550946617
v 0.6820130704061167 -4.25462209 1.577837377634938
v 0.6820130704061167 -4.25462209 1.577837377634938
v 0.7948082330972336 -4.25462209 1.40973254167475
v 3.09350769 -4.25462209 1.5951479073009096
v 3.09350769 -4.25462209 1.5951479073009096
v 3.09350769 -4.25462209 2.98799998
v 0.6763987140049028 -4.25462209 2.98799998
v 0.6763987140049028 -4.25462209 2.98799998
v 0.6820130704061167 -4.25462209 1.577837377634938
v 3.09350769 -4.25462209 1.5951479073009096
v 0.7948082330972336 -4.25462209 1.40973254167475
v 0.6820130704061167 -4.25462209 1.577837377634938
v -1.6164924199999997 -4.25462209 1.397568550946617
v -1.6164924199999997 -4.25462209 1.397568550946617
v -1.6164924199999997 -4.25462209 0.0
v 0.8012878928244214 -4.25462209 0.0
v 0.8012878928244214 -4.25462209 0.0
v 0.7948082330972336 -4.25462209 1.40973254167475
v -1.6164924199999997 -4.25462209 1.397568550946617
v 0.7948082330972336 -4.25462209 1.40973254167475
v 0.8012878928244214 -4.25462209 0.0
v 3.09350769 -4.25462209 -1.211694571856412e-16
v 3.09350769 -4.25462209 -1.211694571856412e-16
v 3.09350769 -4.25462209 1.5951479073009096
v 0.7948082330972336 -4.25462209 1.40973254167475
v -0.7694923699999996 4.18937762 0.45000000000000057
v 0.75750759 4.18937762 2.56800004
v 0.7575075900000002 4.18937762 0.45000000000000007
v 0.75750759 4.18937762 2.56800004
v -0.7694923699999996 4.18937762 0.45000000000000057
v -0.7694923699999999 4.18937762 2.56800004
v -2.88449234 4.18937762 0.4500000000000002
v -1.29749241 4.18937762 2.56800004
v -1.2974924100000003 4.18937762 0.45000000000000007
v -1.29749241 4.18937762 2.56800004
v -2.88449234 4.18937762 0.4500000000000002
v -2.88449234 4.18937762 2.56800004
v -1.61649242 -2.8906222 1.4935405392601693
v -1.61649242 -2.8906222 0.0
v -1.61649242 -4.25462209 1.1102230246251565e-16
v -1.61649242 -4.25462209 1.1102230246251565e-16
v -1.61649242 -4.25462209 1.4995330843460524
v -1.61649242 -2.8906222 1.4935405392601693
v -1.61649242 -4.25462209 1.4995330843460524
v -1.61649242 -4.25462209 2.98799998
v -1.61649242 -2.8906222000000006 2.98799998
v -1.61649242 -2.8906222000000006 2.98799998
v -1.61649242 -2.8906222 1.4935405392601693
v -1.61649242 -4.25462209 1.4995330843460524
v 0.7565076000000001 4.08237756 0.15000000000000002
v -0.7634924 4.08237756 0.59500002
v -0.7634924 4.08237756 0.14999999999999997
v -0.7634924 4.08237756 0.59500002
v 0.7565076000000001 4.08237756 0.15000000000000002
v 0.7565076000000001 4.08237756 0.5950000200000001
v 2.78650763 4.08237756 0.15000000000000008
v 1.26650758 4.08237756 0.59500002
v 1.2665075800000003 4.08237756 0.15000000000000008
v 1.26650758 4.08237756 0.59500002
v 2.78650763 4.08237756 0.15000000000000008
v 2.78650763 4.08237756 0.59500002
v 3.09350769 -4.25462209 4.4288603814401584e-16
v 3.09350769 -3.69462216 2.98799998
v 3.09350769 -4.25462209 2.98799998
v 3.09350769 -3.69462216 2.98799998
v 3.09350769 -4.25462209 4.4288603814401584e-16
v 3.09350769 -3.6946221599999998 4.579669976578771e-16
v 0.7575075900000003 4.18937762 2.56800004
v 1.260507650000001 4.18937762 1.4933228390738165
v 0.7575075900000005 4.18937762 1.4842659680213834
v 0.7575075900000003 4.18937762 2.56800004
v -0.07180246416674418 4.18937762 2.56800004
v -0.21795855044850176 4.18937762 2.9879999800000006
v 2.80350756 4.18937762 2.56800004
v 3.15501362 4.18937762 1.5274347560353267
v 2.80350756 4.18937762 1.5211056413637125
v 1.260507650000001 4.18937762 1.4933228390738165
v 0.7575075900000003 4.18937762 2.56800004
v 1.2605076500000003 4.18937762 2.56800004
v 1.2605076500000003 4.18937762 2.56800004
v -0.21795855044850176 4.18937762 2.9879999800000006
v 3.15501362 4.18937762 2.98799998
v 3.15501362 4.18937762 1.5274347560353267
v 2.80350756 4.18937762 2.56800004
v 3.15501362 4.18937762 2.98799998
v -0.21795855044850176 4.18937762 2.9879999800000006
v 1.2605076500000003 4.18937762 2.56800004
v 0.7575075900000003 4.18937762 2.56800004
v 3.15501362 4.18937762 2.98799998
v 2.80350756 4.18937762 2.56800004
v 1.2605076500000003 4.18937762 2.56800004
v -0.7694923699999997 4.18937762 2.5680000400000003
v -0.7694923699999996 4.18937762 0.4500000000000006
v -1.2974924099999996 4.18937762 0.45000000000000057
v -1.2974924099999994 4.18937762 2.5680000400000003
v -2.8844923399999987 4.18937762 2.5680000400000007
v -2.884492339999999 4.18937762 2.9879999800000006
v -0.7694923699999997 4.18937762 2.5680000400000003
v -0.21795855044850176 4.18937762 2.9879999800000006
v -0.07180246416674418 4.18937762 2.56800004
v -0.7694923699999997 4.18937762 2.5680000400000003
v -1.2974924099999996 4.18937762 0.45000000000000057
v -1.2974924099999994 4.18937762 2.5680000400000003
v -1.2974924099999994 4.18937762 2.5680000400000003
v -0.21795855044850176 4.18937762 2.9879999800000006
v -0.7694923699999997 4.18937762 2.5680000400000003
v -0.21795855044850176 4.18937762 2.9879999800000006
v -1.2974924099999994 4.18937762 2.5680000400000003
v -2.884492339999999 4.18937762 2.9879999800000006
v -1.2974924099999996 4.18937762 0.45000000000000057
v -2.8844923399999987 4.18937762 5.868309054229044e-16
v -2.884492339999998 4.18937762 0.45000000000000073
v -0.1784320262750393 4.18937762 4.440892098500626e-16
v -1.2974924099999996 4.18937762 0.45000000000000057
v -0.03010367704275224 4.18937762 0.4500000000000004
v -2.8844923399999987 4.18937762 5.868309054229044e-16
v -1.2974924099999996 4.18937762 0.45000000000000057
v -0.1784320262750393 4.18937762 4.440892098500626e-16
v 1.2605076500000005 4.18937762 0.4500000000000004
v 0.7575075900000005 4.18937762 1.4842659680213834
v 1.260507650000001 4.18937762 1.4933228390738165
v 2.8035075600000003 4.18937762 0.4500000000000002
v 2.80350756 4.18937762 1.5211056413637125
v 3.15501362 4.18937762 1.5274347560353267
v 0.7575075900000002 4.18937762 0.4500000000000002
v -0.1784320262750393 4.18937762 4.440892098500626e-16
v -0.03010367704275224 4.18937762 0.4500000000000004
v 0.7575075900000005 4.18937762 1.4842659680213834
v 1.2605076500000005 4.18937762 0.4500000000000004
v 0.7575075900000002 4.18937762 0.4500000000000002
v 2.8035075600000003 4.18937762 0.4500000000000002
v 3.15501362 4.18937762 1.5274347560353267
v 3.1550136200000005 4.18937762 0.0
v 1.2605076500000005 4.18937762 0.4500000000000004
v -0.1784320262750393 4.18937762 4.440892098500626e-16
v 0.7575075900000002 4.18937762 0.4500000000000002
v 3.1550136200000005 4.18937762 0.0
v 1.2605076500000005 4.18937762 0.4500000000000004
v 2.8035075600000003 4.18937762 0.4500000000000002
v -0.1784320262750393 4.18937762 4.440892098500626e-16
v 1.2605076500000005 4.18937762 0.4500000000000004
v 3.1550136200000005 4.18937762 0.0
v -1.8838223699197878 -0.41207423837640356 0.0
v -0.9015986374743163 -2.063145485566902 0.0
v -1.714739391469635 -2.8906222 0.0
v -1.8838223699197878 -0.41207423837640356 0.0
v -2.88449234 -2.8906222 0.0
v -2.88449234 -0.332085445729426 0.0
v -2.88449234 -2.8906222 0.0
v -1.8838223699197878 -0.41207423837640356 0.0
v -1.714739391469635 -2.8906222 0.0
v -1.61649242 -2.8906222 0.0
v -0.22967151381010653 -2.027675173083746 0.0
v 0.635937088575142 -2.879614599685576 0.0
v -1.61649242 -2.8906222 0.0
v 0.5448205707656628 -4.25462209 0.0
v -1.6164924200000002 -4.25462209 0.0
v -1.61649242 -2.8906222 0.0
v -1.714739391469635 -2.8906222 0.0
v -0.9015986374743163 -2.063145485566902 0.0
v 0.5448205707656628 -4.25462209 0.0
v -1.61649242 -2.8906222 0.0
v 0.635937088575142 -2.879614599685576 0.0
v -0.22967151381010653 -2.027675173083746 0.0
v -1.61649242 -2.8906222 0.0
v -0.9015986374743163 -2.063145485566902 0.0
v -0.9015986374743163 -2.063145485566902 0.0
v -1.8838223699197878 -0.41207423837640356 0.0
v -0.8156676799196398 0.3636318722002079 0.0
v -0.8156676799196398 0.3636318722002079 0.0
v 0.6253463665641313 -0.44593655215796046 0.0
v -0.22967151381010653 -2.027675173083746 0.0
v -0.22967151381010653 -2.027675173083746 0.0
v -0.9015986374743163 -2.063145485566902 0.0
v -0.8156676799196398 0.3636318722002079 0.0
v 0.635937088575142 -2.879614599685576 0.0
v 0.6253463665641313 -0.44593655215796046 0.0
v 0.9078947085959993 -0.3679731613312493 0.0
v 0.9078947085959993 -0.3679731613312493 0.0
v 2.511619367435844 -2.0701020263899608 0.0
v 0.635937088575142 -2.879614599685576 0.0
v 0.6253463665641313 -0.44593655215796046 0.0
v 0.635937088575142 -2.879614599685576 0.0
v -0.22967151381010653 -2.027675173083746 0.0
v 2.488507600000001 -3.6946221600000007 0.0
v 2.511619367435844 -2.0701020263899608 0.0
v 2.5128719044894257 -2.070330467349108 0.0
v 2.488507600000001 -3.6946221600000007 0.0
v 3.0935076900000014 -3.694622160000001 0.0
v 3.093507690000001 -4.254622090000001 0.0
v 2.488507600000001 -3.6946221600000007 0.0
v 0.5448205707656628 -4.25462209 0.0
v 0.635937088575142 -2.879614599685576 0.0
v 2.511619367435844 -2.0701020263899608 0.0
v 2.488507600000001 -3.6946221600000007 0.0
v 0.635937088575142 -2.879614599685576 0.0
v 0.5448205707656628 -4.25462209 0.0
v 2.488507600000001 -3.6946221600000007 0.0
v 3.093507690000001 -4.254622090000001 0.0
v -0.9955104006841278 2.0111124735064507 0.0
v -0.7792677123972567 1.8165177615841306 0.0
v -0.8156676799196398 0.3636318722002079 0.0
v -2.8844923400000004 1.9884081116370198 0.0
v -1.8838223699197878 -0.41207423837640356 0.0
v -2.88449234 -0.332085445729426 0.0
v -0.8156676799196398 0.3636318722002079 0.0
v -2.8844923400000004 1.9884081116370198 0.0
v -0.9955104006841278 2.0111124735064507 0.0
v -2.8844923400000004 1.9884081116370198 0.0
v -0.8156676799196398 0.3636318722002079 0.0
v -1.8838223699197878 -0.41207423837640356 0.0
v 0.9124254763770412 2.0279848693695035 0.0
v -0.8156676799196398 0.3636318722002079 0.0
v -0.7792677123972567 1.8165177615841306 0.0
v -0.8156676799196398 0.3636318722002079 0.0
v 0.9124254763770412 2.0279848693695035 0.0
v 1.4724739335494692 0.43380211832631166 0.0
v 1.4724739335494692 0.43380211832631166 0.0
v 0.9078947085959993 -0.3679731613312493 0.0
v 0.6253463665641313 -0.44593655215796046 0.0
v -0.8156676799196398 0.3636318722002079 0.0
v 1.4724739335494692 0.43380211832631166 0.0
v 0.6253463665641313 -0.44593655215796046 0.0
v 2.518507510000001 -1.6946223400000007 0.0
v 0.9078947085959993 -0.3679731613312493 0.0
v 1.4724739335494692 0.43380211832631166 0.0
v 2.518507510000001 -1.6946223400000007 0.0
v 3.1403836795444415 0.5272136870984483 0.0
v 3.1315076900000003 -1.6946223400000011 0.0
v 2.518507510000001 -1.6946223400000007 0.0
v 2.5128719044894257 -2.070330467349108 0.0
v 2.511619367435844 -2.0701020263899608 0.0
v 3.1403836795444415 0.5272136870984483 0.0
v 2.518507510000001 -1.6946223400000007 0.0
v 1.4724739335494692 0.43380211832631166 0.0
v 0.9078947085959993 -0.3679731613312493 0.0
v 2.518507510000001 -1.6946223400000007 0.0
v 2.511619367435844 -2.0701020263899608 0.0
v -0.9955104006841278 2.0111124735064507 0.0
v -2.8844923400000004 1.9884081116370198 0.0
v -2.8844923400000013 4.18937762 0.0
v -2.8844923400000013 4.18937762 0.0
v -0.9077931996146293 4.18937762 0.0
v -0.9955104006841278 2.0111124735064507 0.0
v 1.4724739335494692 0.43380211832631166 0.0
v 0.9124254763770412 2.0279848693695035 0.0
v 1.1646760873433646 2.375422924058471 0.0
v 1.4724739335494692 0.43380211832631166 0.0
v 3.1480134384754206 2.4370935023064515 0.0
v 3.1403836795444415 0.5272136870984483 0.0
v 3.1480134384754206 2.4370935023064515 0.0
v 1.4724739335494692 0.43380211832631166 0.0
v 1.1646760873433646 2.375422924058471 0.0
v -0.9955104006841278 2.0111124735064507 0.0
v 0.9124254763770412 2.0279848693695035 0.0
v -0.7792677123972567 1.8165177615841306 0.0
v 1.1646760873433646 2.375422924058471 0.0
v -0.9955104006841278 2.0111124735064507 0.0
v -0.9077931996146293 4.18937762 0.0
v -0.9077931996146293 4.18937762 0.0
v 0.9058261454470142 4.18937762 0.0
v 1.1646760873433646 2.375422924058471 0.0
v 0.9124254763770412 2.0279848693695035 0.0
v -0.9955104006841278 2.0111124735064507 0.0
v 1.1646760873433646 2.375422924058471 0.0
v 1.1646760873433646 2.375422924058471 0.0
v 0.9058261454470142 4.18937762 0.0
v 3.1550136199999996 4.189377619999999 0.0
v 3.1550136199999996 4.189377619999999 0.0
v 3.1480134384754206 2.4370935023064515 0.0
v 1.1646760873433646 2.375422924058471 0.0
v 3.1477201367841423 2.3636742783169464 1.5051621888970335
v 3.15501362 4.18937762 1.5096736643932807
v 3.15501362 4.18937762 2.98799998
v 3.15501362 4.18937762 2.98799998
v 3.145086683025257 1.7044686305529855 2.9879999800000006
v 3.1477201367841423 2.3636742783169464 1.5051621888970335
v 3.145086683025257 1.7044686305529855 2.9879999800000006
v 3.141495089382627 0.805421587974002 2.9879999800000006
v 3.138995161497094 0.17964011161973262 1.5029774159629368
v 3.138995161497094 0.17964011161973262 1.5029774159629368
v 3.1414520556023935 0.7946493802302157 -4.440892098500626e-16
v 3.1452339024053924 1.7413205579955116 -2.220446049250313e-16
v 3.138995161497094 0.17964011161973262 1.5029774159629368
v 3.1477201367841423 2.3636742783169464 1.5051621888970335
v 3.145086683025257 1.7044686305529855 2.9879999800000006
v 3.1477201367841423 2.3636742783169464 1.5051621888970335
v 3.138995161497094 0.17964011161973262 1.5029774159629368
v 3.1452339024053924 1.7413205579955116 -2.220446049250313e-16
v 3.1477201367841423 2.3636742783169464 1.5051621888970335
v 3.1452339024053924 1.7413205579955116 -2.220446049250313e-16
v 3.1550136199999996 4.18937762 -4.440892098500626e-16
v 3.1550136199999996 4.18937762 -4.440892098500626e-16
v 3.15501362 4.18937762 1.5096736643932807
v 3.1477201367841423 2.3636742783169464 1.5051621888970335
v 3.138995161497094 0.17964011161973262 1.5029774159629368
v 3.141495089382627 0.805421587974002 2.9879999800000006
v 3.1315076900000003 -1.6946223400000007 2.98799998
v 3.1315076900000003 -1.6946223400000007 2.98799998
v 3.1315076900000003 -1.6946223400000002 1.4820756865812326
v 3.138995161497094 0.17964011161973262 1.5029774159629368
v 3.138995161497094 0.17964011161973262 1.5029774159629368
v 3.1315076900000003 -1.6946223400000002 1.4820756865812326
v 3.13150769 -1.6946223400000004 1.263689567488435e-16
v 3.13150769 -1.6946223400000004 1.263689567488435e-16
v 3.1414520556023935 0.7946493802302157 -4.440892098500626e-16
v 3.138995161497094 0.17964011161973262 1.5029774159629368
v -2.88449234 2.12708098346285 1.2919442985604617
v -2.88449234 4.18937762 1.8678980513226635
v -2.88449234 4.18937762 0.0
v -2.88449234 4.18937762 0.0
v -2.88449234 2.1297763543339694 0.0
v -2.88449234 2.12708098346285 1.2919442985604617
v -2.88449234 -0.2587406494334533 0.984354027273785
v -2.88449234 1.5337681062257214 2.002507474539991
v -2.88449234 2.12708098346285 1.2919442985604617
v -2.88449234 -0.2587406494334533 0.984354027273785
v -2.88449234 2.1297763543339694 0.0
v -2.88449234 -0.22289122455607657 0.0
v -2.88449234 2.1297763543339694 0.0
v -2.88449234 -0.2587406494334533 0.984354027273785
v -2.88449234 2.12708098346285 1.2919442985604617
v -2.88449234 4.18937762 2.98799998
v -2.88449234 1.5337681062257214 2.002507474539991
v -2.88449234 1.499658445464485 2.98799998
v -2.88449234 2.12708098346285 1.2919442985604617
v -2.88449234 4.18937762 2.98799998
v -2.88449234 4.18937762 1.8678980513226635
v -2.88449234 4.18937762 2.98799998
v -2.88449234 2.12708098346285 1.2919442985604617
v -2.88449234 1.5337681062257214 2.002507474539991
v -2.88449234 -2.8906222000000006 -4.440892098500626e-16
v -2.88449234 -0.2587406494334533 0.984354027273785
v -2.88449234 -0.22289122455607657 0.0
v -2.88449234 -0.844087446497592 1.6830504454162738
v -2.88449234 -2.8906222000000006 -4.440892098500626e-16
v -2.88449234 -2.8906222 1.1403887832251824
v -2.88449234 -2.8906222000000006 -4.440892098500626e-16
v -2.88449234 -0.844087446497592 1.6830504454162738
v -2.88449234 -0.2587406494334533 0.984354027273785
v -2.88449234 1.5337681062257214 2.002507474539991
v -2.88449234 -0.2587406494334533 0.984354027273785
v -2.88449234 -0.844087446497592 1.6830504454162738
v -2.88449234 1.5337681062257214 2.002507474539991
v -2.88449234 -0.8429086169584503 2.98799998
v -2.88449234 1.499658445464485 2.98799998
v -2.88449234 -0.8429086169584503 2.98799998
v -2.88449234 1.5337681062257214 2.002507474539991
v -2.88449234 -0.844087446497592 1.6830504454162738
v -2.88449234 -0.844087446497592 1.6830504454162738
v -2.88449234 -2.8906222 1.1403887832251824
v -2.88449234 -2.8906222 2.9879589
v -2.88449234 -2.8906222 2.9879589
v -2.88449234 -2.8906221999999997 2.9879999799999997
v -2.88449234 -0.8429086169584503 2.98799998
v -2.88449234 -0.8429086169584503 2.98799998
v -2.88449234 -0.844087446497592 1.6830504454162738
v -2.88449234 -2.8906222 2.9879589
v -1.6164924199999997 -2.8906222 -4.0432483498577156e-16
v -2.88449234 -2.8906222 2.9879589
v -2.88449234 -2.8906222 -3.885780586188048e-16
v -2.88449234 -2.8906222 2.9879589
v -1.6164924199999997 -2.8906222 -4.0432483498577156e-16
v -1.61649242 -2.8906222 2.98799998
v -1.61649242 -2.8906222 2.98799998
v -2.88449234 -2.8906222 2.98799998
v -2.8844923400000004 -2.8906222 2.9879589
v 2.4885076 -3.69462216 2.98799998
v 0.5566830157966745 -2.5120552841410655 2.98799998
v 0.6307279621836235 -4.25462209 2.98799998
v 2.4885076 -3.69462216 2.98799998
v 3.09350769 -4.25462209 2.98799998
v 3.09350769 -3.69462216 2.98799998
v 2.4885076 -3.69462216 2.98799998
v 2.510669629153925 -2.2171492502917785 2.98799998
v 1.2480319129516544 -1.9811310627867407 2.98799998
v 3.09350769 -4.25462209 2.98799998
v 2.4885076 -3.69462216 2.98799998
v 0.6307279621836235 -4.25462209 2.98799998
v 0.5566830157966745 -2.5120552841410655 2.98799998
v 2.4885076 -3.69462216 2.98799998
v 1.2480319129516544 -1.9811310627867407 2.98799998
v 2.51850751 -1.69462234 2.98799998
v 0.9496297006576879 -0.2180096167045517 2.98799998
v 1.2480319129516544 -1.9811310627867407 2.98799998
v 1.2480319129516544 -1.9811310627867407 2.98799998
v 2.510669629153925 -2.2171492502917785 2.98799998
v 2.51850751 -1.69462234 2.98799998
v 2.51850751 -1.69462234 2.98799998
v 3.13150769 -1.69462234 2.98799998
v 3.1383976914644167 0.03008152583424506 2.98799998
v 0.9496297006576879 -0.2180096167045517 2.98799998
v 2.51850751 -1.69462234 2.98799998
v 1.300274936942524 0.1300497489350606 2.98799998
v 1.300274936942524 0.1300497489350606 2.98799998
v 2.51850751 -1.69462234 2.98799998
v 3.1383976914644167 0.03008152583424506 2.98799998
v -1.6164924200000002 -2.8906222 2.98799998
v -1.0683181003346205 -1.1085874711686616 2.98799998
v -2.884492340000001 -0.9960531266006611 2.98799998
v -2.884492340000001 -0.9960531266006611 2.98799998
v -2.8844923400000004 -2.8906222000000006 2.98799998
v -1.6164924200000002 -2.8906222 2.98799998
v -1.6164924200000002 -2.8906222 2.98799998
v -1.6164924200000002 -3.0952732316917224 2.98799998
v -0.7213809283090868 -2.146688630085791 2.98799998
v -1.0683181003346205 -1.1085874711686616 2.98799998
v -1.6164924200000002 -2.8906222 2.98799998
v -0.7213809283090868 -2.146688630085791 2.98799998
v 0.5566830157966745 -2.5120552841410655 2.98799998
v -0.7213809283090868 -2.146688630085791 2.98799998
v -1.6164924200000002 -3.0952732316917224 2.98799998
v -1.6164924200000002 -3.0952732316917224 2.98799998
v -1.6164924200000002 -4.25462209 2.98799998
v 0.6307279621836235 -4.25462209 2.98799998
v 0.6307279621836235 -4.25462209 2.98799998
v 0.5566830157966745 -2.5120552841410655 2.98799998
v -1.6164924200000002 -3.0952732316917224 2.98799998
v -1.0683181003346205 -1.1085874711686616 2.98799998
v 0.9496297006576879 -0.2180096167045517 2.98799998
v -0.5164656456028363 -0.14671523615637488 2.98799998
v 1.2480319129516544 -1.9811310627867407 2.98799998
v -1.0683181003346205 -1.1085874711686616 2.98799998
v -0.7213809283090868 -2.146688630085791 2.98799998
v -0.7213809283090868 -2.146688630085791 2.98799998
v 0.5566830157966745 -2.5120552841410655 2.98799998
v 1.2480319129516544 -1.9811310627867407 2.98799998
v -1.0683181003346205 -1.1085874711686616 2.98799998
v 1.2480319129516544 -1.9811310627867407 2.98799998
v 0.9496297006576879 -0.2180096167045517 2.98799998
v 1.1830027713851639 2.1199286471025696 2.98799998
v 1.103301250795181 2.0393105579854276 2.98799998
v 1.300274936942524 0.1300497489350606 2.98799998
v 1.300274936942524 0.1300497489350606 2.98799998
v 3.1383976914644167 0.03008152583424506 2.98799998
v 3.1468750845071733 2.1521409518804866 2.98799998
v 3.1468750845071733 2.1521409518804866 2.98799998
v 1.1830027713851639 2.1199286471025696 2.98799998
v 1.300274936942524 0.1300497489350606 2.98799998
v -0.5276591746689171 1.9887449720275574 2.98799998
v 1.300274936942524 0.1300497489350606 2.98799998
v 1.103301250795181 2.0393105579854276 2.98799998
v 1.300274936942524 0.1300497489350606 2.98799998
v -0.5276591746689171 1.9887449720275574 2.98799998
v -0.9703041734090108 0.7199895461723297 2.98799998
v -0.9703041734090108 0.7199895461723297 2.98799998
v -0.5164656456028363 -0.14671523615637488 2.98799998
v 0.9496297006576879 -0.2180096167045517 2.98799998
v 1.300274936942524 0.1300497489350606 2.98799998
v -0.9703041734090108 0.7199895461723297 2.98799998
v 0.9496297006576879 -0.2180096167045517 2.98799998
v 1.1830027713851639 2.1199286471025696 2.98799998
v 3.1468750845071733 2.1521409518804866 2.98799998
v 3.1550136199999996 4.189377619999999 2.98799998
v 3.1550136199999996 4.189377619999999 2.98799998
v 1.1328131641238581 4.189377619999999 2.98799998
v 1.1830027713851639 2.1199286471025696 2.98799998
v -0.9703041734090108 0.7199895461723297 2.98799998
v -0.5276591746689171 1.9887449720275574 2.98799998
v -0.9369684956973192 2.525640951301402 2.98799998
v -0.9703041734090108 0.7199895461723297 2.98799998
v -2.884492340000001 2.4329788236708794 2.98799998
v -2.8844923400000004 0.7413758967526218 2.98799998
v -2.884492340000001 2.4329788236708794 2.98799998
v -0.9703041734090108 0.7199895461723297 2.98799998
v -0.9369684956973192 2.525640951301402 2.98799998
v -1.0683181003346205 -1.1085874711686616 2.98799998
v -0.5164656456028363 -0.14671523615637488 2.98799998
v -0.9703041734090108 0.7199895461723297 2.98799998
v -0.9703041734090108 0.7199895461723297 2.98799998
v -2.8844923400000004 0.7413758967526218 2.98799998
v -2.884492340000001 -0.9960531266006611 2.98799998
v -2.884492340000001 -0.9960531266006611 2.98799998
v -1.0683181003346205 -1.1085874711686616 2.98799998
v -0.9703041734090108 0.7199895461723297 2.98799998
v -0.9369684956973192 2.525640951301402 2.98799998
v -0.7441067421172625 4.18937762 2.98799998
v -2.884492340000001 4.189377619999999 2.98799998
v -2.884492340000001 4.189377619999999 2.98799998
v -2.884492340000001 2.4329788236708794 2.98799998
v -0.9369684956973192 2.525640951301402 2.98799998
v 1.1830027713851639 2.1199286471025696 2.98799998
v -0.5276591746689171 1.9887449720275574 2.98799998
v 1.103301250795181 2.0393105579854276 2.98799998
v -0.9369684956973192 2.525640951301402 2.98799998
v 1.1830027713851639 2.1199286471025696 2.98799998
v 1.1328131641238581 4.189377619999999 2.98799998
v 1.1328131641238581 4.189377619999999 2.98799998
v -0.7441067421172625 4.18937762 2.98799998
v -0.9369684956973192 2.525640951301402 2.98799998
v -0.5276591746689171 1.9887449720275574 2.98799998
v 1.1830027713851639 2.1199286471025696 2.98799998
v -0.9369684956973192 2.525640951301402 2.98799998
v -2.82349239 4.08237756 0.15
v -2.82349239 4.08237756 0.59500002
v -1.30349243 4.08237756 0.59500002
v -1.30349243 4.08237756 0.59500002
v -1.30349243 4.08237756 0.15
v -2.82349239 4.08237756 0.15
v -0.7634924 4.08237756 0.15
v -0.7634924 4.08237756 0.59500002
v 0.7565076000000001 4.08237756 0.59500002
v 0.7565076000000001 4.08237756 0.59500002
v 0.7565076000000001 4.08237756 0.15
v -0.7634924 4.08237756 0.15
v 1.26650758 4.08237756 0.15
v 1.26650758 4.08237756 0.59500002
v 2.78650763 4.08237756 0.59500002
v 2.78650763 4.08237756 0.59500002
v 2.78650763 4.08237756 0.15
v 1.26650758 4.08237756 0.15

usemtl Patch_1_Mat_CR2_concrete
f 3 2 1
f 6 5 4

usemtl Patch_2_Mat_CR2_windows
f 9 8 7
f 12 11 10

usemtl Patch_3_Mat_CR2_concrete
f 15 14 13
f 18 17 16

usemtl Patch_4_Mat_CR2_concrete
f 21 20 19
f 24 23 22

usemtl Patch_5_Mat_CR2_concrete
f 27 26 25
f 30 29 28

usemtl Patch_6_Mat_CR2_concrete
f 33 32 31
f 36 35 34

usemtl Patch_7_Mat_CR2_plaster
f 39 38 37
f 42 41 40

usemtl Patch_8_Mat_CR2_plaster
f 45 44 43
f 48 47 46
f 51 50 49

usemtl Patch_9_Mat_CR2_plaster
f 54 53 52
f 57 56 55
f 60 59 58

usemtl Patch_10_Mat_CR2_plaster
f 63 62 61
f 66 65 64

usemtl Patch_11_Mat_CR2_windows
f 69 68 67
f 72 71 70

usemtl Patch_12_Mat_CR2_windows
f 75 74 73
f 78 77 76

usemtl Patch_13_Mat_CR2_concrete
f 81 80 79
f 84 83 82

usemtl Patch_14_Mat_CR2_concrete
f 87 86 85
f 90 89 88

usemtl Patch_15_Mat_CR2_concrete
f 93 92 91
f 96 95 94

usemtl Patch_16_Mat_CR2_concrete
f 99 98 97
f 102 101 100

usemtl Patch_17_Mat_CR2_concrete
f 105 104 103
f 108 107 106

usemtl Patch_18_Mat_CR2_concrete
f 111 110 109
f 114 113 112
f 117 116 115
f 120 119 118
f 123 122 121
f 126 125 124
f 129 128 127
f 132 131 130

usemtl Patch_19_Mat_CR2_concrete
f 135 134 133
f 138 137 136
f 141 140 139
f 144 143 142
f 147 146 145
f 150 149 148
f 153 152 151
f 156 155 154
f 159 158 157

usemtl Patch_20_Mat_CR2_concrete
f 162 161 160
f 165 164 163
f 168 167 166
f 171 170 169
f 174 173 172
f 177 176 175
f 180 179 178
f 183 182 181

usemtl Patch_21_Mat_CR2_floor
f 186 185 184
f 189 188 187
f 192 191 190

usemtl Patch_22_Mat_CR2_floor
f 195 194 193
f 198 197 196
f 201 200 199
f 204 203 202
f 207 206 205

usemtl Patch_23_Mat_CR2_floor
f 210 209 208
f 213 212 211
f 216 215 214

usemtl Patch_24_Mat_CR2_floor
f 219 218 217
f 222 221 220
f 225 224 223

usemtl Patch_25_Mat_CR2_floor
f 228 227 226
f 231 230 229
f 234 233 232
f 237 236 235
f 240 239 238

usemtl Patch_26_Mat_CR2_floor
f 243 242 241
f 246 245 244
f 249 248 247
f 252 251 250

usemtl Patch_27_Mat_CR2_floor
f 255 254 253
f 258 257 256
f 261 260 259
f 264 263 262

usemtl Patch_28_Mat_CR2_floor
f 267 266 265
f 270 269 268
f 273 272 271
f 276 275 274
f 279 278 277

usemtl Patch_29_Mat_CR2_floor
f 282 281 280
f 285 284 283

usemtl Patch_30_Mat_CR2_floor
f 288 287 286
f 291 290 289
f 294 293 292

usemtl Patch_31_Mat_CR2_floor
f 297 296 295
f 300 299 298
f 303 302 301
f 306 305 304

usemtl Patch_32_Mat_CR2_floor
f 309 308 307
f 312 311 310

usemtl Patch_33_Mat_CR2_concrete
f 315 314 313
f 318 317 316

usemtl Patch_34_Mat_CR2_concrete
f 321 320 319
f 324 323 322
f 327 326 325
f 330 329 328

usemtl Patch_35_Mat_CR2_concrete
f 333 332 331
f 336 335 334

usemtl Patch_36_Mat_CR2_concrete
f 339 338 337
f 342 341 340

usemtl Patch_37_Mat_CR2_concrete
f 345 344 343
f 348 347 346

usemtl Patch_38_Mat_CR2_plaster
f 351 350 349
f 354 353 352

usemtl Patch_39_Mat_CR2_plaster
f 357 356 355
f 360 359 358
f 363 362 361

usemtl Patch_40_Mat_CR2_plaster
f 366 365 364
f 369 368 367
f 372 371 370

usemtl Patch_41_Mat_CR2_plaster
f 375 374 373
f 378 377 376
f 381 380 379

usemtl Patch_42_Mat_CR2_plaster
f 384 383 382
f 387 386 385
f 390 389 388

usemtl Patch_43_Mat_CR2_plaster
f 393 392 391
f 396 395 394
f 399 398 397

usemtl Patch_44_Mat_CR2_plaster
f 402 401 400
f 405 404 403

usemtl Patch_45_Mat_CR2_plaster
f 408 407 406

usemtl Patch_46_Mat_CR2_ceiling
f 411 410 409
f 414 413 412
f 417 416 415
f 420 419 418
f 423 422 421

usemtl Patch_47_Mat_CR2_ceiling
f 426 425 424
f 429 428 427
f 432 431 430
f 435 434 433
f 438 437 436

usemtl Patch_48_Mat_CR2_ceiling
f 441 440 439
f 444 443 442
f 447 446 445
f 450 449 448

usemtl Patch_49_Mat_CR2_ceiling
f 453 452 451
f 456 455 454
f 459 458 457

usemtl Patch_50_Mat_CR2_ceiling
f 462 461 460
f 465 464 463
f 468 467 466
f 471 470 469

usemtl Patch_51_Mat_CR2_ceiling
f 474 473 472
f 477 476 475
f 480 479 478

usemtl Patch_52_Mat_CR2_ceiling
f 483 482 481
f 486 485 484
f 489 488 487
f 492 491 490

usemtl Patch_53_Mat_CR2_ceiling
f 495 494 493
f 498 497 496

usemtl Patch_54_Mat_CR2_ceiling
f 501 500 499
f 504 503 502
f 507 506 505

usemtl Patch_55_Mat_CR2_ceiling
f 510 509 508
f 513 512 511
f 516 515 514

usemtl Patch_56_Mat_CR2_ceiling
f 519 518 517
f 522 521 520

usemtl Patch_57_Mat_CR2_ceiling
f 525 524 523
f 528 527 526
f 531 530 529
f 534 533 532

usemtl Patch_58_Mat_CR2_concrete
f 537 536 535
f 540 539 538

usemtl Patch_59_Mat_CR2_concrete
f 543 542 541
f 546 545 544

usemtl Patch_60_Mat_CR2_concrete
f 549 548 547
f 552 551 550

