mtllib mesh.mtl

v 6.10173802 1.90299993 2.73600005
v 4.858334742736943 0.5963992092998835 2.73600005
v 6.101738019999999 0.6949704771526035 2.73600005
v 4.566017381819933 0.8994430394726112 2.73600005
v 6.10173802 1.90299993 2.73600005
v 4.661228926195691 2.035304865063768 2.73600005
v 6.10173802 1.90299993 2.73600005
v 4.566017381819933 0.8994430394726112 2.73600005
v 4.858334742736943 0.5963992092998835 2.73600005
v 4.858334742736943 0.5963992092998835 2.73600005
v 4.702700170208174 -0.6043748734545824 2.73600005
v 4.774548054871543 -0.6890730138692724 2.73600005
v 4.858334742736943 0.5963992092998835 2.73600005
v 6.10173802 -0.6995862900975811 2.73600005
v 6.101738019999999 0.6949704771526035 2.73600005
v 6.10173802 -0.6995862900975811 2.73600005
v 4.858334742736943 0.5963992092998835 2.73600005
v 4.774548054871543 -0.6890730138692724 2.73600005
v 1.772102163709052 1.0535862029908662 2.73600005
v 2.004759524120187 2.27929083728161 2.73600005
v 0.5707378399999996 2.4109999300000005 2.73600005
v 0.5707378399999996 2.4109999300000005 2.73600005
v 0.5707378400000005 0.9701943232299963 2.73600005
v 1.772102163709052 1.0535862029908662 2.73600005
v 3.207776982086156 2.168798548589131 2.73600005
v 3.299898125589677 0.6481686040490078 2.73600005
v 4.566017381819933 0.8994430394726112 2.73600005
v 4.566017381819933 0.8994430394726112 2.73600005
v 4.661228926195691 2.035304865063768 2.73600005
v 3.207776982086156 2.168798548589131 2.73600005
v 3.299898125589677 0.6481686040490078 2.73600005
v 3.207776982086156 2.168798548589131 2.73600005
v 3.192143267363944 0.7262938762868049 2.73600005
v 4.858334742736943 0.5963992092998835 2.73600005
v 3.528355811543416 -0.5125844557450302 2.73600005
v 4.702700170208174 -0.6043748734545824 2.73600005
v 3.528355811543416 -0.5125844557450302 2.73600005
v 4.858334742736943 0.5963992092998835 2.73600005
v 4.566017381819933 0.8994430394726112 2.73600005
v 3.528355811543416 -0.5125844557450302 2.73600005
v 4.566017381819933 0.8994430394726112 2.73600005
v 3.299898125589677 0.6481686040490078 2.73600005
v 4.9891718627680826 -4.723018616306401 2.73600005
v 4.993059116002973 -6.159999970000003 2.73600005
v 6.101738019999999 -6.159999970000003 2.73600005
v 6.101738019999999 -6.159999970000003 2.73600005
v 6.101738019999999 -4.6522034648798 2.73600005
v 4.9891718627680826 -4.723018616306401 2.73600005
v 6.10173802 -0.6995862900975811 2.73600005
v 4.684067247656184 -1.88998324866707 2.73600005
v 6.101738019999999 -2.114775556929548 2.73600005
v 4.684067247656184 -1.88998324866707 2.73600005
v 6.10173802 -0.6995862900975811 2.73600005
v 4.774548054871543 -0.6890730138692724 2.73600005
v 3.207776982086156 2.168798548589131 2.73600005
v 2.004759524120187 2.27929083728161 2.73600005
v 1.772102163709052 1.0535862029908662 2.73600005
v 1.772102163709052 1.0535862029908662 2.73600005
v 2.1837848862644647 0.6007884037384943 2.73600005
v 3.192143267363944 0.7262938762868049 2.73600005
v 3.192143267363944 0.7262938762868049 2.73600005
v 3.207776982086156 2.168798548589131 2.73600005
v 1.772102163709052 1.0535862029908662 2.73600005
v 3.528355811543416 -0.5125844557450302 2.73600005
v 1.8608985176753512 -0.37134426078307303 2.73600005
v 2.178037433823228 -0.879933976182041 2.73600005
v 2.178037433823228 -0.879933976182041 2.73600005
v 3.1191597688350217 -0.9873659040409604 2.73600005
v 3.528355811543416 -0.5125844557450302 2.73600005
v 2.1837848862644647 0.6007884037384943 2.73600005
v 3.299898125589677 0.6481686040490078 2.73600005
v 3.192143267363944 0.7262938762868049 2.73600005
v 3.528355811543416 -0.5125844557450302 2.73600005
v 2.1837848862644647 0.6007884037384943 2.73600005
v 1.8608985176753512 -0.37134426078307303 2.73600005
v 2.1837848862644647 0.6007884037384943 2.73600005
v 3.528355811543416 -0.5125844557450302 2.73600005
v 3.299898125589677 0.6481686040490078 2.73600005
v 1.8608985176753512 -0.37134426078307303 2.73600005
v 2.1837848862644647 0.6007884037384943 2.73600005
v 1.772102163709052 1.0535862029908662 2.73600005
v 1.772102163709052 1.0535862029908662 2.73600005
v 0.5707378400000005 0.9701943232299963 2.73600005
v 0.57073784 0.49900001999999954 2.73600005
v 0.57073784 0.49900001999999954 2.73600005
v 0.57073784 -0.33678421384376667 2.73600005
v 1.8608985176753512 -0.37134426078307303 2.73600005
v 1.8608985176753512 -0.37134426078307303 2.73600005
v 1.772102163709052 1.0535862029908662 2.73600005
v 0.57073784 0.49900001999999954 2.73600005
v 4.754631793110224 -3.3957086865437702 2.73600005
v 4.751974511456492 -4.55642985185813 2.73600005
v 4.9891718627680826 -4.723018616306401 2.73600005
v 4.754631793110224 -3.3957086865437702 2.73600005
v 6.101738019999999 -4.6522034648798 2.73600005
v 6.101738019999999 -3.1750365995771963 2.73600005
v 6.101738019999999 -4.6522034648798 2.73600005
v 4.754631793110224 -3.3957086865437702 2.73600005
v 4.9891718627680826 -4.723018616306401 2.73600005
v 3.387489902400407 -1.8100628513641317 2.73600005
v 3.528355811543416 -0.5125844557450302 2.73600005
v 3.1191597688350217 -0.9873659040409604 2.73600005
v 4.684067247656184 -1.88998324866707 2.73600005
v 3.387489902400407 -1.8100628513641317 2.73600005
v 4.464062688348938 -2.0837267958685493 2.73600005
v 3.387489902400407 -1.8100628513641317 2.73600005
v 4.684067247656184 -1.88998324866707 2.73600005
v 4.774548054871543 -0.6890730138692724 2.73600005
v 3.528355811543416 -0.5125844557450302 2.73600005
v 4.774548054871543 -0.6890730138692724 2.73600005
v 4.702700170208174 -0.6043748734545824 2.73600005
v 3.528355811543416 -0.5125844557450302 2.73600005
v 3.387489902400407 -1.8100628513641317 2.73600005
v 4.774548054871543 -0.6890730138692724 2.73600005
v 2.7127863281361693 -2.676152637222102 2.73600005
v 1.6977307557696735 -1.7825574006962714 2.73600005
v 2.29250502312643 -2.6876814698810696 2.73600005
v 1.6977307557696735 -1.7825574006962714 2.73600005
v 2.7127863281361693 -2.676152637222102 2.73600005
v 3.387489902400407 -1.8100628513641317 2.73600005
v 3.387489902400407 -1.8100628513641317 2.73600005
v 3.1191597688350217 -0.9873659040409604 2.73600005
v 2.178037433823228 -0.879933976182041 2.73600005
v 1.6977307557696735 -1.7825574006962714 2.73600005
v 3.387489902400407 -1.8100628513641317 2.73600005
v 2.178037433823228 -0.879933976182041 2.73600005
v 1.6977307557696735 -1.7825574006962714 2.73600005
v 2.178037433823228 -0.879933976182041 2.73600005
v 1.8608985176753512 -0.37134426078307303 2.73600005
v 1.6977307557696735 -1.7825574006962714 2.73600005
v 0.57073784 -0.33678421384376667 2.73600005
v 0.57073784 -1.8140453259866396 2.73600005
v 0.57073784 -0.33678421384376667 2.73600005
v 1.6977307557696735 -1.7825574006962714 2.73600005
v 1.8608985176753512 -0.37134426078307303 2.73600005
v 4.684067247656184 -1.88998324866707 2.73600005
v 4.445949186500514 -3.1207688777839393 2.73600005
v 4.754631793110224 -3.3957086865437702 2.73600005
v 4.754631793110224 -3.3957086865437702 2.73600005
v 6.101738019999999 -3.1750365995771963 2.73600005
v 6.101738019999999 -2.114775556929548 2.73600005
v 4.445949186500514 -3.1207688777839393 2.73600005
v 4.684067247656184 -1.88998324866707 2.73600005
v 4.464062688348938 -2.0837267958685493 2.73600005
v 4.684067247656184 -1.88998324866707 2.73600005
v 4.754631793110224 -3.3957086865437702 2.73600005
v 6.101738019999999 -2.114775556929548 2.73600005
v 3.4138535880117344 -3.4087118533875884 2.73600005
v 2.069846901890462 -4.39106563233018 2.73600005
v 2.763158254747632 -4.553385457749803 2.73600005
v 3.4138535880117344 -3.4087118533875884 2.73600005
v 2.763158254747632 -4.553385457749803 2.73600005
v 3.1929465225528553 -4.380229250677839 2.73600005
v 1.7853485154950222 -3.286438471755762 2.73600005
v 3.4138535880117344 -3.4087118533875884 2.73600005
v 2.7127863281361693 -2.676152637222102 2.73600005
v 1.7853485154950222 -3.286438471755762 2.73600005
v 2.7127863281361693 -2.676152637222102 2.73600005
v 2.29250502312643 -2.6876814698810696 2.73600005
v 2.069846901890462 -4.39106563233018 2.73600005
v 3.4138535880117344 -3.4087118533875884 2.73600005
v 1.7853485154950222 -3.286438471755762 2.73600005
v 3.387489902400407 -1.8100628513641317 2.73600005
v 2.7127863281361693 -2.676152637222102 2.73600005
v 3.4138535880117344 -3.4087118533875884 2.73600005
v 3.387489902400407 -1.8100628513641317 2.73600005
v 4.445949186500514 -3.1207688777839393 2.73600005
v 4.464062688348938 -2.0837267958685493 2.73600005
v 4.445949186500514 -3.1207688777839393 2.73600005
v 3.387489902400407 -1.8100628513641317 2.73600005
v 3.4138535880117344 -3.4087118533875884 2.73600005
v 3.4138535880117344 -3.4087118533875884 2.73600005
v 3.1929465225528553 -4.380229250677839 2.73600005
v 3.904427288388553 -4.779505178601301 2.73600005
v 3.904427288388553 -4.779505178601301 2.73600005
v 4.751974511456492 -4.55642985185813 2.73600005
v 4.754631793110224 -3.3957086865437702 2.73600005
v 4.754631793110224 -3.3957086865437702 2.73600005
v 4.445949186500514 -3.1207688777839393 2.73600005
v 3.4138535880117344 -3.4087118533875884 2.73600005
v 3.4138535880117344 -3.4087118533875884 2.73600005
v 3.904427288388553 -4.779505178601301 2.73600005
v 4.754631793110224 -3.3957086865437702 2.73600005
v 1.5824410843405219 -4.7474055115419445 2.73600005
v 0.5707378400000007 -4.664957168163933 2.73600005
v 0.5707378400000008 -6.159999970000001 2.73600005
v 0.5707378400000008 -6.159999970000001 2.73600005
v 1.7652931761893287 -6.159999970000001 2.73600005
v 1.5824410843405219 -4.7474055115419445 2.73600005
v 1.7853485154950222 -3.286438471755762 2.73600005
v 2.29250502312643 -2.6876814698810696 2.73600005
v 1.6977307557696735 -1.7825574006962714 2.73600005
v 1.6977307557696735 -1.7825574006962714 2.73600005
v 0.57073784 -1.8140453259866396 2.73600005
v 0.5707378399999998 -3.226862496267607 2.73600005
v 0.5707378399999998 -3.226862496267607 2.73600005
v 1.7853485154950222 -3.286438471755762 2.73600005
v 1.6977307557696735 -1.7825574006962714 2.73600005
v 4.9891718627680826 -4.723018616306401 2.73600005
v 4.751974511456492 -4.55642985185813 2.73600005
v 3.904427288388553 -4.779505178601301 2.73600005
v 3.904427288388553 -4.779505178601301 2.73600005
v 3.7996450653346967 -6.159999970000003 2.73600005
v 4.993059116002973 -6.159999970000003 2.73600005
v 4.993059116002973 -6.159999970000003 2.73600005
v 4.9891718627680826 -4.723018616306401 2.73600005
v 3.904427288388553 -4.779505178601301 2.73600005
v 1.5824410843405219 -4.7474055115419445 2.73600005
v 2.069846901890462 -4.39106563233018 2.73600005
v 1.7853485154950222 -3.286438471755762 2.73600005
v 1.5824410843405219 -4.7474055115419445 2.73600005
v 0.5707378399999998 -3.226862496267607 2.73600005
v 0.5707378400000007 -4.664957168163933 2.73600005
v 0.5707378399999998 -3.226862496267607 2.73600005
v 1.5824410843405219 -4.7474055115419445 2.73600005
v 1.7853485154950222 -3.286438471755762 2.73600005
v 3.904427288388553 -4.779505178601301 2.73600005
v 3.1929465225528553 -4.380229250677839 2.73600005
v 2.763158254747632 -4.553385457749803 2.73600005
v 3.904427288388553 -4.779505178601301 2.73600005
v 2.7262173261054174 -6.159999970000002 2.73600005
v 3.7996450653346967 -6.159999970000003 2.73600005
v 2.7262173261054174 -6.159999970000002 2.73600005
v 3.904427288388553 -4.779505178601301 2.73600005
v 2.763158254747632 -4.553385457749803 2.73600005
v 2.7262173261054174 -6.159999970000002 2.73600005
v 1.5824410843405219 -4.7474055115419445 2.73600005
v 1.7652931761893287 -6.159999970000001 2.73600005
v 1.5824410843405219 -4.7474055115419445 2.73600005
v 2.7262173261054174 -6.159999970000002 2.73600005
v 2.763158254747632 -4.553385457749803 2.73600005
v 1.5824410843405219 -4.7474055115419445 2.73600005
v 2.763158254747632 -4.553385457749803 2.73600005
v 2.069846901890462 -4.39106563233018 2.73600005
v -6.25126223 -3.6479998099999995 1.10000001
v -4.877817889575783 -3.6479998099999995 2.017054814752833
v -6.25126223 -3.647999809999999 1.7847454711472983
v -4.877817889575783 -3.6479998099999995 2.017054814752833
v -6.25126223 -3.6479998099999995 1.10000001
v -4.527032124095906 -3.64799981 1.10000001
v -4.877817889575783 -3.6479998099999995 2.017054814752833
v -4.527032124095906 -3.64799981 1.10000001
v -4.499012639414741 -3.64799981 1.1577933180160576
v -4.877817889575783 -3.6479998099999995 2.017054814752833
v -4.499012639414741 -3.64799981 1.1577933180160576
v -3.5181040644358856 -3.64799981 1.4764759235085667
v -4.877817889575783 -3.6479998099999995 2.017054814752833
v -3.433871202882623 -3.647999809999999 2.76800004
v -4.730523126484089 -3.647999809999999 2.7680000399999996
v -3.433871202882623 -3.647999809999999 2.76800004
v -4.877817889575783 -3.6479998099999995 2.017054814752833
v -3.5181040644358856 -3.64799981 1.4764759235085667
v -4.877817889575783 -3.6479998099999995 2.017054814752833
v -4.730523126484089 -3.647999809999999 2.7680000399999996
v -6.25126223 -3.6479998099999986 2.7680000399999996
v -6.25126223 -3.6479998099999986 2.7680000399999996
v -6.25126223 -3.647999809999999 1.7847454711472983
v -4.877817889575783 -3.6479998099999995 2.017054814752833
v -4.52168292 -3.64799981 1.10000001
v -3.5181040644358856 -3.64799981 1.4764759235085667
v -4.499012639414741 -3.64799981 1.1577933180160576
v -4.499012639414741 -3.64799981 1.1577933180160576
v -4.527032124095906 -3.64799981 1.10000001
v -4.52168292 -3.64799981 1.10000001
v -2.9197277528991847 -3.6479998100000004 1.10000001
v -4.52168292 -3.6479998100000004 0.0
v -2.8027147800000005 -3.647999810000001 -2.220446049250313e-16
v -2.8027147800000005 -3.647999810000001 -2.220446049250313e-16
v -2.80271478 -3.6479998100000004 1.0263798398574995
v -2.9197277528991847 -3.6479998100000004 1.10000001
v -4.52168292 -3.6479998100000004 0.0
v -3.5181040644358856 -3.64799981 1.4764759235085667
v -4.52168292 -3.64799981 1.10000001
v -3.5181040644358856 -3.64799981 1.4764759235085667
v -4.52168292 -3.6479998100000004 0.0
v -2.9197277528991847 -3.6479998100000004 1.10000001
v -2.225641286398647 -3.6479998099999995 2.7680000399999996
v -2.9197277528991847 -3.6479998100000004 1.10000001
v -2.301258710567608 -3.6479998100000004 1.10000001
v -3.5181040644358856 -3.64799981 1.4764759235085667
v -2.225641286398647 -3.6479998099999995 2.7680000399999996
v -3.433871202882623 -3.647999809999999 2.76800004
v -2.225641286398647 -3.6479998099999995 2.7680000399999996
v -3.5181040644358856 -3.64799981 1.4764759235085667
v -2.9197277528991847 -3.6479998100000004 1.10000001
v -2.80271478 -3.6479998100000004 1.0263798398574995
v -2.8027147800000005 -3.6479998100000004 1.10000001
v -2.9197277528991847 -3.6479998100000004 1.10000001
v -2.225641286398647 -3.6479998099999995 2.7680000399999996
v -1.1159400105635542 -3.647999810000001 1.10000001
v -1.134395877881453 -3.6479998099999995 2.76800004
v -1.1159400105635542 -3.647999810000001 1.10000001
v -2.225641286398647 -3.6479998099999995 2.7680000399999996
v -2.301258710567608 -3.6479998100000004 1.10000001
v -1.1159400105635542 -3.647999810000001 1.10000001
v -0.00026214000000068793 -3.647999810000001 1.10000001
v -0.00026214000000115756 -3.64799981 2.7680000399999996
v -0.00026214000000115756 -3.64799981 2.7680000399999996
v -1.134395877881453 -3.6479998099999995 2.76800004
v -1.1159400105635542 -3.647999810000001 1.10000001
v -0.00026214 2.52300007 2.76800004
v -0.9561016607128661 1.1288165215106891 2.76800004
v -0.00026213999999979976 1.216396170390535 2.76800004
v -1.6268114272926453 1.9601021659411186 2.76800004
v -0.00026214 2.52300007 2.76800004
v -1.5279205305708266 2.6625445723246837 2.76800004
v -0.9561016607128661 1.1288165215106891 2.76800004
v -0.00026214 2.52300007 2.76800004
v -1.6268114272926453 1.9601021659411186 2.76800004
v -3.3055940441474503 2.8249267955225865 2.76800004
v -2.526557709979632 1.3829640493709152 2.76800004
v -1.6268114272926453 1.9601021659411186 2.76800004
v -1.6268114272926453 1.9601021659411186 2.76800004
v -1.5279205305708266 2.6625445723246837 2.76800004
v -3.3055940441474503 2.8249267955225865 2.76800004
v -2.526557709979632 1.3829640493709152 2.76800004
v -3.3055940441474503 2.8249267955225865 2.76800004
v -3.272928203552891 1.7548564226002168 2.76800004
v -0.0002621399999995777 -0.42568314870929624 2.76800004
v -1.3988551595675647 0.3729283258502853 2.76800004
v -1.000693143404774 -0.41157521412153464 2.76800004
v -0.9561016607128661 1.1288165215106891 2.76800004
v -0.0002621399999995777 -0.42568314870929624 2.76800004
v -0.00026213999999979976 1.216396170390535 2.76800004
v -1.3988551595675647 0.3729283258502853 2.76800004
v -0.0002621399999995777 -0.42568314870929624 2.76800004
v -0.9561016607128661 1.1288165215106891 2.76800004
v -1.3988551595675647 0.3729283258502853 2.76800004
v -2.3844222574361056 0.44026531655079765 2.76800004
v -2.673342195554885 0.12378493408813473 2.76800004
v -1.3988551595675647 0.3729283258502853 2.76800004
v -2.4328522052391315 -0.9664321124468809 2.76800004
v -1.4214881450038703 -0.9799850903699758 2.76800004
v -1.4214881450038703 -0.9799850903699758 2.76800004
v -1.000693143404774 -0.41157521412153464 2.76800004
v -1.3988551595675647 0.3729283258502853 2.76800004
v -2.4328522052391315 -0.9664321124468809 2.76800004
v -1.3988551595675647 0.3729283258502853 2.76800004
v -2.673342195554885 0.12378493408813473 2.76800004
v -1.3988551595675647 0.3729283258502853 2.76800004
v -2.526557709979632 1.3829640493709152 2.76800004
v -2.3844222574361056 0.44026531655079765 2.76800004
v -2.526557709979632 1.3829640493709152 2.76800004
v -1.3988551595675647 0.3729283258502853 2.76800004
v -0.9561016607128661 1.1288165215106891 2.76800004
v -2.526557709979632 1.3829640493709152 2.76800004
v -0.9561016607128661 1.1288165215106891 2.76800004
v -1.6268114272926453 1.9601021659411186 2.76800004
v -2.526557709979632 1.3829640493709152 2.76800004
v -3.9622779028413024 1.2417853332315982 2.76800004
v -3.607188296945102 0.176256438976943 2.76800004
v -3.607188296945102 0.176256438976943 2.76800004
v -2.673342195554885 0.12378493408813473 2.76800004
v -2.3844222574361056 0.44026531655079765 2.76800004
v -3.9622779028413024 1.2417853332315982 2.76800004
v -2.526557709979632 1.3829640493709152 2.76800004
v -3.272928203552891 1.7548564226002168 2.76800004
v -2.526557709979632 1.3829640493709152 2.76800004
v -3.607188296945102 0.176256438976943 2.76800004
v -2.3844222574361056 0.44026531655079765 2.76800004
v -0.0002621399999989116 -3.6479998100000004 2.7680000400000004
v -1.604537196754684 -2.5321834601844913 2.76800004
v -1.4670771217369802 -3.64799981 2.7680000400000004
v -1.0561974363807864 -2.005376238430375 2.76800004
v -0.0002621399999989116 -3.6479998100000004 2.7680000400000004
v -0.0002621399999989116 -2.0973303141412676 2.76800004
v -1.604537196754684 -2.5321834601844913 2.76800004
v -0.0002621399999989116 -3.6479998100000004 2.7680000400000004
v -1.0561974363807864 -2.005376238430375 2.76800004
v -0.0002621399999995777 -0.42568314870929624 2.76800004
v -1.4214881450038703 -0.9799850903699758 2.76800004
v -1.0561974363807864 -2.005376238430375 2.76800004
v -1.0561974363807864 -2.005376238430375 2.76800004
v -0.0002621399999989116 -2.0973303141412676 2.76800004
v -0.0002621399999995777 -0.42568314870929624 2.76800004
v -1.4214881450038703 -0.9799850903699758 2.76800004
v -0.0002621399999995777 -0.42568314870929624 2.76800004
v -1.000693143404774 -0.41157521412153464 2.76800004
v -4.908463458188585 1.79408507338202 2.76800004
v -4.666422024073526 2.9492321142904374 2.7680000399999996
v -6.25126223 3.0939999100000013 2.7680000399999996
v -6.25126223 3.0939999100000013 2.7680000399999996
v -6.25126223 1.8242036531641106 2.7680000399999996
v -4.908463458188585 1.79408507338202 2.76800004
v -3.272928203552891 1.7548564226002168 2.76800004
v -4.666422024073526 2.9492321142904374 2.7680000399999996
v -4.908463458188585 1.79408507338202 2.76800004
v -4.908463458188585 1.79408507338202 2.76800004
v -4.637947359874632 1.3717406749542427 2.76800004
v -3.9622779028413024 1.2417853332315982 2.76800004
v -4.666422024073526 2.9492321142904374 2.7680000399999996
v -3.272928203552891 1.7548564226002168 2.76800004
v -3.3055940441474503 2.8249267955225865 2.76800004
v -3.272928203552891 1.7548564226002168 2.76800004
v -4.908463458188585 1.79408507338202 2.76800004
v -3.9622779028413024 1.2417853332315982 2.76800004
v -4.096659297413649 -0.38212016536960725 2.76800004
v -5.214183061825025 0.44262262113300865 2.76800004
v -4.731186161920945 -0.37590664329355294 2.76800004
v -5.214183061825025 0.44262262113300865 2.76800004
v -4.096659297413649 -0.38212016536960725 2.76800004
v -3.607188296945102 0.176256438976943 2.76800004
v -5.214183061825025 0.44262262113300865 2.76800004
v -3.9622779028413024 1.2417853332315982 2.76800004
v -4.637947359874632 1.3717406749542427 2.76800004
v -3.9622779028413024 1.2417853332315982 2.76800004
v -5.214183061825025 0.44262262113300865 2.76800004
v -3.607188296945102 0.176256438976943 2.76800004
v -2.4675009820083385 -2.253663961801628 2.76800004
v -2.4328522052391315 -0.9664321124468809 2.76800004
v -2.7097960322281773 -1.2997734893996236 2.76800004
v -1.0561974363807864 -2.005376238430375 2.76800004
v -2.4675009820083385 -2.253663961801628 2.76800004
v -1.604537196754684 -2.5321834601844913 2.76800004
v -2.4675009820083385 -2.253663961801628 2.76800004
v -1.0561974363807864 -2.005376238430375 2.76800004
v -1.4214881450038703 -0.9799850903699758 2.76800004
v -2.4328522052391315 -0.9664321124468809 2.76800004
v -2.4675009820083385 -2.253663961801628 2.76800004
v -1.4214881450038703 -0.9799850903699758 2.76800004
v -3.60674023053602 -1.287456512935704 2.76800004
v -3.607188296945102 0.176256438976943 2.76800004
v -4.096659297413649 -0.38212016536960725 2.76800004
v -2.4328522052391315 -0.9664321124468809 2.76800004
v -3.60674023053602 -1.287456512935704 2.76800004
v -2.7097960322281773 -1.2997734893996236 2.76800004
v -3.60674023053602 -1.287456512935704 2.76800004
v -2.673342195554885 0.12378493408813473 2.76800004
v -3.607188296945102 0.176256438976943 2.76800004
v -2.673342195554885 0.12378493408813473 2.76800004
v -3.60674023053602 -1.287456512935704 2.76800004
v -2.4328522052391315 -0.9664321124468809 2.76800004
v -5.214183061825025 0.44262262113300865 2.76800004
v -4.637947359874632 1.3717406749542427 2.76800004
v -4.908463458188585 1.79408507338202 2.76800004
v -5.214183061825025 0.44262262113300865 2.76800004
v -6.25126223 1.8242036531641106 2.7680000399999996
v -6.25126223 0.4850657983557767 2.76800004
v -6.25126223 1.8242036531641106 2.7680000399999996
v -5.214183061825025 0.44262262113300865 2.76800004
v -4.908463458188585 1.79408507338202 2.76800004
v -3.224461821359161 -2.9041465566436626 2.76800004
v -3.60674023053602 -1.287456512935704 2.76800004
v -4.135545564991935 -2.0642241736267204 2.76800004
v -3.60674023053602 -1.287456512935704 2.76800004
v -3.224461821359161 -2.9041465566436626 2.76800004
v -2.4675009820083385 -2.253663961801628 2.76800004
v -3.60674023053602 -1.287456512935704 2.76800004
v -2.4675009820083385 -2.253663961801628 2.76800004
v -2.7097960322281773 -1.2997734893996236 2.76800004
v -4.096659297413649 -0.38212016536960725 2.76800004
v -4.731186161920945 -0.37590664329355294 2.76800004
v -5.201368630140287 -0.9715556739745519 2.76800004
v -5.201368630140287 -0.9715556739745519 2.76800004
v -4.684554837570782 -2.159293017931962 2.76800004
v -4.135545564991935 -2.0642241736267204 2.76800004
v -5.201368630140287 -0.9715556739745519 2.76800004
v -3.60674023053602 -1.287456512935704 2.76800004
v -4.096659297413649 -0.38212016536960725 2.76800004
v -3.60674023053602 -1.287456512935704 2.76800004
v -5.201368630140287 -0.9715556739745519 2.76800004
v -4.135545564991935 -2.0642241736267204 2.76800004
v -5.201368630140287 -0.9715556739745519 2.76800004
v -4.731186161920945 -0.37590664329355294 2.76800004
v -5.214183061825025 0.44262262113300865 2.76800004
v -5.214183061825025 0.44262262113300865 2.76800004
v -6.25126223 0.4850657983557767 2.76800004
v -6.25126223 -1.017613693718387 2.76800004
v -6.25126223 -1.017613693718387 2.76800004
v -5.201368630140287 -0.9715556739745519 2.76800004
v -5.214183061825025 0.44262262113300865 2.76800004
v -4.8312527135043775 -2.329712346813459 2.76800004
v -4.135545564991935 -2.0642241736267204 2.76800004
v -4.684554837570782 -2.159293017931962 2.76800004
v -4.135545564991935 -2.0642241736267204 2.76800004
v -4.8312527135043775 -2.329712346813459 2.76800004
v -4.803693002654604 -3.647999809999999 2.76800004
v -4.803693002654604 -3.647999809999999 2.76800004
v -3.2667810128583987 -3.6479998099999995 2.76800004
v -3.224461821359161 -2.9041465566436626 2.76800004
v -4.135545564991935 -2.0642241736267204 2.76800004
v -4.803693002654604 -3.647999809999999 2.76800004
v -3.224461821359161 -2.9041465566436626 2.76800004
v -1.4670771217369802 -3.64799981 2.7680000400000004
v -2.4675009820083385 -2.253663961801628 2.76800004
v -3.224461821359161 -2.9041465566436626 2.76800004
v -3.224461821359161 -2.9041465566436626 2.76800004
v -3.2667810128583987 -3.6479998099999995 2.76800004
v -1.4670771217369802 -3.64799981 2.7680000400000004
v -2.4675009820083385 -2.253663961801628 2.76800004
v -1.4670771217369802 -3.64799981 2.7680000400000004
v -1.604537196754684 -2.5321834601844913 2.76800004
v -4.803693002654604 -3.647999809999999 2.76800004
v -6.251262229999999 -2.370261731929149 2.76800004
v -6.251262229999999 -3.647999809999999 2.76800004
v -6.251262229999999 -2.370261731929149 2.76800004
v -4.803693002654604 -3.647999809999999 2.76800004
v -4.8312527135043775 -2.329712346813459 2.76800004
v -4.8312527135043775 -2.329712346813459 2.76800004
v -4.684554837570782 -2.159293017931962 2.76800004
v -5.201368630140287 -0.9715556739745519 2.76800004
v -5.201368630140287 -0.9715556739745519 2.76800004
v -6.25126223 -1.017613693718387 2.76800004
v -6.251262229999999 -2.370261731929149 2.76800004
v -6.251262229999999 -2.370261731929149 2.76800004
v -4.8312527135043775 -2.329712346813459 2.76800004
v -5.201368630140287 -0.9715556739745519 2.76800004
v -6.25126223 -3.64799981 2.76800004
v -6.25126223 -3.1500308522778195 1.10000001
v -6.25126223 -3.64799981 1.10000001
v -6.25126223 -2.3594866249023854 1.51141972983958
v -6.25126223 -3.64799981 2.76800004
v -6.25126223 -2.4559876571901453 2.76800004
v -6.25126223 -3.64799981 2.76800004
v -6.25126223 -2.3594866249023854 1.51141972983958
v -6.25126223 -3.1500308522778195 1.10000001
v -6.25126223 -1.065041238551279 1.5601700103969123
v -6.25126223 -1.7308379462278758 1.2300607330194953
v -6.25126223 -2.3594866249023854 1.51141972983958
v -6.25126223 -2.3594866249023854 1.51141972983958
v -6.25126223 -2.4559876571901453 2.76800004
v -6.25126223 -1.0626487283800883 2.76800004
v -6.25126223 -1.0626487283800883 2.76800004
v -6.25126223 -1.065041238551279 1.5601700103969123
v -6.25126223 -2.3594866249023854 1.51141972983958
v -6.25126223 -3.05310105 1.10000001
v -6.25126223 -1.7308379462278758 1.2300607330194953
v -6.25126223 -1.7004807890377218 0.0
v -6.25126223 -1.7004807890377218 0.0
v -6.25126223 -3.05310105 0.0
v -6.25126223 -3.05310105 1.10000001
v -6.25126223 -3.05310105 1.10000001
v -6.25126223 -3.1500308522778195 1.10000001
v -6.25126223 -2.3594866249023854 1.51141972983958
v -6.25126223 -1.7308379462278758 1.2300607330194953
v -6.25126223 -3.05310105 1.10000001
v -6.25126223 -2.3594866249023854 1.51141972983958
v -6.25126223 -0.40558823959296314 1.2357781230230684
v -6.25126223 0.3159597656820621 1.5695826587050217
v -6.25126223 0.8909740195083196 1.256254167148263
v -6.25126223 -0.40558823959296314 1.2357781230230684
v -6.25126223 0.8925643524562996 0.0
v -6.25126223 -0.4042915255241998 0.0
v -6.25126223 0.8925643524562996 0.0
v -6.25126223 -0.40558823959296314 1.2357781230230684
v -6.25126223 0.8909740195083196 1.256254167148263
v -6.25126223 0.3159597656820621 1.5695826587050217
v -6.25126223 -0.40558823959296314 1.2357781230230684
v -6.25126223 -1.065041238551279 1.5601700103969123
v -6.25126223 -1.065041238551279 1.5601700103969123
v -6.25126223 -1.0626487283800883 2.76800004
v -6.25126223 0.3040828443579461 2.76800004
v -6.25126223 0.3040828443579461 2.76800004
v -6.25126223 0.3159597656820621 1.5695826587050217
v -6.25126223 -1.065041238551279 1.5601700103969123
v -6.25126223 -1.7308379462278758 1.2300607330194953
v -6.25126223 -1.065041238551279 1.5601700103969123
v -6.25126223 -0.40558823959296314 1.2357781230230684
v -6.25126223 -0.40558823959296314 1.2357781230230684
v -6.25126223 -0.4042915255241998 0.0
v -6.25126223 -1.7004807890377218 0.0
v -6.25126223 -1.7004807890377218 0.0
v -6.25126223 -1.7308379462278758 1.2300607330194953
v -6.25126223 -0.40558823959296314 1.2357781230230684
v -6.25126223 1.6819671443721873 1.5568879124763972
v -6.25126223 0.8909740195083196 1.256254167148263
v -6.25126223 0.3159597656820621 1.5695826587050217
v -6.25126223 1.6819671443721873 1.5568879124763972
v -6.25126223 0.3040828443579461 2.76800004
v -6.25126223 1.786987557563137 2.76800004
v -6.25126223 0.3040828443579461 2.76800004
v -6.25126223 1.6819671443721873 1.5568879124763972
v -6.25126223 0.3159597656820621 1.5695826587050217
v -6.25126223 2.1558492200000003 1.10000001
v -6.25126223 1.6819671443721873 1.5568879124763972
v -6.25126223 2.3170621580930613 1.1000000100000003
v -6.25126223 2.1558492200000003 1.10000001
v -6.25126223 2.1558492200000012 0.0
v -6.25126223 0.8925643524562996 0.0
v -6.25126223 1.6819671443721873 1.5568879124763972
v -6.25126223 2.1558492200000003 1.10000001
v -6.25126223 0.8909740195083196 1.256254167148263
v -6.25126223 2.1558492200000003 1.10000001
v -6.25126223 0.8925643524562996 0.0
v -6.25126223 0.8909740195083196 1.256254167148263
v -6.25126223 1.6819671443721873 1.5568879124763972
v -6.25126223 1.786987557563137 2.76800004
v -6.25126223 3.0939999099999995 2.7680000399999996
v -6.25126223 3.0939999099999995 2.7680000399999996
v -6.25126223 3.09399991 1.10000001
v -6.25126223 2.3170621580930613 1.1000000100000003
v -6.25126223 2.3170621580930613 1.1000000100000003
v -6.25126223 1.6819671443721873 1.5568879124763972
v -6.25126223 3.0939999099999995 2.7680000399999996
v -1.6041604318701228 2.669508764664013 1.4053518527423507
v -1.4405220635849556 2.6545611280842945 2.7680000400000004
v -0.00026214000000024384 2.5230000699999993 2.7680000400000004
v -1.6041604318701228 2.669508764664013 1.4053518527423507
v -0.00026213653199794185 2.5230001079658297 1.100000010000001
v -1.3744038066079431 2.6485215705244234 1.1000000100000003
v -0.00026213653199794185 2.5230001079658297 1.100000010000001
v -1.6041604318701228 2.669508764664013 1.4053518527423507
v -0.00026214000000024384 2.5230000699999993 2.7680000400000004
v -1.67695229 2.67615797 1.10000001
v -1.6041604318701228 2.669508764664013 1.4053518527423507
v -1.3744038066079431 2.6485215705244234 1.1000000100000003
v -1.67695229 2.67615797 1.10000001
v -1.6769522877129481 2.676157995037418 3.3306690738754696e-16
v -3.0027692397369052 2.7972652189336458 1.1102230246251565e-15
v -1.6041604318701228 2.669508764664013 1.4053518527423507
v -1.67695229 2.67615797 1.10000001
v -3.0445452595287055 2.8010812313684825 1.4396474454458728
v -1.67695229 2.67615797 1.10000001
v -3.0027692397369052 2.7972652189336458 1.1102230246251565e-15
v -3.0445452595287055 2.8010812313684825 1.4396474454458728
v -4.416042843901082 2.9263611767676765 1.1000000100000003
v -3.0672216725439676 2.803152615907506 1.4623955673443048
v -3.0445452595287055 2.8010812313684825 1.4396474454458728
v -4.416042843901082 2.9263611767676765 1.1000000100000003
v -3.0027692397369052 2.7972652189336458 1.1102230246251565e-15
v -4.416042841614031 2.9263612018050944 1.9984014443252818e-15
v -4.416042843901082 2.9263611767676765 1.1000000100000003
v -4.554930137646831 2.939047886312557 1.10000001
v -4.45640407126154 2.9300479827508457 1.307937804595956
v -3.0027692397369052 2.7972652189336458 1.1102230246251565e-15
v -4.416042843901082 2.9263611767676765 1.1000000100000003
v -3.0445452595287055 2.8010812313684825 1.4396474454458728
v -3.0672216725439676 2.803152615907506 1.4623955673443048
v -4.416042843901082 2.9263611767676765 1.1000000100000003
v -4.45640407126154 2.9300479827508457 1.307937804595956
v -3.1004200655431897 2.806185105030113 2.7680000400000004
v -3.0445452595287055 2.8010812313684825 1.4396474454458728
v -3.0672216725439676 2.803152615907506 1.4623955673443048
v -1.6041604318701228 2.669508764664013 1.4053518527423507
v -3.1004200655431897 2.806185105030113 2.7680000400000004
v -1.4405220635849556 2.6545611280842945 2.7680000400000004
v -3.1004200655431897 2.806185105030113 2.7680000400000004
v -1.6041604318701228 2.669508764664013 1.4053518527423507
v -3.0445452595287055 2.8010812313684825 1.4396474454458728
v -4.700138427040235 2.9523119696102262 1.9651602079546606
v -4.45640407126154 2.9300479827508457 1.307937804595956
v -4.554930137646831 2.939047886312557 1.10000001
v -4.700138427040235 2.9523119696102262 1.9651602079546606
v -6.251262226531997 3.0939999479658304 1.1000000100000007
v -6.251262228155337 3.0939999301943715 1.8807755986194632
v -6.251262226531997 3.0939999479658304 1.1000000100000007
v -4.700138427040235 2.9523119696102262 1.9651602079546606
v -4.554930137646831 2.939047886312557 1.10000001
v -4.700138427040235 2.9523119696102262 1.9651602079546606
v -6.251262228155337 3.0939999301943715 1.8807755986194632
v -6.251262229999999 3.09399991 2.76800004
v -6.251262229999999 3.09399991 2.76800004
v -4.558493639252976 2.9393733573592726 2.76800004
v -4.700138427040235 2.9523119696102262 1.9651602079546606
v -3.0672216725439676 2.803152615907506 1.4623955673443048
v -4.45640407126154 2.9300479827508457 1.307937804595956
v -4.700138427040235 2.9523119696102262 1.9651602079546606
v -4.700138427040235 2.9523119696102262 1.9651602079546606
v -4.558493639252976 2.9393733573592726 2.76800004
v -3.1004200655431897 2.806185105030113 2.7680000400000004
v -3.1004200655431897 2.806185105030113 2.7680000400000004
v -3.0672216725439676 2.803152615907506 1.4623955673443048
v -4.700138427040235 2.9523119696102262 1.9651602079546606
v -0.00026214 1.0214559294643937 1.5659574994217875
v -0.00026214 1.5980490700000003 1.0852929023330566
v -0.00026214 1.59804907 1.1000000100000003
v -0.00026214 1.59804907 1.1000000100000003
v -0.00026214 2.52300007 1.10000001
v -0.00026214 2.52300007 2.76800004
v -0.00026214 2.52300007 2.76800004
v -0.00026214 1.2081985571806038 2.76800004
v -0.00026214 1.0214559294643937 1.5659574994217875
v -0.00026214 1.0214559294643937 1.5659574994217875
v -0.00026214 1.59804907 1.1000000100000003
v -0.00026214 2.52300007 2.76800004
v -0.00026214 1.0214559294643937 1.5659574994217875
v -0.00026214 -0.012000000000000233 1.2719425548202818
v -0.00026214 -0.01200000000000001 0.0
v -0.00026214 -0.01200000000000001 0.0
v -0.00026214 1.59804907 0.0
v -0.00026214 1.5980490700000003 1.0852929023330566
v -0.00026214 1.5980490700000003 1.0852929023330566
v -0.00026214 1.0214559294643937 1.5659574994217875
v -0.00026214 -0.01200000000000001 0.0
v -0.00026214 -0.012000000000000354 2.19499993
v -0.00026214 -0.012000000000000233 1.2719425548202818
v -0.00026214 1.0214559294643937 1.5659574994217875
v -0.00026214 -0.012000000000000354 2.19499993
v -0.00026214 1.2081985571806038 2.76800004
v -0.00026214 -0.5983241373803447 2.7680000399999996
v -0.00026214 -0.5983241373803447 2.7680000399999996
v -0.00026214 -0.638564139143905 2.194150982269364
v -0.00026214 -0.012000000000000354 2.19499993
v -0.00026214 1.2081985571806038 2.76800004
v -0.00026214 -0.012000000000000354 2.19499993
v -0.00026214 1.0214559294643937 1.5659574994217875
v -0.00026214 -2.2157747640500776 1.724014129960791
v -0.00026214 -2.760478817347834 1.1000000099999998
v -0.00026214 -1.9833576199999996 1.10000001
v -0.00026214 -1.9833576199999996 1.10000001
v -0.00026214 -1.9833576199999998 0.0
v -0.00026214 -1.4879999699999997 0.0
v -0.00026214 -1.9833576199999996 1.10000001
v -0.00026214 -1.4879999699999995 1.5901146348916684
v -0.00026214 -2.2157747640500776 1.724014129960791
v -0.00026214 -1.4879999699999995 1.5901146348916684
v -0.00026214 -1.9833576199999996 1.10000001
v -0.00026214 -1.4879999699999997 0.0
v -0.00026214 -2.2157747640500776 1.724014129960791
v -0.00026214 -1.4879999699999995 1.5901146348916684
v -0.00026214 -1.48799997 2.19300006
v -0.00026214 -1.48799997 2.19300006
v -0.00026214 -0.638564139143905 2.194150982269364
v -0.00026214 -0.5983241373803447 2.7680000399999996
v -0.00026214 -1.48799997 2.19300006
v -0.00026214 -2.496651982126785 2.76800004
v -0.00026214 -2.2157747640500776 1.724014129960791
v -0.00026214 -2.496651982126785 2.76800004
v -0.00026214 -1.48799997 2.19300006
v -0.00026214 -0.5983241373803447 2.7680000399999996
v -0.00026214 -2.2157747640500776 1.724014129960791
v -0.00026214 -2.496651982126785 2.76800004
v -0.00026214 -3.64799981 2.7680000399999996
v -0.00026214 -3.64799981 2.7680000399999996
v -0.00026214 -3.64799981 1.1000000099999998
v -0.00026214 -2.760478817347834 1.1000000099999998
v -0.00026214 -2.760478817347834 1.1000000099999998
v -0.00026214 -2.2157747640500776 1.724014129960791
v -0.00026214 -3.64799981 2.7680000399999996
v 4.832822691016142 2.019544671664391 1.3554978111710032
v 4.597680420285113 2.041141538351053 1.5560639375994874
v 4.572058272164412 2.043494829043825 2.73600005
v 4.832822691016142 2.019544671664391 1.3554978111710032
v 6.10173802 1.90299993 2.73600005
v 6.10173802 1.90299993 1.4908796082589248
v 6.10173802 1.90299993 2.73600005
v 4.832822691016142 2.019544671664391 1.3554978111710032
v 4.572058272164412 2.043494829043825 2.73600005
v 1.7944482452537869 2.2986070777783025 1.4428376873007864
v 0.57073784 2.41099993 1.317073714400179
v 0.5707378400000007 2.41099993 2.7360000500000003
v 0.5707378400000007 2.41099993 2.7360000500000003
v 1.8135836245026142 2.2968495705748935 2.7360000500000003
v 1.7944482452537869 2.2986070777783025 1.4428376873007864
v 4.832822691016142 2.019544671664391 1.3554978111710032
v 6.10173802 1.90299993 1.4908796082589248
v 6.101738020000001 1.90299993 0.04999999999999982
v 6.101738020000001 1.90299993 0.04999999999999982
v 4.837019462225599 2.019159215199914 0.04999999999999982
v 4.832822691016142 2.019544671664391 1.3554978111710032
v 3.4870295567564544 2.1431503288610827 1.2558428978620473
v 4.597680420285113 2.041141538351053 1.5560639375994874
v 4.832822691016142 2.019544671664391 1.3554978111710032
v 3.4870295567564544 2.1431503288610827 1.2558428978620473
v 4.837019462225599 2.019159215199914 0.04999999999999982
v 3.50460183838676 2.1415363858530037 0.04999999999999982
v 4.837019462225599 2.019159215199914 0.04999999999999982
v 3.4870295567564544 2.1431503288610827 1.2558428978620473
v 4.832822691016142 2.019544671664391 1.3554978111710032
v 4.597680420285113 2.041141538351053 1.5560639375994874
v 3.4870295567564544 2.1431503288610827 1.2558428978620473
v 3.1392463699159383 2.1750928081894747 1.5274101843913843
v 3.1392463699159383 2.1750928081894747 1.5274101843913843
v 3.127147488211711 2.1762040415479498 2.7360000500000003
v 4.572058272164412 2.043494829043825 2.73600005
v 4.572058272164412 2.043494829043825 2.73600005
v 4.597680420285113 2.041141538351053 1.5560639375994874
v 3.1392463699159383 2.1750928081894747 1.5274101843913843
v 2.0534825263858663 2.274815826552001 1.22423535381237
v 3.1392463699159383 2.1750928081894747 1.5274101843913843
v 3.4870295567564544 2.1431503288610827 1.2558428978620473
v 2.0534825263858663 2.274815826552001 1.22423535381237
v 3.50460183838676 2.1415363858530037 0.04999999999999982
v 2.0596903125029864 2.274245666500497 0.050000000000000266
v 3.50460183838676 2.1415363858530037 0.04999999999999982
v 2.0534825263858663 2.274815826552001 1.22423535381237
v 3.4870295567564544 2.1431503288610827 1.2558428978620473
v 3.1392463699159383 2.1750928081894747 1.5274101843913843
v 2.0534825263858663 2.274815826552001 1.22423535381237
v 1.7944482452537869 2.2986070777783025 1.4428376873007864
v 3.1392463699159383 2.1750928081894747 1.5274101843913843
v 1.8135836245026142 2.2968495705748935 2.7360000500000003
v 3.127147488211711 2.1762040415479498 2.7360000500000003
v 1.8135836245026142 2.2968495705748935 2.7360000500000003
v 3.1392463699159383 2.1750928081894747 1.5274101843913843
v 1.7944482452537869 2.2986070777783025 1.4428376873007864
v 1.7944482452537869 2.2986070777783025 1.4428376873007864
v 2.0534825263858663 2.274815826552001 1.22423535381237
v 2.0596903125029864 2.274245666500497 0.050000000000000266
v 1.7944482452537869 2.2986070777783025 1.4428376873007864
v 0.5707378400000004 2.41099993 0.05000000000000015
v 0.57073784 2.41099993 1.317073714400179
v 0.5707378400000004 2.41099993 0.05000000000000015
v 1.7944482452537869 2.2986070777783025 1.4428376873007864
v 2.0596903125029864 2.274245666500497 0.050000000000000266
v 6.10173802 1.90299993 2.73600005
v 6.10173802 0.5613685015793288 1.326940207113943
v 6.10173802 1.90299993 1.519538821947998
v 6.10173802 0.5613685015793288 1.326940207113943
v 6.10173802 1.90299993 2.73600005
v 6.10173802 0.2096376399386191 2.73600005
v 6.10173802 0.5613685015793288 1.326940207113943
v 6.10173802 0.2096376399386191 2.73600005
v 6.10173802 0.1996465041263747 1.6508502228226876
v 6.10173802 0.5613685015793288 1.326940207113943
v 6.10173802 0.1996465041263747 1.6508502228226876
v 6.10173802 -0.8461042495680773 1.2591232574776885
v 6.10173802 -0.8461042495680773 1.2591232574776885
v 6.10173802 -0.8392461847471729 0.050000000000000266
v 6.10173802 0.5360251672921276 0.04999999999999982
v 6.10173802 0.5360251672921276 0.04999999999999982
v 6.10173802 0.5613685015793288 1.326940207113943
v 6.10173802 -0.8461042495680773 1.2591232574776885
v 6.10173802 0.5613685015793288 1.326940207113943
v 6.10173802 0.5360251672921276 0.04999999999999982
v 6.10173802 1.9029999300000002 0.04999999999999982
v 6.10173802 1.9029999300000002 0.04999999999999982
v 6.10173802 1.90299993 1.519538821947998
v 6.10173802 0.5613685015793288 1.326940207113943
v 6.10173802 0.2096376399386191 2.73600005
v 6.10173802 -0.8461042495680773 1.2591232574776885
v 6.10173802 0.1996465041263747 1.6508502228226876
v 6.10173802 -0.8461042495680773 1.2591232574776885
v 6.10173802 0.2096376399386191 2.73600005
v 6.10173802 -1.4416907047624437 2.7360000500000003
v 6.10173802 -0.8461042495680773 1.2591232574776885
v 6.10173802 -1.4416907047624437 2.7360000500000003
v 6.10173802 -1.4349533234185052 1.6603665224610342
v 6.10173802 -0.8461042495680773 1.2591232574776885
v 6.10173802 -1.4349533234185052 1.6603665224610342
v 6.10173802 -2.251020707118338 1.2377678422003786
v 6.10173802 -2.251020707118338 1.2377678422003786
v 6.10173802 -2.254982666315214 0.050000000000000266
v 6.10173802 -0.8392461847471729 0.050000000000000266
v 6.10173802 -0.8392461847471729 0.050000000000000266
v 6.10173802 -0.8461042495680773 1.2591232574776885
v 6.10173802 -2.251020707118338 1.2377678422003786
v 6.10173802 -1.4416907047624437 2.7360000500000003
v 6.10173802 -2.251020707118338 1.2377678422003786
v 6.10173802 -1.4349533234185052 1.6603665224610342
v 6.10173802 -2.251020707118338 1.2377678422003786
v 6.10173802 -1.4416907047624437 2.7360000500000003
v 6.10173802 -3.0152094339546305 2.7360000500000003
v 6.10173802 -2.251020707118338 1.2377678422003786
v 6.10173802 -3.0152094339546305 2.7360000500000003
v 6.10173802 -3.0196986609755543 1.6526609009795805
v 6.10173802 -2.251020707118338 1.2377678422003786
v 6.10173802 -3.0196986609755543 1.6526609009795805
v 6.10173802 -3.6278461924260967 1.2688884638973936
v 6.10173802 -2.251020707118338 1.2377678422003786
v 6.10173802 -3.6295976459108594 0.0500000000000006
v 6.10173802 -2.254982666315214 0.050000000000000266
v 6.10173802 -3.6295976459108594 0.0500000000000006
v 6.10173802 -2.251020707118338 1.2377678422003786
v 6.10173802 -3.6278461924260967 1.2688884638973936
v 6.10173802 -3.0152094339546305 2.7360000500000003
v 6.10173802 -3.6278461924260967 1.2688884638973936
v 6.10173802 -3.0196986609755543 1.6526609009795805
v 6.10173802 -3.6278461924260967 1.2688884638973936
v 6.10173802 -3.0152094339546305 2.7360000500000003
v 6.10173802 -4.5821018639993385 2.7360000500000003
v 6.10173802 -3.6278461924260967 1.2688884638973936
v 6.10173802 -4.5821018639993385 2.7360000500000003
v 6.10173802 -4.5808059355378665 1.630734010997024
v 6.10173802 -4.941050289342921 1.3422598745654581
v 6.10173802 -4.5808059355378665 1.630734010997024
v 6.10173802 -4.5821018639993385 2.7360000500000003
v 6.10173802 -4.941050289342921 1.3422598745654581
v 6.10173802 -6.15999997 2.736000050000001
v 6.10173802 -6.15999997 1.5169532766728178
v 6.10173802 -6.15999997 2.736000050000001
v 6.10173802 -4.941050289342921 1.3422598745654581
v 6.10173802 -4.5821018639993385 2.7360000500000003
v 6.10173802 -4.941050289342921 1.3422598745654581
v 6.10173802 -6.15999997 1.5169532766728178
v 6.10173802 -6.159999969999999 0.05000000000000103
v 6.10173802 -6.159999969999999 0.05000000000000103
v 6.10173802 -4.918709117369652 0.050000000000000655
v 6.10173802 -4.941050289342921 1.3422598745654581
v 6.10173802 -3.6278461924260967 1.2688884638973936
v 6.10173802 -4.5808059355378665 1.630734010997024
v 6.10173802 -4.941050289342921 1.3422598745654581
v 6.10173802 -3.6278461924260967 1.2688884638973936
v 6.10173802 -4.918709117369652 0.050000000000000655
v 6.10173802 -3.6295976459108594 0.0500000000000006
v 6.10173802 -4.918709117369652 0.050000000000000655
v 6.10173802 -3.6278461924260967 1.2688884638973936
v 6.10173802 -4.941050289342921 1.3422598745654581
v 1.7965677414716954 -6.15999997 1.4538581972224653
v 1.7801033653938325 -6.15999997 2.7360000500000003
v 0.57073784 -6.15999997 2.73600005
v 0.57073784 -6.15999997 2.73600005
v 0.5707378399999999 -6.15999997 1.2831785776843083
v 1.7965677414716954 -6.15999997 1.4538581972224653
v 1.7965677414716954 -6.15999997 1.4538581972224653
v 2.0807385758148227 -6.15999997 1.2280184833666654
v 3.116991489319639 -6.15999997 1.5480360056805589
v 3.116991489319639 -6.15999997 1.5480360056805589
v 3.112803595158066 -6.15999997 2.7360000500000003
v 1.7801033653938325 -6.15999997 2.7360000500000003
v 1.7801033653938325 -6.15999997 2.7360000500000003
v 1.7965677414716954 -6.15999997 1.4538581972224653
v 3.116991489319639 -6.15999997 1.5480360056805589
v 0.5707378399999996 -6.15999997 0.04999999999999938
v 1.7965677414716954 -6.15999997 1.4538581972224653
v 0.5707378399999999 -6.15999997 1.2831785776843083
v 1.7965677414716954 -6.15999997 1.4538581972224653
v 0.5707378399999996 -6.15999997 0.04999999999999938
v 2.09784695900627 -6.15999997 0.04999999999999938
v 1.7965677414716954 -6.15999997 1.4538581972224653
v 2.09784695900627 -6.15999997 0.04999999999999938
v 2.0807385758148227 -6.15999997 1.2280184833666654
v 3.5205918833491396 -6.15999997 1.2537529120957671
v 3.116991489319639 -6.15999997 1.5480360056805589
v 2.0807385758148227 -6.15999997 1.2280184833666654
v 3.5205918833491396 -6.15999997 1.2537529120957671
v 2.09784695900627 -6.15999997 0.04999999999999938
v 3.530799793609601 -6.15999997 0.0499999999999996
v 2.09784695900627 -6.15999997 0.04999999999999938
v 3.5205918833491396 -6.15999997 1.2537529120957671
v 2.0807385758148227 -6.15999997 1.2280184833666654
v 6.101738019999999 -6.15999997 2.7360000500000003
v 4.8493671664622955 -6.15999997 1.3511732357501123
v 6.101738019999999 -6.15999997 1.5240043044501324
v 4.8493671664622955 -6.15999997 1.3511732357501123
v 6.101738019999999 -6.15999997 2.7360000500000003
v 4.551361107917025 -6.15999997 2.7360000500000003
v 4.8493671664622955 -6.15999997 1.3511732357501123
v 4.551361107917025 -6.15999997 2.7360000500000003
v 4.5718112152318415 -6.15999997 1.5765249245275386
v 4.8493671664622955 -6.15999997 1.3511732357501123
v 4.5718112152318415 -6.15999997 1.5765249245275386
v 3.5205918833491396 -6.15999997 1.2537529120957671
v 3.5205918833491396 -6.15999997 1.2537529120957671
v 3.530799793609601 -6.15999997 0.0499999999999996
v 4.869689390053475 -6.15999997 0.04999999999999977
v 4.869689390053475 -6.15999997 0.04999999999999977
v 4.8493671664622955 -6.15999997 1.3511732357501123
v 3.5205918833491396 -6.15999997 1.2537529120957671
v 3.116991489319639 -6.15999997 1.5480360056805589
v 3.5205918833491396 -6.15999997 1.2537529120957671
v 4.5718112152318415 -6.15999997 1.5765249245275386
v 3.116991489319639 -6.15999997 1.5480360056805589
v 4.551361107917025 -6.15999997 2.7360000500000003
v 3.112803595158066 -6.15999997 2.7360000500000003
v 4.551361107917025 -6.15999997 2.7360000500000003
v 3.116991489319639 -6.15999997 1.5480360056805589
v 4.5718112152318415 -6.15999997 1.5765249245275386
v 4.8493671664622955 -6.15999997 1.3511732357501123
v 4.869689390053475 -6.15999997 0.04999999999999977
v 6.101738019999999 -6.15999997 0.049999999999999996
v 6.101738019999999 -6.15999997 0.049999999999999996
v 6.101738019999999 -6.15999997 1.5240043044501324
v 4.8493671664622955 -6.15999997 1.3511732357501123
v -4.41604285 2.92636111 1.10000001
v -4.51011812 1.98546776 1.10000001
v -6.251262230000001 2.15584922 1.10000001
v -6.251262230000001 2.15584922 1.10000001
v -6.25126223 3.09399991 1.10000001
v -4.41604285 2.92636111 1.10000001
v -4.51011812 1.98546776 1.0000000100000002
v -4.41604285 2.92636111 0.0
v -4.51011812 1.9854677599999997 -5.551115123125783e-17
v -4.51011812 1.98546776 1.0000000100000002
v -4.51011812 1.9854677599999997 1.1000000100000003
v -4.41604285 2.92636111 1.1000000100000003
v -4.41604285 2.92636111 0.0
v -4.51011812 1.98546776 1.0000000100000002
v -4.41604285 2.92636111 1.1000000100000003
v -4.51011812 1.98546776 1.00000001
v -4.51011812 1.98546776 -1.1102230246251565e-16
v -6.25126223 2.15584922 -1.6623471656375042e-16
v -4.51011812 1.98546776 1.00000001
v -6.25126223 2.15584922 1.10000001
v -4.51011812 1.98546776 1.10000001
v -6.25126223 2.15584922 1.10000001
v -4.51011812 1.98546776 1.00000001
v -6.25126223 2.15584922 -1.6623471656375042e-16
v -4.52168292 -3.05310105 1.10000001
v -6.25126223 -3.05310105 1.10000001
v -6.25126223 -3.05310105 -1.1102230246251565e-16
v -6.25126223 -3.05310105 -1.1102230246251565e-16
v -4.52168292 -3.05310105 -8.177322744583182e-17
v -4.52168292 -3.05310105 1.10000001
v -4.52168292 -3.0531010499999995 1.10000001
v -4.52168292 -3.64799981 1.10000001
v -6.251262230000001 -3.64799981 1.10000001
v -6.251262230000001 -3.64799981 1.10000001
v -6.25126223 -3.05310105 1.10000001
v -4.52168292 -3.0531010499999995 1.10000001
v -4.52168292 -3.05310105 1.1000000100000003
v -4.52168292 -3.05310105 0.0
v -4.52168292 -3.64799981 0.0
v -4.52168292 -3.64799981 0.0
v -4.52168292 -3.64799981 1.1000000100000003
v -4.52168292 -3.05310105 1.1000000100000003
v -0.00026213999999985527 2.52300007 1.10000001
v -0.00026214 1.59804907 1.10000001
v -1.7412999100000002 1.7145899199999999 1.10000001
v -1.7412999100000002 1.7145899199999999 1.10000001
v -1.6769522899999998 2.67615797 1.10000001
v -0.00026213999999985527 2.52300007 1.10000001
v -1.7412999100000004 1.71458992 1.00000001
v -0.00026214 1.59804907 1.10000001
v -0.0002621399999999663 1.59804907 -2.220446049250313e-16
v -0.0002621399999999663 1.59804907 -2.220446049250313e-16
v -1.7412999100000004 1.71458992 -2.0269728106123305e-16
v -1.7412999100000004 1.71458992 1.00000001
v -0.00026214 1.59804907 1.10000001
v -1.7412999100000004 1.71458992 1.00000001
v -1.7412999100000004 1.71458992 1.10000001
v -1.7412999100000002 1.7145899199999999 1.00000001
v -1.67695229 2.67615797 1.10000001
v -1.7412999100000002 1.71458992 1.10000001
v -1.6769522899999998 2.6761579700000007 -1.6653345369377348e-16
v -1.7412999100000002 1.7145899199999999 1.00000001
v -1.74129991 1.71458992 -4.567339452123481e-17
v -1.7412999100000002 1.7145899199999999 1.00000001
v -1.6769522899999998 2.6761579700000007 -1.6653345369377348e-16
v -1.67695229 2.67615797 1.10000001
v -5.44190039 1.4788138000000002 1.00000001
v -5.44190039 1.4788138 0.0
v -5.44190039 -0.09118618000000017 -1.1102230246251565e-16
v -5.44190039 -0.09118618000000017 -1.1102230246251565e-16
v -5.44190039 -0.09118618000000006 1.0000000100000002
v -5.44190039 1.4788138000000002 1.00000001
v -3.55628642 2.55879575 1.00000001
v -2.39004694 2.52444417 0.0
v -3.55628642 2.55879575 -1.1102230246251565e-16
v -2.39004694 2.52444417 0.0
v -3.55628642 2.55879575 1.00000001
v -2.39004694 2.52444417 1.0000000100000002
v -1.74129991 1.7145899199999999 -3.0490106068438855e-16
v -2.39004694 2.52444417 1.00000001
v -1.74129991 1.7145899199999999 1.00000001
v -2.39004694 2.52444417 1.00000001
v -1.74129991 1.7145899199999999 -3.0490106068438855e-16
v -2.39004694 2.52444417 -3.3306690738754696e-16
v -5.44190039 1.4788138 1.4343640221042545e-17
v -4.51011812 1.98546776 1.00000001
v -4.51011812 1.9854677599999997 0.0
v -4.51011812 1.98546776 1.00000001
v -5.44190039 1.4788138 1.4343640221042545e-17
v -5.44190039 1.4788138000000002 1.00000001
v -2.80271478 -3.64799981 -7.01321664137976e-18
v -2.80271478 -2.79835749 1.10000001
v -2.80271478 -3.64799981 1.10000001
v -2.80271478 -2.79835749 1.10000001
v -2.80271478 -3.64799981 -7.01321664137976e-18
v -2.80271478 -2.79835749 -1.6653345369377348e-16
v -1.8673631361014655 -2.79835749 2.220446049250313e-16
v -2.80271478 -2.79835749 1.10000001
v -2.8027147800000005 -2.79835749 0.0
v -2.80271478 -2.79835749 1.10000001
v -1.8673631361014655 -2.79835749 2.220446049250313e-16
v -1.8625318694129884 -2.79835749 1.10000001
v -1.8625318694129884 -2.79835749 1.10000001
v -0.9127148300000004 -2.79835749 4.070404603785277e-16
v -0.9127148300000003 -2.79835749 1.1000000100000005
v -0.9127148300000004 -2.79835749 4.070404603785277e-16
v -1.8625318694129884 -2.79835749 1.10000001
v -1.8673631361014655 -2.79835749 2.220446049250313e-16
v -0.9127148299999999 -2.79835749 1.10000001
v -0.9127148299999999 -1.98335762 1.10000001
v -0.0002621399999999108 -1.9833576199999998 1.10000001
v -0.9127148299999999 -2.79835749 1.10000001
v -0.00026214 -3.64799981 1.10000001
v -1.149827540046178 -3.64799981 1.10000001
v -1.149827540046178 -3.64799981 1.10000001
v -1.3562713159117084 -2.79835749 1.10000001
v -0.9127148299999999 -2.79835749 1.10000001
v -0.00026214 -3.64799981 1.10000001
v -0.9127148299999999 -2.79835749 1.10000001
v -0.0002621399999999108 -1.9833576199999998 1.10000001
v -1.3562713159117084 -2.79835749 1.10000001
v -2.80271478 -3.64799981 1.10000001
v -2.80271478 -2.79835749 1.10000001
v -2.80271478 -3.64799981 1.10000001
v -1.3562713159117084 -2.79835749 1.10000001
v -1.149827540046178 -3.64799981 1.10000001
v -0.91271483 -1.98335762 -2.220446049250313e-16
v -0.91271483 -1.98335762 1.10000001
v -0.91271483 -2.79835749 1.10000001
v -0.91271483 -2.79835749 1.10000001
v -0.91271483 -2.79835749 -2.4019741118320573e-16
v -0.91271483 -1.98335762 -2.220446049250313e-16
v -0.00026214000000016367 -1.98335762 6.652804067786237e-17
v -0.91271483 -1.98335762 1.10000001
v -0.9127148300000001 -1.98335762 -5.551115123125783e-17
v -0.91271483 -1.98335762 1.10000001
v -0.00026214000000016367 -1.98335762 6.652804067786237e-17
v -0.0002621399999999108 -1.98335762 1.1000000100000003
v -0.9127148299999999 -1.9833576200000003 0.0
v -1.1542909213455677 -0.6567752522196024 0.0
v -0.00026214000000004956 -0.6521637594375846 0.0
v -0.00026214000000004956 -0.6521637594375846 0.0
v -0.00026214 -1.98335762 0.0
v -0.9127148299999999 -1.9833576200000003 0.0
v -0.9127148299999999 -1.9833576200000003 0.0
v -0.9127148299999999 -2.030617358204021 0.0
v -1.4971442565601725 -1.3309648862455912 0.0
v -1.1542909213455677 -0.6567752522196024 0.0
v -0.9127148299999999 -1.9833576200000003 0.0
v -1.4971442565601725 -1.3309648862455912 0.0
v -0.0002621400000001328 -0.011999999999999567 0.0
v -1.5874231493416522 0.2699479013157773 0.0
v -0.0002621400000001328 0.8594639120200998 0.0
v -0.0002621400000001328 -0.011999999999999567 0.0
v -0.00026214000000004956 -0.6521637594375846 0.0
v -1.1542909213455677 -0.6567752522196024 0.0
v -1.5874231493416522 0.2699479013157773 0.0
v -0.0002621400000001328 -0.011999999999999567 0.0
v -1.1542909213455677 -0.6567752522196024 0.0
v -2.7443049851686903 -0.2686435820811872 0.0
v -2.2043988153807073 -1.473858897469186 0.0
v -2.7473603778035485 -1.0695206846709486 0.0
v -1.5874231493416522 0.2699479013157773 0.0
v -2.7443049851686903 -0.2686435820811872 0.0
v -1.727794345032261 0.3462368478456499 0.0
v -2.7443049851686903 -0.2686435820811872 0.0
v -1.5874231493416522 0.2699479013157773 0.0
v -1.1542909213455677 -0.6567752522196024 0.0
v -2.7443049851686903 -0.2686435820811872 0.0
v -1.4971442565601725 -1.3309648862455912 0.0
v -2.2043988153807073 -1.473858897469186 0.0
v -1.4971442565601725 -1.3309648862455912 0.0
v -2.7443049851686903 -0.2686435820811872 0.0
v -1.1542909213455677 -0.6567752522196024 0.0
v -3.55628642 2.55879575 0.0
v -3.273411127240503 1.2163348840131274 0.0
v -3.5925315059667673 2.537009598119428 0.0
v -3.273411127240503 1.2163348840131274 0.0
v -3.55628642 2.55879575 0.0
v -2.39004694 2.524444170000001 0.0
v -2.39004694 2.524444170000001 0.0
v -1.761934393549233 1.7403486879421086 0.0
v -2.003033766024573 1.2255650201901833 0.0
v -3.273411127240503 1.2163348840131274 0.0
v -2.39004694 2.524444170000001 0.0
v -2.003033766024573 1.2255650201901833 0.0
v -1.5874231493416522 0.2699479013157773 0.0
v -1.727794345032261 0.3462368478456499 0.0
v -2.003033766024573 1.2255650201901833 0.0
v -2.003033766024573 1.2255650201901833 0.0
v -1.761934393549233 1.7403486879421086 0.0
v -1.74129991 1.7145899200000008 0.0
v -1.74129991 1.7145899200000008 0.0
v -0.0002621400000001328 1.5980490700000007 0.0
v -0.0002621400000001328 0.8594639120200998 0.0
v -1.74129991 1.7145899200000008 0.0
v -1.5874231493416522 0.2699479013157773 0.0
v -2.003033766024573 1.2255650201901833 0.0
v -1.5874231493416522 0.2699479013157773 0.0
v -1.74129991 1.7145899200000008 0.0
v -0.0002621400000001328 0.8594639120200998 0.0
v -2.2043988153807073 -1.473858897469186 0.0
v -1.4971442565601725 -1.3309648862455912 0.0
v -0.9127148299999999 -2.030617358204021 0.0
v -0.9127148299999999 -2.030617358204021 0.0
v -0.9127148299999996 -2.79835749 0.0
v -2.4534231008986156 -2.79835749 0.0
v -2.4534231008986156 -2.79835749 0.0
v -2.2043988153807073 -1.473858897469186 0.0
v -0.9127148299999999 -2.030617358204021 0.0
v -3.5892181122363263 0.2990710935725098 0.0
v -3.6405253642598425 -1.4479299006975137 0.0
v -4.442177008015861 -0.6870876547274853 0.0
v -3.6405253642598425 -1.4479299006975137 0.0
v -3.5892181122363263 0.2990710935725098 0.0
v -2.7443049851686903 -0.2686435820811872 0.0
v -3.6405253642598425 -1.4479299006975137 0.0
v -2.7443049851686903 -0.2686435820811872 0.0
v -2.7473603778035485 -1.0695206846709486 0.0
v -3.273411127240503 1.2163348840131274 0.0
v -3.5892181122363263 0.2990710935725098 0.0
v -3.6575497619242787 0.6793624819427109 0.0
v -2.7443049851686903 -0.2686435820811872 0.0
v -3.273411127240503 1.2163348840131274 0.0
v -2.003033766024573 1.2255650201901833 0.0
v -2.003033766024573 1.2255650201901833 0.0
v -1.727794345032261 0.3462368478456499 0.0
v -2.7443049851686903 -0.2686435820811872 0.0
v -3.5892181122363263 0.2990710935725098 0.0
v -3.273411127240503 1.2163348840131274 0.0
v -2.7443049851686903 -0.2686435820811872 0.0
v -2.2043988153807073 -1.473858897469186 0.0
v -2.4534231008986156 -2.79835749 0.0
v -2.8027147799999996 -2.79835749 0.0
v -2.8027147799999996 -2.79835749 0.0
v -2.8027147799999996 -2.8750368704789926 0.0
v -3.7855197977377726 -2.1645141669500343 0.0
v -2.2043988153807073 -1.473858897469186 0.0
v -3.6405253642598425 -1.4479299006975137 0.0
v -2.7473603778035485 -1.0695206846709486 0.0
v -3.6405253642598425 -1.4479299006975137 0.0
v -2.2043988153807073 -1.473858897469186 0.0
v -2.8027147799999996 -2.79835749 0.0
v -3.6405253642598425 -1.4479299006975137 0.0
v -2.8027147799999996 -2.79835749 0.0
v -3.7855197977377726 -2.1645141669500343 0.0
v -4.521682919999999 -3.05310105 0.0
v -3.7855197977377726 -2.1645141669500343 0.0
v -2.8027147799999996 -2.8750368704789926 0.0
v -4.521682919999999 -3.05310105 0.0
v -2.8027147799999996 -3.64799981 0.0
v -4.521682919999999 -3.64799981 0.0
v -4.521682919999999 -3.05310105 0.0
v -4.797251279550394 -3.0531010499999995 0.0
v -4.6174337700895265 -2.5858418553396185 0.0
v -2.8027147799999996 -3.64799981 0.0
v -4.521682919999999 -3.05310105 0.0
v -2.8027147799999996 -2.8750368704789926 0.0
v -3.7855197977377726 -2.1645141669500343 0.0
v -4.521682919999999 -3.05310105 0.0
v -4.6174337700895265 -2.5858418553396185 0.0
v -3.7855197977377726 -2.1645141669500343 0.0
v -4.6174337700895265 -2.5858418553396185 0.0
v -5.3435700826576005 -1.4599009461809727 0.0
v -5.3435700826576005 -1.4599009461809727 0.0
v -4.675804734188606 -0.693350890223376 0.0
v -4.442177008015861 -0.6870876547274853 0.0
v -5.3435700826576005 -1.4599009461809727 0.0
v -3.6405253642598425 -1.4479299006975137 0.0
v -3.7855197977377726 -2.1645141669500343 0.0
v -3.6405253642598425 -1.4479299006975137 0.0
v -5.3435700826576005 -1.4599009461809727 0.0
v -4.442177008015861 -0.6870876547274853 0.0
v -4.442177008015861 -0.6870876547274853 0.0
v -4.675804734188606 -0.693350890223376 0.0
v -5.4514643226591 0.31989990705981475 0.0
v -3.5892181122363263 0.2990710935725098 0.0
v -4.7839801479215005 1.0648416444515405 0.0
v -3.6575497619242787 0.6793624819427109 0.0
v -4.7839801479215005 1.0648416444515405 0.0
v -3.5892181122363263 0.2990710935725098 0.0
v -4.442177008015861 -0.6870876547274853 0.0
v -4.7839801479215005 1.0648416444515405 0.0
v -4.442177008015861 -0.6870876547274853 0.0
v -5.4514643226591 0.31989990705981475 0.0
v -4.510118119999999 1.9854677600000006 0.0
v -3.6575497619242787 0.6793624819427109 0.0
v -4.7839801479215005 1.0648416444515405 0.0
v -4.7839801479215005 1.0648416444515405 0.0
v -4.96733384038545 2.0302090778075343 0.0
v -4.510118119999999 1.9854677600000006 0.0
v -4.510118119999999 1.9854677600000006 0.0
v -3.5925315059667673 2.537009598119428 0.0
v -3.273411127240503 1.2163348840131274 0.0
v -3.6575497619242787 0.6793624819427109 0.0
v -4.510118119999999 1.9854677600000006 0.0
v -3.273411127240503 1.2163348840131274 0.0
v -6.251262229999999 2.155849220000001 0.0
v -5.4514643226591 0.31989990705981475 0.0
v -6.251262229999999 0.31996140708681775 0.0
v -4.7839801479215005 1.0648416444515405 0.0
v -6.251262229999999 2.155849220000001 0.0
v -4.96733384038545 2.0302090778075343 0.0
v -5.4514643226591 0.31989990705981475 0.0
v -6.251262229999999 2.155849220000001 0.0
v -4.7839801479215005 1.0648416444515405 0.0
v -6.251262229999999 -3.0531010499999995 0.0
v -4.6174337700895265 -2.5858418553396185 0.0
v -4.797251279550394 -3.0531010499999995 0.0
v -5.3435700826576005 -1.4599009461809727 0.0
v -6.251262229999999 -3.0531010499999995 0.0
v -6.251262229999998 -1.4957248077245997 0.0
v -4.6174337700895265 -2.5858418553396185 0.0
v -6.251262229999999 -3.0531010499999995 0.0
v -5.3435700826576005 -1.4599009461809727 0.0
v -5.4514643226591 0.31989990705981475 0.0
v -4.675804734188606 -0.693350890223376 0.0
v -5.3435700826576005 -1.4599009461809727 0.0
v -5.4514643226591 0.31989990705981475 0.0
v -6.251262229999998 -1.4957248077245997 0.0
v -6.251262229999999 0.31996140708681775 0.0
v -6.251262229999998 -1.4957248077245997 0.0
v -5.4514643226591 0.31989990705981475 0.0
v -5.3435700826576005 -1.4599009461809727 0.0
v -4.51011812 1.98546776 1.00000001
v -3.55628642 2.55879575 0.0
v -4.51011812 1.98546776 0.0
v -3.55628642 2.55879575 0.0
v -4.51011812 1.98546776 1.00000001
v -3.55628642 2.55879575 1.00000001
v 0.57073784 -1.48799997 0.04999999999999983
v -0.00026214 -1.48799997 2.19300006
v -0.0002621400000000218 -1.48799997 1.6653345369377348e-16
v -0.00026214 -1.48799997 2.19300006
v 0.57073784 -1.48799997 0.04999999999999983
v 0.57073784 -1.48799997 2.19300006
v 0.6757168 -1.48499143 1.1035565769124092
v 0.57073784 -0.011999999999999678 0.04999999999999993
v 0.6757168 -1.48499143 0.05
v 0.57073784 -0.011999999999999678 0.04999999999999993
v 0.6757168 -1.48499143 1.1035565769124092
v 0.57073784 -0.011999999999999955 1.1292562410294247
v 0.57073784 -0.011999999999999955 1.1292562410294247
v 0.6757168 -1.4849914300000002 2.1949999300000003
v 0.57073784 -0.011999999999999972 2.19499993
v 0.6757168 -1.4849914300000002 2.1949999300000003
v 0.57073784 -0.011999999999999955 1.1292562410294247
v 0.6757168 -1.48499143 1.1035565769124092
v 4.785720915545077 -4.9352217190181 0.05
v 6.101738020000001 -4.89558335966466 0.05
v 6.10173802 -6.15999997 0.05
v 6.10173802 -6.15999997 0.05
v 4.641614566848295 -6.15999997 0.05
v 4.785720915545077 -4.9352217190181 0.05
v 4.865377225772613 -3.6117671665357465 0.05
v 4.510435451021453 -3.0619948403472383 0.05
v 4.857965856135002 -2.271383509993493 0.05
v 4.865377225772613 -3.6117671665357465 0.05
v 6.10173802 -2.279464546000421 0.05000000000000001
v 6.10173802 -3.62430233132966 0.05
v 6.10173802 -2.279464546000421 0.05000000000000001
v 4.865377225772613 -3.6117671665357465 0.05
v 4.857965856135002 -2.271383509993493 0.05
v 4.641614566848295 -6.15999997 0.05
v 3.421227562951003 -6.15999997 0.049999999999999996
v 3.264151690537408 -5.005668869890046 0.05
v 4.785720915545077 -4.9352217190181 0.05
v 3.583391164939286 -4.597375738166324 0.05
v 4.5154733268266005 -4.605121093580461 0.05
v 3.264151690537408 -5.005668869890046 0.05
v 4.785720915545077 -4.9352217190181 0.05
v 4.641614566848295 -6.15999997 0.05
v 3.583391164939286 -4.597375738166324 0.05
v 4.785720915545077 -4.9352217190181 0.05
v 3.264151690537408 -5.005668869890046 0.05
v 4.785720915545077 -4.9352217190181 0.05
v 4.5154733268266005 -4.605121093580461 0.05
v 4.865377225772613 -3.6117671665357465 0.05
v 4.865377225772613 -3.6117671665357465 0.05
v 6.10173802 -3.62430233132966 0.05
v 6.101738020000001 -4.89558335966466 0.05
v 6.101738020000001 -4.89558335966466 0.05
v 4.785720915545077 -4.9352217190181 0.05
v 4.865377225772613 -3.6117671665357465 0.05
v 4.909422267126468 -0.8714304654837868 0.05000000000000001
v 4.639765721134786 -0.3451197502275718 0.05000000000000001
v 5.043606514933115 0.5312639623408333 0.05000000000000001
v 5.043606514933115 0.5312639623408333 0.05000000000000001
v 6.101738020000001 0.6013499557091433 0.05000000000000001
v 6.101738020000001 -0.9322441796834324 0.05000000000000001
v 6.101738020000001 -0.9322441796834324 0.05000000000000001
v 4.909422267126468 -0.8714304654837868 0.05000000000000001
v 5.043606514933115 0.5312639623408333 0.05000000000000001
v 1.8733413727928379 -6.159999970000001 0.049999999999999996
v 3.264151690537408 -5.005668869890046 0.05
v 3.421227562951003 -6.15999997 0.049999999999999996
v 3.264151690537408 -5.005668869890046 0.05
v 1.8733413727928379 -6.159999970000001 0.049999999999999996
v 1.9890699433102832 -4.917742503275906 0.049999999999999996
v 4.865377225772613 -3.6117671665357465 0.05
v 3.583391164939286 -4.597375738166324 0.05
v 3.2020559986971104 -3.646443324736274 0.05
v 4.865377225772613 -3.6117671665357465 0.05
v 3.5303542331735787 -3.092268309896014 0.05
v 4.510435451021453 -3.0619948403472383 0.05
v 3.583391164939286 -4.597375738166324 0.05
v 4.865377225772613 -3.6117671665357465 0.05
v 4.5154733268266005 -4.605121093580461 0.05
v 3.5303542331735787 -3.092268309896014 0.05
v 4.865377225772613 -3.6117671665357465 0.05
v 3.2020559986971104 -3.646443324736274 0.05
v 0.5707378400000009 -6.159999970000001 0.049999999999999996
v 1.9890699433102832 -4.917742503275906 0.049999999999999996
v 1.8733413727928379 -6.159999970000001 0.049999999999999996
v 1.9890699433102832 -4.917742503275906 0.049999999999999996
v 0.5707378400000009 -6.159999970000001 0.049999999999999996
v 0.5707378400000009 -4.702518144220787 0.049999999999999996
v 1.9890699433102832 -4.917742503275906 0.049999999999999996
v 0.5707378400000009 -4.702518144220787 0.049999999999999996
v 1.8612432554548135 -4.746506143490312 0.049999999999999996
v 4.857965856135002 -2.271383509993493 0.05
v 3.5303542331735787 -3.092268309896014 0.05
v 3.1307159988957696 -2.262720493811522 0.05
v 4.857965856135002 -2.271383509993493 0.05
v 3.505410066119605 -1.6223328325357722 0.05
v 4.529173651241231 -1.646783275968713 0.05
v 3.5303542331735787 -3.092268309896014 0.05
v 4.857965856135002 -2.271383509993493 0.05
v 4.510435451021453 -3.0619948403472383 0.05
v 3.505410066119605 -1.6223328325357722 0.05
v 4.857965856135002 -2.271383509993493 0.05
v 3.1307159988957696 -2.262720493811522 0.05
v 2.118625819976453 -3.6960087789679004 0.05
v 1.9890699433102832 -4.917742503275906 0.049999999999999996
v 1.8612432554548135 -4.746506143490312 0.049999999999999996
v 3.264151690537408 -5.005668869890046 0.05
v 2.118625819976453 -3.6960087789679004 0.05
v 3.2020559986971104 -3.646443324736274 0.05
v 3.2020559986971104 -3.646443324736274 0.05
v 3.583391164939286 -4.597375738166324 0.05
v 3.264151690537408 -5.005668869890046 0.05
v 2.118625819976453 -3.6960087789679004 0.05
v 3.264151690537408 -5.005668869890046 0.05
v 1.9890699433102832 -4.917742503275906 0.049999999999999996
v 3.1307159988957696 -2.262720493811522 0.05
v 2.118625819976453 -3.6960087789679004 0.05
v 1.7940420893368159 -3.2623392587034465 0.05
v 1.7940420893368159 -3.2623392587034465 0.05
v 2.1074938285451497 -2.2682881663245373 0.05
v 3.1307159988957696 -2.262720493811522 0.05
v 3.1307159988957696 -2.262720493811522 0.05
v 3.5303542331735787 -3.092268309896014 0.05
v 3.2020559986971104 -3.646443324736274 0.05
v 2.118625819976453 -3.6960087789679004 0.05
v 3.1307159988957696 -2.262720493811522 0.05
v 3.2020559986971104 -3.646443324736274 0.05
v 0.5707378400000009 -4.702518144220787 0.049999999999999996
v 2.118625819976453 -3.6960087789679004 0.05
v 1.8612432554548135 -4.746506143490312 0.049999999999999996
v 1.7940420893368159 -3.2623392587034465 0.05
v 0.5707378400000009 -4.702518144220787 0.049999999999999996
v 0.5707378400000014 -3.2952746363464764 0.049999999999999996
v 2.118625819976453 -3.6960087789679004 0.05
v 0.5707378400000009 -4.702518144220787 0.049999999999999996
v 1.7940420893368159 -3.2623392587034465 0.05
v 3.505410066119605 -1.6223328325357722 0.05
v 3.1511226266323646 -0.8137454589222699 0.05
v 3.5857580627990853 -0.1999573506808905 0.05000000000000001
v 4.529173651241231 -1.646783275968713 0.05
v 4.639765721134786 -0.3451197502275718 0.05000000000000001
v 4.909422267126468 -0.8714304654837868 0.05000000000000001
v 4.639765721134786 -0.3451197502275718 0.05000000000000001
v 4.529173651241231 -1.646783275968713 0.05
v 3.505410066119605 -1.6223328325357722 0.05
v 4.639765721134786 -0.3451197502275718 0.05000000000000001
v 3.505410066119605 -1.6223328325357722 0.05
v 3.5857580627990853 -0.1999573506808905 0.05000000000000001
v 4.857965856135002 -2.271383509993493 0.05
v 4.529173651241231 -1.646783275968713 0.05
v 4.909422267126468 -0.8714304654837868 0.05000000000000001
v 4.857965856135002 -2.271383509993493 0.05
v 6.101738020000001 -0.9322441796834324 0.05000000000000001
v 6.10173802 -2.279464546000421 0.05000000000000001
v 6.101738020000001 -0.9322441796834324 0.05000000000000001
v 4.857965856135002 -2.271383509993493 0.05
v 4.909422267126468 -0.8714304654837868 0.05000000000000001
v 3.1307159988957696 -2.262720493811522 0.05
v 2.1074938285451497 -2.2682881663245373 0.05
v 1.793829869128726 -1.835706711834647 0.05
v 1.793829869128726 -1.835706711834647 0.05
v 2.1598529987196047 -0.7438272666801977 0.05
v 3.1511226266323646 -0.8137454589222699 0.05
v 1.793829869128726 -1.835706711834647 0.05
v 3.505410066119605 -1.6223328325357722 0.05
v 3.1307159988957696 -2.262720493811522 0.05
v 3.505410066119605 -1.6223328325357722 0.05
v 1.793829869128726 -1.835706711834647 0.05
v 3.1511226266323646 -0.8137454589222699 0.05
v 1.793829869128726 -1.835706711834647 0.05
v 2.1074938285451497 -2.2682881663245373 0.05
v 1.7940420893368159 -3.2623392587034465 0.05
v 1.793829869128726 -1.835706711834647 0.05
v 0.5707378400000014 -3.2952746363464764 0.049999999999999996
v 0.5707378400000013 -1.7987235601858238 0.05
v 0.5707378400000014 -3.2952746363464764 0.049999999999999996
v 1.793829869128726 -1.835706711834647 0.05
v 1.7940420893368159 -3.2623392587034465 0.05
v 6.101738020000001 1.9029999300000005 0.05000000000000001
v 4.5437827995176665 1.156631906751508 0.05000000000000001
v 4.6562096571888745 2.0357658646248753 0.05000000000000001
v 5.043606514933115 0.5312639623408333 0.05000000000000001
v 6.101738020000001 1.9029999300000005 0.05000000000000001
v 6.101738020000001 0.6013499557091433 0.05000000000000001
v 6.101738020000001 1.9029999300000005 0.05000000000000001
v 5.043606514933115 0.5312639623408333 0.05000000000000001
v 4.5437827995176665 1.156631906751508 0.05000000000000001
v 4.5437827995176665 1.156631906751508 0.05000000000000001
v 3.5857580627990853 -0.1999573506808905 0.05000000000000001
v 3.339199884575553 0.6944558157783802 0.05000000000000001
v 4.639765721134786 -0.3451197502275718 0.05000000000000001
v 4.5437827995176665 1.156631906751508 0.05000000000000001
v 5.043606514933115 0.5312639623408333 0.05000000000000001
v 4.5437827995176665 1.156631906751508 0.05000000000000001
v 4.639765721134786 -0.3451197502275718 0.05000000000000001
v 3.5857580627990853 -0.1999573506808905 0.05000000000000001
v 3.1511226266323646 -0.8137454589222699 0.05
v 2.1598529987196047 -0.7438272666801977 0.05
v 1.9003545558668407 -0.39199108327489207 0.05
v 3.339199884575553 0.6944558157783802 0.05000000000000001
v 2.118021177314234 0.6221236688623228 0.05
v 3.1361785813757788 0.8315574727977342 0.05000000000000001
v 2.118021177314234 0.6221236688623228 0.05
v 3.339199884575553 0.6944558157783802 0.05000000000000001
v 3.5857580627990853 -0.1999573506808905 0.05000000000000001
v 3.5857580627990853 -0.1999573506808905 0.05000000000000001
v 3.1511226266323646 -0.8137454589222699 0.05
v 1.9003545558668407 -0.39199108327489207 0.05
v 2.118021177314234 0.6221236688623228 0.05
v 3.5857580627990853 -0.1999573506808905 0.05000000000000001
v 1.9003545558668407 -0.39199108327489207 0.05
v 0.5707378400000018 -1.4879999700000006 0.05
v 2.1598529987196047 -0.7438272666801977 0.05
v 1.793829869128726 -1.835706711834647 0.05
v 1.793829869128726 -1.835706711834647 0.05
v 0.5707378400000013 -1.7987235601858238 0.05
v 0.5707378400000018 -1.4879999700000006 0.05
v 0.5707378400000018 -1.4879999700000006 0.05
v 0.5707378400000018 -0.4067212149125124 0.05
v 1.9003545558668407 -0.39199108327489207 0.05
v 2.1598529987196047 -0.7438272666801977 0.05
v 0.5707378400000018 -1.4879999700000006 0.05
v 1.9003545558668407 -0.39199108327489207 0.05
v 4.5437827995176665 1.156631906751508 0.05000000000000001
v 3.339199884575553 0.6944558157783802 0.05000000000000001
v 3.1361785813757788 0.8315574727977342 0.05000000000000001
v 4.5437827995176665 1.156631906751508 0.05000000000000001
v 3.0862312938931575 2.1799620285371724 0.05000000000000001
v 4.6562096571888745 2.0357658646248753 0.05000000000000001
v 3.0862312938931575 2.1799620285371724 0.05000000000000001
v 4.5437827995176665 1.156631906751508 0.05000000000000001
v 3.1361785813757788 0.8315574727977342 0.05000000000000001
v 0.5707378400000019 -0.012000000000000854 0.05
v 2.118021177314234 0.6221236688623228 0.05
v 1.9003545558668407 -0.39199108327489207 0.05
v 1.9003545558668407 -0.39199108327489207 0.05
v 0.5707378400000018 -0.4067212149125124 0.05
v 0.5707378400000019 -0.012000000000000854 0.05
v 0.5707378400000019 -0.012000000000000854 0.05
v 0.5707378400000027 0.9450851083403472 0.05
v 1.715937457833067 1.022282438433866 0.05
v 2.118021177314234 0.6221236688623228 0.05
v 0.5707378400000019 -0.012000000000000854 0.05
v 1.715937457833067 1.022282438433866 0.05
v 1.715937457833067 1.022282438433866 0.05
v 0.5707378400000027 0.9450851083403472 0.05
v 0.5707378400000016 2.410999929999999 0.05
v 0.5707378400000016 2.410999929999999 0.05
v 1.9415742167386174 2.2850941522527246 0.05000000000000001
v 1.715937457833067 1.022282438433866 0.05
v 3.0862312938931575 2.1799620285371724 0.05000000000000001
v 1.715937457833067 1.022282438433866 0.05
v 1.9415742167386174 2.2850941522527246 0.05000000000000001
v 1.715937457833067 1.022282438433866 0.05
v 3.0862312938931575 2.1799620285371724 0.05000000000000001
v 3.1361785813757788 0.8315574727977342 0.05000000000000001
v 1.715937457833067 1.022282438433866 0.05
v 3.1361785813757788 0.8315574727977342 0.05000000000000001
v 2.118021177314234 0.6221236688623228 0.05
v -3.5562864200000006 2.55879575 0.0
v -4.51011812 1.9854677600000001 0.0
v -4.416042850000001 2.9263611100000007 0.0
v -1.67695229 2.67615797 0.0
v -1.74129991 1.71458992 0.0
v -2.39004694 2.52444417 0.0
v -2.39004694 2.52444417 0.0
v -3.5562864200000006 2.55879575 0.0
v -4.416042850000001 2.9263611100000007 0.0
v -4.416042850000001 2.9263611100000007 0.0
v -1.67695229 2.67615797 0.0
v -2.39004694 2.52444417 0.0
v 0.57073784 -0.012000000000000177 0.05
v 0.57073784 -1.48799997 0.05
v -0.0002621400000000773 -1.48799997 -6.938893903907228e-18
v -0.0002621400000000773 -1.48799997 -6.938893903907228e-18
v -0.0002621400000000043 -0.012000000000000004 1.5333097274868078e-18
v 0.57073784 -0.012000000000000177 0.05
v 0.57073784 1.3027074040816973 1.4175445795290664
v 0.57073784 1.1893311922998833 2.73600005
v 0.57073784 2.41099993 2.73600005
v 0.57073784 2.41099993 2.73600005
v 0.57073784 2.41099993 1.38933939016809
v 0.57073784 1.3027074040816973 1.4175445795290664
v 0.57073784 -0.012000000000000233 2.19499993
v 0.57073784 1.167968380454209 1.2959169131714057
v 0.57073784 -0.012000000000000122 1.38123482345667
v 0.57073784 1.3027074040816973 1.4175445795290664
v 0.57073784 -0.012000000000000233 2.19499993
v 0.57073784 0.49900002 2.73600005
v 0.57073784 0.49900002 2.73600005
v 0.57073784 1.1893311922998833 2.73600005
v 0.57073784 1.3027074040816973 1.4175445795290664
v 0.57073784 -0.012000000000000233 2.19499993
v 0.57073784 1.3027074040816973 1.4175445795290664
v 0.57073784 1.167968380454209 1.2959169131714057
v 0.57073784 2.41099993 0.04999999999999982
v 0.57073784 1.3027074040816973 1.4175445795290664
v 0.57073784 2.41099993 1.38933939016809
v 0.57073784 1.167968380454209 1.2959169131714057
v 0.57073784 2.41099993 0.04999999999999982
v 0.57073784 1.2086150658459391 0.04999999999999982
v 0.57073784 2.41099993 0.04999999999999982
v 0.57073784 1.167968380454209 1.2959169131714057
v 0.57073784 1.3027074040816973 1.4175445795290664
v 0.57073784 1.167968380454209 1.2959169131714057
v 0.57073784 1.2086150658459391 0.04999999999999982
v 0.57073784 -0.011999999999999908 0.04999999999999973
v 0.57073784 -0.011999999999999908 0.04999999999999973
v 0.57073784 -0.012000000000000122 1.38123482345667
v 0.57073784 1.167968380454209 1.2959169131714057
v -0.0002621399999999113 -0.012 2.19499993
v 0.57073784 -0.012 0.05
v -0.0002621400000000218 -0.012 0.0
v 0.57073784 -0.012 0.05
v -0.0002621399999999113 -0.012 2.19499993
v 0.57073784 -0.012 2.19499993
v 0.57073784 -1.48799997 0.05
v 0.57073784 -2.6819503461433185 1.4177445677157299
v 0.57073784 -1.4879999699999997 1.0371530985783572
v 0.57073784 -2.6819503461433185 1.4177445677157299
v 0.57073784 -1.48799997 0.05
v 0.57073784 -3.7288046735522222 0.04999999999999949
v 0.57073784 -2.6819503461433185 1.4177445677157299
v 0.57073784 -3.7288046735522222 0.04999999999999949
v 0.57073784 -3.72788948284763 0.6314816319730089
v 0.57073784 -1.5083207378723706 2.7360000500000003
v 0.57073784 0.4990000200000002 2.736000050000001
v 0.57073784 -0.011999999999999789 2.1949999300000003
v 0.57073784 -0.011999999999999789 2.1949999300000003
v 0.57073784 -1.3358128813100705 2.1932062621675104
v 0.57073784 -1.5083207378723706 2.7360000500000003
v 0.57073784 -2.6819503461433185 1.4177445677157299
v 0.57073784 -3.72788948284763 0.6314816319730089
v 0.57073784 -4.1930973473940565 1.225556075027981
v 0.57073784 -2.6819503461433185 1.4177445677157299
v 0.57073784 -3.7396256166026887 2.7360000500000003
v 0.57073784 -2.911319881245407 2.7360000500000003
v 0.57073784 -3.7396256166026887 2.7360000500000003
v 0.57073784 -2.6819503461433185 1.4177445677157299
v 0.57073784 -4.1930973473940565 1.225556075027981
v 0.57073784 -1.48799997 2.1930000600000006
v 0.57073784 -1.5083207378723706 2.7360000500000003
v 0.57073784 -1.3358128813100705 2.1932062621675104
v 0.57073784 -1.48799997 2.1930000600000006
v 0.57073784 -1.4879999699999997 1.0371530985783572
v 0.57073784 -2.6819503461433185 1.4177445677157299
v 0.57073784 -1.5083207378723706 2.7360000500000003
v 0.57073784 -1.48799997 2.1930000600000006
v 0.57073784 -2.911319881245407 2.7360000500000003
v 0.57073784 -1.48799997 2.1930000600000006
v 0.57073784 -2.6819503461433185 1.4177445677157299
v 0.57073784 -2.911319881245407 2.7360000500000003
v 0.57073784 -3.7396256166026887 2.7360000500000003
v 0.57073784 -4.973129811979675 1.420712855138956
v 0.57073784 -5.29891883108018 2.7360000499999995
v 0.57073784 -4.973129811979675 1.420712855138956
v 0.57073784 -3.7396256166026887 2.7360000500000003
v 0.57073784 -4.1930973473940565 1.225556075027981
v 0.57073784 -3.7288046735522222 0.04999999999999949
v 0.57073784 -4.1930973473940565 1.225556075027981
v 0.57073784 -3.72788948284763 0.6314816319730089
v 0.57073784 -4.973129811979675 1.420712855138956
v 0.57073784 -3.7288046735522222 0.04999999999999949
v 0.57073784 -6.159999970000001 0.049999999999998934
v 0.57073784 -6.159999970000001 0.049999999999998934
v 0.57073784 -6.159999969999999 0.663030452649692
v 0.57073784 -4.973129811979675 1.420712855138956
v 0.57073784 -4.1930973473940565 1.225556075027981
v 0.57073784 -3.7288046735522222 0.04999999999999949
v 0.57073784 -4.973129811979675 1.420712855138956
v 0.57073784 -4.973129811979675 1.420712855138956
v 0.57073784 -6.159999969999999 0.663030452649692
v 0.57073784 -6.15999997 2.7360000499999995
v 0.57073784 -6.15999997 2.7360000499999995
v 0.57073784 -5.29891883108018 2.7360000499999995
v 0.57073784 -4.973129811979675 1.420712855138956
v 0.6757168 -1.48499143 1.1750000000000003
v 0.6757168 -1.48499143 0.05
v 0.57073784 -0.011999999999999789 0.05
v 0.57073784 -0.011999999999999789 0.05
v 0.57073784 -0.011999999999999789 1.1750000000000003
v 0.6757168 -1.48499143 1.1750000000000003
v 0.6757168 -1.48499143 2.19499993
v 0.57073784 -0.011999999999999789 1.1750000000000003
v 0.57073784 -0.011999999999999789 2.19499993
v 0.57073784 -0.011999999999999789 1.1750000000000003
v 0.6757168 -1.48499143 2.19499993
v 0.6757168 -1.48499143 1.1750000000000003
v -5.44190039 -0.09118618 0.0
v -5.44190039 1.4788138 0.0
v -5.44190039 1.4788138 1.00000001
v -5.44190039 1.4788138 1.00000001
v -5.44190039 -0.09118618 1.00000001
v -5.44190039 -0.09118618 0.0
v -2.39004694 2.52444417 1.00000001
v -3.55628642 2.55879575 0.0
v -2.39004694 2.52444417 0.0
v -3.55628642 2.55879575 0.0
v -2.39004694 2.52444417 1.00000001
v -3.55628642 2.55879575 1.00000001
v -1.7412999100000002 1.7145899200000003 1.00000001
v -2.39004694 2.52444417 1.00000001
v -2.39004694 2.52444417 0.0
v -2.39004694 2.52444417 0.0
v -1.7412999100000002 1.7145899200000003 0.0
v -1.7412999100000002 1.7145899200000003 1.00000001
v -4.51011812 1.98546776 0.0
v -4.51011812 1.98546776 1.00000001
v -5.44190039 1.4788138 1.00000001
v -5.44190039 1.4788138 1.00000001
v -5.44190039 1.4788138 0.0
v -4.51011812 1.98546776 0.0
v -4.51011812 1.9854677600000001 0.0
v -3.55628642 2.55879575 0.0
v -3.55628642 2.55879575 1.00000001
v -3.55628642 2.55879575 1.00000001
v -4.51011812 1.9854677600000001 1.00000001
v -4.51011812 1.9854677600000001 0.0

usemtl Patch_1_Mat_CR1_paintedConcrete
f 3 2 1
f 6 5 4
f 9 8 7

usemtl Patch_2_Mat_CR1_paintedConcrete
f 12 11 10
f 15 14 13
f 18 17 16

usemtl Patch_3_Mat_CR1_paintedConcrete
f 21 20 19
f 24 23 22

usemtl Patch_4_Mat_CR1_paintedConcrete
f 27 26 25
f 30 29 28
f 33 32 31

usemtl Patch_5_Mat_CR1_paintedConcrete
f 36 35 34
f 39 38 37
f 42 41 40

usemtl Patch_6_Mat_CR1_paintedConcrete
f 45 44 43
f 48 47 46

usemtl Patch_7_Mat_CR1_paintedConcrete
f 51 50 49
f 54 53 52

usemtl Patch_8_Mat_CR1_paintedConcrete
f 57 56 55
f 60 59 58
f 63 62 61

usemtl Patch_9_Mat_CR1_paintedConcrete
f 66 65 64
f 69 68 67
f 72 71 70
f 75 74 73
f 78 77 76

usemtl Patch_10_Mat_CR1_paintedConcrete
f 81 80 79
f 84 83 82
f 87 86 85
f 90 89 88

usemtl Patch_11_Mat_CR1_paintedConcrete
f 93 92 91
f 96 95 94
f 99 98 97

usemtl Patch_12_Mat_CR1_paintedConcrete
f 102 101 100
f 105 104 103
f 108 107 106
f 111 110 109
f 114 113 112

usemtl Patch_13_Mat_CR1_paintedConcrete
f 117 116 115
f 120 119 118
f 123 122 121
f 126 125 124

usemtl Patch_14_Mat_CR1_paintedConcrete
f 129 128 127
f 132 131 130
f 135 134 133

usemtl Patch_15_Mat_CR1_paintedConcrete
f 138 137 136
f 141 140 139
f 144 143 142
f 147 146 145

usemtl Patch_16_Mat_CR1_paintedConcrete
f 150 149 148
f 153 152 151
f 156 155 154
f 159 158 157
f 162 161 160

usemtl Patch_17_Mat_CR1_paintedConcrete
f 165 164 163
f 168 167 166
f 171 170 169

usemtl Patch_18_Mat_CR1_paintedConcrete
f 174 173 172
f 177 176 175
f 180 179 178
f 183 182 181

usemtl Patch_19_Mat_CR1_paintedConcrete
f 186 185 184
f 189 188 187

usemtl Patch_20_Mat_CR1_paintedConcrete
f 192 191 190
f 195 194 193
f 198 197 196

usemtl Patch_21_Mat_CR1_paintedConcrete
f 201 200 199
f 204 203 202
f 207 206 205

usemtl Patch_22_Mat_CR1_paintedConcrete
f 210 209 208
f 213 212 211
f 216 215 214

usemtl Patch_23_Mat_CR1_paintedConcrete
f 219 218 217
f 222 221 220
f 225 224 223

usemtl Patch_24_Mat_CR1_paintedConcrete
f 228 227 226
f 231 230 229
f 234 233 232

usemtl Patch_25_Mat_CR1_paintedConcrete
f 237 236 235
f 240 239 238
f 243 242 241

usemtl Patch_26_Mat_CR1_paintedConcrete
f 246 245 244
f 249 248 247
f 252 251 250

usemtl Patch_27_Mat_CR1_paintedConcrete
f 255 254 253
f 258 257 256

usemtl Patch_28_Mat_CR1_paintedConcrete
f 261 260 259
f 264 263 262
f 267 266 265
f 270 269 268
f 273 272 271
f 276 275 274

usemtl Patch_29_Mat_CR1_paintedConcrete
f 279 278 277
f 282 281 280
f 285 284 283
f 288 287 286

usemtl Patch_30_Mat_CR1_paintedConcrete
f 291 290 289
f 294 293 292

usemtl Patch_31_Mat_CR1_paintedConcrete
f 297 296 295
f 300 299 298

usemtl Patch_32_Mat_CR1_concrete
f 303 302 301
f 306 305 304
f 309 308 307

usemtl Patch_33_Mat_CR1_concrete
f 312 311 310
f 315 314 313
f 318 317 316

usemtl Patch_34_Mat_CR1_concrete
f 321 320 319
f 324 323 322
f 327 326 325

usemtl Patch_35_Mat_CR1_concrete
f 330 329 328
f 333 332 331
f 336 335 334
f 339 338 337

usemtl Patch_36_Mat_CR1_concrete
f 342 341 340
f 345 344 343
f 348 347 346

usemtl Patch_37_Mat_CR1_concrete
f 351 350 349
f 354 353 352
f 357 356 355
f 360 359 358

usemtl Patch_38_Mat_CR1_concrete
f 363 362 361
f 366 365 364
f 369 368 367

usemtl Patch_39_Mat_CR1_concrete
f 372 371 370
f 375 374 373
f 378 377 376

usemtl Patch_40_Mat_CR1_concrete
f 381 380 379
f 384 383 382

usemtl Patch_41_Mat_CR1_concrete
f 387 386 385
f 390 389 388
f 393 392 391
f 396 395 394

usemtl Patch_42_Mat_CR1_concrete
f 399 398 397
f 402 401 400
f 405 404 403
f 408 407 406

usemtl Patch_43_Mat_CR1_concrete
f 411 410 409
f 414 413 412
f 417 416 415
f 420 419 418

usemtl Patch_44_Mat_CR1_concrete
f 423 422 421
f 426 425 424
f 429 428 427
f 432 431 430

usemtl Patch_45_Mat_CR1_concrete
f 435 434 433
f 438 437 436
f 441 440 439

usemtl Patch_46_Mat_CR1_concrete
f 444 443 442
f 447 446 445
f 450 449 448

usemtl Patch_47_Mat_CR1_concrete
f 453 452 451
f 456 455 454
f 459 458 457
f 462 461 460

usemtl Patch_48_Mat_CR1_concrete
f 465 464 463
f 468 467 466
f 471 470 469

usemtl Patch_49_Mat_CR1_concrete
f 474 473 472
f 477 476 475
f 480 479 478
f 483 482 481

usemtl Patch_50_Mat_CR1_concrete
f 486 485 484
f 489 488 487
f 492 491 490

usemtl Patch_51_Mat_CR1_concrete
f 495 494 493
f 498 497 496

usemtl Patch_52_Mat_CR1_concrete
f 501 500 499
f 504 503 502
f 507 506 505

usemtl Patch_53_Mat_CR1_concrete
f 510 509 508
f 513 512 511
f 516 515 514

usemtl Patch_54_Mat_CR1_concrete
f 519 518 517
f 522 521 520
f 525 524 523

usemtl Patch_55_Mat_CR1_concrete
f 528 527 526
f 531 530 529
f 534 533 532
f 537 536 535

usemtl Patch_56_Mat_CR1_concrete
f 540 539 538
f 543 542 541
f 546 545 544

usemtl Patch_57_Mat_CR1_concrete
f 549 548 547
f 552 551 550
f 555 554 553

usemtl Patch_58_Mat_CR1_concrete
f 558 557 556
f 561 560 559
f 564 563 562

usemtl Patch_59_Mat_CR1_concrete
f 567 566 565
f 570 569 568
f 573 572 571

usemtl Patch_60_Mat_CR1_concrete
f 576 575 574
f 579 578 577
f 582 581 580
f 585 584 583

usemtl Patch_61_Mat_CR1_concrete
f 588 587 586
f 591 590 589
f 594 593 592

usemtl Patch_62_Mat_CR1_concrete
f 597 596 595
f 600 599 598
f 603 602 601

usemtl Patch_63_Mat_CR1_concrete
f 606 605 604
f 609 608 607
f 612 611 610
f 615 614 613

usemtl Patch_64_Mat_CR1_concrete
f 618 617 616
f 621 620 619
f 624 623 622
f 627 626 625
f 630 629 628

usemtl Patch_65_Mat_CR1_concrete
f 633 632 631
f 636 635 634
f 639 638 637

usemtl Patch_66_Mat_CR1_concrete
f 642 641 640
f 645 644 643
f 648 647 646

usemtl Patch_67_Mat_CR1_concrete
f 651 650 649
f 654 653 652

usemtl Patch_68_Mat_CR1_concrete
f 657 656 655
f 660 659 658
f 663 662 661

usemtl Patch_69_Mat_CR1_concrete
f 666 665 664
f 669 668 667
f 672 671 670
f 675 674 673

usemtl Patch_70_Mat_CR1_concrete
f 678 677 676
f 681 680 679
f 684 683 682

usemtl Patch_71_Mat_CR1_concrete
f 687 686 685
f 690 689 688
f 693 692 691
f 696 695 694

usemtl Patch_72_Mat_CR1_concrete
f 699 698 697
f 702 701 700
f 705 704 703
f 708 707 706

usemtl Patch_73_Mat_CR1_concrete
f 711 710 709
f 714 713 712
f 717 716 715
f 720 719 718

usemtl Patch_74_Mat_CR1_concrete
f 723 722 721
f 726 725 724
f 729 728 727

usemtl Patch_75_Mat_CR1_paintedConcrete
f 732 731 730
f 735 734 733
f 738 737 736

usemtl Patch_76_Mat_CR1_paintedConcrete
f 741 740 739
f 744 743 742

usemtl Patch_77_Mat_CR1_paintedConcrete
f 747 746 745
f 750 749 748

usemtl Patch_78_Mat_CR1_paintedConcrete
f 753 752 751
f 756 755 754
f 759 758 757

usemtl Patch_79_Mat_CR1_paintedConcrete
f 762 761 760
f 765 764 763
f 768 767 766

usemtl Patch_80_Mat_CR1_paintedConcrete
f 771 770 769
f 774 773 772
f 777 776 775

usemtl Patch_81_Mat_CR1_paintedConcrete
f 780 779 778
f 783 782 781
f 786 785 784

usemtl Patch_82_Mat_CR1_paintedConcrete
f 789 788 787
f 792 791 790
f 795 794 793

usemtl Patch_83_Mat_CR1_paintedConcrete
f 798 797 796
f 801 800 799
f 804 803 802

usemtl Patch_84_Mat_CR1_paintedConcrete
f 807 806 805
f 810 809 808
f 813 812 811

usemtl Patch_85_Mat_CR1_paintedConcrete
f 816 815 814
f 819 818 817

usemtl Patch_86_Mat_CR1_paintedConcrete
f 822 821 820
f 825 824 823
f 828 827 826

usemtl Patch_87_Mat_CR1_paintedConcrete
f 831 830 829
f 834 833 832
f 837 836 835

usemtl Patch_88_Mat_CR1_paintedConcrete
f 840 839 838
f 843 842 841
f 846 845 844

usemtl Patch_89_Mat_CR1_paintedConcrete
f 849 848 847
f 852 851 850
f 855 854 853

usemtl Patch_90_Mat_CR1_paintedConcrete
f 858 857 856
f 861 860 859
f 864 863 862

usemtl Patch_91_Mat_CR1_paintedConcrete
f 867 866 865
f 870 869 868
f 873 872 871

usemtl Patch_92_Mat_CR1_paintedConcrete
f 876 875 874
f 879 878 877

usemtl Patch_93_Mat_CR1_paintedConcrete
f 882 881 880
f 885 884 883
f 888 887 886

usemtl Patch_94_Mat_CR1_paintedConcrete
f 891 890 889
f 894 893 892

usemtl Patch_95_Mat_CR1_paintedConcrete
f 897 896 895
f 900 899 898
f 903 902 901

usemtl Patch_96_Mat_CR1_paintedConcrete
f 906 905 904
f 909 908 907
f 912 911 910

usemtl Patch_97_Mat_CR1_paintedConcrete
f 915 914 913
f 918 917 916
f 921 920 919

usemtl Patch_98_Mat_CR1_paintedConcrete
f 924 923 922
f 927 926 925
f 930 929 928

usemtl Patch_99_Mat_CR1_paintedConcrete
f 933 932 931
f 936 935 934
f 939 938 937

usemtl Patch_100_Mat_CR1_paintedConcrete
f 942 941 940
f 945 944 943
f 948 947 946

usemtl Patch_101_Mat_CR1_paintedConcrete
f 951 950 949
f 954 953 952

usemtl Patch_102_Mat_CR1_tablesEquipment
f 957 956 955
f 960 959 958

usemtl Patch_103_Mat_CR1_tablesEquipment
f 963 962 961
f 966 965 964
f 969 968 967

usemtl Patch_104_Mat_CR1_tablesEquipment
f 972 971 970
f 975 974 973
f 978 977 976

usemtl Patch_105_Mat_CR1_tablesEquipment
f 981 980 979
f 984 983 982

usemtl Patch_106_Mat_CR1_tablesEquipment
f 987 986 985
f 990 989 988

usemtl Patch_107_Mat_CR1_tablesEquipment
f 993 992 991
f 996 995 994

usemtl Patch_108_Mat_CR1_tablesEquipment
f 999 998 997
f 1002 1001 1000

usemtl Patch_109_Mat_CR1_tablesEquipment
f 1005 1004 1003
f 1008 1007 1006
f 1011 1010 1009

usemtl Patch_110_Mat_CR1_tablesEquipment
f 1014 1013 1012
f 1017 1016 1015
f 1020 1019 1018

usemtl Patch_111_Mat_CR1_absorber
f 1023 1022 1021
f 1026 1025 1024

usemtl Patch_112_Mat_CR1_absorber
f 1029 1028 1027
f 1032 1031 1030

usemtl Patch_113_Mat_CR1_absorber
f 1035 1034 1033
f 1038 1037 1036

usemtl Patch_114_Mat_CR1_absorber
f 1041 1040 1039
f 1044 1043 1042

usemtl Patch_115_Mat_CR1_tablesEquipment
f 1047 1046 1045
f 1050 1049 1048

usemtl Patch_116_Mat_CR1_tablesEquipment
f 1053 1052 1051
f 1056 1055 1054

usemtl Patch_117_Mat_CR1_tablesEquipment
f 1059 1058 1057
f 1062 1061 1060

usemtl Patch_118_Mat_CR1_tablesEquipment
f 1065 1064 1063
f 1068 1067 1066
f 1071 1070 1069
f 1074 1073 1072

usemtl Patch_119_Mat_CR1_tablesEquipment
f 1077 1076 1075
f 1080 1079 1078

usemtl Patch_120_Mat_CR1_tablesEquipment
f 1083 1082 1081
f 1086 1085 1084

usemtl Patch_121_Mat_CR1_tablesEquipment
f 1089 1088 1087
f 1092 1091 1090

usemtl Patch_122_Mat_CR1_concrete
f 1095 1094 1093
f 1098 1097 1096
f 1101 1100 1099
f 1104 1103 1102

usemtl Patch_123_Mat_CR1_concrete
f 1107 1106 1105
f 1110 1109 1108
f 1113 1112 1111

usemtl Patch_124_Mat_CR1_concrete
f 1116 1115 1114
f 1119 1118 1117
f 1122 1121 1120
f 1125 1124 1123
f 1128 1127 1126

usemtl Patch_125_Mat_CR1_concrete
f 1131 1130 1129
f 1134 1133 1132
f 1137 1136 1135
f 1140 1139 1138

usemtl Patch_126_Mat_CR1_concrete
f 1143 1142 1141
f 1146 1145 1144
f 1149 1148 1147
f 1152 1151 1150
f 1155 1154 1153

usemtl Patch_127_Mat_CR1_concrete
f 1158 1157 1156
f 1161 1160 1159
f 1164 1163 1162

usemtl Patch_128_Mat_CR1_concrete
f 1167 1166 1165
f 1170 1169 1168
f 1173 1172 1171

usemtl Patch_129_Mat_CR1_concrete
f 1176 1175 1174
f 1179 1178 1177
f 1182 1181 1180
f 1185 1184 1183

usemtl Patch_130_Mat_CR1_concrete
f 1188 1187 1186
f 1191 1190 1189
f 1194 1193 1192
f 1197 1196 1195
f 1200 1199 1198

usemtl Patch_131_Mat_CR1_concrete
f 1203 1202 1201
f 1206 1205 1204
f 1209 1208 1207
f 1212 1211 1210
f 1215 1214 1213

usemtl Patch_132_Mat_CR1_concrete
f 1218 1217 1216
f 1221 1220 1219
f 1224 1223 1222
f 1227 1226 1225

usemtl Patch_133_Mat_CR1_concrete
f 1230 1229 1228
f 1233 1232 1231
f 1236 1235 1234
f 1239 1238 1237

usemtl Patch_134_Mat_CR1_concrete
f 1242 1241 1240
f 1245 1244 1243
f 1248 1247 1246
f 1251 1250 1249

usemtl Patch_135_Mat_CR1_concrete
f 1254 1253 1252
f 1257 1256 1255
f 1260 1259 1258

usemtl Patch_136_Mat_CR1_concrete
f 1263 1262 1261
f 1266 1265 1264
f 1269 1268 1267

usemtl Patch_137_Mat_CR1_concrete
f 1272 1271 1270
f 1275 1274 1273
f 1278 1277 1276

usemtl Patch_138_Mat_CR1_absorber
f 1281 1280 1279
f 1284 1283 1282

usemtl Patch_139_Mat_CR1_concrete
f 1287 1286 1285
f 1290 1289 1288

usemtl Patch_140_Mat_CR1_paintedConcrete
f 1293 1292 1291
f 1296 1295 1294

usemtl Patch_141_Mat_CR1_paintedConcrete
f 1299 1298 1297
f 1302 1301 1300

usemtl Patch_142_Mat_CR1_paintedConcrete
f 1305 1304 1303
f 1308 1307 1306

usemtl Patch_143_Mat_CR1_paintedConcrete
f 1311 1310 1309
f 1314 1313 1312
f 1317 1316 1315

usemtl Patch_144_Mat_CR1_paintedConcrete
f 1320 1319 1318
f 1323 1322 1321
f 1326 1325 1324
f 1329 1328 1327

usemtl Patch_145_Mat_CR1_paintedConcrete
f 1332 1331 1330
f 1335 1334 1333
f 1338 1337 1336

usemtl Patch_146_Mat_CR1_paintedConcrete
f 1341 1340 1339
f 1344 1343 1342
f 1347 1346 1345

usemtl Patch_147_Mat_CR1_paintedConcrete
f 1350 1349 1348
f 1353 1352 1351

usemtl Patch_148_Mat_CR1_paintedConcrete
f 1356 1355 1354
f 1359 1358 1357
f 1362 1361 1360
f 1365 1364 1363

usemtl Patch_149_Mat_CR1_paintedConcrete
f 1368 1367 1366
f 1371 1370 1369
f 1374 1373 1372

usemtl Patch_150_Mat_CR1_paintedConcrete
f 1377 1376 1375
f 1380 1379 1378
f 1383 1382 1381
f 1386 1385 1384

usemtl Patch_151_Mat_CR1_paintedConcrete
f 1389 1388 1387
f 1392 1391 1390
f 1395 1394 1393
f 1398 1397 1396

usemtl Patch_152_Mat_CR1_paintedConcrete
f 1401 1400 1399
f 1404 1403 1402
f 1407 1406 1405
f 1410 1409 1408

usemtl Patch_153_Mat_CR1_paintedConcrete
f 1413 1412 1411
f 1416 1415 1414
f 1419 1418 1417

usemtl Patch_154_Mat_CR1_paintedConcrete
f 1422 1421 1420
f 1425 1424 1423
f 1428 1427 1426
f 1431 1430 1429

usemtl Patch_155_Mat_CR1_paintedConcrete
f 1434 1433 1432
f 1437 1436 1435
f 1440 1439 1438

usemtl Patch_156_Mat_CR1_paintedConcrete
f 1443 1442 1441
f 1446 1445 1444
f 1449 1448 1447
f 1452 1451 1450

usemtl Patch_157_Mat_CR1_paintedConcrete
f 1455 1454 1453
f 1458 1457 1456
f 1461 1460 1459

usemtl Patch_158_Mat_CR1_paintedConcrete
f 1464 1463 1462
f 1467 1466 1465
f 1470 1469 1468

usemtl Patch_159_Mat_CR1_paintedConcrete
f 1473 1472 1471
f 1476 1475 1474
f 1479 1478 1477

usemtl Patch_160_Mat_CR1_paintedConcrete
f 1482 1481 1480
f 1485 1484 1483
f 1488 1487 1486
f 1491 1490 1489
f 1494 1493 1492

usemtl Patch_161_Mat_CR1_paintedConcrete
f 1497 1496 1495
f 1500 1499 1498
f 1503 1502 1501
f 1506 1505 1504

usemtl Patch_162_Mat_CR1_paintedConcrete
f 1509 1508 1507
f 1512 1511 1510
f 1515 1514 1513

usemtl Patch_163_Mat_CR1_paintedConcrete
f 1518 1517 1516
f 1521 1520 1519
f 1524 1523 1522
f 1527 1526 1525

usemtl Patch_164_Mat_CR1_paintedConcrete
f 1530 1529 1528
f 1533 1532 1531

usemtl Patch_165_Mat_CR1_paintedConcrete
f 1536 1535 1534
f 1539 1538 1537
f 1542 1541 1540

usemtl Patch_166_Mat_CR1_concrete
f 1545 1544 1543
f 1548 1547 1546
f 1551 1550 1549
f 1554 1553 1552

usemtl Patch_167_Mat_CR1_concrete
f 1557 1556 1555
f 1560 1559 1558

usemtl Patch_168_Mat_CR1_paintedConcrete
f 1563 1562 1561
f 1566 1565 1564

usemtl Patch_169_Mat_CR1_paintedConcrete
f 1569 1568 1567
f 1572 1571 1570
f 1575 1574 1573
f 1578 1577 1576

usemtl Patch_170_Mat_CR1_paintedConcrete
f 1581 1580 1579
f 1584 1583 1582
f 1587 1586 1585

usemtl Patch_171_Mat_CR1_paintedConcrete
f 1590 1589 1588
f 1593 1592 1591

usemtl Patch_172_Mat_CR1_concrete
f 1596 1595 1594
f 1599 1598 1597

usemtl Patch_173_Mat_CR1_paintedConcrete
f 1602 1601 1600
f 1605 1604 1603
f 1608 1607 1606

usemtl Patch_174_Mat_CR1_paintedConcrete
f 1611 1610 1609
f 1614 1613 1612

usemtl Patch_175_Mat_CR1_paintedConcrete
f 1617 1616 1615
f 1620 1619 1618
f 1623 1622 1621

usemtl Patch_176_Mat_CR1_paintedConcrete
f 1626 1625 1624
f 1629 1628 1627
f 1632 1631 1630
f 1635 1634 1633

usemtl Patch_177_Mat_CR1_paintedConcrete
f 1638 1637 1636
f 1641 1640 1639

usemtl Patch_178_Mat_CR1_paintedConcrete
f 1644 1643 1642
f 1647 1646 1645
f 1650 1649 1648
f 1653 1652 1651

usemtl Patch_179_Mat_CR1_paintedConcrete
f 1656 1655 1654
f 1659 1658 1657

usemtl Patch_180_Mat_CR1_tablesEquipment
f 1662 1661 1660
f 1665 1664 1663

usemtl Patch_181_Mat_CR1_tablesEquipment
f 1668 1667 1666
f 1671 1670 1669

usemtl Patch_182_Mat_CR1_absorber
f 1674 1673 1672
f 1677 1676 1675

usemtl Patch_183_Mat_CR1_absorber
f 1680 1679 1678
f 1683 1682 1681

usemtl Patch_184_Mat_CR1_absorber
f 1686 1685 1684
f 1689 1688 1687

usemtl Patch_185_Mat_CR1_absorber
f 1692 1691 1690
f 1695 1694 1693

usemtl Patch_186_Mat_CR1_absorber
f 1698 1697 1696
f 1701 1700 1699

