mtllib mesh.mtl

v -1.30349243 4.08237756 0.1500000000000001
v -2.82349239 4.08237756 0.59500002
v -2.82349239 4.08237756 0.1499999999999999
v -2.82349239 4.08237756 0.59500002
v -1.30349243 4.08237756 0.1500000000000001
v -1.30349243 4.08237756 0.5950000200000001
v 1.2605076500000005 4.18937762 2.5680000399999994
v 2.80350756 4.18937762 0.45
v 1.2605076499999999 4.18937762 0.44999999999999984
v 2.80350756 4.18937762 0.45
v 1.2605076500000005 4.18937762 2.5680000399999994
v 2.8035075600000003 4.18937762 2.5680000399999994
v -0.7694923699999996 4.18937762 0.45000000000000057
v 0.75750759 4.18937762 2.56800004
v 0.7575075900000002 4.18937762 0.45000000000000007
v 0.75750759 4.18937762 2.56800004
v -0.7694923699999996 4.18937762 0.45000000000000057
v -0.7694923699999999 4.18937762 2.56800004
v -2.88449234 4.18937762 0.4500000000000002
v -1.29749241 4.18937762 2.56800004
v -1.2974924100000003 4.18937762 0.45000000000000007
v -1.29749241 4.18937762 2.56800004
v -2.88449234 4.18937762 0.4500000000000002
v -2.88449234 4.18937762 2.56800004
v -1.61649242 -2.8906222 1.4935405392601693
v -1.61649242 -2.8906222 0.0
v -1.61649242 -4.25462209 1.1102230246251565e-16
v -1.61649242 -4.25462209 1.1102230246251565e-16
v -1.61649242 -4.25462209 1.4995330843460524
v -1.61649242 -2.8906222 1.4935405392601693
v -1.61649242 -4.25462209 1.4995330843460524
v -1.61649242 -4.25462209 2.98799998
v -1.61649242 -2.8906222000000006 2.98799998
v -1.61649242 -2.8906222000000006 2.98799998
v -1.61649242 -2.8906222 1.4935405392601693
v -1.61649242 -4.25462209 1.4995330843460524
v 0.7565076000000001 4.08237756 0.15000000000000002
v -0.7634924 4.08237756 0.59500002
v -0.7634924 4.08237756 0.14999999999999997
v -0.7634924 4.08237756 0.59500002
v 0.7565076000000001 4.08237756 0.15000000000000002
v 0.7565076000000001 4.08237756 0.5950000200000001
v 2.78650763 4.08237756 0.15000000000000008
v 1.26650758 4.08237756 0.59500002
v 1.2665075800000003 4.08237756 0.15000000000000008
v 1.26650758 4.08237756 0.59500002
v 2.78650763 4.08237756 0.15000000000000008
v 2.78650763 4.08237756 0.59500002
v 0.7575075900000003 4.18937762 2.56800004
v 1.260507650000001 4.18937762 1.4933228390738165
v 0.7575075900000005 4.18937762 1.4842659680213834
v 0.7575075900000003 4.18937762 2.56800004
v -0.07180246416674418 4.18937762 2.56800004
v -0.21795855044850176 4.18937762 2.9879999800000006
v 2.80350756 4.18937762 2.56800004
v 3.15501362 4.18937762 1.5274347560353267
v 2.80350756 4.18937762 1.5211056413637125
v 1.260507650000001 4.18937762 1.4933228390738165
v 0.7575075900000003 4.18937762 2.56800004
v 1.2605076500000003 4.18937762 2.56800004
v 1.2605076500000003 4.18937762 2.56800004
v -0.21795855044850176 4.18937762 2.9879999800000006
v 3.15501362 4.18937762 2.98799998
v 3.15501362 4.18937762 1.5274347560353267
v 2.80350756 4.18937762 2.56800004
v 3.15501362 4.18937762 2.98799998
v -0.21795855044850176 4.18937762 2.9879999800000006
v 1.2605076500000003 4.18937762 2.56800004
v 0.7575075900000003 4.18937762 2.56800004
v 3.15501362 4.18937762 2.98799998
v 2.80350756 4.18937762 2.56800004
v 1.2605076500000003 4.18937762 2.56800004
v -0.7694923699999997 4.18937762 2.5680000400000003
v -0.7694923699999996 4.18937762 0.4500000000000006
v -1.2974924099999996 4.18937762 0.45000000000000057
v -1.2974924099999994 4.18937762 2.5680000400000003
v -2.8844923399999987 4.18937762 2.5680000400000007
v -2.884492339999999 4.18937762 2.9879999800000006
v -0.7694923699999997 4.18937762 2.5680000400000003
v -0.21795855044850176 4.18937762 2.9879999800000006
v -0.07180246416674418 4.18937762 2.56800004
v -0.7694923699999997 4.18937762 2.5680000400000003
v -1.2974924099999996 4.18937762 0.45000000000000057
v -1.2974924099999994 4.18937762 2.5680000400000003
v -1.2974924099999994 4.18937762 2.5680000400000003
v -0.21795855044850176 4.18937762 2.9879999800000006
v -0.7694923699999997 4.18937762 2.5680000400000003
v -0.21795855044850176 4.18937762 2.9879999800000006
v -1.2974924099999994 4.18937762 2.5680000400000003
v -2.884492339999999 4.18937762 2.9879999800000006
v -1.2974924099999996 4.18937762 0.45000000000000057
v -2.8844923399999987 4.18937762 5.868309054229044e-16
v -2.884492339999998 4.18937762 0.45000000000000073
v -0.1784320262750393 4.18937762 4.440892098500626e-16
v -1.2974924099999996 4.18937762 0.45000000000000057
v -0.03010367704275224 4.18937762 0.4500000000000004
v -2.8844923399999987 4.18937762 5.868309054229044e-16
v -1.2974924099999996 4.18937762 0.45000000000000057
v -0.1784320262750393 4.18937762 4.440892098500626e-16
v 1.2605076500000005 4.18937762 0.4500000000000004
v 0.7575075900000005 4.18937762 1.4842659680213834
v 1.260507650000001 4.18937762 1.4933228390738165
v 2.8035075600000003 4.18937762 0.4500000000000002
v 2.80350756 4.18937762 1.5211056413637125
v 3.15501362 4.18937762 1.5274347560353267
v 0.7575075900000002 4.18937762 0.4500000000000002
v -0.1784320262750393 4.18937762 4.440892098500626e-16
v -0.03010367704275224 4.18937762 0.4500000000000004
v 0.7575075900000005 4.18937762 1.4842659680213834
v 1.2605076500000005 4.18937762 0.4500000000000004
v 0.7575075900000002 4.18937762 0.4500000000000002
v 2.8035075600000003 4.18937762 0.4500000000000002
v 3.15501362 4.18937762 1.5274347560353267
v 3.1550136200000005 4.18937762 0.0
v 1.2605076500000005 4.18937762 0.4500000000000004
v -0.1784320262750393 4.18937762 4.440892098500626e-16
v 0.7575075900000002 4.18937762 0.4500000000000002
v 3.1550136200000005 4.18937762 0.0
v 1.2605076500000005 4.18937762 0.4500000000000004
v 2.8035075600000003 4.18937762 0.4500000000000002
v -0.1784320262750393 4.18937762 4.440892098500626e-16
v 1.2605076500000005 4.18937762 0.4500000000000004
v 3.1550136200000005 4.18937762 0.0
v -1.61649242 -2.8906222 0.0
v -0.7183930745604283 -2.178702069135741 0.0
v -1.61649242 -3.1932241696108035 0.0
v -1.61649242 -2.8906222 0.0
v -2.88449234 -2.8906222 0.0
v -2.8844923400000004 -1.0496223421327358 0.0
v -0.7183930745604283 -2.178702069135741 0.0
v -1.61649242 -2.8906222 0.0
v -1.061756971339539 -1.1178332517480813 0.0
v -1.61649242 -2.8906222 0.0
v -2.8844923400000004 -1.0496223421327358 0.0
v -1.061756971339539 -1.1178332517480813 0.0
v -0.7183930745604283 -2.178702069135741 0.0
v 0.7723353365960819 -2.563984533789599 0.0
v 0.7324732338091977 -4.2264539906370775 0.0
v 0.7324732338091977 -4.2264539906370775 0.0
v -1.6164924200000002 -4.25462209 0.0
v -1.61649242 -3.1932241696108035 0.0
v -1.61649242 -3.1932241696108035 0.0
v -0.7183930745604283 -2.178702069135741 0.0
v 0.7324732338091977 -4.2264539906370775 0.0
v 1.2831311882665657 -0.9617965708361493 0.0
v -0.56842362098568 -0.25307135188225693 0.0
v 0.8162235103862371 -0.23854048251581356 0.0
v -0.7183930745604283 -2.178702069135741 0.0
v 1.2831311882665657 -0.9617965708361493 0.0
v 0.9428030962011711 -2.4204473836017675 0.0
v 0.9428030962011711 -2.4204473836017675 0.0
v 0.7723353365960819 -2.563984533789599 0.0
v -0.7183930745604283 -2.178702069135741 0.0
v -0.56842362098568 -0.25307135188225693 0.0
v 1.2831311882665657 -0.9617965708361493 0.0
v -1.061756971339539 -1.1178332517480813 0.0
v -1.061756971339539 -1.1178332517480813 0.0
v 1.2831311882665657 -0.9617965708361493 0.0
v -0.7183930745604283 -2.178702069135741 0.0
v 0.7324732338091977 -4.2264539906370775 0.0
v 0.9428030962011711 -2.4204473836017675 0.0
v 3.1271957844999934 -2.773931962192778 0.0
v 3.1271957844999934 -2.773931962192778 0.0
v 3.121507530000001 -4.197805400000001 0.0
v 0.7324732338091977 -4.2264539906370775 0.0
v 0.9428030962011711 -2.4204473836017675 0.0
v 0.7324732338091977 -4.2264539906370775 0.0
v 0.7723353365960819 -2.563984533789599 0.0
v -1.063249661440562 0.7032089380219484 0.0
v -0.56842362098568 -0.25307135188225693 0.0
v -1.061756971339539 -1.1178332517480813 0.0
v -1.063249661440562 0.7032089380219484 0.0
v -2.8844923400000004 -1.0496223421327358 0.0
v -2.8844923400000004 0.7296651402709309 0.0
v -2.8844923400000004 -1.0496223421327358 0.0
v -1.063249661440562 0.7032089380219484 0.0
v -1.061756971339539 -1.1178332517480813 0.0
v -0.9915659908279275 2.5180882348212688 0.0
v -2.8844923400000004 2.446274330762112 0.0
v -2.8844923400000013 4.18937762 0.0
v -2.8844923400000013 4.18937762 0.0
v -0.7464882503418988 4.18937762 0.0
v -0.9915659908279275 2.5180882348212688 0.0
v 1.2942302869118392 0.8069492941771733 0.0
v -1.063249661440562 0.7032089380219484 0.0
v -0.5608975276185499 1.9431143682494865 0.0
v -0.5608975276185499 1.9431143682494865 0.0
v 0.7941138388657351 1.9488998114391096 0.0
v 1.2942302869118392 0.8069492941771733 0.0
v -1.063249661440562 0.7032089380219484 0.0
v 0.8162235103862371 -0.23854048251581356 0.0
v -0.56842362098568 -0.25307135188225693 0.0
v 0.8162235103862371 -0.23854048251581356 0.0
v -1.063249661440562 0.7032089380219484 0.0
v 1.2942302869118392 0.8069492941771733 0.0
v 3.1271957844999934 -2.773931962192778 0.0
v 1.2831311882665657 -0.9617965708361493 0.0
v 3.134724518635414 -0.8893530363110289 0.0
v 1.2831311882665657 -0.9617965708361493 0.0
v 3.1271957844999934 -2.773931962192778 0.0
v 0.9428030962011711 -2.4204473836017675 0.0
v -0.9915659908279275 2.5180882348212688 0.0
v -0.5608975276185499 1.9431143682494865 0.0
v -1.063249661440562 0.7032089380219484 0.0
v -1.063249661440562 0.7032089380219484 0.0
v -2.8844923400000004 0.7296651402709309 0.0
v -2.8844923400000004 2.446274330762112 0.0
v -2.8844923400000004 2.446274330762112 0.0
v -0.9915659908279275 2.5180882348212688 0.0
v -1.063249661440562 0.7032089380219484 0.0
v 1.2188484821933714 2.5570310773546785 0.0
v -0.7464882503418988 4.18937762 0.0
v 0.963246221789835 4.18937762 0.0
v -0.5608975276185499 1.9431143682494865 0.0
v 1.2188484821933714 2.5570310773546785 0.0
v 0.7941138388657351 1.9488998114391096 0.0
v 1.2188484821933714 2.5570310773546785 0.0
v -0.5608975276185499 1.9431143682494865 0.0
v -0.9915659908279275 2.5180882348212688 0.0
v -0.7464882503418988 4.18937762 0.0
v 1.2188484821933714 2.5570310773546785 0.0
v -0.9915659908279275 2.5180882348212688 0.0
v 1.2942302869118392 0.8069492941771733 0.0
v 0.7941138388657351 1.9488998114391096 0.0
v 1.2188484821933714 2.5570310773546785 0.0
v 1.2942302869118392 0.8069492941771733 0.0
v 3.148277588831984 2.5032266476073404 0.0
v 3.141527971236212 0.8136747455276581 0.0
v 3.148277588831984 2.5032266476073404 0.0
v 1.2942302869118392 0.8069492941771733 0.0
v 1.2188484821933714 2.5570310773546785 0.0
v 1.2831311882665657 -0.9617965708361493 0.0
v 0.8162235103862371 -0.23854048251581356 0.0
v 1.2942302869118392 0.8069492941771733 0.0
v 1.2942302869118392 0.8069492941771733 0.0
v 3.141527971236212 0.8136747455276581 0.0
v 3.134724518635414 -0.8893530363110289 0.0
v 3.134724518635414 -0.8893530363110289 0.0
v 1.2831311882665657 -0.9617965708361493 0.0
v 1.2942302869118392 0.8069492941771733 0.0
v 1.2188484821933714 2.5570310773546785 0.0
v 0.963246221789835 4.18937762 0.0
v 3.1550136199999996 4.189377619999999 0.0
v 3.1550136199999996 4.189377619999999 0.0
v 3.148277588831984 2.5032266476073404 0.0
v 1.2188484821933714 2.5570310773546785 0.0
v -2.88449234 2.1536751681374953 1.3003318857757118
v -2.88449234 4.18937762 1.866840471298419
v -2.88449234 4.18937762 0.0
v -2.88449234 4.18937762 0.0
v -2.88449234 2.156346741921509 0.0
v -2.88449234 2.1536751681374953 1.3003318857757118
v -2.88449234 -0.22167030360048756 0.9737917414017672
v -2.88449234 1.5491938533348657 2.0110687738107105
v -2.88449234 2.1536751681374953 1.3003318857757118
v -2.88449234 -0.22167030360048756 0.9737917414017672
v -2.88449234 2.156346741921509 0.0
v -2.88449234 -0.18511051205463358 2.220446049250313e-16
v -2.88449234 2.156346741921509 0.0
v -2.88449234 -0.22167030360048756 0.9737917414017672
v -2.88449234 2.1536751681374953 1.3003318857757118
v -2.88449234 4.18937762 2.98799998
v -2.88449234 1.5491938533348657 2.0110687738107105
v -2.88449234 1.5131364398332234 2.9879999799999997
v -2.88449234 2.1536751681374953 1.3003318857757118
v -2.88449234 4.18937762 2.98799998
v -2.88449234 4.18937762 1.866840471298419
v -2.88449234 4.18937762 2.98799998
v -2.88449234 2.1536751681374953 1.3003318857757118
v -2.88449234 1.5491938533348657 2.0110687738107105
v -2.88449234 -2.8906222000000006 -4.440892098500626e-16
v -2.88449234 -0.22167030360048756 0.9737917414017672
v -2.88449234 -0.18511051205463358 2.220446049250313e-16
v -2.88449234 -0.8320251190251191 1.6955975624313253
v -2.88449234 -2.8906222000000006 -4.440892098500626e-16
v -2.88449234 -2.8906222000000006 1.1036329714677415
v -2.88449234 -2.8906222000000006 -4.440892098500626e-16
v -2.88449234 -0.8320251190251191 1.6955975624313253
v -2.88449234 -0.22167030360048756 0.9737917414017672
v -2.88449234 1.5491938533348657 2.0110687738107105
v -2.88449234 -0.22167030360048756 0.9737917414017672
v -2.88449234 -0.8320251190251191 1.6955975624313253
v -2.88449234 1.5491938533348657 2.0110687738107105
v -2.88449234 -0.836712985802589 2.9879999799999997
v -2.88449234 1.5131364398332234 2.9879999799999997
v -2.88449234 -0.836712985802589 2.9879999799999997
v -2.88449234 1.5491938533348657 2.0110687738107105
v -2.88449234 -0.8320251190251191 1.6955975624313253
v -2.88449234 -0.8320251190251191 1.6955975624313253
v -2.88449234 -2.8906222000000006 1.1036329714677415
v -2.88449234 -2.8906222 2.9879589
v -2.88449234 -2.8906222 2.9879589
v -2.88449234 -2.8906221999999997 2.9879999799999997
v -2.88449234 -0.836712985802589 2.9879999799999997
v -2.88449234 -0.836712985802589 2.9879999799999997
v -2.88449234 -0.8320251190251191 1.6955975624313253
v -2.88449234 -2.8906222 2.9879589
v -1.6164924199999997 -2.8906222 -4.0432483498577156e-16
v -2.88449234 -2.8906222 2.9879589
v -2.88449234 -2.8906222 -3.885780586188048e-16
v -2.88449234 -2.8906222 2.9879589
v -1.6164924199999997 -2.8906222 -4.0432483498577156e-16
v -1.61649242 -2.8906222 2.98799998
v -1.6164924200000002 -4.25462209 1.5117949251418898
v 0.7709067264974134 -4.225993107593023 1.5194876641241488
v 0.7661531307770738 -4.226050111302874 2.98799998
v 0.7661531307770738 -4.226050111302874 2.98799998
v -1.61649242 -4.25462209 2.98799998
v -1.6164924200000002 -4.25462209 1.5117949251418898
v 0.7709067264974134 -4.225993107593023 1.5194876641241488
v -1.6164924200000002 -4.25462209 1.5117949251418898
v 0.7366125939497677 -4.2264043526581005 1.4655184135522241
v 0.7709067264974134 -4.225993107593023 1.5194876641241488
v 3.1215075299999993 -4.1978054 1.4724967672773996
v 3.1215075299999997 -4.1978054 2.9879999800000006
v 3.1215075299999997 -4.1978054 2.9879999800000006
v 0.7661531307770738 -4.226050111302874 2.98799998
v 0.7709067264974134 -4.225993107593023 1.5194876641241488
v 0.7366125939497677 -4.2264043526581005 1.4655184135522241
v -1.6164924200000002 -4.25462209 1.5117949251418898
v -1.6164924200000004 -4.25462209 0.0
v -1.6164924200000004 -4.25462209 0.0
v 0.741428749147618 -4.226346598753552 2.220446049250313e-16
v 0.7366125939497677 -4.2264043526581005 1.4655184135522241
v 3.1215075299999993 -4.1978054 1.4724967672773996
v 0.7366125939497677 -4.2264043526581005 1.4655184135522241
v 0.741428749147618 -4.226346598753552 2.220446049250313e-16
v 0.741428749147618 -4.226346598753552 2.220446049250313e-16
v 3.1215075299999997 -4.1978054 2.9081716084031557e-16
v 3.1215075299999993 -4.1978054 1.4724967672773996
v 0.7366125939497677 -4.2264043526581005 1.4655184135522241
v 3.1215075299999993 -4.1978054 1.4724967672773996
v 0.7709067264974134 -4.225993107593023 1.5194876641241488
v 1.271994386835985 -2.0993575472603463 2.98799998
v 0.7655751884328933 -2.531399856330598 2.98799998
v 0.852101881328839 -4.225019439380646 2.98799998
v 1.271994386835985 -2.0993575472603463 2.98799998
v 3.12150753 -4.1978054 2.98799998
v 3.1289203740306597 -2.342235872673669 2.98799998
v 3.12150753 -4.1978054 2.98799998
v 1.271994386835985 -2.0993575472603463 2.98799998
v 0.852101881328839 -4.225019439380646 2.98799998
v 3.137849513526734 -0.10711004436345428 2.98799998
v 1.271994386835985 -2.0993575472603463 2.98799998
v 3.1289203740306597 -2.342235872673669 2.98799998
v 1.271994386835985 -2.0993575472603463 2.98799998
v 3.137849513526734 -0.10711004436345428 2.98799998
v 1.2145867988239099 -0.1988178976894403 2.98799998
v -1.6164924199999997 -2.890622200000001 2.98799998
v -0.9553263059897001 -1.183957035600092 2.98799998
v -2.8844923399999995 -1.0798488532756503 2.98799998
v -2.8844923399999995 -1.0798488532756503 2.98799998
v -2.8844923399999995 -2.890622200000001 2.98799998
v -1.6164924199999997 -2.890622200000001 2.98799998
v -1.6164924199999997 -2.890622200000001 2.98799998
v -1.6164924200000002 -3.254300010126186 2.98799998
v -0.6256215218699459 -2.119237371106821 2.98799998
v -0.9553263059897001 -1.183957035600092 2.98799998
v -1.6164924199999997 -2.890622200000001 2.98799998
v -0.6256215218699459 -2.119237371106821 2.98799998
v 0.852101881328839 -4.225019439380646 2.98799998
v -0.6256215218699459 -2.119237371106821 2.98799998
v -1.6164924200000002 -3.254300010126186 2.98799998
v -1.6164924200000002 -3.254300010126186 2.98799998
v -1.6164924199999997 -4.254622090000001 2.98799998
v 0.852101881328839 -4.225019439380646 2.98799998
v -0.6256215218699459 -2.119237371106821 2.98799998
v 0.852101881328839 -4.225019439380646 2.98799998
v 0.7655751884328933 -2.531399856330598 2.98799998
v -0.4864532821565858 -0.20577949202033896 2.98799998
v 1.2145867988239099 -0.1988178976894403 2.98799998
v 1.0991551028182136 -0.09902859270083814 2.98799998
v 1.271994386835985 -2.0993575472603463 2.98799998
v -0.4864532821565858 -0.20577949202033896 2.98799998
v -0.9553263059897001 -1.183957035600092 2.98799998
v 1.271994386835985 -2.0993575472603463 2.98799998
v -0.6256215218699459 -2.119237371106821 2.98799998
v 0.7655751884328933 -2.531399856330598 2.98799998
v -0.4864532821565858 -0.20577949202033896 2.98799998
v 1.271994386835985 -2.0993575472603463 2.98799998
v 1.2145867988239099 -0.1988178976894403 2.98799998
v 1.271994386835985 -2.0993575472603463 2.98799998
v -0.9553263059897001 -1.183957035600092 2.98799998
v -0.6256215218699459 -2.119237371106821 2.98799998
v 3.137849513526734 -0.10711004436345428 2.98799998
v 3.145703510546591 1.8588880904253604 2.98799998
v 1.7143296226080769 2.060520482959191 2.98799998
v 1.2145867988239099 -0.1988178976894403 2.98799998
v 1.1419843998202976 1.748498266615713 2.98799998
v 1.0991551028182136 -0.09902859270083814 2.98799998
v 1.7143296226080769 2.060520482959191 2.98799998
v 1.2145867988239099 -0.1988178976894403 2.98799998
v 3.137849513526734 -0.10711004436345428 2.98799998
v 1.1419843998202976 1.748498266615713 2.98799998
v 1.2145867988239099 -0.1988178976894403 2.98799998
v 1.7143296226080769 2.060520482959191 2.98799998
v -1.0385538361359807 0.6698194107383465 2.98799998
v 1.1419843998202976 1.748498266615713 2.98799998
v 0.14500409340812914 2.1365068304826242 2.98799998
v 0.14500409340812914 2.1365068304826242 2.98799998
v -0.7083663919475857 1.8668633721500678 2.98799998
v -1.0385538361359807 0.6698194107383465 2.98799998
v 1.1419843998202976 1.748498266615713 2.98799998
v -0.4864532821565858 -0.20577949202033896 2.98799998
v 1.0991551028182136 -0.09902859270083814 2.98799998
v -0.4864532821565858 -0.20577949202033896 2.98799998
v 1.1419843998202976 1.748498266615713 2.98799998
v -1.0385538361359807 0.6698194107383465 2.98799998
v 1.7143296226080769 2.060520482959191 2.98799998
v 3.145703510546591 1.8588880904253604 2.98799998
v 3.1550136200000014 4.18937762 2.98799998
v 3.1550136200000014 4.18937762 2.98799998
v 1.6556469331990176 4.18937762 2.98799998
v 1.7143296226080769 2.060520482959191 2.98799998
v 0.14500409340812914 2.1365068304826242 2.98799998
v 1.1419843998202976 1.748498266615713 2.98799998
v 1.7143296226080769 2.060520482959191 2.98799998
v 0.14500409340812914 2.1365068304826242 2.98799998
v 1.6556469331990176 4.18937762 2.98799998
v 0.246266275541291 4.18937762 2.98799998
v 1.6556469331990176 4.18937762 2.98799998
v 0.14500409340812914 2.1365068304826242 2.98799998
v 1.7143296226080769 2.060520482959191 2.98799998
v -0.9553263059897001 -1.183957035600092 2.98799998
v -0.4864532821565858 -0.20577949202033896 2.98799998
v -1.0385538361359807 0.6698194107383465 2.98799998
v -1.0385538361359807 0.6698194107383465 2.98799998
v -2.8844923399999995 0.5356799111631256 2.98799998
v -2.8844923399999995 -1.0798488532756503 2.98799998
v -2.8844923399999995 -1.0798488532756503 2.98799998
v -0.9553263059897001 -1.183957035600092 2.98799998
v -1.0385538361359807 0.6698194107383465 2.98799998
v -1.0385538361359807 0.6698194107383465 2.98799998
v -0.7083663919475857 1.8668633721500678 2.98799998
v -1.4344539598554875 2.467784946481653 2.98799998
v -1.4344539598554875 2.467784946481653 2.98799998
v -2.88449234 2.2980489903213046 2.98799998
v -2.8844923399999995 0.5356799111631256 2.98799998
v -2.8844923399999995 0.5356799111631256 2.98799998
v -1.0385538361359807 0.6698194107383465 2.98799998
v -1.4344539598554875 2.467784946481653 2.98799998
v -1.4344539598554875 2.467784946481653 2.98799998
v -0.7083663919475857 1.8668633721500678 2.98799998
v 0.14500409340812914 2.1365068304826242 2.98799998
v -1.4344539598554875 2.467784946481653 2.98799998
v 0.246266275541291 4.18937762 2.98799998
v -1.2157907194825188 4.189377620000001 2.98799998
v 0.246266275541291 4.18937762 2.98799998
v -1.4344539598554875 2.467784946481653 2.98799998
v 0.14500409340812914 2.1365068304826242 2.98799998
v -1.4344539598554875 2.467784946481653 2.98799998
v -1.2157907194825188 4.189377620000001 2.98799998
v -2.8844923399999995 4.18937762 2.98799998
v -2.8844923399999995 4.18937762 2.98799998
v -2.88449234 2.2980489903213046 2.98799998
v -1.4344539598554875 2.467784946481653 2.98799998
v 3.15501362 4.18937762 2.98799998
v 3.147083889405576 2.204421995672327 1.2964488336085687
v 3.15501362 4.18937762 1.943749080410701
v 3.1436616308432512 1.347768506590775 2.3180879758126056
v 3.15501362 4.18937762 2.98799998
v 3.143658770578239 1.3470525302968013 2.9879999800000006
v 3.15501362 4.18937762 2.98799998
v 3.1436616308432512 1.347768506590775 2.3180879758126056
v 3.147083889405576 2.204421995672327 1.2964488336085687
v 3.147083889405576 2.204421995672327 1.2964488336085687
v 3.1436616308432512 1.347768506590775 2.3180879758126056
v 3.138122258150321 -0.03883711022679269 1.1304101103618538
v 3.138122258150321 -0.03883711022679269 1.1304101103618538
v 3.138191263297265 -0.021563868355286453 2.220446049250313e-16
v 3.1468263531832523 2.139956000657491 -4.440892098500626e-16
v 3.1468263531832523 2.139956000657491 -4.440892098500626e-16
v 3.147083889405576 2.204421995672327 1.2964488336085687
v 3.138122258150321 -0.03883711022679269 1.1304101103618538
v 3.147083889405576 2.204421995672327 1.2964488336085687
v 3.1468263531832523 2.139956000657491 -4.440892098500626e-16
v 3.15501362 4.18937762 -4.440892098500626e-16
v 3.15501362 4.18937762 -4.440892098500626e-16
v 3.15501362 4.18937762 1.943749080410701
v 3.147083889405576 2.204421995672327 1.2964488336085687
v 3.1325208381650094 -1.4409742915181873 2.232431442443395
v 3.138122258150321 -0.03883711022679269 1.1304101103618538
v 3.1436616308432512 1.347768506590775 2.3180879758126056
v 3.1436616308432512 1.347768506590775 2.3180879758126056
v 3.143658770578239 1.3470525302968013 2.9879999800000006
v 3.1325304765457695 -1.4385616297169008 2.987999980000001
v 3.1325304765457695 -1.4385616297169008 2.987999980000001
v 3.1325208381650094 -1.4409742915181873 2.232431442443395
v 3.1436616308432512 1.347768506590775 2.3180879758126056
v 3.138122258150321 -0.03883711022679269 1.1304101103618538
v 3.1325208381650094 -1.4409742915181873 2.232431442443395
v 3.129311641185014 -2.2442945959300333 1.3161508310157766
v 3.138122258150321 -0.03883711022679269 1.1304101103618538
v 3.1294750191903375 -2.203398113168506 7.771561172376096e-16
v 3.138191263297265 -0.021563868355286453 2.220446049250313e-16
v 3.1294750191903375 -2.203398113168506 7.771561172376096e-16
v 3.138122258150321 -0.03883711022679269 1.1304101103618538
v 3.129311641185014 -2.2442945959300333 1.3161508310157766
v 3.129311641185014 -2.2442945959300333 1.3161508310157766
v 3.1325208381650094 -1.4409742915181873 2.232431442443395
v 3.1325304765457695 -1.4385616297169008 2.987999980000001
v 3.129311641185014 -2.2442945959300333 1.3161508310157766
v 3.12150753 -4.197805399999999 2.9879999800000014
v 3.12150753 -4.1978054 1.9242504480772105
v 3.12150753 -4.197805399999999 2.9879999800000014
v 3.129311641185014 -2.2442945959300333 1.3161508310157766
v 3.1325304765457695 -1.4385616297169008 2.987999980000001
v 3.129311641185014 -2.2442945959300333 1.3161508310157766
v 3.12150753 -4.1978054 1.9242504480772105
v 3.12150753 -4.197805399999998 9.926863567420317e-16
v 3.12150753 -4.197805399999998 9.926863567420317e-16
v 3.1294750191903375 -2.203398113168506 7.771561172376096e-16
v 3.129311641185014 -2.2442945959300333 1.3161508310157766
v -2.82349239 4.08237756 0.15
v -2.82349239 4.08237756 0.59500002
v -1.30349243 4.08237756 0.59500002
v -1.30349243 4.08237756 0.59500002
v -1.30349243 4.08237756 0.15
v -2.82349239 4.08237756 0.15
v -0.7634924 4.08237756 0.15
v -0.7634924 4.08237756 0.59500002
v 0.7565076000000001 4.08237756 0.59500002
v 0.7565076000000001 4.08237756 0.59500002
v 0.7565076000000001 4.08237756 0.15
v -0.7634924 4.08237756 0.15
v 1.26650758 4.08237756 0.15
v 1.26650758 4.08237756 0.59500002
v 2.78650763 4.08237756 0.59500002
v 2.78650763 4.08237756 0.59500002
v 2.78650763 4.08237756 0.15
v 1.26650758 4.08237756 0.15

usemtl Patch_1_Mat_CR2_concrete
f 3 2 1
f 6 5 4

usemtl Patch_2_Mat_CR2_windows
f 9 8 7
f 12 11 10

usemtl Patch_3_Mat_CR2_windows
f 15 14 13
f 18 17 16

usemtl Patch_4_Mat_CR2_windows
f 21 20 19
f 24 23 22

usemtl Patch_5_Mat_CR2_concrete
f 27 26 25
f 30 29 28

usemtl Patch_6_Mat_CR2_concrete
f 33 32 31
f 36 35 34

usemtl Patch_7_Mat_CR2_concrete
f 39 38 37
f 42 41 40

usemtl Patch_8_Mat_CR2_concrete
f 45 44 43
f 48 47 46

usemtl Patch_9_Mat_CR2_concrete
f 51 50 49
f 54 53 52
f 57 56 55
f 60 59 58
f 63 62 61
f 66 65 64
f 69 68 67
f 72 71 70

usemtl Patch_10_Mat_CR2_concrete
f 75 74 73
f 78 77 76
f 81 80 79
f 84 83 82
f 87 86 85
f 90 89 88
f 93 92 91
f 96 95 94
f 99 98 97

usemtl Patch_11_Mat_CR2_concrete
f 102 101 100
f 105 104 103
f 108 107 106
f 111 110 109
f 114 113 112
f 117 116 115
f 120 119 118
f 123 122 121

usemtl Patch_12_Mat_CR2_floor
f 126 125 124
f 129 128 127
f 132 131 130
f 135 134 133

usemtl Patch_13_Mat_CR2_floor
f 138 137 136
f 141 140 139
f 144 143 142

usemtl Patch_14_Mat_CR2_floor
f 147 146 145
f 150 149 148
f 153 152 151
f 156 155 154
f 159 158 157

usemtl Patch_15_Mat_CR2_floor
f 162 161 160
f 165 164 163
f 168 167 166

usemtl Patch_16_Mat_CR2_floor
f 171 170 169
f 174 173 172
f 177 176 175

usemtl Patch_17_Mat_CR2_floor
f 180 179 178
f 183 182 181

usemtl Patch_18_Mat_CR2_floor
f 186 185 184
f 189 188 187
f 192 191 190
f 195 194 193

usemtl Patch_19_Mat_CR2_floor
f 198 197 196
f 201 200 199

usemtl Patch_20_Mat_CR2_floor
f 204 203 202
f 207 206 205
f 210 209 208

usemtl Patch_21_Mat_CR2_floor
f 213 212 211
f 216 215 214
f 219 218 217
f 222 221 220

usemtl Patch_22_Mat_CR2_floor
f 225 224 223
f 228 227 226
f 231 230 229

usemtl Patch_23_Mat_CR2_floor
f 234 233 232
f 237 236 235
f 240 239 238

usemtl Patch_24_Mat_CR2_floor
f 243 242 241
f 246 245 244

usemtl Patch_25_Mat_CR2_plaster
f 249 248 247
f 252 251 250

usemtl Patch_26_Mat_CR2_plaster
f 255 254 253
f 258 257 256
f 261 260 259

usemtl Patch_27_Mat_CR2_plaster
f 264 263 262
f 267 266 265
f 270 269 268

usemtl Patch_28_Mat_CR2_plaster
f 273 272 271
f 276 275 274
f 279 278 277

usemtl Patch_29_Mat_CR2_plaster
f 282 281 280
f 285 284 283
f 288 287 286

usemtl Patch_30_Mat_CR2_plaster
f 291 290 289
f 294 293 292
f 297 296 295

usemtl Patch_31_Mat_CR2_plaster
f 300 299 298
f 303 302 301

usemtl Patch_32_Mat_CR2_plaster
f 306 305 304
f 309 308 307
f 312 311 310

usemtl Patch_33_Mat_CR2_plaster
f 315 314 313
f 318 317 316

usemtl Patch_34_Mat_CR2_plaster
f 321 320 319
f 324 323 322

usemtl Patch_35_Mat_CR2_plaster
f 327 326 325
f 330 329 328
f 333 332 331

usemtl Patch_36_Mat_CR2_ceiling
f 336 335 334
f 339 338 337
f 342 341 340

usemtl Patch_37_Mat_CR2_ceiling
f 345 344 343
f 348 347 346

usemtl Patch_38_Mat_CR2_ceiling
f 351 350 349
f 354 353 352
f 357 356 355
f 360 359 358

usemtl Patch_39_Mat_CR2_ceiling
f 363 362 361
f 366 365 364
f 369 368 367

usemtl Patch_40_Mat_CR2_ceiling
f 372 371 370
f 375 374 373
f 378 377 376
f 381 380 379
f 384 383 382

usemtl Patch_41_Mat_CR2_ceiling
f 387 386 385
f 390 389 388
f 393 392 391
f 396 395 394

usemtl Patch_42_Mat_CR2_ceiling
f 399 398 397
f 402 401 400
f 405 404 403
f 408 407 406

usemtl Patch_43_Mat_CR2_ceiling
f 411 410 409
f 414 413 412

usemtl Patch_44_Mat_CR2_ceiling
f 417 416 415
f 420 419 418
f 423 422 421

usemtl Patch_45_Mat_CR2_ceiling
f 426 425 424
f 429 428 427
f 432 431 430

usemtl Patch_46_Mat_CR2_ceiling
f 435 434 433
f 438 437 436
f 441 440 439

usemtl Patch_47_Mat_CR2_ceiling
f 444 443 442
f 447 446 445
f 450 449 448

usemtl Patch_48_Mat_CR2_ceiling
f 453 452 451
f 456 455 454

usemtl Patch_49_Mat_CR2_concrete
f 459 458 457
f 462 461 460
f 465 464 463

usemtl Patch_50_Mat_CR2_concrete
f 468 467 466
f 471 470 469
f 474 473 472

usemtl Patch_51_Mat_CR2_concrete
f 477 476 475
f 480 479 478

usemtl Patch_52_Mat_CR2_concrete
f 483 482 481
f 486 485 484
f 489 488 487

usemtl Patch_53_Mat_CR2_concrete
f 492 491 490
f 495 494 493
f 498 497 496

usemtl Patch_54_Mat_CR2_concrete
f 501 500 499
f 504 503 502
f 507 506 505

usemtl Patch_55_Mat_CR2_concrete
f 510 509 508
f 513 512 511

usemtl Patch_56_Mat_CR2_concrete
f 516 515 514
f 519 518 517

usemtl Patch_57_Mat_CR2_concrete
f 522 521 520
f 525 524 523

usemtl Patch_58_Mat_CR2_concrete
f 528 527 526
f 531 530 529

