mtllib mesh.mtl

v 6.10173802 1.90299993 2.73600005
v 5.070699617383545 0.22025190053383942 2.73600005
v 6.10173802 0.23406750530910037 2.73600005
v 4.63827027082831 0.6860249739578197 2.73600005
v 6.10173802 1.90299993 2.73600005
v 4.930137732862643 2.0106066785981853 2.73600005
v 5.070699617383545 0.22025190053383942 2.73600005
v 6.10173802 1.90299993 2.73600005
v 4.63827027082831 0.6860249739578197 2.73600005
v 5.070699617383545 0.22025190053383942 2.73600005
v 4.621596561178503 -0.8378928979585849 2.73600005
v 5.0694501532549845 -1.4603002125319025 2.73600005
v 5.070699617383545 0.22025190053383942 2.73600005
v 6.10173802 -1.4661560206733024 2.73600005
v 6.10173802 0.23406750530910037 2.73600005
v 6.10173802 -1.4661560206733024 2.73600005
v 5.070699617383545 0.22025190053383942 2.73600005
v 5.0694501532549845 -1.4603002125319025 2.73600005
v 3.2993764378681645 0.9319943512729736 2.73600005
v 3.594539196110829 0.6114186398170569 2.73600005
v 4.63827027082831 0.6860249739578197 2.73600005
v 4.63827027082831 0.6860249739578197 2.73600005
v 4.930137732862643 2.0106066785981853 2.73600005
v 3.443088934228747 2.147186097350983 2.73600005
v 3.443088934228747 2.147186097350983 2.73600005
v 3.2993764378681645 0.9319943512729736 2.73600005
v 4.63827027082831 0.6860249739578197 2.73600005
v 4.621596561178503 -0.8378928979585849 2.73600005
v 3.594539196110829 0.6114186398170569 2.73600005
v 3.370112101096935 -0.4892413857874377 2.73600005
v 3.370112101096935 -0.4892413857874377 2.73600005
v 3.6231199524609923 -0.8244506815352244 2.73600005
v 4.621596561178503 -0.8378928979585849 2.73600005
v 4.621596561178503 -0.8378928979585849 2.73600005
v 5.070699617383545 0.22025190053383942 2.73600005
v 4.63827027082831 0.6860249739578197 2.73600005
v 3.594539196110829 0.6114186398170569 2.73600005
v 4.621596561178503 -0.8378928979585849 2.73600005
v 4.63827027082831 0.6860249739578197 2.73600005
v 1.8822745563914274 1.1705885301313674 2.73600005
v 2.0345797615088723 2.2765519690660145 2.73600005
v 0.5707378399999996 2.4109999300000005 2.73600005
v 0.5707378399999996 2.4109999300000005 2.73600005
v 0.57073784 1.0888802690843646 2.73600005
v 1.8822745563914274 1.1705885301313674 2.73600005
v 1.8822745563914274 1.1705885301313674 2.73600005
v 2.1542132856105827 0.8223807026430929 2.73600005
v 3.2993764378681645 0.9319943512729736 2.73600005
v 1.8822745563914274 1.1705885301313674 2.73600005
v 3.443088934228747 2.147186097350983 2.73600005
v 2.0345797615088723 2.2765519690660145 2.73600005
v 3.443088934228747 2.147186097350983 2.73600005
v 1.8822745563914274 1.1705885301313674 2.73600005
v 3.2993764378681645 0.9319943512729736 2.73600005
v 3.370112101096935 -0.4892413857874377 2.73600005
v 1.9506465998906 -0.1044425803185951 2.73600005
v 2.178001991526598 -0.472280021503912 2.73600005
v 3.2993764378681645 0.9319943512729736 2.73600005
v 3.370112101096935 -0.4892413857874377 2.73600005
v 3.594539196110829 0.6114186398170569 2.73600005
v 1.9506465998906 -0.1044425803185951 2.73600005
v 3.2993764378681645 0.9319943512729736 2.73600005
v 2.1542132856105827 0.8223807026430929 2.73600005
v 3.370112101096935 -0.4892413857874377 2.73600005
v 3.2993764378681645 0.9319943512729736 2.73600005
v 1.9506465998906 -0.1044425803185951 2.73600005
v 5.0694501532549845 -1.4603002125319025 2.73600005
v 4.6003473653202045 -2.3117913062067097 2.73600005
v 5.060883131841896 -3.092108692158426 2.73600005
v 5.060883131841896 -3.092108692158426 2.73600005
v 6.101738019999999 -3.094735067034235 2.73600005
v 6.10173802 -1.4661560206733024 2.73600005
v 6.10173802 -1.4661560206733024 2.73600005
v 5.0694501532549845 -1.4603002125319025 2.73600005
v 5.060883131841896 -3.092108692158426 2.73600005
v 4.621596561178503 -0.8378928979585849 2.73600005
v 3.6231199524609923 -0.8244506815352244 2.73600005
v 3.31875966575267 -1.8445238661538814 2.73600005
v 3.31875966575267 -1.8445238661538814 2.73600005
v 3.650823943941216 -2.31625846179385 2.73600005
v 4.6003473653202045 -2.3117913062067097 2.73600005
v 4.6003473653202045 -2.3117913062067097 2.73600005
v 5.0694501532549845 -1.4603002125319025 2.73600005
v 4.621596561178503 -0.8378928979585849 2.73600005
v 4.621596561178503 -0.8378928979585849 2.73600005
v 3.31875966575267 -1.8445238661538814 2.73600005
v 4.6003473653202045 -2.3117913062067097 2.73600005
v 0.57073784 0.49900001999999954 2.73600005
v 2.1542132856105827 0.8223807026430929 2.73600005
v 1.8822745563914274 1.1705885301313674 2.73600005
v 1.8822745563914274 1.1705885301313674 2.73600005
v 0.57073784 1.0888802690843646 2.73600005
v 0.57073784 0.49900001999999954 2.73600005
v 0.57073784 0.49900001999999954 2.73600005
v 0.5707378400000005 -0.09010007200811199 2.73600005
v 1.9506465998906 -0.1044425803185951 2.73600005
v 2.1542132856105827 0.8223807026430929 2.73600005
v 0.57073784 0.49900001999999954 2.73600005
v 1.9506465998906 -0.1044425803185951 2.73600005
v 3.370112101096935 -0.4892413857874377 2.73600005
v 2.178001991526598 -0.472280021503912 2.73600005
v 1.9160045601234141 -1.327257929836387 2.73600005
v 1.9160045601234141 -1.327257929836387 2.73600005
v 2.209773609436278 -1.859777891629331 2.73600005
v 3.31875966575267 -1.8445238661538814 2.73600005
v 3.31875966575267 -1.8445238661538814 2.73600005
v 3.6231199524609923 -0.8244506815352244 2.73600005
v 3.370112101096935 -0.4892413857874377 2.73600005
v 3.370112101096935 -0.4892413857874377 2.73600005
v 1.9160045601234141 -1.327257929836387 2.73600005
v 3.31875966575267 -1.8445238661538814 2.73600005
v 6.10173802 -4.6540025229550235 2.73600005
v 4.61460318245418 -3.7730424292085356 2.73600005
v 4.916036192561869 -4.635551686132159 2.73600005
v 5.060883131841896 -3.092108692158426 2.73600005
v 6.10173802 -4.6540025229550235 2.73600005
v 6.101738019999999 -3.094735067034235 2.73600005
v 6.10173802 -4.6540025229550235 2.73600005
v 5.060883131841896 -3.092108692158426 2.73600005
v 4.61460318245418 -3.7730424292085356 2.73600005
v 1.9160045601234141 -1.327257929836387 2.73600005
v 2.178001991526598 -0.472280021503912 2.73600005
v 1.9506465998906 -0.1044425803185951 2.73600005
v 1.9160045601234141 -1.327257929836387 2.73600005
v 0.5707378400000005 -0.09010007200811199 2.73600005
v 0.57073784 -1.3404012838892865 2.73600005
v 0.5707378400000005 -0.09010007200811199 2.73600005
v 1.9160045601234141 -1.327257929836387 2.73600005
v 1.9506465998906 -0.1044425803185951 2.73600005
v 3.5237016461298296 -3.6649867965993863 2.73600005
v 3.650823943941216 -2.31625846179385 2.73600005
v 3.2947284777326566 -3.2902129861492035 2.73600005
v 4.6003473653202045 -2.3117913062067097 2.73600005
v 3.5237016461298296 -3.6649867965993863 2.73600005
v 4.61460318245418 -3.7730424292085356 2.73600005
v 4.61460318245418 -3.7730424292085356 2.73600005
v 5.060883131841896 -3.092108692158426 2.73600005
v 4.6003473653202045 -2.3117913062067097 2.73600005
v 3.650823943941216 -2.31625846179385 2.73600005
v 3.5237016461298296 -3.6649867965993863 2.73600005
v 4.6003473653202045 -2.3117913062067097 2.73600005
v 1.861853068889843 -3.8218763208773368 2.73600005
v 2.20008643840827 -3.21535033179521 2.73600005
v 1.9186164101249608 -2.577040756090889 2.73600005
v 1.861853068889843 -3.8218763208773368 2.73600005
v 0.57073784 -2.56825169060603 2.73600005
v 0.5707378400000005 -3.804907643296495 2.73600005
v 0.57073784 -2.56825169060603 2.73600005
v 1.861853068889843 -3.8218763208773368 2.73600005
v 1.9186164101249608 -2.577040756090889 2.73600005
v 1.9186164101249608 -2.577040756090889 2.73600005
v 2.209773609436278 -1.859777891629331 2.73600005
v 1.9160045601234141 -1.327257929836387 2.73600005
v 1.9186164101249608 -2.577040756090889 2.73600005
v 0.57073784 -1.3404012838892865 2.73600005
v 0.57073784 -2.56825169060603 2.73600005
v 0.57073784 -1.3404012838892865 2.73600005
v 1.9186164101249608 -2.577040756090889 2.73600005
v 1.9160045601234141 -1.327257929836387 2.73600005
v 1.9186164101249608 -2.577040756090889 2.73600005
v 2.20008643840827 -3.21535033179521 2.73600005
v 3.2947284777326566 -3.2902129861492035 2.73600005
v 3.2947284777326566 -3.2902129861492035 2.73600005
v 3.650823943941216 -2.31625846179385 2.73600005
v 3.31875966575267 -1.8445238661538814 2.73600005
v 3.31875966575267 -1.8445238661538814 2.73600005
v 2.209773609436278 -1.859777891629331 2.73600005
v 1.9186164101249608 -2.577040756090889 2.73600005
v 1.9186164101249608 -2.577040756090889 2.73600005
v 3.2947284777326566 -3.2902129861492035 2.73600005
v 3.31875966575267 -1.8445238661538814 2.73600005
v 6.101738019999999 -6.159999970000003 2.73600005
v 4.67241629968232 -4.975819482470874 2.73600005
v 4.864558155681607 -6.159999970000003 2.73600005
v 4.67241629968232 -4.975819482470874 2.73600005
v 6.101738019999999 -6.159999970000003 2.73600005
v 6.10173802 -4.6540025229550235 2.73600005
v 4.67241629968232 -4.975819482470874 2.73600005
v 6.10173802 -4.6540025229550235 2.73600005
v 4.916036192561869 -4.635551686132159 2.73600005
v 3.5237016461298296 -3.6649867965993863 2.73600005
v 3.192332203828002 -4.695112452236171 2.73600005
v 3.4492725086575344 -5.0261277445461605 2.73600005
v 4.61460318245418 -3.7730424292085356 2.73600005
v 4.67241629968232 -4.975819482470874 2.73600005
v 4.916036192561869 -4.635551686132159 2.73600005
v 3.4492725086575344 -5.0261277445461605 2.73600005
v 4.61460318245418 -3.7730424292085356 2.73600005
v 3.5237016461298296 -3.6649867965993863 2.73600005
v 4.61460318245418 -3.7730424292085356 2.73600005
v 3.4492725086575344 -5.0261277445461605 2.73600005
v 4.67241629968232 -4.975819482470874 2.73600005
v 3.2947284777326566 -3.2902129861492035 2.73600005
v 2.20008643840827 -3.21535033179521 2.73600005
v 1.861853068889843 -3.8218763208773368 2.73600005
v 1.861853068889843 -3.8218763208773368 2.73600005
v 2.163900667155424 -4.698460425446973 2.73600005
v 3.192332203828002 -4.695112452236171 2.73600005
v 1.861853068889843 -3.8218763208773368 2.73600005
v 3.5237016461298296 -3.6649867965993863 2.73600005
v 3.2947284777326566 -3.2902129861492035 2.73600005
v 3.5237016461298296 -3.6649867965993863 2.73600005
v 1.861853068889843 -3.8218763208773368 2.73600005
v 3.192332203828002 -4.695112452236171 2.73600005
v 4.864558155681607 -6.159999970000003 2.73600005
v 3.4492725086575344 -5.0261277445461605 2.73600005
v 3.3074320533769597 -6.159999970000002 2.73600005
v 3.4492725086575344 -5.0261277445461605 2.73600005
v 4.864558155681607 -6.159999970000003 2.73600005
v 4.67241629968232 -4.975819482470874 2.73600005
v 1.9332734374878475 -5.019744163186344 2.73600005
v 2.163900667155424 -4.698460425446973 2.73600005
v 1.861853068889843 -3.8218763208773368 2.73600005
v 1.861853068889843 -3.8218763208773368 2.73600005
v 0.5707378400000005 -3.804907643296495 2.73600005
v 0.5707378400000012 -5.007903134218414 2.73600005
v 0.5707378400000012 -5.007903134218414 2.73600005
v 1.9332734374878475 -5.019744163186344 2.73600005
v 1.861853068889843 -3.8218763208773368 2.73600005
v 3.3074320533769597 -6.159999970000002 2.73600005
v 1.9332734374878475 -5.019744163186344 2.73600005
v 2.0606279238881795 -6.159999970000002 2.73600005
v 1.9332734374878475 -5.019744163186344 2.73600005
v 3.3074320533769597 -6.159999970000002 2.73600005
v 3.4492725086575344 -5.0261277445461605 2.73600005
v 1.9332734374878475 -5.019744163186344 2.73600005
v 3.192332203828002 -4.695112452236171 2.73600005
v 2.163900667155424 -4.698460425446973 2.73600005
v 3.192332203828002 -4.695112452236171 2.73600005
v 1.9332734374878475 -5.019744163186344 2.73600005
v 3.4492725086575344 -5.0261277445461605 2.73600005
v 1.9332734374878475 -5.019744163186344 2.73600005
v 0.5707378400000012 -5.007903134218414 2.73600005
v 0.5707378400000008 -6.159999970000001 2.73600005
v 0.5707378400000008 -6.159999970000001 2.73600005
v 2.0606279238881795 -6.159999970000002 2.73600005
v 1.9332734374878475 -5.019744163186344 2.73600005
v -4.989235249766169 -3.6479998099999995 1.617860048817414
v -5.37424504206546 -3.6479998099999986 2.7680000399999996
v -6.25126223 -3.6479998099999986 2.7680000399999996
v -4.989235249766169 -3.6479998099999995 1.617860048817414
v -6.25126223 -3.6479998099999995 1.10000001
v -5.2561029967709265 -3.64799981 1.10000001
v -6.25126223 -3.6479998099999995 1.10000001
v -4.989235249766169 -3.6479998099999995 1.617860048817414
v -6.25126223 -3.6479998099999986 2.7680000399999996
v -2.6766418671410808 -3.6479998100000004 1.2103664628135347
v -3.5671186728065547 -3.64799981 1.3738782509996943
v -3.7555742789622166 -3.64799981 1.10000001
v -3.7555742789622166 -3.64799981 1.10000001
v -2.5804354384230206 -3.6479998100000004 1.10000001
v -2.6766418671410808 -3.6479998100000004 1.2103664628135347
v -3.7555742789622166 -3.64799981 1.10000001
v -2.8027147800000005 -3.647999810000001 -2.220446049250313e-16
v -2.8027147800000005 -3.6479998100000004 1.10000001
v -2.8027147800000005 -3.647999810000001 -2.220446049250313e-16
v -3.7555742789622166 -3.64799981 1.10000001
v -4.512484239750289 -3.6479998100000004 -2.220446049250313e-16
v -3.7555742789622166 -3.64799981 1.10000001
v -3.5671186728065547 -3.64799981 1.3738782509996943
v -3.9312955089972674 -3.6479998099999995 1.8465065784118346
v -4.52168292 -3.64799981 1.10000001
v -4.989235249766169 -3.6479998099999995 1.617860048817414
v -5.2561029967709265 -3.64799981 1.10000001
v -4.52168292 -3.64799981 1.10000001
v -4.52168292 -3.6479998100000004 0.0
v -4.512484239750289 -3.6479998100000004 -2.220446049250313e-16
v -4.52168292 -3.64799981 1.10000001
v -3.7555742789622166 -3.64799981 1.10000001
v -3.9312955089972674 -3.6479998099999995 1.8465065784118346
v -4.989235249766169 -3.6479998099999995 1.617860048817414
v -4.52168292 -3.64799981 1.10000001
v -3.9312955089972674 -3.6479998099999995 1.8465065784118346
v -3.7555742789622166 -3.64799981 1.10000001
v -4.52168292 -3.64799981 1.10000001
v -4.512484239750289 -3.6479998100000004 -2.220446049250313e-16
v -2.4623054325742055 -3.6479998099999995 2.76800004
v -3.5671186728065547 -3.64799981 1.3738782509996943
v -2.6766418671410808 -3.6479998100000004 1.2103664628135347
v -3.9312955089972674 -3.6479998099999995 1.8465065784118346
v -2.4623054325742055 -3.6479998099999995 2.76800004
v -3.79767991771923 -3.647999809999999 2.7680000399999996
v -2.4623054325742055 -3.6479998099999995 2.76800004
v -3.9312955089972674 -3.6479998099999995 1.8465065784118346
v -3.5671186728065547 -3.64799981 1.3738782509996943
v -5.37424504206546 -3.6479998099999986 2.7680000399999996
v -3.9312955089972674 -3.6479998099999995 1.8465065784118346
v -3.79767991771923 -3.647999809999999 2.7680000399999996
v -3.9312955089972674 -3.6479998099999995 1.8465065784118346
v -5.37424504206546 -3.6479998099999986 2.7680000399999996
v -4.989235249766169 -3.6479998099999995 1.617860048817414
v -2.6766418671410808 -3.6479998100000004 1.2103664628135347
v -2.5804354384230206 -3.6479998100000004 1.10000001
v -1.2830378236849254 -3.647999810000001 1.1000000100000003
v -1.2830378236849254 -3.647999810000001 1.1000000100000003
v -1.323648790828319 -3.6479998099999995 2.76800004
v -2.4623054325742055 -3.6479998099999995 2.76800004
v -2.4623054325742055 -3.6479998099999995 2.76800004
v -2.6766418671410808 -3.6479998100000004 1.2103664628135347
v -1.2830378236849254 -3.647999810000001 1.1000000100000003
v -1.2830378236849254 -3.647999810000001 1.1000000100000003
v -0.00026214000000068793 -3.647999810000001 1.10000001
v -0.00026214000000115756 -3.64799981 2.7680000399999996
v -0.00026214000000115756 -3.64799981 2.7680000399999996
v -1.323648790828319 -3.6479998099999995 2.76800004
v -1.2830378236849254 -3.647999810000001 1.1000000100000003
v -0.00026214 2.52300007 2.76800004
v -1.004998995035545 1.2236381696763385 2.76800004
v -0.00026213999999979976 1.326219999784154 2.76800004
v -1.6341872941978322 1.9700159821621828 2.76800004
v -0.00026214 2.52300007 2.76800004
v -1.55395992283218 2.6649231499284043 2.76800004
v -0.00026214 2.52300007 2.76800004
v -1.6341872941978322 1.9700159821621828 2.76800004
v -1.004998995035545 1.2236381696763385 2.76800004
v -3.323366302773886 2.8265502088462187 2.76800004
v -2.54294300058028 1.3757449904590022 2.76800004
v -1.6341872941978322 1.9700159821621828 2.76800004
v -1.6341872941978322 1.9700159821621828 2.76800004
v -1.55395992283218 2.6649231499284043 2.76800004
v -3.323366302773886 2.8265502088462187 2.76800004
v -2.54294300058028 1.3757449904590022 2.76800004
v -3.323366302773886 2.8265502088462187 2.76800004
v -3.2717166936242705 1.7444397981869662 2.76800004
v -1.004998995035545 1.2236381696763385 2.76800004
v -1.4171117507064168 0.3395721297437683 2.76800004
v -1.1809241751412518 -0.07910111513206863 2.76800004
v -1.004998995035545 1.2236381696763385 2.76800004
v -0.0002621399999995777 -0.18140062587164407 2.76800004
v -0.00026213999999979976 1.326219999784154 2.76800004
v -0.0002621399999995777 -0.18140062587164407 2.76800004
v -1.004998995035545 1.2236381696763385 2.76800004
v -1.1809241751412518 -0.07910111513206863 2.76800004
v -1.4727349397061742 -2.581833009434434 2.76800004
v -1.5182101145186908 -3.64799981 2.76800004
v -0.0002621399999989116 -3.6479998100000004 2.7680000400000004
v -0.0002621399999989116 -3.6479998100000004 2.7680000400000004
v -0.0002621399999989116 -2.468039212308115 2.7680000400000004
v -1.4727349397061742 -2.581833009434434 2.76800004
v -1.4171117507064168 0.3395721297437683 2.76800004
v -2.54294300058028 1.3757449904590022 2.76800004
v -2.395913157811127 0.49986860539292766 2.76800004
v -2.54294300058028 1.3757449904590022 2.76800004
v -1.4171117507064168 0.3395721297437683 2.76800004
v -1.004998995035545 1.2236381696763385 2.76800004
v -2.54294300058028 1.3757449904590022 2.76800004
v -1.004998995035545 1.2236381696763385 2.76800004
v -1.6341872941978322 1.9700159821621828 2.76800004
v -2.395913157811127 0.49986860539292766 2.76800004
v -2.8509576449369916 0.0329034595546632 2.76800004
v -2.4598811580994893 -0.9380655483936341 2.76800004
v -2.4598811580994893 -0.9380655483936341 2.76800004
v -1.6122637469925776 -1.1325553323886657 2.76800004
v -1.1809241751412518 -0.07910111513206863 2.76800004
v -2.4598811580994893 -0.9380655483936341 2.76800004
v -1.4171117507064168 0.3395721297437683 2.76800004
v -2.395913157811127 0.49986860539292766 2.76800004
v -1.4171117507064168 0.3395721297437683 2.76800004
v -2.4598811580994893 -0.9380655483936341 2.76800004
v -1.1809241751412518 -0.07910111513206863 2.76800004
v -2.54294300058028 1.3757449904590022 2.76800004
v -4.049179106215555 1.1666053938258263 2.76800004
v -3.486551107682041 0.06893194967689398 2.76800004
v -3.486551107682041 0.06893194967689398 2.76800004
v -2.8509576449369916 0.0329034595546632 2.76800004
v -2.395913157811127 0.49986860539292766 2.76800004
v -4.049179106215555 1.1666053938258263 2.76800004
v -2.54294300058028 1.3757449904590022 2.76800004
v -3.2717166936242705 1.7444397981869662 2.76800004
v -2.54294300058028 1.3757449904590022 2.76800004
v -3.486551107682041 0.06893194967689398 2.76800004
v -2.395913157811127 0.49986860539292766 2.76800004
v -1.1809241751412518 -0.07910111513206863 2.76800004
v -1.6122637469925776 -1.1325553323886657 2.76800004
v -1.5098694460275073 -1.3078835114886702 2.76800004
v -1.1809241751412518 -0.07910111513206863 2.76800004
v -0.00026213999999935567 -1.4475564343192169 2.76800004
v -0.0002621399999995777 -0.18140062587164407 2.76800004
v -0.00026213999999935567 -1.4475564343192169 2.76800004
v -1.1809241751412518 -0.07910111513206863 2.76800004
v -1.5098694460275073 -1.3078835114886702 2.76800004
v -4.911495168588319 1.768756829401056 2.76800004
v -4.665223837679911 2.949122665525569 2.7680000399999996
v -6.25126223 3.0939999100000013 2.7680000399999996
v -6.25126223 3.0939999100000013 2.7680000399999996
v -6.25126223 1.7466614507585896 2.7680000399999996
v -4.911495168588319 1.768756829401056 2.76800004
v -3.2717166936242705 1.7444397981869662 2.76800004
v -4.665223837679911 2.949122665525569 2.7680000399999996
v -4.911495168588319 1.768756829401056 2.76800004
v -4.911495168588319 1.768756829401056 2.76800004
v -4.539278760426084 1.2304370316752902 2.76800004
v -4.049179106215555 1.1666053938258263 2.76800004
v -4.665223837679911 2.949122665525569 2.7680000399999996
v -3.2717166936242705 1.7444397981869662 2.76800004
v -3.323366302773886 2.8265502088462187 2.76800004
v -3.2717166936242705 1.7444397981869662 2.76800004
v -4.911495168588319 1.768756829401056 2.76800004
v -4.049179106215555 1.1666053938258263 2.76800004
v -4.136940716590644 -0.6053545700561047 2.76800004
v -5.128351375847228 0.39321241604434154 2.76800004
v -4.691501912012156 -0.6115981921327023 2.76800004
v -5.128351375847228 0.39321241604434154 2.76800004
v -4.136940716590644 -0.6053545700561047 2.76800004
v -3.486551107682041 0.06893194967689398 2.76800004
v -5.128351375847228 0.39321241604434154 2.76800004
v -4.049179106215555 1.1666053938258263 2.76800004
v -4.539278760426084 1.2304370316752902 2.76800004
v -4.049179106215555 1.1666053938258263 2.76800004
v -5.128351375847228 0.39321241604434154 2.76800004
v -3.486551107682041 0.06893194967689398 2.76800004
v -2.957938010406495 -2.439218245817456 2.76800004
v -3.344810970256702 -1.7457135051960433 2.76800004
v -3.368612932539719 -1.9235490369279513 2.76800004
v -2.4598811580994893 -0.9380655483936341 2.76800004
v -1.6563122758744566 -2.3352538894600823 2.76800004
v -1.5098694460275073 -1.3078835114886702 2.76800004
v -2.4598811580994893 -0.9380655483936341 2.76800004
v -1.5098694460275073 -1.3078835114886702 2.76800004
v -1.6122637469925776 -1.1325553323886657 2.76800004
v -3.344810970256702 -1.7457135051960433 2.76800004
v -2.957938010406495 -2.439218245817456 2.76800004
v -2.4598811580994893 -0.9380655483936341 2.76800004
v -1.6563122758744566 -2.3352538894600823 2.76800004
v -2.4598811580994893 -0.9380655483936341 2.76800004
v -2.957938010406495 -2.439218245817456 2.76800004
v -2.4598811580994893 -0.9380655483936341 2.76800004
v -3.486551107682041 0.06893194967689398 2.76800004
v -4.136940716590644 -0.6053545700561047 2.76800004
v -4.136940716590644 -0.6053545700561047 2.76800004
v -3.344810970256702 -1.7457135051960433 2.76800004
v -2.4598811580994893 -0.9380655483936341 2.76800004
v -3.486551107682041 0.06893194967689398 2.76800004
v -2.4598811580994893 -0.9380655483936341 2.76800004
v -2.8509576449369916 0.0329034595546632 2.76800004
v -1.5098694460275073 -1.3078835114886702 2.76800004
v -1.6563122758744566 -2.3352538894600823 2.76800004
v -1.4727349397061742 -2.581833009434434 2.76800004
v -1.4727349397061742 -2.581833009434434 2.76800004
v -0.0002621399999989116 -2.468039212308115 2.7680000400000004
v -0.00026213999999935567 -1.4475564343192169 2.76800004
v -0.00026213999999935567 -1.4475564343192169 2.76800004
v -1.5098694460275073 -1.3078835114886702 2.76800004
v -1.4727349397061742 -2.581833009434434 2.76800004
v -5.025447947805938 -0.9684304368657386 2.76800004
v -4.691501912012156 -0.6115981921327023 2.76800004
v -5.128351375847228 0.39321241604434154 2.76800004
v -5.128351375847228 0.39321241604434154 2.76800004
v -6.25126223 0.45201234856230776 2.76800004
v -6.251262229999999 -0.953970899144517 2.76800004
v -6.251262229999999 -0.953970899144517 2.76800004
v -5.025447947805938 -0.9684304368657386 2.76800004
v -5.128351375847228 0.39321241604434154 2.76800004
v -4.136940716590644 -0.6053545700561047 2.76800004
v -4.691501912012156 -0.6115981921327023 2.76800004
v -5.025447947805938 -0.9684304368657386 2.76800004
v -3.344810970256702 -1.7457135051960433 2.76800004
v -4.876180206650849 -2.2029446979581113 2.76800004
v -4.606560288331124 -2.398712431297833 2.76800004
v -4.606560288331124 -2.398712431297833 2.76800004
v -3.368612932539719 -1.9235490369279513 2.76800004
v -3.344810970256702 -1.7457135051960433 2.76800004
v -4.876180206650849 -2.2029446979581113 2.76800004
v -4.136940716590644 -0.6053545700561047 2.76800004
v -5.025447947805938 -0.9684304368657386 2.76800004
v -4.136940716590644 -0.6053545700561047 2.76800004
v -4.876180206650849 -2.2029446979581113 2.76800004
v -3.344810970256702 -1.7457135051960433 2.76800004
v -5.128351375847228 0.39321241604434154 2.76800004
v -4.539278760426084 1.2304370316752902 2.76800004
v -4.911495168588319 1.768756829401056 2.76800004
v -5.128351375847228 0.39321241604434154 2.76800004
v -6.25126223 1.7466614507585896 2.7680000399999996
v -6.25126223 0.45201234856230776 2.76800004
v -6.25126223 1.7466614507585896 2.7680000399999996
v -5.128351375847228 0.39321241604434154 2.76800004
v -4.911495168588319 1.768756829401056 2.76800004
v -1.4727349397061742 -2.581833009434434 2.76800004
v -1.6563122758744566 -2.3352538894600823 2.76800004
v -2.957938010406495 -2.439218245817456 2.76800004
v -2.957938010406495 -2.439218245817456 2.76800004
v -3.080567523212836 -3.64799981 2.76800004
v -1.5182101145186908 -3.64799981 2.76800004
v -1.5182101145186908 -3.64799981 2.76800004
v -1.4727349397061742 -2.581833009434434 2.76800004
v -2.957938010406495 -2.439218245817456 2.76800004
v -6.251262229999999 -3.647999809999999 2.76800004
v -4.876180206650849 -2.2029446979581113 2.76800004
v -6.251262229999999 -2.435289634688746 2.76800004
v -4.876180206650849 -2.2029446979581113 2.76800004
v -6.251262229999999 -3.647999809999999 2.76800004
v -4.530718272985482 -3.6479998099999995 2.76800004
v -4.876180206650849 -2.2029446979581113 2.76800004
v -4.530718272985482 -3.6479998099999995 2.76800004
v -4.606560288331124 -2.398712431297833 2.76800004
v -4.876180206650849 -2.2029446979581113 2.76800004
v -5.025447947805938 -0.9684304368657386 2.76800004
v -6.251262229999999 -0.953970899144517 2.76800004
v -6.251262229999999 -0.953970899144517 2.76800004
v -6.251262229999999 -2.435289634688746 2.76800004
v -4.876180206650849 -2.2029446979581113 2.76800004
v -3.080567523212836 -3.64799981 2.76800004
v -4.606560288331124 -2.398712431297833 2.76800004
v -4.530718272985482 -3.6479998099999995 2.76800004
v -4.606560288331124 -2.398712431297833 2.76800004
v -3.080567523212836 -3.64799981 2.76800004
v -2.957938010406495 -2.439218245817456 2.76800004
v -4.606560288331124 -2.398712431297833 2.76800004
v -2.957938010406495 -2.439218245817456 2.76800004
v -3.368612932539719 -1.9235490369279513 2.76800004
v -6.25126223 -3.64799981 2.76800004
v -6.25126223 -3.1778052201334535 1.10000001
v -6.25126223 -3.64799981 1.10000001
v -6.25126223 -2.282607790738372 1.550958284693223
v -6.25126223 -3.64799981 2.76800004
v -6.25126223 -2.371128281090541 2.76800004
v -6.25126223 -3.64799981 2.76800004
v -6.25126223 -2.282607790738372 1.550958284693223
v -6.25126223 -3.1778052201334535 1.10000001
v -6.25126223 -0.9407198455957296 1.559667212471375
v -6.25126223 -1.6999074541973815 1.2421293393798867
v -6.25126223 -2.282607790738372 1.550958284693223
v -6.25126223 -2.282607790738372 1.550958284693223
v -6.25126223 -2.371128281090541 2.76800004
v -6.25126223 -0.919548339341779 2.76800004
v -6.25126223 -0.919548339341779 2.76800004
v -6.25126223 -0.9407198455957296 1.559667212471375
v -6.25126223 -2.282607790738372 1.550958284693223
v -6.25126223 -3.05310105 1.10000001
v -6.25126223 -1.6999074541973815 1.2421293393798867
v -6.25126223 -1.7001623844601563 0.0
v -6.25126223 -1.7001623844601563 0.0
v -6.25126223 -3.05310105 0.0
v -6.25126223 -3.05310105 1.10000001
v -6.25126223 -3.05310105 1.10000001
v -6.25126223 -3.1778052201334535 1.10000001
v -6.25126223 -2.282607790738372 1.550958284693223
v -6.25126223 -1.6999074541973815 1.2421293393798867
v -6.25126223 -3.05310105 1.10000001
v -6.25126223 -2.282607790738372 1.550958284693223
v -6.25126223 -1.6999074541973815 1.2421293393798867
v -6.25126223 -0.9407198455957296 1.559667212471375
v -6.25126223 -0.3833538869525003 1.2362769083672682
v -6.25126223 -0.3833538869525003 1.2362769083672682
v -6.25126223 -0.3690364830192268 0.0
v -6.25126223 -1.7001623844601563 0.0
v -6.25126223 -1.7001623844601563 0.0
v -6.25126223 -1.6999074541973815 1.2421293393798867
v -6.25126223 -0.3833538869525003 1.2362769083672682
v -6.25126223 0.4593302650808183 1.561695520367187
v -6.25126223 -0.3833538869525003 1.2362769083672682
v -6.25126223 -0.9407198455957296 1.559667212471375
v -6.25126223 0.4593302650808183 1.561695520367187
v -6.25126223 -0.919548339341779 2.76800004
v -6.25126223 0.43654536023058016 2.76800004
v -6.25126223 -0.919548339341779 2.76800004
v -6.25126223 0.4593302650808183 1.561695520367187
v -6.25126223 -0.9407198455957296 1.559667212471375
v -6.25126223 2.1558492200000003 1.10000001
v -6.25126223 1.7563629266063137 1.5140260539206905
v -6.25126223 2.314719556585964 1.1000000099999998
v -6.25126223 2.1558492200000003 1.10000001
v -6.25126223 2.1558492200000012 0.0
v -6.25126223 0.9003419837308272 0.0
v -6.25126223 1.7563629266063137 1.5140260539206905
v -6.25126223 2.1558492200000003 1.10000001
v -6.25126223 0.9209134383281169 1.275910524825409
v -6.25126223 2.1558492200000003 1.10000001
v -6.25126223 0.9003419837308272 0.0
v -6.25126223 0.9209134383281169 1.275910524825409
v -6.25126223 1.7563629266063137 1.5140260539206905
v -6.25126223 0.9209134383281169 1.275910524825409
v -6.25126223 0.4593302650808183 1.561695520367187
v -6.25126223 1.7563629266063137 1.5140260539206905
v -6.25126223 0.43654536023058016 2.76800004
v -6.25126223 1.8856831138895862 2.76800004
v -6.25126223 0.43654536023058016 2.76800004
v -6.25126223 1.7563629266063137 1.5140260539206905
v -6.25126223 0.4593302650808183 1.561695520367187
v -6.25126223 -0.3833538869525003 1.2362769083672682
v -6.25126223 0.4593302650808183 1.561695520367187
v -6.25126223 0.9209134383281169 1.275910524825409
v -6.25126223 -0.3833538869525003 1.2362769083672682
v -6.25126223 0.9003419837308272 0.0
v -6.25126223 -0.3690364830192268 0.0
v -6.25126223 0.9003419837308272 0.0
v -6.25126223 -0.3833538869525003 1.2362769083672682
v -6.25126223 0.9209134383281169 1.275910524825409
v -6.25126223 1.7563629266063137 1.5140260539206905
v -6.25126223 1.8856831138895862 2.76800004
v -6.25126223 3.0939999099999995 2.7680000399999996
v -6.25126223 3.0939999099999995 2.7680000399999996
v -6.25126223 3.09399991 1.10000001
v -6.25126223 2.314719556585964 1.1000000099999998
v -6.25126223 2.314719556585964 1.1000000099999998
v -6.25126223 1.7563629266063137 1.5140260539206905
v -6.25126223 3.0939999099999995 2.7680000399999996
v -1.1603740029941312 2.6289709032449804 2.7680000400000004
v -0.00026214000000024384 2.5230000699999993 2.7680000400000004
v -0.00026213653199794185 2.5230001079658297 1.100000010000001
v -0.00026213653199794185 2.5230001079658297 1.100000010000001
v -1.318536123081356 2.643418316981701 1.1000000100000003
v -1.1603740029941312 2.6289709032449804 2.7680000400000004
v -1.67695229 2.67615797 1.10000001
v -2.527028697954206 2.7538084940160497 1.5204195735252821
v -1.4492764527220419 2.6553608391751977 1.1000000100000003
v -1.67695229 2.67615797 1.10000001
v -1.6769522877129481 2.676157995037418 3.3306690738754696e-16
v -3.042915586926653 2.800932401383155 8.881784197001252e-16
v -2.527028697954206 2.7538084940160497 1.5204195735252821
v -1.67695229 2.67615797 1.10000001
v -3.0626866656955323 2.802738370107797 1.1999426809258897
v -1.67695229 2.67615797 1.10000001
v -3.042915586926653 2.800932401383155 8.881784197001252e-16
v -3.0626866656955323 2.802738370107797 1.1999426809258897
v -1.1603740029941312 2.6289709032449804 2.7680000400000004
v -1.4492764527220419 2.6553608391751977 1.1000000100000003
v -2.527028697954206 2.7538084940160497 1.5204195735252821
v -2.527028697954206 2.7538084940160497 1.5204195735252821
v -2.503178770971301 2.7516298852681595 2.7680000400000004
v -1.1603740029941312 2.6289709032449804 2.7680000400000004
v -1.4492764527220419 2.6553608391751977 1.1000000100000003
v -1.1603740029941312 2.6289709032449804 2.7680000400000004
v -1.318536123081356 2.643418316981701 1.1000000100000003
v -2.527028697954206 2.7538084940160497 1.5204195735252821
v -3.0626866656955323 2.802738370107797 1.1999426809258897
v -3.8067846526040707 2.870708260167982 1.4967725776509193
v -3.8067846526040707 2.870708260167982 1.4967725776509193
v -3.8789729944279996 2.877302300906647 2.76800004
v -2.503178770971301 2.7516298852681595 2.7680000400000004
v -2.503178770971301 2.7516298852681595 2.7680000400000004
v -2.527028697954206 2.7538084940160497 1.5204195735252821
v -3.8067846526040707 2.870708260167982 1.4967725776509193
v -4.416042843901082 2.9263611767676765 1.1000000100000003
v -3.0626866656955323 2.802738370107797 1.1999426809258897
v -3.042915586926653 2.800932401383155 8.881784197001252e-16
v -3.042915586926653 2.800932401383155 8.881784197001252e-16
v -4.416042841614031 2.9263612018050944 1.9984014443252818e-15
v -4.416042843901082 2.9263611767676765 1.1000000100000003
v -4.416042843901082 2.9263611767676765 1.1000000100000003
v -4.500417168573782 2.9340683796463467 1.1000000100000005
v -3.8067846526040707 2.870708260167982 1.4967725776509193
v -3.0626866656955323 2.802738370107797 1.1999426809258897
v -4.416042843901082 2.9263611767676765 1.1000000100000003
v -3.8067846526040707 2.870708260167982 1.4967725776509193
v -5.115696563998641 2.990271257902625 2.76800004
v -4.500417168573782 2.9340683796463467 1.1000000100000005
v -5.033111607770964 2.9827275438074663 1.1000000100000007
v -3.8067846526040707 2.870708260167982 1.4967725776509193
v -5.115696563998641 2.990271257902625 2.76800004
v -3.8789729944279996 2.877302300906647 2.76800004
v -5.115696563998641 2.990271257902625 2.76800004
v -3.8067846526040707 2.870708260167982 1.4967725776509193
v -4.500417168573782 2.9340683796463467 1.1000000100000005
v -5.115696563998641 2.990271257902625 2.76800004
v -6.251262226531997 3.0939999479658304 1.1000000100000007
v -6.251262229999999 3.09399991 2.76800004
v -6.251262226531997 3.0939999479658304 1.1000000100000007
v -5.115696563998641 2.990271257902625 2.76800004
v -5.033111607770964 2.9827275438074663 1.1000000100000007
v -0.00026214 2.52300007 2.76800004
v -0.00026214 2.10156057989403 1.1000000100000003
v -0.00026214 2.52300007 1.10000001
v -0.00026214 1.0694464387824798 1.6758677684533692
v -0.00026214 2.52300007 2.76800004
v -0.00026214 1.2245945391990798 2.76800004
v -0.00026214 2.52300007 2.76800004
v -0.00026214 1.0694464387824798 1.6758677684533692
v -0.00026214 2.10156057989403 1.1000000100000003
v -0.00026214 -0.012000000000000354 2.19499993
v -0.00026214 -0.012000000000000427 1.4563169340174373
v -0.00026214 0.718280932015085 1.4659156160420928
v -0.00026214 -0.012000000000000354 2.19499993
v -0.00026214 1.0694464387824798 1.6758677684533692
v -0.00026214 1.2245945391990798 2.76800004
v -0.00026214 -0.012000000000000354 2.19499993
v -0.00026214 -0.6401186916554337 2.7680000399999996
v -0.00026214 -0.6289801283563181 2.19416396788999
v -0.00026214 1.0694464387824798 1.6758677684533692
v -0.00026214 -0.012000000000000354 2.19499993
v -0.00026214 0.718280932015085 1.4659156160420928
v -0.00026214 -0.6401186916554337 2.7680000399999996
v -0.00026214 -0.012000000000000354 2.19499993
v -0.00026214 1.2245945391990798 2.76800004
v -0.00026214 1.59804907 1.1000000100000003
v -0.00026214 0.718280932015085 1.4659156160420928
v -0.00026214 0.9105700386271719 0.0
v -0.00026214 0.9105700386271719 0.0
v -0.00026214 1.59804907 0.0
v -0.00026214 1.59804907 1.1000000100000003
v -0.00026214 1.59804907 1.1000000100000003
v -0.00026214 2.10156057989403 1.1000000100000003
v -0.00026214 1.0694464387824798 1.6758677684533692
v -0.00026214 0.718280932015085 1.4659156160420928
v -0.00026214 1.59804907 1.1000000100000003
v -0.00026214 1.0694464387824798 1.6758677684533692
v -0.00026214 -1.48799997 2.19300006
v -0.00026214 -0.6289801283563181 2.19416396788999
v -0.00026214 -0.6401186916554337 2.7680000399999996
v -0.00026214 -2.6210790676298896 2.76800004
v -0.00026214 -1.4879999700000002 0.5695311799849596
v -0.00026214 -1.48799997 2.19300006
v -0.00026214 -1.48799997 2.19300006
v -0.00026214 -0.6401186916554337 2.7680000399999996
v -0.00026214 -2.6210790676298896 2.76800004
v -0.00026214 0.718280932015085 1.4659156160420928
v -0.00026214 -0.012000000000000427 1.4563169340174373
v -0.00026214 -0.01200000000000001 0.0
v -0.00026214 -0.01200000000000001 0.0
v -0.00026214 0.9105700386271719 0.0
v -0.00026214 0.718280932015085 1.4659156160420928
v -0.00026214 -1.4949240247131892 0.0
v -0.00026214 -1.4879999699999997 0.0
v -0.00026214 -1.4879999700000006 0.023529403418284245
v -0.00026214 -1.9833576199999996 1.10000001
v -0.00026214 -1.4879999700000002 0.5695311799849596
v -0.00026214 -2.6210790676298896 2.76800004
v -0.00026214 -2.6210790676298896 2.76800004
v -0.00026214 -3.64799981 2.7680000399999996
v -0.00026214 -3.64799981 1.1000000099999998
v -0.00026214 -1.4879999700000006 0.023529403418284245
v -0.00026214 -1.9833576199999998 0.0
v -0.00026214 -1.4949240247131892 0.0
v -0.00026214 -1.9833576199999998 0.0
v -0.00026214 -1.4879999700000006 0.023529403418284245
v -0.00026214 -1.4879999700000002 0.5695311799849596
v -0.00026214 -2.6210790676298896 2.76800004
v -0.00026214 -3.64799981 1.1000000099999998
v -0.00026214 -1.9833576199999996 1.10000001
v -0.00026214 -1.9833576199999998 0.0
v -0.00026214 -1.4879999700000002 0.5695311799849596
v -0.00026214 -1.9833576199999996 1.10000001
v 5.022091568757407 2.002161090618736 1.4309644595399842
v 4.9584439425405336 2.0080068677053267 2.7360000500000003
v 6.10173802 1.90299993 2.73600005
v 6.10173802 1.90299993 2.73600005
v 6.10173802 1.90299993 1.1002104145195468
v 5.022091568757407 2.002161090618736 1.4309644595399842
v 3.969596105923303 2.0988285427466664 2.73600005
v 2.8950364724231115 2.1975224997260887 1.3881005332387673
v 2.6643436711372512 2.2187107006371973 2.7360000500000003
v 2.8950364724231115 2.1975224997260887 1.3881005332387673
v 3.969596105923303 2.0988285427466664 2.73600005
v 3.7889754453053466 2.1154178200216354 1.3640342602927802
v 6.101738020000001 1.90299993 0.04999999999999982
v 5.022091568757407 2.002161090618736 1.4309644595399842
v 6.10173802 1.90299993 1.1002104145195468
v 5.022091568757407 2.002161090618736 1.4309644595399842
v 6.101738020000001 1.90299993 0.04999999999999982
v 4.2211949812101075 2.075720203479591 0.0499999999999996
v 5.022091568757407 2.002161090618736 1.4309644595399842
v 4.2211949812101075 2.075720203479591 0.0499999999999996
v 4.2280117350061825 2.0750941122093485 0.9735424426500171
v 4.2211949812101075 2.075720203479591 0.0499999999999996
v 2.8950364724231115 2.1975224997260887 1.3881005332387673
v 3.7889754453053466 2.1154178200216354 1.3640342602927802
v 3.7889754453053466 2.1154178200216354 1.3640342602927802
v 4.2280117350061825 2.0750941122093485 0.9735424426500171
v 4.2211949812101075 2.075720203479591 0.0499999999999996
v 2.8950364724231115 2.1975224997260887 1.3881005332387673
v 2.359614447942353 2.246698847508494 0.04999999999999993
v 2.3623899011906557 2.2464439333511526 0.938040172604125
v 2.359614447942353 2.246698847508494 0.04999999999999993
v 2.8950364724231115 2.1975224997260887 1.3881005332387673
v 4.2211949812101075 2.075720203479591 0.0499999999999996
v 5.022091568757407 2.002161090618736 1.4309644595399842
v 3.7889754453053466 2.1154178200216354 1.3640342602927802
v 3.969596105923303 2.0988285427466664 2.73600005
v 3.969596105923303 2.0988285427466664 2.73600005
v 4.9584439425405336 2.0080068677053267 2.7360000500000003
v 5.022091568757407 2.002161090618736 1.4309644595399842
v 3.7889754453053466 2.1154178200216354 1.3640342602927802
v 5.022091568757407 2.002161090618736 1.4309644595399842
v 4.2280117350061825 2.0750941122093485 0.9735424426500171
v 1.6208850983277812 2.3145481509601895 1.4353543790658825
v 0.5707378400000005 2.41099993 1.2010339870715678
v 0.5707378400000007 2.41099993 2.7360000500000003
v 0.5707378400000007 2.41099993 2.7360000500000003
v 1.7864209043779065 2.2993443565763925 2.7360000500000003
v 1.6208850983277812 2.3145481509601895 1.4353543790658825
v 1.6208850983277812 2.3145481509601895 1.4353543790658825
v 2.3623899011906557 2.2464439333511526 0.938040172604125
v 2.359614447942353 2.246698847508494 0.04999999999999993
v 1.6208850983277812 2.3145481509601895 1.4353543790658825
v 0.5707378400000004 2.41099993 0.05000000000000015
v 0.5707378400000005 2.41099993 1.2010339870715678
v 0.5707378400000004 2.41099993 0.05000000000000015
v 1.6208850983277812 2.3145481509601895 1.4353543790658825
v 2.359614447942353 2.246698847508494 0.04999999999999993
v 2.6643436711372512 2.2187107006371973 2.7360000500000003
v 1.6208850983277812 2.3145481509601895 1.4353543790658825
v 1.7864209043779065 2.2993443565763925 2.7360000500000003
v 1.6208850983277812 2.3145481509601895 1.4353543790658825
v 2.6643436711372512 2.2187107006371973 2.7360000500000003
v 2.8950364724231115 2.1975224997260887 1.3881005332387673
v 1.6208850983277812 2.3145481509601895 1.4353543790658825
v 2.8950364724231115 2.1975224997260887 1.3881005332387673
v 2.3623899011906557 2.2464439333511526 0.938040172604125
v 6.10173802 1.90299993 2.73600005
v 6.10173802 0.5606912816449583 1.3485548165308217
v 6.10173802 1.90299993 1.4682739591859366
v 6.10173802 0.5606912816449583 1.3485548165308217
v 6.10173802 1.90299993 2.73600005
v 6.10173802 0.31825897530563774 2.73600005
v 6.10173802 0.5606912816449583 1.3485548165308217
v 6.10173802 0.31825897530563774 2.73600005
v 6.10173802 0.31246426386305226 1.5772658722043646
v 6.10173802 0.5606912816449583 1.3485548165308217
v 6.10173802 0.31246426386305226 1.5772658722043646
v 6.10173802 -0.8083934904749391 1.2777997041523326
v 6.10173802 -0.8083934904749391 1.2777997041523326
v 6.10173802 -0.8070457281705583 0.050000000000000044
v 6.10173802 0.5468293943598393 0.050000000000000266
v 6.10173802 0.5468293943598393 0.050000000000000266
v 6.10173802 0.5606912816449583 1.3485548165308217
v 6.10173802 -0.8083934904749391 1.2777997041523326
v 6.10173802 0.5606912816449583 1.3485548165308217
v 6.10173802 0.5468293943598393 0.050000000000000266
v 6.10173802 1.9029999300000002 0.04999999999999982
v 6.10173802 1.9029999300000002 0.04999999999999982
v 6.10173802 1.90299993 1.4682739591859366
v 6.10173802 0.5606912816449583 1.3485548165308217
v 6.10173802 0.31825897530563774 2.73600005
v 6.10173802 -0.8083934904749391 1.2777997041523326
v 6.10173802 0.31246426386305226 1.5772658722043646
v 6.10173802 -0.8083934904749391 1.2777997041523326
v 6.10173802 0.31825897530563774 2.73600005
v 6.10173802 -1.2690267610118038 2.7360000500000003
v 6.10173802 -0.8083934904749391 1.2777997041523326
v 6.10173802 -1.2690267610118038 2.7360000500000003
v 6.10173802 -1.2674271946381734 1.6258161178448773
v 6.10173802 -0.8083934904749391 1.2777997041523326
v 6.10173802 -1.2674271946381734 1.6258161178448773
v 6.10173802 -2.1842289382830757 1.2410411475131864
v 6.10173802 -2.1842289382830757 1.2410411475131864
v 6.10173802 -2.202338980465227 0.050000000000000266
v 6.10173802 -0.8070457281705583 0.050000000000000044
v 6.10173802 -0.8070457281705583 0.050000000000000044
v 6.10173802 -0.8083934904749391 1.2777997041523326
v 6.10173802 -2.1842289382830757 1.2410411475131864
v 6.10173802 -1.2690267610118038 2.7360000500000003
v 6.10173802 -2.1842289382830757 1.2410411475131864
v 6.10173802 -1.2674271946381734 1.6258161178448773
v 6.10173802 -2.1842289382830757 1.2410411475131864
v 6.10173802 -1.2690267610118038 2.7360000500000003
v 6.10173802 -2.848383504584372 2.7360000500000003
v 6.10173802 -2.1842289382830757 1.2410411475131864
v 6.10173802 -2.848383504584372 2.7360000500000003
v 6.10173802 -2.8658389328447003 1.6697960502089435
v 6.10173802 -2.848383504584372 2.7360000500000003
v 6.10173802 -3.556773123849767 1.2731681386551101
v 6.10173802 -2.8658389328447003 1.6697960502089435
v 6.10173802 -3.556773123849767 1.2731681386551101
v 6.10173802 -2.848383504584372 2.7360000500000003
v 6.10173802 -4.497678981780276 2.736000050000001
v 6.10173802 -3.556773123849767 1.2731681386551101
v 6.10173802 -4.497678981780276 2.736000050000001
v 6.10173802 -4.4865206259814245 1.6858133471503902
v 6.10173802 -2.1842289382830757 1.2410411475131864
v 6.10173802 -2.8658389328447003 1.6697960502089435
v 6.10173802 -3.556773123849767 1.2731681386551101
v 6.10173802 -3.556773123849767 1.2731681386551101
v 6.10173802 -3.580290084471947 0.05000000000000049
v 6.10173802 -2.202338980465227 0.050000000000000266
v 6.10173802 -2.202338980465227 0.050000000000000266
v 6.10173802 -2.1842289382830757 1.2410411475131864
v 6.10173802 -3.556773123849767 1.2731681386551101
v 6.10173802 -4.914080506878563 1.3318994357270655
v 6.10173802 -6.159999969999999 1.5303761584970077
v 6.10173802 -6.159999969999999 0.05000000000000103
v 6.10173802 -6.159999969999999 0.05000000000000103
v 6.10173802 -4.86282549471679 0.05000000000000088
v 6.10173802 -4.914080506878563 1.3318994357270655
v 6.10173802 -4.914080506878563 1.3318994357270655
v 6.10173802 -4.4865206259814245 1.6858133471503902
v 6.10173802 -4.497678981780276 2.736000050000001
v 6.10173802 -4.914080506878563 1.3318994357270655
v 6.10173802 -6.15999997 2.736000050000001
v 6.10173802 -6.159999969999999 1.5303761584970077
v 6.10173802 -6.15999997 2.736000050000001
v 6.10173802 -4.914080506878563 1.3318994357270655
v 6.10173802 -4.497678981780276 2.736000050000001
v 6.10173802 -3.556773123849767 1.2731681386551101
v 6.10173802 -4.4865206259814245 1.6858133471503902
v 6.10173802 -4.914080506878563 1.3318994357270655
v 6.10173802 -3.556773123849767 1.2731681386551101
v 6.10173802 -4.86282549471679 0.05000000000000088
v 6.10173802 -3.580290084471947 0.05000000000000049
v 6.10173802 -4.86282549471679 0.05000000000000088
v 6.10173802 -3.556773123849767 1.2731681386551101
v 6.10173802 -4.914080506878563 1.3318994357270655
v 1.7928422325778726 -6.15999997 1.3508706393521925
v 2.013637743424165 -6.15999997 1.5443879271449927
v 1.9982757519710495 -6.15999997 2.73600005
v 1.7928422325778726 -6.15999997 1.3508706393521925
v 0.57073784 -6.15999997 2.73600005
v 0.5707378399999999 -6.15999997 1.4488212505113898
v 0.57073784 -6.15999997 2.73600005
v 1.7928422325778726 -6.15999997 1.3508706393521925
v 1.9982757519710495 -6.15999997 2.73600005
v 2.013637743424165 -6.15999997 1.5443879271449927
v 3.1468387502153896 -6.15999997 1.295164552719537
v 3.418956442743089 -6.15999997 1.5095082721359294
v 3.418956442743089 -6.15999997 1.5095082721359294
v 3.4658906884930216 -6.15999997 2.73600005
v 1.9982757519710495 -6.15999997 2.73600005
v 1.9982757519710495 -6.15999997 2.73600005
v 2.013637743424165 -6.15999997 1.5443879271449927
v 3.418956442743089 -6.15999997 1.5095082721359294
v 1.7928422325778726 -6.15999997 1.3508706393521925
v 0.5707378399999999 -6.15999997 1.4488212505113898
v 0.5707378399999996 -6.15999997 0.04999999999999938
v 0.5707378399999996 -6.15999997 0.04999999999999938
v 1.8204867872304717 -6.15999997 0.0499999999999996
v 1.7928422325778726 -6.15999997 1.3508706393521925
v 3.1468387502153896 -6.15999997 1.295164552719537
v 2.013637743424165 -6.15999997 1.5443879271449927
v 1.7928422325778726 -6.15999997 1.3508706393521925
v 3.1468387502153896 -6.15999997 1.295164552719537
v 1.8204867872304717 -6.15999997 0.0499999999999996
v 3.1064157469319307 -6.15999997 0.04999999999999982
v 1.8204867872304717 -6.15999997 0.0499999999999996
v 3.1468387502153896 -6.15999997 1.295164552719537
v 1.7928422325778726 -6.15999997 1.3508706393521925
v 4.819147747690694 -6.15999997 1.446744653359516
v 6.10173802 -6.15999997 1.3093529582306864
v 6.101738019999999 -6.15999997 2.7360000500000003
v 6.101738019999999 -6.15999997 2.7360000500000003
v 4.798736445993307 -6.15999997 2.7360000500000003
v 4.819147747690694 -6.15999997 1.446744653359516
v 4.57009677843243 -6.15999997 1.2239744009636406
v 3.418956442743089 -6.15999997 1.5095082721359294
v 3.1468387502153896 -6.15999997 1.295164552719537
v 4.57009677843243 -6.15999997 1.2239744009636406
v 3.1064157469319307 -6.15999997 0.04999999999999982
v 4.577646706168304 -6.15999997 0.0499999999999996
v 3.1064157469319307 -6.15999997 0.04999999999999982
v 4.57009677843243 -6.15999997 1.2239744009636406
v 3.1468387502153896 -6.15999997 1.295164552719537
v 3.418956442743089 -6.15999997 1.5095082721359294
v 4.57009677843243 -6.15999997 1.2239744009636406
v 4.819147747690694 -6.15999997 1.446744653359516
v 3.418956442743089 -6.15999997 1.5095082721359294
v 4.798736445993307 -6.15999997 2.7360000500000003
v 3.4658906884930216 -6.15999997 2.73600005
v 4.798736445993307 -6.15999997 2.7360000500000003
v 3.418956442743089 -6.15999997 1.5095082721359294
v 4.819147747690694 -6.15999997 1.446744653359516
v 4.819147747690694 -6.15999997 1.446744653359516
v 4.57009677843243 -6.15999997 1.2239744009636406
v 4.577646706168304 -6.15999997 0.0499999999999996
v 4.819147747690694 -6.15999997 1.446744653359516
v 6.101738019999999 -6.15999997 0.049999999999999996
v 6.10173802 -6.15999997 1.3093529582306864
v 6.101738019999999 -6.15999997 0.049999999999999996
v 4.819147747690694 -6.15999997 1.446744653359516
v 4.577646706168304 -6.15999997 0.0499999999999996
v -4.41604285 2.92636111 1.10000001
v -4.51011812 1.98546776 1.10000001
v -6.251262230000001 2.15584922 1.10000001
v -6.251262230000001 2.15584922 1.10000001
v -6.25126223 3.09399991 1.10000001
v -4.41604285 2.92636111 1.10000001
v -4.51011812 1.98546776 1.0000000100000002
v -4.41604285 2.92636111 0.0
v -4.51011812 1.9854677599999997 -5.551115123125783e-17
v -4.51011812 1.98546776 1.0000000100000002
v -4.51011812 1.9854677599999997 1.1000000100000003
v -4.41604285 2.92636111 1.1000000100000003
v -4.41604285 2.92636111 0.0
v -4.51011812 1.98546776 1.0000000100000002
v -4.41604285 2.92636111 1.1000000100000003
v -4.51011812 1.98546776 1.00000001
v -4.51011812 1.98546776 -1.1102230246251565e-16
v -6.25126223 2.15584922 -1.6623471656375042e-16
v -4.51011812 1.98546776 1.00000001
v -6.25126223 2.15584922 1.10000001
v -4.51011812 1.98546776 1.10000001
v -6.25126223 2.15584922 1.10000001
v -4.51011812 1.98546776 1.00000001
v -6.25126223 2.15584922 -1.6623471656375042e-16
v -4.52168292 -3.05310105 1.10000001
v -6.25126223 -3.05310105 1.10000001
v -6.25126223 -3.05310105 -1.1102230246251565e-16
v -6.25126223 -3.05310105 -1.1102230246251565e-16
v -4.52168292 -3.05310105 -8.177322744583182e-17
v -4.52168292 -3.05310105 1.10000001
v -4.52168292 -3.0531010499999995 1.10000001
v -4.52168292 -3.64799981 1.10000001
v -6.251262230000001 -3.64799981 1.10000001
v -6.251262230000001 -3.64799981 1.10000001
v -6.25126223 -3.05310105 1.10000001
v -4.52168292 -3.0531010499999995 1.10000001
v -4.52168292 -3.05310105 1.1000000100000003
v -4.52168292 -3.05310105 0.0
v -4.52168292 -3.64799981 0.0
v -4.52168292 -3.64799981 0.0
v -4.52168292 -3.64799981 1.1000000100000003
v -4.52168292 -3.05310105 1.1000000100000003
v -0.00026213999999985527 2.52300007 1.10000001
v -0.00026214 1.59804907 1.10000001
v -1.7412999100000002 1.7145899199999999 1.10000001
v -1.7412999100000002 1.7145899199999999 1.10000001
v -1.6769522899999998 2.67615797 1.10000001
v -0.00026213999999985527 2.52300007 1.10000001
v -1.7412999100000004 1.71458992 1.00000001
v -0.00026214 1.59804907 1.10000001
v -0.0002621399999999663 1.59804907 -2.220446049250313e-16
v -0.0002621399999999663 1.59804907 -2.220446049250313e-16
v -1.7412999100000004 1.71458992 -2.0269728106123305e-16
v -1.7412999100000004 1.71458992 1.00000001
v -0.00026214 1.59804907 1.10000001
v -1.7412999100000004 1.71458992 1.00000001
v -1.7412999100000004 1.71458992 1.10000001
v -1.7412999100000002 1.7145899199999999 1.00000001
v -1.67695229 2.67615797 1.10000001
v -1.7412999100000002 1.71458992 1.10000001
v -1.6769522899999998 2.6761579700000007 -1.6653345369377348e-16
v -1.7412999100000002 1.7145899199999999 1.00000001
v -1.74129991 1.71458992 -4.567339452123481e-17
v -1.7412999100000002 1.7145899199999999 1.00000001
v -1.6769522899999998 2.6761579700000007 -1.6653345369377348e-16
v -1.67695229 2.67615797 1.10000001
v -5.44190039 1.4788138000000002 1.00000001
v -5.44190039 1.4788138 0.0
v -5.44190039 -0.09118618000000017 -1.1102230246251565e-16
v -5.44190039 -0.09118618000000017 -1.1102230246251565e-16
v -5.44190039 -0.09118618000000006 1.0000000100000002
v -5.44190039 1.4788138000000002 1.00000001
v -3.55628642 2.55879575 1.00000001
v -2.39004694 2.52444417 0.0
v -3.55628642 2.55879575 -1.1102230246251565e-16
v -2.39004694 2.52444417 0.0
v -3.55628642 2.55879575 1.00000001
v -2.39004694 2.52444417 1.0000000100000002
v -1.74129991 1.7145899199999999 -3.0490106068438855e-16
v -2.39004694 2.52444417 1.00000001
v -1.74129991 1.7145899199999999 1.00000001
v -2.39004694 2.52444417 1.00000001
v -1.74129991 1.7145899199999999 -3.0490106068438855e-16
v -2.39004694 2.52444417 -3.3306690738754696e-16
v -5.44190039 1.4788138 1.4343640221042545e-17
v -4.51011812 1.98546776 1.00000001
v -4.51011812 1.9854677599999997 0.0
v -4.51011812 1.98546776 1.00000001
v -5.44190039 1.4788138 1.4343640221042545e-17
v -5.44190039 1.4788138000000002 1.00000001
v -2.80271478 -3.64799981 -7.01321664137976e-18
v -2.80271478 -2.79835749 1.10000001
v -2.80271478 -3.64799981 1.10000001
v -2.80271478 -2.79835749 1.10000001
v -2.80271478 -3.64799981 -7.01321664137976e-18
v -2.80271478 -2.79835749 -1.6653345369377348e-16
v -1.8556326138772195 -2.79835749 3.3306690738754696e-16
v -2.80271478 -2.79835749 1.10000001
v -2.8027147800000005 -2.79835749 0.0
v -2.80271478 -2.79835749 1.10000001
v -1.8556326138772195 -2.79835749 3.3306690738754696e-16
v -1.8469055868785038 -2.79835749 1.10000001
v -1.8469055868785038 -2.79835749 1.10000001
v -0.9127148300000004 -2.79835749 4.070404603785277e-16
v -0.9127148300000003 -2.79835749 1.1000000100000005
v -0.9127148300000004 -2.79835749 4.070404603785277e-16
v -1.8469055868785038 -2.79835749 1.10000001
v -1.8556326138772195 -2.79835749 3.3306690738754696e-16
v -0.9127148299999999 -2.79835749 1.10000001
v -0.9127148299999999 -1.98335762 1.10000001
v -0.0002621399999999108 -1.9833576199999998 1.10000001
v -0.9127148299999999 -2.79835749 1.10000001
v -0.00026214 -3.64799981 1.10000001
v -1.149827540046178 -3.64799981 1.10000001
v -1.149827540046178 -3.64799981 1.10000001
v -1.3562713159117084 -2.79835749 1.10000001
v -0.9127148299999999 -2.79835749 1.10000001
v -0.00026214 -3.64799981 1.10000001
v -0.9127148299999999 -2.79835749 1.10000001
v -0.0002621399999999108 -1.9833576199999998 1.10000001
v -1.3562713159117084 -2.79835749 1.10000001
v -2.80271478 -3.64799981 1.10000001
v -2.80271478 -2.79835749 1.10000001
v -2.80271478 -3.64799981 1.10000001
v -1.3562713159117084 -2.79835749 1.10000001
v -1.149827540046178 -3.64799981 1.10000001
v -0.91271483 -1.98335762 -2.220446049250313e-16
v -0.91271483 -1.98335762 1.10000001
v -0.91271483 -2.79835749 1.10000001
v -0.91271483 -2.79835749 1.10000001
v -0.91271483 -2.79835749 -2.4019741118320573e-16
v -0.91271483 -1.98335762 -2.220446049250313e-16
v -0.00026214000000016367 -1.98335762 6.652804067786237e-17
v -0.91271483 -1.98335762 1.10000001
v -0.9127148300000001 -1.98335762 -5.551115123125783e-17
v -0.91271483 -1.98335762 1.10000001
v -0.00026214000000016367 -1.98335762 6.652804067786237e-17
v -0.0002621399999999108 -1.98335762 1.1000000100000003
v -1.6534302381913226 0.43538903328932266 0.0
v -1.826299435269798 0.6087590988078273 0.0
v -1.5164281839567848 1.6995375514956441 0.0
v -1.5164281839567848 1.6995375514956441 0.0
v -0.0002621400000001328 1.5980490700000007 0.0
v -0.00026214000000018833 0.5022157544767609 0.0
v -0.00026214000000018833 0.5022157544767609 0.0
v -1.6534302381913226 0.43538903328932266 0.0
v -1.5164281839567848 1.6995375514956441 0.0
v -0.9127148299999999 -1.9833576200000003 0.0
v -1.440579636249853 -0.7905691132899968 0.0
v -0.0002621400000000773 -0.6076420277251942 0.0
v -0.0002621400000000773 -0.6076420277251942 0.0
v -0.00026214 -1.98335762 0.0
v -0.9127148299999999 -1.9833576200000003 0.0
v -0.9127148299999999 -1.9833576200000003 0.0
v -0.9127148299999999 -2.0259265315716415 0.0
v -1.6337571134782503 -1.119681831172134 0.0
v -1.440579636249853 -0.7905691132899968 0.0
v -0.9127148299999999 -1.9833576200000003 0.0
v -1.6337571134782503 -1.119681831172134 0.0
v -1.74129991 1.7145899200000008 0.0
v -2.6423719151938787 0.5385972597431654 0.0
v -3.198190797938254 1.1427635223520247 0.0
v -3.198190797938254 1.1427635223520247 0.0
v -2.9842285791428633 2.5419457882024195 0.0
v -2.39004694 2.524444170000001 0.0
v -1.74129991 1.7145899200000008 0.0
v -1.5164281839567848 1.6995375514956441 0.0
v -1.826299435269798 0.6087590988078273 0.0
v -1.74129991 1.7145899200000008 0.0
v -3.198190797938254 1.1427635223520247 0.0
v -2.39004694 2.524444170000001 0.0
v -2.6423719151938787 0.5385972597431654 0.0
v -1.74129991 1.7145899200000008 0.0
v -1.826299435269798 0.6087590988078273 0.0
v -0.0002621400000001328 -0.011999999999999567 0.0
v -1.6534302381913226 0.43538903328932266 0.0
v -0.00026214000000018833 0.5022157544767609 0.0
v -0.0002621400000001328 -0.011999999999999567 0.0
v -0.0002621400000000773 -0.6076420277251942 0.0
v -1.440579636249853 -0.7905691132899968 0.0
v -1.6534302381913226 0.43538903328932266 0.0
v -0.0002621400000001328 -0.011999999999999567 0.0
v -1.440579636249853 -0.7905691132899968 0.0
v -2.1664426619348385 -1.297207794082298 0.0
v -1.440579636249853 -0.7905691132899968 0.0
v -1.6337571134782503 -1.119681831172134 0.0
v -3.1798552136690703 -0.41814624842038706 0.0
v -2.1664426619348385 -1.297207794082298 0.0
v -3.054611913593 -0.8964195402794526 0.0
v -1.440579636249853 -0.7905691132899968 0.0
v -2.6423719151938787 0.5385972597431654 0.0
v -1.6534302381913226 0.43538903328932266 0.0
v -2.6423719151938787 0.5385972597431654 0.0
v -1.826299435269798 0.6087590988078273 0.0
v -1.6534302381913226 0.43538903328932266 0.0
v -2.1664426619348385 -1.297207794082298 0.0
v -3.1798552136690703 -0.41814624842038706 0.0
v -1.440579636249853 -0.7905691132899968 0.0
v -2.6423719151938787 0.5385972597431654 0.0
v -1.440579636249853 -0.7905691132899968 0.0
v -3.1798552136690703 -0.41814624842038706 0.0
v -2.1664426619348385 -1.297207794082298 0.0
v -1.6337571134782503 -1.119681831172134 0.0
v -0.9127148299999999 -2.0259265315716415 0.0
v -0.9127148299999999 -2.0259265315716415 0.0
v -0.9127148299999996 -2.79835749 0.0
v -2.4772621891902826 -2.79835749 0.0
v -2.4772621891902826 -2.79835749 0.0
v -2.1664426619348385 -1.297207794082298 0.0
v -0.9127148299999999 -2.0259265315716415 0.0
v -2.1664426619348385 -1.297207794082298 0.0
v -2.4772621891902826 -2.79835749 0.0
v -2.6923682855380484 -2.79835749 0.0
v -2.1664426619348385 -1.297207794082298 0.0
v -3.6394879508887237 -2.2787390895954207 0.0
v -3.771091084433791 -1.6418794624615172 0.0
v -3.771091084433791 -1.6418794624615172 0.0
v -3.054611913593 -0.8964195402794526 0.0
v -2.1664426619348385 -1.297207794082298 0.0
v -3.6394879508887237 -2.2787390895954207 0.0
v -2.1664426619348385 -1.297207794082298 0.0
v -2.6923682855380484 -2.79835749 0.0
v -4.510118119999999 1.9854677600000006 0.0
v -4.511319968845717 0.9091614275016093 0.0
v -4.5841513505471 0.9830882554062192 0.0
v -4.5841513505471 0.9830882554062192 0.0
v -4.746106608725523 2.0085606579521684 0.0
v -4.510118119999999 1.9854677600000006 0.0
v -3.198190797938254 1.1427635223520247 0.0
v -3.55628642 2.55879575 0.0
v -2.9842285791428633 2.5419457882024195 0.0
v -4.511319968845717 0.9091614275016093 0.0
v -4.510118119999999 1.9854677600000006 0.0
v -3.198190797938254 1.1427635223520247 0.0
v -3.198190797938254 1.1427635223520247 0.0
v -4.510118119999999 1.9854677600000006 0.0
v -3.55628642 2.55879575 0.0
v -3.198190797938254 1.1427635223520247 0.0
v -4.431537679368507 -0.00038846669220404806 0.0
v -4.511319968845717 0.9091614275016093 0.0
v -3.1798552136690703 -0.41814624842038706 0.0
v -3.198190797938254 1.1427635223520247 0.0
v -2.6423719151938787 0.5385972597431654 0.0
v -3.198190797938254 1.1427635223520247 0.0
v -3.1798552136690703 -0.41814624842038706 0.0
v -4.431537679368507 -0.00038846669220404806 0.0
v -3.6394879508887237 -2.2787390895954207 0.0
v -2.6923682855380484 -2.79835749 0.0
v -2.8027147799999996 -2.79835749 0.0
v -4.521682919999999 -3.0572883503219668 0.0
v -2.8027147799999996 -3.64799981 0.0
v -4.521682919999999 -3.64799981 0.0
v -2.8027147799999996 -2.79835749 0.0
v -4.521682919999999 -3.0572883503219668 0.0
v -3.6394879508887237 -2.2787390895954207 0.0
v -4.521682919999999 -3.0572883503219668 0.0
v -2.8027147799999996 -2.79835749 0.0
v -2.8027147799999996 -3.64799981 0.0
v -6.251262229999999 0.7004992845442604 0.0
v -4.431537679368507 -0.00038846669220404806 0.0
v -4.8386043374070455 -0.5010118900010592 0.0
v -4.8386043374070455 -0.5010118900010592 0.0
v -6.251262229999998 -0.22638383104426918 0.0
v -6.251262229999999 0.7004992845442604 0.0
v -4.431537679368507 -0.00038846669220404806 0.0
v -4.5841513505471 0.9830882554062192 0.0
v -4.511319968845717 0.9091614275016093 0.0
v -4.5841513505471 0.9830882554062192 0.0
v -4.431537679368507 -0.00038846669220404806 0.0
v -6.251262229999999 0.7004992845442604 0.0
v -4.8386043374070455 -0.5010118900010592 0.0
v -3.771091084433791 -1.6418794624615172 0.0
v -4.731860973093052 -1.3222556884609216 0.0
v -3.1798552136690703 -0.41814624842038706 0.0
v -4.8386043374070455 -0.5010118900010592 0.0
v -4.431537679368507 -0.00038846669220404806 0.0
v -3.771091084433791 -1.6418794624615172 0.0
v -3.1798552136690703 -0.41814624842038706 0.0
v -3.054611913593 -0.8964195402794526 0.0
v -4.8386043374070455 -0.5010118900010592 0.0
v -3.1798552136690703 -0.41814624842038706 0.0
v -3.771091084433791 -1.6418794624615172 0.0
v -4.746106608725523 2.0085606579521684 0.0
v -6.251262229999999 0.7004992845442604 0.0
v -6.251262229999999 2.155849220000001 0.0
v -6.251262229999999 0.7004992845442604 0.0
v -4.746106608725523 2.0085606579521684 0.0
v -4.5841513505471 0.9830882554062192 0.0
v -3.6394879508887237 -2.2787390895954207 0.0
v -4.521682919999999 -3.0572883503219668 0.0
v -4.521682919999999 -3.05310105 0.0
v -4.521682919999999 -3.05310105 0.0
v -4.907551126542202 -3.0531010499999995 0.0
v -5.160652585148596 -1.7350608735553377 0.0
v -5.160652585148596 -1.7350608735553377 0.0
v -4.731860973093052 -1.3222556884609216 0.0
v -3.771091084433791 -1.6418794624615172 0.0
v -5.160652585148596 -1.7350608735553377 0.0
v -3.6394879508887237 -2.2787390895954207 0.0
v -4.521682919999999 -3.05310105 0.0
v -3.6394879508887237 -2.2787390895954207 0.0
v -5.160652585148596 -1.7350608735553377 0.0
v -3.771091084433791 -1.6418794624615172 0.0
v -5.160652585148596 -1.7350608735553377 0.0
v -4.907551126542202 -3.0531010499999995 0.0
v -6.251262229999999 -3.0531010499999995 0.0
v -6.251262229999999 -3.0531010499999995 0.0
v -6.251262229999999 -1.6592670519213082 0.0
v -5.160652585148596 -1.7350608735553377 0.0
v -4.8386043374070455 -0.5010118900010592 0.0
v -4.731860973093052 -1.3222556884609216 0.0
v -5.160652585148596 -1.7350608735553377 0.0
v -4.8386043374070455 -0.5010118900010592 0.0
v -6.251262229999999 -1.6592670519213082 0.0
v -6.251262229999998 -0.22638383104426918 0.0
v -6.251262229999999 -1.6592670519213082 0.0
v -4.8386043374070455 -0.5010118900010592 0.0
v -5.160652585148596 -1.7350608735553377 0.0
v -4.51011812 1.98546776 1.00000001
v -3.55628642 2.55879575 0.0
v -4.51011812 1.98546776 0.0
v -3.55628642 2.55879575 0.0
v -4.51011812 1.98546776 1.00000001
v -3.55628642 2.55879575 1.00000001
v 0.57073784 -1.48799997 0.04999999999999983
v -0.00026214 -1.48799997 2.19300006
v -0.0002621400000000218 -1.48799997 1.6653345369377348e-16
v -0.00026214 -1.48799997 2.19300006
v 0.57073784 -1.48799997 0.04999999999999983
v 0.57073784 -1.48799997 2.19300006
v 0.6757168 -1.48499143 1.1035565769124092
v 0.57073784 -0.011999999999999678 0.04999999999999993
v 0.6757168 -1.48499143 0.05
v 0.57073784 -0.011999999999999678 0.04999999999999993
v 0.6757168 -1.48499143 1.1035565769124092
v 0.57073784 -0.011999999999999955 1.1292562410294247
v 0.57073784 -0.011999999999999955 1.1292562410294247
v 0.6757168 -1.4849914300000002 2.1949999300000003
v 0.57073784 -0.011999999999999972 2.19499993
v 0.6757168 -1.4849914300000002 2.1949999300000003
v 0.57073784 -0.011999999999999955 1.1292562410294247
v 0.6757168 -1.48499143 1.1035565769124092
v 4.793186800556657 -4.841049037764521 0.05
v 6.10173802 -4.703112907231857 0.05
v 6.10173802 -6.15999997 0.05
v 6.10173802 -6.15999997 0.05
v 4.818313018428035 -6.15999997 0.05
v 4.793186800556657 -4.841049037764521 0.05
v 4.898463090267946 -3.3498531733778414 0.05
v 4.64435992939186 -2.2483825545851186 0.05
v 4.826938401525234 -2.0113606552769174 0.05
v 4.898463090267946 -3.3498531733778414 0.05
v 6.10173802 -1.9819076931364081 0.05000000000000001
v 6.10173802 -3.447750893979536 0.05
v 6.10173802 -1.9819076931364081 0.05000000000000001
v 4.898463090267946 -3.3498531733778414 0.05
v 4.826938401525234 -2.0113606552769174 0.05
v 3.4256859531833426 -5.01730197422887 0.05
v 4.563370830160903 -4.646264494032025 0.05
v 4.793186800556657 -4.841049037764521 0.05
v 3.4256859531833426 -5.01730197422887 0.05
v 4.818313018428035 -6.15999997 0.05
v 3.4504787974763858 -6.15999997 0.049999999999999996
v 4.818313018428035 -6.15999997 0.05
v 3.4256859531833426 -5.01730197422887 0.05
v 4.793186800556657 -4.841049037764521 0.05
v 3.318048064235038 -3.407435763040956 0.05
v 3.036464891711744 -4.71584268925985 0.05
v 3.070450916392366 -3.582405875241592 0.05
v 3.036464891711744 -4.71584268925985 0.05
v 3.318048064235038 -3.407435763040956 0.05
v 4.498557807766817 -3.7807543584098564 0.05
v 4.498557807766817 -3.7807543584098564 0.05
v 4.563370830160903 -4.646264494032025 0.05
v 3.4256859531833426 -5.01730197422887 0.05
v 3.036464891711744 -4.71584268925985 0.05
v 4.498557807766817 -3.7807543584098564 0.05
v 3.4256859531833426 -5.01730197422887 0.05
v 4.898463090267946 -3.3498531733778414 0.05
v 6.10173802 -3.447750893979536 0.05
v 6.10173802 -4.703112907231857 0.05
v 4.498557807766817 -3.7807543584098564 0.05
v 4.793186800556657 -4.841049037764521 0.05
v 4.563370830160903 -4.646264494032025 0.05
v 4.793186800556657 -4.841049037764521 0.05
v 4.498557807766817 -3.7807543584098564 0.05
v 4.898463090267946 -3.3498531733778414 0.05
v 4.793186800556657 -4.841049037764521 0.05
v 4.898463090267946 -3.3498531733778414 0.05
v 6.10173802 -4.703112907231857 0.05
v 4.898463090267946 -3.3498531733778414 0.05
v 3.318048064235038 -3.407435763040956 0.05
v 3.497116477513633 -2.328998291989983 0.05
v 3.497116477513633 -2.328998291989983 0.05
v 4.64435992939186 -2.2483825545851186 0.05
v 4.898463090267946 -3.3498531733778414 0.05
v 3.318048064235038 -3.407435763040956 0.05
v 4.898463090267946 -3.3498531733778414 0.05
v 4.498557807766817 -3.7807543584098564 0.05
v 2.0358419072128076 -4.980833069940628 0.049999999999999996
v 3.036464891711744 -4.71584268925985 0.05
v 3.4256859531833426 -5.01730197422887 0.05
v 2.0358419072128076 -4.980833069940628 0.049999999999999996
v 3.4504787974763858 -6.15999997 0.049999999999999996
v 1.9360921296465432 -6.159999970000001 0.049999999999999996
v 3.4504787974763858 -6.15999997 0.049999999999999996
v 2.0358419072128076 -4.980833069940628 0.049999999999999996
v 3.4256859531833426 -5.01730197422887 0.05
v 0.5707378400000009 -6.159999970000001 0.049999999999999996
v 2.0358419072128076 -4.980833069940628 0.049999999999999996
v 1.9360921296465432 -6.159999970000001 0.049999999999999996
v 1.5768874154737282 -4.563105205860191 0.049999999999999996
v 0.5707378400000009 -6.159999970000001 0.049999999999999996
v 0.5707378400000009 -4.616670963832069 0.049999999999999996
v 2.0358419072128076 -4.980833069940628 0.049999999999999996
v 0.5707378400000009 -6.159999970000001 0.049999999999999996
v 1.5768874154737282 -4.563105205860191 0.049999999999999996
v 3.036464891711744 -4.71584268925985 0.05
v 1.5768874154737282 -4.563105205860191 0.049999999999999996
v 1.9898433305334997 -3.33851502617687 0.05
v 1.9898433305334997 -3.33851502617687 0.05
v 3.070450916392366 -3.582405875241592 0.05
v 3.036464891711744 -4.71584268925985 0.05
v 1.5768874154737282 -4.563105205860191 0.049999999999999996
v 3.036464891711744 -4.71584268925985 0.05
v 2.0358419072128076 -4.980833069940628 0.049999999999999996
v 4.708179827534908 0.6761843175433562 0.05000000000000001
v 4.761156736927754 2.0261268997410684 0.05000000000000001
v 6.101738020000001 1.9029999300000005 0.05000000000000001
v 6.101738020000001 1.9029999300000005 0.05000000000000001
v 6.101738020000001 0.6268591197520399 0.05000000000000001
v 4.708179827534908 0.6761843175433562 0.05000000000000001
v 3.497116477513633 -2.328998291989983 0.05
v 3.2055614476852456 -1.9929920424744152 0.05
v 3.4823930811709145 -0.8654181776836423 0.05
v 3.4823930811709145 -0.8654181776836423 0.05
v 4.5907791103968085 -0.8407701072722926 0.05000000000000001
v 4.826938401525234 -2.0113606552769174 0.05
v 3.4823930811709145 -0.8654181776836423 0.05
v 4.64435992939186 -2.2483825545851186 0.05
v 3.497116477513633 -2.328998291989983 0.05
v 4.64435992939186 -2.2483825545851186 0.05
v 3.4823930811709145 -0.8654181776836423 0.05
v 4.826938401525234 -2.0113606552769174 0.05
v 1.8278828109375045 -3.0993657351878734 0.05
v 1.9898433305334997 -3.33851502617687 0.05
v 1.5768874154737282 -4.563105205860191 0.049999999999999996
v 1.5768874154737282 -4.563105205860191 0.049999999999999996
v 0.5707378400000009 -4.616670963832069 0.049999999999999996
v 0.5707378400000012 -3.000457351566676 0.049999999999999996
v 0.5707378400000012 -3.000457351566676 0.049999999999999996
v 1.8278828109375045 -3.0993657351878734 0.05
v 1.5768874154737282 -4.563105205860191 0.049999999999999996
v 1.9898433305334997 -3.33851502617687 0.05
v 1.8278828109375045 -3.0993657351878734 0.05
v 2.1489533504991014 -2.013503302199851 0.05
v 2.1489533504991014 -2.013503302199851 0.05
v 3.2055614476852456 -1.9929920424744152 0.05
v 3.497116477513633 -2.328998291989983 0.05
v 1.9898433305334997 -3.33851502617687 0.05
v 3.318048064235038 -3.407435763040956 0.05
v 3.070450916392366 -3.582405875241592 0.05
v 3.318048064235038 -3.407435763040956 0.05
v 1.9898433305334997 -3.33851502617687 0.05
v 2.1489533504991014 -2.013503302199851 0.05
v 3.318048064235038 -3.407435763040956 0.05
v 2.1489533504991014 -2.013503302199851 0.05
v 3.497116477513633 -2.328998291989983 0.05
v 4.826938401525234 -2.0113606552769174 0.05
v 4.5907791103968085 -0.8407701072722926 0.05000000000000001
v 4.7362466003970125 -0.6694195471711339 0.05000000000000001
v 4.826938401525234 -2.0113606552769174 0.05
v 6.101738020000001 -0.6427388283838638 0.05000000000000001
v 6.10173802 -1.9819076931364081 0.05000000000000001
v 6.101738020000001 -0.6427388283838638 0.05000000000000001
v 4.826938401525234 -2.0113606552769174 0.05
v 4.7362466003970125 -0.6694195471711339 0.05000000000000001
v 4.6304370771972625 0.5995013774994868 0.05000000000000001
v 3.190537223714732 -0.5274197704751358 0.05
v 3.4205057325945445 0.6416824209173266 0.05000000000000001
v 3.190537223714732 -0.5274197704751358 0.05
v 4.6304370771972625 0.5995013774994868 0.05000000000000001
v 4.7362466003970125 -0.6694195471711339 0.05000000000000001
v 4.7362466003970125 -0.6694195471711339 0.05000000000000001
v 4.5907791103968085 -0.8407701072722926 0.05000000000000001
v 3.4823930811709145 -0.8654181776836423 0.05
v 3.190537223714732 -0.5274197704751358 0.05
v 4.7362466003970125 -0.6694195471711339 0.05000000000000001
v 3.4823930811709145 -0.8654181776836423 0.05
v 3.2055614476852456 -1.9929920424744152 0.05
v 2.1489533504991014 -2.013503302199851 0.05
v 1.853793554693457 -1.635927757897564 0.05
v 1.853793554693457 -1.635927757897564 0.05
v 2.078704149076138 -0.5740247406124434 0.05
v 3.190537223714732 -0.5274197704751358 0.05
v 3.190537223714732 -0.5274197704751358 0.05
v 3.4823930811709145 -0.8654181776836423 0.05
v 3.2055614476852456 -1.9929920424744152 0.05
v 3.2055614476852456 -1.9929920424744152 0.05
v 1.853793554693457 -1.635927757897564 0.05
v 3.190537223714732 -0.5274197704751358 0.05
v 4.7362466003970125 -0.6694195471711339 0.05000000000000001
v 4.6304370771972625 0.5995013774994868 0.05000000000000001
v 4.708179827534908 0.6761843175433562 0.05000000000000001
v 4.7362466003970125 -0.6694195471711339 0.05000000000000001
v 6.101738020000001 0.6268591197520399 0.05000000000000001
v 6.101738020000001 -0.6427388283838638 0.05000000000000001
v 6.101738020000001 0.6268591197520399 0.05000000000000001
v 4.7362466003970125 -0.6694195471711339 0.05000000000000001
v 4.708179827534908 0.6761843175433562 0.05000000000000001
v 1.833443369797533 -0.28050870672611106 0.05
v 2.078704149076138 -0.5740247406124434 0.05
v 1.853793554693457 -1.635927757897564 0.05
v 1.853793554693457 -1.635927757897564 0.05
v 0.5707378400000012 -1.6620523853394251 0.05
v 0.5707378400000018 -1.4879999700000006 0.05
v 0.5707378400000018 -1.4879999700000006 0.05
v 0.5707378400000024 -0.2937713104689612 0.05
v 1.833443369797533 -0.28050870672611106 0.05
v 1.833443369797533 -0.28050870672611106 0.05
v 1.853793554693457 -1.635927757897564 0.05
v 0.5707378400000018 -1.4879999700000006 0.05
v 4.708179827534908 0.6761843175433562 0.05000000000000001
v 4.6304370771972625 0.5995013774994868 0.05000000000000001
v 3.4205057325945445 0.6416824209173266 0.05000000000000001
v 4.761156736927754 2.0261268997410684 0.05000000000000001
v 3.2702775455810413 0.8218012823597405 0.05000000000000001
v 3.438268278974512 2.1476288550420803 0.05000000000000001
v 3.2702775455810413 0.8218012823597405 0.05000000000000001
v 4.761156736927754 2.0261268997410684 0.05000000000000001
v 4.708179827534908 0.6761843175433562 0.05000000000000001
v 3.2702775455810413 0.8218012823597405 0.05000000000000001
v 4.708179827534908 0.6761843175433562 0.05000000000000001
v 3.4205057325945445 0.6416824209173266 0.05000000000000001
v 3.190537223714732 -0.5274197704751358 0.05
v 2.078704149076138 -0.5740247406124434 0.05
v 1.833443369797533 -0.28050870672611106 0.05
v 3.190537223714732 -0.5274197704751358 0.05
v 2.0294613329834257 0.866818971998969 0.05
v 3.2702775455810413 0.8218012823597405 0.05000000000000001
v 3.2702775455810413 0.8218012823597405 0.05000000000000001
v 3.4205057325945445 0.6416824209173266 0.05000000000000001
v 3.190537223714732 -0.5274197704751358 0.05
v 2.0294613329834257 0.866818971998969 0.05
v 3.190537223714732 -0.5274197704751358 0.05
v 1.833443369797533 -0.28050870672611106 0.05
v 1.853793554693457 -1.635927757897564 0.05
v 2.1489533504991014 -2.013503302199851 0.05
v 1.8278828109375045 -3.0993657351878734 0.05
v 1.853793554693457 -1.635927757897564 0.05
v 0.5707378400000012 -3.000457351566676 0.049999999999999996
v 0.5707378400000012 -1.6620523853394251 0.05
v 0.5707378400000012 -3.000457351566676 0.049999999999999996
v 1.853793554693457 -1.635927757897564 0.05
v 1.8278828109375045 -3.0993657351878734 0.05
v 3.2702775455810413 0.8218012823597405 0.05000000000000001
v 2.0294613329834257 0.866818971998969 0.05
v 1.8878682639262343 1.0410076797006202 0.05
v 3.2702775455810413 0.8218012823597405 0.05000000000000001
v 2.042947981659036 2.275783381885047 0.05000000000000001
v 3.438268278974512 2.1476288550420803 0.05000000000000001
v 2.042947981659036 2.275783381885047 0.05000000000000001
v 3.2702775455810413 0.8218012823597405 0.05000000000000001
v 1.8878682639262343 1.0410076797006202 0.05
v 0.5707378400000019 -0.012000000000000854 0.05
v 2.0294613329834257 0.866818971998969 0.05
v 1.833443369797533 -0.28050870672611106 0.05
v 1.833443369797533 -0.28050870672611106 0.05
v 0.5707378400000024 -0.2937713104689612 0.05
v 0.5707378400000019 -0.012000000000000854 0.05
v 0.5707378400000019 -0.012000000000000854 0.05
v 0.5707378400000019 1.0558546414343675 0.05
v 1.8878682639262343 1.0410076797006202 0.05
v 2.0294613329834257 0.866818971998969 0.05
v 0.5707378400000019 -0.012000000000000854 0.05
v 1.8878682639262343 1.0410076797006202 0.05
v 1.8878682639262343 1.0410076797006202 0.05
v 0.5707378400000019 1.0558546414343675 0.05
v 0.5707378400000016 2.410999929999999 0.05
v 0.5707378400000016 2.410999929999999 0.05
v 2.042947981659036 2.275783381885047 0.05000000000000001
v 1.8878682639262343 1.0410076797006202 0.05
v -3.5562864200000006 2.55879575 0.0
v -4.51011812 1.9854677600000001 0.0
v -4.416042850000001 2.9263611100000007 0.0
v -1.67695229 2.67615797 0.0
v -1.74129991 1.71458992 0.0
v -2.39004694 2.52444417 0.0
v -2.39004694 2.52444417 0.0
v -3.5562864200000006 2.55879575 0.0
v -4.416042850000001 2.9263611100000007 0.0
v -4.416042850000001 2.9263611100000007 0.0
v -1.67695229 2.67615797 0.0
v -2.39004694 2.52444417 0.0
v 0.57073784 -0.012000000000000177 0.05
v 0.57073784 -1.48799997 0.05
v -0.0002621400000000773 -1.48799997 -6.938893903907228e-18
v -0.0002621400000000773 -1.48799997 -6.938893903907228e-18
v -0.0002621400000000043 -0.012000000000000004 1.5333097274868078e-18
v 0.57073784 -0.012000000000000177 0.05
v 0.57073784 1.3027074040816973 1.4175445795290664
v 0.57073784 1.1893311922998833 2.73600005
v 0.57073784 2.41099993 2.73600005
v 0.57073784 2.41099993 2.73600005
v 0.57073784 2.41099993 1.38933939016809
v 0.57073784 1.3027074040816973 1.4175445795290664
v 0.57073784 -0.012000000000000233 2.19499993
v 0.57073784 1.167968380454209 1.2959169131714057
v 0.57073784 -0.012000000000000122 1.38123482345667
v 0.57073784 1.3027074040816973 1.4175445795290664
v 0.57073784 -0.012000000000000233 2.19499993
v 0.57073784 0.49900002 2.73600005
v 0.57073784 0.49900002 2.73600005
v 0.57073784 1.1893311922998833 2.73600005
v 0.57073784 1.3027074040816973 1.4175445795290664
v 0.57073784 -0.012000000000000233 2.19499993
v 0.57073784 1.3027074040816973 1.4175445795290664
v 0.57073784 1.167968380454209 1.2959169131714057
v 0.57073784 2.41099993 0.04999999999999982
v 0.57073784 1.3027074040816973 1.4175445795290664
v 0.57073784 2.41099993 1.38933939016809
v 0.57073784 1.167968380454209 1.2959169131714057
v 0.57073784 2.41099993 0.04999999999999982
v 0.57073784 1.2086150658459391 0.04999999999999982
v 0.57073784 2.41099993 0.04999999999999982
v 0.57073784 1.167968380454209 1.2959169131714057
v 0.57073784 1.3027074040816973 1.4175445795290664
v 0.57073784 1.167968380454209 1.2959169131714057
v 0.57073784 1.2086150658459391 0.04999999999999982
v 0.57073784 -0.011999999999999908 0.04999999999999973
v 0.57073784 -0.011999999999999908 0.04999999999999973
v 0.57073784 -0.012000000000000122 1.38123482345667
v 0.57073784 1.167968380454209 1.2959169131714057
v -0.0002621399999999113 -0.012 2.19499993
v 0.57073784 -0.012 0.05
v -0.0002621400000000218 -0.012 0.0
v 0.57073784 -0.012 0.05
v -0.0002621399999999113 -0.012 2.19499993
v 0.57073784 -0.012 2.19499993
v 0.57073784 -2.9868850250195846 1.3442190739862552
v 0.57073784 -1.4879999699999997 1.4435460371850062
v 0.57073784 -1.48799997 0.05
v 0.57073784 -1.48799997 0.05
v 0.57073784 -2.9895739709204308 0.04999999999999982
v 0.57073784 -2.9868850250195846 1.3442190739862552
v 0.57073784 -1.5897933627798124 2.7360000500000003
v 0.57073784 0.4990000200000002 2.736000050000001
v 0.57073784 -0.011999999999999789 2.1949999300000003
v 0.57073784 -0.011999999999999789 2.1949999300000003
v 0.57073784 -1.4559449563030669 2.193043492155519
v 0.57073784 -1.5897933627798124 2.7360000500000003
v 0.57073784 -4.552606311484096 1.3058732637579846
v 0.57073784 -3.111521114398863 1.4777264508520414
v 0.57073784 -2.9868850250195846 1.3442190739862552
v 0.57073784 -4.552606311484096 1.3058732637579846
v 0.57073784 -2.9895739709204308 0.04999999999999982
v 0.57073784 -4.548246672026756 0.04999999999999982
v 0.57073784 -2.9895739709204308 0.04999999999999982
v 0.57073784 -4.552606311484096 1.3058732637579846
v 0.57073784 -2.9868850250195846 1.3442190739862552
v 0.57073784 -3.111521114398863 1.4777264508520414
v 0.57073784 -4.552606311484096 1.3058732637579846
v 0.57073784 -4.665283435876052 1.4266387049911822
v 0.57073784 -3.111521114398863 1.4777264508520414
v 0.57073784 -4.66656233495377 2.73600005
v 0.57073784 -3.113604294474709 2.7360000500000003
v 0.57073784 -4.66656233495377 2.73600005
v 0.57073784 -3.111521114398863 1.4777264508520414
v 0.57073784 -4.665283435876052 1.4266387049911822
v 0.57073784 -1.48799997 2.1930000600000006
v 0.57073784 -1.4879999699999997 1.4435460371850062
v 0.57073784 -2.9868850250195846 1.3442190739862552
v 0.57073784 -1.48799997 2.1930000600000006
v 0.57073784 -3.111521114398863 1.4777264508520414
v 0.57073784 -3.113604294474709 2.7360000500000003
v 0.57073784 -1.48799997 2.1930000600000006
v 0.57073784 -1.5897933627798124 2.7360000500000003
v 0.57073784 -1.4559449563030669 2.193043492155519
v 0.57073784 -3.111521114398863 1.4777264508520414
v 0.57073784 -1.48799997 2.1930000600000006
v 0.57073784 -2.9868850250195846 1.3442190739862552
v 0.57073784 -1.5897933627798124 2.7360000500000003
v 0.57073784 -1.48799997 2.1930000600000006
v 0.57073784 -3.113604294474709 2.7360000500000003
v 0.57073784 -4.665283435876052 1.4266387049911822
v 0.57073784 -4.552606311484096 1.3058732637579846
v 0.57073784 -4.548246672026756 0.04999999999999982
v 0.57073784 -4.665283435876052 1.4266387049911822
v 0.57073784 -6.159999970000001 0.049999999999998934
v 0.57073784 -6.15999997 1.3474634952307216
v 0.57073784 -6.159999970000001 0.049999999999998934
v 0.57073784 -4.665283435876052 1.4266387049911822
v 0.57073784 -4.548246672026756 0.04999999999999982
v 0.57073784 -4.665283435876052 1.4266387049911822
v 0.57073784 -6.15999997 1.3474634952307216
v 0.57073784 -6.15999997 2.7360000499999995
v 0.57073784 -6.15999997 2.7360000499999995
v 0.57073784 -4.66656233495377 2.73600005
v 0.57073784 -4.665283435876052 1.4266387049911822
v 0.57073784 -0.011999999999999789 1.1309157077886194
v 0.6757168 -1.48499143 0.05
v 0.57073784 -0.011999999999999789 0.05
v 0.6757168 -1.48499143 0.05
v 0.57073784 -0.011999999999999789 1.1309157077886194
v 0.6757168 -1.48499143 1.176943580299745
v 0.6757168 -1.48499143 1.176943580299745
v 0.57073784 -0.011999999999999789 2.19499993
v 0.6757168 -1.48499143 2.19499993
v 0.57073784 -0.011999999999999789 2.19499993
v 0.6757168 -1.48499143 1.176943580299745
v 0.57073784 -0.011999999999999789 1.1309157077886194
v -5.44190039 -0.09118618 0.0
v -5.44190039 1.4788138 0.0
v -5.44190039 1.4788138 1.00000001
v -5.44190039 1.4788138 1.00000001
v -5.44190039 -0.09118618 1.00000001
v -5.44190039 -0.09118618 0.0
v -2.39004694 2.52444417 1.00000001
v -3.55628642 2.55879575 0.0
v -2.39004694 2.52444417 0.0
v -3.55628642 2.55879575 0.0
v -2.39004694 2.52444417 1.00000001
v -3.55628642 2.55879575 1.00000001
v -1.7412999100000002 1.7145899200000003 1.00000001
v -2.39004694 2.52444417 1.00000001
v -2.39004694 2.52444417 0.0
v -2.39004694 2.52444417 0.0
v -1.7412999100000002 1.7145899200000003 0.0
v -1.7412999100000002 1.7145899200000003 1.00000001
v -4.51011812 1.98546776 0.0
v -4.51011812 1.98546776 1.00000001
v -5.44190039 1.4788138 1.00000001
v -5.44190039 1.4788138 1.00000001
v -5.44190039 1.4788138 0.0
v -4.51011812 1.98546776 0.0
v -4.51011812 1.9854677600000001 0.0
v -3.55628642 2.55879575 0.0
v -3.55628642 2.55879575 1.00000001
v -3.55628642 2.55879575 1.00000001
v -4.51011812 1.9854677600000001 1.00000001
v -4.51011812 1.9854677600000001 0.0

usemtl Patch_1_Mat_CR1_paintedConcrete
f 3 2 1
f 6 5 4
f 9 8 7

usemtl Patch_2_Mat_CR1_paintedConcrete
f 12 11 10
f 15 14 13
f 18 17 16

usemtl Patch_3_Mat_CR1_paintedConcrete
f 21 20 19
f 24 23 22
f 27 26 25

usemtl Patch_4_Mat_CR1_paintedConcrete
f 30 29 28
f 33 32 31
f 36 35 34
f 39 38 37

usemtl Patch_5_Mat_CR1_paintedConcrete
f 42 41 40
f 45 44 43

usemtl Patch_6_Mat_CR1_paintedConcrete
f 48 47 46
f 51 50 49
f 54 53 52

usemtl Patch_7_Mat_CR1_paintedConcrete
f 57 56 55
f 60 59 58
f 63 62 61
f 66 65 64

usemtl Patch_8_Mat_CR1_paintedConcrete
f 69 68 67
f 72 71 70
f 75 74 73

usemtl Patch_9_Mat_CR1_paintedConcrete
f 78 77 76
f 81 80 79
f 84 83 82
f 87 86 85

usemtl Patch_10_Mat_CR1_paintedConcrete
f 90 89 88
f 93 92 91
f 96 95 94
f 99 98 97

usemtl Patch_11_Mat_CR1_paintedConcrete
f 102 101 100
f 105 104 103
f 108 107 106
f 111 110 109

usemtl Patch_12_Mat_CR1_paintedConcrete
f 114 113 112
f 117 116 115
f 120 119 118

usemtl Patch_13_Mat_CR1_paintedConcrete
f 123 122 121
f 126 125 124
f 129 128 127

usemtl Patch_14_Mat_CR1_paintedConcrete
f 132 131 130
f 135 134 133
f 138 137 136
f 141 140 139

usemtl Patch_15_Mat_CR1_paintedConcrete
f 144 143 142
f 147 146 145
f 150 149 148

usemtl Patch_16_Mat_CR1_paintedConcrete
f 153 152 151
f 156 155 154
f 159 158 157

usemtl Patch_17_Mat_CR1_paintedConcrete
f 162 161 160
f 165 164 163
f 168 167 166
f 171 170 169

usemtl Patch_18_Mat_CR1_paintedConcrete
f 174 173 172
f 177 176 175
f 180 179 178

usemtl Patch_19_Mat_CR1_paintedConcrete
f 183 182 181
f 186 185 184
f 189 188 187
f 192 191 190

usemtl Patch_20_Mat_CR1_paintedConcrete
f 195 194 193
f 198 197 196
f 201 200 199
f 204 203 202

usemtl Patch_21_Mat_CR1_paintedConcrete
f 207 206 205
f 210 209 208

usemtl Patch_22_Mat_CR1_paintedConcrete
f 213 212 211
f 216 215 214
f 219 218 217

usemtl Patch_23_Mat_CR1_paintedConcrete
f 222 221 220
f 225 224 223
f 228 227 226
f 231 230 229

usemtl Patch_24_Mat_CR1_paintedConcrete
f 234 233 232
f 237 236 235

usemtl Patch_25_Mat_CR1_paintedConcrete
f 240 239 238
f 243 242 241
f 246 245 244

usemtl Patch_26_Mat_CR1_paintedConcrete
f 249 248 247
f 252 251 250
f 255 254 253
f 258 257 256

usemtl Patch_27_Mat_CR1_paintedConcrete
f 261 260 259
f 264 263 262
f 267 266 265
f 270 269 268
f 273 272 271
f 276 275 274

usemtl Patch_28_Mat_CR1_paintedConcrete
f 279 278 277
f 282 281 280
f 285 284 283

usemtl Patch_29_Mat_CR1_paintedConcrete
f 288 287 286
f 291 290 289

usemtl Patch_30_Mat_CR1_paintedConcrete
f 294 293 292
f 297 296 295
f 300 299 298

usemtl Patch_31_Mat_CR1_paintedConcrete
f 303 302 301
f 306 305 304

usemtl Patch_32_Mat_CR1_concrete
f 309 308 307
f 312 311 310
f 315 314 313

usemtl Patch_33_Mat_CR1_concrete
f 318 317 316
f 321 320 319
f 324 323 322

usemtl Patch_34_Mat_CR1_concrete
f 327 326 325
f 330 329 328
f 333 332 331

usemtl Patch_35_Mat_CR1_concrete
f 336 335 334
f 339 338 337

usemtl Patch_36_Mat_CR1_concrete
f 342 341 340
f 345 344 343
f 348 347 346

usemtl Patch_37_Mat_CR1_concrete
f 351 350 349
f 354 353 352
f 357 356 355
f 360 359 358

usemtl Patch_38_Mat_CR1_concrete
f 363 362 361
f 366 365 364
f 369 368 367
f 372 371 370

usemtl Patch_39_Mat_CR1_concrete
f 375 374 373
f 378 377 376
f 381 380 379

usemtl Patch_40_Mat_CR1_concrete
f 384 383 382
f 387 386 385

usemtl Patch_41_Mat_CR1_concrete
f 390 389 388
f 393 392 391
f 396 395 394
f 399 398 397

usemtl Patch_42_Mat_CR1_concrete
f 402 401 400
f 405 404 403
f 408 407 406
f 411 410 409

usemtl Patch_43_Mat_CR1_concrete
f 414 413 412
f 417 416 415
f 420 419 418
f 423 422 421
f 426 425 424

usemtl Patch_44_Mat_CR1_concrete
f 429 428 427
f 432 431 430
f 435 434 433

usemtl Patch_45_Mat_CR1_concrete
f 438 437 436
f 441 440 439
f 444 443 442

usemtl Patch_46_Mat_CR1_concrete
f 447 446 445
f 450 449 448
f 453 452 451

usemtl Patch_47_Mat_CR1_concrete
f 456 455 454
f 459 458 457
f 462 461 460
f 465 464 463
f 468 467 466

usemtl Patch_48_Mat_CR1_concrete
f 471 470 469
f 474 473 472
f 477 476 475

usemtl Patch_49_Mat_CR1_concrete
f 480 479 478
f 483 482 481
f 486 485 484

usemtl Patch_50_Mat_CR1_concrete
f 489 488 487
f 492 491 490
f 495 494 493

usemtl Patch_51_Mat_CR1_concrete
f 498 497 496
f 501 500 499

usemtl Patch_52_Mat_CR1_concrete
f 504 503 502
f 507 506 505
f 510 509 508

usemtl Patch_53_Mat_CR1_concrete
f 513 512 511
f 516 515 514
f 519 518 517

usemtl Patch_54_Mat_CR1_concrete
f 522 521 520
f 525 524 523
f 528 527 526

usemtl Patch_55_Mat_CR1_concrete
f 531 530 529
f 534 533 532
f 537 536 535
f 540 539 538

usemtl Patch_56_Mat_CR1_concrete
f 543 542 541
f 546 545 544
f 549 548 547

usemtl Patch_57_Mat_CR1_concrete
f 552 551 550
f 555 554 553
f 558 557 556

usemtl Patch_58_Mat_CR1_concrete
f 561 560 559
f 564 563 562
f 567 566 565
f 570 569 568

usemtl Patch_59_Mat_CR1_concrete
f 573 572 571
f 576 575 574
f 579 578 577

usemtl Patch_60_Mat_CR1_concrete
f 582 581 580
f 585 584 583
f 588 587 586

usemtl Patch_61_Mat_CR1_concrete
f 591 590 589
f 594 593 592
f 597 596 595

usemtl Patch_62_Mat_CR1_concrete
f 600 599 598
f 603 602 601

usemtl Patch_63_Mat_CR1_concrete
f 606 605 604
f 609 608 607
f 612 611 610
f 615 614 613

usemtl Patch_64_Mat_CR1_concrete
f 618 617 616
f 621 620 619
f 624 623 622

usemtl Patch_65_Mat_CR1_concrete
f 627 626 625
f 630 629 628
f 633 632 631

usemtl Patch_66_Mat_CR1_concrete
f 636 635 634
f 639 638 637
f 642 641 640
f 645 644 643

usemtl Patch_67_Mat_CR1_concrete
f 648 647 646
f 651 650 649
f 654 653 652

usemtl Patch_68_Mat_CR1_concrete
f 657 656 655
f 660 659 658

usemtl Patch_69_Mat_CR1_concrete
f 663 662 661
f 666 665 664
f 669 668 667

usemtl Patch_70_Mat_CR1_concrete
f 672 671 670
f 675 674 673
f 678 677 676
f 681 680 679
f 684 683 682

usemtl Patch_71_Mat_CR1_concrete
f 687 686 685
f 690 689 688
f 693 692 691
f 696 695 694

usemtl Patch_72_Mat_CR1_concrete
f 699 698 697
f 702 701 700
f 705 704 703

usemtl Patch_73_Mat_CR1_concrete
f 708 707 706
f 711 710 709
f 714 713 712

usemtl Patch_74_Mat_CR1_concrete
f 717 716 715
f 720 719 718
f 723 722 721
f 726 725 724
f 729 728 727
f 732 731 730

usemtl Patch_75_Mat_CR1_paintedConcrete
f 735 734 733
f 738 737 736

usemtl Patch_76_Mat_CR1_paintedConcrete
f 741 740 739
f 744 743 742

usemtl Patch_77_Mat_CR1_paintedConcrete
f 747 746 745
f 750 749 748
f 753 752 751

usemtl Patch_78_Mat_CR1_paintedConcrete
f 756 755 754
f 759 758 757
f 762 761 760
f 765 764 763

usemtl Patch_79_Mat_CR1_paintedConcrete
f 768 767 766
f 771 770 769
f 774 773 772

usemtl Patch_80_Mat_CR1_paintedConcrete
f 777 776 775
f 780 779 778

usemtl Patch_81_Mat_CR1_paintedConcrete
f 783 782 781
f 786 785 784
f 789 788 787

usemtl Patch_82_Mat_CR1_paintedConcrete
f 792 791 790
f 795 794 793
f 798 797 796

usemtl Patch_83_Mat_CR1_paintedConcrete
f 801 800 799
f 804 803 802
f 807 806 805

usemtl Patch_84_Mat_CR1_paintedConcrete
f 810 809 808
f 813 812 811
f 816 815 814

usemtl Patch_85_Mat_CR1_paintedConcrete
f 819 818 817
f 822 821 820

usemtl Patch_86_Mat_CR1_paintedConcrete
f 825 824 823
f 828 827 826
f 831 830 829

usemtl Patch_87_Mat_CR1_paintedConcrete
f 834 833 832
f 837 836 835
f 840 839 838

usemtl Patch_88_Mat_CR1_paintedConcrete
f 843 842 841
f 846 845 844
f 849 848 847

usemtl Patch_89_Mat_CR1_paintedConcrete
f 852 851 850
f 855 854 853
f 858 857 856

usemtl Patch_90_Mat_CR1_paintedConcrete
f 861 860 859
f 864 863 862
f 867 866 865

usemtl Patch_91_Mat_CR1_paintedConcrete
f 870 869 868
f 873 872 871

usemtl Patch_92_Mat_CR1_paintedConcrete
f 876 875 874
f 879 878 877
f 882 881 880

usemtl Patch_93_Mat_CR1_paintedConcrete
f 885 884 883
f 888 887 886
f 891 890 889

usemtl Patch_94_Mat_CR1_paintedConcrete
f 894 893 892
f 897 896 895
f 900 899 898

usemtl Patch_95_Mat_CR1_paintedConcrete
f 903 902 901
f 906 905 904
f 909 908 907

usemtl Patch_96_Mat_CR1_paintedConcrete
f 912 911 910
f 915 914 913

usemtl Patch_97_Mat_CR1_paintedConcrete
f 918 917 916
f 921 920 919
f 924 923 922

usemtl Patch_98_Mat_CR1_paintedConcrete
f 927 926 925
f 930 929 928

usemtl Patch_99_Mat_CR1_paintedConcrete
f 933 932 931
f 936 935 934
f 939 938 937

usemtl Patch_100_Mat_CR1_paintedConcrete
f 942 941 940
f 945 944 943
f 948 947 946

usemtl Patch_101_Mat_CR1_paintedConcrete
f 951 950 949
f 954 953 952
f 957 956 955

usemtl Patch_102_Mat_CR1_tablesEquipment
f 960 959 958
f 963 962 961

usemtl Patch_103_Mat_CR1_tablesEquipment
f 966 965 964
f 969 968 967
f 972 971 970

usemtl Patch_104_Mat_CR1_tablesEquipment
f 975 974 973
f 978 977 976
f 981 980 979

usemtl Patch_105_Mat_CR1_tablesEquipment
f 984 983 982
f 987 986 985

usemtl Patch_106_Mat_CR1_tablesEquipment
f 990 989 988
f 993 992 991

usemtl Patch_107_Mat_CR1_tablesEquipment
f 996 995 994
f 999 998 997

usemtl Patch_108_Mat_CR1_tablesEquipment
f 1002 1001 1000
f 1005 1004 1003

usemtl Patch_109_Mat_CR1_tablesEquipment
f 1008 1007 1006
f 1011 1010 1009
f 1014 1013 1012

usemtl Patch_110_Mat_CR1_tablesEquipment
f 1017 1016 1015
f 1020 1019 1018
f 1023 1022 1021

usemtl Patch_111_Mat_CR1_absorber
f 1026 1025 1024
f 1029 1028 1027

usemtl Patch_112_Mat_CR1_absorber
f 1032 1031 1030
f 1035 1034 1033

usemtl Patch_113_Mat_CR1_absorber
f 1038 1037 1036
f 1041 1040 1039

usemtl Patch_114_Mat_CR1_absorber
f 1044 1043 1042
f 1047 1046 1045

usemtl Patch_115_Mat_CR1_tablesEquipment
f 1050 1049 1048
f 1053 1052 1051

usemtl Patch_116_Mat_CR1_tablesEquipment
f 1056 1055 1054
f 1059 1058 1057

usemtl Patch_117_Mat_CR1_tablesEquipment
f 1062 1061 1060
f 1065 1064 1063

usemtl Patch_118_Mat_CR1_tablesEquipment
f 1068 1067 1066
f 1071 1070 1069
f 1074 1073 1072
f 1077 1076 1075

usemtl Patch_119_Mat_CR1_tablesEquipment
f 1080 1079 1078
f 1083 1082 1081

usemtl Patch_120_Mat_CR1_tablesEquipment
f 1086 1085 1084
f 1089 1088 1087

usemtl Patch_121_Mat_CR1_tablesEquipment
f 1092 1091 1090
f 1095 1094 1093

usemtl Patch_122_Mat_CR1_concrete
f 1098 1097 1096
f 1101 1100 1099
f 1104 1103 1102

usemtl Patch_123_Mat_CR1_concrete
f 1107 1106 1105
f 1110 1109 1108
f 1113 1112 1111
f 1116 1115 1114

usemtl Patch_124_Mat_CR1_concrete
f 1119 1118 1117
f 1122 1121 1120
f 1125 1124 1123
f 1128 1127 1126
f 1131 1130 1129

usemtl Patch_125_Mat_CR1_concrete
f 1134 1133 1132
f 1137 1136 1135
f 1140 1139 1138

usemtl Patch_126_Mat_CR1_concrete
f 1143 1142 1141
f 1146 1145 1144
f 1149 1148 1147
f 1152 1151 1150
f 1155 1154 1153
f 1158 1157 1156

usemtl Patch_127_Mat_CR1_concrete
f 1161 1160 1159
f 1164 1163 1162
f 1167 1166 1165

usemtl Patch_128_Mat_CR1_concrete
f 1170 1169 1168
f 1173 1172 1171
f 1176 1175 1174
f 1179 1178 1177

usemtl Patch_129_Mat_CR1_concrete
f 1182 1181 1180
f 1185 1184 1183
f 1188 1187 1186
f 1191 1190 1189
f 1194 1193 1192

usemtl Patch_130_Mat_CR1_concrete
f 1197 1196 1195
f 1200 1199 1198
f 1203 1202 1201

usemtl Patch_131_Mat_CR1_concrete
f 1206 1205 1204
f 1209 1208 1207
f 1212 1211 1210
f 1215 1214 1213

usemtl Patch_132_Mat_CR1_concrete
f 1218 1217 1216
f 1221 1220 1219
f 1224 1223 1222
f 1227 1226 1225

usemtl Patch_133_Mat_CR1_concrete
f 1230 1229 1228
f 1233 1232 1231
f 1236 1235 1234
f 1239 1238 1237

usemtl Patch_134_Mat_CR1_concrete
f 1242 1241 1240
f 1245 1244 1243

usemtl Patch_135_Mat_CR1_concrete
f 1248 1247 1246
f 1251 1250 1249
f 1254 1253 1252
f 1257 1256 1255
f 1260 1259 1258

usemtl Patch_136_Mat_CR1_concrete
f 1263 1262 1261
f 1266 1265 1264

usemtl Patch_137_Mat_CR1_concrete
f 1269 1268 1267
f 1272 1271 1270
f 1275 1274 1273

usemtl Patch_138_Mat_CR1_absorber
f 1278 1277 1276
f 1281 1280 1279

usemtl Patch_139_Mat_CR1_concrete
f 1284 1283 1282
f 1287 1286 1285

usemtl Patch_140_Mat_CR1_paintedConcrete
f 1290 1289 1288
f 1293 1292 1291

usemtl Patch_141_Mat_CR1_paintedConcrete
f 1296 1295 1294
f 1299 1298 1297

usemtl Patch_142_Mat_CR1_paintedConcrete
f 1302 1301 1300
f 1305 1304 1303

usemtl Patch_143_Mat_CR1_paintedConcrete
f 1308 1307 1306
f 1311 1310 1309
f 1314 1313 1312

usemtl Patch_144_Mat_CR1_paintedConcrete
f 1317 1316 1315
f 1320 1319 1318
f 1323 1322 1321

usemtl Patch_145_Mat_CR1_paintedConcrete
f 1326 1325 1324
f 1329 1328 1327
f 1332 1331 1330
f 1335 1334 1333

usemtl Patch_146_Mat_CR1_paintedConcrete
f 1338 1337 1336
f 1341 1340 1339
f 1344 1343 1342
f 1347 1346 1345

usemtl Patch_147_Mat_CR1_paintedConcrete
f 1350 1349 1348
f 1353 1352 1351
f 1356 1355 1354

usemtl Patch_148_Mat_CR1_paintedConcrete
f 1359 1358 1357
f 1362 1361 1360
f 1365 1364 1363

usemtl Patch_149_Mat_CR1_paintedConcrete
f 1368 1367 1366
f 1371 1370 1369
f 1374 1373 1372

usemtl Patch_150_Mat_CR1_paintedConcrete
f 1377 1376 1375
f 1380 1379 1378
f 1383 1382 1381

usemtl Patch_151_Mat_CR1_paintedConcrete
f 1386 1385 1384
f 1389 1388 1387

usemtl Patch_152_Mat_CR1_paintedConcrete
f 1392 1391 1390
f 1395 1394 1393
f 1398 1397 1396
f 1401 1400 1399

usemtl Patch_153_Mat_CR1_paintedConcrete
f 1404 1403 1402
f 1407 1406 1405
f 1410 1409 1408

usemtl Patch_154_Mat_CR1_paintedConcrete
f 1413 1412 1411
f 1416 1415 1414
f 1419 1418 1417
f 1422 1421 1420
f 1425 1424 1423

usemtl Patch_155_Mat_CR1_paintedConcrete
f 1428 1427 1426
f 1431 1430 1429
f 1434 1433 1432

usemtl Patch_156_Mat_CR1_paintedConcrete
f 1437 1436 1435
f 1440 1439 1438
f 1443 1442 1441
f 1446 1445 1444

usemtl Patch_157_Mat_CR1_paintedConcrete
f 1449 1448 1447
f 1452 1451 1450
f 1455 1454 1453
f 1458 1457 1456

usemtl Patch_158_Mat_CR1_paintedConcrete
f 1461 1460 1459
f 1464 1463 1462
f 1467 1466 1465

usemtl Patch_159_Mat_CR1_paintedConcrete
f 1470 1469 1468
f 1473 1472 1471
f 1476 1475 1474
f 1479 1478 1477

usemtl Patch_160_Mat_CR1_paintedConcrete
f 1482 1481 1480
f 1485 1484 1483
f 1488 1487 1486
f 1491 1490 1489

usemtl Patch_161_Mat_CR1_paintedConcrete
f 1494 1493 1492
f 1497 1496 1495
f 1500 1499 1498
f 1503 1502 1501

usemtl Patch_162_Mat_CR1_paintedConcrete
f 1506 1505 1504
f 1509 1508 1507
f 1512 1511 1510

usemtl Patch_163_Mat_CR1_paintedConcrete
f 1515 1514 1513
f 1518 1517 1516
f 1521 1520 1519

usemtl Patch_164_Mat_CR1_paintedConcrete
f 1524 1523 1522
f 1527 1526 1525
f 1530 1529 1528
f 1533 1532 1531

usemtl Patch_165_Mat_CR1_paintedConcrete
f 1536 1535 1534
f 1539 1538 1537

usemtl Patch_166_Mat_CR1_concrete
f 1542 1541 1540
f 1545 1544 1543
f 1548 1547 1546
f 1551 1550 1549

usemtl Patch_167_Mat_CR1_concrete
f 1554 1553 1552
f 1557 1556 1555

usemtl Patch_168_Mat_CR1_paintedConcrete
f 1560 1559 1558
f 1563 1562 1561

usemtl Patch_169_Mat_CR1_paintedConcrete
f 1566 1565 1564
f 1569 1568 1567
f 1572 1571 1570
f 1575 1574 1573

usemtl Patch_170_Mat_CR1_paintedConcrete
f 1578 1577 1576
f 1581 1580 1579
f 1584 1583 1582

usemtl Patch_171_Mat_CR1_paintedConcrete
f 1587 1586 1585
f 1590 1589 1588

usemtl Patch_172_Mat_CR1_concrete
f 1593 1592 1591
f 1596 1595 1594

usemtl Patch_173_Mat_CR1_paintedConcrete
f 1599 1598 1597
f 1602 1601 1600

usemtl Patch_174_Mat_CR1_paintedConcrete
f 1605 1604 1603
f 1608 1607 1606

usemtl Patch_175_Mat_CR1_paintedConcrete
f 1611 1610 1609
f 1614 1613 1612
f 1617 1616 1615

usemtl Patch_176_Mat_CR1_paintedConcrete
f 1620 1619 1618
f 1623 1622 1621
f 1626 1625 1624

usemtl Patch_177_Mat_CR1_paintedConcrete
f 1629 1628 1627
f 1632 1631 1630
f 1635 1634 1633
f 1638 1637 1636
f 1641 1640 1639

usemtl Patch_178_Mat_CR1_paintedConcrete
f 1644 1643 1642
f 1647 1646 1645
f 1650 1649 1648

usemtl Patch_179_Mat_CR1_paintedConcrete
f 1653 1652 1651
f 1656 1655 1654

usemtl Patch_180_Mat_CR1_tablesEquipment
f 1659 1658 1657
f 1662 1661 1660

usemtl Patch_181_Mat_CR1_tablesEquipment
f 1665 1664 1663
f 1668 1667 1666

usemtl Patch_182_Mat_CR1_absorber
f 1671 1670 1669
f 1674 1673 1672

usemtl Patch_183_Mat_CR1_absorber
f 1677 1676 1675
f 1680 1679 1678

usemtl Patch_184_Mat_CR1_absorber
f 1683 1682 1681
f 1686 1685 1684

usemtl Patch_185_Mat_CR1_absorber
f 1689 1688 1687
f 1692 1691 1690

usemtl Patch_186_Mat_CR1_absorber
f 1695 1694 1693
f 1698 1697 1696

