mtllib mesh.mtl

v -1.303 4.082 0.150
v -2.823 4.082 0.595
v -2.823 4.082 0.150
v -2.823 4.082 0.595
v -1.303 4.082 0.150
v -1.303 4.082 0.595
v 2.804 4.189 1.506
v 2.804 4.189 0.450
v 1.261 4.189 0.450
v 1.261 4.189 0.450
v 1.261 4.189 1.510
v 2.804 4.189 1.506
v 1.261 4.189 1.510
v 1.261 4.189 2.568
v 2.804 4.189 2.568
v 2.804 4.189 2.568
v 2.804 4.189 1.506
v 1.261 4.189 1.510
v -0.769 4.189 1.509
v -0.769 4.189 2.568
v 0.758 4.189 2.568
v 0.758 4.189 2.568
v 0.758 4.189 1.504
v -0.769 4.189 1.509
v 0.758 4.189 1.504
v 0.758 4.189 0.450
v -0.769 4.189 0.450
v -0.769 4.189 0.450
v -0.769 4.189 1.509
v 0.758 4.189 1.504
v -1.297 4.189 1.507
v -2.884 4.189 2.568
v -1.297 4.189 2.568
v -2.884 4.189 2.568
v -1.297 4.189 1.507
v -2.884 4.189 1.506
v -2.884 4.189 1.506
v -1.297 4.189 0.450
v -2.884 4.189 0.450
v -1.297 4.189 0.450
v -2.884 4.189 1.506
v -1.297 4.189 1.507
v -1.616 -4.255 0.980
v -1.616 -2.891 0.000
v -1.616 -4.255 0.000
v -1.616 -2.891 0.000
v -1.616 -4.255 0.980
v -1.616 -2.891 0.991
v -1.616 -2.891 0.991
v -1.616 -4.255 1.984
v -1.616 -2.891 1.979
v -1.616 -4.255 1.984
v -1.616 -2.891 0.991
v -1.616 -4.255 0.980
v -1.616 -4.255 1.984
v -1.616 -4.255 2.988
v -1.616 -2.891 2.988
v -1.616 -2.891 2.988
v -1.616 -2.891 1.979
v -1.616 -4.255 1.984
v 0.757 4.082 0.150
v -0.763 4.082 0.595
v -0.763 4.082 0.150
v -0.763 4.082 0.595
v 0.757 4.082 0.150
v 0.757 4.082 0.595
v 2.787 4.082 0.150
v 1.267 4.082 0.595
v 1.267 4.082 0.150
v 1.267 4.082 0.595
v 2.787 4.082 0.150
v 2.787 4.082 0.595
v 1.261 4.189 0.450
v 0.758 4.189 1.261
v 1.261 4.189 1.430
v 2.804 4.189 0.450
v 2.804 4.189 0.873
v 3.155 4.189 0.638
v 0.758 4.189 0.450
v 0.156 4.189 -0.000
v 0.161 4.189 0.450
v 0.758 4.189 1.261
v 1.261 4.189 0.450
v 0.758 4.189 0.450
v 2.804 4.189 0.450
v 3.155 4.189 0.638
v 3.155 4.189 0.000
v 1.261 4.189 0.450
v 0.156 4.189 -0.000
v 0.758 4.189 0.450
v 1.261 4.189 0.450
v 2.804 4.189 0.450
v 3.155 4.189 0.000
v 0.156 4.189 -0.000
v 1.261 4.189 0.450
v 3.155 4.189 0.000
v 0.758 4.189 2.568
v 1.261 4.189 1.430
v 0.758 4.189 1.261
v 0.758 4.189 2.568
v -0.234 4.189 2.568
v -0.219 4.189 2.988
v 1.261 4.189 2.568
v 1.938 4.189 2.988
v 1.878 4.189 2.568
v 1.261 4.189 1.430
v 0.758 4.189 2.568
v 1.261 4.189 2.568
v 1.938 4.189 2.988
v 0.758 4.189 2.568
v -0.219 4.189 2.988
v 1.938 4.189 2.988
v 1.261 4.189 2.568
v 0.758 4.189 2.568
v 2.804 4.189 2.568
v 1.878 4.189 2.568
v 1.938 4.189 2.988
v 2.804 4.189 2.568
v 3.155 4.189 0.638
v 2.804 4.189 0.873
v 2.804 4.189 2.568
v 1.938 4.189 2.988
v 3.155 4.189 2.988
v 3.155 4.189 0.638
v 2.804 4.189 2.568
v 3.155 4.189 2.988
v -0.769 4.189 0.450
v 0.161 4.189 0.450
v 0.156 4.189 -0.000
v -1.297 4.189 0.450
v -2.884 4.189 -0.000
v -2.884 4.189 0.450
v -0.769 4.189 0.450
v -1.297 4.189 1.484
v -0.769 4.189 1.513
v -1.297 4.189 0.450
v 0.156 4.189 -0.000
v -2.884 4.189 -0.000
v -1.297 4.189 1.484
v -0.769 4.189 0.450
v -1.297 4.189 0.450
v 0.156 4.189 -0.000
v -1.297 4.189 0.450
v -0.769 4.189 0.450
v -1.297 4.189 2.568
v -0.769 4.189 1.513
v -1.297 4.189 1.484
v -1.297 4.189 2.568
v -2.884 4.189 2.568
v -2.884 4.189 2.988
v -0.769 4.189 2.568
v -0.219 4.189 2.988
v -0.234 4.189 2.568
v -0.769 4.189 1.513
v -1.297 4.189 2.568
v -0.769 4.189 2.568
v -0.219 4.189 2.988
v -1.297 4.189 2.568
v -2.884 4.189 2.988
v -0.219 4.189 2.988
v -0.769 4.189 2.568
v -1.297 4.189 2.568
v 2.018 -2.872 0.000
v 3.127 -2.873 0.000
v 3.122 -4.198 0.000
v 3.122 -4.198 0.000
v 1.759 -4.214 0.000
v 2.018 -2.872 0.000
v 2.018 -2.872 0.000
v 1.759 -4.214 0.000
v 0.863 -4.225 0.000
v 2.018 -2.872 0.000
v 0.614 -2.820 0.000
v 1.058 -2.463 0.000
v 1.058 -2.463 0.000
v 1.654 -2.495 0.000
v 2.018 -2.872 0.000
v 0.614 -2.820 0.000
v 2.018 -2.872 0.000
v 0.863 -4.225 0.000
v 2.018 -2.872 0.000
v 1.654 -2.495 0.000
v 2.200 -1.413 0.000
v 2.200 -1.413 0.000
v 3.133 -1.417 0.000
v 3.127 -2.873 0.000
v 3.127 -2.873 0.000
v 2.018 -2.872 0.000
v 2.200 -1.413 0.000
v 1.693 -0.840 0.000
v 1.058 -2.463 0.000
v 0.583 -1.127 0.000
v 1.058 -2.463 0.000
v 1.693 -0.840 0.000
v 2.200 -1.413 0.000
v 1.058 -2.463 0.000
v 2.200 -1.413 0.000
v 1.654 -2.495 0.000
v 2.200 -1.413 0.000
v 1.693 -0.840 0.000
v 1.894 -0.010 0.000
v 2.200 -1.413 0.000
v 3.139 0.174 0.000
v 3.133 -1.417 0.000
v 3.139 0.174 0.000
v 2.200 -1.413 0.000
v 1.894 -0.010 0.000
v -0.506 -4.242 0.000
v 0.614 -2.820 0.000
v 0.863 -4.225 0.000
v 0.614 -2.820 0.000
v -0.506 -4.242 0.000
v -0.394 -2.734 0.000
v 0.236 0.118 0.000
v 0.583 -1.127 0.000
v 0.431 -1.057 0.000
v 1.693 -0.840 0.000
v 0.236 0.118 0.000
v 1.411 0.551 0.000
v 1.411 0.551 0.000
v 1.894 -0.010 0.000
v 1.693 -0.840 0.000
v 0.236 0.118 0.000
v 1.693 -0.840 0.000
v 0.583 -1.127 0.000
v 1.824 1.556 0.000
v 1.411 0.551 0.000
v 1.493 1.303 0.000
v 1.894 -0.010 0.000
v 1.824 1.556 0.000
v 3.144 1.327 0.000
v 3.144 1.327 0.000
v 3.139 0.174 0.000
v 1.894 -0.010 0.000
v 1.411 0.551 0.000
v 1.824 1.556 0.000
v 1.894 -0.010 0.000
v 3.144 1.327 0.000
v 1.904 2.752 0.000
v 3.150 2.919 0.000
v 1.904 2.752 0.000
v 3.144 1.327 0.000
v 1.824 1.556 0.000
v -0.311 -1.391 0.000
v -0.394 -2.734 0.000
v -0.443 -2.689 0.000
v 0.583 -1.127 0.000
v -0.311 -1.391 0.000
v 0.431 -1.057 0.000
v -0.311 -1.391 0.000
v 0.583 -1.127 0.000
v 1.058 -2.463 0.000
v -0.394 -2.734 0.000
v -0.311 -1.391 0.000
v 0.614 -2.820 0.000
v 0.614 -2.820 0.000
v -0.311 -1.391 0.000
v 1.058 -2.463 0.000
v 1.904 2.752 0.000
v 0.411 1.825 0.000
v 0.395 2.669 0.000
v 0.395 2.669 0.000
v 1.537 3.077 0.000
v 1.904 2.752 0.000
v 0.411 1.825 0.000
v 1.824 1.556 0.000
v 1.493 1.303 0.000
v 1.824 1.556 0.000
v 0.411 1.825 0.000
v 1.904 2.752 0.000
v 3.155 4.189 0.000
v 1.537 3.077 0.000
v 1.542 4.189 0.000
v 1.904 2.752 0.000
v 3.155 4.189 0.000
v 3.150 2.919 0.000
v 1.537 3.077 0.000
v 3.155 4.189 0.000
v 1.904 2.752 0.000
v -0.211 1.327 0.000
v 0.236 0.118 0.000
v -0.108 0.347 0.000
v 1.411 0.551 0.000
v -0.211 1.327 0.000
v 0.411 1.825 0.000
v 0.411 1.825 0.000
v 1.493 1.303 0.000
v 1.411 0.551 0.000
v -0.211 1.327 0.000
v 1.411 0.551 0.000
v 0.236 0.118 0.000
v -1.616 -2.891 0.000
v -0.443 -2.689 0.000
v -0.394 -2.734 0.000
v -1.616 -2.891 0.000
v -0.506 -4.242 0.000
v -1.616 -4.255 0.000
v -1.616 -2.891 0.000
v -1.735 -2.891 0.000
v -1.499 -2.666 0.000
v -1.616 -2.891 0.000
v -0.394 -2.734 0.000
v -0.506 -4.242 0.000
v -0.443 -2.689 0.000
v -1.616 -2.891 0.000
v -1.499 -2.666 0.000
v -0.108 0.347 0.000
v -1.204 -1.001 0.000
v -1.282 -0.103 0.000
v -0.311 -1.391 0.000
v -0.108 0.347 0.000
v 0.236 0.118 0.000
v 0.236 0.118 0.000
v 0.431 -1.057 0.000
v -0.311 -1.391 0.000
v -0.108 0.347 0.000
v -0.311 -1.391 0.000
v -1.204 -1.001 0.000
v -1.235 2.646 0.000
v -0.211 1.327 0.000
v -1.199 1.706 0.000
v -0.211 1.327 0.000
v -1.235 2.646 0.000
v -0.025 3.021 0.000
v -0.025 3.021 0.000
v 0.395 2.669 0.000
v 0.411 1.825 0.000
v -0.211 1.327 0.000
v -0.025 3.021 0.000
v 0.411 1.825 0.000
v -1.749 -1.476 0.000
v -1.499 -2.666 0.000
v -1.735 -2.891 0.000
v -1.749 -1.476 0.000
v -2.884 -2.891 0.000
v -2.884 -1.330 0.000
v -2.884 -2.891 0.000
v -1.749 -1.476 0.000
v -1.735 -2.891 0.000
v -1.749 -1.476 0.000
v -1.204 -1.001 0.000
v -0.311 -1.391 0.000
v -0.311 -1.391 0.000
v -0.443 -2.689 0.000
v -1.499 -2.666 0.000
v -1.499 -2.666 0.000
v -1.749 -1.476 0.000
v -0.311 -1.391 0.000
v 1.537 3.077 0.000
v 0.395 2.669 0.000
v -0.025 3.021 0.000
v 1.537 3.077 0.000
v -0.044 4.189 0.000
v 1.542 4.189 0.000
v -0.044 4.189 0.000
v 1.537 3.077 0.000
v -0.025 3.021 0.000
v -0.108 0.347 0.000
v -1.282 -0.103 0.000
v -1.551 0.105 0.000
v -0.211 1.327 0.000
v -1.630 1.340 0.000
v -1.199 1.706 0.000
v -1.551 0.105 0.000
v -0.211 1.327 0.000
v -0.108 0.347 0.000
v -0.211 1.327 0.000
v -1.551 0.105 0.000
v -1.630 1.340 0.000
v -2.884 -0.082 0.000
v -1.749 -1.476 0.000
v -2.884 -1.330 0.000
v -1.749 -1.476 0.000
v -2.884 -0.082 0.000
v -1.551 0.105 0.000
v -1.551 0.105 0.000
v -1.282 -0.103 0.000
v -1.204 -1.001 0.000
v -1.749 -1.476 0.000
v -1.551 0.105 0.000
v -1.204 -1.001 0.000
v -1.630 1.340 0.000
v -2.884 1.537 0.000
v -2.884 2.721 0.000
v -1.199 1.706 0.000
v -1.500 2.886 0.000
v -1.235 2.646 0.000
v -1.500 2.886 0.000
v -1.199 1.706 0.000
v -1.630 1.340 0.000
v -1.500 2.886 0.000
v -1.630 1.340 0.000
v -2.884 2.721 0.000
v -1.500 2.886 0.000
v -2.884 2.721 0.000
v -2.884 4.189 0.000
v -2.884 4.189 0.000
v -1.503 4.189 0.000
v -1.500 2.886 0.000
v -0.025 3.021 0.000
v -1.235 2.646 0.000
v -1.500 2.886 0.000
v -0.025 3.021 0.000
v -1.503 4.189 0.000
v -0.044 4.189 0.000
v -1.503 4.189 0.000
v -0.025 3.021 0.000
v -1.500 2.886 0.000
v -1.630 1.340 0.000
v -1.551 0.105 0.000
v -2.884 -0.082 0.000
v -2.884 -0.082 0.000
v -2.884 1.537 0.000
v -1.630 1.340 0.000
v -2.884 4.189 0.000
v -2.884 2.995 1.536
v -2.884 4.189 1.411
v -2.884 2.995 1.536
v -2.884 4.189 0.000
v -2.884 2.666 -0.000
v -2.884 2.995 1.536
v -2.884 2.666 -0.000
v -2.884 2.688 1.309
v -2.884 2.995 1.536
v -2.884 1.569 1.638
v -2.884 1.824 2.988
v -2.884 1.824 2.988
v -2.884 2.939 2.988
v -2.884 2.995 1.536
v -2.884 1.569 1.638
v -2.884 2.995 1.536
v -2.884 2.688 1.309
v -2.884 2.995 1.536
v -2.884 2.939 2.988
v -2.884 4.189 2.988
v -2.884 4.189 2.988
v -2.884 4.189 1.411
v -2.884 2.995 1.536
v -2.884 -0.153 0.986
v -2.884 1.125 1.060
v -2.884 1.320 -0.000
v -2.884 1.320 -0.000
v -2.884 -0.366 -0.000
v -2.884 -0.153 0.986
v -2.884 2.688 1.309
v -2.884 1.320 -0.000
v -2.884 1.125 1.060
v -2.884 1.125 1.060
v -2.884 1.379 1.537
v -2.884 1.569 1.638
v -2.884 1.320 -0.000
v -2.884 2.688 1.309
v -2.884 2.666 -0.000
v -2.884 2.688 1.309
v -2.884 1.125 1.060
v -2.884 1.569 1.638
v -2.884 1.569 1.638
v -2.884 1.379 1.537
v -2.884 0.182 2.382
v -2.884 0.182 2.382
v -2.884 0.150 2.988
v -2.884 1.824 2.988
v -2.884 1.824 2.988
v -2.884 1.569 1.638
v -2.884 0.182 2.382
v -2.884 -0.153 0.986
v -2.884 -1.622 1.452
v -2.884 -0.443 1.507
v -2.884 -1.622 1.452
v -2.884 -1.372 1.663
v -2.884 -0.443 1.507
v -2.884 -1.560 -0.000
v -2.884 -0.153 0.986
v -2.884 -0.366 -0.000
v -2.884 -1.622 1.452
v -2.884 -0.153 0.986
v -2.884 -1.560 -0.000
v -2.884 0.182 2.382
v -2.884 -0.153 0.986
v -2.884 -0.443 1.507
v -2.884 1.125 1.060
v -2.884 0.182 2.382
v -2.884 1.379 1.537
v -2.884 -0.153 0.986
v -2.884 0.182 2.382
v -2.884 1.125 1.060
v -2.884 -1.466 2.988
v -2.884 -0.443 1.507
v -2.884 -1.372 1.663
v -2.884 0.182 2.382
v -2.884 -1.466 2.988
v -2.884 0.150 2.988
v -2.884 -0.443 1.507
v -2.884 -1.466 2.988
v -2.884 0.182 2.382
v -2.884 -1.622 1.452
v -2.884 -1.560 -0.000
v -2.884 -2.891 -0.000
v -2.884 -2.891 -0.000
v -2.884 -2.891 1.532
v -2.884 -1.622 1.452
v -2.884 -2.891 2.988
v -2.884 -1.622 1.452
v -2.884 -2.891 1.532
v -2.884 -1.622 1.452
v -2.884 -2.891 2.988
v -2.884 -1.466 2.988
v -2.884 -1.622 1.452
v -2.884 -1.466 2.988
v -2.884 -1.372 1.663
v -2.884 -2.891 1.491
v -1.616 -2.891 2.988
v -2.884 -2.891 2.988
v -1.616 -2.891 2.988
v -2.884 -2.891 1.491
v -1.616 -2.891 1.490
v -1.616 -2.891 1.490
v -2.884 -2.891 -0.000
v -1.616 -2.891 -0.000
v -2.884 -2.891 -0.000
v -1.616 -2.891 1.490
v -2.884 -2.891 1.491
v -0.506 -4.242 1.466
v -0.369 -4.240 1.571
v -0.420 -4.241 2.988
v -0.506 -4.242 1.466
v -1.616 -4.255 2.988
v -1.616 -4.255 1.499
v -1.616 -4.255 2.988
v -0.506 -4.242 1.466
v -0.420 -4.241 2.988
v -0.369 -4.240 1.571
v 0.745 -4.227 1.490
v 0.760 -4.226 1.499
v -0.369 -4.240 1.571
v 0.851 -4.225 2.988
v -0.420 -4.241 2.988
v 0.851 -4.225 2.988
v -0.369 -4.240 1.571
v 0.760 -4.226 1.499
v -0.506 -4.242 1.466
v -1.616 -4.255 1.499
v -1.616 -4.255 -0.000
v -1.616 -4.255 -0.000
v -0.432 -4.241 0.000
v -0.506 -4.242 1.466
v 0.645 -4.228 0.000
v -0.369 -4.240 1.571
v -0.506 -4.242 1.466
v -0.506 -4.242 1.466
v -0.432 -4.241 0.000
v 0.645 -4.228 0.000
v -0.369 -4.240 1.571
v 0.645 -4.228 0.000
v 0.745 -4.227 1.490
v 2.004 -4.211 1.520
v 3.122 -4.198 1.489
v 3.122 -4.198 2.988
v 3.122 -4.198 2.988
v 1.939 -4.212 2.988
v 2.004 -4.211 1.520
v 1.871 -4.213 1.418
v 0.760 -4.226 1.499
v 0.745 -4.227 1.490
v 1.871 -4.213 1.418
v 0.645 -4.228 0.000
v 1.925 -4.212 0.000
v 0.645 -4.228 0.000
v 1.871 -4.213 1.418
v 0.745 -4.227 1.490
v 0.760 -4.226 1.499
v 1.871 -4.213 1.418
v 2.004 -4.211 1.520
v 2.004 -4.211 1.520
v 1.939 -4.212 2.988
v 0.851 -4.225 2.988
v 0.851 -4.225 2.988
v 0.760 -4.226 1.499
v 2.004 -4.211 1.520
v 2.004 -4.211 1.520
v 1.871 -4.213 1.418
v 1.925 -4.212 0.000
v 2.004 -4.211 1.520
v 3.122 -4.198 0.000
v 3.122 -4.198 1.489
v 3.122 -4.198 0.000
v 2.004 -4.211 1.520
v 1.925 -4.212 0.000
v -1.546 2.910 2.988
v -1.477 4.189 2.988
v -2.884 4.189 2.988
v -2.884 4.189 2.988
v -2.884 2.739 2.988
v -1.546 2.910 2.988
v -1.776 1.366 2.988
v -2.884 2.739 2.988
v -2.884 1.536 2.988
v -1.546 2.910 2.988
v -1.776 1.366 2.988
v -1.112 1.940 2.988
v -1.112 1.940 2.988
v -1.106 2.491 2.988
v -1.546 2.910 2.988
v -2.884 2.739 2.988
v -1.776 1.366 2.988
v -1.546 2.910 2.988
v -1.546 2.910 2.988
v -1.106 2.491 2.988
v -0.017 3.024 2.988
v -0.017 3.024 2.988
v -0.138 4.189 2.988
v -1.477 4.189 2.988
v -1.477 4.189 2.988
v -1.546 2.910 2.988
v -0.017 3.024 2.988
v -0.017 3.024 2.988
v 0.442 2.753 2.988
v 1.524 3.335 2.988
v 1.524 3.335 2.988
v 1.571 4.189 2.988
v -0.138 4.189 2.988
v -0.138 4.189 2.988
v -0.017 3.024 2.988
v 1.524 3.335 2.988
v 0.442 2.753 2.988
v 0.673 1.801 2.988
v 1.744 1.819 2.988
v 1.744 1.819 2.988
v 2.114 2.686 2.988
v 1.524 3.335 2.988
v 1.524 3.335 2.988
v 0.442 2.753 2.988
v 1.744 1.819 2.988
v -0.017 3.024 2.988
v -1.106 2.491 2.988
v -1.112 1.940 2.988
v 0.673 1.801 2.988
v -0.229 1.285 2.988
v 0.441 1.460 2.988
v -0.229 1.285 2.988
v 0.673 1.801 2.988
v 0.442 2.753 2.988
v -0.229 1.285 2.988
v -0.017 3.024 2.988
v -1.112 1.940 2.988
v -0.017 3.024 2.988
v -0.229 1.285 2.988
v 0.442 2.753 2.988
v 3.155 4.189 2.988
v 2.114 2.686 2.988
v 3.150 2.795 2.988
v 1.524 3.335 2.988
v 3.155 4.189 2.988
v 1.571 4.189 2.988
v 2.114 2.686 2.988
v 3.155 4.189 2.988
v 1.524 3.335 2.988
v -1.492 0.038 2.988
v -1.460 0.080 2.988
v -1.776 1.366 2.988
v -1.776 1.366 2.988
v -2.884 1.536 2.988
v -2.884 -0.066 2.988
v -2.884 -0.066 2.988
v -1.492 0.038 2.988
v -1.776 1.366 2.988
v 1.744 1.819 2.988
v 1.079 0.257 2.988
v 2.147 1.200 2.988
v 1.079 0.257 2.988
v 1.490 0.185 2.988
v 2.147 1.200 2.988
v 0.441 1.460 2.988
v 1.744 1.819 2.988
v 0.673 1.801 2.988
v 1.079 0.257 2.988
v 1.744 1.819 2.988
v 0.441 1.460 2.988
v -0.566 0.292 2.988
v -1.776 1.366 2.988
v -1.460 0.080 2.988
v -1.776 1.366 2.988
v -0.566 0.292 2.988
v -0.229 1.285 2.988
v -1.776 1.366 2.988
v -0.229 1.285 2.988
v -1.112 1.940 2.988
v 2.114 2.686 2.988
v 1.744 1.819 2.988
v 2.147 1.200 2.988
v 2.114 2.686 2.988
v 3.143 1.123 2.988
v 3.150 2.795 2.988
v 3.143 1.123 2.988
v 2.114 2.686 2.988
v 2.147 1.200 2.988
v -0.566 0.292 2.988
v 0.177 -0.310 2.988
v 1.079 0.257 2.988
v 1.079 0.257 2.988
v 0.441 1.460 2.988
v -0.229 1.285 2.988
v -0.229 1.285 2.988
v -0.566 0.292 2.988
v 1.079 0.257 2.988
v -0.566 0.292 2.988
v -1.460 0.080 2.988
v -1.492 0.038 2.988
v -0.566 0.292 2.988
v -0.483 -1.383 2.988
v 0.177 -0.310 2.988
v -0.483 -1.383 2.988
v 0.132 -1.065 2.988
v 0.177 -0.310 2.988
v -1.358 -1.092 2.988
v -0.566 0.292 2.988
v -1.492 0.038 2.988
v -0.483 -1.383 2.988
v -0.566 0.292 2.988
v -1.358 -1.092 2.988
v 0.807 -1.501 2.988
v 0.177 -0.310 2.988
v 0.132 -1.065 2.988
v 1.820 -0.274 2.988
v 0.807 -1.501 2.988
v 1.586 -1.317 2.988
v 1.079 0.257 2.988
v 1.820 -0.274 2.988
v 1.490 0.185 2.988
v 1.820 -0.274 2.988
v 0.177 -0.310 2.988
v 0.807 -1.501 2.988
v 0.177 -0.310 2.988
v 1.820 -0.274 2.988
v 1.079 0.257 2.988
v 2.147 1.200 2.988
v 1.490 0.185 2.988
v 1.820 -0.274 2.988
v 2.147 1.200 2.988
v 3.137 -0.290 2.988
v 3.143 1.123 2.988
v 3.137 -0.290 2.988
v 2.147 1.200 2.988
v 1.820 -0.274 2.988
v 2.022 -1.694 2.988
v 1.903 -2.833 2.988
v 3.126 -3.109 2.988
v 3.126 -3.109 2.988
v 3.132 -1.565 2.988
v 2.022 -1.694 2.988
v -2.884 -2.891 2.988
v -1.840 -1.495 2.988
v -2.884 -1.403 2.988
v -1.840 -1.495 2.988
v -2.884 -2.891 2.988
v -1.616 -2.891 2.988
v -1.840 -1.495 2.988
v -1.616 -2.891 2.988
v -1.546 -2.818 2.988
v -2.884 -0.066 2.988
v -1.358 -1.092 2.988
v -1.492 0.038 2.988
v -1.840 -1.495 2.988
v -2.884 -0.066 2.988
v -2.884 -1.403 2.988
v -1.358 -1.092 2.988
v -2.884 -0.066 2.988
v -1.840 -1.495 2.988
v 0.647 -2.678 2.988
v -0.483 -1.383 2.988
v -0.558 -2.640 2.988
v -0.558 -2.640 2.988
v -0.072 -2.954 2.988
v 0.647 -2.678 2.988
v -0.483 -1.383 2.988
v 0.807 -1.501 2.988
v 0.132 -1.065 2.988
v 0.807 -1.501 2.988
v -0.483 -1.383 2.988
v 0.647 -2.678 2.988
v -0.558 -2.640 2.988
v -1.840 -1.495 2.988
v -1.546 -2.818 2.988
v -1.840 -1.495 2.988
v -0.558 -2.640 2.988
v -0.483 -1.383 2.988
v -1.840 -1.495 2.988
v -0.483 -1.383 2.988
v -1.358 -1.092 2.988
v 1.820 -0.274 2.988
v 1.586 -1.317 2.988
v 2.022 -1.694 2.988
v 2.022 -1.694 2.988
v 3.132 -1.565 2.988
v 3.137 -0.290 2.988
v 3.137 -0.290 2.988
v 1.820 -0.274 2.988
v 2.022 -1.694 2.988
v -1.616 -2.895 2.988
v -0.558 -2.640 2.988
v -1.546 -2.818 2.988
v -0.558 -2.640 2.988
v -1.616 -2.895 2.988
v -1.616 -4.255 2.988
v -0.558 -2.640 2.988
v -0.110 -4.237 2.988
v -0.072 -2.954 2.988
v -0.110 -4.237 2.988
v -0.558 -2.640 2.988
v -1.616 -4.255 2.988
v 0.647 -2.678 2.988
v 2.022 -1.694 2.988
v 0.807 -1.501 2.988
v 2.022 -1.694 2.988
v 1.586 -1.317 2.988
v 0.807 -1.501 2.988
v 1.903 -2.833 2.988
v 0.647 -2.678 2.988
v 1.496 -3.104 2.988
v 2.022 -1.694 2.988
v 0.647 -2.678 2.988
v 1.903 -2.833 2.988
v -0.110 -4.237 2.988
v 0.647 -2.678 2.988
v -0.072 -2.954 2.988
v 0.647 -2.678 2.988
v -0.110 -4.237 2.988
v 1.461 -4.218 2.988
v 0.647 -2.678 2.988
v 1.461 -4.218 2.988
v 1.496 -3.104 2.988
v 1.903 -2.833 2.988
v 1.496 -3.104 2.988
v 1.461 -4.218 2.988
v 1.903 -2.833 2.988
v 3.122 -4.198 2.988
v 3.126 -3.109 2.988
v 3.122 -4.198 2.988
v 1.903 -2.833 2.988
v 1.461 -4.218 2.988
v 3.150 2.903 1.529
v 3.155 4.189 1.452
v 3.155 4.189 2.988
v 3.155 4.189 2.988
v 3.150 2.889 2.988
v 3.150 2.903 1.529
v 3.145 1.592 1.574
v 3.149 2.723 1.383
v 3.150 2.903 1.529
v 3.145 1.592 1.574
v 3.150 2.889 2.988
v 3.145 1.594 2.988
v 3.150 2.889 2.988
v 3.145 1.592 1.574
v 3.150 2.903 1.529
v 3.150 2.903 1.529
v 3.149 2.723 1.383
v 3.149 2.728 -0.000
v 3.150 2.903 1.529
v 3.155 4.189 -0.000
v 3.155 4.189 1.452
v 3.155 4.189 -0.000
v 3.150 2.903 1.529
v 3.149 2.728 -0.000
v 3.128 -2.615 2.438
v 3.133 -1.472 1.501
v 3.134 -1.152 1.677
v 3.128 -2.615 2.438
v 3.135 -0.964 2.988
v 3.128 -2.643 2.988
v 3.135 -0.964 2.988
v 3.128 -2.615 2.438
v 3.134 -1.152 1.677
v 3.140 0.281 1.600
v 3.144 1.276 1.350
v 3.145 1.592 1.574
v 3.140 0.281 1.600
v 3.145 1.594 2.988
v 3.140 0.270 2.988
v 3.145 1.594 2.988
v 3.140 0.281 1.600
v 3.145 1.592 1.574
v 3.133 -1.364 -0.000
v 3.127 -2.818 0.917
v 3.127 -2.972 -0.000
v 3.127 -2.818 0.917
v 3.133 -1.364 -0.000
v 3.132 -1.620 1.207
v 3.144 1.281 -0.000
v 3.145 1.592 1.574
v 3.144 1.276 1.350
v 3.145 1.592 1.574
v 3.144 1.281 -0.000
v 3.149 2.728 -0.000
v 3.145 1.592 1.574
v 3.149 2.728 -0.000
v 3.149 2.723 1.383
v 3.140 0.281 1.600
v 3.135 -0.964 2.988
v 3.134 -1.152 1.677
v 3.134 -1.152 1.677
v 3.138 -0.118 1.345
v 3.140 0.281 1.600
v 3.135 -0.964 2.988
v 3.140 0.281 1.600
v 3.140 0.270 2.988
v 3.144 1.276 1.350
v 3.140 0.281 1.600
v 3.138 -0.118 1.345
v 3.138 -0.118 1.345
v 3.138 -0.171 -0.000
v 3.144 1.281 -0.000
v 3.144 1.281 -0.000
v 3.144 1.276 1.350
v 3.138 -0.118 1.345
v 3.134 -1.152 1.677
v 3.133 -1.472 1.501
v 3.132 -1.620 1.207
v 3.138 -0.118 1.345
v 3.133 -1.364 -0.000
v 3.138 -0.171 -0.000
v 3.132 -1.620 1.207
v 3.138 -0.118 1.345
v 3.134 -1.152 1.677
v 3.133 -1.364 -0.000
v 3.138 -0.118 1.345
v 3.132 -1.620 1.207
v 3.127 -2.818 0.917
v 3.128 -2.615 2.438
v 3.126 -3.252 1.522
v 3.128 -2.615 2.438
v 3.127 -2.818 0.917
v 3.132 -1.620 1.207
v 3.128 -2.615 2.438
v 3.132 -1.620 1.207
v 3.133 -1.472 1.501
v 3.122 -4.198 2.988
v 3.128 -2.615 2.438
v 3.128 -2.643 2.988
v 3.126 -3.252 1.522
v 3.122 -4.198 2.988
v 3.122 -4.198 1.573
v 3.122 -4.198 2.988
v 3.126 -3.252 1.522
v 3.128 -2.615 2.438
v 3.122 -4.198 -0.000
v 3.126 -3.252 1.522
v 3.122 -4.198 1.573
v 3.127 -2.818 0.917
v 3.122 -4.198 -0.000
v 3.127 -2.972 -0.000
v 3.126 -3.252 1.522
v 3.122 -4.198 -0.000
v 3.127 -2.818 0.917
v -2.823 4.082 0.150
v -2.823 4.082 0.595
v -1.303 4.082 0.595
v -1.303 4.082 0.595
v -1.303 4.082 0.150
v -2.823 4.082 0.150
v -0.763 4.082 0.150
v -0.763 4.082 0.595
v 0.757 4.082 0.595
v 0.757 4.082 0.595
v 0.757 4.082 0.150
v -0.763 4.082 0.150
v 1.267 4.082 0.150
v 1.267 4.082 0.595
v 2.787 4.082 0.595
v 2.787 4.082 0.595
v 2.787 4.082 0.150
v 1.267 4.082 0.150

usemtl Patch_1_Mat_CR2_concrete
f 3 2 1
f 6 5 4

usemtl Patch_2_Mat_CR2_windows
f 9 8 7
f 12 11 10

usemtl Patch_3_Mat_CR2_windows
f 15 14 13
f 18 17 16

usemtl Patch_4_Mat_CR2_windows
f 21 20 19
f 24 23 22

usemtl Patch_5_Mat_CR2_windows
f 27 26 25
f 30 29 28

usemtl Patch_6_Mat_CR2_windows
f 33 32 31
f 36 35 34

usemtl Patch_7_Mat_CR2_windows
f 39 38 37
f 42 41 40

usemtl Patch_8_Mat_CR2_concrete
f 45 44 43
f 48 47 46

usemtl Patch_9_Mat_CR2_concrete
f 51 50 49
f 54 53 52

usemtl Patch_10_Mat_CR2_concrete
f 57 56 55
f 60 59 58

usemtl Patch_11_Mat_CR2_concrete
f 63 62 61
f 66 65 64

usemtl Patch_12_Mat_CR2_concrete
f 69 68 67
f 72 71 70

usemtl Patch_13_Mat_CR2_concrete
f 75 74 73
f 78 77 76
f 81 80 79
f 84 83 82
f 87 86 85
f 90 89 88
f 93 92 91
f 96 95 94

usemtl Patch_14_Mat_CR2_concrete
f 99 98 97
f 102 101 100
f 105 104 103
f 108 107 106
f 111 110 109
f 114 113 112

usemtl Patch_15_Mat_CR2_concrete
f 117 116 115
f 120 119 118
f 123 122 121
f 126 125 124

usemtl Patch_16_Mat_CR2_concrete
f 129 128 127
f 132 131 130
f 135 134 133
f 138 137 136
f 141 140 139
f 144 143 142

usemtl Patch_17_Mat_CR2_concrete
f 147 146 145
f 150 149 148
f 153 152 151
f 156 155 154
f 159 158 157
f 162 161 160

usemtl Patch_18_Mat_CR2_floor
f 165 164 163
f 168 167 166

usemtl Patch_19_Mat_CR2_floor
f 171 170 169
f 174 173 172
f 177 176 175
f 180 179 178

usemtl Patch_20_Mat_CR2_floor
f 183 182 181
f 186 185 184
f 189 188 187

usemtl Patch_21_Mat_CR2_floor
f 192 191 190
f 195 194 193
f 198 197 196

usemtl Patch_22_Mat_CR2_floor
f 201 200 199
f 204 203 202
f 207 206 205

usemtl Patch_23_Mat_CR2_floor
f 210 209 208
f 213 212 211

usemtl Patch_24_Mat_CR2_floor
f 216 215 214
f 219 218 217
f 222 221 220
f 225 224 223

usemtl Patch_25_Mat_CR2_floor
f 228 227 226
f 231 230 229
f 234 233 232
f 237 236 235

usemtl Patch_26_Mat_CR2_floor
f 240 239 238
f 243 242 241

usemtl Patch_27_Mat_CR2_floor
f 246 245 244
f 249 248 247
f 252 251 250
f 255 254 253
f 258 257 256

usemtl Patch_28_Mat_CR2_floor
f 261 260 259
f 264 263 262
f 267 266 265
f 270 269 268

usemtl Patch_29_Mat_CR2_floor
f 273 272 271
f 276 275 274
f 279 278 277

usemtl Patch_30_Mat_CR2_floor
f 282 281 280
f 285 284 283
f 288 287 286
f 291 290 289

usemtl Patch_31_Mat_CR2_floor
f 294 293 292
f 297 296 295
f 300 299 298
f 303 302 301
f 306 305 304

usemtl Patch_32_Mat_CR2_floor
f 309 308 307
f 312 311 310
f 315 314 313
f 318 317 316

usemtl Patch_33_Mat_CR2_floor
f 321 320 319
f 324 323 322
f 327 326 325
f 330 329 328

usemtl Patch_34_Mat_CR2_floor
f 333 332 331
f 336 335 334
f 339 338 337

usemtl Patch_35_Mat_CR2_floor
f 342 341 340
f 345 344 343
f 348 347 346

usemtl Patch_36_Mat_CR2_floor
f 351 350 349
f 354 353 352
f 357 356 355

usemtl Patch_37_Mat_CR2_floor
f 360 359 358
f 363 362 361
f 366 365 364
f 369 368 367

usemtl Patch_38_Mat_CR2_floor
f 372 371 370
f 375 374 373
f 378 377 376
f 381 380 379

usemtl Patch_39_Mat_CR2_floor
f 384 383 382
f 387 386 385
f 390 389 388
f 393 392 391

usemtl Patch_40_Mat_CR2_floor
f 396 395 394
f 399 398 397

usemtl Patch_41_Mat_CR2_floor
f 402 401 400
f 405 404 403
f 408 407 406

usemtl Patch_42_Mat_CR2_floor
f 411 410 409
f 414 413 412

usemtl Patch_43_Mat_CR2_plaster
f 417 416 415
f 420 419 418
f 423 422 421

usemtl Patch_44_Mat_CR2_plaster
f 426 425 424
f 429 428 427
f 432 431 430

usemtl Patch_45_Mat_CR2_plaster
f 435 434 433
f 438 437 436

usemtl Patch_46_Mat_CR2_plaster
f 441 440 439
f 444 443 442

usemtl Patch_47_Mat_CR2_plaster
f 447 446 445
f 450 449 448
f 453 452 451
f 456 455 454

usemtl Patch_48_Mat_CR2_plaster
f 459 458 457
f 462 461 460
f 465 464 463

usemtl Patch_49_Mat_CR2_plaster
f 468 467 466
f 471 470 469
f 474 473 472
f 477 476 475

usemtl Patch_50_Mat_CR2_plaster
f 480 479 478
f 483 482 481
f 486 485 484

usemtl Patch_51_Mat_CR2_plaster
f 489 488 487
f 492 491 490
f 495 494 493

usemtl Patch_52_Mat_CR2_plaster
f 498 497 496
f 501 500 499

usemtl Patch_53_Mat_CR2_plaster
f 504 503 502
f 507 506 505
f 510 509 508

usemtl Patch_54_Mat_CR2_plaster
f 513 512 511
f 516 515 514

usemtl Patch_55_Mat_CR2_plaster
f 519 518 517
f 522 521 520

usemtl Patch_56_Mat_CR2_plaster
f 525 524 523
f 528 527 526
f 531 530 529

usemtl Patch_57_Mat_CR2_plaster
f 534 533 532
f 537 536 535
f 540 539 538

usemtl Patch_58_Mat_CR2_plaster
f 543 542 541
f 546 545 544

usemtl Patch_59_Mat_CR2_plaster
f 549 548 547
f 552 551 550
f 555 554 553

usemtl Patch_60_Mat_CR2_plaster
f 558 557 556
f 561 560 559

usemtl Patch_61_Mat_CR2_plaster
f 564 563 562
f 567 566 565
f 570 569 568

usemtl Patch_62_Mat_CR2_plaster
f 573 572 571
f 576 575 574
f 579 578 577

usemtl Patch_63_Mat_CR2_plaster
f 582 581 580
f 585 584 583
f 588 587 586

usemtl Patch_64_Mat_CR2_ceiling
f 591 590 589
f 594 593 592

usemtl Patch_65_Mat_CR2_ceiling
f 597 596 595
f 600 599 598
f 603 602 601
f 606 605 604

usemtl Patch_66_Mat_CR2_ceiling
f 609 608 607
f 612 611 610
f 615 614 613

usemtl Patch_67_Mat_CR2_ceiling
f 618 617 616
f 621 620 619
f 624 623 622

usemtl Patch_68_Mat_CR2_ceiling
f 627 626 625
f 630 629 628
f 633 632 631

usemtl Patch_69_Mat_CR2_ceiling
f 636 635 634
f 639 638 637
f 642 641 640
f 645 644 643
f 648 647 646

usemtl Patch_70_Mat_CR2_ceiling
f 651 650 649
f 654 653 652
f 657 656 655

usemtl Patch_71_Mat_CR2_ceiling
f 660 659 658
f 663 662 661
f 666 665 664

usemtl Patch_72_Mat_CR2_ceiling
f 669 668 667
f 672 671 670
f 675 674 673
f 678 677 676

usemtl Patch_73_Mat_CR2_ceiling
f 681 680 679
f 684 683 682
f 687 686 685

usemtl Patch_74_Mat_CR2_ceiling
f 690 689 688
f 693 692 691
f 696 695 694

usemtl Patch_75_Mat_CR2_ceiling
f 699 698 697
f 702 701 700
f 705 704 703

usemtl Patch_76_Mat_CR2_ceiling
f 708 707 706
f 711 710 709
f 714 713 712
f 717 716 715
f 720 719 718

usemtl Patch_77_Mat_CR2_ceiling
f 723 722 721
f 726 725 724
f 729 728 727
f 732 731 730
f 735 734 733

usemtl Patch_78_Mat_CR2_ceiling
f 738 737 736
f 741 740 739
f 744 743 742

usemtl Patch_79_Mat_CR2_ceiling
f 747 746 745
f 750 749 748

usemtl Patch_80_Mat_CR2_ceiling
f 753 752 751
f 756 755 754
f 759 758 757

usemtl Patch_81_Mat_CR2_ceiling
f 762 761 760
f 765 764 763
f 768 767 766

usemtl Patch_82_Mat_CR2_ceiling
f 771 770 769
f 774 773 772
f 777 776 775
f 780 779 778

usemtl Patch_83_Mat_CR2_ceiling
f 783 782 781
f 786 785 784
f 789 788 787

usemtl Patch_84_Mat_CR2_ceiling
f 792 791 790
f 795 794 793
f 798 797 796

usemtl Patch_85_Mat_CR2_ceiling
f 801 800 799
f 804 803 802
f 807 806 805
f 810 809 808

usemtl Patch_86_Mat_CR2_ceiling
f 813 812 811
f 816 815 814
f 819 818 817
f 822 821 820

usemtl Patch_87_Mat_CR2_ceiling
f 825 824 823
f 828 827 826
f 831 830 829

usemtl Patch_88_Mat_CR2_ceiling
f 834 833 832
f 837 836 835
f 840 839 838

usemtl Patch_89_Mat_CR2_concrete
f 843 842 841
f 846 845 844

usemtl Patch_90_Mat_CR2_concrete
f 849 848 847
f 852 851 850
f 855 854 853

usemtl Patch_91_Mat_CR2_concrete
f 858 857 856
f 861 860 859
f 864 863 862

usemtl Patch_92_Mat_CR2_concrete
f 867 866 865
f 870 869 868
f 873 872 871

usemtl Patch_93_Mat_CR2_concrete
f 876 875 874
f 879 878 877
f 882 881 880

usemtl Patch_94_Mat_CR2_concrete
f 885 884 883
f 888 887 886

usemtl Patch_95_Mat_CR2_concrete
f 891 890 889
f 894 893 892
f 897 896 895

usemtl Patch_96_Mat_CR2_concrete
f 900 899 898
f 903 902 901
f 906 905 904

usemtl Patch_97_Mat_CR2_concrete
f 909 908 907
f 912 911 910
f 915 914 913

usemtl Patch_98_Mat_CR2_concrete
f 918 917 916
f 921 920 919
f 924 923 922
f 927 926 925

usemtl Patch_99_Mat_CR2_concrete
f 930 929 928
f 933 932 931
f 936 935 934

usemtl Patch_100_Mat_CR2_concrete
f 939 938 937
f 942 941 940
f 945 944 943

usemtl Patch_101_Mat_CR2_concrete
f 948 947 946
f 951 950 949
f 954 953 952

usemtl Patch_102_Mat_CR2_concrete
f 957 956 955
f 960 959 958

usemtl Patch_103_Mat_CR2_concrete
f 963 962 961
f 966 965 964

usemtl Patch_104_Mat_CR2_concrete
f 969 968 967
f 972 971 970

